<?xml version="1.0" encoding="utf-8"?>
<!-- Generator: Adobe Illustrator 18.0.0, SVG Export Plug-In . SVG Version: 6.00 Build 0)  -->
<!DOCTYPE svg PUBLIC "-//W3C//DTD SVG 1.1//EN" "http://www.w3.org/Graphics/SVG/1.1/DTD/svg11.dtd">
<svg version="1.1" id="Layer_1" xmlns="http://www.w3.org/2000/svg" xmlns:xlink="http://www.w3.org/1999/xlink" x="0px" y="0px"
	 viewBox="0 0 91.4 91.4" enable-background="new 0 0 91.4 91.4" xml:space="preserve">
<g>
	<path fill="none" d="M56.3,25.8l-7.5-19h-5.1l-7.5,19c0,0.1-0.1,0.2-0.1,0.2l-2,3.2h4.6c0.4-3.8,3.7-6.8,7.6-6.8s7.2,3,7.6,6.8h4.7
		l-2-3.2C56.4,25.9,56.4,25.9,56.3,25.8z"/>
	<path fill="none" d="M51,30c0-2.6-2.1-4.8-4.8-4.8s-4.8,2.1-4.8,4.8s2.1,4.8,4.8,4.8S51,32.7,51,30z"/>
	<path fill="none" d="M46.2,37.7c-3.5,0-6.5-2.4-7.4-5.6h-2.8v44.7c2.9,1.8,5.2,4.5,6.7,7.8c0.6,0,1.3,0.1,1.9,0.2
		c0.6-0.1,1.2-0.2,1.8-0.2c2-4.4,5.6-7.7,9.9-9.4V32.1h-2.8C52.7,35.3,49.7,37.7,46.2,37.7z"/>
	<path fill="none" d="M11.9,78.8c0.4,0.4,0.8,0.9,1.1,1.3c3.3-3.8,8.1-6.1,13.4-6.1c2.4,0,4.6,0.5,6.7,1.3v-4.9H11.9V78.8z"/>
	<polygon fill="none" points="11.5,67.5 33.2,67.5 33.2,64.4 10.6,64.4 	"/>
	<polygon fill="none" points="11.3,61.5 33.2,61.5 33.2,46.4 21.4,46.4 	"/>
	<polygon fill="none" points="59.2,67.5 79.9,67.5 80.9,64.4 59.2,64.4 	"/>
	<polygon fill="none" points="70.1,46.4 59.2,46.4 59.2,61.5 80.2,61.5 	"/>
	<path fill="none" d="M59.2,74.4c1.2-0.2,2.3-0.4,3.6-0.4c7.6,0,14.2,4.7,16.8,11.6V70.4H59.2L59.2,74.4z"/>
	<linearGradient id="SVGID_1_" gradientUnits="userSpaceOnUse" x1="10.2925" y1="1.456101e-09" x2="10.2925" y2="102.4423">
		<stop  offset="0" style="stop-color:#41669A"/>
		<stop  offset="0.3946" style="stop-color:#899B3A"/>
		<stop  offset="0.6493" style="stop-color:#899B3A"/>
		<stop  offset="0.8248" style="stop-color:#1D433F"/>
		<stop  offset="1" style="stop-color:#04273D"/>
	</linearGradient>
	<path fill="url(#SVGID_1_)" d="M11.2,82.5c-0.8,1.3-1.5,2.7-1.9,4.2L11.2,82.5z"/>
	<g>
		<polygon fill="none" points="11.5,67.5 33.2,67.5 33.2,64.4 10.6,64.4 		"/>
		<polygon fill="none" points="11.3,61.5 33.2,61.5 33.2,46.4 21.4,46.4 		"/>
		<path fill="none" d="M11.9,78.8c0.4,0.4,0.8,0.9,1.1,1.3c3.3-3.8,8.1-6.1,13.4-6.1c2.4,0,4.6,0.5,6.7,1.3v-4.9H11.9V78.8z"/>
		<path fill="none" d="M49.4,91.4c-1.4-2.4-3.9-4-6.9-4c-0.1,0-0.2,0-0.2,0c-0.1,0-0.2,0-0.4,0l-1.1,0.1l-0.4-1
			c-2.3-5.9-7.8-9.7-14-9.7c-7.3,0-13.5,5.2-14.8,12.3l-0.4,2.2"/>
		<path fill="none" d="M46.2,37.7c-3.5,0-6.5-2.4-7.4-5.6h-2.8v44.7c2.9,1.8,5.2,4.5,6.7,7.8c0.6,0,1.3,0.1,1.9,0.2
			c0.6-0.1,1.2-0.2,1.8-0.2c2-4.4,5.6-7.7,9.9-9.4V32.1h-2.8C52.7,35.3,49.7,37.7,46.2,37.7z"/>
		<path fill="none" d="M11.2,82.5c-0.8,1.3-1.5,2.7-1.9,4.2L11.2,82.5z"/>
		<path fill="none" d="M59.2,74.4c1.2-0.2,2.3-0.4,3.6-0.4c7.6,0,14.2,4.7,16.8,11.6V70.4H59.2L59.2,74.4z"/>
		<polygon fill="none" points="59.2,67.5 79.9,67.5 80.9,64.4 59.2,64.4 		"/>
		<path fill="none" d="M56.3,25.8l-7.5-19h-5.1l-7.5,19c0,0.1-0.1,0.2-0.1,0.2l-2,3.2h4.6c0.4-3.8,3.7-6.8,7.6-6.8s7.2,3,7.6,6.8
			h4.7l-2-3.2C56.4,25.9,56.4,25.9,56.3,25.8z"/>
		<path fill="none" d="M51,30c0-2.6-2.1-4.8-4.8-4.8s-4.8,2.1-4.8,4.8s2.1,4.8,4.8,4.8S51,32.7,51,30z"/>
		<polygon fill="none" points="70.1,46.4 59.2,46.4 59.2,61.5 80.2,61.5 		"/>
		<linearGradient id="SVGID_2_" gradientUnits="userSpaceOnUse" x1="45.72" y1="-1.346052e-10" x2="45.72" y2="102.4423">
			<stop  offset="0" style="stop-color:#41669A"/>
			<stop  offset="0.3946" style="stop-color:#899B3A"/>
			<stop  offset="0.6493" style="stop-color:#899B3A"/>
			<stop  offset="0.8248" style="stop-color:#1D433F"/>
			<stop  offset="1" style="stop-color:#04273D"/>
		</linearGradient>
		<path fill="url(#SVGID_2_)" d="M84.5,62.9L72.8,45.3l-0.5-0.8v-4.7c0-0.8-0.6-1.4-1.4-1.4c-0.8,0-1.4,0.6-1.4,1.4v3.7h-2.9v-3.7
			c0-0.8-0.6-1.4-1.4-1.4c-0.8,0-1.4,0.6-1.4,1.4v3.7h-4.4V32.1h1.9c0.5,0,1-0.3,1.3-0.7c0.3-0.5,0.2-1,0-1.5L59,24.6L51.2,5V1.4
			c0-0.8-0.6-1.4-1.4-1.4c-0.8,0-1.4,0.6-1.4,1.4v2.4h-4.2V1.4c0-0.8-0.6-1.4-1.4-1.4s-1.4,0.6-1.4,1.4V5l-7.7,19.6l-3.4,5.3
			c-0.3,0.4-0.3,1,0,1.5c0.3,0.5,0.7,0.7,1.3,0.7h1.9v11.4h-5.4v-3.4c0-0.8-0.6-1.4-1.4-1.4c-0.8,0-1.4,0.6-1.4,1.4v3.4h-2.9v-3.4
			c0-0.8-0.6-1.4-1.4-1.4c-0.8,0-1.4,0.6-1.4,1.4v4.4L6.9,62.9c0,0-0.8,1-0.1,1.7c0.5,0.5,1,0.6,1.2,1.3l1,3.2v6.9l0.4,14l1.8,1.4
			l0.4-2.2c1.3-7.1,7.6-12.3,14.8-12.3c6.3,0,11.8,3.8,14,9.7l0.4,1l1.1-0.1c0.1,0,0.2,0,0.4,0c0.1,0,0.1,0,0.2,0
			c2.9,0,5.5,1.6,6.9,4h3.2c-0.8-2-2.1-3.7-3.9-4.9c2.3-5.9,7.8-9.6,14-9.6c7.3,0,13.5,5.2,14.8,12.3l0.4,2.2h0h0l0,0l1.8-1.4
			c0.8-0.6,1.7-1,2.6-1.4v-3v-0.8V69.1l1-3.2c0.2-0.7,0.7-0.8,1.2-1.3C85.3,63.9,84.5,62.9,84.5,62.9z M33.2,75.3
			c-2.1-0.8-4.4-1.3-6.7-1.3c-5.3,0-10.1,2.3-13.4,6.1c-0.4-0.5-0.7-0.9-1.1-1.3v-8.4h21.3V75.3z M33.2,67.5H11.5l-1-3.1h22.6V67.5z
			 M33.2,61.5H11.3l10.1-15.2h11.8V61.5z M56.4,75.2c-4.3,1.7-7.9,5-9.9,9.4c-0.6,0-1.2,0.1-1.8,0.2c-0.6-0.1-1.2-0.2-1.9-0.2
			c-1.5-3.3-3.8-5.9-6.7-7.8V32.1h2.8c0.9,3.2,3.9,5.6,7.4,5.6c3.5,0,6.5-2.4,7.4-5.6h2.8V75.2z M41.4,30c0-2.6,2.1-4.8,4.8-4.8
			S51,27.4,51,30s-2.1,4.8-4.8,4.8S41.4,32.7,41.4,30z M53.8,29.2c-0.4-3.8-3.7-6.8-7.6-6.8s-7.2,3-7.6,6.8H34l2-3.2
			c0-0.1,0.1-0.2,0.1-0.2l7.5-19h5.1l7.5,19c0,0.1,0.1,0.2,0.1,0.2l2,3.2H53.8z M59.2,46.4h10.8l10.1,15.2H59.2V46.4z M79.6,85.6
			C77,78.7,70.3,74,62.8,74c-1.2,0-2.4,0.1-3.6,0.4l0-4h20.3V85.6z M79.9,67.5H59.2v-3.1h21.7L79.9,67.5z"/>
	</g>
</g>
</svg>
