<?xml version="1.0" standalone="no"?>
<!DOCTYPE svg PUBLIC "-//W3C//DTD SVG 1.1//EN" "http://www.w3.org/Graphics/SVG/1.1/DTD/svg11.dtd" >
<svg xmlns="http://www.w3.org/2000/svg" xmlns:xlink="http://www.w3.org/1999/xlink" version="1.1">
<metadata></metadata>
<defs>
<font id="domusbold" horiz-adv-x="1085" >
<font-face units-per-em="2048" ascent="1638" descent="-410" />
<missing-glyph horiz-adv-x="393" />
<glyph horiz-adv-x="0" />
<glyph horiz-adv-x="682" />
<glyph unicode=" "  horiz-adv-x="393" />
<glyph unicode="&#x09;" horiz-adv-x="393" />
<glyph unicode="&#xa0;" horiz-adv-x="393" />
<glyph unicode="!" horiz-adv-x="548" d="M127 145q0 72 44.5 117t117.5 45t117.5 -45t44.5 -117q0 -71 -44.5 -115t-117.5 -44t-117.5 44t-44.5 115zM150 1194q0 89 29.5 118t109.5 29t109.5 -29t29.5 -118q0 -80 -4 -342t-8 -326q-5 -67 -31 -91.5t-96 -24.5q-71 0 -95.5 24t-29.5 92q-4 65 -9 331t-5 337z" />
<glyph unicode="&#x22;" horiz-adv-x="909" d="M121 1247q-3 74 25.5 109t111.5 35t111.5 -34t25.5 -110l-10 -262q-6 -115 -127 -115q-120 0 -125 115zM514 1247q-3 74 25.5 109t111.5 35t111.5 -34t25.5 -110l-10 -262q-6 -115 -127 -115q-120 0 -125 115z" />
<glyph unicode="#" horiz-adv-x="1370" d="M98 340q0 111 115 111h111l28 280h-110q-86 0 -86 96q0 113 112 113h111l16 156q5 49 33 72.5t88 23.5q58 0 82.5 -24t19.5 -72l-16 -156h246l16 156q6 51 35.5 73.5t85.5 22.5q59 0 83.5 -24t21.5 -72l-17 -156h111q88 0 88 -96q0 -113 -115 -113h-113l-26 -280h110 q86 0 86 -95q0 -112 -112 -112h-111l-16 -156q-5 -50 -32.5 -73t-88.5 -23q-58 0 -82.5 23t-19.5 73l16 156h-248l-14 -156q-9 -96 -123 -96q-58 0 -81.5 23t-20.5 73l16 156h-111q-88 0 -88 96zM547 451h248l28 280h-248z" />
<glyph unicode="$" horiz-adv-x="1093" d="M66 195q0 45 29.5 79.5t70.5 34.5q6 0 13 -1t15 -3.5t14 -4.5t16 -6.5t16 -7t19.5 -9t19.5 -9.5q68 -31 116 -41l27 271q-189 60 -270.5 137t-81.5 196q0 75 32 134t89 96.5t129.5 58.5t158.5 25l2 53q3 111 125 111t107 -109l-11 -72q85 -17 166 -57q60 -29 83.5 -53 t23.5 -55q0 -41 -30 -78t-73 -37q-10 0 -19 1.5t-20 6t-18 7.5t-21.5 10t-21.5 10q-49 23 -96 37l-25 -254q190 -61 272.5 -142t82.5 -200q0 -78 -35 -140t-94.5 -99.5t-131 -58t-153.5 -24.5l-2 -53q-3 -111 -123 -111q-59 0 -88.5 27t-20.5 82l13 71q-119 24 -213 70 q-50 24 -71 49t-21 58zM301 838q0 -35 36 -61.5t116 -53.5l16 215q-85 -6 -126.5 -33.5t-41.5 -66.5zM602 209q83 6 125.5 35t42.5 73q0 39 -32 67t-117 56z" />
<glyph unicode="%" horiz-adv-x="1789" d="M109 881q0 143 91.5 235t237.5 92q145 0 237.5 -92t92.5 -235q0 -145 -92.5 -236.5t-237.5 -91.5q-146 0 -237.5 91.5t-91.5 236.5zM326 881q0 -53 31.5 -86t80.5 -33q48 0 79.5 33.5t31.5 85.5q0 51 -31.5 83.5t-79.5 32.5q-49 0 -80.5 -32.5t-31.5 -83.5zM416 84 q0 33 30 76l369 491l348 492q43 63 86 63q42 0 83.5 -32.5t41.5 -73.5q0 -31 -31 -76l-368 -489l-348 -494q-13 -19 -22.5 -30.5t-27 -22.5t-36.5 -11q-42 0 -83.5 33t-41.5 74zM1024 305q0 143 92 235.5t238 92.5q144 0 236.5 -92.5t92.5 -235.5q0 -145 -92 -236.5 t-237 -91.5q-146 0 -238 91.5t-92 236.5zM1241 305q0 -52 31.5 -85.5t81.5 -33.5q48 0 79 33.5t31 85.5q0 51 -31.5 84t-78.5 33q-49 0 -81 -33t-32 -84z" />
<glyph unicode="&#x26;" horiz-adv-x="1273" d="M66 332q0 63 20 119t58.5 102.5t80 82t97.5 73.5q-76 88 -114 161.5t-38 155.5q0 146 109 235t278 89q166 0 273.5 -85.5t107.5 -220.5q0 -48 -15.5 -93t-39.5 -80.5t-62 -72.5t-73.5 -63.5t-83.5 -58.5l196 -209q61 90 123 221q33 68 90 68q49 0 92 -32.5t43 -76.5 q0 -42 -48.5 -132t-121.5 -191l174 -168q58 -53 58 -97q0 -69 -137 -69q-61 0 -98 13.5t-72 51.5l-84 88q-174 -157 -402 -157q-188 0 -299.5 96t-111.5 250zM330 344q0 -62 45 -100.5t121 -38.5q113 0 217 88l-242 254q-141 -105 -141 -203zM422 1030q0 -81 102 -201 q81 51 124.5 97t43.5 100t-39.5 87.5t-99.5 33.5q-57 0 -94 -30.5t-37 -86.5z" />
<glyph unicode="'" horiz-adv-x="516" d="M121 1247q-3 74 25.5 109t111.5 35t111.5 -34t25.5 -110l-10 -262q-6 -115 -127 -115q-120 0 -125 115z" />
<glyph unicode="(" horiz-adv-x="679" d="M92 567q0 189 49 366.5t144 319.5q53 80 93 119t83 39q47 0 88 -33t41 -82q0 -39 -49 -102q-197 -262 -197 -627q0 -179 50.5 -341t146.5 -287q49 -63 49 -103q0 -47 -41 -79.5t-88 -32.5q-44 0 -83.5 38t-92.5 119q-193 289 -193 686z" />
<glyph unicode=")" horiz-adv-x="679" d="M92 -164q0 40 49 103q197 265 197 628q0 178 -50.5 340t-146.5 287q-49 63 -49 102q0 47 40.5 80t86.5 33q44 0 85.5 -39.5t92.5 -118.5q94 -143 142.5 -319t48.5 -365q0 -393 -191 -686q-51 -78 -92.5 -117.5t-85.5 -39.5q-46 0 -86.5 32.5t-40.5 79.5z" />
<glyph unicode="*" horiz-adv-x="747" d="M24.5 1063.5q-13.5 25.5 0.5 75.5q27 90 112 59q38 -12 148 -51l-2 158q0 88 92 88t92 -88q0 -48 -4 -158q108 39 149 51q86 31 113 -59q27 -89 -55 -115q-60 -19 -154 -45q86 -110 98 -127q25 -35 20 -64.5t-44 -58.5q-72 -54 -125 16q-17 22 -90 134q-53 -80 -90 -134 q-56 -69 -125 -16q-76 54 -25 123q17 27 96 127q-108 31 -151 45q-42 14 -55.5 39.5z" />
<glyph unicode="+" horiz-adv-x="1126" d="M76 512q0 111 110 111h260v297q0 110 117 110t117 -110v-297h260q111 0 111 -111t-111 -111h-260v-295q0 -110 -117 -110t-117 110v295h-260q-110 0 -110 111z" />
<glyph unicode="," horiz-adv-x="423" d="M12 -193q0 20 13 70l59 234q8 32 14.5 49t21.5 38t43 30.5t70 9.5q62 0 93.5 -23.5t31.5 -62.5q0 -36 -24.5 -130.5t-65.5 -191.5q-25 -58 -55.5 -85.5t-91.5 -27.5q-109 0 -109 90z" />
<glyph unicode="-" horiz-adv-x="669" d="M66 512q0 123 110 123h318q110 0 110 -123t-110 -123h-318q-110 0 -110 123z" />
<glyph unicode="." horiz-adv-x="489" d="M82 147q0 73 44.5 118.5t117.5 45.5t118.5 -46t45.5 -118t-45.5 -116.5t-118.5 -44.5t-117.5 44.5t-44.5 116.5z" />
<glyph unicode="/" horiz-adv-x="763" d="M104 -66q0 21 11 58l379 1315q12 43 35.5 63.5t62.5 20.5q57 0 94 -27t37 -72q0 -22 -10 -55l-379 -1315q-12 -44 -34.5 -64t-61.5 -20q-58 0 -96 26.5t-38 69.5z" />
<glyph unicode="0" horiz-adv-x="1099" d="M82 512q0 249 124.5 390.5t342.5 141.5q219 0 343 -141.5t124 -390.5t-124 -390.5t-343 -141.5q-218 0 -342.5 141.5t-124.5 390.5zM354 512q0 -141 51.5 -220t143.5 -79t144 79t52 220t-52 220t-144 79t-143.5 -79t-51.5 -220z" />
<glyph unicode="1" horiz-adv-x="747" d="M25 772q0 41 23 64t71 47l213 104q104 51 170 51q34 0 58 -10t35.5 -22.5t17.5 -34.5t7 -34.5t1 -33.5v-803q0 -110 -138 -110q-137 0 -137 110v633l-131 -65q-46 -27 -82 -27q-48 0 -78 41t-30 90z" />
<glyph unicode="2" horiz-adv-x="933" d="M61 858q0 58 82 109q124 73 293 73q81 0 150 -19.5t124.5 -58t87 -102.5t31.5 -147q0 -37 -7 -71t-18 -62t-31 -56.5t-38 -49.5t-48 -46t-52.5 -41t-60 -39.5t-61.5 -37t-65.5 -37t-64.5 -37.5h369q110 0 110 -117q0 -119 -110 -119h-557q-121 0 -121 129q0 54 19.5 88 t64.5 70q52 40 114.5 85t102 72t80.5 60t64 58.5t37.5 56.5t14.5 65q0 53 -39 88t-116 35q-84 0 -160 -47q-9 -4 -23 -12t-20.5 -11.5t-16.5 -6.5t-20 -3q-45 0 -80 43.5t-35 87.5z" />
<glyph unicode="3" horiz-adv-x="954" d="M57 23q0 44 36 89.5t81 45.5q5 0 10 -0.5t11 -3t10 -4t11.5 -5.5t10.5 -5.5t12.5 -7t12.5 -7.5q89 -57 174 -57q79 0 126.5 36t47.5 97q0 94 -115 125q-47 12 -139 12q-25 0 -38 1t-33 6.5t-30 17t-18 33.5t-8 55t8.5 55t18 33.5t32 17t34.5 6.5t42 2q110 4 161.5 35.5 t51.5 91.5q0 54 -38 84.5t-113 30.5q-42 0 -87 -13t-75 -32q-54 -33 -80 -33q-43 0 -77 42t-34 85q0 59 82 109q123 75 297 75q184 0 292 -83t108 -222q0 -95 -57.5 -161.5t-161.5 -92.5q118 -25 183.5 -101.5t65.5 -186.5q0 -158 -126 -258.5t-318 -100.5q-169 0 -293 82 q-78 51 -78 107z" />
<glyph unicode="4" horiz-adv-x="1048" d="M27 227q0 49 17 86.5t50 81.5l381 520q45 63 88.5 91t120.5 28q73 0 108 -27.5t35 -84.5v-603h93q106 0 106 -108q0 -109 -106 -109h-93v-157q0 -107 -131 -107t-131 107v157h-407q-131 0 -131 125zM297 315h281v385z" />
<glyph unicode="5" horiz-adv-x="940" d="M57 27q0 42 37 85.5t82 43.5q8 0 16 -1.5t16.5 -6t14 -7.5t17.5 -10.5t18 -11.5q79 -51 168 -51q81 0 131.5 38t50.5 109q0 73 -56.5 117.5t-172.5 44.5q-21 0 -69 -2t-62 -2q-82 0 -111 37t-24 122l22 355q4 72 40 105.5t108 33.5h428q110 0 110 -121t-110 -121h-346 l-11 -192q1 0 21 1t49 1q208 0 330.5 -99t122.5 -270q0 -174 -122.5 -282.5t-322.5 -108.5q-169 0 -293 78q-82 59 -82 115z" />
<glyph unicode="6" horiz-adv-x="1044" d="M86 461q0 217 102 389.5t277 279.5q87 53 178.5 83t142.5 30q59 0 86 -38.5t27 -84.5q0 -16 -3 -29t-11 -23t-13.5 -16.5t-20 -13.5t-20.5 -9.5t-25 -8.5t-24 -8q-324 -102 -407 -344q89 77 229 77q163 0 265 -101.5t102 -264.5q0 -174 -120 -286.5t-319 -112.5 q-202 0 -323 118q-123 129 -123 363zM344 463q0 -136 49 -199q48 -63 142 -63q77 0 125.5 48t48.5 126t-50 125t-137 47q-99 0 -178 -64v-20z" />
<glyph unicode="7" horiz-adv-x="892" d="M31 903q0 121 110 121h594q117 0 117 -117q0 -62 -39 -147l-340 -797q-15 -35 -24 -51t-28 -37t-48 -29t-72 -8q-129 0 -129 80q0 25 27 90l364 774h-422q-110 0 -110 121z" />
<glyph unicode="8" horiz-adv-x="1073" d="M80 326q0 116 67 197t162 110q-82 35 -136 107.5t-54 172.5q0 144 111.5 237t308.5 93q194 0 303.5 -89.5t109.5 -231.5q0 -101 -53.5 -171.5t-138.5 -107.5q97 -28 165 -111t68 -198q0 -71 -28.5 -133.5t-83.5 -112.5t-145 -79t-204 -29q-112 0 -200.5 28t-142 77 t-81.5 110t-28 131zM354 367q0 -74 49.5 -122t133.5 -48q83 0 132.5 48t49.5 122q0 75 -50.5 122.5t-131.5 47.5q-82 0 -132.5 -47.5t-50.5 -122.5zM383 883q0 -63 43.5 -103.5t110.5 -40.5q66 0 108.5 40.5t42.5 103.5q0 61 -41.5 101t-109.5 40t-111 -40t-43 -101z" />
<glyph unicode="9" horiz-adv-x="1044" d="M74 649q0 171 120 282t320 111q204 0 322 -118q122 -122 122 -351q0 -207 -101.5 -372.5t-272.5 -266.5q-89 -53 -181.5 -81.5t-144.5 -28.5q-59 0 -85 37.5t-26 83.5q0 26 7 44t26 30t30 16.5t40 13.5q8 3 12 4q309 96 397 305q-88 -67 -217 -67q-164 0 -266 99 t-102 259zM336 653q0 -74 49.5 -119t136.5 -45q100 0 178 60v22q0 129 -47 189q-50 61 -141 61q-78 0 -127 -46.5t-49 -121.5z" />
<glyph unicode=":" horiz-adv-x="593" d="M135 201q0 70 45 113.5t117 43.5t117 -43.5t45 -113.5q0 -71 -45 -115.5t-117 -44.5t-117 44.5t-45 115.5zM135 752q0 69 45 113t117 44t117 -44t45 -113q0 -72 -45 -116t-117 -44t-117 44t-45 116z" />
<glyph unicode=";" horiz-adv-x="485" d="M35 -193q0 30 10 72l61 232q6 30 13 48.5t22.5 39t43.5 30t69 9.5q63 0 95 -23.5t32 -62.5q0 -37 -27 -136.5t-63 -183.5q-26 -58 -57 -86.5t-93 -28.5q-106 0 -106 90zM76 702q0 70 45 114t117 44t116.5 -43.5t44.5 -114.5t-44.5 -115t-116.5 -44t-117 44t-45 115z" />
<glyph unicode="&#x3c;" horiz-adv-x="1126" d="M188 512q0 59 36 102t116 84l424 222q22 12 38.5 17.5t39.5 5.5t44 -17t38 -52q14 -28 15.5 -51.5t-3.5 -38t-21 -28.5t-26.5 -19.5t-30.5 -15.5l-416 -205l418 -207q21 -11 33 -18.5t26.5 -21t18.5 -28.5t1.5 -38t-15.5 -51q-50 -109 -160 -50l-426 222 q-75 38 -112.5 83t-37.5 105z" />
<glyph unicode="=" horiz-adv-x="1126" d="M129 313q0 109 107 109h655q106 0 106 -107q0 -108 -106 -108h-655q-107 0 -107 106zM129 709q0 108 107 108h655q106 0 106 -106q0 -109 -106 -109h-655q-107 0 -107 107z" />
<glyph unicode="&#x3e;" horiz-adv-x="1126" d="M185 808.5q1 27.5 18 63.5q16 35 36.5 52.5t43 17.5t40 -5t39.5 -17l426 -222q75 -38 112.5 -82.5t37.5 -103.5t-36.5 -103.5t-115.5 -84.5l-424 -222q-21 -11 -39 -16.5t-40.5 -5.5t-43 17t-36.5 50q-14 29 -16 53t3.5 38.5t21 28.5t26 20t30.5 16l416 205l-418 205 q-25 13 -38 22t-28.5 27.5t-14.5 46z" />
<glyph unicode="?" horiz-adv-x="901" d="M63 1210q0 48 17.5 72t54.5 37q79 29 203 29q232 0 359.5 -103.5t127.5 -273.5q0 -129 -75.5 -217t-233.5 -170q0 -38 -1 -56t-8 -45.5t-20.5 -40t-40.5 -22.5t-67 -10q-91 0 -119 43q-18 32 -18 127q0 67 15 100t60 57q24 13 68 34t69 35t53.5 35.5t42 49.5t13.5 63 q0 70 -61 111t-189 41q-54 0 -112 -10q-24 -4 -49 -4q-43 0 -66 31.5t-23 86.5zM221 145q0 72 44 117t116 45q73 0 116.5 -44.5t43.5 -117.5q0 -71 -43.5 -115t-116.5 -44q-72 0 -116 44t-44 115z" />
<glyph unicode="@" horiz-adv-x="1599" d="M98 457q0 207 92 366.5t257.5 246.5t377.5 87q203 0 357 -79.5t236.5 -219.5t82.5 -319q0 -194 -93.5 -302t-246.5 -108q-74 0 -123 26.5t-65 55.5q-92 -82 -217 -82q-130 0 -213.5 86t-83.5 236q0 160 97 257t263 97q140 0 230 -53q67 -40 67 -138v-225q0 -86 62 -86 q49 0 78.5 53t29.5 158q0 211 -121.5 330t-341.5 119q-235 0 -372.5 -134t-137.5 -368q0 -238 147.5 -367t420.5 -129q186 0 336 58q12 4 31.5 11.5t27 10.5t18.5 5.5t19 2.5q33 0 57.5 -34.5t24.5 -71.5q0 -29 -23 -51.5t-78 -45.5q-171 -71 -420 -71q-361 0 -568.5 182.5 t-207.5 495.5zM682 461q0 -77 34 -114.5t95 -37.5q46 0 96 25v270q-42 21 -88 21q-63 0 -100 -41t-37 -123z" />
<glyph unicode="A" horiz-adv-x="1290" d="M41 68q0 31 22 92l383 1036q31 83 70 114t129 31q91 0 131.5 -31.5t71.5 -113.5l379 -1036q22 -61 22 -92q0 -78 -131 -78q-69 0 -103.5 21.5t-51.5 74.5l-72 213h-502l-72 -213q-16 -50 -49.5 -73t-101.5 -23q-125 0 -125 78zM469 532h342l-172 504z" />
<glyph unicode="B" horiz-adv-x="1134" d="M123 195v942q0 35 2.5 55.5t13 48.5t36 47t67.5 31q100 27 256 27q251 0 386.5 -95t135.5 -262q0 -113 -65 -189.5t-187 -105.5q146 -27 221.5 -112.5t75.5 -210.5q0 -177 -148.5 -281t-418.5 -104q-158 0 -256 26q-34 10 -57.5 25.5t-35 31t-18 40.5t-7.5 41t-1 45z M383 225q52 -8 121 -8q274 0 274 180q0 122 -127 164q-62 19 -145 19h-123v-355zM383 788h119q70 0 123 17q110 37 110 147q0 162 -243 162q-57 0 -109 -8v-318z" />
<glyph unicode="C" horiz-adv-x="1191" d="M72 670q0 160 48 290t133 216t201 132t253 46q186 0 331 -82q107 -60 107 -129q0 -46 -39.5 -90.5t-85.5 -44.5q-11 0 -24 4.5t-20.5 8.5t-26.5 16.5t-27 17.5q-83 53 -205 53q-158 0 -258.5 -110t-100.5 -324q0 -218 102.5 -334.5t264.5 -116.5q116 0 201 53 q11 6 28.5 17.5t26.5 16.5t21.5 9.5t23.5 4.5q43 0 81 -43.5t38 -87.5q0 -69 -107 -132q-139 -84 -329 -84q-137 0 -253.5 47.5t-202 135t-133.5 219t-48 291.5z" />
<glyph unicode="D" horiz-adv-x="1298" d="M123 195v942q0 29 1 45t7.5 40.5t18 40t35 31t57.5 25.5q100 27 260 27q348 0 536.5 -178t188.5 -498q0 -324 -193 -504t-540 -180q-151 0 -252 26q-34 10 -57.5 25.5t-35 31t-18 40.5t-7.5 41t-1 45zM401 236q55 -9 109 -9q209 0 319.5 115.5t110.5 321.5 q0 209 -111 324.5t-319 115.5q-60 0 -109 -8v-860z" />
<glyph unicode="E" horiz-adv-x="1013" d="M123 139v1053q0 72 33.5 105.5t105.5 33.5h580q110 0 110 -121q0 -120 -110 -120h-455v-285h371q110 0 110 -121t-110 -121h-371v-321h467q111 0 111 -121t-111 -121h-592q-72 0 -105.5 33.5t-33.5 105.5z" />
<glyph unicode="F" horiz-adv-x="950" d="M123 100v1092q0 72 33.5 105.5t105.5 33.5h541q110 0 110 -123q0 -125 -110 -125h-402v-385h355q110 0 110 -123q0 -122 -110 -122h-355v-353q0 -110 -139 -110t-139 110z" />
<glyph unicode="G" horiz-adv-x="1296" d="M72 668q0 163 50 294t139 216t209.5 130.5t262.5 45.5q200 0 340 -82q107 -61 107 -129q0 -45 -39 -89t-84 -44q-10 0 -18.5 2t-20.5 7.5t-18 8.5t-23 13.5t-23 13.5q-95 53 -219 53q-174 0 -275.5 -111.5t-101.5 -322.5q0 -216 108 -331.5t288 -115.5q87 0 176 27v244 h-172q-111 0 -111 120q0 121 111 121h299q72 0 105.5 -33.5t33.5 -105.5v-387q0 -63 -25.5 -101t-91.5 -67q-61 -27 -152 -43t-184 -16q-144 0 -266 44.5t-212.5 128.5t-141.5 215t-51 294z" />
<glyph unicode="H" horiz-adv-x="1327" d="M123 100v1131q0 110 139 110t139 -110v-424h527v424q0 110 137 110q139 0 139 -110v-1131q0 -110 -137 -110q-139 0 -139 110v459h-527v-459q0 -110 -139 -110t-139 110z" />
<glyph unicode="I" horiz-adv-x="524" d="M123 100v1131q0 110 139 110t139 -110v-1131q0 -110 -139 -110t-139 110z" />
<glyph unicode="J" horiz-adv-x="890" d="M31 139q0 47 29.5 93.5t76.5 46.5q23 0 70 -21q67 -29 117 -29q107 0 149 105q16 41 16 119v778q0 110 140 110q139 0 139 -110v-776q0 -171 -63 -279q-53 -93 -153 -142.5t-220 -49.5q-69 0 -134 16.5t-104 40.5q-63 40 -63 98z" />
<glyph unicode="K" horiz-adv-x="1200" d="M123 100v1131q0 110 139 110t139 -110v-488l433 514q38 47 78 65.5t106 18.5q69 0 99 -18t30 -53q0 -50 -66 -121l-417 -453l438 -520q55 -62 55 -113q0 -37 -31 -55t-102 -18t-113 21t-92 85l-418 541v-537q0 -110 -139 -110t-139 110z" />
<glyph unicode="L" horiz-adv-x="954" d="M123 139v1092q0 110 139 110t139 -110v-983h406q111 0 111 -123q0 -125 -111 -125h-545q-72 0 -105.5 33.5t-33.5 105.5z" />
<glyph unicode="M" horiz-adv-x="1695" d="M100 100l76 1074q5 88 42.5 127.5t137.5 39.5q92 0 145 -38t89 -134l262 -673l262 673q36 96 85 134t142 38q97 0 135 -39.5t44 -127.5l73 -1074v-9q0 -101 -129 -101q-137 0 -143 110l-47 899l-273 -712q-23 -59 -59 -87t-100 -28t-100.5 28t-59.5 87l-272 712l-50 -899 q-3 -58 -36 -84t-99 -26t-97 28q-28 25 -28 73v9z" />
<glyph unicode="N" horiz-adv-x="1394" d="M123 100v1092q0 149 180 149q85 0 135.5 -30.5t85.5 -91.5l490 -852v864q0 110 129 110t129 -110v-1092q0 -149 -170 -149q-77 0 -124 30t-85 97l-514 866v-883q0 -110 -127 -110q-129 0 -129 110z" />
<glyph unicode="O" horiz-adv-x="1452" d="M72 666q0 317 178 503.5t475 186.5q299 0 476 -186.5t177 -503.5t-177.5 -504t-475.5 -187q-297 0 -475 187t-178 504zM358 666q0 -210 100.5 -329.5t266.5 -119.5q168 0 268.5 119.5t100.5 329.5t-100.5 329t-268.5 119q-167 0 -267 -119.5t-100 -328.5z" />
<glyph unicode="P" horiz-adv-x="1107" d="M123 100v1037q0 29 1 45t7.5 40.5t18 40t35 31t57.5 25.5q100 27 250 27q259 0 413 -120t154 -358q0 -100 -29 -182.5t-78.5 -139t-118 -95.5t-146 -56.5t-163.5 -17.5q-74 0 -123 12v-289q0 -110 -139 -110t-139 110zM401 625q48 -11 99 -11q132 0 203 63.5t71 180.5 q0 125 -77.5 185.5t-207.5 60.5q-47 0 -88 -8v-471z" />
<glyph unicode="Q" horiz-adv-x="1452" d="M72 666q0 317 178 503.5t475 186.5q299 0 476 -186.5t177 -503.5q0 -201 -74 -353t-210 -239l116 -127q80 -86 80 -135q0 -70 -135 -70q-56 0 -94 13.5t-58 32t-51 58.5l-110 138q-56 -9 -117 -9q-297 0 -475 187t-178 504zM358 666q0 -210 100.5 -329.5t266.5 -119.5 q168 0 268.5 119.5t100.5 329.5t-100.5 329t-268.5 119q-167 0 -267 -119.5t-100 -328.5z" />
<glyph unicode="R" horiz-adv-x="1144" d="M123 100v1037q0 29 1 45t7.5 40.5t18 40t35 31t57.5 25.5q100 27 252 27q261 0 408 -114.5t147 -322.5q0 -135 -63 -237.5t-179 -161.5l205 -283q56 -78 73 -107.5t17 -56.5q0 -37 -29.5 -55t-99.5 -18q-44 0 -74 6.5t-54 24t-39.5 37t-39.5 55.5l-221 329q-58 -4 -84 -4 q-42 0 -70 4v-342q0 -110 -133 -110q-135 0 -135 110zM387 672q37 -6 82 -6q143 0 220 59t77 166q0 106 -73 162.5t-204 56.5q-47 0 -102 -10v-428z" />
<glyph unicode="S" horiz-adv-x="1032" d="M66 193q0 49 37.5 95t80.5 46q14 0 29 -5.5t26 -11.5t37 -22q43 -25 68.5 -38t68 -25.5t85.5 -12.5q88 0 143 40t55 106q0 47 -34 85t-88.5 65.5t-120 54.5t-131 61t-120 76.5t-88.5 109.5t-34 152q0 172 127.5 278.5t329.5 106.5q88 0 176.5 -23.5t152.5 -64.5 q41 -27 58.5 -51t17.5 -56q0 -48 -36 -94.5t-81 -46.5q-21 0 -86 35q-115 59 -204 59q-84 0 -132.5 -36.5t-48.5 -92.5q0 -42 34 -75.5t88.5 -59t120 -52t131.5 -62.5t120.5 -80.5t88.5 -115t34 -159.5q0 -185 -133 -293.5t-342 -108.5q-204 0 -353 103q-77 53 -77 113z" />
<glyph unicode="T" horiz-adv-x="1140" d="M39 1206q0 125 111 125h843q111 0 111 -123q0 -125 -111 -125h-282v-983q0 -110 -140 -110q-139 0 -139 110v983h-282q-111 0 -111 123z" />
<glyph unicode="U" horiz-adv-x="1300" d="M123 508v723q0 110 139 110t139 -110v-723q0 -84 23 -143q58 -148 233 -148q93 0 149 38t85 110q22 56 22 143v723q0 110 131 110q134 0 134 -110v-721q0 -155 -48 -266q-113 -269 -481 -269q-363 0 -479 269q-47 109 -47 264z" />
<glyph unicode="V" horiz-adv-x="1302" d="M47 1264q0 77 133 77q74 0 109 -23t51 -73l317 -928l316 928q16 50 49.5 73t105.5 23q127 0 127 -77q0 -32 -22 -93l-389 -1052q-26 -70 -68 -99.5t-127 -29.5q-84 0 -126 29.5t-68 99.5l-385 1052q-23 64 -23 93z" />
<glyph unicode="W" horiz-adv-x="1886" d="M59 1255q0 86 140 86q73 0 105 -26t44 -88l193 -895l229 823q20 73 58.5 105t121.5 32q81 0 119 -31t57 -106l224 -823l198 895q14 62 45 88t101 26q133 0 133 -86q0 -15 -15 -77l-270 -1061q-16 -67 -54.5 -97t-125.5 -30q-88 0 -128 30.5t-60 100.5l-232 823l-235 -823 q-11 -34 -21.5 -55t-31 -40t-54 -27.5t-82.5 -8.5q-87 0 -125 29.5t-57 97.5l-264 1061q-13 54 -13 77z" />
<glyph unicode="X" horiz-adv-x="1284" d="M49 63q0 8 2 16.5t4 15t6.5 16t7.5 14.5t10 15t10 13.5t10.5 14t9.5 12.5l354 496l-344 475q-22 31 -30 43t-18 34t-10 40q0 73 134 73q76 0 119 -23t77 -75l258 -387l256 387q34 52 75 75t114 23q135 0 135 -73q0 -18 -9.5 -39.5t-19.5 -35.5t-31 -42l-348 -483 l353 -488q21 -29 30 -42.5t18 -35t9 -39.5q0 -73 -133 -73q-76 0 -119.5 23t-77.5 75l-266 399l-264 -399q-34 -52 -73.5 -75t-115.5 -23q-133 0 -133 73z" />
<glyph unicode="Y" horiz-adv-x="1220" d="M14 1270q0 71 133 71q74 0 114.5 -23t70.5 -81l280 -526l285 526q31 57 66.5 80.5t113.5 23.5q129 0 129 -71q0 -8 -1 -16t-5 -18t-6 -16t-8.5 -17.5t-8.5 -15.5t-10.5 -18t-9.5 -16l-409 -711v-342q0 -110 -140 -110q-139 0 -139 110v340l-401 705q-6 11 -18.5 33 t-18.5 33.5t-11.5 28t-5.5 30.5z" />
<glyph unicode="Z" horiz-adv-x="1048" d="M47 115q0 46 18 85t56 93l528 790h-485q-111 0 -111 123q0 125 111 125h696q129 0 129 -114q0 -46 -18.5 -85.5t-55.5 -93.5l-528 -790h510q111 0 111 -123q0 -125 -111 -125h-721q-129 0 -129 115z" />
<glyph unicode="[" horiz-adv-x="673" d="M123 -90v1331q0 72 33.5 105.5t105.5 33.5h258q111 0 111 -108q0 -109 -111 -109h-166v-1175h166q111 0 111 -109q0 -108 -111 -108h-258q-72 0 -105.5 33.5t-33.5 105.5z" />
<glyph unicode="\" horiz-adv-x="763" d="M41 1292q0 45 36.5 72t94.5 27q39 0 61.5 -20t34.5 -64l381 -1315q8 -40 8 -58q0 -43 -37 -69.5t-94 -26.5q-39 0 -62.5 20.5t-35.5 63.5l-379 1315q-8 27 -8 55z" />
<glyph unicode="]" horiz-adv-x="673" d="M43 -121q0 109 111 109h165v1175h-165q-111 0 -111 109q0 108 111 108h258q72 0 105.5 -33.5t33.5 -105.5v-1331q0 -72 -33.5 -105.5t-105.5 -33.5h-258q-111 0 -111 108z" />
<glyph unicode="^" horiz-adv-x="958" d="M143 883l187 360q29 55 58 79t91 24q58 0 90 -24t60 -79l184 -360q37 -71 -2 -117.5t-104 -46.5q-36 0 -56 18.5t-43 67.5l-127 256l-129 -256q-24 -50 -42 -68t-54 -18q-68 0 -109 46.5t-4 117.5z" />
<glyph unicode="_" horiz-adv-x="765" d="M20 -178q0 119 111 119h504q110 0 110 -119t-110 -119h-504q-111 0 -111 119z" />
<glyph unicode="`" horiz-adv-x="1228" d="M373 1245q0 46 37 89.5t92 43.5q19 0 38.5 -8t28.5 -14t33 -25l107 -92q34 -27 49.5 -47.5t15.5 -48.5q0 -44 -34 -80.5t-83 -36.5q-24 0 -53 14t-90 54q-77 50 -109 81.5t-32 69.5z" />
<glyph unicode="a" horiz-adv-x="980" d="M63 256q0 141 126 219.5t415 104.5v14q0 61 -32.5 92t-108.5 31q-84 0 -170 -41q-63 -29 -86 -29q-44 0 -74.5 42.5t-30.5 86.5q0 54 74 96q128 70 311 70q227 0 318 -108q63 -75 63 -230v-502q0 -59 -31 -85.5t-102 -26.5q-61 0 -87.5 19.5t-26.5 64.5v16 q-87 -100 -254 -100q-141 0 -222.5 71.5t-81.5 194.5zM342 281q0 -38 26.5 -61t82.5 -23q84 0 153 57v166q-137 -18 -199.5 -49.5t-62.5 -89.5z" />
<glyph unicode="b" horiz-adv-x="1083" d="M121 246v1034q0 111 137 111t137 -111v-393q74 51 197 51q191 0 307.5 -122t116.5 -339q0 -227 -131 -359t-367 -132q-183 0 -303 69q-27 15 -45.5 34t-28 35t-14.5 40.5t-5.5 39t-0.5 42.5zM395 238q54 -31 125 -31q101 0 158 66t57 186q0 121 -57 189.5t-154 68.5 q-76 0 -129 -41v-438z" />
<glyph unicode="c" horiz-adv-x="890" d="M68 463q0 213 127.5 346t330.5 133q153 0 256 -68q58 -39 58 -90q0 -47 -32 -89t-83 -42q-27 0 -68 23q-64 31 -122 31q-90 0 -138.5 -63.5t-48.5 -176.5q0 -112 49 -180t138 -68q52 0 120 33q38 20 68 20q52 0 84.5 -40t32.5 -87q0 -51 -54 -86q-99 -73 -264 -73 q-198 0 -326 131.5t-128 345.5z" />
<glyph unicode="d" horiz-adv-x="1083" d="M68 453q0 223 125 354t333 131q107 0 162 -35v377q0 111 137 111q138 0 138 -111v-1180q0 -110 -136 -110q-120 0 -120 86v12q-80 -100 -236 -100q-174 0 -288.5 125t-114.5 340zM348 467q0 -123 57 -190.5t154 -67.5q74 0 129 43v430q-53 35 -125 35q-101 0 -158 -65.5 t-57 -184.5z" />
<glyph unicode="e" horiz-adv-x="999" d="M68 459q0 223 119.5 355t324.5 132q195 0 308.5 -116.5t113.5 -286.5q0 -52 -11.5 -85t-35 -49t-48 -21t-61.5 -5h-446q35 -176 219 -176q84 0 168 43q54 26 80 26q47 0 78.5 -39t31.5 -83q0 -33 -18 -54.5t-53 -44.5q-114 -71 -293 -71q-228 0 -352.5 125t-124.5 350z M330 561h344q0 78 -42 127t-124 49q-154 0 -178 -176z" />
<glyph unicode="f" horiz-adv-x="745" d="M23 805q0 115 110 115h78v20q0 173 65 264q48 68 134 108t190 40q113 0 180 -33q60 -26 60 -84q0 -47 -23.5 -88t-71.5 -41q-15 0 -59.5 8t-69.5 8q-80 0 -112 -59q-19 -37 -19 -123v-20h136q110 0 110 -115t-110 -115h-136v-590q0 -110 -137 -110t-137 110v590h-78 q-110 0 -110 115z" />
<glyph unicode="g" horiz-adv-x="1011" d="M29 -127q0 140 166 207q-66 57 -66 139q0 113 111 168q-146 86 -146 250q0 137 106.5 222t276.5 85q150 0 256 -72q81 48 164 48q55 0 81 -26t26 -83q0 -102 -91 -102h-69q8 -31 8 -70q0 -140 -104 -224.5t-271 -84.5q-43 0 -86 6q-20 -23 -20 -57q0 -37 33 -53.5 t104 -16.5q231 0 332 -62q110 -67 110 -217t-113.5 -240.5t-342.5 -90.5q-217 0 -341 75.5t-124 198.5zM311 -98q0 -50 46 -79.5t139 -29.5q94 0 141 31.5t47 85.5q0 52 -46.5 72t-162.5 22q-59 0 -94 6q-70 -43 -70 -108zM346 637q0 -56 35 -89.5t96 -33.5t96 33.5t35 89.5 q0 55 -35 88t-96 33t-96 -33t-35 -88z" />
<glyph unicode="h" horiz-adv-x="1089" d="M121 100v1180q0 111 137 111t137 -111v-459q85 117 262 117q186 0 265 -127q57 -83 57 -236v-475q0 -110 -137 -110t-137 110v430q0 70 -27 111q-39 57 -125 57q-95 0 -158 -69v-529q0 -110 -137 -110t-137 110z" />
<glyph unicode="i" horiz-adv-x="516" d="M96 1208q0 70 45.5 114t116.5 44t116.5 -44t45.5 -114t-45.5 -114.5t-116.5 -44.5t-116.5 44.5t-45.5 114.5zM121 100v727q0 111 137 111t137 -111v-727q0 -110 -137 -110t-137 110z" />
<glyph unicode="j" horiz-adv-x="516" d="M-39 -270q0 17 6.5 32.5t13.5 24.5t22.5 25t21.5 24q34 37 55 81t29 102.5t10 97.5t2 112v598q0 111 137 111t137 -111v-585q0 -65 -1 -103t-5.5 -99t-15.5 -104.5t-29 -95.5t-48 -97t-71 -85q-57 -57 -116 -57q-54 0 -101 38t-47 91zM96 1208q0 70 45.5 114t116.5 44 t116.5 -44t45.5 -114t-45.5 -114.5t-116.5 -44.5t-116.5 44.5t-45.5 114.5z" />
<glyph unicode="k" horiz-adv-x="1038" d="M121 100v1180q0 111 137 111t137 -111v-752l271 318q45 55 80.5 73.5t101.5 18.5q70 0 106.5 -19.5t36.5 -52.5q0 -39 -53 -92l-272 -285l276 -321q57 -66 57 -109q0 -69 -139 -69q-75 0 -115 18.5t-73 65.5l-277 362v-336q0 -110 -137 -110t-137 110z" />
<glyph unicode="l" horiz-adv-x="516" d="M121 100v1180q0 111 137 111t137 -111v-1180q0 -110 -137 -110t-137 110z" />
<glyph unicode="m" horiz-adv-x="1650" d="M121 100v727q0 111 133 111q67 0 98 -30q29 -28 29 -75v-6v-22q37 62 108.5 97.5t165.5 35.5q201 0 277 -164q39 76 117 120t180 44q175 0 256 -127q55 -85 55 -236v-475q0 -110 -137 -110t-137 110v430q0 79 -27 115q-35 53 -119 53q-99 0 -151 -71v-527 q0 -110 -138 -110q-137 0 -137 110v432q0 74 -26 113q-38 53 -119 53q-102 0 -154 -71v-527q0 -110 -137 -110t-137 110z" />
<glyph unicode="n" horiz-adv-x="1089" d="M121 100v727q0 111 133 111q67 0 98 -30q29 -28 29 -75v-6v-22q85 133 276 133q186 0 265 -127q57 -83 57 -236v-475q0 -110 -137 -110t-137 110v430q0 70 -27 111q-39 57 -125 57q-95 0 -158 -69v-529q0 -110 -137 -110t-137 110z" />
<glyph unicode="o" d="M68 461q0 221 130.5 354t348.5 133q217 0 345 -131.5t128 -349.5q0 -223 -130.5 -355t-350.5 -132q-217 0 -344 131t-127 350zM348 467q0 -124 53.5 -195t143.5 -71q89 0 140.5 70t51.5 190q0 123 -53 193.5t-143 70.5q-89 0 -141 -69t-52 -189z" />
<glyph unicode="p" horiz-adv-x="1083" d="M121 -287v1114q0 111 135 111q121 0 121 -86v-12q79 98 235 98q175 0 289.5 -124t114.5 -339q0 -224 -125.5 -355.5t-333.5 -131.5q-103 0 -162 35v-310q0 -110 -137 -110t-137 110zM395 244q50 -33 123 -33q102 0 159.5 65t57.5 185q0 123 -57 190.5t-154 67.5 q-74 0 -129 -43v-432z" />
<glyph unicode="q" horiz-adv-x="1077" d="M68 451q0 227 130.5 359t366.5 132q181 0 303 -70q34 -19 54.5 -41t28.5 -50t10 -47.5t2 -53.5v-967q0 -110 -138 -110q-137 0 -137 110v328q-77 -53 -196 -53q-191 0 -307.5 123t-116.5 340zM348 469q0 -121 57 -189.5t154 -68.5q78 0 129 39v438q-54 31 -125 31 q-101 0 -158 -65t-57 -185z" />
<glyph unicode="r" horiz-adv-x="743" d="M121 100v727q0 111 133 111q67 0 98 -30q29 -28 29 -75v-6v-41q34 70 95 112t140 42q59 0 86 -29.5t27 -93.5q0 -69 -30 -96.5t-95 -30.5q-85 -3 -131.5 -23t-77.5 -67v-500q0 -110 -137 -110t-137 110z" />
<glyph unicode="s" horiz-adv-x="878" d="M70 166q0 42 30 84.5t80 42.5q26 0 82 -29q57 -30 98.5 -44.5t90.5 -14.5q47 0 74.5 15.5t27.5 45.5q0 27 -26 47t-68 34.5t-92.5 29.5t-101.5 37.5t-93 52t-68 79t-26 113.5q0 127 96 205t270 78q162 0 281 -68q74 -43 74 -98q0 -43 -31 -85t-78 -42q-18 0 -86 29 q-106 45 -174 45q-42 0 -66 -15t-24 -42q0 -25 26 -44.5t68 -33.5t93 -29.5t101.5 -38t92.5 -53t68 -81.5t26 -116q0 -132 -98.5 -208t-276.5 -76q-169 0 -295 75q-75 44 -75 105z" />
<glyph unicode="t" horiz-adv-x="829" d="M23 805q0 115 110 115h72v180q0 110 137 110t137 -110v-180h172q111 0 111 -115t-111 -115h-172v-307q0 -88 19 -125q20 -41 75 -41q19 0 64 10q36 9 47 9q51 0 74.5 -40.5t23.5 -84.5q0 -51 -49 -80q-75 -45 -203 -45q-203 0 -280 141q-28 50 -36.5 110.5t-8.5 145.5 v307h-72q-110 0 -110 115z" />
<glyph unicode="u" d="M117 352v475q0 111 137 111t137 -111v-432q0 -78 27 -114q39 -54 119 -54q99 0 153 72v528q0 111 137 111q138 0 138 -111v-727q0 -110 -131 -110q-69 0 -100 29q-29 27 -29 75v6v23q-39 -64 -110.5 -99.5t-164.5 -35.5q-177 0 -258 127q-55 85 -55 237z" />
<glyph unicode="v" horiz-adv-x="1019" d="M39 860q0 78 129 78q71 0 103 -25t55 -90l188 -534l186 534q23 64 54.5 89.5t101.5 25.5q125 0 125 -78q0 -34 -20 -88l-261 -651q-30 -77 -68 -104t-124 -27q-64 0 -101 14.5t-56.5 40t-39.5 76.5l-252 651q-20 54 -20 88z" />
<glyph unicode="w" horiz-adv-x="1511" d="M53 852q0 86 133 86q71 0 102.5 -26.5t45.5 -90.5l115 -512l143 469q20 67 57 99t111 32t111.5 -33t56.5 -96l135 -471l123 512q16 65 45 91t96 26q70 0 100.5 -24.5t30.5 -61.5q0 -23 -14 -86l-191 -639q-23 -74 -61 -105.5t-115 -31.5t-116 31.5t-62 103.5l-147 461 l-154 -461q-24 -72 -63.5 -103.5t-116.5 -31.5q-79 0 -117 32.5t-59 106.5l-174 637q-15 68 -15 86z" />
<glyph unicode="x" horiz-adv-x="999" d="M37 59q0 40 47 103l235 307l-225 295q-49 65 -49 104q0 70 127 70q73 0 116 -21t79 -73l139 -201l139 201q36 51 73.5 72.5t110.5 21.5q121 0 121 -70q0 -37 -47 -104l-223 -291l235 -311q50 -62 50 -103q0 -69 -127 -69q-74 0 -117 21t-78 73l-149 217l-152 -217 q-34 -53 -74 -73.5t-110 -20.5q-121 0 -121 69z" />
<glyph unicode="y" horiz-adv-x="1011" d="M33 854q0 84 131 84q72 0 105.5 -25t56.5 -86l196 -532q98 217 170 528q5 24 9 36t14 30t23.5 26.5t38 15.5t57.5 7q70 0 97 -23.5t27 -64.5q0 -51 -32 -166q-62 -228 -194 -506.5t-288 -468.5q-48 -60 -83 -85t-72 -25q-56 0 -102 37.5t-46 89.5q0 31 17 56.5t51 59.5 q113 115 158 193l-310 733q-24 58 -24 86z" />
<glyph unicode="z" horiz-adv-x="899" d="M68 805q0 115 110 115h529q110 0 110 -103q0 -39 -17 -72.5t-61 -91.5l-325 -424h327q111 0 111 -114q0 -115 -111 -115h-559q-108 0 -108 100q0 41 17 74.5t61 91.5l327 424h-301q-110 0 -110 115z" />
<glyph unicode="{" horiz-adv-x="688" d="M2 575q0 45 12 72.5t25 37t35 18.5q4 1 6 2q60 27 85 72t25 120q0 28 -4 94t-4 92q0 142 81.5 222.5t248.5 80.5q68 0 100.5 -21.5t32.5 -86.5q0 -36 -9 -59t-31.5 -33.5t-33 -13t-39.5 -4.5q-4 -1 -6 -1q-61 -6 -87.5 -41t-26.5 -112q0 -28 4 -88t4 -86q0 -94 -41 -160 t-139 -105q98 -39 139 -104.5t41 -159.5q0 -26 -4 -86t-4 -88q0 -77 26.5 -112t87.5 -41q59 -5 81 -20q38 -27 38 -91q0 -65 -32.5 -87t-100.5 -22q-167 0 -248.5 81t-81.5 223q0 27 4 92.5t4 91.5q0 75 -24 121t-86 73q-40 17 -53 32q-25 29 -25 97z" />
<glyph unicode="|" horiz-adv-x="763" d="M262 -51v1331q0 111 121 111q119 0 119 -111v-1331q0 -111 -119 -111q-121 0 -121 111z" />
<glyph unicode="}" horiz-adv-x="688" d="M43 -127q0 36 9 59t31.5 33.5t33 13t39.5 4.5q4 1 6 1q61 6 87.5 41t26.5 112q0 28 -4 88t-4 86q0 93 41.5 159t139.5 105q-98 39 -139.5 105.5t-41.5 159.5q0 26 4 86t4 88q0 77 -26.5 112t-87.5 41q-59 5 -81 20q-38 27 -38 91q0 65 32.5 86.5t100.5 21.5 q167 0 248.5 -80.5t81.5 -222.5q0 -27 -4 -92t-4 -92q0 -75 24 -121t86 -73q40 -17 53 -33q25 -30 25 -97q0 -34 -5 -57t-18.5 -37.5t-20.5 -18.5t-28 -13l-6 -3q-60 -27 -85 -72t-25 -120q0 -28 4 -94t4 -92q0 -142 -81.5 -223t-248.5 -81q-68 0 -100.5 22t-32.5 87z" />
<glyph unicode="~" horiz-adv-x="1126" d="M86 477q0 52 68 103q56 40 122.5 62t126.5 22q56 0 115.5 -21.5t113 -43t95.5 -21.5q68 0 143 55q45 31 66 31q38 0 71 -35.5t33 -81.5q0 -52 -67 -103q-114 -86 -246 -86q-61 0 -121 22t-112.5 44t-94.5 22q-68 0 -143 -55q-45 -31 -66 -31q-38 0 -71 35.5t-33 81.5z " />
<glyph unicode="&#xa1;" horiz-adv-x="548" d="M98 874q0 71 44.5 115.5t117.5 44.5t117.5 -44.5t44.5 -115.5q0 -72 -44.5 -116.5t-117.5 -44.5t-117.5 44.5t-44.5 116.5zM121 -174q0 80 4 342t8 326q5 67 31 91.5t96 24.5q71 0 95.5 -24t29.5 -92q4 -65 9 -331t5 -337q0 -89 -29.5 -118.5t-109.5 -29.5t-109.5 29.5 t-29.5 118.5z" />
<glyph unicode="&#xa2;" horiz-adv-x="1003" d="M68 512q0 202 123 331t325 150l4 86q3 59 33 85t90 26q123 0 107 -109l-17 -100q76 -17 135 -53q70 -41 70 -92q0 -40 -29 -77.5t-71 -37.5q-25 0 -64 22q-33 19 -72 31l-55 -530q64 7 125 41q46 26 66 26q43 0 71.5 -38t28.5 -78q0 -49 -68 -91q-88 -59 -235 -71l-2 -84 q-3 -111 -123 -111q-122 0 -107 109l19 102q-162 42 -258 164.5t-96 298.5zM311 520q0 -89 38 -153t106 -97l49 508q-91 -22 -142 -88.5t-51 -169.5z" />
<glyph unicode="&#xa3;" horiz-adv-x="993" d="M57 582q0 113 111 110l70 -2q-2 4 -11 20.5t-11.5 21.5t-9.5 20t-10 22.5t-8.5 21.5t-7.5 24t-5 23.5t-4 26.5t-1 27q0 133 103.5 220t277.5 87q154 0 258 -61q84 -50 84 -111q0 -42 -35.5 -83.5t-79.5 -41.5q-8 0 -15 1.5t-15.5 5t-14 6.5t-17.5 10t-18 10 q-72 33 -141 33q-60 0 -96.5 -25t-36.5 -76q0 -26 9.5 -51.5t31 -67.5t31.5 -63l219 8q56 2 83 -25.5t27 -84.5q3 -114 -108 -111l-185 2q-4 -76 -34.5 -143.5t-71.5 -99.5h393q111 0 111 -117q0 -119 -111 -119h-626q-55 0 -81 28.5t-26 90.5q0 55 16.5 80.5t52.5 44 t50 32.5q34 29 57 83.5t27 115.5l-121 -4q-54 -2 -82.5 23.5t-28.5 87.5z" />
<glyph unicode="&#xa5;" horiz-adv-x="1126" d="M31 1126q0 68 123 68q61 0 99.5 -21t72.5 -71l243 -346l244 346q35 49 73.5 70.5t96.5 21.5q56 0 84.5 -18t28.5 -50q0 -40 -49 -102l-248 -313h90q110 0 110 -103q0 -102 -110 -102h-197v-105h197q110 0 110 -102t-110 -102h-197v-97q0 -110 -129 -110t-129 110v97h-196 q-111 0 -111 102t111 102h196v105h-196q-111 0 -111 102q0 103 111 103h84l-240 313q-51 68 -51 102z" />
<glyph unicode="&#xa7;" horiz-adv-x="1026" d="M74 526q0 73 37 135.5t102 98.5q-102 75 -102 196q0 129 103.5 212t274.5 83q170 0 289 -77q70 -46 70 -93q0 -43 -34.5 -84t-74.5 -41q-7 0 -13.5 1.5t-15 5t-14.5 6t-19.5 9.5t-21.5 11q-54 27 -92 39t-84 12q-61 0 -91 -20.5t-30 -50.5q0 -28 29.5 -51t76.5 -42 t104 -39t114.5 -47.5t104.5 -62.5t76.5 -89t29.5 -122q0 -74 -36.5 -137.5t-102.5 -99.5q102 -79 102 -201q0 -134 -108.5 -215.5t-280.5 -81.5q-79 0 -164.5 22t-148.5 64q-70 48 -70 98q0 44 35.5 84.5t75.5 40.5q24 0 81 -35q58 -33 100.5 -48t96.5 -15q65 0 100 21.5 t35 56.5q0 29 -29.5 53t-76.5 43.5t-104 40.5t-114 49t-104 62.5t-76.5 88t-29.5 119.5zM305 555q0 -20 7.5 -37t24.5 -32t33.5 -26t46 -24.5t50 -21.5t58 -22.5t57.5 -22.5q82 50 82 118q0 43 -39 77.5t-78 51t-123 45.5q-8 3 -12.5 4.5t-11.5 4t-13 4.5q-38 -23 -60 -55 t-22 -64z" />
<glyph unicode="&#xa8;" horiz-adv-x="1228" d="M293 1178q0 62 39 100.5t102 38.5t102 -38.5t39 -100.5q0 -63 -39 -102.5t-102 -39.5t-102 39.5t-39 102.5zM653 1178q0 62 39.5 100.5t102.5 38.5t102 -38.5t39 -100.5q0 -63 -39 -102.5t-102 -39.5t-102.5 39.5t-39.5 102.5z" />
<glyph unicode="&#xa9;" horiz-adv-x="1675" d="M123 666q0 206 92.5 368.5t255.5 252t367 89.5q153 0 285 -52.5t226 -145.5t147.5 -225.5t53.5 -286.5q0 -206 -91.5 -368.5t-254 -252.5t-366.5 -90t-367 90t-255.5 252.5t-92.5 368.5zM317 666q0 -231 148 -379t373 -148q224 0 372 148.5t148 378.5t-148 378t-372 148 q-226 0 -373.5 -148t-147.5 -378zM473 666q0 174 112.5 279.5t272.5 105.5q88 0 158 -33q102 -45 102 -117q0 -43 -33.5 -87t-80.5 -44q-13 0 -36.5 11t-33.5 14q-41 16 -74 16q-52 0 -85.5 -38.5t-33.5 -106.5t34 -107t85 -39q30 0 74 17q10 4 24.5 10.5t25 10t20.5 3.5 q47 0 80.5 -44t33.5 -87q0 -64 -102 -117q-60 -32 -158 -32q-160 0 -272.5 105.5t-112.5 279.5z" />
<glyph unicode="&#xaa;" horiz-adv-x="782" d="M55 819q0 108 98.5 167.5t327.5 80.5v8q0 44 -23 66t-83 22q-68 0 -137 -30q-51 -21 -68 -21q-34 0 -59 35t-25 70q0 24 13.5 39.5t45.5 33.5q100 53 248 53q181 0 252 -81q53 -59 53 -177v-378q0 -91 -108 -91q-52 0 -73 16.5t-21 55.5v4q-67 -76 -199 -76 q-112 0 -177 55t-65 148zM279 842q0 -62 83 -62q70 0 119 43v119q-105 -12 -153.5 -35t-48.5 -65z" />
<glyph unicode="&#xab;" horiz-adv-x="1060" d="M109 512q0 25 8.5 48.5t17 37t25.5 35.5l131 190q21 30 31.5 43.5t31.5 27t45 13.5q44 0 86.5 -34t42.5 -80q0 -39 -41 -97l-131 -184l131 -184q41 -58 41 -97q0 -46 -42.5 -80t-86.5 -34q-24 0 -45 13.5t-31.5 27t-31.5 43.5l-131 190q-17 22 -25.5 35.5t-17 37 t-8.5 48.5zM563 512q0 56 49 121l131 190q20 29 31.5 43t32.5 27.5t45 13.5q45 0 88 -33.5t43 -80.5q0 -38 -43 -97l-131 -184l131 -184q43 -59 43 -97q0 -47 -43 -80.5t-88 -33.5q-24 0 -45 13.5t-32.5 27.5t-31.5 43l-131 190q-49 65 -49 121z" />
<glyph unicode="&#xad;" horiz-adv-x="669" d="M66 512q0 123 110 123h318q110 0 110 -123t-110 -123h-318q-110 0 -110 123z" />
<glyph unicode="&#xae;" horiz-adv-x="903" d="M55 1008q0 175 111.5 287t288.5 112q178 0 288.5 -111.5t110.5 -287.5q0 -177 -110.5 -288.5t-288.5 -111.5q-177 0 -288.5 111.5t-111.5 288.5zM182 1008q0 -125 76 -204t197 -79q122 0 198 79t76 204q0 124 -76 202t-198 78q-121 0 -197 -78.5t-76 -201.5zM305 864v254 q0 88 133 88q86 0 133 -37t47 -102q0 -73 -63 -113l59 -75q20 -23 8 -42.5t-53 -19.5q-49 0 -71 35l-47 72h-29v-60q0 -47 -57 -47q-60 0 -60 47zM422 1018h22q54 0 54 43q0 22 -16 34.5t-42 12.5q-8 0 -12.5 -1t-5.5 -1v-88z" />
<glyph unicode="&#xaf;" horiz-adv-x="1228" d="M326 1167q0 36 12 59.5t33.5 32.5t36 11t36.5 2h340q22 0 36.5 -2t36.5 -11t34 -32.5t12 -59.5q0 -30 -9.5 -51t-21 -31t-30.5 -15.5t-30 -6t-28 -0.5h-340q-17 0 -28 0.5t-30 6t-30.5 15.5t-20.5 31t-9 51z" />
<glyph unicode="&#xb0;" horiz-adv-x="851" d="M70 1014q0 151 100 248.5t256 97.5t255 -97.5t99 -248.5q0 -150 -99 -247t-255 -97t-256 97t-100 247zM274 1014q0 -66 42.5 -108t109.5 -42q66 0 109 42t43 108q0 67 -43 109t-109 42q-68 0 -110 -42t-42 -109z" />
<glyph unicode="&#xb1;" horiz-adv-x="1126" d="M137 106q0 107 111 107h631q110 0 110 -107q0 -106 -110 -106h-631q-111 0 -111 106zM137 696q0 107 111 107h201v158q0 110 114 110q115 0 115 -110v-158h201q110 0 110 -107q0 -106 -110 -106h-201v-160q0 -111 -115 -111q-114 0 -114 111v160h-201q-111 0 -111 106z " />
<glyph unicode="&#xb2;" horiz-adv-x="612" d="M29 1272q0 43 57 74q82 45 195 45q119 0 197.5 -57.5t78.5 -164.5q0 -29 -8 -57t-17.5 -50t-31 -47.5t-36 -40.5t-46 -40t-46.5 -36t-52.5 -36.5t-49.5 -34.5h224q88 0 88 -84t-88 -84h-369q-45 0 -65.5 20.5t-20.5 70.5q0 35 13 57t50 55q28 24 75 61.5t74.5 60.5 t57.5 53t44 57t14 55q0 35 -25 55.5t-76 20.5q-35 0 -98 -23q-5 -2 -19.5 -9.5t-23 -10t-16.5 -2.5q-32 0 -56 30.5t-24 61.5z" />
<glyph unicode="&#xb3;" horiz-adv-x="653" d="M49 772q0 33 25.5 64.5t56.5 31.5q17 0 59 -22q65 -35 113 -35q46 0 75.5 17.5t29.5 45.5q0 46 -64 62q-31 8 -96 8q-19 0 -31.5 2t-26.5 9.5t-21 25t-7 45.5q0 27 6.5 44t21 25t27 10t33.5 3q72 2 104.5 16t32.5 45q0 56 -90 56q-51 0 -102 -23q-50 -20 -62 -20 q-32 0 -56 31t-24 63q0 39 58 72q88 43 200 43q122 0 195.5 -53.5t73.5 -137.5q0 -59 -39 -100t-107 -56q74 -14 120 -61.5t46 -116.5q0 -97 -85 -158t-212 -61q-64 0 -118.5 16t-86.5 37q-49 32 -49 72z" />
<glyph unicode="&#xb4;" horiz-adv-x="1228" d="M455 1143q0 28 15.5 48.5t49.5 47.5l107 92q24 19 33 25t28.5 14t38.5 8q55 0 92 -43.5t37 -89.5q0 -38 -31 -69t-110 -82q-60 -39 -90 -53.5t-54 -14.5q-49 0 -82.5 36.5t-33.5 80.5z" />
<glyph unicode="&#xb5;" horiz-adv-x="1089" d="M121 -287v1114q0 111 137 111t137 -111v-417q0 -88 27 -127q40 -56 119 -56q54 0 95.5 22.5t57.5 49.5v528q0 111 137 111q138 0 138 -111v-727q0 -110 -131 -110q-69 0 -100 29t-29 81v23q-23 -57 -78.5 -96t-124.5 -39q-45 0 -80.5 17t-48.5 40l14 -332q2 -56 -31 -83 t-102 -27q-137 0 -137 110z" />
<glyph unicode="&#xb6;" horiz-adv-x="1722" d="M68 823q0 304 249 430q93 47 218 67.5t311 20.5q304 0 477 -36q40 -9 66 -22.5t40 -26t20.5 -38.5t7.5 -44.5t1 -59.5v-1165q0 -111 -127 -111q-129 0 -129 111v1132q-87 13 -211 19v-1151q0 -111 -127 -111t-127 111v377q-35 -13 -119 -13q-114 0 -211 29.5t-174 89 t-121 160t-44 231.5zM340 823q0 -133 76.5 -203.5t218.5 -70.5q56 0 102 8v545q-187 -8 -282 -58q-115 -61 -115 -221z" />
<glyph unicode="&#xb7;" horiz-adv-x="348" d="M14 512q0 71 43.5 115.5t116.5 44.5q72 0 116 -44.5t44 -115.5t-44 -115.5t-116 -44.5q-73 0 -116.5 44.5t-43.5 115.5z" />
<glyph unicode="&#xb8;" horiz-adv-x="1228" d="M375 -293q0 41 20.5 74t63.5 33q13 0 41 -4q27 -9 47 -9q29 0 46 16.5t17 45.5q0 65 -102 149l172 33q66 -57 96.5 -110.5t30.5 -114.5q0 -102 -75 -159.5t-187 -57.5q-72 0 -125 24q-45 23 -45 80z" />
<glyph unicode="&#xb9;" horiz-adv-x="495" d="M18 1221q0 28 15.5 43t46.5 30l143 60q80 32 113 32q27 0 44.5 -9t24 -25.5t8 -27t1.5 -26.5v-559q0 -88 -92 -88q-93 0 -93 88v432l-77 -30q-43 -19 -54 -19q-34 0 -57 32t-23 67z" />
<glyph unicode="&#xba;" horiz-adv-x="833" d="M51 979q0 167 99.5 269t267.5 102q166 0 265 -102t99 -269t-99 -269t-265 -102q-168 0 -267.5 102t-99.5 269zM279 979q0 -88 37 -138t102 -50q63 0 100 50.5t37 137.5t-37 137.5t-100 50.5q-65 0 -102 -50t-37 -138z" />
<glyph unicode="&#xbb;" horiz-adv-x="1060" d="M109 231q0 38 43 97l129 184l-129 184q-43 59 -43 97q0 47 43 80.5t88 33.5q24 0 45 -13.5t31.5 -27t31.5 -43.5l131 -190q49 -65 49 -121t-49 -121l-131 -190q-21 -30 -31.5 -43.5t-31.5 -27t-45 -13.5q-45 0 -88 33.5t-43 80.5zM563 231q0 39 41 97l131 184l-131 184 q-41 58 -41 97q0 47 42 80.5t87 33.5q24 0 45 -13.5t32.5 -27.5t31.5 -43l131 -190q17 -22 25.5 -35.5t17 -37t8.5 -48.5t-8.5 -48.5t-17 -37t-25.5 -35.5l-131 -190q-20 -29 -31.5 -43t-32.5 -27.5t-45 -13.5q-45 0 -87 33.5t-42 80.5z" />
<glyph unicode="&#xbc;" horiz-adv-x="1654" d="M41 1143q0 31 18 49.5t52 34.5l190 90q46 24 100 24q46 0 66 -21.5t20 -70.5v-590q0 -90 -104 -90q-107 0 -107 90v447l-90 -45q-35 -21 -63 -21q-36 0 -59 32.5t-23 70.5zM283 88q0 35 30 78l412 559l391 563q13 20 22.5 32t28 23t39.5 11q42 0 84.5 -34.5t42.5 -76.5 q0 -31 -33 -78l-411 -559l-389 -563q-43 -66 -92 -66q-42 0 -83.5 34.5t-41.5 76.5zM932 252q0 60 47 117l262 317q34 42 66.5 61t87.5 19q54 0 79 -19.5t25 -60.5v-367h47q90 0 90 -79q0 -80 -90 -80h-47v-78q0 -90 -96 -90q-94 0 -94 90v78h-279q-46 0 -72 23t-26 69z M1128 313h185v205z" />
<glyph unicode="&#xbd;" horiz-adv-x="1693" d="M41 1143q0 31 18 49.5t52 34.5l190 90q46 24 100 24q46 0 66 -21.5t20 -70.5v-590q0 -90 -104 -90q-107 0 -107 90v447l-90 -45q-35 -21 -63 -21q-36 0 -59 32.5t-23 70.5zM283 88q0 35 30 78l412 559l391 563q13 20 22.5 32t28 23t39.5 11q42 0 84.5 -34.5t42.5 -76.5 q0 -31 -33 -78l-411 -559l-389 -563q-43 -66 -92 -66q-42 0 -83.5 34.5t-41.5 76.5zM1055 631q0 47 63 84q86 53 215 53q59 0 111 -14.5t95 -43t68 -77t25 -111.5q0 -48 -19.5 -91.5t-39 -70.5t-71.5 -63.5t-72.5 -48.5t-87.5 -48q-17 -9 -25 -14h244q96 0 96 -94 q0 -92 -96 -92h-400q-50 0 -73 25t-23 79q0 66 41 107q29 29 88 69.5t105.5 70t83 70.5t36.5 79q0 34 -24.5 57t-75.5 23q-53 0 -105 -27q-8 -4 -23.5 -12t-25 -11.5t-18.5 -3.5q-36 0 -64 34.5t-28 70.5z" />
<glyph unicode="&#xbe;" horiz-adv-x="1722" d="M55 690q0 36 26 68.5t60 32.5q9 0 18.5 -3t24 -10t21.5 -10q71 -31 121 -31t78 18t28 48q0 71 -162 71q-23 0 -36.5 2t-28.5 9.5t-22 25.5t-7 47t7.5 46.5t23 24.5t28 9t35.5 2q152 3 152 68q0 61 -100 61q-63 0 -113 -26q-48 -25 -66 -25q-35 0 -61.5 33t-26.5 68 q0 41 62 75q86 49 215 49q137 0 216 -57t79 -147q0 -65 -43.5 -108.5t-118.5 -61.5q78 -16 125 -64t47 -121q0 -98 -86 -159.5t-221 -61.5q-69 0 -127 15.5t-90 35.5q-58 35 -58 76zM350 88q0 33 31 78l412 559l391 563q13 20 22.5 32t28 23t39.5 11q42 0 84.5 -34.5 t42.5 -76.5q0 -31 -33 -78l-412 -559l-389 -563q-43 -66 -92 -66q-42 0 -83.5 34.5t-41.5 76.5zM999 252q0 58 48 117l262 317q34 43 66 61.5t87 18.5q105 0 105 -80v-367h47q90 0 90 -79q0 -80 -90 -80h-47v-78q0 -90 -97 -90q-94 0 -94 90v78h-278q-46 0 -72.5 23 t-26.5 69zM1196 313h184v205z" />
<glyph unicode="&#xbf;" horiz-adv-x="788" d="M57 49q0 128 76 216.5t234 170.5q0 38 1 56t8 45.5t20.5 40t40.5 22.5t67 10q91 0 119 -43q18 -32 18 -127q0 -67 -15.5 -100t-60.5 -57q-24 -13 -68 -34t-69 -35t-53.5 -35.5t-42 -49.5t-13.5 -63q0 -70 61 -111t189 -41q55 0 113 10q24 4 49 4q43 0 65.5 -31.5 t22.5 -86.5q0 -48 -17.5 -72t-53.5 -37q-79 -29 -203 -29q-232 0 -360 103.5t-128 273.5zM342 874q0 71 43.5 115.5t116.5 44.5q72 0 116 -44.5t44 -115.5q0 -72 -44 -116.5t-116 -44.5q-73 0 -116.5 44.5t-43.5 116.5z" />
<glyph unicode="&#xc0;" horiz-adv-x="1290" d="M41 68q0 31 22 92l383 1036q31 83 70 114t129 31q91 0 131.5 -31.5t71.5 -113.5l379 -1036q22 -61 22 -92q0 -78 -131 -78q-69 0 -103.5 21.5t-51.5 74.5l-72 213h-502l-72 -213q-16 -50 -49.5 -73t-101.5 -23q-125 0 -125 78zM395 1614q0 46 32 90.5t89 44.5 q40 0 100 -37l119 -76q30 -19 43.5 -29.5t27 -30.5t13.5 -44q0 -44 -29 -80.5t-79 -36.5q-44 0 -154 55q-93 44 -127.5 75t-34.5 69zM469 532h342l-172 504z" />
<glyph unicode="&#xc1;" horiz-adv-x="1290" d="M41 68q0 31 22 92l383 1036q31 83 70 114t129 31q91 0 131.5 -31.5t71.5 -113.5l379 -1036q22 -61 22 -92q0 -78 -131 -78q-69 0 -103.5 21.5t-51.5 74.5l-72 213h-502l-72 -213q-16 -50 -49.5 -73t-101.5 -23q-125 0 -125 78zM469 532h342l-172 504zM479 1532 q0 24 13.5 44t27 30.5t43.5 29.5l119 76q60 37 100 37q57 0 89 -44.5t32 -90.5q0 -41 -34 -68.5t-128 -75.5q-107 -55 -153 -55q-50 0 -79.5 36.5t-29.5 80.5z" />
<glyph unicode="&#xc2;" horiz-adv-x="1290" d="M41 68q0 31 22 92l383 1036q31 83 70 114t129 31q91 0 131.5 -31.5t71.5 -113.5l379 -1036q22 -61 22 -92q0 -78 -131 -78q-69 0 -103.5 21.5t-51.5 74.5l-72 213h-502l-72 -213q-16 -50 -49.5 -73t-101.5 -23q-125 0 -125 78zM360 1520q0 49 70 102l96 70q1 1 9.5 7.5 t12 8.5t12.5 8t15 8.5t15.5 7t18 6.5t19 3.5t21.5 1.5t21.5 -1.5t19 -3.5t18 -6.5t15.5 -7t15 -8.5t12.5 -8t12 -8.5t9.5 -7.5l96 -70q70 -53 70 -102q0 -36 -27 -68.5t-65 -32.5q-25 0 -50 14.5t-89 63.5l-60 45l-59 -45q-60 -45 -87 -61.5t-50 -16.5q-37 0 -64 32.5 t-27 68.5zM469 532h342l-172 504z" />
<glyph unicode="&#xc3;" horiz-adv-x="1290" d="M41 68q0 31 22 92l383 1036q31 83 70 114t129 31q91 0 131.5 -31.5t71.5 -113.5l379 -1036q22 -61 22 -92q0 -78 -131 -78q-69 0 -103.5 21.5t-51.5 74.5l-72 213h-502l-72 -213q-16 -50 -49.5 -73t-101.5 -23q-125 0 -125 78zM326 1548q0 57 68.5 110.5t146.5 53.5 q45 0 107 -28.5t91 -28.5t74 31q33 26 61 26q39 0 69 -35t30 -71q0 -56 -69 -110t-146 -54q-46 0 -109 28.5t-90 28.5q-14 0 -26.5 -4t-21 -9.5t-26.5 -17.5q-37 -26 -63 -26q-39 0 -67.5 34.5t-28.5 71.5zM469 532h342l-172 504z" />
<glyph unicode="&#xc4;" horiz-adv-x="1290" d="M41 68q0 31 22 92l383 1036q31 83 70 114t129 31q91 0 131.5 -31.5t71.5 -113.5l379 -1036q22 -61 22 -92q0 -78 -131 -78q-69 0 -103.5 21.5t-51.5 74.5l-72 213h-502l-72 -213q-16 -50 -49.5 -73t-101.5 -23q-125 0 -125 78zM317 1577q0 63 39.5 102t102.5 39t102 -39 t39 -102q0 -62 -39 -101.5t-102 -39.5t-102.5 39.5t-39.5 101.5zM469 532h342l-172 504zM698 1577q0 63 39.5 102t102.5 39t102 -39t39 -102q0 -62 -39 -101.5t-102 -39.5t-102.5 39.5t-39.5 101.5z" />
<glyph unicode="&#xc5;" horiz-adv-x="1290" d="M41 68q0 31 22 92l383 1036q7 21 25 57q-96 70 -96 185q0 103 76.5 168t197.5 65q122 0 199.5 -65t77.5 -168q0 -120 -103 -187q15 -30 25 -55l379 -1036q22 -61 22 -92q0 -78 -131 -78q-69 0 -103.5 21.5t-51.5 74.5l-72 213h-502l-72 -213q-16 -50 -49.5 -73 t-101.5 -23q-125 0 -125 78zM469 532h342l-172 504zM555 1434q0 -40 25.5 -64t68.5 -24t68.5 24t25.5 64q0 38 -25.5 62t-68.5 24t-68.5 -24t-25.5 -62z" />
<glyph unicode="&#xc6;" horiz-adv-x="1654" d="M8 61q0 35 49 117l602 1049q33 58 69.5 81t102.5 23h652q110 0 110 -121q0 -120 -110 -120h-418v-285h334q110 0 110 -121t-110 -121h-334v-321h430q111 0 111 -121t-111 -121h-547q-72 0 -105.5 33.5t-33.5 105.5v160h-397l-115 -211q-28 -54 -64.5 -76t-101.5 -22 q-123 0 -123 71zM535 528h274v508z" />
<glyph unicode="&#xc7;" horiz-adv-x="1191" d="M72 670q0 160 48 290t133 216t201 132t253 46q186 0 331 -82q107 -60 107 -129q0 -46 -39.5 -90.5t-85.5 -44.5q-11 0 -24 4.5t-20.5 8.5t-26.5 16.5t-27 17.5q-83 53 -205 53q-158 0 -258.5 -110t-100.5 -324q0 -218 102.5 -334.5t264.5 -116.5q116 0 201 53 q11 6 28.5 17.5t26.5 16.5t21.5 9.5t23.5 4.5q43 0 81 -43.5t38 -87.5q0 -67 -107 -132q-91 -56 -223 -75q66 -78 66 -166q0 -102 -75.5 -159.5t-187.5 -57.5q-71 0 -124 24q-45 23 -45 80q0 41 20 74t63 33q13 0 41 -4q27 -9 48 -9q29 0 46 16.5t17 45.5q0 54 -70 121 q-244 32 -393 213.5t-149 472.5z" />
<glyph unicode="&#xc8;" horiz-adv-x="1013" d="M123 139v1053q0 72 33.5 105.5t105.5 33.5h580q110 0 110 -121q0 -120 -110 -120h-455v-285h371q110 0 110 -121t-110 -121h-371v-321h467q111 0 111 -121t-111 -121h-592q-72 0 -105.5 33.5t-33.5 105.5zM285 1614q0 46 32 90.5t89 44.5q40 0 100 -37l119 -76 q30 -19 43.5 -29.5t27 -30.5t13.5 -44q0 -44 -29.5 -80.5t-79.5 -36.5q-44 0 -154 55q-92 44 -126.5 75t-34.5 69z" />
<glyph unicode="&#xc9;" horiz-adv-x="1013" d="M123 139v1053q0 72 33.5 105.5t105.5 33.5h580q110 0 110 -121q0 -120 -110 -120h-455v-285h371q110 0 110 -121t-110 -121h-371v-321h467q111 0 111 -121t-111 -121h-592q-72 0 -105.5 33.5t-33.5 105.5zM369 1532q0 24 13.5 44t27 30.5t43.5 29.5l118 76q60 37 101 37 q57 0 89 -44.5t32 -90.5q0 -41 -34 -68.5t-128 -75.5q-107 -55 -154 -55q-50 0 -79 36.5t-29 80.5z" />
<glyph unicode="&#xca;" horiz-adv-x="1013" d="M123 139v1053q0 72 33.5 105.5t105.5 33.5h580q110 0 110 -121q0 -120 -110 -120h-455v-285h371q110 0 110 -121t-110 -121h-371v-321h467q111 0 111 -121t-111 -121h-592q-72 0 -105.5 33.5t-33.5 105.5zM250 1520q0 50 69 102l97 70q1 1 9.5 7.5t12 8.5t12.5 8t15 8.5 t15.5 7t18 6.5t19 3.5t21.5 1.5t21.5 -1.5t19 -3.5t18 -6.5t15.5 -7t15 -8.5t12.5 -8t12 -8.5t9.5 -7.5l96 -70q69 -52 69 -102q0 -36 -27 -68.5t-65 -32.5q-25 0 -50 14.5t-89 63.5l-59 45l-60 -45q-60 -45 -87 -61.5t-50 -16.5q-36 0 -63 32.5t-27 68.5z" />
<glyph unicode="&#xcb;" horiz-adv-x="1013" d="M123 139v1053q0 72 33.5 105.5t105.5 33.5h580q110 0 110 -121q0 -120 -110 -120h-455v-285h371q110 0 110 -121t-110 -121h-371v-321h467q111 0 111 -121t-111 -121h-592q-72 0 -105.5 33.5t-33.5 105.5zM207 1577q0 63 39 102t102 39t102 -39t39 -102q0 -62 -39 -101.5 t-102 -39.5t-102 39.5t-39 101.5zM588 1577q0 63 39 102t102 39t102 -39t39 -102q0 -62 -39 -101.5t-102 -39.5t-102 39.5t-39 101.5z" />
<glyph unicode="&#xcc;" horiz-adv-x="524" d="M8 1614q0 46 32 90.5t89 44.5q40 0 100 -37l119 -76q30 -19 43.5 -29.5t27 -30.5t13.5 -44q0 -44 -29 -80.5t-79 -36.5q-44 0 -154 55q-93 44 -127.5 75t-34.5 69zM123 100v1131q0 110 139 110t139 -110v-1131q0 -110 -139 -110t-139 110z" />
<glyph unicode="&#xcd;" horiz-adv-x="524" d="M92 1532q0 24 13.5 44t27 30.5t43.5 29.5l119 76q60 37 100 37q57 0 89 -44.5t32 -90.5q0 -41 -34 -68.5t-128 -75.5q-107 -55 -153 -55q-50 0 -79.5 36.5t-29.5 80.5zM123 100v1131q0 110 139 110t139 -110v-1131q0 -110 -139 -110t-139 110z" />
<glyph unicode="&#xce;" horiz-adv-x="524" d="M-27 1520q0 49 70 102l96 70q1 1 9.5 7.5t12 8.5t12.5 8t15 8.5t15.5 7t18 6.5t19 3.5t21.5 1.5t21.5 -1.5t19 -3.5t18 -6.5t15.5 -7t15 -8.5t12.5 -8t12 -8.5t9.5 -7.5l96 -70q70 -53 70 -102q0 -36 -27 -68.5t-65 -32.5q-25 0 -51 15t-89 63l-59 45l-59 -45 q-59 -44 -87 -61t-51 -17q-36 0 -63 32.5t-27 68.5zM123 100v1131q0 110 139 110t139 -110v-1131q0 -110 -139 -110t-139 110z" />
<glyph unicode="&#xcf;" horiz-adv-x="524" d="M-70 1577q0 63 39.5 102t102.5 39t102 -39t39 -102q0 -62 -39 -101.5t-102 -39.5t-102.5 39.5t-39.5 101.5zM123 100v1131q0 110 139 110t139 -110v-1131q0 -110 -139 -110t-139 110zM311 1577q0 63 39.5 102t102.5 39t102 -39t39 -102q0 -62 -39 -101.5t-102 -39.5 t-102.5 39.5t-39.5 101.5z" />
<glyph unicode="&#xd0;" horiz-adv-x="1394" d="M39 684q0 69 32.5 94t84.5 25h63v334q0 29 1 45t7.5 40.5t18 40t35 31t57.5 25.5q100 27 260 27q348 0 536.5 -178t188.5 -498q0 -324 -193 -504t-540 -180q-151 0 -252 26q-34 10 -57.5 25.5t-35 31t-18 40.5t-7.5 41t-1 45v370h-63q-52 0 -84.5 25t-32.5 94zM498 236 q56 -9 108 -9q209 0 319.5 115.5t110.5 321.5q0 209 -111 324.5t-319 115.5q-59 0 -108 -8v-293h110q51 0 83 -25t32 -94t-32 -94t-83 -25h-110v-329z" />
<glyph unicode="&#xd1;" horiz-adv-x="1394" d="M123 100v1092q0 149 180 149q85 0 135.5 -30.5t85.5 -91.5l490 -852v864q0 110 129 110t129 -110v-1092q0 -149 -170 -149q-77 0 -124 30t-85 97l-514 866v-883q0 -110 -127 -110q-129 0 -129 110zM369 1548q0 -37 28.5 -71.5t67.5 -34.5q26 0 63 26q18 12 26.5 17.5 t21 9.5t26.5 4q27 0 90 -28.5t109 -28.5q77 0 146 54t69 110q0 36 -29.5 71t-68.5 35q-30 0 -62 -26q-45 -31 -74 -31t-91 28.5t-107 28.5q-78 0 -146.5 -53.5t-68.5 -110.5z" />
<glyph unicode="&#xd2;" horiz-adv-x="1452" d="M72 666q0 317 178 503.5t475 186.5q299 0 476 -186.5t177 -503.5t-177.5 -504t-475.5 -187q-297 0 -475 187t-178 504zM358 666q0 -210 100.5 -329.5t266.5 -119.5q168 0 268.5 119.5t100.5 329.5t-100.5 329t-268.5 119q-167 0 -267 -119.5t-100 -328.5zM471 1614 q0 46 32 90.5t89 44.5q40 0 100 -37l119 -76q30 -19 43.5 -29.5t27 -30.5t13.5 -44q0 -44 -29.5 -80.5t-79.5 -36.5q-43 0 -153 55q-93 44 -127.5 75t-34.5 69z" />
<glyph unicode="&#xd3;" horiz-adv-x="1452" d="M72 666q0 317 178 503.5t475 186.5q299 0 476 -186.5t177 -503.5t-177.5 -504t-475.5 -187q-297 0 -475 187t-178 504zM358 666q0 -210 100.5 -329.5t266.5 -119.5q168 0 268.5 119.5t100.5 329.5t-100.5 329t-268.5 119q-167 0 -267 -119.5t-100 -328.5zM555 1532 q0 24 13.5 44t27 30.5t43.5 29.5l119 76q60 37 100 37q57 0 89 -44.5t32 -90.5q0 -41 -34 -68.5t-128 -75.5q-107 -55 -153 -55q-50 0 -79.5 36.5t-29.5 80.5z" />
<glyph unicode="&#xd4;" horiz-adv-x="1452" d="M72 666q0 317 178 503.5t475 186.5q299 0 476 -186.5t177 -503.5t-177.5 -504t-475.5 -187q-297 0 -475 187t-178 504zM358 666q0 -210 100.5 -329.5t266.5 -119.5q168 0 268.5 119.5t100.5 329.5t-100.5 329t-268.5 119q-167 0 -267 -119.5t-100 -328.5zM436 1520 q0 49 70 102l96 70q1 1 9.5 7.5t12 8.5t12.5 8t15 8.5t15.5 7t18 6.5t19 3.5t21.5 1.5t21.5 -1.5t19 -3.5t18 -6.5t15.5 -7t15 -8.5t12.5 -8t12 -8.5t9.5 -7.5l96 -70q70 -53 70 -102q0 -36 -27 -68.5t-65 -32.5q-25 0 -51 15t-89 63l-59 45l-59 -45q-59 -44 -87 -61 t-51 -17q-36 0 -63 32.5t-27 68.5z" />
<glyph unicode="&#xd5;" horiz-adv-x="1452" d="M72 666q0 317 178 503.5t475 186.5q299 0 476 -186.5t177 -503.5t-177.5 -504t-475.5 -187q-297 0 -475 187t-178 504zM358 666q0 -210 100.5 -329.5t266.5 -119.5q168 0 268.5 119.5t100.5 329.5t-100.5 329t-268.5 119q-167 0 -267 -119.5t-100 -328.5zM401 1548 q0 -36 29 -71t68 -35q26 0 63 26q18 12 26.5 17.5t21 9.5t26.5 4q27 0 90 -28.5t109 -28.5q77 0 146 54t69 110q0 36 -30 71t-69 35q-28 0 -61 -26q-45 -31 -74 -31t-91.5 28.5t-107.5 28.5q-78 0 -146.5 -53.5t-68.5 -110.5z" />
<glyph unicode="&#xd6;" horiz-adv-x="1452" d="M72 666q0 317 178 503.5t475 186.5q299 0 476 -186.5t177 -503.5t-177.5 -504t-475.5 -187q-297 0 -475 187t-178 504zM358 666q0 -210 100.5 -329.5t266.5 -119.5q168 0 268.5 119.5t100.5 329.5t-100.5 329t-268.5 119q-167 0 -267 -119.5t-100 -328.5zM393 1577 q0 63 39.5 102t102.5 39t102 -39t39 -102q0 -62 -39 -101.5t-102 -39.5t-102.5 39.5t-39.5 101.5zM774 1577q0 63 39 102t102 39t102.5 -39t39.5 -102q0 -62 -39.5 -101.5t-102.5 -39.5t-102 39.5t-39 101.5z" />
<glyph unicode="&#xd7;" horiz-adv-x="1445" d="M268 59q-79 79 2 160l295 289l-297 293q-82 82 0 162t160 2l297 -297l293 295q78 78 158 0q81 -78 -2 -158l-293 -289l295 -293q83 -83 0 -164q-80 -77 -160 0l-295 297l-295 -295q-79 -79 -158 -2z" />
<glyph unicode="&#xd8;" horiz-adv-x="1452" d="M72 666q0 317 178 503.5t475 186.5q177 0 317 -70l88 123q15 21 25 33t28.5 22.5t39.5 10.5q44 0 86.5 -34.5t42.5 -78.5q0 -33 -35 -78l-100 -131q161 -188 161 -487q0 -317 -177.5 -504t-475.5 -187q-177 0 -317 70l-89 -123q-15 -21 -25 -32.5t-28 -22t-39 -10.5 q-44 0 -86.5 34t-42.5 78q0 33 35 78l103 131q-164 188 -164 488zM358 666q0 -159 60 -267l477 676q-76 39 -170 39q-167 0 -267 -119.5t-100 -328.5zM555 256q80 -39 170 -39q168 0 268.5 119.5t100.5 329.5q0 157 -60 268z" />
<glyph unicode="&#xd9;" horiz-adv-x="1300" d="M123 508v723q0 110 139 110t139 -110v-723q0 -84 23 -143q58 -148 233 -148q93 0 149 38t85 110q22 56 22 143v723q0 110 131 110q134 0 134 -110v-721q0 -155 -48 -266q-113 -269 -481 -269q-363 0 -479 269q-47 109 -47 264zM403 1614q0 46 32 90.5t89 44.5 q41 0 101 -37l118 -76q30 -19 43.5 -29.5t27 -30.5t13.5 -44q0 -44 -29 -80.5t-79 -36.5q-44 0 -154 55q-93 44 -127.5 75t-34.5 69z" />
<glyph unicode="&#xda;" horiz-adv-x="1300" d="M123 508v723q0 110 139 110t139 -110v-723q0 -84 23 -143q58 -148 233 -148q93 0 149 38t85 110q22 56 22 143v723q0 110 131 110q134 0 134 -110v-721q0 -155 -48 -266q-113 -269 -481 -269q-363 0 -479 269q-47 109 -47 264zM487 1532q0 24 13.5 44t27 30.5t43.5 29.5 l119 76q60 37 101 37q57 0 88.5 -44t31.5 -91q0 -41 -33.5 -69t-127.5 -75q-107 -55 -154 -55q-50 0 -79.5 36.5t-29.5 80.5z" />
<glyph unicode="&#xdb;" horiz-adv-x="1300" d="M123 508v723q0 110 139 110t139 -110v-723q0 -84 23 -143q58 -148 233 -148q93 0 149 38t85 110q22 56 22 143v723q0 110 131 110q134 0 134 -110v-721q0 -155 -48 -266q-113 -269 -481 -269q-363 0 -479 269q-47 109 -47 264zM369 1520q0 50 69 102l97 70q1 1 11 8.5 t14 10t14.5 9t18 9.5t18.5 7t22.5 5.5t23.5 1.5q11 0 21.5 -1.5t19 -3.5t18 -6.5t15.5 -7t15 -8.5t12.5 -8t12 -8.5t9.5 -7.5l97 -70q69 -52 69 -102q0 -36 -27 -68.5t-65 -32.5q-25 0 -50 14.5t-89 63.5l-60 45l-59 -45q-60 -45 -87 -61.5t-50 -16.5q-36 0 -63 32.5 t-27 68.5z" />
<glyph unicode="&#xdc;" horiz-adv-x="1300" d="M123 508v723q0 110 139 110t139 -110v-723q0 -84 23 -143q58 -148 233 -148q93 0 149 38t85 110q22 56 22 143v723q0 110 131 110q134 0 134 -110v-721q0 -155 -48 -266q-113 -269 -481 -269q-363 0 -479 269q-47 109 -47 264zM326 1577q0 63 39 102t102 39t102 -39 t39 -102q0 -62 -39 -101.5t-102 -39.5t-102 39.5t-39 101.5zM707 1577q0 63 39 102t102 39t102 -39t39 -102q0 -62 -39 -101.5t-102 -39.5t-102 39.5t-39 101.5z" />
<glyph unicode="&#xdd;" horiz-adv-x="1220" d="M14 1270q0 71 133 71q74 0 114.5 -23t70.5 -81l280 -526l285 526q31 57 66.5 80.5t113.5 23.5q129 0 129 -71q0 -8 -1 -16t-5 -18t-6 -16t-8.5 -17.5t-8.5 -15.5t-10.5 -18t-9.5 -16l-409 -711v-342q0 -110 -140 -110q-139 0 -139 110v340l-401 705q-6 11 -18.5 33 t-18.5 33.5t-11.5 28t-5.5 30.5zM440 1532q0 24 13.5 44t27 30.5t43.5 29.5l119 76q60 37 100 37q57 0 89 -44.5t32 -90.5q0 -41 -34 -68.5t-128 -75.5q-107 -55 -153 -55q-50 0 -79.5 36.5t-29.5 80.5z" />
<glyph unicode="&#xde;" horiz-adv-x="1107" d="M123 100v1131q0 110 139 110q137 0 137 -110v-92q60 6 93 6q127 0 229.5 -28t178.5 -84t117.5 -146.5t41.5 -210.5q0 -122 -43.5 -216t-118.5 -150t-169.5 -84.5t-203.5 -28.5q-74 0 -123 12v-109q0 -110 -139 -110t-139 110zM401 440q58 -10 99 -10q132 0 203 61.5 t71 176.5q0 120 -77.5 178.5t-207.5 58.5q-41 0 -88 -6v-459z" />
<glyph unicode="&#xdf;" horiz-adv-x="1097" d="M121 100v766q0 90 8.5 151.5t36.5 123.5q93 205 379 205q191 0 295 -89t104 -237q0 -51 -13.5 -93.5t-32 -70t-37.5 -51.5t-32.5 -50t-13.5 -53q0 -37 25 -70.5t61 -63.5t72 -65t61 -90t25 -124q0 -143 -97.5 -223t-238.5 -80q-98 0 -168 34q-51 26 -51 80q0 21 4.5 42.5 t14 43.5t28 36t43.5 14q14 0 41 -9q37 -16 72 -16q41 0 66.5 23t25.5 61q0 33 -25.5 66t-61.5 64t-72 65.5t-61.5 86t-25.5 111.5q0 53 20.5 98t45 70.5t45 61.5t20.5 73q0 57 -39 93t-102 36q-90 0 -127 -76q-21 -43 -21 -141v-803q0 -110 -137 -110t-137 110z" />
<glyph unicode="&#xe0;" horiz-adv-x="980" d="M63 256q0 141 126 219.5t415 104.5v14q0 61 -32.5 92t-108.5 31q-84 0 -170 -41q-63 -29 -86 -29q-44 0 -74.5 42.5t-30.5 86.5q0 54 74 96q128 70 311 70q227 0 318 -108q63 -75 63 -230v-502q0 -59 -31 -85.5t-102 -26.5q-61 0 -87.5 19.5t-26.5 64.5v16 q-87 -100 -254 -100q-141 0 -222.5 71.5t-81.5 194.5zM244 1245q0 46 37 89.5t92 43.5q19 0 38.5 -8t28.5 -14t33 -25l107 -92q34 -27 49.5 -47.5t15.5 -48.5q0 -44 -34 -80.5t-83 -36.5q-24 0 -53 14t-90 54q-77 50 -109 81.5t-32 69.5zM342 281q0 -38 26.5 -61t82.5 -23 q84 0 153 57v166q-137 -18 -199.5 -49.5t-62.5 -89.5z" />
<glyph unicode="&#xe1;" horiz-adv-x="980" d="M63 256q0 141 126 219.5t415 104.5v14q0 61 -32.5 92t-108.5 31q-84 0 -170 -41q-63 -29 -86 -29q-44 0 -74.5 42.5t-30.5 86.5q0 54 74 96q128 70 311 70q227 0 318 -108q63 -75 63 -230v-502q0 -59 -31 -85.5t-102 -26.5q-61 0 -87.5 19.5t-26.5 64.5v16 q-87 -100 -254 -100q-141 0 -222.5 71.5t-81.5 194.5zM326 1143q0 28 15.5 48.5t49.5 47.5l107 92q24 19 33 25t28.5 14t38.5 8q55 0 92 -43.5t37 -89.5q0 -38 -31 -69t-110 -82q-60 -39 -90 -53.5t-54 -14.5q-49 0 -82.5 36.5t-33.5 80.5zM342 281q0 -38 26.5 -61t82.5 -23 q84 0 153 57v166q-137 -18 -199.5 -49.5t-62.5 -89.5z" />
<glyph unicode="&#xe2;" horiz-adv-x="980" d="M63 256q0 141 126 219.5t415 104.5v14q0 61 -32.5 92t-108.5 31q-84 0 -170 -41q-63 -29 -86 -29q-44 0 -74.5 42.5t-30.5 86.5q0 54 74 96q128 70 311 70q227 0 318 -108q63 -75 63 -230v-502q0 -59 -31 -85.5t-102 -26.5q-61 0 -87.5 19.5t-26.5 64.5v16 q-87 -100 -254 -100q-141 0 -222.5 71.5t-81.5 194.5zM205 1128q0 52 71 105l86 74q64 51 123 51q27 0 54 -10t38.5 -17.5t32.5 -23.5l84 -74q72 -53 72 -105q0 -36 -28.5 -67t-65.5 -31q-21 0 -47.5 16.5t-83.5 63.5l-58 47l-55 -47q-95 -80 -133 -80q-35 0 -62.5 31 t-27.5 67zM342 281q0 -38 26.5 -61t82.5 -23q84 0 153 57v166q-137 -18 -199.5 -49.5t-62.5 -89.5z" />
<glyph unicode="&#xe3;" horiz-adv-x="980" d="M63 256q0 141 126 219.5t415 104.5v14q0 61 -32.5 92t-108.5 31q-84 0 -170 -41q-63 -29 -86 -29q-44 0 -74.5 42.5t-30.5 86.5q0 54 74 96q128 70 311 70q227 0 318 -108q63 -75 63 -230v-502q0 -59 -31 -85.5t-102 -26.5q-61 0 -87.5 19.5t-26.5 64.5v16 q-87 -100 -254 -100q-141 0 -222.5 71.5t-81.5 194.5zM164 1151q0 -37 28.5 -72t67.5 -35q27 0 62 27q19 13 26.5 17.5t20 9t26.5 4.5q28 0 91 -29t108 -29q77 0 145 53t68 111q0 37 -28.5 72t-67.5 35q-25 0 -62 -25q-45 -33 -74 -33q-28 0 -90.5 29t-107.5 29 q-77 0 -145 -53t-68 -111zM342 281q0 -38 26.5 -61t82.5 -23q84 0 153 57v166q-137 -18 -199.5 -49.5t-62.5 -89.5z" />
<glyph unicode="&#xe4;" horiz-adv-x="980" d="M63 256q0 141 126 219.5t415 104.5v14q0 61 -32.5 92t-108.5 31q-84 0 -170 -41q-63 -29 -86 -29q-44 0 -74.5 42.5t-30.5 86.5q0 54 74 96q128 70 311 70q227 0 318 -108q63 -75 63 -230v-502q0 -59 -31 -85.5t-102 -26.5q-61 0 -87.5 19.5t-26.5 64.5v16 q-87 -100 -254 -100q-141 0 -222.5 71.5t-81.5 194.5zM164 1178q0 62 39 100.5t102 38.5t102 -38.5t39 -100.5q0 -63 -39 -102.5t-102 -39.5t-102 39.5t-39 102.5zM342 281q0 -38 26.5 -61t82.5 -23q84 0 153 57v166q-137 -18 -199.5 -49.5t-62.5 -89.5zM524 1178 q0 62 39.5 100.5t102.5 38.5t102 -38.5t39 -100.5q0 -63 -39 -102.5t-102 -39.5t-102.5 39.5t-39.5 102.5z" />
<glyph unicode="&#xe5;" horiz-adv-x="980" d="M63 256q0 141 126 219.5t415 104.5v14q0 61 -32.5 92t-108.5 31q-84 0 -170 -41q-63 -29 -86 -29q-44 0 -74.5 42.5t-30.5 86.5q0 54 74 96q128 70 311 70q227 0 318 -108q63 -75 63 -230v-502q0 -59 -31 -85.5t-102 -26.5q-61 0 -87.5 19.5t-26.5 64.5v16 q-87 -100 -254 -100q-141 0 -222.5 71.5t-81.5 194.5zM233 1219q0 96 69 153.5t183 57.5t183 -57.5t69 -153.5q0 -95 -69 -153t-183 -58t-183 58t-69 153zM342 281q0 -38 26.5 -61t82.5 -23q84 0 153 57v166q-137 -18 -199.5 -49.5t-62.5 -89.5zM399 1219q0 -34 24 -54 t62 -20t62 20t24 54q0 35 -23.5 55t-62.5 20t-62.5 -20t-23.5 -55z" />
<glyph unicode="&#xe6;" horiz-adv-x="1536" d="M63 256q0 147 128.5 220.5t414.5 82.5q0 79 -32 118.5t-113 39.5q-82 0 -168 -41q-63 -29 -86 -29q-44 0 -74.5 42.5t-30.5 86.5q0 54 74 96q128 70 299 70q221 0 289 -158q90 162 299 162q125 0 219 -57.5t140 -147.5t46 -198q0 -45 -10 -76.5t-24 -47.5t-39 -24.5 t-42.5 -10t-47.5 -1.5h-433q36 -176 213 -176q86 0 170 43q50 26 80 26q47 0 79 -39t32 -83q0 -55 -72 -99q-117 -71 -293 -71q-249 0 -372 155q-128 -149 -342 -149q-142 0 -223 71.5t-81 194.5zM342 279q0 -36 27.5 -59t81.5 -23q100 0 184 84q-15 57 -21 114 q-144 -3 -208 -31t-64 -85zM870 561h340q0 77 -41.5 126.5t-119.5 49.5q-151 0 -179 -176z" />
<glyph unicode="&#xe7;" horiz-adv-x="890" d="M68 463q0 213 127.5 346t330.5 133q153 0 256 -68q58 -39 58 -90q0 -47 -32 -89t-83 -42q-27 0 -68 23q-64 31 -122 31q-90 0 -138.5 -63.5t-48.5 -176.5q0 -112 49 -180t138 -68q52 0 120 33q38 20 68 20q52 0 84.5 -40t32.5 -87q0 -51 -54 -86q-64 -48 -170 -65 q74 -83 74 -174q0 -102 -75 -159.5t-187 -57.5q-72 0 -125 24q-45 23 -45 80q0 41 20.5 74t63.5 33q13 0 41 -4q27 -9 47 -9q29 0 46.5 16.5t17.5 45.5q0 60 -86 135q-154 37 -247 161t-93 304z" />
<glyph unicode="&#xe8;" horiz-adv-x="999" d="M68 459q0 223 119.5 355t324.5 132q195 0 308.5 -116.5t113.5 -286.5q0 -52 -11.5 -85t-35 -49t-48 -21t-61.5 -5h-446q35 -176 219 -176q84 0 168 43q54 26 80 26q47 0 78.5 -39t31.5 -83q0 -33 -18 -54.5t-53 -44.5q-114 -71 -293 -71q-228 0 -352.5 125t-124.5 350z M270 1245q0 46 37 89.5t92 43.5q19 0 38.5 -8t29.5 -14.5t33 -24.5l106 -92q35 -28 50.5 -48t15.5 -48q0 -44 -34 -80.5t-83 -36.5q-24 0 -53 14t-90 54q-78 50 -110 81.5t-32 69.5zM330 561h344q0 78 -42 127t-124 49q-154 0 -178 -176z" />
<glyph unicode="&#xe9;" horiz-adv-x="999" d="M68 459q0 223 119.5 355t324.5 132q195 0 308.5 -116.5t113.5 -286.5q0 -52 -11.5 -85t-35 -49t-48 -21t-61.5 -5h-446q35 -176 219 -176q84 0 168 43q54 26 80 26q47 0 78.5 -39t31.5 -83q0 -33 -18 -54.5t-53 -44.5q-114 -71 -293 -71q-228 0 -352.5 125t-124.5 350z M330 561h344q0 78 -42 127t-124 49q-154 0 -178 -176zM352 1143q0 28 15.5 48t50.5 48l106 92q23 18 33 24.5t29.5 14.5t38.5 8q55 0 92 -43.5t37 -89.5q0 -37 -31 -68.5t-111 -82.5q-61 -40 -90 -54t-53 -14q-49 0 -83 36.5t-34 80.5z" />
<glyph unicode="&#xea;" horiz-adv-x="999" d="M68 459q0 223 119.5 355t324.5 132q195 0 308.5 -116.5t113.5 -286.5q0 -52 -11.5 -85t-35 -49t-48 -21t-61.5 -5h-446q35 -176 219 -176q84 0 168 43q54 26 80 26q47 0 78.5 -39t31.5 -83q0 -33 -18 -54.5t-53 -44.5q-114 -71 -293 -71q-228 0 -352.5 125t-124.5 350z M231 1128q0 52 72 105l86 74q64 51 123 51q27 0 54 -10t38.5 -17.5t32.5 -23.5l84 -74q72 -53 72 -105q0 -36 -29 -67t-66 -31q-21 0 -47.5 16.5t-83.5 63.5l-57 47l-55 -47q-95 -80 -133 -80q-35 0 -63 31t-28 67zM330 561h344q0 78 -42 127t-124 49q-154 0 -178 -176z" />
<glyph unicode="&#xeb;" horiz-adv-x="999" d="M68 459q0 223 119.5 355t324.5 132q195 0 308.5 -116.5t113.5 -286.5q0 -52 -11.5 -85t-35 -49t-48 -21t-61.5 -5h-446q35 -176 219 -176q84 0 168 43q54 26 80 26q47 0 78.5 -39t31.5 -83q0 -33 -18 -54.5t-53 -44.5q-114 -71 -293 -71q-228 0 -352.5 125t-124.5 350z M190 1178q0 62 39.5 100.5t102.5 38.5t102 -38.5t39 -100.5q0 -63 -39 -102.5t-102 -39.5t-102.5 39.5t-39.5 102.5zM330 561h344q0 78 -42 127t-124 49q-154 0 -178 -176zM551 1178q0 62 39 100.5t102 38.5t102.5 -38.5t39.5 -100.5q0 -63 -39.5 -102.5t-102.5 -39.5 t-102 39.5t-39 102.5z" />
<glyph unicode="&#xec;" horiz-adv-x="516" d="M16 1245q0 46 37 89.5t92 43.5q19 0 38.5 -8t29.5 -14.5t33 -24.5l106 -92q35 -28 50.5 -48t15.5 -48q0 -44 -34 -80.5t-83 -36.5q-24 0 -53 14t-90 54q-78 50 -110 81.5t-32 69.5zM121 100v727q0 111 137 111t137 -111v-727q0 -110 -137 -110t-137 110z" />
<glyph unicode="&#xed;" horiz-adv-x="516" d="M98 1143q0 28 15.5 48t50.5 48l106 92q23 18 33 24.5t29.5 14.5t38.5 8q55 0 92 -43.5t37 -89.5q0 -37 -31 -68.5t-111 -82.5q-61 -40 -90 -54t-53 -14q-49 0 -83 36.5t-34 80.5zM121 100v727q0 111 137 111t137 -111v-727q0 -110 -137 -110t-137 110z" />
<glyph unicode="&#xee;" horiz-adv-x="516" d="M-23 1128q0 52 72 105l86 74q64 51 123 51q27 0 54 -10t38.5 -17.5t32.5 -23.5l84 -74q72 -53 72 -105q0 -36 -29 -67t-66 -31q-21 0 -47.5 16.5t-83.5 63.5l-57 47l-55 -47q-95 -80 -133 -80q-35 0 -63 31t-28 67zM121 100v727q0 111 137 111t137 -111v-727 q0 -110 -137 -110t-137 110z" />
<glyph unicode="&#xef;" horiz-adv-x="516" d="M-63 1178q0 62 39 100.5t102 38.5t102 -38.5t39 -100.5q0 -63 -39 -102.5t-102 -39.5t-102 39.5t-39 102.5zM121 100v727q0 111 137 111t137 -111v-727q0 -110 -137 -110t-137 110zM297 1178q0 62 39 100.5t102 38.5t102.5 -38.5t39.5 -100.5q0 -63 -39.5 -102.5 t-102.5 -39.5t-102 39.5t-39 102.5z" />
<glyph unicode="&#xf0;" horiz-adv-x="1030" d="M68 401q0 191 110.5 307.5t280.5 116.5q141 0 231 -90q-45 154 -151 252l-164 -98q-36 -25 -68 -25q-38 0 -63 30.5t-25 66.5q0 31 17.5 49t46.5 32l98 54q-74 34 -148 57q-6 2 -22.5 7t-23.5 8t-20 9t-19 12t-13.5 15.5t-10.5 22t-3 28.5q0 48 25 85.5t85 37.5 q54 0 150 -33.5t166 -80.5l37 -25l145 88q42 25 70 25q38 0 63 -30.5t25 -66.5q0 -23 -11.5 -41t-23 -26t-29.5 -17l-98 -51q231 -246 231 -602q0 -119 -27.5 -216t-82 -170.5t-142 -114t-202.5 -40.5q-200 0 -317 117t-117 307zM334 414q0 -93 46 -151t134 -58 q100 0 149 80t52 221q-97 117 -207 117q-78 0 -126 -56t-48 -153z" />
<glyph unicode="&#xf1;" horiz-adv-x="1089" d="M121 100v727q0 111 133 111q67 0 98 -30t29 -81v-22q85 133 276 133q186 0 265 -127q57 -83 57 -236v-475q0 -110 -137 -110t-137 110v430q0 70 -27 111q-39 57 -125 57q-95 0 -158 -69v-529q0 -110 -137 -110t-137 110zM225 1151q0 -36 29 -71.5t68 -35.5q26 0 61 27 q18 12 26.5 17.5t21 9.5t26.5 4q28 0 90.5 -29t107.5 -29q77 0 145 53t68 111q0 37 -28.5 72t-67.5 35q-24 0 -61 -25q-45 -33 -74 -33q-28 0 -91 29t-108 29q-77 0 -145 -53t-68 -111z" />
<glyph unicode="&#xf2;" d="M68 461q0 221 130.5 354t348.5 133q217 0 345 -131.5t128 -349.5q0 -223 -130.5 -355t-350.5 -132q-217 0 -344 131t-127 350zM301 1245q0 46 37 89.5t92 43.5q19 0 38.5 -8t28.5 -14t33 -25l107 -92q34 -27 49.5 -47.5t15.5 -48.5q0 -44 -33.5 -80.5t-82.5 -36.5 q-24 0 -54 14.5t-90 53.5q-77 50 -109 81.5t-32 69.5zM348 467q0 -124 53.5 -195t143.5 -71q89 0 140.5 70t51.5 190q0 123 -53 193.5t-143 70.5q-89 0 -141 -69t-52 -189z" />
<glyph unicode="&#xf3;" d="M68 461q0 221 130.5 354t348.5 133q217 0 345 -131.5t128 -349.5q0 -223 -130.5 -355t-350.5 -132q-217 0 -344 131t-127 350zM348 467q0 -124 53.5 -195t143.5 -71q89 0 140.5 70t51.5 190q0 123 -53 193.5t-143 70.5q-89 0 -141 -69t-52 -189zM383 1143q0 28 15.5 48 t50.5 48l106 92q24 19 33 25t28.5 14t38.5 8q55 0 92 -43.5t37 -89.5q0 -38 -31 -69t-110 -82q-61 -40 -90 -54t-53 -14q-49 0 -83 36.5t-34 80.5z" />
<glyph unicode="&#xf4;" d="M68 461q0 221 130.5 354t348.5 133q217 0 345 -131.5t128 -349.5q0 -223 -130.5 -355t-350.5 -132q-217 0 -344 131t-127 350zM262 1128q0 52 72 105l86 74q64 51 123 51q27 0 54 -10t38.5 -17.5t32.5 -23.5l84 -74q71 -53 71 -105q0 -36 -28.5 -67t-65.5 -31 q-21 0 -47.5 16.5t-83.5 63.5l-57 47l-56 -47q-95 -80 -133 -80q-35 0 -62.5 31t-27.5 67zM348 467q0 -124 53.5 -195t143.5 -71q89 0 140.5 70t51.5 190q0 123 -53 193.5t-143 70.5q-89 0 -141 -69t-52 -189z" />
<glyph unicode="&#xf5;" d="M68 461q0 221 130.5 354t348.5 133q217 0 345 -131.5t128 -349.5q0 -223 -130.5 -355t-350.5 -132q-217 0 -344 131t-127 350zM221 1151q0 -37 28.5 -72t67.5 -35q27 0 62 27q18 12 26.5 17.5t21 9.5t26.5 4q28 0 90.5 -29t107.5 -29q77 0 145 53t68 111q0 37 -28.5 72 t-67.5 35q-24 0 -61 -25q-45 -33 -74 -33q-28 0 -91 29t-108 29q-77 0 -145 -53t-68 -111zM348 467q0 -124 53.5 -195t143.5 -71q89 0 140.5 70t51.5 190q0 123 -53 193.5t-143 70.5q-89 0 -141 -69t-52 -189z" />
<glyph unicode="&#xf6;" d="M68 461q0 221 130.5 354t348.5 133q217 0 345 -131.5t128 -349.5q0 -223 -130.5 -355t-350.5 -132q-217 0 -344 131t-127 350zM221 1178q0 62 39 100.5t102 38.5t102.5 -38.5t39.5 -100.5q0 -63 -39.5 -102.5t-102.5 -39.5t-102 39.5t-39 102.5zM348 467 q0 -124 53.5 -195t143.5 -71q89 0 140.5 70t51.5 190q0 123 -53 193.5t-143 70.5q-89 0 -141 -69t-52 -189zM582 1178q0 62 39 100.5t102 38.5t102 -38.5t39 -100.5q0 -63 -39 -102.5t-102 -39.5t-102 39.5t-39 102.5z" />
<glyph unicode="&#xf7;" horiz-adv-x="1126" d="M76 512q0 106 108 106h758q109 0 109 -106t-109 -106h-758q-108 0 -108 106zM414 147q0 68 39.5 110t107.5 42q70 0 111 -42t41 -110q0 -67 -41 -108t-111 -41q-68 0 -107.5 41t-39.5 108zM414 874q0 68 39.5 110t107.5 42q70 0 111 -42t41 -110q0 -67 -41 -108t-111 -41 q-68 0 -107.5 41t-39.5 108z" />
<glyph unicode="&#xf8;" horiz-adv-x="1089" d="M70 463q0 219 129 352t348 133q108 0 198 -35l66 95q14 20 22.5 30.5t26 21.5t37.5 11q40 0 80.5 -33.5t40.5 -74.5q0 -31 -31 -76l-72 -94q107 -132 107 -328q0 -221 -129 -353t-348 -132q-112 0 -199 34l-65 -94q-14 -20 -22.5 -30.5t-26.5 -21.5t-39 -11 q-40 0 -80.5 33.5t-40.5 74.5q0 38 32 74l72 96q-106 128 -106 328zM326 465q0 -71 18 -127l272 391q-30 12 -71 12q-102 0 -160.5 -74t-58.5 -202zM473 197q42 -11 72 -11q102 0 160.5 74.5t58.5 202.5q0 66 -19 125z" />
<glyph unicode="&#xf9;" d="M117 352v475q0 111 137 111t137 -111v-432q0 -78 27 -114q39 -54 119 -54q99 0 153 72v528q0 111 137 111q138 0 138 -111v-727q0 -110 -131 -110q-69 0 -100 29t-29 81v23q-39 -64 -110.5 -99.5t-164.5 -35.5q-177 0 -258 127q-55 85 -55 237zM303 1245q0 46 37 89.5 t92 43.5q19 0 38.5 -8t28.5 -14t33 -25l107 -92q35 -28 50.5 -48t15.5 -48q0 -44 -34 -80.5t-83 -36.5q-24 0 -54 14.5t-90 53.5q-77 50 -109 81.5t-32 69.5z" />
<glyph unicode="&#xfa;" d="M117 352v475q0 111 137 111t137 -111v-432q0 -78 27 -114q39 -54 119 -54q99 0 153 72v528q0 111 137 111q138 0 138 -111v-727q0 -110 -131 -110q-69 0 -100 29t-29 81v23q-39 -64 -110.5 -99.5t-164.5 -35.5q-177 0 -258 127q-55 85 -55 237zM385 1143q0 28 15.5 48 t50.5 48l106 92q24 19 33 25t28.5 14t38.5 8q55 0 92 -43.5t37 -89.5q0 -38 -31 -69t-110 -82q-61 -40 -90 -54t-53 -14q-49 0 -83 36.5t-34 80.5z" />
<glyph unicode="&#xfb;" d="M117 352v475q0 111 137 111t137 -111v-432q0 -78 27 -114q39 -54 119 -54q99 0 153 72v528q0 111 137 111q138 0 138 -111v-727q0 -110 -131 -110q-69 0 -100 29t-29 81v23q-39 -64 -110.5 -99.5t-164.5 -35.5q-177 0 -258 127q-55 85 -55 237zM264 1128q0 52 72 105 l86 74q64 51 123 51q27 0 54 -10t38.5 -17.5t32.5 -23.5l84 -74q71 -53 71 -105q0 -36 -28.5 -67t-65.5 -31q-21 0 -47.5 16.5t-83.5 63.5l-57 47l-56 -47q-95 -80 -133 -80q-35 0 -62.5 31t-27.5 67z" />
<glyph unicode="&#xfc;" d="M117 352v475q0 111 137 111t137 -111v-432q0 -78 27 -114q39 -54 119 -54q99 0 153 72v528q0 111 137 111q138 0 138 -111v-727q0 -110 -131 -110q-69 0 -100 29t-29 81v23q-39 -64 -110.5 -99.5t-164.5 -35.5q-177 0 -258 127q-55 85 -55 237zM223 1178q0 62 39.5 100.5 t102.5 38.5t102 -38.5t39 -100.5q0 -63 -39 -102.5t-102 -39.5t-102.5 39.5t-39.5 102.5zM584 1178q0 62 39 100.5t102 38.5t102 -38.5t39 -100.5q0 -63 -39 -102.5t-102 -39.5t-102 39.5t-39 102.5z" />
<glyph unicode="&#xfd;" horiz-adv-x="1011" d="M33 854q0 84 131 84q72 0 105.5 -25t56.5 -86l196 -532q98 217 170 528q5 24 9 36t14 30t23.5 26.5t38 15.5t57.5 7q70 0 97 -23.5t27 -64.5q0 -51 -32 -166q-62 -228 -194 -506.5t-288 -468.5q-48 -60 -83 -85t-72 -25q-56 0 -102 37.5t-46 89.5q0 31 17 56.5t51 59.5 q113 115 158 193l-310 733q-24 58 -24 86zM352 1143q0 28 15.5 48t50.5 48l106 92q23 18 33 24.5t29.5 14.5t38.5 8q55 0 92 -43.5t37 -89.5q0 -37 -31 -68.5t-111 -82.5q-61 -40 -90 -54t-53 -14q-49 0 -83 36.5t-34 80.5z" />
<glyph unicode="&#xfe;" horiz-adv-x="1083" d="M121 -287v1567q0 111 137 111t137 -111v-393q74 51 197 51q192 0 308 -122.5t116 -342.5q0 -223 -125.5 -354t-333.5 -131q-103 0 -162 35v-310q0 -110 -137 -110t-137 110zM395 244q50 -33 123 -33q102 0 159.5 65t57.5 185q0 121 -57 189.5t-154 68.5q-76 0 -129 -41 v-434z" />
<glyph unicode="&#xff;" horiz-adv-x="1011" d="M33 854q0 84 131 84q72 0 105.5 -25t56.5 -86l196 -532q98 217 170 528q5 24 9 36t14 30t23.5 26.5t38 15.5t57.5 7q70 0 97 -23.5t27 -64.5q0 -51 -32 -166q-62 -228 -194 -506.5t-288 -468.5q-48 -60 -83 -85t-72 -25q-56 0 -102 37.5t-46 89.5q0 31 17 56.5t51 59.5 q113 115 158 193l-310 733q-24 58 -24 86zM190 1178q0 62 39.5 100.5t102.5 38.5t102 -38.5t39 -100.5q0 -63 -39 -102.5t-102 -39.5t-102.5 39.5t-39.5 102.5zM551 1178q0 62 39 100.5t102 38.5t102.5 -38.5t39.5 -100.5q0 -63 -39.5 -102.5t-102.5 -39.5t-102 39.5 t-39 102.5z" />
<glyph unicode="&#x152;" horiz-adv-x="1824" d="M72 666q0 202 76.5 355t228 240t360.5 87q78 0 197 -17h721q110 0 110 -121q0 -120 -110 -120h-455v-285h369q110 0 110 -121t-110 -121h-369v-321h465q111 0 111 -121t-111 -121h-731q-112 -16 -197 -16q-209 0 -360.5 87t-228 240t-76.5 355zM358 666 q0 -213 100.5 -327t284.5 -114q73 0 191 23v835q-128 23 -191 23q-184 0 -284.5 -113.5t-100.5 -326.5z" />
<glyph unicode="&#x153;" horiz-adv-x="1695" d="M68 459q0 219 127 354t333 135q251 0 349 -200q48 95 135 146.5t207 51.5q128 0 223 -58t140.5 -148t45.5 -197q0 -52 -11 -85t-34 -49t-47.5 -21t-62.5 -5h-449q35 -176 221 -176q84 0 168 43q54 26 82 26q45 0 78 -39t33 -83q0 -55 -72 -99q-117 -71 -295 -71 q-263 0 -365 196q-102 -200 -352 -200q-206 0 -330 132t-124 347zM348 465q0 -122 52 -193t143 -71q88 0 139 70t51 190q0 123 -52.5 194.5t-141.5 71.5t-140 -70.5t-51 -191.5zM1022 561h346q0 78 -41.5 127t-122.5 49q-78 0 -124 -45t-58 -131z" />
<glyph unicode="&#x178;" horiz-adv-x="1220" d="M14 1270q0 71 133 71q74 0 114.5 -23t70.5 -81l280 -526l285 526q31 57 66.5 80.5t113.5 23.5q129 0 129 -71q0 -8 -1 -16t-5 -18t-6 -16t-8.5 -17.5t-8.5 -15.5t-10.5 -18t-9.5 -16l-409 -711v-342q0 -110 -140 -110q-139 0 -139 110v340l-401 705q-6 11 -18.5 33 t-18.5 33.5t-11.5 28t-5.5 30.5zM279 1577q0 63 39 102t102 39t102 -39t39 -102q0 -62 -39 -101.5t-102 -39.5t-102 39.5t-39 101.5zM659 1577q0 63 39.5 102t102.5 39t102 -39t39 -102q0 -62 -39 -101.5t-102 -39.5t-102.5 39.5t-39.5 101.5z" />
<glyph unicode="&#x2c6;" horiz-adv-x="1228" d="M334 1128q0 52 72 105l86 74q64 51 122 51q27 0 54 -10t38.5 -17.5t32.5 -23.5l84 -74q72 -53 72 -105q0 -36 -28.5 -67t-65.5 -31q-21 0 -47.5 16.5t-83.5 63.5l-58 47l-55 -47q-95 -80 -133 -80q-35 0 -62.5 31t-27.5 67z" />
<glyph unicode="&#x2dc;" horiz-adv-x="1228" d="M293 1151q0 -37 28.5 -72t67.5 -35q27 0 62 27q19 13 26.5 17.5t20 9t26.5 4.5q28 0 91 -29t108 -29q77 0 145 53t68 111q0 37 -28.5 72t-67.5 35q-24 0 -62 -25q-17 -13 -25 -18t-21 -10t-27 -5q-28 0 -91 29t-108 29q-77 0 -145 -53t-68 -111z" />
<glyph unicode="&#x2000;" horiz-adv-x="874" />
<glyph unicode="&#x2001;" horiz-adv-x="1749" />
<glyph unicode="&#x2002;" horiz-adv-x="874" />
<glyph unicode="&#x2003;" horiz-adv-x="1749" />
<glyph unicode="&#x2004;" horiz-adv-x="583" />
<glyph unicode="&#x2005;" horiz-adv-x="437" />
<glyph unicode="&#x2006;" horiz-adv-x="291" />
<glyph unicode="&#x2007;" horiz-adv-x="291" />
<glyph unicode="&#x2008;" horiz-adv-x="218" />
<glyph unicode="&#x2009;" horiz-adv-x="349" />
<glyph unicode="&#x200a;" horiz-adv-x="97" />
<glyph unicode="&#x2010;" horiz-adv-x="669" d="M66 512q0 123 110 123h318q110 0 110 -123t-110 -123h-318q-110 0 -110 123z" />
<glyph unicode="&#x2011;" horiz-adv-x="669" d="M66 512q0 123 110 123h318q110 0 110 -123t-110 -123h-318q-110 0 -110 123z" />
<glyph unicode="&#x2012;" horiz-adv-x="669" d="M66 512q0 123 110 123h318q110 0 110 -123t-110 -123h-318q-110 0 -110 123z" />
<glyph unicode="&#x2013;" horiz-adv-x="1001" d="M66 512q0 115 110 115h651q111 0 111 -115t-111 -115h-651q-110 0 -110 115z" />
<glyph unicode="&#x2014;" horiz-adv-x="1325" d="M66 512q0 115 110 115h975q111 0 111 -115t-111 -115h-975q-110 0 -110 115z" />
<glyph unicode="&#x2018;" horiz-adv-x="436" d="M49 958q0 72 72 273q33 91 68 124.5t96 33.5q110 0 110 -89q0 -25 -12 -71l-59 -232q-8 -32 -14.5 -50t-22 -39t-43.5 -30.5t-70 -9.5q-63 0 -94 24t-31 66z" />
<glyph unicode="&#x2019;" horiz-adv-x="436" d="M49 958q0 26 12 72l60 232q8 33 14.5 50t21.5 38.5t43 31t70 9.5q63 0 94 -24.5t31 -66.5q0 -74 -71 -272q-33 -91 -68 -124.5t-96 -33.5q-111 0 -111 88z" />
<glyph unicode="&#x201a;" horiz-adv-x="399" d="M12 -166q0 22 13 72l59 231q8 33 14.5 50t21.5 38.5t43 31t70 9.5q63 0 94 -24t31 -66q0 -74 -71 -272q-33 -91 -68 -124.5t-96 -33.5q-111 0 -111 88z" />
<glyph unicode="&#x201c;" horiz-adv-x="831" d="M49 958q0 72 72 273q33 91 68 124.5t96 33.5q110 0 110 -89q0 -25 -12 -71l-59 -232q-8 -32 -14.5 -50t-22 -39t-43.5 -30.5t-70 -9.5q-63 0 -94 24t-31 66zM446 958q0 72 72 273q33 91 68 124.5t96 33.5q111 0 111 -89q0 -21 -13 -71l-59 -232q-8 -32 -14.5 -50t-22 -39 t-43.5 -30.5t-70 -9.5q-63 0 -94 24t-31 66z" />
<glyph unicode="&#x201d;" horiz-adv-x="831" d="M49 958q0 26 12 72l60 232q8 33 14.5 50t21.5 38.5t43 31t70 9.5q63 0 94 -24.5t31 -66.5q0 -74 -71 -272q-33 -91 -68 -124.5t-96 -33.5q-111 0 -111 88zM446 958q0 22 13 72l59 232q8 32 14.5 50t22 39t43.5 30.5t70 9.5q63 0 94 -24.5t31 -66.5q0 -71 -72 -272 q-33 -91 -68 -124.5t-96 -33.5q-111 0 -111 88z" />
<glyph unicode="&#x201e;" horiz-adv-x="796" d="M12 -166q0 22 13 72l59 231q8 33 14.5 50t21.5 38.5t43 31t70 9.5q63 0 94 -24t31 -66q0 -74 -71 -272q-33 -91 -68 -124.5t-96 -33.5q-111 0 -111 88zM410 -166q0 26 12 72l59 231q8 32 14.5 50t22 39t43.5 30.5t70 9.5q63 0 94 -24t31 -66q0 -71 -72 -272 q-33 -91 -68 -124.5t-96 -33.5t-85.5 23t-24.5 65z" />
<glyph unicode="&#x2022;" horiz-adv-x="602" d="M68 510q0 106 63 170.5t168 64.5q108 0 172 -64.5t64 -170.5q0 -105 -64 -168t-172 -63q-105 0 -168 63t-63 168z" />
<glyph unicode="&#x2026;" horiz-adv-x="1474" d="M84 147q0 73 44.5 118.5t117.5 45.5t118.5 -46t45.5 -118t-45.5 -116.5t-118.5 -44.5t-117.5 44.5t-44.5 116.5zM575 147q0 73 44.5 118.5t117.5 45.5t118.5 -46t45.5 -118t-45.5 -116.5t-118.5 -44.5t-117.5 44.5t-44.5 116.5zM1067 147q0 73 44.5 118.5t117.5 45.5 t118.5 -46t45.5 -118t-45.5 -116.5t-118.5 -44.5t-117.5 44.5t-44.5 116.5z" />
<glyph unicode="&#x202f;" horiz-adv-x="349" />
<glyph unicode="&#x2039;" horiz-adv-x="608" d="M80 512q0 56 49 121l131 190q20 29 31.5 43t32.5 27.5t45 13.5q45 0 88 -33.5t43 -80.5q0 -38 -43 -97l-129 -184l129 -184q43 -59 43 -97q0 -47 -43 -80.5t-88 -33.5q-24 0 -45 13.5t-32.5 27.5t-31.5 43l-131 190q-49 65 -49 121z" />
<glyph unicode="&#x203a;" horiz-adv-x="608" d="M109 231q0 38 43 97l129 184l-129 184q-43 59 -43 97q0 47 43 80.5t88 33.5q24 0 45 -13.5t31.5 -27t31.5 -43.5l131 -190q49 -65 49 -121t-49 -121l-131 -190q-21 -30 -31.5 -43.5t-31.5 -27t-45 -13.5q-45 0 -88 33.5t-43 80.5z" />
<glyph unicode="&#x205f;" horiz-adv-x="437" />
<glyph unicode="&#x20ac;" horiz-adv-x="1120" d="M23 432q0 94 104 94h80q-2 23 -2 70q0 31 2 45h-92q-92 0 -92 82q0 94 104 94h106q53 184 192.5 283.5t332.5 99.5q129 0 221 -45q40 -20 58 -41t18 -49q0 -40 -26.5 -80.5t-72.5 -40.5q-15 0 -55 12q-81 29 -143 29q-88 0 -160 -41.5t-111 -126.5h383q93 0 93 -80 q0 -96 -105 -96h-412q-2 -12 -2 -41q0 -16 5 -74h360q92 0 92 -82q0 -94 -104 -94h-297q43 -76 112 -114.5t148 -38.5q61 0 145 30q8 2 20 6t21 6.5t17 2.5q43 0 65.5 -33t22.5 -78q0 -36 -18 -58t-62 -44q-89 -45 -219 -45q-183 0 -317.5 95t-192.5 271h-127q-92 0 -92 82z " />
<glyph unicode="&#x2122;" horiz-adv-x="1470" d="M27 1257q0 74 65 74h410q67 0 67 -74q0 -75 -67 -75h-119v-387q0 -66 -86 -66q-84 0 -84 66v387h-121q-65 0 -65 75zM647 797l35 440q3 53 25.5 75.5t83.5 22.5q57 0 88.5 -23t54.5 -81l102 -234l101 234q22 58 52.5 81t88.5 23q57 0 79 -23t27 -77l33 -440 q6 -66 -78 -66q-83 0 -86 66l-16 342l-111 -269q-23 -67 -96 -67t-96 67l-111 269l-18 -342q-3 -66 -82 -66q-40 0 -59.5 17t-16.5 51z" />
<glyph unicode="&#x25fc;" horiz-adv-x="942" d="M0 0v942h942v-942h-942z" />
</font>
</defs>
</svg>
