<?xml version="1.0" encoding="utf-8"?>
<!-- Generator: Adobe Illustrator 18.0.0, SVG Export Plug-In . SVG Version: 6.00 Build 0)  -->
<!DOCTYPE svg PUBLIC "-//W3C//DTD SVG 1.1//EN" "http://www.w3.org/Graphics/SVG/1.1/DTD/svg11.dtd">
<svg version="1.1" xmlns="http://www.w3.org/2000/svg" xmlns:xlink="http://www.w3.org/1999/xlink" x="0px" y="0px"
	 viewBox="0 0 525 625" enable-background="new 0 0 525 625" xml:space="preserve">
<g id="Layer_1">
	
		<image display="none" overflow="visible" width="505" height="600" xlink:href="40FFB399B4A2D5F4.png"  transform="matrix(1 0 0 1 9.8542 12.5)">
	</image>
</g>
<g id="Layer_2">
	<g>
		<path fill="#485E29" d="M515,156.5c0-70.7-8.9-129.9-8.9-129.9s-158-10.1-243.5-14.1c0,0-164.7,9.5-243.7,14.1
			c0,0-8.9,59.2-8.9,129.9c0,0-17.4,297.6,252.5,456C532.4,454.1,515,156.5,515,156.5z"/>
	</g>
	<g>
		<path fill="#FFFFFF" d="M262.2,599.3l-1.4-0.8c-58.9-34.6-108.2-79-146.7-132.1c-30.7-42.5-54.6-90.5-70.9-142.8
			c-27.3-87.6-24.1-158.4-23.9-161.3c0-66.6,8.4-123.4,8.5-123.9l0.3-2.2l2.2-0.1c75.1-4.4,231.8-13.4,231.8-13.4l0.1,0l0.1,0
			c80.5,3.8,230.2,13.3,231.7,13.4l2.2,0.1l0.3,2.2c0.1,0.6,8.5,57.3,8.5,123.9c0.1,2.9,3.4,73.6-23.9,161.3
			c-16.3,52.3-40.2,100.4-70.9,142.8c-38.4,53.1-87.8,97.5-146.7,132.1L262.2,599.3z M32.9,41.4c-1.5,11.1-8.1,62.1-8.1,121l0,0.2
			c0,0.7-3.8,71.5,23.8,159.6c16.2,51.7,39.8,99.2,70.2,141.2c37.7,52,86,95.6,143.5,129.7c57.6-34,105.9-77.7,143.5-129.7
			c30.4-42,54-89.5,70.1-141.2c27.5-88.1,23.8-158.9,23.8-159.6l0-0.2c0-58.9-6.6-110-8.1-121c-19-1.2-154.2-9.7-229.2-13.2
			C257,28.4,107.5,37,32.9,41.4z"/>
	</g>
	<g>
		<path fill="#FFFFFF" d="M262.1,551.8l-1.3-0.7c-50.1-29.4-92-67.2-124.7-112.3c-26.1-36.1-46.4-77-60.3-121.4
			c-23.2-74.4-20.5-134.5-20.4-137.1c0-56.6,7.2-104.8,7.2-105.3l0.3-2l2-0.1c63.8-3.7,197-11.4,197-11.4l0.1,0l0.1,0
			c68.4,3.2,195.6,11.3,196.9,11.4l2,0.1l0.3,2c0.1,0.5,7.2,48.7,7.2,105.3c0.1,2.6,2.9,62.6-20.4,137.1
			c-13.9,44.5-34.2,85.3-60.3,121.4c-32.7,45.1-74.6,82.9-124.7,112.3L262.1,551.8z M67.4,77.6c-1.3,9.7-6.9,52.9-6.9,102.6l0,0.1
			c0,0.6-3.2,60.7,20.2,135.6c13.7,43.9,33.8,84.3,59.6,119.9c32,44.2,73,81.2,121.8,110.1c48.9-28.9,89.9-65.9,121.8-110.1
			c25.8-35.6,45.9-76,59.6-119.9c23.4-74.9,20.2-135,20.2-135.6l0-0.1c0-49.8-5.6-93-6.9-102.7c-16.6-1.1-131-8.3-194.6-11.2
			C257.5,66.6,130.7,73.9,67.4,77.6z"/>
	</g>
	<g>
		<path fill="#FFFFFF" d="M163.1,129.3c-0.9-1.5-2.1-2.8-3.5-3.9c-1.4-1.1-3-2-4.8-2.6c-1.8-0.6-3.7-0.9-5.6-0.9
			c-3.6,0-6.6,0.7-9.1,2c-2.5,1.4-4.5,3.2-6.1,5.4c-1.5,2.3-2.7,4.9-3.4,7.8c-0.7,2.9-1.1,5.9-1.1,9c0,3,0.4,5.9,1.1,8.7
			c0.7,2.8,1.8,5.3,3.4,7.6c1.5,2.2,3.6,4,6.1,5.4c2.5,1.4,5.5,2,9.1,2c4.8,0,8.6-1.5,11.4-4.4c2.7-2.9,4.4-6.7,5-11.5h15.3
			c-0.4,4.4-1.4,8.4-3.1,12c-1.7,3.6-3.9,6.6-6.7,9.1c-2.8,2.5-6,4.4-9.7,5.7c-3.7,1.3-7.8,2-12.2,2c-5.5,0-10.5-0.9-14.9-2.8
			c-4.4-1.9-8.1-4.5-11.2-7.8c-3-3.3-5.4-7.2-7-11.6s-2.4-9.3-2.4-14.4c0-5.3,0.8-10.2,2.4-14.7c1.6-4.5,3.9-8.5,7-11.8
			c3-3.4,6.7-6,11.2-7.9c4.4-1.9,9.4-2.9,14.9-2.9c4,0,7.7,0.6,11.3,1.7c3.5,1.1,6.7,2.8,9.5,4.9c2.8,2.1,5.1,4.8,6.9,8
			c1.8,3.2,3,6.8,3.4,10.9h-15.3C164.6,132.4,164,130.8,163.1,129.3z"/>
		<path fill="#FFFFFF" d="M213.2,163.7c0.9,1.7,2,3,3.5,4c1.4,1,3.1,1.8,5.1,2.3c2,0.5,4,0.7,6.1,0.7c1.4,0,2.9-0.1,4.5-0.3
			c1.6-0.2,3.1-0.7,4.5-1.3c1.4-0.7,2.6-1.6,3.5-2.7c0.9-1.2,1.4-2.6,1.4-4.4c0-1.9-0.6-3.5-1.9-4.7c-1.2-1.2-2.9-2.2-4.9-3
			s-4.3-1.5-6.9-2.1c-2.6-0.6-5.1-1.3-7.8-2c-2.7-0.7-5.3-1.5-7.9-2.4c-2.6-1-4.8-2.2-6.9-3.7c-2-1.5-3.7-3.4-4.9-5.7
			c-1.2-2.3-1.9-5-1.9-8.3c0-3.6,0.8-6.8,2.4-9.5c1.6-2.7,3.7-4.9,6.2-6.7c2.6-1.8,5.5-3.1,8.7-4c3.2-0.9,6.5-1.3,9.7-1.3
			c3.8,0,7.4,0.4,10.9,1.2c3.5,0.8,6.5,2.2,9.2,4c2.7,1.8,4.8,4.2,6.4,7.1c1.6,2.9,2.4,6.4,2.4,10.4h-15.3c-0.1-2.1-0.6-3.9-1.4-5.2
			c-0.8-1.4-1.8-2.5-3.1-3.3c-1.3-0.8-2.7-1.4-4.4-1.7c-1.7-0.3-3.5-0.5-5.4-0.5c-1.3,0-2.6,0.1-3.8,0.4c-1.3,0.3-2.4,0.7-3.5,1.4
			c-1,0.7-1.9,1.5-2.6,2.5c-0.7,1-1,2.2-1,3.8c0,1.4,0.3,2.5,0.8,3.4c0.5,0.9,1.6,1.7,3.2,2.4c1.6,0.7,3.8,1.5,6.6,2.2
			c2.8,0.7,6.4,1.7,11,2.8c1.3,0.3,3.2,0.7,5.6,1.4c2.4,0.7,4.8,1.8,7.1,3.3c2.4,1.5,4.4,3.5,6.1,6.1c1.7,2.5,2.6,5.8,2.6,9.8
			c0,3.2-0.6,6.2-1.9,9c-1.3,2.8-3.2,5.2-5.7,7.2c-2.5,2-5.7,3.6-9.4,4.7c-3.7,1.1-8.1,1.7-13,1.7c-4,0-7.8-0.5-11.6-1.4
			s-7-2.5-9.9-4.5c-2.9-2-5.1-4.7-6.8-7.8c-1.7-3.2-2.5-6.9-2.4-11.3h15.3C211.8,160.1,212.3,162.1,213.2,163.7z"/>
		<path fill="#FFFFFF" d="M322.2,129.3c-0.9-1.5-2.1-2.8-3.5-3.9c-1.4-1.1-3-2-4.8-2.6c-1.8-0.6-3.7-0.9-5.6-0.9
			c-3.6,0-6.6,0.7-9.1,2c-2.5,1.4-4.5,3.2-6.1,5.4c-1.5,2.3-2.7,4.9-3.4,7.8c-0.7,2.9-1.1,5.9-1.1,9c0,3,0.4,5.9,1.1,8.7
			c0.7,2.8,1.8,5.3,3.4,7.6c1.5,2.2,3.6,4,6.1,5.4c2.5,1.4,5.5,2,9.1,2c4.8,0,8.6-1.5,11.4-4.4c2.7-2.9,4.4-6.7,5-11.5H340
			c-0.4,4.4-1.4,8.4-3.1,12c-1.7,3.6-3.9,6.6-6.7,9.1c-2.8,2.5-6,4.4-9.7,5.7c-3.7,1.3-7.8,2-12.2,2c-5.5,0-10.5-0.9-14.9-2.8
			c-4.4-1.9-8.1-4.5-11.2-7.8c-3-3.3-5.4-7.2-7-11.6s-2.4-9.3-2.4-14.4c0-5.3,0.8-10.2,2.4-14.7c1.6-4.5,3.9-8.5,7-11.8
			c3-3.4,6.7-6,11.2-7.9c4.4-1.9,9.4-2.9,14.9-2.9c4,0,7.7,0.6,11.3,1.7c3.5,1.1,6.7,2.8,9.5,4.9c2.8,2.1,5.1,4.8,6.9,8
			c1.8,3.2,3,6.8,3.4,10.9H324C323.8,132.4,323.2,130.8,322.2,129.3z"/>
		<path fill="#FFFFFF" d="M414.1,110.5v13.1H376v15.1H411v12.1H376v17.3h38.9v13.1h-54.7v-70.7H414.1z"/>
	</g>
	<g>
		<path fill="#FFFFFF" d="M242.1,222.3c-0.9-1.5-2.1-2.8-3.5-3.9c-1.4-1.1-3-2-4.8-2.6c-1.8-0.6-3.7-0.9-5.6-0.9
			c-3.6,0-6.6,0.7-9.1,2c-2.5,1.4-4.5,3.2-6.1,5.4c-1.5,2.3-2.7,4.9-3.4,7.8c-0.7,2.9-1.1,5.9-1.1,9c0,3,0.4,5.9,1.1,8.7
			c0.7,2.8,1.8,5.3,3.4,7.6c1.5,2.2,3.6,4,6.1,5.4c2.5,1.4,5.5,2,9.1,2c4.8,0,8.6-1.5,11.4-4.4c2.7-2.9,4.4-6.7,5-11.5h15.3
			c-0.4,4.4-1.4,8.4-3.1,12c-1.7,3.6-3.9,6.6-6.7,9.1c-2.8,2.5-6,4.4-9.7,5.7c-3.7,1.3-7.8,2-12.2,2c-5.5,0-10.5-0.9-14.9-2.8
			c-4.4-1.9-8.1-4.5-11.2-7.8c-3-3.3-5.4-7.2-7-11.6s-2.4-9.3-2.4-14.4c0-5.3,0.8-10.2,2.4-14.7c1.6-4.5,3.9-8.5,7-11.8
			c3-3.4,6.7-6,11.2-7.9c4.4-1.9,9.4-2.9,14.9-2.9c4,0,7.7,0.6,11.3,1.7c3.5,1.1,6.7,2.8,9.5,4.9c2.8,2.1,5.1,4.8,6.9,8
			c1.8,3.2,3,6.8,3.4,10.9h-15.3C243.6,225.4,243,223.8,242.1,222.3z"/>
		<path fill="#FFFFFF" d="M238.5,369.6c-3.4,1.4-6.9,2.1-10.4,2.1c-5.5,0-10.5-0.9-14.9-2.8c-4.4-1.9-8.1-4.5-11.2-7.8
			c-3-3.3-5.4-7.2-7-11.6s-2.4-9.3-2.4-14.4c0-5.3,0.8-10.2,2.4-14.7c1.6-4.5,3.9-8.5,7-11.8c3-3.4,6.7-6,11.2-7.9
			c4.4-1.9,9.4-2.9,14.9-2.9c3.7,0,7.3,0.5,10.8,1.6c3.5,1.1,6.6,2.7,9.4,4.8c2.8,2.1,5.1,4.7,6.9,7.8c1.8,3.1,2.9,6.7,3.3,10.7
			h-15.1c-0.9-4-2.8-6.9-5.5-8.9c-2.7-2-6-3-9.8-3c-3.6,0-6.6,0.7-9.1,2c-2.5,1.4-4.5,3.2-6.1,5.4c-1.5,2.3-2.7,4.9-3.4,7.8
			c-0.7,2.9-1.1,5.9-1.1,9c0,3,0.4,5.9,1.1,8.7c0.7,2.8,1.8,5.3,3.4,7.6c1.5,2.2,3.6,4,6.1,5.4c2.5,1.4,5.5,2,9.1,2
			c5.3,0,9.3-1.3,12.2-3.9c2.9-2.6,4.5-6.4,5-11.3h-16v-11.6h30.3v38.2h-10.1l-1.6-8C245.1,365.7,242,368.2,238.5,369.6z"/>
		<path fill="#FFFFFF" d="M242.1,414.3c-0.9-1.5-2.1-2.8-3.5-3.9c-1.4-1.1-3-2-4.8-2.6c-1.8-0.6-3.7-0.9-5.6-0.9
			c-3.6,0-6.6,0.7-9.1,2c-2.5,1.4-4.5,3.2-6.1,5.4c-1.5,2.3-2.7,4.9-3.4,7.8c-0.7,2.9-1.1,5.9-1.1,9c0,3,0.4,5.9,1.1,8.7
			c0.7,2.8,1.8,5.3,3.4,7.6c1.5,2.2,3.6,4,6.1,5.4c2.5,1.4,5.5,2,9.1,2c4.8,0,8.6-1.5,11.4-4.4c2.7-2.9,4.4-6.7,5-11.5h15.3
			c-0.4,4.4-1.4,8.4-3.1,12c-1.7,3.6-3.9,6.6-6.7,9.1c-2.8,2.5-6,4.4-9.7,5.7c-3.7,1.3-7.8,2-12.2,2c-5.5,0-10.5-0.9-14.9-2.8
			c-4.4-1.9-8.1-4.5-11.2-7.8c-3-3.3-5.4-7.2-7-11.6s-2.4-9.3-2.4-14.4c0-5.3,0.8-10.2,2.4-14.7c1.6-4.5,3.9-8.5,7-11.8
			s6.7-6,11.2-7.9c4.4-1.9,9.4-2.9,14.9-2.9c4,0,7.7,0.6,11.3,1.7c3.5,1.1,6.7,2.8,9.5,4.9c2.8,2.1,5.1,4.8,6.9,8
			c1.8,3.2,3,6.8,3.4,10.9h-15.3C243.6,417.4,243,415.8,242.1,414.3z"/>
	</g>
	<g>
		<path fill="#EE334E" d="M348.8,252.5l-7.8,22.2l-17.2-7l8,45.2l-23.5-22v13l-18.8-5.2l5,14.2c0,0,1.5,2.8-1.8,4.5l-8.5,2
			l32.2,23.5l-4,9.8l37.1-4.5v34.5h3.8v-34.6l30.9,4.3l-4.2-8l33-25l-8.2-1.9c0,0-2.5-0.9-1.8-4.6l4.8-13.8l-18.2,4.2l-0.2-12.8
			L366,313l7.8-45.2l-17.2,6.8L348.8,252.5z"/>
		<path fill="#FFFFFF" d="M354.4,383.8h-5.8v-34.4L311,354l4.3-10.6L281.9,319l10.5-2.5c0.7-0.4,1.2-0.9,1.4-1.5
			c0.2-0.8-0.1-1.6-0.1-1.6l-0.1-0.1l-5.6-16.1l19.3,5.4v-14l23,21.5l-7.8-44.1l18,7.3l8.3-24l8.4,23.7l17.9-7l-7.5,44l22.7-21.7
			l0.3,13.8l18.8-4.4l-5.3,15.4c-0.5,2.5,0.8,3.3,1.1,3.4l10.3,2.3l-34,25.8l4.8,9l-31.7-4.4V383.8z M350.6,381.8h1.8V347l30.1,4.2
			l-3.7-7l32-24.2l-6.3-1.4c-1.1-0.4-3.1-2.1-2.4-5.8l0-0.1l4.2-12l-17.7,4.1l-0.2-11.7l-23.8,22.8l8-46.5l-16.6,6.5l-7.1-20.3
			l-7.2,20.5l-16.5-6.7l8.2,46.4l-24-22.5v12l-18.2-5.1l4.3,12.4c0.2,0.3,0.7,1.6,0.3,3c-0.3,1.1-1.2,2.1-2.5,2.8l-0.2,0.1l-6.4,1.5
			l31.1,22.7l-3.7,8.9l36.5-4.4V381.8z"/>
	</g>
	<g>
		<path fill="#FFFFFF" d="M319.7,422.1v-16.4h-6.5v-3.9c0.9,0,1.8,0,2.6-0.2c0.8-0.2,1.6-0.4,2.3-0.8c0.7-0.4,1.2-0.9,1.7-1.6
			c0.5-0.6,0.8-1.5,0.9-2.4h4.2v25.2H319.7z"/>
		<path fill="#FFFFFF" d="M333.6,400.2c0.5-0.9,1.2-1.6,2-2.2c0.8-0.6,1.7-1,2.8-1.3c1-0.3,2.1-0.4,3.1-0.4c1.6,0,2.9,0.2,4,0.7
			c1.1,0.5,2,1.1,2.7,1.7c0.7,0.7,1.2,1.4,1.5,2.2c0.3,0.8,0.4,1.5,0.4,2.1c0,1.2-0.3,2.3-0.9,3.3s-1.6,1.6-2.8,2v0.1
			c1.5,0.3,2.7,1.1,3.6,2.1c0.8,1.1,1.2,2.4,1.2,4c0,1.3-0.3,2.5-0.8,3.5c-0.6,1-1.3,1.8-2.2,2.5c-0.9,0.6-1.9,1.1-3.1,1.5
			c-1.2,0.3-2.3,0.5-3.5,0.5c-1.2,0-2.5-0.2-3.6-0.5c-1.2-0.3-2.2-0.8-3.1-1.4c-0.9-0.6-1.7-1.5-2.2-2.5c-0.6-1-0.8-2.2-0.8-3.5
			c0-1.6,0.4-3,1.3-4c0.8-1.1,2-1.8,3.6-2.2v-0.1c-1.3-0.3-2.2-1-2.8-1.9c-0.6-0.9-1-2-1-3.3C332.8,402.1,333.1,401.1,333.6,400.2z
			 M337.3,416.2c0.2,0.5,0.6,1,1,1.4c0.4,0.4,0.9,0.7,1.5,0.9c0.6,0.2,1.2,0.3,1.8,0.3c0.6,0,1.2-0.1,1.7-0.3c0.5-0.2,1-0.5,1.4-0.9
			c0.4-0.4,0.7-0.8,0.9-1.4c0.2-0.5,0.3-1.1,0.3-1.7c0-0.6-0.1-1.1-0.3-1.6c-0.2-0.5-0.6-0.9-1-1.3c-0.4-0.4-0.9-0.6-1.4-0.8
			c-0.5-0.2-1.1-0.3-1.7-0.3c-1.3,0-2.4,0.3-3.2,1c-0.9,0.7-1.3,1.7-1.3,3C337,415.1,337.1,415.7,337.3,416.2z M338.7,406.2
			c0.8,0.6,1.7,0.8,2.8,0.8c1.1,0,2-0.3,2.8-0.8s1.1-1.4,1.1-2.5c0-0.3,0-0.7-0.1-1.1s-0.3-0.8-0.6-1.1c-0.3-0.4-0.7-0.7-1.2-0.9
			s-1.2-0.4-2-0.4c-0.5,0-1,0.1-1.5,0.2c-0.5,0.2-0.9,0.4-1.3,0.7s-0.7,0.6-0.9,1.1c-0.2,0.4-0.3,0.9-0.3,1.5
			C337.6,404.8,337.9,405.6,338.7,406.2z"/>
		<path fill="#FFFFFF" d="M354.3,400.2c0.5-0.9,1.2-1.6,2-2.2c0.8-0.6,1.7-1,2.8-1.3c1-0.3,2.1-0.4,3.1-0.4c1.6,0,2.9,0.2,4,0.7
			c1.1,0.5,2,1.1,2.7,1.7c0.7,0.7,1.2,1.4,1.5,2.2c0.3,0.8,0.4,1.5,0.4,2.1c0,1.2-0.3,2.3-0.9,3.3s-1.6,1.6-2.8,2v0.1
			c1.5,0.3,2.7,1.1,3.6,2.1c0.8,1.1,1.2,2.4,1.2,4c0,1.3-0.3,2.5-0.8,3.5c-0.6,1-1.3,1.8-2.2,2.5c-0.9,0.6-1.9,1.1-3.1,1.5
			c-1.2,0.3-2.3,0.5-3.5,0.5c-1.2,0-2.5-0.2-3.6-0.5c-1.2-0.3-2.2-0.8-3.1-1.4c-0.9-0.6-1.7-1.5-2.2-2.5c-0.6-1-0.8-2.2-0.8-3.5
			c0-1.6,0.4-3,1.3-4c0.8-1.1,2-1.8,3.6-2.2v-0.1c-1.3-0.3-2.2-1-2.8-1.9c-0.6-0.9-1-2-1-3.3C353.5,402.1,353.8,401.1,354.3,400.2z
			 M358,416.2c0.2,0.5,0.6,1,1,1.4c0.4,0.4,0.9,0.7,1.5,0.9c0.6,0.2,1.2,0.3,1.8,0.3c0.6,0,1.2-0.1,1.7-0.3c0.5-0.2,1-0.5,1.4-0.9
			c0.4-0.4,0.7-0.8,0.9-1.4c0.2-0.5,0.3-1.1,0.3-1.7c0-0.6-0.1-1.1-0.3-1.6c-0.2-0.5-0.6-0.9-1-1.3c-0.4-0.4-0.9-0.6-1.4-0.8
			c-0.5-0.2-1.1-0.3-1.7-0.3c-1.3,0-2.4,0.3-3.2,1c-0.9,0.7-1.3,1.7-1.3,3C357.7,415.1,357.8,415.7,358,416.2z M359.4,406.2
			c0.8,0.6,1.7,0.8,2.8,0.8c1.1,0,2-0.3,2.8-0.8s1.1-1.4,1.1-2.5c0-0.3,0-0.7-0.1-1.1s-0.3-0.8-0.6-1.1c-0.3-0.4-0.7-0.7-1.2-0.9
			s-1.2-0.4-2-0.4c-0.5,0-1,0.1-1.5,0.2c-0.5,0.2-0.9,0.4-1.3,0.7s-0.7,0.6-0.9,1.1c-0.2,0.4-0.3,0.9-0.3,1.5
			C358.3,404.8,358.7,405.6,359.4,406.2z"/>
		<path fill="#FFFFFF" d="M388.1,405.5c-1,1.7-1.9,3.5-2.6,5.4c-0.7,1.9-1.2,3.8-1.6,5.8c-0.4,1.9-0.6,3.8-0.6,5.4h-5.6
			c0.3-3.8,1.2-7.4,2.7-10.9c1.5-3.5,3.5-6.7,5.9-9.6h-12.2v-4.8h17.6v4.4C390.3,402.4,389.1,403.8,388.1,405.5z"/>
	</g>
</g>
</svg>
