<?xml version="1.0" encoding="utf-8"?>
<!-- Generator: Adobe Illustrator 18.0.0, SVG Export Plug-In . SVG Version: 6.00 Build 0)  -->
<!DOCTYPE svg PUBLIC "-//W3C//DTD SVG 1.1//EN" "http://www.w3.org/Graphics/SVG/1.1/DTD/svg11.dtd">
<svg version="1.1" id="Layer_1" xmlns="http://www.w3.org/2000/svg" xmlns:xlink="http://www.w3.org/1999/xlink" x="0px" y="0px"
	 viewBox="23.9 193.8 745 230" enable-background="new 23.9 193.8 745 230" xml:space="preserve">
<g>
	<g enable-background="new    ">
		<path fill="#03283C" d="M75.2,237.2c2.2,0,3.9-0.5,5.6-1.5c1.2-0.7,1.9-1.3,2.8-1.3c1.7,0,3.3,2.1,3.3,3.6c0,1.4-1.1,2.6-3,3.6
			c-2.5,1.5-5.6,2.3-9.2,2.3c-10.1,0-17.7-7.1-17.7-19.3c0-12.1,7.5-19,17.7-19c3.5,0,6.6,0.8,9.2,2.3c1.8,1,3,2.3,3,3.6
			c0,1.7-1.7,3.8-3.5,3.8c-0.9,0-1.6-0.6-2.7-1.3c-1.5-1-3.6-1.5-5.7-1.5c-5.5,0-10,3.8-10,12.1C65,233.1,69.5,237.2,75.2,237.2z"/>
		<path fill="#03283C" d="M90.3,216.4c0-6.4,5.2-10.7,12.7-10.7c3.2,0,6.8,0.9,9.2,2.4c1.5,1,2.1,1.8,2.1,3c0,1.7-1.5,3.9-3.2,3.9
			c-0.6,0-1.2-0.3-2.4-1c-1.9-1-3.6-1.7-5.7-1.7c-3.2,0-5,1.6-5,3.6c0,5.8,17.1,4.7,17.1,16.8c0,7-5.6,11.2-13.2,11.2
			c-3.6,0-6.9-0.9-9.8-2.8c-1.4-1-2.2-1.9-2.2-3.1c0-1.8,1.7-3.9,3.3-3.9c0.8,0,1.4,0.4,2.6,1.1c1.8,1.1,3.6,2.1,6.2,2.1
			c3.2,0,5.5-1.6,5.5-4C107.5,226.7,90.3,228.1,90.3,216.4z"/>
		<path fill="#03283C" d="M136.8,237.2c2.2,0,3.9-0.5,5.6-1.5c1.2-0.7,1.9-1.3,2.8-1.3c1.7,0,3.3,2.1,3.3,3.6c0,1.4-1.1,2.6-3,3.6
			c-2.5,1.5-5.6,2.3-9.2,2.3c-10.1,0-17.7-7.1-17.7-19.3c0-12.1,7.5-19,17.7-19c3.5,0,6.6,0.8,9.2,2.3c1.8,1,3,2.3,3,3.6
			c0,1.7-1.7,3.8-3.5,3.8c-0.9,0-1.6-0.6-2.7-1.3c-1.5-1-3.6-1.5-5.7-1.5c-5.5,0-10,3.8-10,12.1
			C126.6,233.1,131.1,237.2,136.8,237.2z"/>
		<path fill="#03283C" d="M170.9,221c2.1,0,3.1,1.1,3.1,3.4c0,2.3-1,3.4-3.1,3.4h-10.3v8.9h13c2.1,0,3.1,1.1,3.1,3.4
			c0,2.3-1,3.4-3.1,3.4h-16.5c-2.7,0-3.9-1.2-3.9-3.9v-29.3c0-2.7,1.2-3.9,3.9-3.9h16.1c2.1,0,3.1,1.1,3.1,3.4c0,2.3-1,3.4-3.1,3.4
			h-12.6v7.9L170.9,221L170.9,221z"/>
		<path fill="#03283C" d="M223.7,241.5c0,1.3-0.9,2.2-3.6,2.2c-2.6,0-3.7-0.7-4.3-2.7l-2-5.9h-14l-2,5.9c-0.6,1.8-1.6,2.7-4.2,2.7
			c-2.6,0-3.5-0.9-3.5-2.2c0-0.7,0.2-1.5,0.6-2.6l10.7-28.8c1.1-2.9,2.1-4,5.5-4c3.5,0,4.6,1.2,5.6,4l10.5,28.8
			C223.5,240,223.7,240.8,223.7,241.5z M211.5,228.6l-4.8-14l-4.7,14H211.5z"/>
		<path fill="#03283C" d="M235.4,240.6c0,2.1-1.1,3.1-3.5,3.1s-3.6-1-3.6-3.1v-30.4c0-2.8,1.7-4.2,5-4.2s5,1.3,6.2,3.4l13.6,23.7
			v-24c0-2.1,1.2-3.1,3.6-3.1s3.6,1,3.6,3.1v30.4c0,2.8-1.6,4.2-4.7,4.2c-3,0-4.4-1.1-5.8-3.5l-14.3-24.1L235.4,240.6L235.4,240.6z"
			/>
		<path fill="#03283C" d="M274.2,240.6c0,2.1-1.1,3.1-3.5,3.1s-3.6-1-3.6-3.1v-30.4c0-2.8,1.7-4.2,5-4.2s5,1.3,6.2,3.4l13.6,23.7
			v-24c0-2.1,1.2-3.1,3.6-3.1s3.6,1,3.6,3.1v30.4c0,2.8-1.6,4.2-4.7,4.2c-3,0-4.4-1.1-5.8-3.5l-14.3-24.1v24.5H274.2z"/>
		<path fill="#03283C" d="M327.2,233.3c0.5-1.1,0.6-2.5,0.6-4v-20.1c0-2.1,1.2-3.1,3.6-3.1c2.5,0,3.7,1,3.7,3.1v20.1
			c0,2.8-0.4,5.3-1.3,7.4c-2.3,5.4-7.2,7.5-13.4,7.5c-6.6,0-11.1-2.3-13.3-7.5c-0.9-2-1.3-4.4-1.3-7.3v-20.1c0-2.1,1.3-3.1,3.9-3.1
			s3.9,1,3.9,3.1v20.1c0,1.5,0.2,2.8,0.6,4c1.1,2.8,3.3,4.1,6.5,4.1C324.3,237.4,326.2,235.8,327.2,233.3z"/>
		<path fill="#03283C" d="M372.3,241.5c0,1.3-0.9,2.2-3.6,2.2c-2.6,0-3.7-0.7-4.3-2.7l-2-5.9h-14l-2,5.9c-0.6,1.8-1.6,2.7-4.2,2.7
			s-3.5-0.9-3.5-2.2c0-0.7,0.2-1.5,0.6-2.6l10.7-28.8c1.1-2.9,2.1-4,5.5-4c3.5,0,4.6,1.2,5.6,4l10.5,28.8
			C372.1,240,372.3,240.8,372.3,241.5z M360.1,228.6l-4.8-14l-4.7,14H360.1z"/>
		<path fill="#03283C" d="M395.9,236.5c2.1,0,3.1,1.1,3.1,3.4c0,2.3-1,3.5-3.1,3.5h-15.2c-2.7,0-3.9-1.2-3.9-3.9v-30.4
			c0-2.1,1.3-3.1,3.9-3.1s3.9,1,3.9,3.1v27.3L395.9,236.5L395.9,236.5z"/>
		<path fill="#03283C" d="M431.1,237.2c2.2,0,3.9-0.5,5.6-1.5c1.2-0.7,1.9-1.3,2.8-1.3c1.7,0,3.3,2.1,3.3,3.6c0,1.4-1.1,2.6-3,3.6
			c-2.4,1.5-5.6,2.3-9.2,2.3c-10.1,0-17.7-7.1-17.7-19.3c0-12.1,7.5-19,17.7-19c3.5,0,6.6,0.8,9.2,2.3c1.8,1,3,2.3,3,3.6
			c0,1.7-1.7,3.8-3.5,3.8c-0.9,0-1.6-0.6-2.7-1.3c-1.5-1-3.6-1.5-5.7-1.5c-5.5,0-10,3.8-10,12.1
			C420.9,233.1,425.4,237.2,431.1,237.2z"/>
		<path fill="#03283C" d="M463.1,205.7c11.1,0,18.2,7.4,18.2,19.2s-7.1,19.2-18.2,19.2c-11,0-18.2-7.4-18.2-19.2
			C445,213.1,452.1,205.7,463.1,205.7z M463.1,237.4c6.2,0,10.3-4.6,10.3-12.5s-4.1-12.5-10.3-12.5c-6.1,0-10.2,4.6-10.2,12.5
			C452.9,232.7,457,237.4,463.1,237.4z"/>
		<path fill="#03283C" d="M493.9,240.6c0,2.1-1.1,3.1-3.5,3.1s-3.6-1-3.6-3.1v-30.4c0-2.8,1.7-4.2,5-4.2s5,1.3,6.2,3.4l13.6,23.7
			v-24c0-2.1,1.2-3.1,3.6-3.1s3.6,1,3.6,3.1v30.4c0,2.8-1.6,4.2-4.7,4.2c-3,0-4.4-1.1-5.8-3.5L494,216.1v24.5H493.9z"/>
		<path fill="#03283C" d="M533.3,224h9.9c2.1,0,3.1,1.1,3.1,3.4c0,2.3-1,3.4-3.1,3.4h-9.9v9.8c0,2.1-1.3,3.1-3.9,3.1s-3.9-1-3.9-3.1
			v-30.4c0-2.7,1.2-3.9,3.9-3.9h15c2.1,0,3.1,1.1,3.1,3.4c0,2.3-1,3.5-3.1,3.5h-11.2V224H533.3z"/>
		<path fill="#03283C" d="M569.7,221c2.1,0,3.1,1.1,3.1,3.4c0,2.3-1,3.4-3.1,3.4h-10.3v8.9h13c2.1,0,3.1,1.1,3.1,3.4
			c0,2.3-1,3.4-3.1,3.4h-16.5c-2.7,0-3.9-1.2-3.9-3.9v-29.3c0-2.7,1.2-3.9,3.9-3.9H572c2.1,0,3.1,1.1,3.1,3.4c0,2.3-1,3.4-3.1,3.4
			h-12.6v7.9L569.7,221L569.7,221z"/>
		<path fill="#03283C" d="M607.4,241.6c0,1.3-0.9,2.1-3.6,2.1c-3.3,0-4.2-1.1-5.8-3.4l-6.2-9.2c-0.8,0.1-1.5,0.1-2.3,0.1
			c-0.9,0-1.5-0.1-1.9-0.1v9.5c0,2.1-1.2,3.1-3.7,3.1s-3.8-1-3.8-3.1v-28.8c0-2.1,0.1-4.2,3.3-5.1c1.7-0.5,4.6-0.7,7-0.7
			c9.6,0,15.4,4.4,15.4,12.1c0,5.1-2.5,8.9-6.7,11.1l5.7,7.9C606.8,239.6,607.4,240.5,607.4,241.6z M589.8,224.9
			c5.4,0,8.3-2.3,8.3-6.3s-2.9-6.1-7.7-6.1c-1,0-1.9,0.1-2.8,0.3v11.9C588.2,224.8,589,224.9,589.8,224.9z"/>
		<path fill="#03283C" d="M629.7,221c2.1,0,3.1,1.1,3.1,3.4c0,2.3-1,3.4-3.1,3.4h-10.3v8.9h13c2.1,0,3.1,1.1,3.1,3.4
			c0,2.3-1,3.4-3.1,3.4h-16.5c-2.7,0-3.9-1.2-3.9-3.9v-29.3c0-2.7,1.2-3.9,3.9-3.9H632c2.1,0,3.1,1.1,3.1,3.4c0,2.3-1,3.4-3.1,3.4
			h-12.6v7.9L629.7,221L629.7,221z"/>
		<path fill="#03283C" d="M647.4,240.6c0,2.1-1.1,3.1-3.5,3.1s-3.6-1-3.6-3.1v-30.4c0-2.8,1.7-4.2,5-4.2s5,1.3,6.2,3.4l13.6,23.7
			v-24c0-2.1,1.2-3.1,3.6-3.1c2.4,0,3.6,1,3.6,3.1v30.4c0,2.8-1.6,4.2-4.7,4.2c-3,0-4.4-1.1-5.8-3.5l-14.3-24.1L647.4,240.6
			L647.4,240.6z"/>
		<path fill="#03283C" d="M695.8,237.2c2.2,0,3.9-0.5,5.6-1.5c1.2-0.7,1.9-1.3,2.8-1.3c1.7,0,3.3,2.1,3.3,3.6c0,1.4-1.1,2.6-3,3.6
			c-2.4,1.5-5.6,2.3-9.2,2.3c-10.1,0-17.7-7.1-17.7-19.3c0-12.1,7.5-19,17.7-19c3.5,0,6.6,0.8,9.2,2.3c1.8,1,3,2.3,3,3.6
			c0,1.7-1.7,3.8-3.5,3.8c-0.9,0-1.6-0.6-2.7-1.3c-1.5-1-3.6-1.5-5.7-1.5c-5.5,0-10,3.8-10,12.1
			C685.6,233.1,690.1,237.2,695.8,237.2z"/>
		<path fill="#03283C" d="M729.9,221c2.1,0,3.1,1.1,3.1,3.4c0,2.3-1,3.4-3.1,3.4h-10.3v8.9h13c2.1,0,3.1,1.1,3.1,3.4
			c0,2.3-1,3.4-3.1,3.4h-16.5c-2.7,0-3.9-1.2-3.9-3.9v-29.3c0-2.7,1.2-3.9,3.9-3.9h16.1c2.1,0,3.1,1.1,3.1,3.4c0,2.3-1,3.4-3.1,3.4
			h-12.6v7.9L729.9,221L729.9,221z"/>
	</g>
	<g enable-background="new    ">
		<path fill="#03283C" d="M63.5,292.3H71c1.6,0,2.3,1.1,2.3,3.4s-0.8,3.4-2.3,3.4h-7.5v9.8c0,2.1-1,3.1-2.9,3.1s-2.9-1-2.9-3.1
			v-30.4c0-2.7,0.9-3.9,2.9-3.9H72c1.6,0,2.3,1.1,2.3,3.4s-0.8,3.5-2.3,3.5h-8.5V292.3z"/>
		<path fill="#03283C" d="M98.4,310c0,1.3-0.7,2.1-2.7,2.1c-2.5,0-3.2-1.1-4.4-3.4l-4.7-9.2c-0.6,0.1-1.2,0.1-1.8,0.1
			c-0.6,0-1.2-0.1-1.5-0.1v9.5c0,2.1-0.9,3.1-2.8,3.1s-2.9-1-2.9-3.1v-28.8c0-2.1,0-4.2,2.5-5.1c1.3-0.5,3.5-0.7,5.3-0.7
			c7.3,0,11.7,4.4,11.7,12.1c0,5.1-1.9,8.9-5.1,11.1l4.3,7.9C97.9,308,98.4,308.9,98.4,310z M85,293.2c4.1,0,6.3-2.3,6.3-6.3
			s-2.2-6.1-5.8-6.1c-0.7,0-1.5,0.1-2.2,0.3V293C83.8,293.2,84.4,293.2,85,293.2z"/>
		<path fill="#03283C" d="M115.3,289.4c1.6,0,2.3,1.1,2.3,3.4s-0.8,3.4-2.3,3.4h-7.8v8.9h9.9c1.6,0,2.3,1.1,2.3,3.4
			s-0.8,3.4-2.3,3.4h-12.5c-2,0-2.9-1.2-2.9-3.9v-29.3c0-2.7,0.9-3.9,2.9-3.9h12.3c1.6,0,2.3,1.1,2.3,3.4s-0.8,3.4-2.3,3.4h-9.6v7.9
			L115.3,289.4L115.3,289.4z"/>
		<path fill="#03283C" d="M131.2,312.2c-1.7,0-3.9-0.2-5.3-0.7c-2.5-0.9-2.5-3-2.5-5.1v-26.2c0-2.1,0-4.2,2.5-5.1
			c1.3-0.5,3.6-0.7,5.5-0.7c9.9,0,15.3,7,15.3,18.8C146.7,305.1,141,312.2,131.2,312.2z M131.5,305.4c6,0,9.1-4.6,9.1-12.1
			c0-7.7-3.2-12.2-9.1-12.2c-0.7,0-1.5,0.1-2.3,0.2v23.9C130,305.4,130.8,305.4,131.5,305.4z"/>
		<path fill="#03283C" d="M164.2,289.4c1.6,0,2.3,1.1,2.3,3.4s-0.8,3.4-2.3,3.4h-7.8v8.9h9.9c1.6,0,2.3,1.1,2.3,3.4
			s-0.8,3.4-2.3,3.4h-12.5c-2,0-2.9-1.2-2.9-3.9v-29.3c0-2.7,0.9-3.9,2.9-3.9H166c1.6,0,2.3,1.1,2.3,3.4s-0.8,3.4-2.3,3.4h-9.6v7.9
			L164.2,289.4L164.2,289.4z"/>
		<path fill="#03283C" d="M192.9,310c0,1.3-0.7,2.1-2.7,2.1c-2.5,0-3.2-1.1-4.4-3.4l-4.7-9.2c-0.6,0.1-1.2,0.1-1.8,0.1
			s-1.2-0.1-1.5-0.1v9.5c0,2.1-0.9,3.1-2.8,3.1c-1.9,0-2.9-1-2.9-3.1v-28.8c0-2.1,0-4.2,2.5-5.1c1.3-0.5,3.5-0.7,5.3-0.7
			c7.3,0,11.7,4.4,11.7,12.1c0,5.1-1.9,8.9-5.1,11.1l4.3,7.9C192.4,308,192.9,308.9,192.9,310z M179.5,293.2c4.1,0,6.3-2.3,6.3-6.3
			s-2.2-6.1-5.8-6.1c-0.7,0-1.5,0.1-2.2,0.3V293C178.3,293.2,178.9,293.2,179.5,293.2z"/>
		<path fill="#03283C" d="M202.3,309c0,2.1-1,3.1-2.9,3.1s-2.9-1-2.9-3.1v-31.5c0-2.1,1-3.1,2.9-3.1s2.9,1,2.9,3.1V309z"/>
		<path fill="#03283C" d="M220.2,305.5c1.6,0,3-0.5,4.2-1.5c0.9-0.7,1.5-1.3,2.1-1.3c1.3,0,2.5,2.1,2.5,3.6c0,1.4-0.9,2.6-2.3,3.6
			c-1.9,1.5-4.3,2.3-7,2.3c-7.7,0-13.5-7.1-13.5-19.3c0-12.2,5.7-19,13.4-19c2.7,0,5,0.8,7,2.3c1.4,1,2.3,2.3,2.3,3.6
			c0,1.7-1.3,3.8-2.6,3.8c-0.6,0-1.2-0.6-2.1-1.3c-1.2-1-2.7-1.5-4.3-1.5c-4.2,0-7.6,3.8-7.6,12.1
			C212.5,301.4,215.9,305.5,220.2,305.5z"/>
		<path fill="#03283C" d="M245.1,309c0,2.1-1,3.1-2.9,3.1c-2,0-2.9-1-2.9-3.1v-27.3h-6c-1.6,0-2.3-1.1-2.3-3.4s0.8-3.5,2.3-3.5h17.8
			c1.6,0,2.3,1.1,2.3,3.4s-0.8,3.5-2.3,3.5h-6L245.1,309L245.1,309z"/>
		<path fill="#03283C" d="M268.2,274c8.4,0,13.8,7.4,13.8,19.2s-5.4,19.2-13.8,19.2s-13.8-7.4-13.8-19.2
			C254.3,281.4,259.8,274,268.2,274z M268.2,305.7c4.7,0,7.8-4.6,7.8-12.5c0-7.9-3.1-12.5-7.8-12.5c-4.6,0-7.8,4.6-7.8,12.5
			C260.4,301.1,263.5,305.7,268.2,305.7z"/>
		<path fill="#03283C" d="M291.5,309c0,2.1-0.9,3.1-2.7,3.1c-1.8,0-2.7-1-2.7-3.1v-30.4c0-2.8,1.3-4.2,3.8-4.2s3.8,1.3,4.7,3.4
			l10.3,23.7v-24c0-2.1,0.9-3.1,2.7-3.1c1.8,0,2.7,1,2.7,3.1v30.4c0,2.8-1.2,4.2-3.6,4.2c-2.3,0-3.4-1.1-4.4-3.5l-10.9-24.1V309
			H291.5z"/>
		<path fill="#03283C" d="M336.7,305.5c1.6,0,3-0.5,4.2-1.5c0.9-0.7,1.5-1.3,2.1-1.3c1.3,0,2.5,2.1,2.5,3.6c0,1.4-0.9,2.6-2.3,3.6
			c-1.9,1.5-4.3,2.3-7,2.3c-7.7,0-13.5-7.1-13.5-19.3c0-12.2,5.7-19,13.4-19c2.7,0,5,0.8,7,2.3c1.4,1,2.3,2.3,2.3,3.6
			c0,1.7-1.3,3.8-2.6,3.8c-0.6,0-1.2-0.6-2.1-1.3c-1.2-1-2.7-1.5-4.3-1.5c-4.2,0-7.6,3.8-7.6,12.1
			C328.9,301.4,332.3,305.5,336.7,305.5z"/>
		<path fill="#03283C" d="M361,274c8.4,0,13.8,7.4,13.8,19.2s-5.4,19.2-13.8,19.2s-13.8-7.4-13.8-19.2
			C347.2,281.4,352.6,274,361,274z M361,305.7c4.7,0,7.8-4.6,7.8-12.5c0-7.9-3.1-12.5-7.8-12.5c-4.6,0-7.8,4.6-7.8,12.5
			S356.4,305.7,361,305.7z"/>
		<path fill="#03283C" d="M384.4,309c0,2.1-0.9,3.1-2.7,3.1c-1.8,0-2.7-1-2.7-3.1v-30.4c0-2.8,1.3-4.2,3.8-4.2s3.8,1.3,4.7,3.4
			l10.4,23.7v-24c0-2.1,0.9-3.1,2.7-3.1c1.8,0,2.7,1,2.7,3.1v30.4c0,2.8-1.2,4.2-3.6,4.2c-2.3,0-3.4-1.1-4.4-3.5l-10.9-24.1V309z"/>
		<path fill="#03283C" d="M426.4,277.1c0.4-1.8,1.2-2.7,3.3-2.7c2,0,2.7,0.9,2.7,2.2c0,0.7-0.2,1.5-0.5,2.6l-8.2,29.3
			c-0.7,2.5-1.6,3.6-4.1,3.6c-2.4,0-3.4-1.1-4.1-3.6l-8.1-29.3c-0.3-1.1-0.5-1.9-0.5-2.6c0-1.3,0.7-2.2,2.8-2.2
			c2.2,0,2.9,0.9,3.4,2.7l6.7,25.8L426.4,277.1z"/>
		<path fill="#03283C" d="M449.4,289.4c1.6,0,2.3,1.1,2.3,3.4s-0.8,3.4-2.3,3.4h-7.8v8.9h9.9c1.6,0,2.3,1.1,2.3,3.4
			s-0.8,3.4-2.3,3.4H439c-2,0-2.9-1.2-2.9-3.9v-29.3c0-2.7,0.9-3.9,2.9-3.9h12.3c1.6,0,2.3,1.1,2.3,3.4s-0.8,3.4-2.3,3.4h-9.6v7.9
			L449.4,289.4L449.4,289.4z"/>
		<path fill="#03283C" d="M462.8,309c0,2.1-0.9,3.1-2.7,3.1c-1.8,0-2.7-1-2.7-3.1v-30.4c0-2.8,1.3-4.2,3.8-4.2s3.8,1.3,4.7,3.4
			l10.3,23.7v-24c0-2.1,0.9-3.1,2.7-3.1c1.8,0,2.7,1,2.7,3.1v30.4c0,2.8-1.2,4.2-3.6,4.2c-2.3,0-3.4-1.1-4.4-3.5l-10.9-24.1V309
			H462.8z"/>
		<path fill="#03283C" d="M499.3,309c0,2.1-1,3.1-2.9,3.1s-2.9-1-2.9-3.1v-27.3h-6c-1.6,0-2.3-1.1-2.3-3.4s0.8-3.5,2.3-3.5h17.8
			c1.6,0,2.3,1.1,2.3,3.4s-0.8,3.5-2.3,3.5h-6V309z"/>
		<path fill="#03283C" d="M516.9,309c0,2.1-1,3.1-2.9,3.1s-2.9-1-2.9-3.1v-31.5c0-2.1,1-3.1,2.9-3.1s2.9,1,2.9,3.1V309z"/>
		<path fill="#03283C" d="M534.8,274c8.4,0,13.8,7.4,13.8,19.2s-5.4,19.2-13.8,19.2c-8.4,0-13.8-7.4-13.8-19.2
			C521,281.4,526.5,274,534.8,274z M534.8,305.7c4.7,0,7.8-4.6,7.8-12.5c0-7.9-3.1-12.5-7.8-12.5c-4.6,0-7.8,4.6-7.8,12.5
			C527.1,301.1,530.2,305.7,534.8,305.7z"/>
		<path fill="#03283C" d="M558.2,309c0,2.1-0.9,3.1-2.7,3.1s-2.7-1-2.7-3.1v-30.4c0-2.8,1.3-4.2,3.8-4.2s3.8,1.3,4.7,3.4l10.3,23.7
			v-24c0-2.1,0.9-3.1,2.7-3.1s2.7,1,2.7,3.1v30.4c0,2.8-1.2,4.2-3.6,4.2c-2.3,0-3.4-1.1-4.4-3.5l-10.9-24.1V309H558.2z"/>
		<path fill="#03283C" d="M603.3,305.5c1.6,0,3-0.5,4.2-1.5c0.9-0.7,1.5-1.3,2.1-1.3c1.3,0,2.5,2.1,2.5,3.6c0,1.4-0.9,2.6-2.3,3.6
			c-1.9,1.5-4.3,2.3-7,2.3c-7.7,0-13.5-7.1-13.5-19.3c0-12.2,5.7-19,13.4-19c2.7,0,5,0.8,7,2.3c1.4,1,2.3,2.3,2.3,3.6
			c0,1.7-1.3,3.8-2.6,3.8c-0.6,0-1.2-0.6-2.1-1.3c-1.2-1-2.7-1.5-4.3-1.5c-4.2,0-7.6,3.8-7.6,12.1
			C595.6,301.4,599,305.5,603.3,305.5z"/>
		<path fill="#03283C" d="M629.2,289.4c1.6,0,2.3,1.1,2.3,3.4s-0.8,3.4-2.3,3.4h-7.8v8.9h9.9c1.6,0,2.3,1.1,2.3,3.4
			s-0.8,3.4-2.3,3.4h-12.5c-2,0-2.9-1.2-2.9-3.9v-29.3c0-2.7,0.9-3.9,2.9-3.9H631c1.6,0,2.3,1.1,2.3,3.4s-0.8,3.4-2.3,3.4h-9.6v7.9
			L629.2,289.4L629.2,289.4z"/>
		<path fill="#03283C" d="M642.6,309c0,2.1-0.9,3.1-2.7,3.1s-2.7-1-2.7-3.1v-30.4c0-2.8,1.3-4.2,3.8-4.2s3.8,1.3,4.7,3.4l10.3,23.7
			v-24c0-2.1,0.9-3.1,2.7-3.1s2.7,1,2.7,3.1v30.4c0,2.8-1.2,4.2-3.6,4.2c-2.3,0-3.4-1.1-4.4-3.5l-10.9-24.1V309H642.6z"/>
		<path fill="#03283C" d="M679.1,309c0,2.1-1,3.1-2.9,3.1s-2.9-1-2.9-3.1v-27.3h-6c-1.6,0-2.3-1.1-2.3-3.4s0.8-3.5,2.3-3.5h17.8
			c1.6,0,2.3,1.1,2.3,3.4s-0.8,3.5-2.3,3.5h-6L679.1,309L679.1,309z"/>
		<path fill="#03283C" d="M711.5,310c0,1.3-0.7,2.1-2.7,2.1c-2.5,0-3.2-1.1-4.4-3.4l-4.7-9.2c-0.6,0.1-1.2,0.1-1.8,0.1
			s-1.2-0.1-1.5-0.1v9.5c0,2.1-0.9,3.1-2.8,3.1s-2.9-1-2.9-3.1v-28.8c0-2.1,0-4.2,2.5-5.1c1.3-0.5,3.5-0.7,5.3-0.7
			c7.3,0,11.7,4.4,11.7,12.1c0,5.1-1.9,8.9-5.1,11.1l4.3,7.9C711,308,711.5,308.9,711.5,310z M698.1,293.2c4.1,0,6.3-2.3,6.3-6.3
			s-2.2-6.1-5.8-6.1c-0.7,0-1.5,0.1-2.2,0.3V293C696.9,293.2,697.5,293.2,698.1,293.2z"/>
		<path fill="#03283C" d="M728.5,289.4c1.6,0,2.3,1.1,2.3,3.4s-0.8,3.4-2.3,3.4h-7.8v8.9h9.9c1.6,0,2.3,1.1,2.3,3.4
			s-0.8,3.4-2.3,3.4H718c-2,0-2.9-1.2-2.9-3.9v-29.3c0-2.7,0.9-3.9,2.9-3.9h12.3c1.6,0,2.3,1.1,2.3,3.4s-0.8,3.4-2.3,3.4h-9.6v7.9
			L728.5,289.4L728.5,289.4z"/>
	</g>
	<g enable-background="new    ">
		<path fill="#43679B" d="M207.3,367.7c0-2.1,1.3-3.1,3.9-3.1s3.9,1,3.9,3.1v21.6c0,3.1-0.6,5.7-1.8,7.7c-2,3.5-6,5.4-10.4,5.4
			c-2.7,0-5.2-0.7-6.6-1.6c-1.2-0.7-1.8-1.5-1.8-2.7c0-1.5,1.1-3.9,3-3.9c0.6,0,1.2,0.2,1.9,0.6c1,0.5,2.1,0.8,3.2,0.8
			c2,0,3.4-1,4.2-2.9c0.3-0.9,0.5-2,0.5-3.3L207.3,367.7L207.3,367.7z"/>
		<path fill="#43679B" d="M243.3,391.8c0.5-1.1,0.6-2.5,0.6-4v-20.1c0-2.1,1.2-3.1,3.6-3.1c2.5,0,3.7,1,3.7,3.1v20.1
			c0,2.8-0.4,5.3-1.3,7.4c-2.3,5.4-7.2,7.5-13.4,7.5c-6.6,0-11.1-2.3-13.3-7.5c-0.9-2-1.3-4.4-1.3-7.3v-20.1c0-2.1,1.3-3.1,3.9-3.1
			s3.9,1,3.9,3.1v20.1c0,1.5,0.2,2.8,0.6,4c1.1,2.8,3.3,4.1,6.5,4.1C240.4,395.9,242.3,394.4,243.3,391.8z"/>
		<path fill="#43679B" d="M265.2,399.2c0,2.1-1.1,3.1-3.5,3.1s-3.6-1-3.6-3.1v-30.4c0-2.8,1.7-4.2,5-4.2s5,1.3,6.2,3.4l13.6,23.7
			v-24c0-2.1,1.2-3.1,3.6-3.1s3.6,1,3.6,3.1v30.4c0,2.8-1.6,4.2-4.7,4.2c-3,0-4.4-1.1-5.8-3.5l-14.3-24.1v24.5H265.2z"/>
		<path fill="#43679B" d="M314.6,379.6c2.1,0,3.1,1.1,3.1,3.4s-1,3.4-3.1,3.4h-10.3v8.9h13c2.1,0,3.1,1.1,3.1,3.4s-1,3.4-3.1,3.4
			h-16.5c-2.7,0-3.9-1.2-3.9-3.9v-29.3c0-2.7,1.2-3.9,3.9-3.9h16.1c2.1,0,3.1,1.1,3.1,3.4s-1,3.4-3.1,3.4h-12.6v7.9L314.6,379.6
			L314.6,379.6z"/>
		<path fill="#43679B" d="M338.6,383.4c-0.7,0.5-1.5,0.7-2.3,0.7c-1.9,0-3-2-3-3.6c0-1.6,1.1-2.3,2.6-3.1l5.9-2.9
			c1.8-0.9,3.1-1.4,4.7-1.4c3.3,0,3.3,2.4,3.3,3.8v22.3c0,2.1-1.3,3.1-3.8,3.1s-3.8-1-3.8-3.1v-17.6L338.6,383.4z"/>
		<path fill="#43679B" d="M363.3,386.3c4.1-0.2,5.9-1.3,5.9-3.5c0-1.9-1.4-3.2-4.2-3.2c-1.6,0-3.4,0.6-4.5,1.3
			c-0.9,0.6-1.5,0.9-2.2,0.9c-1.7,0-3.1-2-3.1-3.5c0-1.2,0.9-2.2,2.3-3c2.1-1.3,5-2.1,8.3-2.1c6.8,0,11.1,3.4,11.1,8.5
			c0,3.5-2.2,6.1-6.1,7.1c4.4,0.9,7,4,7,8c0,5.9-5.3,10-12.4,10c-3.5,0-6.3-1-8.1-2.3c-1.3-0.9-2.2-1.8-2.2-3c0-1.5,1.5-3.8,3.2-3.8
			c0.7,0,1.3,0.4,2.2,0.9c1.7,1.1,3.2,1.6,4.8,1.6c2.9,0,4.8-1.4,4.8-3.7c0-1.5-0.9-2.8-3.2-3.5c-0.9-0.2-2.1-0.3-3.9-0.3
			s-3.5,0-3.5-3.1C359.5,386.5,361.3,386.3,363.3,386.3z"/>
		<path fill="#43679B" d="M404.6,384.3c2.1,0,3.1,1.1,3.1,3.4s-1,3.4-3.1,3.4h-8.8c-2.1,0-3.1-1.1-3.1-3.4s1-3.4,3.1-3.4H404.6z"/>
		<path fill="#43679B" d="M426.5,383.4c-0.7,0.5-1.5,0.7-2.3,0.7c-1.9,0-3-2-3-3.6c0-1.6,1.1-2.3,2.6-3.1l5.9-2.9
			c1.8-0.9,3.1-1.4,4.7-1.4c3.3,0,3.3,2.4,3.3,3.8v22.3c0,2.1-1.3,3.1-3.8,3.1c-2.6,0-3.8-1-3.8-3.1v-17.6L426.5,383.4z"/>
		<path fill="#43679B" d="M468.3,391.4c0,6.3-4.7,11.1-12.2,11.1c-3.9,0-6.9-1.3-9-3.3c-2.3-2.4-3.4-5.8-3.4-10.1
			c0-8.3,4.3-14.8,10.5-18.6c3.5-2.1,7.2-3.1,8.9-3.1c2.5,0,3.1,2.1,3.1,3.4c0,2.2-1.7,2.5-3.2,3c-6.2,1.9-9.8,5.1-11.3,9.6
			c1.7-1.4,3.8-2.2,6.4-2.2C464.1,381.2,468.3,385.4,468.3,391.4z M461,391.6c0-2.8-1.9-4.8-5.2-4.8c-1.8,0-3.5,0.6-5,1.8v0.6
			c0,2.6,0.4,4.3,1.4,5.5c0.9,1.2,2.3,1.8,3.9,1.8C459,396.4,461,394.5,461,391.6z"/>
		<path fill="#43679B" d="M479.1,397.8c0,1.1-0.8,5-2.5,8.9c-0.8,1.8-1.7,3.1-4.1,3.1c-2.3,0-3-1.1-3-2.5c0-0.7,0.2-1.3,0.3-1.9
			l1.7-6.5c0.5-1.8,0.9-3.5,4.2-3.5C478.1,395.4,479.1,396.4,479.1,397.8z"/>
		<path fill="#43679B" d="M502.1,395.4h10.3c2.1,0,3.1,1.1,3.1,3.2c0,2.2-1,3.3-3.1,3.3h-15.5c-2.2,0-3.4-1.2-3.4-3.6
			c0-2.1,0.7-3.1,2.3-4.4c6.8-5.3,11.5-7.2,11.5-11.1c0-1.8-1.3-3.4-4.3-3.4c-1.6,0-3.1,0.5-4.4,1.3c-1,0.5-1.5,0.9-2.2,0.9
			c-1.8,0-3.2-2.1-3.2-3.6c0-1.1,1-2.2,2.3-3c2.2-1.3,5.2-2.1,8.1-2.1c5.8,0,10.9,2.7,10.9,9.1C514.5,389.1,508.1,391.9,502.1,395.4
			z"/>
		<path fill="#43679B" d="M532.5,372.9c8.1,0,13,5.6,13,14.8c0,9.2-4.8,14.8-13,14.8c-8.1,0-13-5.6-13-14.8
			C519.5,378.5,524.4,372.9,532.5,372.9z M532.5,396.1c3.4,0,5.5-3.1,5.5-8.3c0-5.2-2.1-8.3-5.5-8.3s-5.4,3.1-5.4,8.3
			C527.1,393,529.1,396.1,532.5,396.1z"/>
		<path fill="#43679B" d="M553.6,383.4c-0.7,0.5-1.5,0.7-2.3,0.7c-1.9,0-3-2-3-3.6c0-1.6,1.1-2.3,2.6-3.1l5.9-2.9
			c1.8-0.9,3.1-1.4,4.7-1.4c3.3,0,3.3,2.4,3.3,3.8v22.3c0,2.1-1.3,3.1-3.8,3.1c-2.6,0-3.8-1-3.8-3.1v-17.6L553.6,383.4z"/>
		<path fill="#43679B" d="M583.4,367.4c7.4,0,11.5,3.8,11.5,8.9c0,4-2.5,6.5-5.4,7.7c3.4,1,6.5,4.1,6.5,8.6c0,5.1-4,9.9-12.8,9.9
			c-8.6,0-12.6-4.6-12.6-9.6c0-4.6,3.1-7.6,6.4-8.5c-2.8-1.2-5.3-3.9-5.3-7.8C571.7,371.4,575.9,367.4,583.4,367.4z M583.3,396.5
			c3.1,0,5.1-2.1,5.1-4.7c0-2.8-2.1-4.7-5.1-4.7s-5.1,1.9-5.1,4.7C578.3,394.5,580.2,396.5,583.3,396.5z M583.3,381.4
			c2.5,0,4.2-1.7,4.2-4c0-2.2-1.7-3.9-4.2-3.9c-2.6,0-4.3,1.7-4.3,3.9C579.1,379.8,580.8,381.4,583.3,381.4z"/>
	</g>
</g>
</svg>
