<?xml version="1.0" encoding="utf-8"?>
<!-- Generator: Adobe Illustrator 18.0.0, SVG Export Plug-In . SVG Version: 6.00 Build 0)  -->
<!DOCTYPE svg PUBLIC "-//W3C//DTD SVG 1.1//EN" "http://www.w3.org/Graphics/SVG/1.1/DTD/svg11.dtd">
<svg version="1.1" id="Layer_1" xmlns="http://www.w3.org/2000/svg" xmlns:xlink="http://www.w3.org/1999/xlink" x="0px" y="0px"
	 viewBox="45.7 187.6 745 230" enable-background="new 45.7 187.6 745 230" xml:space="preserve">
<g>
	<g enable-background="new    ">
		<path fill="#03283C" d="M67.8,230c2.2,0,3.9-0.5,5.6-1.5c1.2-0.7,1.9-1.3,2.8-1.3c1.7,0,3.3,2.1,3.3,3.6c0,1.4-1.1,2.6-3,3.6
			c-2.5,1.5-5.6,2.3-9.2,2.3c-10.1,0-17.7-7.1-17.7-19.3c0-12.1,7.5-19,17.7-19c3.5,0,6.6,0.8,9.2,2.3c1.8,1,3,2.3,3,3.6
			c0,1.7-1.7,3.8-3.5,3.8c-0.9,0-1.6-0.6-2.7-1.3c-1.5-1-3.6-1.5-5.7-1.5c-5.5,0-10,3.8-10,12.1C57.6,225.9,62.1,230,67.8,230z"/>
		<path fill="#03283C" d="M99.8,198.5c11.1,0,18.2,7.4,18.2,19.2s-7.1,19.2-18.2,19.2c-11,0-18.2-7.4-18.2-19.2
			C81.6,205.9,88.8,198.5,99.8,198.5z M99.8,230.2c6.2,0,10.3-4.6,10.3-12.5s-4.1-12.5-10.3-12.5c-6.1,0-10.2,4.6-10.2,12.5
			C89.6,225.6,93.7,230.2,99.8,230.2z"/>
		<path fill="#03283C" d="M130.6,233.5c0,2.1-1.1,3.1-3.5,3.1c-2.4,0-3.6-1-3.6-3.1v-30.4c0-2.8,1.7-4.2,5-4.2c3.3,0,5,1.3,6.2,3.4
			l13.6,23.7v-24c0-2.1,1.2-3.1,3.6-3.1s3.6,1,3.6,3.1v30.4c0,2.8-1.6,4.2-4.7,4.2c-3,0-4.4-1.1-5.8-3.5L130.7,209v24.5H130.6z"/>
		<path fill="#03283C" d="M179.9,222.4c-2.1,0-3.1-1.1-3.1-3.4c0-2.3,1-3.4,3.1-3.4h8.3c2.7,0,3.9,1.2,3.9,3.9v10.8
			c0,2.3-0.7,3.6-3.2,4.7c-2.2,1-5.9,1.7-9.3,1.7c-10.6,0-18.7-6.6-18.7-19s7.9-19.1,18.4-19.1c3.5,0,6.8,0.7,9.5,2.3
			c1.9,1.1,3,2.3,3,3.6c0,1.7-1.7,3.7-3.4,3.7c-0.9,0-1.7-0.6-2.8-1.3c-1.8-1-3.8-1.5-6.1-1.5c-6.3,0-10.5,4-10.5,12.1
			c0,8.2,4.5,12.4,11,12.4c1.7,0,3.4-0.3,4.9-0.7v-6.8H179.9z"/>
		<path fill="#03283C" d="M225.5,234.5c0,1.3-0.9,2.1-3.6,2.1c-3.3,0-4.2-1.1-5.8-3.4l-6.2-9.2c-0.8,0.1-1.5,0.1-2.3,0.1
			c-0.9,0-1.5-0.1-1.9-0.1v9.5c0,2.1-1.2,3.1-3.7,3.1s-3.8-1-3.8-3.1v-28.8c0-2.1,0.1-4.2,3.3-5.1c1.7-0.5,4.6-0.7,7-0.7
			c9.6,0,15.4,4.4,15.4,12.1c0,5.1-2.5,8.9-6.7,11.1l5.7,7.9C224.8,232.5,225.5,233.4,225.5,234.5z M207.9,217.7
			c5.4,0,8.3-2.3,8.3-6.3s-2.9-6.1-7.7-6.1c-1,0-1.9,0.1-2.8,0.3v11.9C206.3,217.7,207.1,217.7,207.9,217.7z"/>
		<path fill="#03283C" d="M247.8,213.9c2.1,0,3.1,1.1,3.1,3.4c0,2.3-1,3.4-3.1,3.4h-10.3v8.9h13c2.1,0,3.1,1.1,3.1,3.4
			c0,2.3-1,3.4-3.1,3.4H234c-2.7,0-3.9-1.2-3.9-3.9v-29.3c0-2.7,1.2-3.9,3.9-3.9h16.1c2.1,0,3.1,1.1,3.1,3.4c0,2.3-1,3.4-3.1,3.4
			h-12.6v7.9L247.8,213.9L247.8,213.9z M238,187.6c1,0,1.8,0.4,2.8,1l3.3,2.1c1.3,0.8,2.3,1.5,2.3,2.9c0,1.5-1,3.2-3,3.2
			c-1,0-2.1-0.5-4.3-1.5c-3.4-1.7-4.5-2.6-4.5-4S235.7,187.6,238,187.6z"/>
		<path fill="#03283C" d="M256.9,209.3c0-6.4,5.2-10.7,12.7-10.7c3.2,0,6.8,0.9,9.2,2.4c1.5,1,2.1,1.8,2.1,3c0,1.7-1.5,3.9-3.2,3.9
			c-0.6,0-1.2-0.3-2.4-1c-1.9-1-3.6-1.7-5.7-1.7c-3.2,0-5,1.6-5,3.6c0,5.8,17.1,4.7,17.1,16.8c0,7-5.6,11.2-13.2,11.2
			c-3.6,0-6.9-0.9-9.8-2.8c-1.4-1-2.2-1.9-2.2-3.1c0-1.8,1.7-3.9,3.3-3.9c0.8,0,1.4,0.4,2.6,1.1c1.8,1.1,3.6,2.1,6.2,2.1
			c3.2,0,5.5-1.6,5.5-4C274.1,219.6,256.9,220.9,256.9,209.3z"/>
		<path fill="#03283C" d="M329.1,234.4c0,1.3-0.9,2.2-3.6,2.2c-2.6,0-3.7-0.7-4.3-2.7l-2-5.9h-14l-2,5.9c-0.6,1.8-1.6,2.7-4.2,2.7
			s-3.5-0.9-3.5-2.2c0-0.7,0.2-1.5,0.6-2.6l10.7-28.8c1.1-2.9,2.1-4,5.5-4c3.5,0,4.6,1.2,5.6,4l10.5,28.8
			C328.9,232.9,329.1,233.7,329.1,234.4z M316.9,221.4l-4.8-14l-4.7,14H316.9z"/>
		<path fill="#03283C" d="M340.8,233.5c0,2.1-1.1,3.1-3.5,3.1s-3.6-1-3.6-3.1v-30.4c0-2.8,1.7-4.2,5-4.2s5,1.3,6.2,3.4l13.6,23.7
			v-24c0-2.1,1.2-3.1,3.6-3.1s3.6,1,3.6,3.1v30.4c0,2.8-1.6,4.2-4.7,4.2c-3,0-4.4-1.1-5.8-3.5L340.9,209v24.5H340.8z"/>
		<path fill="#03283C" d="M379.6,233.5c0,2.1-1.1,3.1-3.5,3.1s-3.6-1-3.6-3.1v-30.4c0-2.8,1.7-4.2,5-4.2s5,1.3,6.2,3.4l13.6,23.7
			v-24c0-2.1,1.2-3.1,3.6-3.1s3.6,1,3.6,3.1v30.4c0,2.8-1.6,4.2-4.7,4.2c-3,0-4.4-1.1-5.8-3.5L379.7,209v24.5H379.6z"/>
		<path fill="#03283C" d="M432.6,226.1c0.5-1.1,0.6-2.5,0.6-4V202c0-2.1,1.2-3.1,3.6-3.1c2.5,0,3.7,1,3.7,3.1v20.1
			c0,2.8-0.4,5.3-1.3,7.4c-2.3,5.4-7.2,7.5-13.4,7.5c-6.6,0-11.1-2.3-13.3-7.5c-0.9-2-1.3-4.4-1.3-7.3V202c0-2.1,1.3-3.1,3.9-3.1
			s3.9,1,3.9,3.1v20.1c0,1.5,0.2,2.8,0.6,4c1.1,2.8,3.3,4.1,6.5,4.1C429.7,230.2,431.6,228.7,432.6,226.1z"/>
		<path fill="#03283C" d="M465.1,213.9c2.1,0,3.1,1.1,3.1,3.4c0,2.3-1,3.4-3.1,3.4h-10.3v8.9h13c2.1,0,3.1,1.1,3.1,3.4
			c0,2.3-1,3.4-3.1,3.4h-16.5c-2.7,0-3.9-1.2-3.9-3.9v-29.3c0-2.7,1.2-3.9,3.9-3.9h16.1c2.1,0,3.1,1.1,3.1,3.4c0,2.3-1,3.4-3.1,3.4
			h-12.6v7.9L465.1,213.9L465.1,213.9z"/>
		<path fill="#03283C" d="M494.6,229.4c2.1,0,3.1,1.1,3.1,3.4c0,2.3-1,3.5-3.1,3.5h-15.2c-2.7,0-3.9-1.2-3.9-3.9V202
			c0-2.1,1.3-3.1,3.9-3.1s3.9,1,3.9,3.1v27.3L494.6,229.4L494.6,229.4z"/>
		<path fill="#03283C" d="M523.4,236.6c-2.3,0-5.1-0.2-7-0.7c-3.2-0.9-3.3-3-3.3-5.1v-26.2c0-2.1,0.1-4.2,3.3-5.1
			c1.7-0.5,4.7-0.7,7.2-0.7c13,0,20.2,7,20.2,18.8C543.8,229.6,536.3,236.6,523.4,236.6z M523.9,229.9c7.9,0,12-4.6,12-12.1
			c0-7.7-4.2-12.2-12-12.2c-1,0-2,0.1-3,0.2v23.9C521.9,229.9,522.9,229.9,523.9,229.9z"/>
		<path fill="#03283C" d="M566.9,213.9c2.1,0,3.1,1.1,3.1,3.4c0,2.3-1,3.4-3.1,3.4h-10.3v8.9h13c2.1,0,3.1,1.1,3.1,3.4
			c0,2.3-1,3.4-3.1,3.4h-16.5c-2.7,0-3.9-1.2-3.9-3.9v-29.3c0-2.7,1.2-3.9,3.9-3.9h16.1c2.1,0,3.1,1.1,3.1,3.4c0,2.3-1,3.4-3.1,3.4
			h-12.6v7.9L566.9,213.9L566.9,213.9z"/>
		<path fill="#03283C" d="M607.4,229.4c2.1,0,3.1,1.1,3.1,3.4c0,2.3-1,3.5-3.1,3.5h-15.2c-2.7,0-3.9-1.2-3.9-3.9V202
			c0-2.1,1.3-3.1,3.9-3.1s3.9,1,3.9,3.1v27.3L607.4,229.4L607.4,229.4z"/>
		<path fill="#03283C" d="M646.2,234.4c0,1.3-0.9,2.2-3.6,2.2c-2.6,0-3.7-0.7-4.3-2.7l-2-5.9h-14l-2,5.9c-0.6,1.8-1.6,2.7-4.2,2.7
			c-2.6,0-3.5-0.9-3.5-2.2c0-0.7,0.2-1.5,0.6-2.6l10.7-28.8c1.1-2.9,2.1-4,5.5-4c3.5,0,4.6,1.2,5.6,4l10.5,28.8
			C646,232.9,646.2,233.7,646.2,234.4z M634,221.4l-4.8-14l-4.7,14H634z"/>
		<path fill="#03283C" d="M660.5,209.3c0-6.4,5.2-10.7,12.7-10.7c3.2,0,6.8,0.9,9.2,2.4c1.5,1,2.1,1.8,2.1,3c0,1.7-1.5,3.9-3.2,3.9
			c-0.6,0-1.2-0.3-2.4-1c-1.9-1-3.6-1.7-5.7-1.7c-3.2,0-5,1.6-5,3.6c0,5.8,17.2,4.7,17.2,16.8c0,7-5.6,11.2-13.2,11.2
			c-3.6,0-6.9-0.9-9.8-2.8c-1.4-1-2.2-1.9-2.2-3.1c0-1.8,1.7-3.9,3.3-3.9c0.8,0,1.4,0.4,2.6,1.1c1.8,1.1,3.6,2.1,6.2,2.1
			c3.2,0,5.5-1.6,5.5-4C677.7,219.6,660.5,220.9,660.5,209.3z"/>
		<path fill="#03283C" d="M707,230c2.2,0,3.9-0.5,5.6-1.5c1.2-0.7,1.9-1.3,2.8-1.3c1.7,0,3.3,2.1,3.3,3.6c0,1.4-1.1,2.6-3,3.6
			c-2.5,1.5-5.6,2.3-9.2,2.3c-10.1,0-17.7-7.1-17.7-19.3c0-12.1,7.5-19,17.7-19c3.5,0,6.6,0.8,9.2,2.3c1.8,1,3,2.3,3,3.6
			c0,1.7-1.7,3.8-3.5,3.8c-0.9,0-1.6-0.6-2.7-1.3c-1.5-1-3.6-1.5-5.7-1.5c-5.5,0-10,3.8-10,12.1C696.8,225.9,701.3,230,707,230z"/>
		<path fill="#03283C" d="M740,222.4c-2.1,0-3.1-1.1-3.1-3.4c0-2.3,1-3.4,3.1-3.4h8.3c2.7,0,3.9,1.2,3.9,3.9v10.8
			c0,2.3-0.7,3.6-3.2,4.7c-2.2,1-5.9,1.7-9.3,1.7c-10.6,0-18.7-6.6-18.7-19s7.9-19.1,18.4-19.1c3.5,0,6.8,0.7,9.5,2.3
			c1.9,1.1,3,2.3,3,3.6c0,1.7-1.7,3.7-3.4,3.7c-0.9,0-1.7-0.6-2.8-1.3c-1.8-1-3.8-1.5-6.1-1.5c-6.3,0-10.5,4-10.5,12.1
			c0,8.2,4.5,12.4,11,12.4c1.7,0,3.4-0.3,4.9-0.7v-6.8H740z"/>
		<path fill="#03283C" d="M775.1,230c2.2,0,3.9-0.5,5.6-1.5c1.2-0.7,1.9-1.3,2.8-1.3c1.7,0,3.3,2.1,3.3,3.6c0,1.4-1.1,2.6-3,3.6
			c-2.4,1.5-5.6,2.3-9.2,2.3c-10.1,0-17.7-7.1-17.7-19.3c0-12.1,7.5-19,17.7-19c3.5,0,6.6,0.8,9.2,2.3c1.8,1,3,2.3,3,3.6
			c0,1.7-1.7,3.8-3.5,3.8c-0.9,0-1.6-0.6-2.7-1.3c-1.5-1-3.6-1.5-5.7-1.5c-5.5,0-10,3.8-10,12.1C764.9,225.9,769.4,230,775.1,230z"
			/>
	</g>
	<g enable-background="new    ">
		<path fill="#03283C" d="M58.7,294.1c-1,0-1.9-0.1-2.6-0.3v8c0,2.1-1,3.1-2.9,3.1s-2.9-1-2.9-3.1V273c0-2.1,0-4.2,2.5-5.1
			c1.3-0.5,3.5-0.7,5.3-0.7c7,0,12,4.1,12,13.3C70,290,64.6,294.1,58.7,294.1z M58.2,287.5c3.7,0,5.8-2.5,5.8-6.8
			c0-4.8-2.6-6.8-6-6.8c-0.6,0-1.2,0.1-1.9,0.2v13.1C56.8,287.5,57.5,287.5,58.2,287.5z"/>
		<path fill="#03283C" d="M95.5,302.7c0,1.3-0.7,2.2-2.8,2.2c-1.9,0-2.8-0.7-3.3-2.7l-1.5-5.9H77.4l-1.5,5.9
			c-0.4,1.8-1.2,2.7-3.2,2.7c-1.9,0-2.6-0.9-2.6-2.2c0-0.7,0.2-1.5,0.5-2.6l8.1-28.8c0.8-2.9,1.6-4,4.2-4c2.7,0,3.5,1.2,4.3,4
			l8,28.8C95.4,301.3,95.5,302,95.5,302.7z M86.3,289.8l-3.6-14l-3.6,14H86.3z"/>
		<path fill="#03283C" d="M113.5,297.7c1.6,0,2.3,1.1,2.3,3.4s-0.8,3.5-2.3,3.5H102c-2,0-2.9-1.2-2.9-3.9v-30.4c0-2.1,1-3.1,2.9-3.1
			s2.9,1,2.9,3.1v27.3h8.6V297.7z"/>
		<path fill="#03283C" d="M143,302.7c0,1.3-0.7,2.2-2.8,2.2c-1.9,0-2.8-0.7-3.3-2.7l-1.5-5.9h-10.6l-1.5,5.9
			c-0.4,1.8-1.2,2.7-3.2,2.7c-1.9,0-2.6-0.9-2.6-2.2c0-0.7,0.2-1.5,0.5-2.6l8.1-28.8c0.8-2.9,1.6-4,4.2-4c2.7,0,3.5,1.2,4.3,4
			l8,28.8C142.8,301.3,143,302,143,302.7z M133.7,289.8l-3.6-14l-3.6,14H133.7z"/>
		<path fill="#03283C" d="M152.3,301.8c0,2.1-1,3.1-2.9,3.1s-2.9-1-2.9-3.1v-31.5c0-2.1,1-3.1,2.9-3.1s2.9,1,2.9,3.1V301.8z"/>
		<path fill="#03283C" d="M156.6,277.7c0-6.4,4-10.7,9.7-10.7c2.5,0,5.2,0.9,7,2.4c1.1,1,1.6,1.8,1.6,3c0,1.7-1.1,3.9-2.5,3.9
			c-0.5,0-0.9-0.3-1.8-1c-1.4-1-2.7-1.7-4.3-1.7c-2.4,0-3.8,1.6-3.8,3.6c0,5.8,13,4.7,13,16.8c0,7-4.3,11.2-10,11.2
			c-2.8,0-5.2-0.9-7.4-2.8c-1.1-1-1.6-1.9-1.6-3.1c0-1.8,1.3-3.9,2.5-3.9c0.6,0,1.1,0.4,1.9,1.1c1.4,1.1,2.7,2.1,4.7,2.1
			c2.5,0,4.2-1.6,4.2-4C169.7,287.9,156.6,289.3,156.6,277.7z"/>
		<path fill="#03283C" d="M195.5,305c-1.7,0-3.9-0.2-5.3-0.7c-2.5-0.9-2.5-3-2.5-5.1V273c0-2.1,0-4.2,2.5-5.1
			c1.3-0.5,3.6-0.7,5.5-0.7c9.9,0,15.3,7,15.3,18.8C211,298,205.3,305,195.5,305z M195.9,298.3c6,0,9.1-4.6,9.1-12.1
			c0-7.7-3.2-12.2-9.1-12.2c-0.7,0-1.5,0.1-2.3,0.2v23.9C194.3,298.2,195.1,298.3,195.9,298.3z"/>
		<path fill="#03283C" d="M228.5,282.2c1.6,0,2.3,1.1,2.3,3.4s-0.8,3.4-2.3,3.4h-7.8v8.9h9.9c1.6,0,2.3,1.1,2.3,3.4
			s-0.8,3.4-2.3,3.4h-12.5c-2,0-2.9-1.2-2.9-3.9v-29.3c0-2.7,0.9-3.9,2.9-3.9h12.3c1.6,0,2.3,1.1,2.3,3.4s-0.8,3.4-2.3,3.4h-9.6v7.9
			L228.5,282.2L228.5,282.2z"/>
		<path fill="#03283C" d="M235.5,277.7c0-6.4,4-10.7,9.7-10.7c2.5,0,5.2,0.9,7,2.4c1.1,1,1.6,1.8,1.6,3c0,1.7-1.1,3.9-2.5,3.9
			c-0.5,0-0.9-0.3-1.8-1c-1.4-1-2.7-1.7-4.3-1.7c-2.4,0-3.8,1.6-3.8,3.6c0,5.8,13,4.7,13,16.8c0,7-4.3,11.2-10,11.2
			c-2.8,0-5.2-0.9-7.4-2.8c-1.1-1-1.6-1.9-1.6-3.1c0-1.8,1.3-3.9,2.5-3.9c0.6,0,1.1,0.4,1.9,1.1c1.4,1.1,2.7,2.1,4.7,2.1
			c2.5,0,4.2-1.6,4.2-4C248.5,287.9,235.5,289.3,235.5,277.7z"/>
		<path fill="#03283C" d="M279.2,298.4c1.6,0,3-0.5,4.2-1.5c0.9-0.7,1.5-1.3,2.1-1.3c1.3,0,2.5,2.1,2.5,3.6c0,1.4-0.9,2.6-2.3,3.6
			c-1.9,1.5-4.3,2.3-7,2.3c-7.7,0-13.5-7.1-13.5-19.3c0-12.1,5.7-19,13.4-19c2.7,0,5,0.8,7,2.3c1.4,1,2.3,2.3,2.3,3.6
			c0,1.7-1.3,3.8-2.6,3.8c-0.6,0-1.2-0.6-2.1-1.3c-1.2-1-2.7-1.5-4.3-1.5c-4.2,0-7.6,3.8-7.6,12.1
			C271.5,294.3,274.9,298.4,279.2,298.4z"/>
		<path fill="#03283C" d="M303.6,266.9c8.4,0,13.8,7.4,13.8,19.2s-5.4,19.2-13.8,19.2s-13.8-7.4-13.8-19.2
			C289.8,274.3,295.2,266.9,303.6,266.9z M303.6,298.6c4.7,0,7.8-4.6,7.8-12.5c0-7.9-3.1-12.5-7.8-12.5c-4.6,0-7.8,4.6-7.8,12.5
			C295.8,294,298.9,298.6,303.6,298.6z"/>
		<path fill="#03283C" d="M327,301.8c0,2.1-0.9,3.1-2.7,3.1c-1.8,0-2.7-1-2.7-3.1v-30.4c0-2.8,1.3-4.2,3.8-4.2s3.8,1.3,4.7,3.4
			l10.3,23.7v-24c0-2.1,0.9-3.1,2.7-3.1s2.7,1,2.7,3.1v30.4c0,2.8-1.2,4.2-3.6,4.2c-2.3,0-3.4-1.1-4.4-3.5L327,277.3V301.8z"/>
		<path fill="#03283C" d="M364.5,290.8c-1.6,0-2.3-1.1-2.3-3.4s0.8-3.4,2.3-3.4h6.3c2,0,2.9,1.2,2.9,3.9v10.8c0,2.3-0.6,3.6-2.5,4.7
			c-1.7,1-4.5,1.7-7.1,1.7c-8.1,0-14.2-6.6-14.2-19c0-12.4,6-19.1,14-19.1c2.7,0,5.2,0.7,7.2,2.3c1.4,1.1,2.3,2.3,2.3,3.6
			c0,1.7-1.3,3.7-2.6,3.7c-0.7,0-1.3-0.6-2.2-1.3c-1.3-1-2.9-1.5-4.6-1.5c-4.8,0-8,4-8,12.1c0,8.2,3.4,12.4,8.4,12.4
			c1.3,0,2.6-0.3,3.7-0.7v-6.8H364.5L364.5,290.8z"/>
		<path fill="#03283C" d="M399.1,302.8c0,1.3-0.7,2.1-2.7,2.1c-2.5,0-3.2-1.1-4.4-3.4l-4.7-9.2c-0.6,0.1-1.2,0.1-1.8,0.1
			c-0.6,0-1.2-0.1-1.5-0.1v9.5c0,2.1-0.9,3.1-2.8,3.1s-2.9-1-2.9-3.1V273c0-2.1,0-4.2,2.5-5.1c1.3-0.5,3.5-0.7,5.3-0.7
			c7.3,0,11.7,4.4,11.7,12.1c0,5.1-1.9,8.9-5.1,11.1l4.3,7.9C398.6,300.9,399.1,301.8,399.1,302.8z M385.8,286.1
			c4.1,0,6.3-2.3,6.3-6.3s-2.2-6.1-5.8-6.1c-0.7,0-1.5,0.1-2.2,0.3v11.9C384.5,286,385.1,286.1,385.8,286.1z"/>
		<path fill="#03283C" d="M416.1,282.2c1.6,0,2.3,1.1,2.3,3.4s-0.8,3.4-2.3,3.4h-7.8v8.9h9.9c1.6,0,2.3,1.1,2.3,3.4
			s-0.8,3.4-2.3,3.4h-12.5c-2,0-2.9-1.2-2.9-3.9v-29.3c0-2.7,0.9-3.9,2.9-3.9H418c1.6,0,2.3,1.1,2.3,3.4s-0.8,3.4-2.3,3.4h-9.6v7.9
			L416.1,282.2L416.1,282.2z M408.6,256c0.7,0,1.3,0.4,2.1,1l2.5,2.1c1,0.8,1.8,1.5,1.8,2.9c0,1.5-0.8,3.2-2.3,3.2
			c-0.8,0-1.6-0.5-3.2-1.5c-2.6-1.7-3.4-2.6-3.4-4C406.1,258.3,406.8,256,408.6,256z"/>
		<path fill="#03283C" d="M423,277.7c0-6.4,4-10.7,9.7-10.7c2.5,0,5.2,0.9,7,2.4c1.1,1,1.6,1.8,1.6,3c0,1.7-1.1,3.9-2.5,3.9
			c-0.5,0-0.9-0.3-1.8-1c-1.4-1-2.7-1.7-4.3-1.7c-2.4,0-3.8,1.6-3.8,3.6c0,5.8,13,4.7,13,16.8c0,7-4.3,11.2-10,11.2
			c-2.8,0-5.2-0.9-7.4-2.8c-1.1-1-1.6-1.9-1.6-3.1c0-1.8,1.3-3.9,2.5-3.9c0.6,0,1.1,0.4,1.9,1.1c1.4,1.1,2.7,2.1,4.7,2.1
			c2.5,0,4.2-1.6,4.2-4C436,287.9,423,289.3,423,277.7z"/>
		<path fill="#03283C" d="M461.9,305c-1.7,0-3.9-0.2-5.3-0.7c-2.5-0.9-2.5-3-2.5-5.1V273c0-2.1,0-4.2,2.5-5.1
			c1.3-0.5,3.6-0.7,5.5-0.7c9.9,0,15.3,7,15.3,18.8C477.4,298,471.7,305,461.9,305z M462.2,298.3c6,0,9.1-4.6,9.1-12.1
			c0-7.7-3.2-12.2-9.1-12.2c-0.7,0-1.5,0.1-2.3,0.2v23.9C460.7,298.2,461.5,298.3,462.2,298.3z"/>
		<path fill="#03283C" d="M494.9,282.2c1.6,0,2.3,1.1,2.3,3.4s-0.8,3.4-2.3,3.4h-7.8v8.9h9.9c1.6,0,2.3,1.1,2.3,3.4
			s-0.8,3.4-2.3,3.4h-12.5c-2,0-2.9-1.2-2.9-3.9v-29.3c0-2.7,0.9-3.9,2.9-3.9h12.3c1.6,0,2.3,1.1,2.3,3.4s-0.8,3.4-2.3,3.4h-9.6v7.9
			L494.9,282.2L494.9,282.2z"/>
		<path fill="#03283C" d="M517.1,285.2h7.5c1.6,0,2.3,1.1,2.3,3.4s-0.8,3.4-2.3,3.4h-7.5v9.8c0,2.1-1,3.1-2.9,3.1s-2.9-1-2.9-3.1
			v-30.4c0-2.7,0.9-3.9,2.9-3.9h11.4c1.6,0,2.3,1.1,2.3,3.4s-0.8,3.5-2.3,3.5h-8.5V285.2z"/>
		<path fill="#03283C" d="M552,302.8c0,1.3-0.7,2.1-2.7,2.1c-2.5,0-3.2-1.1-4.4-3.4l-4.7-9.2c-0.6,0.1-1.2,0.1-1.8,0.1
			s-1.2-0.1-1.5-0.1v9.5c0,2.1-0.9,3.1-2.8,3.1s-2.9-1-2.9-3.1V273c0-2.1,0-4.2,2.5-5.1c1.3-0.5,3.5-0.7,5.3-0.7
			c7.3,0,11.7,4.4,11.7,12.1c0,5.1-1.9,8.9-5.1,11.1l4.3,7.9C551.5,300.9,552,301.8,552,302.8z M538.6,286.1c4.1,0,6.3-2.3,6.3-6.3
			s-2.2-6.1-5.8-6.1c-0.7,0-1.5,0.1-2.2,0.3v11.9C537.4,286,538,286.1,538.6,286.1z"/>
		<path fill="#03283C" d="M568.9,282.2c1.6,0,2.3,1.1,2.3,3.4s-0.8,3.4-2.3,3.4h-7.8v8.9h9.9c1.6,0,2.3,1.1,2.3,3.4
			s-0.8,3.4-2.3,3.4h-12.5c-2,0-2.9-1.2-2.9-3.9v-29.3c0-2.7,0.9-3.9,2.9-3.9h12.3c1.6,0,2.3,1.1,2.3,3.4s-0.8,3.4-2.3,3.4h-9.6v7.9
			L568.9,282.2L568.9,282.2z"/>
		<path fill="#03283C" d="M584.8,305c-1.7,0-3.9-0.2-5.3-0.7c-2.5-0.9-2.5-3-2.5-5.1V273c0-2.1,0-4.2,2.5-5.1
			c1.3-0.5,3.6-0.7,5.5-0.7c9.9,0,15.3,7,15.3,18.8C600.3,298,594.6,305,584.8,305z M585.1,298.3c6,0,9.1-4.6,9.1-12.1
			c0-7.7-3.2-12.2-9.1-12.2c-0.7,0-1.5,0.1-2.3,0.2v23.9C583.6,298.2,584.4,298.3,585.1,298.3z"/>
		<path fill="#03283C" d="M617.8,282.2c1.6,0,2.3,1.1,2.3,3.4s-0.8,3.4-2.3,3.4H610v8.9h9.9c1.6,0,2.3,1.1,2.3,3.4s-0.8,3.4-2.3,3.4
			h-12.5c-2,0-2.9-1.2-2.9-3.9v-29.3c0-2.7,0.9-3.9,2.9-3.9h12.3c1.6,0,2.3,1.1,2.3,3.4s-0.8,3.4-2.3,3.4H610v7.9L617.8,282.2
			L617.8,282.2z"/>
		<path fill="#03283C" d="M646.5,302.8c0,1.3-0.7,2.1-2.7,2.1c-2.5,0-3.2-1.1-4.4-3.4l-4.7-9.2c-0.6,0.1-1.2,0.1-1.8,0.1
			s-1.2-0.1-1.5-0.1v9.5c0,2.1-0.9,3.1-2.8,3.1s-2.9-1-2.9-3.1V273c0-2.1,0-4.2,2.5-5.1c1.3-0.5,3.5-0.7,5.3-0.7
			c7.3,0,11.7,4.4,11.7,12.1c0,5.1-1.9,8.9-5.1,11.1l4.3,7.9C646,300.9,646.5,301.8,646.5,302.8z M633.2,286.1
			c4.1,0,6.3-2.3,6.3-6.3s-2.2-6.1-5.8-6.1c-0.7,0-1.5,0.1-2.2,0.3v11.9C631.9,286,632.5,286.1,633.2,286.1z"/>
		<path fill="#03283C" d="M655.9,301.8c0,2.1-1,3.1-2.9,3.1s-2.9-1-2.9-3.1v-31.5c0-2.1,1-3.1,2.9-3.1s2.9,1,2.9,3.1V301.8z"/>
		<path fill="#03283C" d="M673.9,298.4c1.6,0,3-0.5,4.2-1.5c0.9-0.7,1.5-1.3,2.1-1.3c1.3,0,2.5,2.1,2.5,3.6c0,1.4-0.9,2.6-2.3,3.6
			c-1.9,1.5-4.3,2.3-7,2.3c-7.7,0-13.5-7.1-13.5-19.3c0-12.1,5.7-19,13.4-19c2.7,0,5,0.8,7,2.3c1.4,1,2.3,2.3,2.3,3.6
			c0,1.7-1.3,3.8-2.6,3.8c-0.6,0-1.2-0.6-2.1-1.3c-1.2-1-2.7-1.5-4.3-1.5c-4.2,0-7.6,3.8-7.6,12.1
			C666.1,294.3,669.5,298.4,673.9,298.4z"/>
		<path fill="#03283C" d="M698.7,301.8c0,2.1-1,3.1-2.9,3.1s-2.9-1-2.9-3.1v-27.3h-6c-1.6,0-2.3-1.1-2.3-3.4s0.8-3.5,2.3-3.5h17.8
			c1.6,0,2.3,1.1,2.3,3.4s-0.8,3.5-2.3,3.5h-6L698.7,301.8L698.7,301.8z"/>
		<path fill="#03283C" d="M721.8,266.9c8.4,0,13.8,7.4,13.8,19.2s-5.4,19.2-13.8,19.2c-8.4,0-13.8-7.4-13.8-19.2
			C708,274.3,713.4,266.9,721.8,266.9z M721.8,298.6c4.7,0,7.8-4.6,7.8-12.5c0-7.9-3.1-12.5-7.8-12.5c-4.6,0-7.8,4.6-7.8,12.5
			C714,294,717.1,298.6,721.8,298.6z"/>
		<path fill="#03283C" d="M745.2,301.8c0,2.1-0.9,3.1-2.7,3.1s-2.7-1-2.7-3.1v-30.4c0-2.8,1.3-4.2,3.8-4.2s3.8,1.3,4.7,3.4
			l10.3,23.7v-24c0-2.1,0.9-3.1,2.7-3.1s2.7,1,2.7,3.1v30.4c0,2.8-1.2,4.2-3.6,4.2c-2.3,0-3.4-1.1-4.4-3.5l-10.9-24.1v24.5H745.2z"
			/>
	</g>
	<g enable-background="new    ">
		<path fill="#43679B" d="M173.4,395.2c-2.3,0-5.1-0.2-7-0.7c-3.2-0.9-3.3-3-3.3-5.1v-26.2c0-2.1,0.1-4.2,3.3-5.1
			c1.7-0.5,4.7-0.7,7.2-0.7c13,0,20.2,7,20.2,18.8C193.8,388.2,186.3,395.2,173.4,395.2z M173.8,388.5c7.9,0,12-4.6,12-12.1
			c0-7.7-4.2-12.2-12-12.2c-1,0-2,0.1-3,0.2v23.9C171.9,388.5,172.9,388.5,173.8,388.5z"/>
		<path fill="#43679B" d="M220.6,384.7c0.5-1.1,0.6-2.5,0.6-4v-20.1c0-2.1,1.2-3.1,3.6-3.1c2.5,0,3.7,1,3.7,3.1v20.1
			c0,2.8-0.4,5.3-1.3,7.4c-2.3,5.4-7.2,7.5-13.4,7.5c-6.6,0-11.1-2.3-13.3-7.5c-0.9-2-1.3-4.4-1.3-7.3v-20.1c0-2.1,1.3-3.1,3.9-3.1
			s3.9,1,3.9,3.1v20.1c0,1.5,0.2,2.8,0.6,4c1.1,2.8,3.3,4.1,6.5,4.1C217.7,388.8,219.5,387.3,220.6,384.7z"/>
		<path fill="#43679B" d="M248.9,376.3c-0.7,0.5-1.5,0.7-2.3,0.7c-1.9,0-3-2-3-3.6c0-1.6,1.1-2.3,2.6-3.1l5.9-2.9
			c1.8-0.9,3.1-1.4,4.7-1.4c3.3,0,3.3,2.4,3.3,3.8V392c0,2.1-1.3,3.1-3.8,3.1s-3.8-1-3.8-3.1v-17.6L248.9,376.3z"/>
		<path fill="#43679B" d="M273.5,379.1c4.1-0.2,5.9-1.3,5.9-3.5c0-1.9-1.4-3.2-4.2-3.2c-1.6,0-3.4,0.6-4.5,1.3
			c-0.9,0.6-1.5,0.9-2.2,0.9c-1.7,0-3.1-2-3.1-3.5c0-1.2,0.9-2.2,2.3-3c2.1-1.3,5-2.1,8.3-2.1c6.8,0,11.1,3.4,11.1,8.5
			c0,3.5-2.2,6.1-6.1,7.1c4.4,0.9,7,4,7,8c0,5.9-5.3,10-12.4,10c-3.5,0-6.3-1-8.1-2.3c-1.3-0.9-2.2-1.8-2.2-3c0-1.5,1.5-3.8,3.2-3.8
			c0.7,0,1.3,0.4,2.2,0.9c1.7,1.1,3.2,1.6,4.8,1.6c2.9,0,4.8-1.4,4.8-3.7c0-1.5-0.9-2.8-3.2-3.5c-0.9-0.2-2.1-0.3-3.9-0.3
			s-3.5,0-3.5-3.1C269.7,379.3,271.6,379.2,273.5,379.1z"/>
		<path fill="#43679B" d="M335.9,393c0,1.3-0.9,2.2-3.6,2.2c-2.6,0-3.7-0.7-4.3-2.7l-2-5.9h-14l-2,5.9c-0.6,1.8-1.6,2.7-4.2,2.7
			s-3.5-0.9-3.5-2.2c0-0.7,0.2-1.5,0.6-2.6l10.7-28.8c1.1-2.9,2.1-4,5.5-4c3.5,0,4.6,1.2,5.6,4l10.5,28.8
			C335.7,391.5,335.9,392.3,335.9,393z M323.7,380l-4.8-14l-4.7,14H323.7z"/>
		<path fill="#43679B" d="M360.8,384.7c0.5-1.1,0.6-2.5,0.6-4v-20.1c0-2.1,1.2-3.1,3.6-3.1c2.5,0,3.7,1,3.7,3.1v20.1
			c0,2.8-0.4,5.3-1.3,7.4c-2.3,5.4-7.2,7.5-13.4,7.5c-6.6,0-11.1-2.3-13.3-7.5c-0.9-2-1.3-4.4-1.3-7.3v-20.1c0-2.1,1.3-3.1,3.9-3.1
			s3.9,1,3.9,3.1v20.1c0,1.5,0.2,2.8,0.6,4c1.1,2.8,3.3,4.1,6.5,4.1C357.9,388.8,359.8,387.3,360.8,384.7z"/>
		<path fill="#43679B" d="M389.1,376.3c-0.7,0.5-1.5,0.7-2.3,0.7c-1.9,0-3-2-3-3.6c0-1.6,1.1-2.3,2.6-3.1l5.9-2.9
			c1.8-0.9,3.1-1.4,4.7-1.4c3.3,0,3.3,2.4,3.3,3.8V392c0,2.1-1.3,3.1-3.8,3.1c-2.6,0-3.8-1-3.8-3.1v-17.6L389.1,376.3z"/>
		<path fill="#43679B" d="M431,384.3c0,6.3-4.7,11.1-12.2,11.1c-3.9,0-6.9-1.3-9-3.3c-2.3-2.4-3.4-5.8-3.4-10.1
			c0-8.3,4.3-14.8,10.5-18.6c3.5-2.1,7.2-3.1,8.9-3.1c2.5,0,3.1,2.1,3.1,3.4c0,2.2-1.7,2.5-3.2,3c-6.2,1.9-9.8,5.1-11.3,9.6
			c1.7-1.4,3.8-2.2,6.4-2.2C426.8,374.1,431,378.3,431,384.3z M423.7,384.4c0-2.8-1.9-4.8-5.2-4.8c-1.8,0-3.5,0.6-5,1.8v0.6
			c0,2.6,0.4,4.3,1.4,5.5c0.9,1.2,2.3,1.8,3.9,1.8C421.7,389.3,423.7,387.3,423.7,384.4z"/>
		<path fill="#43679B" d="M457.6,360.6c0-2.1,1.3-3.1,3.9-3.1s3.9,1,3.9,3.1v21.6c0,3.1-0.6,5.7-1.8,7.7c-2,3.5-6,5.4-10.4,5.4
			c-2.7,0-5.2-0.7-6.6-1.6c-1.2-0.7-1.8-1.5-1.8-2.7c0-1.5,1.1-3.9,3-3.9c0.6,0,1.2,0.2,1.9,0.6c1,0.5,2.1,0.8,3.2,0.8
			c2,0,3.4-1,4.2-2.9c0.3-0.9,0.5-2,0.5-3.3L457.6,360.6L457.6,360.6z"/>
		<path fill="#43679B" d="M493.5,384.7c0.5-1.1,0.6-2.5,0.6-4v-20.1c0-2.1,1.2-3.1,3.6-3.1c2.5,0,3.7,1,3.7,3.1v20.1
			c0,2.8-0.4,5.3-1.3,7.4c-2.3,5.4-7.2,7.5-13.4,7.5c-6.6,0-11.1-2.3-13.3-7.5c-0.9-2-1.3-4.4-1.3-7.3v-20.1c0-2.1,1.3-3.1,3.9-3.1
			s3.9,1,3.9,3.1v20.1c0,1.5,0.2,2.8,0.6,4c1.1,2.8,3.3,4.1,6.5,4.1C490.6,388.8,492.5,387.3,493.5,384.7z"/>
		<path fill="#43679B" d="M516.1,392c0,2.1-1.3,3.1-3.9,3.1s-3.9-1-3.9-3.1v-31.5c0-2.1,1.3-3.1,3.9-3.1c2.6,0,3.9,1,3.9,3.1V392z"
			/>
		<path fill="#43679B" d="M530,392c0,2.1-1.1,3.1-3.5,3.1s-3.6-1-3.6-3.1v-30.4c0-2.8,1.7-4.2,5-4.2s5,1.3,6.2,3.4l13.6,23.7v-24
			c0-2.1,1.2-3.1,3.6-3.1c2.4,0,3.6,1,3.6,3.1V391c0,2.8-1.6,4.2-4.7,4.2c-3,0-4.4-1.1-5.8-3.5L530,367.5V392z"/>
		<path fill="#43679B" d="M579.9,388.3h10.3c2.1,0,3.1,1.1,3.1,3.2c0,2.2-1,3.3-3.1,3.3h-15.5c-2.2,0-3.4-1.2-3.4-3.6
			c0-2.1,0.7-3.1,2.3-4.4c6.8-5.3,11.5-7.2,11.5-11.1c0-1.8-1.3-3.4-4.3-3.4c-1.6,0-3.1,0.5-4.4,1.3c-1,0.5-1.5,0.9-2.2,0.9
			c-1.8,0-3.2-2.1-3.2-3.6c0-1.1,1-2.2,2.3-3c2.2-1.3,5.2-2.1,8.1-2.1c5.8,0,10.9,2.7,10.9,9.1C592.3,382,585.9,384.8,579.9,388.3z"
			/>
		<path fill="#43679B" d="M610.2,365.8c8.1,0,13,5.6,13,14.8c0,9.2-4.8,14.8-13,14.8c-8.1,0-13-5.6-13-14.8
			C597.2,371.4,602.1,365.8,610.2,365.8z M610.2,388.9c3.4,0,5.5-3.1,5.5-8.3c0-5.2-2.1-8.3-5.5-8.3s-5.4,3.1-5.4,8.3
			C604.8,385.8,606.8,388.9,610.2,388.9z"/>
		<path fill="#43679B" d="M631.4,376.3c-0.7,0.5-1.5,0.7-2.3,0.7c-1.9,0-3-2-3-3.6c0-1.6,1.1-2.3,2.6-3.1l5.9-2.9
			c1.8-0.9,3.1-1.4,4.7-1.4c3.3,0,3.3,2.4,3.3,3.8V392c0,2.1-1.3,3.1-3.8,3.1c-2.6,0-3.8-1-3.8-3.1v-17.6L631.4,376.3z"/>
		<path fill="#43679B" d="M661.2,360.3c7.4,0,11.5,3.8,11.5,8.9c0,4-2.5,6.5-5.4,7.7c3.4,1,6.5,4.1,6.5,8.6c0,5.1-4,9.9-12.8,9.9
			c-8.6,0-12.6-4.6-12.6-9.6c0-4.6,3.1-7.6,6.4-8.5c-2.8-1.2-5.3-3.9-5.3-7.8C649.5,364.2,653.6,360.3,661.2,360.3z M661.1,389.4
			c3.1,0,5.1-2.1,5.1-4.7c0-2.8-2.1-4.7-5.1-4.7s-5.1,1.9-5.1,4.7C656,387.3,657.9,389.4,661.1,389.4z M661.1,374.3
			c2.5,0,4.2-1.7,4.2-4c0-2.2-1.7-3.9-4.2-3.9c-2.6,0-4.3,1.7-4.3,3.9C656.8,372.6,658.6,374.3,661.1,374.3z"/>
	</g>
</g>
</svg>
