<?xml version="1.0" encoding="utf-8"?>
<!-- Generator: Adobe Illustrator 18.0.0, SVG Export Plug-In . SVG Version: 6.00 Build 0)  -->
<!DOCTYPE svg PUBLIC "-//W3C//DTD SVG 1.1//EN" "http://www.w3.org/Graphics/SVG/1.1/DTD/svg11.dtd">
<svg version="1.1" id="Layer_1" xmlns="http://www.w3.org/2000/svg" xmlns:xlink="http://www.w3.org/1999/xlink" x="0px" y="0px"
	 viewBox="298.4 744.5 560 420" enable-background="new 298.4 744.5 560 420" xml:space="preserve">
<g>
	<g>
		<g>
			<path fill="#42669A" d="M350,1112c0,3.6-3.3,6.1-8.9,6.1c-1.3,0-2.9-0.1-3.9-0.6c-1.9-0.6-1.9-1.8-1.9-2.7v-15
				c0-1.2,0-2.5,1.9-2.7c0.8-0.4,2.7-0.6,3.9-0.6c5.5,0,8.4,2.3,8.4,5.5c0,2.5-1.3,3.9-3.9,4.6C348.4,1107.4,350,1109.5,350,1112z
				 M339.1,1100.4v5h2c0.8,0,1.3-0.1,2-0.4c1.2-0.6,1.8-1.2,1.8-2.5c0-1.5-1.2-2.6-3.9-2.6C340.4,1100.3,339.8,1100.3,339.1,1100.4z
				 M345.3,1111.5c0-1.3-0.7-2.3-2-2.6c-0.7-0.1-1.3-0.4-2.5-0.4h-2v5.5c0.7,0.1,1.3,0.1,2,0.1
				C344.1,1114.2,345.3,1113.3,345.3,1111.5z"/>
			<path fill="#42669A" d="M366,1112c0.4-0.7,0.6-1.3,0.6-2.5v-11.1c0-1.2,0.7-1.9,2-1.9s2,0.7,2,1.9v11.4c0,1.8-0.4,2.9-0.8,4.2
				c-1.3,3-4.2,4.2-7.5,4.2c-3.7,0-6.3-1.3-7.5-4.2c-0.6-1.2-0.8-2.6-0.8-4.2v-11.6c0-1.2,0.7-1.9,2.3-1.9c1.6,0,2.3,0.7,2.3,1.9
				v11.4c0,0.8,0.1,1.8,0.6,2.5c0.7,1.5,2,2.5,3.7,2.5C364.4,1114.2,365.4,1113.4,366,1112z"/>
			<path fill="#42669A" d="M379.8,1116.4c0,1.2-0.7,1.9-2.3,1.9c-1.5,0-2.3-0.7-2.3-1.9v-18c0-1.2,0.7-1.9,2.3-1.9
				c1.5,0,2.3,0.7,2.3,1.9V1116.4z"/>
			<path fill="#42669A" d="M395.5,1114c1.2,0,1.8,0.7,1.8,2c0,1.3-0.6,2-1.8,2h-8.8c-1.5,0-2.3-0.7-2.3-2.3v-17.2
				c0-1.2,0.7-1.9,2.3-1.9c1.6,0,2.3,0.7,2.3,1.9v15.5h6.4V1114z"/>
			<path fill="#42669A" d="M406.5,1118.2c-1.3,0-2.7-0.1-3.9-0.6c-1.9-0.6-1.9-1.8-1.9-2.7v-15.1c0-1.2,0-2.5,1.9-2.7
				c0.8-0.4,2.7-0.6,4.2-0.6c7.4,0,11.6,3.9,11.6,10.7C418.5,1114,413.7,1118.2,406.5,1118.2z M406.8,1114.1c4.5,0,6.9-2.6,6.9-6.9
				c0-4.3-2.5-7-6.9-7c-0.6,0-1.2,0-1.8,0.1v13.5C405.6,1114.1,406.1,1114.1,406.8,1114.1z"/>
			<path fill="#42669A" d="M426.5,1116.4c0,1.2-0.7,1.9-2.3,1.9s-2.3-0.7-2.3-1.9v-18c0-1.2,0.7-1.9,2.3-1.9s2.3,0.7,2.3,1.9V1116.4
				z"/>
			<path fill="#42669A" d="M435.6,1116.4c0,1.2-0.7,1.9-2,1.9s-2-0.7-2-1.9v-17.2c0-1.8,0.8-2.5,2.7-2.5c2,0,2.7,0.8,3.5,2l7.6,13.5
				v-13.6c0-1.2,0.7-1.9,2-1.9s2,0.7,2,1.9v17.2c0,1.5-0.8,2.5-2.7,2.5c-1.8,0-2.6-0.7-3.3-2l-8.2-13.6v13.7H435.6L435.6,1116.4z"/>
			<path fill="#42669A" d="M464.3,1110.1c-1.2,0-1.8-0.7-1.8-2s0.6-2,1.8-2h4.8c1.5,0,2.3,0.7,2.3,2.3v6.1c0,1.3-0.6,2-1.9,2.7
				c-1.3,0.6-3.5,0.8-5.4,0.8c-6.1,0-10.5-3.7-10.5-10.7c0-7,4.5-10.8,10.3-10.8c2,0,3.9,0.6,5.5,1.3c1.1,0.7,1.8,1.3,1.8,2
				c0,0.8-1.1,2-2,2c-0.6,0-0.8-0.6-1.8-0.8c-1.1-0.6-2.3-0.8-3.5-0.8c-3.6,0-5.7,2.5-5.7,6.9c0,4.6,2.6,7,6.2,7
				c0.8,0,2-0.1,2.7-0.6v-3.9h-2.7L464.3,1110.1L464.3,1110.1z"/>
			<path fill="#42669A" d="M491.6,1116.7c0,0.8-0.6,1.2-1.3,1.2c-0.8,0-1.3-0.6-1.3-1.2v-17.5h-5.6c-0.8,0-1.2-0.6-1.2-1.2
				c0-0.6,0.6-1.3,1.2-1.3h14.4c0.8,0,1.2,0.6,1.2,1.3c0,0.7-0.6,1.2-1.2,1.2h-5.7L491.6,1116.7L491.6,1116.7z"/>
			<path fill="#42669A" d="M510.4,1096.2c6.1,0,10.1,4.2,10.1,10.8c0,6.6-3.9,10.8-10.1,10.8c-6.2,0-10.1-4.2-10.1-10.8
				S504.2,1096.2,510.4,1096.2z M510.4,1115.7c4.3,0,7.3-3.3,7.3-8.7s-2.7-8.7-7.3-8.7c-4.3,0-7.3,3.5-7.3,8.7
				C503.3,1112.2,506,1115.7,510.4,1115.7z"/>
			<path fill="#42669A" d="M537.6,1113.4c-0.6,0.8-0.8,1.3-1.8,1.3c-0.8,0-1.3-0.6-1.8-1.3l-5.7-13.5l-1.1,16.6
				c-0.1,0.8-0.6,1.2-1.3,1.2c-0.7,0-1.3-0.6-1.3-1.2l1.3-18.4c0.1-1.2,0.6-1.8,1.9-1.8c1.2,0,1.9,0.6,2.5,1.8l5.7,13.2l5.7-13.2
				c0.6-1.2,1.1-1.8,2.5-1.8c1.4,0,1.8,0.7,1.8,1.8l1.3,18.4c0,0.8-0.6,1.2-1.3,1.2c-0.8,0-1.3-0.6-1.3-1.2l-1.2-16.6L537.6,1113.4z
				"/>
			<path fill="#42669A" d="M561.9,1096.2c6.1,0,10.1,4.2,10.1,10.8c0,6.6-3.9,10.8-10.1,10.8s-10.1-4.2-10.1-10.8
				C551.8,1100.7,555.7,1096.2,561.9,1096.2z M561.9,1115.7c4.3,0,7.3-3.3,7.3-8.7s-2.7-8.7-7.3-8.7c-4.3,0-7.3,3.5-7.3,8.7
				C554.5,1112.2,557.3,1115.7,561.9,1115.7z"/>
			<path fill="#42669A" d="M590.8,1117.1c0,0.6-0.6,0.8-1.3,0.8c-1.2,0-1.5-0.6-2-1.3l-4.6-6.7c-0.7,0.1-1.3,0.1-2,0.1
				c-0.6,0-1.2,0-1.5-0.1v6.9c0,0.8-0.6,1.2-1.3,1.2c-0.7,0-1.3-0.6-1.3-1.2v-18c0-0.8,0-1.8,1.3-2c0.8-0.4,2.3-0.6,3.5-0.6
				c5,0,8.4,2.5,8.4,6.6c0,2.9-1.5,5.2-4.3,6.2l4.5,6.3C590.8,1116.5,590.8,1116.9,590.8,1117.1z M581,1107.8c3.9,0,6.1-1.8,6.1-4.5
				c0-2.9-2.3-4.3-5.5-4.3c-0.7,0-1.3,0.1-2,0.1v8.7C579.7,1107.8,580.4,1107.8,581,1107.8z"/>
			<path fill="#42669A" d="M609.2,1117.1c0,0.6-0.6,0.8-1.3,0.8c-1.2,0-1.5-0.6-2-1.3l-4.6-6.7c-0.7,0.1-1.3,0.1-2,0.1
				c-0.6,0-1.2,0-1.5-0.1v6.9c0,0.8-0.6,1.2-1.3,1.2c-0.8,0-1.3-0.6-1.3-1.2v-18c0-0.8,0-1.8,1.3-2c0.8-0.4,2.3-0.6,3.5-0.6
				c5,0,8.4,2.5,8.4,6.6c0,2.9-1.5,5.2-4.3,6.2l4.5,6.3C609.1,1116.5,609.2,1116.9,609.2,1117.1z M599.2,1107.8
				c3.9,0,6.1-1.8,6.1-4.5c0-2.9-2.3-4.3-5.5-4.3c-0.7,0-1.3,0.1-2,0.1v8.7C598.3,1107.8,598.7,1107.8,599.2,1107.8z"/>
			<path fill="#42669A" d="M622.1,1096.2c6.1,0,10.1,4.2,10.1,10.8c0,6.6-3.9,10.8-10.1,10.8c-6.2,0-10.1-4.2-10.1-10.8
				C612,1100.7,616,1096.2,622.1,1096.2z M622.1,1115.7c4.3,0,7.3-3.3,7.3-8.7s-2.7-8.7-7.3-8.7c-4.3,0-7.3,3.5-7.3,8.7
				C614.7,1112.2,617.8,1115.7,622.1,1115.7z"/>
			<path fill="#42669A" d="M643.5,1116.5c-0.4,1.1-0.8,1.3-2,1.3c-1.2,0-1.8-0.6-1.9-1.3l-4.8-18.2c-0.1-0.4-0.1-0.7-0.1-0.8
				c0-0.6,0.4-0.8,1.3-0.8s1.3,0.6,1.5,1.3l3.9,16.6l4.8-15.3c0.4-0.8,0.7-1.3,1.9-1.3c1.2,0,1.5,0.6,1.9,1.3l4.8,15.3l4.2-16.6
				c0.4-0.8,0.6-1.3,1.3-1.3c1.1,0,1.3,0.6,1.3,0.8c0,0.2,0,0.7-0.1,0.8l-4.8,18.2c-0.4,0.8-0.7,1.3-1.9,1.3c-1.2,0-1.8-0.6-2-1.3
				l-4.8-15.3L643.5,1116.5z"/>
			<path fill="#42669A" d="M669.4,1096.6c0,0.6-0.4,1.8-1.3,4.8c-0.6,1.3-0.8,1.8-1.8,1.8c-0.8,0-1.1-0.6-1.1-0.8
				c0-0.2,0.1-0.6,0.1-0.8l1.2-4.5c0.1-0.7,0.6-1.3,1.5-1.3C669.2,1095.8,669.4,1096,669.4,1096.6z"/>
			<path fill="#42669A" d="M672.9,1102.1c0-3.5,2.7-5.5,6.7-5.5c1.9,0,3.6,0.6,5,1.3c0.8,0.6,1.1,0.8,1.1,1.3c0,0.7-0.6,1.3-1.2,1.3
				c-0.4,0-0.6-0.4-1.2-0.6c-1.2-0.7-2.5-1.1-3.7-1.1c-2.6,0-3.9,1.3-3.9,2.9c0,4.5,10.5,3.5,10.5,10.3c0,3.9-3,6.1-7.3,6.1
				c-2.3,0-3.9-0.7-5.5-1.8c-0.7-0.6-1.1-0.8-1.1-1.3c0-0.7,0.6-1.3,1.2-1.3c0.6,0,0.7,0.4,1.3,0.7c1.2,0.8,2.5,1.3,3.9,1.3
				c2.6,0,4.3-1.3,4.3-3.5C683.6,1107.2,672.9,1108.6,672.9,1102.1z"/>
			<path fill="#42669A" d="M698,1102.1c0-3.5,2.7-5.5,6.7-5.5c1.9,0,3.6,0.6,5,1.3c0.8,0.6,1.1,0.8,1.1,1.3c0,0.7-0.6,1.3-1.2,1.3
				c-0.4,0-0.6-0.4-1.2-0.6c-1.2-0.7-2.5-1.1-3.7-1.1c-2.6,0-3.9,1.3-3.9,2.9c0,4.5,10.5,3.5,10.5,10.3c0,3.9-3,6.1-7.3,6.1
				c-2.3,0-3.9-0.7-5.5-1.8c-0.7-0.6-1.1-0.8-1.1-1.3c0-0.7,0.6-1.3,1.2-1.3s0.7,0.4,1.3,0.7c1.2,0.8,2.5,1.3,3.9,1.3
				c2.6,0,4.3-1.3,4.3-3.5C708.5,1107.2,698,1108.6,698,1102.1z"/>
			<path fill="#42669A" d="M724.7,1096.2c6.1,0,10.1,4.2,10.1,10.8c0,6.6-3.9,10.8-10.1,10.8c-6.2,0-10.1-4.2-10.1-10.8
				C714.7,1100.7,718.7,1096.2,724.7,1096.2z M724.7,1115.7c4.3,0,7.3-3.3,7.3-8.7s-2.7-8.7-7.3-8.7c-4.5,0-7.3,3.5-7.3,8.7
				C717.6,1112.2,720.6,1115.7,724.7,1115.7z"/>
			<path fill="#42669A" d="M748.8,1115.7c1.3,0,2.7-0.6,3.9-1.1c0.7-0.6,1.1-0.8,1.3-0.8c0.7,0,1.2,0.8,1.2,1.3s-0.6,1.1-1.3,1.5
				c-1.3,0.8-3.3,1.3-5.4,1.3c-5.7,0-10-4.3-10-11c0-6.7,3.9-10.8,10-10.8c2,0,3.9,0.6,5.4,1.3c0.8,0.6,1.3,1.1,1.3,1.5
				c0,0.6-0.6,1.3-1.2,1.3c-0.6,0-0.8-0.6-1.3-0.8c-1.1-0.7-2.5-1.1-3.9-1.1c-4.2,0-7,2.9-7,8.4
				C741.7,1112.3,744.5,1115.7,748.8,1115.7z"/>
			<path fill="#42669A" d="M762.5,1116.7c0,0.8-0.6,1.2-1.3,1.2c-0.8,0-1.3-0.6-1.3-1.2v-19.1c0-0.8,0.6-1.2,1.3-1.2
				c0.8,0,1.3,0.6,1.3,1.2V1116.7z"/>
			<path fill="#42669A" d="M778,1105.5c0.8,0,1.2,0.6,1.2,1.2s-0.6,1.3-1.2,1.3h-7.3v7.3h8.8c0.8,0,1.2,0.6,1.2,1.3
				c0,0.7-0.6,1.3-1.2,1.3h-10c-1.1,0-1.3-0.6-1.3-1.3v-18.2c0-1.1,0.6-1.3,1.3-1.3h9.8c0.8,0,1.2,0.6,1.2,1.3
				c0,0.7-0.6,1.2-1.2,1.2h-8.7v6.6h7.3V1105.5L778,1105.5z"/>
			<path fill="#42669A" d="M792.9,1116.7c0,0.8-0.6,1.2-1.3,1.2c-0.8,0-1.3-0.6-1.3-1.2v-17.5h-5.6c-0.8,0-1.2-0.6-1.2-1.2
				c0-0.6,0.6-1.3,1.2-1.3h14.4c0.8,0,1.2,0.6,1.2,1.3c0,0.7-0.6,1.2-1.2,1.2h-5.6L792.9,1116.7L792.9,1116.7z"/>
			<path fill="#42669A" d="M817,1097.7c0.6-0.8,0.8-1.1,1.9-1.1c0.8,0,1.3,0.4,1.3,0.8c0,0.6-0.4,0.8-0.7,1.3l-7,11.8v6.1
				c0,0.8-0.6,1.2-1.3,1.2s-1.3-0.6-1.3-1.2v-6.1l-7-11.8c-0.6-0.6-0.7-1.1-0.7-1.3c0-0.6,0.6-0.8,1.3-0.8c1.1,0,1.3,0.6,1.9,1.1
				l5.7,10.3L817,1097.7z"/>
		</g>
		<g>
			<path fill="#42669A" d="M352.5,1153c0,4.2-3.6,7-10.3,7c-1.5,0-3.5-0.1-4.6-0.6c-2-0.7-2.3-2-2.3-3.3v-16.9c0-1.3,0-2.7,2.3-3.3
				c1.1-0.4,2.9-0.6,4.6-0.6c6.1,0,9.4,2.5,9.4,6.6c0,2.7-1.5,4.6-4.5,5.4C350.9,1148.1,352.5,1150.2,352.5,1153z M340.4,1140v5.5
				h2.3c0.8,0,1.8-0.1,2.3-0.4c1.3-0.6,2-1.3,2-2.7c0-1.9-1.3-2.9-4.3-2.9C341.6,1139.6,340.9,1139.6,340.4,1140z M347.4,1152.7
				c0-1.3-0.7-2.5-2.5-2.9c-0.7-0.4-1.5-0.6-2.6-0.6H340v6.3c0.7,0.1,1.3,0.1,2.3,0.1C346.2,1156.1,347.4,1154.5,347.4,1152.7z"/>
			<path fill="#42669A" d="M376.9,1158.6c0,0.8-0.7,1.3-2.5,1.3c-1.8,0-2.5-0.6-2.7-1.8l-1.3-3.9h-8.9l-1.3,3.9
				c-0.6,1.2-1.1,1.8-2.7,1.8s-2.3-0.7-2.3-1.3c0-0.6,0.1-0.8,0.6-1.8l6.9-18.7c0.7-2,1.3-2.6,3.6-2.6c2.3,0,2.9,0.8,3.6,2.6
				l6.9,18.7C376.8,1157.5,376.9,1158.1,376.9,1158.6z M360.9,1132.4c0-0.8,0.7-1.3,1.3-1.9l1.8-1.3c0.6-0.6,1.2-0.8,2.3-0.8
				s1.9,0.7,2.3,0.8l1.8,1.3c0.7,0.6,1.3,1.1,1.3,1.9s-0.7,1.9-1.8,1.9c-0.7,0-1.1-0.4-2.5-1.3l-1.1-0.8l-1.1,0.8
				c-1.2,0.8-2,1.3-2.5,1.3C361.7,1134,360.9,1133.2,360.9,1132.4z M368.9,1150.2l-3-8.9l-3,8.9H368.9z"/>
			<path fill="#42669A" d="M388.7,1158c0,1.3-0.8,2-2.5,2c-1.8,0-2.5-0.7-2.5-2v-17.9h-5c-1.3,0-2-0.8-2-2.3c0-1.5,0.7-2.3,2-2.3
				h15.1c1.3,0,2,0.8,2,2.3c0,1.5-0.7,2.3-2,2.3h-5v17.8L388.7,1158L388.7,1158z"/>
			<path fill="#42669A" d="M404.8,1158c0,1.3-0.8,2-2.5,2c-1.8,0-2.5-0.7-2.5-2v-20.5c0-1.3,0.8-2,2.5-2c1.8,0,2.5,0.7,2.5,2V1158z"
				/>
			<path fill="#42669A" d="M427.7,1158.6c0,0.8-0.7,1.3-2.5,1.3c-2.3,0-2.7-0.7-3.7-2.3l-3.9-5.7c-0.6,0-1.1,0.1-1.5,0.1
				c-0.6,0-1.1,0-1.3-0.1v6.2c0,1.3-0.8,2-2.5,2s-2.5-0.7-2.5-2v-18.7c0-1.3,0-2.7,2.3-3.3c1.1-0.4,2.9-0.6,4.5-0.6
				c6.2,0,10,2.7,10,8c0,3.3-1.5,5.6-4.3,7.3l3.7,5C427.6,1157.4,427.7,1158,427.7,1158.6z M416.5,1147.7c3.5,0,5.4-1.5,5.4-3.9
				c0-2.6-2-3.9-5-3.9c-0.7,0-1.3,0.1-1.9,0.1v7.6C415.4,1147.7,415.9,1147.7,416.5,1147.7z"/>
			<path fill="#42669A" d="M453.3,1156.8c0.8,0,1.3,0.6,1.3,1.3c0,0.7-0.6,1.3-1.3,1.3H443c-1.2,0-1.8-0.6-1.8-1.8v-21.3
				c0-0.8,0.6-1.3,1.5-1.3c0.9,0,1.5,0.6,1.5,1.3v19.9L453.3,1156.8L453.3,1156.8z"/>
			<path fill="#42669A" d="M478.1,1159.2c0,0.6-0.6,0.8-1.3,0.8c-0.8,0-1.5-0.6-1.9-1.2l-2-5.5h-10.3l-2,5.5
				c-0.4,0.8-0.7,1.2-1.9,1.2c-1.1,0-1.3-0.6-1.3-0.8c0-0.6,0.1-0.8,0.4-1.2l8.1-20.6c0.6-1.3,0.8-1.8,2.3-1.8
				c1.5,0,1.9,0.6,2.3,1.8l8,20.6C478,1158.2,478.1,1158.8,478.1,1159.2z M471.8,1150.7l-4.2-11.1l-4.2,11.1H471.8z"/>
			<path fill="#42669A" d="M491,1141.8c0-3.9,3-6.3,7.6-6.3c2,0,4.2,0.6,5.5,1.5c0.8,0.6,1.3,1.1,1.3,1.5c0,0.7-0.7,1.5-1.3,1.5
				c-0.6,0-0.7-0.4-1.3-0.7c-1.3-0.8-2.6-1.3-4.2-1.3c-2.7,0-4.5,1.3-4.5,3.5c0,5,11.8,3.9,11.8,11.8c0,4.3-3.6,6.9-8.4,6.9
				c-2.5,0-4.5-0.8-6.2-2c-0.8-0.6-1.2-1.1-1.2-1.8c0-0.7,0.7-1.5,1.3-1.5c0.6,0,0.8,0.4,1.5,0.8c1.3,0.8,2.7,1.5,4.5,1.5
				c2.9,0,5-1.5,5-3.9C503.1,1148.1,491,1149.2,491,1141.8z"/>
			<path fill="#42669A" d="M521.9,1135.5c7,0,11.6,4.8,11.6,12.4c0,7.4-4.5,12.4-11.6,12.4c-7,0-11.6-4.8-11.6-12.4
				C510.2,1140.2,514.7,1135.5,521.9,1135.5z M521.9,1157.5c5,0,8.4-3.7,8.4-9.8c0-5.7-3.3-9.8-8.4-9.8s-8.4,3.7-8.4,9.8
				C513.4,1153.7,516.9,1157.5,521.9,1157.5z"/>
			<path fill="#42669A" d="M549.2,1157.5c1.8,0,3.3-0.6,4.3-1.2c0.8-0.6,1.2-0.8,1.8-0.8c0.7,0,1.3,0.8,1.3,1.3
				c0,0.7-0.7,1.2-1.5,1.9c-1.8,1.1-3.6,1.8-6.1,1.8c-6.7,0-11.4-4.8-11.4-12.5c0-7.5,4.6-12.3,11.1-12.3c2.3,0,4.3,0.7,6.1,1.8
				c1.1,0.7,1.5,1.2,1.5,1.9s-0.7,1.5-1.3,1.5s-0.8-0.6-1.5-0.8c-1.3-0.8-2.7-1.2-4.5-1.2c-4.8,0-8.2,3.5-8.2,9.4
				C540.9,1153.7,544.2,1157.5,549.2,1157.5z"/>
			<path fill="#42669A" d="M564.8,1158.6c0,0.8-0.6,1.3-1.5,1.3c-1.1,0-1.5-0.6-1.5-1.3v-21.8c0-0.8,0.6-1.3,1.5-1.3
				c1.1,0,1.5,0.6,1.5,1.3V1158.6z"/>
			<path fill="#42669A" d="M582.5,1145.8c0.8,0,1.3,0.6,1.3,1.3c0,0.8-0.6,1.3-1.3,1.3h-8.2v8.4h10c0.8,0,1.3,0.6,1.3,1.3
				c0,0.7-0.6,1.3-1.3,1.3h-11.6c-1.2,0-1.8-0.6-1.8-1.8v-20.5c0-1.2,0.6-1.8,1.8-1.8h11c0.8,0,1.3,0.6,1.3,1.3
				c0,0.8-0.6,1.3-1.3,1.3h-9.7v7.4h8.6V1145.8z M579.7,1132.4c-2,1.2-2.5,1.3-2.7,1.3c-0.8,0-1.2-0.7-1.2-1.3s0.6-0.8,1.3-1.3
				l2.7-2c0.7-0.6,0.8-0.7,1.3-0.7c0.8,0,1.3,0.8,1.3,1.5C582.5,1130.9,581.2,1131.4,579.7,1132.4z"/>
			<path fill="#42669A" d="M599.6,1158.6c0,0.8-0.6,1.3-1.5,1.3c-1.1,0-1.5-0.6-1.5-1.3v-19.9H590c-0.8,0-1.3-0.6-1.3-1.3
				c0-0.7,0.6-1.3,1.3-1.3h16.5c0.8,0,1.3,0.6,1.3,1.3c0,0.7-0.6,1.3-1.3,1.3h-6.6v19.9H599.6z"/>
			<path fill="#42669A" d="M623.3,1145.8c0.8,0,1.3,0.6,1.3,1.3c0,0.8-0.6,1.3-1.3,1.3h-8.2v8.4h10c0.8,0,1.3,0.6,1.3,1.3
				c0,0.7-0.6,1.3-1.3,1.3h-11.4c-1.2,0-1.8-0.6-1.8-1.8v-20.5c0-1.2,0.6-1.8,1.8-1.8h11c0.8,0,1.3,0.6,1.3,1.3
				c0,0.8-0.6,1.3-1.3,1.3h-9.7v7.4h8.3V1145.8z M620.4,1132.4c-2,1.2-2.5,1.3-2.7,1.3c-0.8,0-1.2-0.7-1.2-1.3s0.6-0.8,1.3-1.3
				l2.7-2c0.7-0.6,0.8-0.7,1.3-0.7c0.8,0,1.3,0.8,1.3,1.5C623.4,1130.9,622.2,1131.4,620.4,1132.4z"/>
			<path fill="#42669A" d="M645.7,1160c-1.3,0-3-0.1-4.2-0.6c-1.5-0.6-1.5-1.2-1.5-2.3V1138c0-0.8,0-2,1.5-2.3
				c0.8-0.4,2.7-0.6,4.2-0.6c8.7,0,13.5,4.3,13.5,11.9C659.3,1155.7,654.3,1160,645.7,1160z M645.9,1157.4c6.6,0,10.1-3.5,10.1-9.7
				s-3.5-9.7-10.1-9.7c-0.8,0-1.9,0.1-2.7,0.4v18.6C644.2,1157.3,645,1157.4,645.9,1157.4z"/>
			<path fill="#42669A" d="M675.9,1145.8c0.8,0,1.3,0.6,1.3,1.3c0,0.8-0.6,1.3-1.3,1.3h-8.1v8.4h10c0.8,0,1.3,0.6,1.3,1.3
				c0,0.7-0.6,1.3-1.3,1.3h-11.4c-1.2,0-1.8-0.6-1.8-1.8v-20.5c0-1.2,0.6-1.8,1.8-1.8h11c0.8,0,1.3,0.6,1.3,1.3
				c0,0.8-0.6,1.3-1.3,1.3h-9.7v7.4h8.2V1145.8z"/>
			<path fill="#42669A" d="M698.6,1160c-1.3,0-3-0.1-4.2-0.6c-1.5-0.6-1.5-1.2-1.5-2.3V1138c0-0.8,0-2,1.5-2.3
				c0.8-0.4,2.7-0.6,4.2-0.6c8.7,0,13.5,4.3,13.5,11.9C712.1,1155.7,707.1,1160,698.6,1160z M698.6,1157.4c6.6,0,10.1-3.5,10.1-9.7
				s-3.5-9.7-10.1-9.7c-0.8,0-1.9,0.1-2.7,0.4v18.6C696.7,1157.3,698,1157.4,698.6,1157.4z"/>
			<path fill="#42669A" d="M728.8,1145.8c0.8,0,1.3,0.6,1.3,1.3c0,0.8-0.6,1.3-1.3,1.3h-8.2v8.4h10c0.8,0,1.3,0.6,1.3,1.3
				c0,0.7-0.6,1.3-1.3,1.3h-11.4c-1.2,0-1.8-0.6-1.8-1.8v-20.5c0-1.2,0.6-1.8,1.8-1.8h11c0.8,0,1.3,0.6,1.3,1.3
				c0,0.8-0.6,1.3-1.3,1.3h-9.8v7.4h8.4V1145.8z"/>
			<path fill="#42669A" d="M751.1,1154.8c-0.6,1.1-0.8,1.3-1.9,1.3c-0.8,0-1.3-0.6-2-1.3l-6.9-15.1l-1.3,18.9
				c-0.1,0.8-0.6,1.3-1.5,1.3c-1.1,0-1.3-0.6-1.3-1.3l1.5-21.1c0.1-1.3,0.6-2,2-2c1.3,0,2,0.6,2.6,2l6.9,15.1l6.9-15.1
				c0.6-1.3,1.2-2,2.6-2c1.4,0,2,0.7,2,2l1.5,21.1c0,0.8-0.6,1.3-1.3,1.3c-1.1,0-1.5-0.6-1.8-1.3l-1.3-18.9L751.1,1154.8z"/>
			<path fill="#42669A" d="M787.4,1159.2c0,0.6-0.6,0.8-1.3,0.8c-1.2,0-1.5-0.6-1.9-1.2l-2-5.5h-10.5l-2,5.5
				c-0.4,0.8-0.7,1.2-1.9,1.2c-1.1,0-1.3-0.6-1.3-0.8c0-0.6,0.1-0.8,0.4-1.2l8.1-20.6c0.6-1.3,0.8-1.8,2.3-1.8
				c1.5,0,1.9,0.6,2.3,1.8l8,20.6C787.1,1158.2,787.4,1158.8,787.4,1159.2z M781,1150.7l-4.2-11.1l-4.2,11.1H781z"/>
			<path fill="#42669A" d="M795.2,1158.6c0,0.8-0.6,1.3-1.5,1.3c-1.1,0-1.5-0.6-1.5-1.3v-21.8c0-0.8,0.6-1.3,1.5-1.3
				c1.1,0,1.5,0.6,1.5,1.3V1158.6z"/>
			<path fill="#42669A" d="M804.7,1158.6c0,0.8-0.6,1.3-1.3,1.3c-1.1,0-1.5-0.6-1.5-1.3v-21.3c0-1.2,0.7-1.8,2-1.8s2.3,0.7,2.7,1.5
				l11.6,18.2v-18.4c0-0.8,0.6-1.3,1.3-1.3c1.1,0,1.5,0.6,1.5,1.3v21.3c0,1.2-0.7,1.8-1.9,1.8c-1.3,0-2-0.7-2.6-1.8l-11.8-18.4
				L804.7,1158.6L804.7,1158.6z"/>
		</g>
	</g>
	<g>
		<path fill="#899A3A" d="M764.3,864.2c-2.7,0-4.8,2.3-4.8,4.8v15.7h10V869C769.1,866.7,766.9,864.2,764.3,864.2z M765.5,881.3H763
			v-11.9c0-0.7,0.6-1.3,1.3-1.3s1.3,0.6,1.3,1.3v11.9H765.5z"/>
		<path fill="#899A3A" d="M759.7,856.4h9.1c1.1,0,1.9-0.8,1.9-1.9s-0.8-1.9-1.9-1.9h-9.1c-1.1,0-1.9,0.8-1.9,1.9
			C758,855.7,758.7,856.4,759.7,856.4z"/>
		<path fill="#899A3A" d="M769,860.9c1.1,0,1.9-0.8,1.9-1.9s-0.8-1.9-1.9-1.9h-9.1c-1.1,0-1.9,0.8-1.9,1.9c0,1.1,0.8,1.9,1.9,1.9
			H769z"/>
		<path fill="#899A3A" d="M464.2,884.4v-20c0-3.3-2.7-5.7-5.7-5.7s-5.7,2.7-5.7,5.7v20H464.2L464.2,884.4z M456.1,864.2
			c0-1.3,1.1-2.3,2.3-2.3s2.3,1.1,2.3,2.3v16.6h-4.3v-16.6H456.1z"/>
		<path fill="#899A3A" d="M492.6,884.4v-20c0-3.3-2.7-5.7-5.7-5.7s-5.7,2.7-5.7,5.7v20H492.6L492.6,884.4z M484.3,864.2
			c0-1.3,1.1-2.3,2.3-2.3s2.3,1.1,2.3,2.3v16.6h-4.3v-16.6H484.3z"/>
		
			<linearGradient id="SVGID_1_" gradientUnits="userSpaceOnUse" x1="272.8108" y1="89.105" x2="272.8108" y2="143.9236" gradientTransform="matrix(4.0364 0 0 4.0364 -527.069 424.6641)">
			<stop  offset="0" style="stop-color:#41669A"/>
			<stop  offset="0.3946" style="stop-color:#899B3A"/>
			<stop  offset="0.6493" style="stop-color:#899B3A"/>
			<stop  offset="0.8248" style="stop-color:#1D433F"/>
			<stop  offset="1" style="stop-color:#04273D"/>
		</linearGradient>
		<path fill="url(#SVGID_1_)" d="M846.6,945.5c0-7.3-3.6-15.3-13.5-16c0-0.4,0-0.6,0-0.7c0-9.7-7.6-17.3-17.3-17.3
			c-1.5,0-3,0.4-4.6,0.7v-21.6l1.3-4.2c0.4-0.8,0.8-1.1,1.5-1.8c0.8-0.8-0.1-2.3-0.1-2.3l-15.1-22.8l-0.7-1.1v-6.1
			c0-1.1-0.8-1.9-1.9-1.9c-1.1,0-1.9,0.8-1.9,1.9v4.8h-3.7v-4.8c0-1.1-0.8-1.9-1.9-1.9c-1.1,0-1.9,0.8-1.9,1.9v4.8h-5.5v-14.8h2.5
			c0.7,0,1.3-0.6,1.8-0.8c0.6-0.7,0.4-1.3,0-2l-4.3-6.9l-10-25.3v-4.6c0-1.1-0.8-1.9-1.9-1.9c-1.1,0-1.9,0.8-1.9,1.9v3.3h-5.5v-3
			c0-1.1-0.8-1.9-1.9-1.9c-1.1,0-1.9,0.8-1.9,1.9v4.6l-10,25.3l-4.3,6.9c-0.6,0.6-0.6,1.3,0,2c0.6,0.7,0.8,0.8,1.8,0.8h2.5v14.8H741
			V853c0-1.1-0.8-1.9-1.9-1.9c-1.1,0-1.9,0.8-1.9,1.9v4.3h-3.7V853c0-1.1-0.8-1.9-1.9-1.9c-1.1,0-1.9,0.8-1.9,1.9v5.5l-16.6,23.7
			c0,0-1.1,1.3-0.1,2.3c0.7,0.7,1.3,0.8,1.5,1.8l1.3,4.2v8.9c-3-2.5-6.6-4.3-10.3-5.5v-62.1c0-1.1-0.8-1.9-1.9-1.9
			c-1.1,0-1.9,0.8-1.9,1.9v60.8c-2-0.6-3.9-0.6-5.7-0.6c-0.8,0-1.5,0-2.5,0.1c-0.8-11.8-11-21.6-23.2-21.6c-0.1,0-0.4,0-0.6,0
			c-6.3-15-20.5-24.4-36.7-24.4c-18.2,0-34.1,12.4-38.5,29.9c-4.5-2.7-9.8-4.2-15-4.2c-6.3,0-11.9,2-16.9,5.4l-1.8-7.4h3.9
			c1.1,0,1.9-0.8,1.9-1.9v-8.8c0-1.1-0.8-1.9-1.9-1.9h-5.4v-3.5h2.7c0.8,0,1.3-0.6,1.8-1.2c0.4-0.8,0-1.5-0.6-2l-16.2-13.7
			c-0.7-0.7-1.8-0.7-2.5,0l-16.4,14.3c-0.7,0.6-0.8,1.3-0.6,2c0.4,0.8,0.8,1.2,1.8,1.2h2.7v3.5H527c-1.1,0-1.9,0.8-1.9,1.9v8.8
			c0,1.1,0.8,1.9,1.9,1.9h3.9l-2.6,11.8H502v-37.7c0-19.2-16.6-26.1-21.8-27.9v-6.2c0-3.7-4.2-5.5-6.6-6.6v-1.1v-16.6
			c0-1.1-0.8-1.9-1.9-1.9c-1.1,0-1.9,0.8-1.9,1.9v16.6v0.8c-2.5,0.8-6.6,2.7-6.6,6.6v6.2c-5,1.8-21.8,8.8-21.8,27.9V882h-21.3
			c-2-3.5-5.5-5.6-10-5.7c-3.3-7-10.3-11.6-18.2-11.6c-8.8,0-16.3,5.5-18.9,13.6c-2-1.1-4.2-1.5-6.6-1.5c-8.4,0-15,6.7-15,15
			c0,0.1,0,0.4,0,0.4c-1.8,0.1-5.5,0.7-8.4,3.6c-2.5,2.5-3.5,5.7-3.3,10.3c0.1,2,0.7,3.7,1.3,5.5c-0.4,0.6-0.6,1.2-0.7,1.8
			c-2.5-1.3-5.2-2-8-2c-9.7,0-17.3,7.6-17.3,17.3c0,0.4,0,0.6,0,0.7c-2.6,0.1-6.6,1.3-9.8,4.5c-2,2-4.2,5.6-3.9,11.6
			c0.6,8.2,6.6,14.4,13.8,15c2.5,3.3,12.5,12.7,48.1,12.7l0,0c126.2,0,188.6,18.7,189,18.7c37.3,10,71.9,13.6,102.6,13.6
			c39.7,0,73.2-6.2,98.3-13c45.2-12.4,73.3-29.9,77.1-32.3C840.1,959.9,846.6,953.4,846.6,945.5z M781,861.3h13.8l13,19.8h-26.9
			v-19.8H781z M781,884.5h28l-1.3,3.9H781V884.5z M807.1,892.1v19.8c-3.5-8.9-11.8-15-21.7-15c-1.5,0-3,0.1-4.6,0.6v-5.2
			L807.1,892.1L807.1,892.1z M772.3,926.5c0.7-0.1,1.2-0.1,1.8-0.1c8.4,0,15.1,6.9,15.1,15.1c0,8.4-6.9,15.1-15.1,15.1h-16h-20.7
			v-14.4l6.6-8.9c0.7-0.8,0.6-2-0.6-2.6c-0.8-0.7-2-0.6-2.6,0.6l-3.5,4.8v-11c0-1.1-0.8-1.9-1.9-1.9c-1.1,0-1.9,0.8-1.9,1.9v21.8
			l-21.7-6.9c-1.1-0.4-2,0.4-2.5,1.2c-0.4,1.1,0.4,2,1.2,2.5l22.8,7v6.1h-40.5c-6.2,0-11.4-5-11.4-11.4c0-2.7,0.8-11.8,10.3-12.3
			c0.6,0,0.8,0,1.3,0.1l2.6,0.6l-0.6-2.6c-0.1-0.6-0.1-0.8-0.1-1.2v-2.7c0.8-6.7,6.6-11.8,13.5-11.8c2.7,0,5.5,0.8,8.1,2.7l2.5,1.9
			l0.6-2.7c1.8-9.1,9.8-16,19.1-16c8.2,0,15.3,4.8,18.2,12.5l0.6,1.3l1.3-0.1c0.1,0,0.4,0,0.6,0c0.1,0,0.1,0,0.4,0
			c5.5,0,10.3,4.5,10.3,10.1v2.5L772.3,926.5z M590.6,945.7c-0.8-8.4-6.1-10.3-10-10.7c7.6-3.5,20-8.4,35.8-11.1
			c13.5-2.6,30.8-3.9,49.8-1.3c0.6,0.4,0.8,0.4,1.3,0.4c5.7,0.8,11.8,2,18.2,3.9L590.6,945.7z M578.4,956.8h-6.7h-25v-4.2l17.9-5.5
			c1.1-0.4,1.5-1.3,1.2-2.5c-0.4-1.1-1.3-1.5-2.5-1.2l-16.6,5.2v-16.8c0-1.1-0.8-1.9-1.9-1.9c-1.1,0-1.9,0.8-1.9,1.9v7.4l-2-2.7
			c-0.7-0.8-1.9-1.1-2.6-0.6c-0.8,0.7-1.1,1.9-0.6,2.6l5,7v10.8h-28.7c-6.6,0-11.7-5.2-11.7-11.7s5.2-11.7,11.7-11.7
			c0.6,0,0.8,0,1.3,0.1l2.5,0.6v-1.9c0-0.1,0-0.1,0-0.4c0-4.2,3.5-7.5,7.6-7.5h0.1c0.1,0,0.4,0,0.6,0l1.3,0.1l0.6-1.3
			c2.3-5.6,7.6-9.8,13.8-9.8c7.3,0,13.5,5.2,14.8,12.3l0.6,2.7l2.5-1.9c1.9-1.3,3.9-2,6.1-2c5.5,0,10.3,4.6,10.3,10.3
			c0,0.6,0,1.1-0.1,1.9l-0.6,2.6l2.6-0.6c0.6-0.1,0.8-0.1,1.2-0.1l0,0c5.2,0,7.5,2.9,7.5,9.3C587.2,952.7,583.1,956.8,578.4,956.8z
			 M415.8,950.6l22.8-7c1.1-0.4,1.5-1.3,1.2-2.5c-0.4-1.1-1.3-1.5-2.5-1.2l-21.7,6.9v-21.9c0-1.1-0.8-1.9-1.9-1.9
			c-1.1,0-1.9,0.8-1.9,1.9v11l-3.5-4.8c-0.7-0.8-1.9-1.1-2.6-0.6c-0.8,0.7-1.1,1.9-0.6,2.6l6.6,8.9v14.4h-17.5h-19.1
			c-8.4,0-15.1-6.9-15.1-15.1c0-8.4,6.9-15.1,15.1-15.1c0.6,0,1.2,0.1,1.8,0.1l2.5,0.6v-2.3c0-0.1,0-0.1,0-0.4
			c0-5.5,4.6-10.1,10.3-10.1c0.1,0,0.4,0,0.4,0c0.1,0,0.4,0,0.6,0l1.3,0.1l0.6-1.3c2.9-7.5,10.1-12.5,18.2-12.5
			c9.4,0,17.3,6.7,19.1,16l0.6,2.7l2.5-1.9c2.5-1.8,5.2-2.7,8.1-2.7c7.4,0,13.5,6.1,13.5,13.5c0,0.7-0.1,1.3-0.4,2.5l-0.6,2.6
			l2.6-0.6c0.4,0,0.7-0.1,0.8-0.1c0.4,0,0.6,0,0.8-0.1c2.6-0.4,4.5,0.4,6.1,1.8c3.7,3.5,3.7,10.3,3.7,10.7c0,6.2-5,11.4-11.4,11.4
			h-40.3L415.8,950.6L415.8,950.6z M460.7,929.5c-0.8-0.1-1.8-0.1-2.6,0c0-0.4,0-0.6,0-0.7c0-2.7-0.7-5.5-1.9-7.6
			c0.1-1.2,1.1-2,2.3-2s2.3,1.1,2.3,2.3L460.7,929.5L460.7,929.5z M489,956.8h-4.3v-35.5c0-1.3,1.1-2.3,2.3-2.3s2.3,1.1,2.3,2.3
			v35.5H489z M492.6,956.8v-35.5c0-3.3-2.7-5.7-5.7-5.7s-5.7,2.7-5.7,5.7v35.5h-14.4c3-2.7,5.2-6.9,5.2-11.4c0-0.8-0.1-8.9-5-13.5
			c-0.7-0.7-1.3-1.2-2.3-1.5v-9.3c0-3.3-2.7-5.7-5.7-5.7c-1.9,0-3.5,0.8-4.5,2.3c-3.3-3.6-8-5.7-13-5.7c-1.8,0-3.3,0.4-4.8,0.8
			c0.8-1.3,1.8-2.7,2.3-4.3h72.5v22.7c-6.6,1.9-11.4,7.6-11.4,15c0,4.6,2,8.8,5.4,11.7h-11.8L492.6,956.8L492.6,956.8z M536.6,861.9
			h20v5h-10.1h-10V861.9L536.6,861.9z M568.9,921c-0.8-0.1-2-0.4-2.7-0.4c-2,0-4.2,0.6-6.1,1.3c-1.9-5.5-6.2-9.8-11.6-11.8v-9.6h1.5
			c1.1,0,1.9-0.8,1.9-1.9v-9.8c0-1.1-0.8-1.9-1.9-1.9h-1.5v-16.6h9.3L568.9,921z M691.8,924.5c-2-0.7-3.7-1.2-5.5-1.8l-4.3-13.6
			c5.5,1.3,11.1,3.3,17,5.5C695.4,917,693,920.4,691.8,924.5z M682.1,921.6c-3.7-0.8-7.4-1.8-11.1-2.5l7.4-8.9L682.1,921.6z
			 M666.6,918.7c-3.7-0.6-7.4-0.8-11-1.1l-7.4-12.9c8.8,0.1,18.2,1.1,27.8,2.9L666.6,918.7z M651.1,917.3c-1.9,0-3.5-0.1-5.4-0.1
			c-2.5,0-4.5,0-6.7,0.1l5.5-10.8L651.1,917.3z M634.7,917.8c-3.7,0.4-7.4,0.7-10.8,1.2l-9.4-11c0.6-0.1,1.2-0.4,1.8-0.6
			c7.4-1.3,16-2.5,25.1-2.7L634.7,917.8z M619.6,919.5c-1.3,0.4-2.7,0.6-4.2,0.8c-2.5,0.6-4.8,1.1-7.3,1.5l3.6-11.4L619.6,919.5z
			 M604,922.8c-3.5,0.8-6.9,2-9.8,2.9l-10.7-8.4c6.2-2.7,14.8-5.6,25-8.4L604,922.8z M590,927.2c-3.6,1.3-6.9,2.6-9.7,3.9l1.1-10.3
			L590,927.2z M577.2,926.3c-1.2-1.3-2.6-2.7-4.2-3.6v-0.1c0.8-0.6,2.6-1.3,4.8-2.5L577.2,926.3z M545,891h2.9v6.2H545V891z
			 M544.7,870.4v17h-1.5c-1.1,0-1.9,0.8-1.9,1.9v10c0,1.1,0.8,1.9,1.9,1.9h1.5v8.8c-0.8-0.1-1.8-0.1-2.6-0.1
			c-7.4,0-13.7,4.2-16.9,10.8c-0.4,0-0.6,0-0.8,0l10.8-49.8L544.7,870.4L544.7,870.4z M520.4,921.6c-3,1.8-5.5,4.6-5.7,8.4h-0.1
			c-0.1,0-0.1,0-0.4,0v-23.8c0-0.8-0.6-1.3-1.1-1.8l0,0l-10.3-4.8v-4.8h23.5L520.4,921.6z M472.5,889.9l26.7,12.3
			c0.4,0.6,0.8,1.1,1.8,1.1c0.1,0,0.4,0,0.6,0l2.5,1.2h-61.5L472.5,889.9z M498.7,897.8l-24.6-11.1v-34h24.6V897.8L498.7,897.8z
			 M470.5,886.6l-24.6,11.7V853h24.6V886.6z M442,899.8l-3.5,1.8c-0.1-2.5-0.8-4.8-2-6.9h5.5V899.8L442,899.8z M720,903v-10.8h27.6
			v6.3c-2.7-1.1-5.5-1.8-8.8-1.8c-6.9,0-13,2.9-17.3,8C721,904.3,720.3,903.7,720,903z M764.3,910.6c-0.8,0-1.5,0.1-2.5,0.4
			c-0.8-0.1-1.5-0.4-2.5-0.4c-2-4.2-4.8-7.5-8.8-10.1v-57.8h3.6c1.2,4.2,5,7.3,9.7,7.3c4.5,0,8.4-3,9.7-7.3h3.6v55.8
			C771.7,900.6,767.1,904.7,764.3,910.6z M758.1,840.2c0-3.5,2.7-6.2,6.2-6.2c3.5,0,6.2,2.7,6.2,6.2s-2.7,6.2-6.2,6.2
			C760.9,846.4,758.1,843.4,758.1,840.2z M751.1,835c0-0.1,0.1-0.4,0.1-0.4l9.8-24.6h6.6l9.8,24.6c0,0.1,0.1,0.4,0.1,0.4l2.6,4.2
			H774c-0.6-4.8-4.8-8.8-9.8-8.8c-5,0-9.3,3.9-9.8,8.8h-5.5L751.1,835z M732.1,861.3h15.3V881h-28.3L732.1,861.3z M747.3,884.5v3.9
			h-28l-1.3-3.9H747.3z M580,876.3c5.5,0,10.5,1.8,15.1,5l2.5,1.9l0.6-2.7c3.3-17,18.2-29.3,35.5-29.3c15,0,28.3,9.1,33.6,23.2
			l0.6,1.3l1.3-0.1c0.4,0,0.6,0,0.8-0.1c0.4,0,0.6-0.1,0.8-0.1c10.8,0,19.8,8.8,19.8,19.7c0,0.1,0,0.4,0,0.6v2.3l2.7-0.6
			c1.2-0.1,2.3-0.4,3.3-0.4c9.4,0,17.8,4.5,22.8,11.7c-1.1,1.8-2,3.5-2.5,5.5c-2.5-1.3-5.2-2-8-2c-2,0-3.6,0.4-5.5,0.8
			c-21-8.7-40.9-11.4-58.3-11.1c-0.1,0-0.4,0-0.6,0c-0.1,0-0.4,0-0.4,0c-10.7,0.1-20.5,1.3-28.9,2.7c-22.4,4.2-37.8,11.8-43.5,15
			l-8.1-37C568.4,878.3,574.1,876.3,580,876.3z M563.6,861.9v5h-3.5v-5H563.6z M546.4,841l11.6,10h-23L546.4,841z M536.6,854.6h20
			v3.5h-19.9L536.6,854.6L536.6,854.6z M529.5,861.9h3.5v5h-3.5V861.9z M528.3,885.9l-1.1,5h-24.4v-5H528.3z M477.3,810.4v8.9
			l1.3,0.6c0.8,0.4,20.5,5,20.5,24.6v4.5h-24.6v-41C476,808.6,477.3,809.6,477.3,810.4z M466.2,819.8l1.3-0.6v-8.9
			c0-0.8,1.3-1.9,2.9-2.6V849h-24.6v-4.5C445.8,824.9,465.5,820.2,466.2,819.8z M442,885.9v5h-8.7c-2.9-2.7-6.9-4.5-11.1-4.5
			c-0.1,0-0.1,0-0.4,0c0-0.1-0.1-0.6-0.1-0.6H442z M344.5,906c-0.1-3.3,0.6-5.6,2.3-7.5c1.9-1.9,4.2-2.5,6.1-2.5
			c0.6,0,0.8,0,1.3,0.1l2.6,0.6l-0.6-2.6c-0.1-0.8-0.4-1.3-0.4-2c0-6.2,5-11.1,11.1-11.1c2.5,0,4.6,0.8,6.6,2.3l2.5,1.9l0.6-2.7
			c1.5-8,8.4-13.5,16.2-13.5c6.7,0,12.7,4.2,15.1,10.3l0.6,1.3l1.3-0.1c0.1,0,0.4,0,0.6,0c0.1,0,0.1,0,0.4,0c4.6,0,8.4,3.7,8.4,8.4
			v2.5l2.5-0.6c0.6-0.1,1.1-0.1,1.3-0.1c7,0,12.5,5.5,12.5,12.5c0,3.3-1.2,6.1-3,8.4c-3.6-8.4-11.8-14.2-21.3-14.2
			c-9.1,0-17.3,5.4-21.1,13.6c-0.1,0-0.4,0-0.6,0l0.1-12.7l7.4-3.7c0.8-0.6,1.3-1.5,0.8-2.5c-0.6-0.8-1.5-1.3-2.5-0.8l-5.6,2.9v-5.5
			c0-1.1-0.8-1.9-1.9-1.9l0,0c-1.1,0-1.9,0.8-1.9,1.9l-0.1,22.5c-0.1,0-0.6,0-0.6,0c-3.7-8.4-11.8-13.6-21.1-13.6
			c-8,0-15,3.9-19.1,10.1C344.5,906.6,344.5,906.2,344.5,906z M306.5,945.3c-0.4-3.6,0.8-6.6,2.7-8.8c2.3-2.5,5.4-3.5,7.3-3.5
			c0.6,0,0.8,0,1.5,0.1l2.6,0.6l-0.6-2.6c-0.1-0.8-0.4-1.8-0.4-2.5c0-7.4,6.1-13.5,13.5-13.5c2.7,0,5.5,0.8,8.1,2.7l2.5,1.9l0.6-2.7
			c2-9.8,10-16.3,19.2-16.3c8.2,0,15.1,4.8,18.2,12.4c-3,2.3-5.4,5.5-5.6,9.7c-0.1,0-0.6,0-0.6,0c-10.3,0-18.7,8.7-18.7,18.7
			c0,6.2,2.9,11.8,7.5,15.1H318C311.8,956.8,306.7,951.8,306.5,945.3z M375.4,960.3h22.5h40.8l0,0h42.1h11.8h19.8l0,0h2h64.1h0.8
			l0,0c5.7-0.6,10.5-4.8,11.4-10.7l100.6-20.5c0,0.1,0,0.1,0,0.4c-5.6,0.6-9.4,3.5-11.4,7l-4.5,1.8c-0.8,0.6-1.3,1.3-1.2,2.5
			c0.4,0.8,1.1,1.2,1.9,1.2c0.4,0,0.6,0,0.7-0.1l1.5-0.6c-0.4,1.3-0.6,2.9-0.6,4.3c0,8.4,6.7,15,15,15h129
			c-41.2,13.8-134.6,21.1-231.7,12.7l2.9-1.1c0.8-0.6,1.3-1.3,1.2-2.5c-0.6-0.8-1.3-1.3-2.5-1.2l-9.3,3.5c-0.4,0.1-0.6,0.4-0.7,0.6
			c-8.9-0.8-18.2-1.9-27.2-2.9c-102.9-12.9-185.8-0.7-189.9,0c-26.9,0-38.3-5.5-42.6-8.9h53.2v-0.4h0.2V960.3z M754.1,989.1
			c-44.3,11.9-114.7,21.9-199-0.7c-0.1,0-16-4.8-47.1-9.7c-24.2-3.6-62.1-8-112.8-9.1c33.6-2.7,92.1-5.2,159,3.5
			c101.9,12.7,206.8,7.4,258.4-6.2C799.4,973.5,779.4,982.2,754.1,989.1z M831.4,956.8H785c4.6-3.5,7.5-8.9,7.5-15.1
			c0-10.3-8.7-18.7-18.7-18.7c-0.4,0-0.6,0-0.6,0c-0.6-3.9-2.7-7.4-5.6-9.7c2.9-7.5,10.1-12.4,18.2-12.4c9.4,0,17.3,6.7,19.1,16
			l0.6,2.7l2.5-1.9c2.5-1.8,5.2-2.7,8.1-2.7c7.4,0,13.5,6.1,13.5,13.5c0,0.7-0.1,1.3-0.4,2.5l-0.6,2.6l2.6-0.6
			c0.6-0.1,1.1-0.1,1.3-0.1c9.4,0.7,10.3,9.7,10.3,12.3C842.7,951.7,837.6,956.8,831.4,956.8z"/>
		
			<linearGradient id="SVGID_2_" gradientUnits="userSpaceOnUse" x1="280.3296" y1="133.506" x2="283.556" y2="133.506" gradientTransform="matrix(4.0364 0 0 4.0364 -527.069 424.6641)">
			<stop  offset="0" style="stop-color:#14383F"/>
			<stop  offset="1" style="stop-color:#1D433F"/>
		</linearGradient>
		<path fill="url(#SVGID_2_)" d="M606.2,967.2c0.4,0,0.6,0,0.7-0.1l9.3-3.5c0.8-0.6,1.3-1.3,1.2-2.5c-0.6-0.8-1.3-1.3-2.5-1.2
			l-9.3,3.5c-0.8,0.6-1.3,1.3-1.2,2.5C604.6,966.8,605.5,967.2,606.2,967.2z"/>
		
			<linearGradient id="SVGID_3_" gradientUnits="userSpaceOnUse" x1="286.0945" y1="131.3874" x2="289.3209" y2="131.3874" gradientTransform="matrix(4.0364 0 0 4.0364 -527.069 424.6641)">
			<stop  offset="0.1752" style="stop-color:#1D433F"/>
			<stop  offset="1" style="stop-color:#3C5A43"/>
		</linearGradient>
		<path fill="url(#SVGID_3_)" d="M629.6,958.6c0.4,0,0.6,0,0.7-0.1l9.3-3.5c0.8-0.6,1.3-1.3,1.2-2.5c-0.6-0.8-1.3-1.3-2.5-1.2
			l-9.3,3.5c-0.8,0.6-1.3,1.3-1.2,2.5C628.1,958.4,628.8,958.6,629.6,958.6z"/>
		
			<linearGradient id="SVGID_4_" gradientUnits="userSpaceOnUse" x1="291.8594" y1="129.3268" x2="295.0857" y2="129.3268" gradientTransform="matrix(4.0364 0 0 4.0364 -527.069 424.6641)">
			<stop  offset="0" style="stop-color:#355443"/>
			<stop  offset="1" style="stop-color:#607842"/>
		</linearGradient>
		<path fill="url(#SVGID_4_)" d="M652.8,950.3c0.4,0,0.6,0,0.7-0.1l9.3-3.5c0.8-0.6,1.3-1.3,1.2-2.5c-0.6-0.8-1.3-1.3-2.5-1.2
			l-9.3,3.5c-0.8,0.6-1.3,1.3-1.2,2.5C651.3,949.6,652.1,950.3,652.8,950.3z"/>
		
			<linearGradient id="SVGID_5_" gradientUnits="userSpaceOnUse" x1="301.0625" y1="100.2091" x2="301.0625" y2="105.022" gradientTransform="matrix(4.0364 0 0 4.0364 -527.069 424.6641)">
			<stop  offset="0" style="stop-color:#657D76"/>
			<stop  offset="3.331342e-03" style="stop-color:#667E75"/>
			<stop  offset="0.1216" style="stop-color:#728863"/>
			<stop  offset="0.2382" style="stop-color:#7D9051"/>
			<stop  offset="0.3512" style="stop-color:#839644"/>
			<stop  offset="0.4588" style="stop-color:#88993D"/>
			<stop  offset="0.5555" style="stop-color:#899B3A"/>
			<stop  offset="1" style="stop-color:#899B3A"/>
		</linearGradient>
		<path fill="url(#SVGID_5_)" d="M676.6,847.1c1.9,1.1,3.6,1.3,5.5,1.3c2.5,0,4.5-0.7,6.6-1.3c3.5-0.8,6.3-1.9,9.1-0.1
			c0.6,0.6,1.3,0.6,1.9,0c0.6-0.6,0.8-0.8,0.8-1.5V832c0-0.7-0.6-1.3-0.8-1.5c-4.2-2.5-8.4-1.2-11.8-0.1c-3.5,0.8-6.3,1.9-9.1,0.1
			c-0.6-0.6-1.3-0.6-1.9,0s-0.8,0.8-0.8,1.5v13.5C675.6,846.2,675.9,846.9,676.6,847.1z M679.3,835c3.3,0.8,6.6-0.1,9.3-0.8
			c2.9-0.8,5.5-1.5,8.4-0.7v9.7c-3.3-0.8-6.6,0.1-9.3,0.8c-2.9,0.8-5.5,1.5-8.4,0.7V835z"/>
		<g>
			<path fill="#05273C" d="M563.2,1016.2c0.1-0.6,0-0.8-0.1-1.2c-0.4-0.6-0.6-0.6-0.8-0.7l-12.7-3c-0.8-0.1-1.5,0.4-1.8,1.2
				l-5.5,22.7l0,0c-0.1,0.6,0,0.8,0.1,1.2c0.4,0.6,0.6,0.6,0.8,0.7c0.1,0,0.4,0,0.6,0c0.4,0,0.6-0.1,0.8-0.4
				c0.6-0.4,0.7-0.6,0.7-0.8l2.5-9.8l9.7,2.5c0.6,0.1,0.8,0,1.2-0.1c0.6-0.4,0.7-0.6,0.7-0.8c0.1-0.6,0-0.8-0.1-1.2
				c-0.4-0.6-0.6-0.6-0.8-0.7l-9.7-2.5l2-8.4l11.1,2.7c0.6,0.1,0.8,0,1.2-0.4C562.7,1016.9,563,1016.5,563.2,1016.2z"/>
			<path fill="#05273C" d="M575.5,1016.9l-7-1.3c-0.6,0-0.7,0.1-1.1,0.4c-0.4,0.4-0.6,0.6-0.6,0.8l-4.2,22.8c-0.1,0.6,0,0.8,0.4,1.2
				c0.4,0.6,0.6,0.6,0.8,0.7c0.6,0.1,0.8,0,1.2-0.4c0.4-0.4,0.6-0.6,0.7-0.8l1.8-9.1l5.2,0.8h0.1c0.8,0.4,1.8,0.8,2.5,1.8
				c1.1,1.1,1.3,2.3,1.2,3.5c-0.7,3.9-0.1,5.7,1.9,6.3l0.7,0.1h0.1c0.8-0.1,1.3-0.8,1.3-1.8c-0.1-0.7-0.6-1.1-1.1-1.2
				c-0.1-0.4-0.1-1.1,0.1-2.5c0.4-1.8,0.1-3-0.6-4.2c-0.6-0.8-0.8-1.8-1.8-2.5c1.1-0.6,1.9-1.1,2.6-1.9c1.1-1.2,1.8-2.5,2-3.9
				c0.6-2,0-3.9-1.3-5.6C579.2,1018.4,577.7,1017.2,575.5,1016.9z M578.9,1025.4c-0.4,1.3-0.8,2.5-2,3c-1.1,0.8-2.3,1.1-3.5,0.8
				l-5.5-1.1l1.8-9.4l5.5,1.1c1.3,0.4,2.5,0.8,3,2C578.7,1023.1,579.1,1024,578.9,1025.4z"/>
			<path fill="#05273C" d="M602.1,1021l-12.7-1.8c-0.6,0-0.8,0-1.1,0.4c-0.4,0.4-0.6,0.7-0.6,1.1l-3,23c0,0.6,0,0.8,0.4,1.1
				c0.4,0.4,0.6,0.6,0.8,0.6l12.7,1.8c0.1,0,0.1,0,0.4,0c0.4,0,0.7-0.1,0.8-0.4c0.4-0.4,0.6-0.7,0.6-1.1s0-0.8-0.4-1.2
				c-0.4-0.4-0.6-0.6-1.1-0.6l-11.1-1.5l1.2-8.7l9.8,1.3c0.6,0,0.8,0,1.1-0.4c0.4-0.4,0.6-0.7,0.6-1.1c0-0.4,0-0.8-0.4-1.1
				c-0.4-0.6-0.7-0.6-1.1-0.7l-9.8-1.3l1.2-8.7l11.1,1.5c0.6,0,0.8,0,1.1-0.4c0.4-0.4,0.6-0.7,0.6-1.1c0-0.6,0-0.8-0.4-1.2
				C603.2,1021.1,602.6,1021,602.1,1021z"/>
			<path fill="#05273C" d="M613.5,1022.1l-4.6-0.6c-0.6,0-0.8,0.1-1.1,0.6c-0.4,0.4-0.6,0.7-0.6,1.1l-2.3,23c0,0.6,0.1,0.8,0.4,1.1
				c0.4,0.4,0.6,0.6,0.8,0.6l4.8,0.6c0.6,0,0.8,0.1,1.3,0.1c3,0,5.6-1.1,8.4-2.9c2.7-2.5,4.3-5.4,4.6-8.9c0.6-3.6-0.7-6.9-2.9-9.7
				C620.1,1024,617.2,1022.6,613.5,1022.1z M622.4,1036.3c-0.4,2.7-1.3,5-3.6,6.9c-2.3,1.9-4.6,2.6-7.4,2.5l-3-0.4l2-20l3,0.4
				c2.7,0.4,5,1.5,6.9,3.6C622.1,1030.9,622.7,1033.5,622.4,1036.3z"/>
			<path fill="#05273C" d="M644.2,1024.6l-12.7-0.8c-0.6,0-0.8,0.1-1.1,0.6c-0.4,0.4-0.6,0.7-0.6,1.1l-1.3,23.2l0,0
				c0,0.6,0.1,0.8,0.6,1.1c0.4,0.4,0.6,0.6,0.8,0.6l12.9,0.8h0.1c0.6,0,0.7-0.1,1.1-0.6c0.4-0.4,0.6-0.7,0.6-1.1
				c0-0.6-0.1-0.8-0.6-1.1c-0.4-0.4-0.7-0.6-1.1-0.6l-11.4-0.7l0.6-8.8l9.8,0.7c0.6,0,0.8-0.1,1.1-0.6c0.4-0.4,0.6-0.7,0.6-1.1
				c0-0.6-0.1-0.8-0.6-1.1c-0.4-0.4-0.7-0.6-1.1-0.6l-9.8-0.7l0.6-8.8l11.4,0.7c0.6,0,0.8-0.1,1.1-0.6c0.4-0.4,0.6-0.7,0.6-1.1
				c0-0.6-0.1-0.8-0.6-1.1C645,1024.7,644.7,1024.6,644.2,1024.6z"/>
			<path fill="#05273C" d="M664.1,1048.1c-0.1-0.4-0.6-1.1-0.4-2.5c0-1.8-0.4-3-0.8-4.2c-0.6-0.8-1.2-1.5-2-2
				c0.8-0.6,1.8-1.3,2.5-2.3c0.8-1.3,1.3-2.6,1.3-4.2c0.1-2.3-0.7-3.9-2-5.5c-1.3-1.6-3.3-2.5-5.5-2.5l-7.3-0.4
				c-0.6,0-0.7,0.1-0.8,0.6c-0.4,0.4-0.6,0.7-0.6,1.1l-0.8,23.2c0,0.6,0.1,0.8,0.6,1.1c0.4,0.4,0.7,0.6,1.1,0.6
				c0.6,0,0.8-0.1,1.1-0.6c0.4-0.4,0.6-0.7,0.6-1.1l0.4-9.3l5.4,0.1h0.1c0.8,0.1,1.9,0.7,2.7,1.3c1.2,0.8,1.8,2,1.8,3.5
				c-0.1,3.9,0.8,5.7,2.7,5.7h0.1h0.6h0.1h0.1c0.8-0.4,1.2-0.8,1.1-2C665.1,1048.4,664.8,1048.2,664.1,1048.1z M661.7,1032.8
				c0,1.3-0.6,2.5-1.3,3.5c-0.8,0.8-2,1.3-3.5,1.3l0,0l-5.5-0.1l0.4-9.7l5.5,0.1c1.3,0,2.5,0.6,3.5,1.5
				C661.3,1030.3,661.7,1031.6,661.7,1032.8z"/>
			<path fill="#05273C" d="M671.3,1025.4c-0.6,0-0.8,0.1-1.1,0.6c-0.4,0.4-0.6,0.7-0.6,1.1l-0.4,23.2c0,0.6,0.1,0.8,0.6,1.1
				c0.4,0.4,0.7,0.6,1.1,0.6l0,0c0.6,0,0.8-0.1,1.1-0.6c0.4-0.4,0.6-0.7,0.6-1.1l0.4-23.2c0-0.6-0.1-0.8-0.6-1.1
				C672.2,1025.6,671.9,1025.4,671.3,1025.4z"/>
			<path fill="#05273C" d="M699.8,1045.6c-0.6,0-0.8,0-1.2,0.6c-1.8,1.5-3.9,2.5-6.7,2.6c-2.7,0.1-5.2-0.8-7.4-2.7
				c-2.3-2-3.3-4.2-3.5-7c-0.1-2.9,0.8-5.4,2.7-7.4c2-2,4.5-3.3,7.4-3.5c2.5-0.1,4.6,0.7,6.7,2c0.4,0.4,0.7,0.6,1.1,0.4
				c0.6,0,0.8-0.4,0.8-0.6c0.4-0.4,0.6-0.8,0.6-1.2c-0.1-0.6-0.4-0.8-0.7-1.1c-2.6-1.9-5.5-2.7-8.7-2.6c-3.7,0.1-7,1.5-9.4,4.2
				c-2.6,2.7-3.7,5.7-3.6,9.7c0.1,3.6,1.5,6.7,4.3,9.3c2.6,2.5,5.5,3.5,9.1,3.5c0.1,0,0.6,0,0.6,0c3-0.1,5.7-1.2,8.4-3
				c0.4-0.4,0.6-0.7,0.6-1.1s-0.1-0.8-0.6-1.1C700.5,1045.7,700.1,1045.7,699.8,1045.6z"/>
			<path fill="#05273C" d="M719.8,1022.2l-16.6,2.3c-0.6,0-0.8,0.4-1.1,0.6c-0.1,0.1-0.6,0.7-0.4,1.1c0,0.6,0.4,0.8,0.6,1.1
				c0.4,0.4,0.7,0.6,1.2,0.4l6.9-0.8l2.7,21.6c0,0.6,0.4,0.8,0.6,1.1c0.4,0.4,0.6,0.4,0.8,0.4c0.1,0,0.1,0,0.4,0
				c0.6,0,0.8-0.4,1.1-0.6c0.4-0.4,0.6-0.7,0.4-1.1l-2.7-21.6l6.9-0.8c0.6,0,0.8-0.4,1.1-0.7c0.4-0.6,0.6-0.7,0.4-1.1
				c0-0.6-0.4-0.8-0.6-1.1C720.6,1022.2,720.1,1022.2,719.8,1022.2z"/>
			<path fill="#05273C" d="M743.7,1021c-2.9-2-6.2-2.6-9.7-1.9c-3.5,0.8-6.1,2.7-8,5.5c-1.9,3-2.5,6.6-1.5,10l0,0
				c0.8,3.6,2.7,6.6,5.5,8.4c2.3,1.3,4.3,2.3,6.9,2.3c0.8,0,1.9-0.1,2.7-0.4c3.5-0.8,6.1-2.7,8-5.5c1.9-2.9,2.5-6.3,1.5-10
				C748.6,1025.8,746.4,1023.1,743.7,1021z M745.1,1037.8c-1.3,2.5-3.5,3.9-5.7,4.3c-2.6,0.6-5,0.1-7.3-1.3
				c-2.5-1.5-3.7-3.7-4.3-6.6c-0.6-2.7-0.4-5.5,1.2-7.6c1.3-2.5,3.5-3.7,5.7-4.3l0,0c0.8-0.1,1.3-0.4,2-0.4c1.9,0,3.5,0.6,5.2,1.8
				c2.3,1.5,3.7,3.7,4.3,6.6C747,1032.7,746.4,1035.4,745.1,1037.8z"/>
			<path fill="#05273C" d="M775.2,1034l-6.7-22.3c-0.1-0.6-0.6-0.7-0.8-0.8c-0.6-0.1-0.8-0.4-1.2-0.1c-0.4,0.1-0.7,0.6-0.8,0.8
				c-0.1,0.6-0.4,0.8-0.1,1.2l5.5,17.5l-19.1-14.4c-0.4-0.4-0.7-0.6-1.2-0.4c-0.6,0-0.8,0.4-1.1,0.7c-0.6,0.6-0.6,1.1,0,1.5
				l6.7,21.8c0.1,0.6,0.6,0.7,0.8,0.8c0.4,0.1,0.6,0.1,0.7,0.1s0.4,0,0.6-0.1c0.6-0.1,0.7-0.6,0.8-0.8c0.1-0.6,0.4-0.8,0.1-1.2
				l-5.5-17.8l18.7,14.4l0.4,0.1c0.6,0.4,0.8,0.6,1.3,0.4c0.6-0.1,0.8-0.6,0.8-0.8C775.2,1034.7,775.2,1034.2,775.2,1034z"/>
		</g>
		<g>
			<path fill="#42669A" d="M804.6,1019.5c-0.7-0.4-1.3-0.4-2,0l-5.5,2.3l3.3-6.7c1.2-2.5,1.3-4.8,0.6-7.3c-0.8-2.5-2.5-3.9-4.6-5
				c-2.5-1.2-4.8-1.3-7.3-0.6s-3.9,2.5-5,4.6l-0.7,1.3c-0.4,0.7-0.6,1.3-0.1,2c0.5,0.7,0.7,1.2,1.3,1.3c0.7,0.4,1.3,0.6,2,0.1
				c0.7-0.4,1.2-0.7,1.3-1.3l0.7-1.3c0.6-0.8,1.2-1.5,2.5-2c1.1-0.6,2-0.6,2.9,0.1c1.1,0.6,1.8,1.3,2,2.5c0.6,1.1,0.6,2-0.1,3
				l-6.2,12.7c-0.4,0.7-0.6,1.3-0.1,2c0.4,0.7,0.7,1.2,1.3,1.3c0.6,0.1,0.7,0.4,1.1,0.4c0.4,0,0.7-0.1,1.1-0.4l11.8-4.8
				c0.7-0.4,1.2-0.8,1.3-1.3c0.4-0.7,0.4-1.3,0-2C805.6,1020.3,805.2,1019.8,804.6,1019.5z"/>
			<path fill="#42669A" d="M816,994.8c-1.3-0.8-2.7-1.3-4.2-1.3c-1.3-0.1-2.7,0-4.2,0.7c-2.6,1.3-4.2,3.5-4.6,6.9
				c-0.6,2.7,0,5.7,1.3,9.1l0,0c1.5,3,3.6,5.5,6.1,7c1.8,1.1,3.5,1.5,5,1.5c1.2,0,2.3-0.4,3.3-0.8c1.3-0.7,2.5-1.5,3-2.7
				c0.6-1.2,1.3-2.6,1.5-4.2c0.6-2.9,0-5.7-1.5-8.9C820.8,998.7,818.7,996.5,816,994.8z M818.4,1010.2c-0.4,1.5-0.8,2.6-1.8,2.9
				c-0.8,0.6-2,0.4-3.5-0.6c-1.8-1.1-2.9-2.6-3.9-4.6c-0.9-2-1.3-4.2-1.2-6.1c0.4-1.5,0.8-2.6,1.9-2.9c0.4-0.1,0.7-0.4,1.1-0.4
				c0.7,0,1.3,0.4,2.5,0.8c1.8,1.1,2.9,2.7,3.9,4.8C818.3,1006.2,818.7,1008.3,818.4,1010.2z"/>
			<path fill="#42669A" d="M829.3,985.9L829.3,985.9c-0.4-0.1-0.4-0.1-0.6-0.4l0,0c-0.1-0.4-0.6-0.6-1.2-0.7l-0.6-0.4h-0.6
				c-0.1,0-0.4,0-0.4,0h-0.1l-0.6,0.4c-0.1,0.1-0.6,0.4-0.6,0.6l-3,4.8c-0.6,0.7-0.6,1.3-0.6,2c0.1,0.7,0.7,1.3,1.2,1.5
				c0.8,0.6,1.8,0.6,2.6,0.1c0.6-0.4,0.8-0.6,1.1-0.8l0.4-0.6l7.5,14.6c0.6,0.7,0.8,1.1,1.5,1.3c0.4,0.1,0.6,0.1,0.8,0.1
				c0.6,0,0.8-0.1,1.2-0.4c0.7-0.6,1.1-0.8,1.3-1.5c0.4-0.7,0.1-1.3-0.1-2L829.3,985.9z"/>
			<path fill="#42669A" d="M854,988.7c-0.8-1.3-1.9-2.5-3-3.3c-1.2-0.7-2.5-1.1-3.6-1.3c0-1.2-0.4-2.5-1.1-3.6
				c-0.8-1.3-2-2.5-3.9-2.7c-1.8-0.6-3.5-0.4-4.8,0.7c-1.5,0.8-2.6,2.3-2.9,3.9c-0.6,1.8-0.4,3.5,0.6,4.8c0.7,1.2,1.5,2,2.6,2.6
				c-0.6,1.2-0.8,2.5-0.7,3.7c0,1.5,0.6,2.9,1.3,4.2c1.3,2.3,3,3.6,5.5,4.2c0.8,0.4,1.8,0.4,2.5,0.4c1.5,0,3-0.6,4.5-1.3
				c2.3-1.3,3.6-3,4.2-5.5C855.6,993.3,855.1,991.1,854,988.7z M841.8,984.8c-0.1,0.6-0.4,0.7-0.7,0.8c-0.6,0.1-0.7,0.4-1.1,0.1
				c-0.6-0.1-0.7-0.4-0.8-0.7c-0.1-0.6-0.4-0.7-0.1-1.1c0.1-0.6,0.4-0.7,0.7-0.8c0.2-0.1,0.6-0.1,0.7-0.1c0.1,0,0.4,0,0.6,0
				c0.6,0.1,0.7,0.4,0.8,0.7C842,983.8,842,984.3,841.8,984.8z M849.5,991.6c0.6,0.8,0.7,2,0.6,2.9c-0.4,1.1-0.8,2-1.9,2.5
				c-1.1,0.5-2,0.7-3,0.6c-1.1-0.4-2-0.8-2.5-1.9c-0.6-1.1-0.7-2-0.6-3c0.4-1.1,0.8-2,1.9-2.5c0.7-0.6,1.3-0.6,2-0.6
				c0.6,0,0.8,0,1.2,0.1C848.2,990,848.9,990.5,849.5,991.6z"/>
		</g>
	</g>
</g>
</svg>
