<?xml version="1.0" encoding="utf-8"?>
<!-- Generator: Adobe Illustrator 18.0.0, SVG Export Plug-In . SVG Version: 6.00 Build 0)  -->
<!DOCTYPE svg PUBLIC "-//W3C//DTD SVG 1.1//EN" "http://www.w3.org/Graphics/SVG/1.1/DTD/svg11.dtd">
<svg version="1.1" id="Layer_1" xmlns="http://www.w3.org/2000/svg" xmlns:xlink="http://www.w3.org/1999/xlink" x="0px" y="0px"
	 viewBox="63.2 608.7 676.1 400" enable-background="new 63.2 608.7 676.1 400" xml:space="preserve">
<g>
	<g>
		<g>
			<path fill="#42669A" d="M308,961.8c0,3.1-2.8,5.2-7.6,5.2c-1.1,0-2.5-0.1-3.3-0.5c-1.6-0.5-1.6-1.5-1.6-2.3v-12.8
				c0-1,0-2.1,1.6-2.3c0.7-0.3,2.3-0.5,3.3-0.5c4.7,0,7.2,2,7.2,4.7c0,2.1-1.1,3.3-3.3,3.9C306.7,957.9,308,959.7,308,961.8z
				 M298.7,951.9v4.3h1.7c0.7,0,1.1-0.1,1.7-0.3c1-0.5,1.5-1,1.5-2.1c0-1.3-1-2.2-3.3-2.2C299.8,951.8,299.3,951.8,298.7,951.9z
				 M304,961.4c0-1.1-0.6-2-1.7-2.2c-0.6-0.1-1.1-0.3-2.1-0.3h-1.7v4.7c0.6,0.1,1.1,0.1,1.7,0.1C303,963.7,304,962.9,304,961.4z"/>
			<path fill="#42669A" d="M321.7,961.8c0.3-0.6,0.5-1.1,0.5-2.1v-9.5c0-1,0.6-1.6,1.7-1.6s1.7,0.6,1.7,1.6v9.7
				c0,1.5-0.3,2.5-0.7,3.6c-1.1,2.6-3.6,3.6-6.4,3.6c-3.2,0-5.4-1.1-6.4-3.6c-0.5-1-0.7-2.2-0.7-3.6v-9.9c0-1,0.6-1.6,2-1.6
				s2,0.6,2,1.6v9.7c0,0.7,0.1,1.5,0.5,2.1c0.6,1.3,1.7,2.1,3.2,2.1C320.3,963.7,321.2,963,321.7,961.8z"/>
			<path fill="#42669A" d="M333.5,965.6c0,1-0.6,1.6-2,1.6c-1.3,0-2-0.6-2-1.6v-15.4c0-1,0.6-1.6,2-1.6c1.3,0,2,0.6,2,1.6V965.6z"/>
			<path fill="#42669A" d="M346.9,963.5c1,0,1.5,0.6,1.5,1.7s-0.5,1.7-1.5,1.7h-7.5c-1.3,0-2-0.6-2-2v-14.7c0-1,0.6-1.6,2-1.6
				s2,0.6,2,1.6v13.2H346.9L346.9,963.5z"/>
			<path fill="#42669A" d="M356.3,967.1c-1.1,0-2.3-0.1-3.3-0.5c-1.6-0.5-1.6-1.5-1.6-2.3v-12.9c0-1,0-2.1,1.6-2.3
				c0.7-0.3,2.3-0.5,3.6-0.5c6.3,0,9.9,3.3,9.9,9.1S362.4,967.1,356.3,967.1z M356.5,963.6c3.8,0,5.9-2.2,5.9-5.9c0-3.7-2.1-6-5.9-6
				c-0.5,0-1,0-1.5,0.1v11.5C355.5,963.6,355.9,963.6,356.5,963.6z"/>
			<path fill="#42669A" d="M373.3,965.6c0,1-0.6,1.6-2,1.6s-2-0.6-2-1.6v-15.4c0-1,0.6-1.6,2-1.6s2,0.6,2,1.6V965.6z"/>
			<path fill="#42669A" d="M381.1,965.6c0,1-0.6,1.6-1.7,1.6s-1.7-0.6-1.7-1.6v-14.7c0-1.5,0.7-2.1,2.3-2.1c1.7,0,2.3,0.7,3,1.7
				l6.5,11.5v-11.6c0-1,0.6-1.6,1.7-1.6s1.7,0.6,1.7,1.6v14.7c0,1.3-0.7,2.1-2.3,2.1c-1.5,0-2.2-0.6-2.8-1.7l-7-11.6v11.7
				L381.1,965.6L381.1,965.6z"/>
			<path fill="#42669A" d="M405.6,960.2c-1,0-1.5-0.6-1.5-1.7s0.5-1.7,1.5-1.7h4.1c1.3,0,2,0.6,2,2v5.2c0,1.1-0.5,1.7-1.6,2.3
				c-1.1,0.5-3,0.7-4.6,0.7c-5.2,0-9-3.2-9-9.1c0-6,3.8-9.2,8.8-9.2c1.7,0,3.3,0.5,4.7,1.1c0.9,0.6,1.5,1.1,1.5,1.7
				c0,0.7-0.9,1.7-1.7,1.7c-0.5,0-0.7-0.5-1.5-0.7c-0.9-0.5-2-0.7-3-0.7c-3.1,0-4.9,2.1-4.9,5.9c0,3.9,2.2,6,5.3,6
				c0.7,0,1.7-0.1,2.3-0.5v-3.3h-2.3L405.6,960.2L405.6,960.2z"/>
			<path fill="#42669A" d="M428.9,965.8c0,0.7-0.5,1-1.1,1c-0.7,0-1.1-0.5-1.1-1v-14.9h-4.8c-0.7,0-1-0.5-1-1s0.5-1.1,1-1.1h12.3
				c0.7,0,1,0.5,1,1.1s-0.5,1-1,1h-4.9L428.9,965.8L428.9,965.8z"/>
			<path fill="#42669A" d="M445,948.3c5.2,0,8.6,3.6,8.6,9.2c0,5.6-3.3,9.2-8.6,9.2c-5.3,0-8.6-3.6-8.6-9.2
				C436.4,951.9,439.7,948.3,445,948.3z M445,965c3.7,0,6.2-2.8,6.2-7.4s-2.3-7.4-6.2-7.4c-3.7,0-6.2,3-6.2,7.4
				C438.9,962,441.2,965,445,965z"/>
			<path fill="#42669A" d="M468.2,963c-0.5,0.7-0.7,1.1-1.5,1.1c-0.7,0-1.1-0.5-1.5-1.1l-4.9-11.5l-0.9,14.2c-0.1,0.7-0.5,1-1.1,1
				s-1.1-0.5-1.1-1l1.1-15.7c0.1-1,0.5-1.5,1.6-1.5c1,0,1.6,0.5,2.1,1.5l4.9,11.3l4.9-11.3c0.5-1,0.9-1.5,2.1-1.5s1.5,0.6,1.5,1.5
				l1.1,15.7c0,0.7-0.5,1-1.1,1c-0.7,0-1.1-0.5-1.1-1l-1-14.2L468.2,963z"/>
			<path fill="#42669A" d="M488.9,948.3c5.2,0,8.6,3.6,8.6,9.2c0,5.6-3.3,9.2-8.6,9.2c-5.3,0-8.6-3.6-8.6-9.2
				C480.3,952.2,483.6,948.3,488.9,948.3z M488.9,965c3.7,0,6.2-2.8,6.2-7.4s-2.3-7.4-6.2-7.4c-3.7,0-6.2,3-6.2,7.4
				C482.6,962,485,965,488.9,965z"/>
			<path fill="#42669A" d="M513.6,966.2c0,0.5-0.5,0.7-1.1,0.7c-1,0-1.3-0.5-1.7-1.1l-3.9-5.7c-0.6,0.1-1.1,0.1-1.7,0.1
				c-0.5,0-1,0-1.3-0.1v5.9c0,0.7-0.5,1-1.1,1s-1.1-0.5-1.1-1v-15.4c0-0.7,0-1.5,1.1-1.7c0.7-0.3,2-0.5,3-0.5c4.3,0,7.2,2.1,7.2,5.6
				c0,2.5-1.3,4.4-3.7,5.3l3.8,5.4C513.6,965.7,513.6,966,513.6,966.2z M505.2,958.2c3.3,0,5.2-1.5,5.2-3.8c0-2.5-2-3.7-4.7-3.7
				c-0.6,0-1.1,0.1-1.7,0.1v7.4C504.1,958.2,504.7,958.2,505.2,958.2z"/>
			<path fill="#42669A" d="M529.3,966.2c0,0.5-0.5,0.7-1.1,0.7c-1,0-1.3-0.5-1.7-1.1l-3.9-5.7c-0.6,0.1-1.1,0.1-1.7,0.1
				c-0.5,0-1,0-1.3-0.1v5.9c0,0.7-0.5,1-1.1,1c-0.7,0-1.1-0.5-1.1-1v-15.4c0-0.7,0-1.5,1.1-1.7c0.7-0.3,2-0.5,3-0.5
				c4.3,0,7.2,2.1,7.2,5.6c0,2.5-1.3,4.4-3.7,5.3l3.8,5.4C529.2,965.7,529.3,966,529.3,966.2z M520.8,958.2c3.3,0,5.2-1.5,5.2-3.8
				c0-2.5-2-3.7-4.7-3.7c-0.6,0-1.1,0.1-1.7,0.1v7.4C520,958.2,520.3,958.2,520.8,958.2z"/>
			<path fill="#42669A" d="M540.3,948.3c5.2,0,8.6,3.6,8.6,9.2c0,5.6-3.3,9.2-8.6,9.2c-5.3,0-8.6-3.6-8.6-9.2
				C531.7,952.2,535.1,948.3,540.3,948.3z M540.3,965c3.7,0,6.2-2.8,6.2-7.4s-2.3-7.4-6.2-7.4c-3.7,0-6.2,3-6.2,7.4
				C534,962,536.6,965,540.3,965z"/>
			<path fill="#42669A" d="M558.6,965.7c-0.3,0.9-0.7,1.1-1.7,1.1c-1,0-1.5-0.5-1.6-1.1l-4.1-15.5c-0.1-0.3-0.1-0.6-0.1-0.7
				c0-0.5,0.3-0.7,1.1-0.7c0.8,0,1.1,0.5,1.3,1.1l3.3,14.2l4.1-13.1c0.3-0.7,0.6-1.1,1.6-1.1s1.3,0.5,1.6,1.1l4.1,13.1l3.6-14.2
				c0.3-0.7,0.5-1.1,1.1-1.1c0.9,0,1.1,0.5,1.1,0.7c0,0.2,0,0.6-0.1,0.7l-4.1,15.5c-0.3,0.7-0.6,1.1-1.6,1.1s-1.5-0.5-1.7-1.1
				l-4.1-13.1L558.6,965.7z"/>
			<path fill="#42669A" d="M580.7,948.7c0,0.5-0.3,1.5-1.1,4.1c-0.5,1.1-0.7,1.5-1.5,1.5c-0.7,0-0.9-0.5-0.9-0.7
				c0-0.2,0.1-0.5,0.1-0.7l1-3.8c0.1-0.6,0.5-1.1,1.3-1.1C580.5,948,580.7,948.2,580.7,948.7z"/>
			<path fill="#42669A" d="M583.7,953.4c0-3,2.3-4.7,5.7-4.7c1.6,0,3.1,0.5,4.3,1.1c0.7,0.5,0.9,0.7,0.9,1.1c0,0.6-0.5,1.1-1,1.1
				c-0.3,0-0.5-0.3-1-0.5c-1-0.6-2.1-0.9-3.2-0.9c-2.2,0-3.3,1.1-3.3,2.5c0,3.8,9,3,9,8.8c0,3.3-2.6,5.2-6.2,5.2
				c-2,0-3.3-0.6-4.7-1.5c-0.6-0.5-0.9-0.7-0.9-1.1c0-0.6,0.5-1.1,1-1.1c0.5,0,0.6,0.3,1.1,0.6c1,0.7,2.1,1.1,3.3,1.1
				c2.2,0,3.7-1.1,3.7-3C592.8,957.7,583.7,958.9,583.7,953.4z"/>
			<path fill="#42669A" d="M605.1,953.4c0-3,2.3-4.7,5.7-4.7c1.6,0,3.1,0.5,4.3,1.1c0.7,0.5,0.9,0.7,0.9,1.1c0,0.6-0.5,1.1-1,1.1
				c-0.3,0-0.5-0.3-1-0.5c-1-0.6-2.1-0.9-3.2-0.9c-2.2,0-3.3,1.1-3.3,2.5c0,3.8,9,3,9,8.8c0,3.3-2.6,5.2-6.2,5.2
				c-2,0-3.3-0.6-4.7-1.5c-0.6-0.5-0.9-0.7-0.9-1.1c0-0.6,0.5-1.1,1-1.1c0.5,0,0.6,0.3,1.1,0.6c1,0.7,2.1,1.1,3.3,1.1
				c2.2,0,3.7-1.1,3.7-3C614.1,957.7,605.1,958.9,605.1,953.4z"/>
			<path fill="#42669A" d="M627.9,948.3c5.2,0,8.6,3.6,8.6,9.2c0,5.6-3.3,9.2-8.6,9.2s-8.6-3.6-8.6-9.2
				C619.4,952.2,622.8,948.3,627.9,948.3z M627.9,965c3.7,0,6.2-2.8,6.2-7.4s-2.3-7.4-6.2-7.4c-3.8,0-6.2,3-6.2,7.4
				C621.8,962,624.4,965,627.9,965z"/>
			<path fill="#42669A" d="M648.5,965c1.1,0,2.3-0.5,3.3-0.9c0.6-0.5,0.9-0.7,1.1-0.7c0.6,0,1,0.7,1,1.1s-0.5,0.9-1.1,1.3
				c-1.1,0.7-2.8,1.1-4.6,1.1c-4.9,0-8.5-3.7-8.5-9.4s3.3-9.2,8.5-9.2c1.7,0,3.3,0.5,4.6,1.1c0.7,0.5,1.1,0.9,1.1,1.3
				c0,0.5-0.5,1.1-1,1.1c-0.5,0-0.7-0.5-1.1-0.7c-0.9-0.6-2.1-0.9-3.3-0.9c-3.6,0-6,2.5-6,7.2C642.4,962.1,644.8,965,648.5,965z"/>
			<path fill="#42669A" d="M660.2,965.8c0,0.7-0.5,1-1.1,1c-0.7,0-1.1-0.5-1.1-1v-16.3c0-0.7,0.5-1,1.1-1c0.7,0,1.1,0.5,1.1,1V965.8
				z"/>
			<path fill="#42669A" d="M673.4,956.3c0.7,0,1,0.5,1,1s-0.5,1.1-1,1.1h-6.2v6.2h7.5c0.7,0,1,0.5,1,1.1s-0.5,1.1-1,1.1h-8.5
				c-0.9,0-1.1-0.5-1.1-1.1v-15.5c0-0.9,0.5-1.1,1.1-1.1h8.4c0.7,0,1,0.5,1,1.1s-0.5,1-1,1h-7.4v5.6h6.2L673.4,956.3L673.4,956.3z"
				/>
			<path fill="#42669A" d="M686.1,965.8c0,0.7-0.5,1-1.1,1c-0.7,0-1.1-0.5-1.1-1v-14.9h-4.8c-0.7,0-1-0.5-1-1s0.5-1.1,1-1.1h12.3
				c0.7,0,1,0.5,1,1.1s-0.5,1-1,1h-4.8L686.1,965.8L686.1,965.8z"/>
			<path fill="#42669A" d="M706.7,949.6c0.5-0.7,0.7-0.9,1.6-0.9c0.7,0,1.1,0.3,1.1,0.7c0,0.5-0.3,0.7-0.6,1.1l-6,10.1v5.2
				c0,0.7-0.5,1-1.1,1s-1.1-0.5-1.1-1v-5.2l-6-10.1c-0.5-0.5-0.6-0.9-0.6-1.1c0-0.5,0.5-0.7,1.1-0.7c0.9,0,1.1,0.5,1.6,0.9l4.9,8.8
				L706.7,949.6z"/>
		</g>
		<g>
			<path fill="#42669A" d="M310.2,996.8c0,3.6-3.1,6-8.8,6c-1.3,0-3-0.1-3.9-0.5c-1.7-0.6-2-1.7-2-2.8v-14.4c0-1.1,0-2.3,2-2.8
				c0.9-0.3,2.5-0.5,3.9-0.5c5.2,0,8,2.1,8,5.6c0,2.3-1.3,3.9-3.8,4.6C308.8,992.6,310.2,994.4,310.2,996.8z M299.8,985.7v4.7h2
				c0.7,0,1.5-0.1,2-0.3c1.1-0.5,1.7-1.1,1.7-2.3c0-1.6-1.1-2.5-3.7-2.5C300.9,985.4,300.3,985.4,299.8,985.7z M305.8,996.6
				c0-1.1-0.6-2.1-2.1-2.5c-0.6-0.3-1.3-0.5-2.2-0.5h-2v5.4c0.6,0.1,1.1,0.1,2,0.1C304.8,999.5,305.8,998.1,305.8,996.6z"/>
			<path fill="#42669A" d="M331,1001.6c0,0.7-0.6,1.1-2.1,1.1s-2.1-0.5-2.3-1.5l-1.1-3.3h-7.6l-1.1,3.3c-0.5,1-0.9,1.5-2.3,1.5
				s-2-0.6-2-1.1c0-0.5,0.1-0.7,0.5-1.5l5.9-16c0.6-1.7,1.1-2.2,3.1-2.2s2.5,0.7,3.1,2.2l5.9,16C330.9,1000.7,331,1001.2,331,1001.6
				z M317.3,979.2c0-0.7,0.6-1.1,1.1-1.6l1.5-1.1c0.5-0.5,1-0.7,2-0.7s1.6,0.6,2,0.7l1.5,1.1c0.6,0.5,1.1,0.9,1.1,1.6
				s-0.6,1.6-1.5,1.6c-0.6,0-0.9-0.3-2.1-1.1L322,979l-0.9,0.7c-1,0.7-1.7,1.1-2.1,1.1C318,980.6,317.3,979.9,317.3,979.2z
				 M324.2,994.4l-2.6-7.6l-2.6,7.6H324.2z"/>
			<path fill="#42669A" d="M341.1,1001.1c0,1.1-0.7,1.7-2.1,1.7c-1.5,0-2.1-0.6-2.1-1.7v-15.3h-4.3c-1.1,0-1.7-0.7-1.7-2
				s0.6-2,1.7-2h12.9c1.1,0,1.7,0.7,1.7,2c0,1.3-0.6,2-1.7,2h-4.3v15.2L341.1,1001.1L341.1,1001.1z"/>
			<path fill="#42669A" d="M354.8,1001.1c0,1.1-0.7,1.7-2.1,1.7c-1.5,0-2.1-0.6-2.1-1.7v-17.5c0-1.1,0.7-1.7,2.1-1.7
				c1.5,0,2.1,0.6,2.1,1.7V1001.1z"/>
			<path fill="#42669A" d="M374.4,1001.6c0,0.7-0.6,1.1-2.1,1.1c-2,0-2.3-0.6-3.2-2l-3.3-4.9c-0.5,0-0.9,0.1-1.3,0.1
				c-0.5,0-0.9,0-1.1-0.1v5.3c0,1.1-0.7,1.7-2.1,1.7c-1.4,0-2.1-0.6-2.1-1.7v-16c0-1.1,0-2.3,2-2.8c0.9-0.3,2.5-0.5,3.8-0.5
				c5.3,0,8.5,2.3,8.5,6.8c0,2.8-1.3,4.8-3.7,6.2l3.2,4.3C374.3,1000.6,374.4,1001.1,374.4,1001.6z M364.8,992.3
				c3,0,4.6-1.3,4.6-3.3c0-2.2-1.7-3.3-4.3-3.3c-0.6,0-1.1,0.1-1.6,0.1v6.5C363.9,992.3,364.3,992.3,364.8,992.3z"/>
			<path fill="#42669A" d="M396.2,1000.1c0.7,0,1.1,0.5,1.1,1.1s-0.5,1.1-1.1,1.1h-8.8c-1,0-1.5-0.5-1.5-1.5v-18.2
				c0-0.7,0.5-1.1,1.3-1.1c0.8,0,1.3,0.5,1.3,1.1v17L396.2,1000.1L396.2,1000.1z"/>
			<path fill="#42669A" d="M417.4,1002.1c0,0.5-0.5,0.7-1.1,0.7c-0.7,0-1.3-0.5-1.6-1l-1.7-4.7h-8.8l-1.7,4.7c-0.3,0.7-0.6,1-1.6,1
				c-0.9,0-1.1-0.5-1.1-0.7c0-0.5,0.1-0.7,0.3-1l6.9-17.6c0.5-1.1,0.7-1.5,2-1.5c1.3,0,1.6,0.5,2,1.5l6.8,17.6
				C417.3,1001.3,417.4,1001.8,417.4,1002.1z M412,994.9l-3.6-9.5l-3.6,9.5H412z"/>
			<path fill="#42669A" d="M428.4,987.3c0-3.3,2.6-5.4,6.5-5.4c1.7,0,3.6,0.5,4.7,1.3c0.7,0.5,1.1,0.9,1.1,1.3
				c0,0.6-0.6,1.3-1.1,1.3c-0.5,0-0.6-0.3-1.1-0.6c-1.1-0.7-2.2-1.1-3.6-1.1c-2.3,0-3.8,1.1-3.8,3c0,4.3,10.1,3.3,10.1,10.1
				c0,3.7-3.1,5.9-7.2,5.9c-2.1,0-3.8-0.7-5.3-1.7c-0.7-0.5-1-0.9-1-1.5s0.6-1.3,1.1-1.3c0.5,0,0.7,0.3,1.3,0.7
				c1.1,0.7,2.3,1.3,3.8,1.3c2.5,0,4.3-1.3,4.3-3.3C438.7,992.6,428.4,993.6,428.4,987.3z"/>
			<path fill="#42669A" d="M454.8,981.9c6,0,9.9,4.1,9.9,10.6c0,6.3-3.8,10.6-9.9,10.6c-6,0-9.9-4.1-9.9-10.6
				C444.8,985.9,448.6,981.9,454.8,981.9z M454.8,1000.7c4.3,0,7.2-3.2,7.2-8.4c0-4.9-2.8-8.4-7.2-8.4c-4.4,0-7.2,3.2-7.2,8.4
				C447.5,997.4,450.5,1000.7,454.8,1000.7z"/>
			<path fill="#42669A" d="M478.1,1000.7c1.5,0,2.8-0.5,3.7-1c0.7-0.5,1-0.7,1.5-0.7c0.6,0,1.1,0.7,1.1,1.1c0,0.6-0.6,1-1.3,1.6
				c-1.5,0.9-3.1,1.5-5.2,1.5c-5.7,0-9.7-4.1-9.7-10.7c0-6.4,3.9-10.5,9.5-10.5c2,0,3.7,0.6,5.2,1.5c0.9,0.6,1.3,1,1.3,1.6
				s-0.6,1.3-1.1,1.3c-0.5,0-0.7-0.5-1.3-0.7c-1.1-0.7-2.3-1-3.8-1c-4.1,0-7,3-7,8C471,997.4,473.8,1000.7,478.1,1000.7z"/>
			<path fill="#42669A" d="M491.4,1001.6c0,0.7-0.5,1.1-1.3,1.1c-0.9,0-1.3-0.5-1.3-1.1V983c0-0.7,0.5-1.1,1.3-1.1
				c0.9,0,1.3,0.5,1.3,1.1V1001.6z"/>
			<path fill="#42669A" d="M506.5,990.7c0.7,0,1.1,0.5,1.1,1.1c0,0.7-0.5,1.1-1.1,1.1h-7v7.2h8.5c0.7,0,1.1,0.5,1.1,1.1
				s-0.5,1.1-1.1,1.1h-9.9c-1,0-1.5-0.5-1.5-1.5v-17.5c0-1,0.5-1.5,1.5-1.5h9.4c0.7,0,1.1,0.5,1.1,1.1c0,0.7-0.5,1.1-1.1,1.1h-8.3
				v6.3H506.5L506.5,990.7z M504.1,979.2c-1.7,1-2.1,1.1-2.3,1.1c-0.7,0-1-0.6-1-1.1s0.5-0.7,1.1-1.1l2.3-1.7
				c0.6-0.5,0.7-0.6,1.1-0.6c0.7,0,1.1,0.7,1.1,1.3C506.5,978,505.4,978.4,504.1,979.2z"/>
			<path fill="#42669A" d="M521.1,1001.6c0,0.7-0.5,1.1-1.3,1.1c-0.9,0-1.3-0.5-1.3-1.1v-17h-5.6c-0.7,0-1.1-0.5-1.1-1.1
				s0.5-1.1,1.1-1.1H527c0.7,0,1.1,0.5,1.1,1.1s-0.5,1.1-1.1,1.1h-5.6v17H521.1z"/>
			<path fill="#42669A" d="M541.3,990.7c0.7,0,1.1,0.5,1.1,1.1c0,0.7-0.5,1.1-1.1,1.1h-7v7.2h8.5c0.7,0,1.1,0.5,1.1,1.1
				s-0.5,1.1-1.1,1.1h-9.7c-1,0-1.5-0.5-1.5-1.5v-17.5c0-1,0.5-1.5,1.5-1.5h9.4c0.7,0,1.1,0.5,1.1,1.1c0,0.7-0.5,1.1-1.1,1.1h-8.3
				v6.3H541.3L541.3,990.7z M538.9,979.2c-1.7,1-2.1,1.1-2.3,1.1c-0.7,0-1-0.6-1-1.1s0.5-0.7,1.1-1.1l2.3-1.7
				c0.6-0.5,0.7-0.6,1.1-0.6c0.7,0,1.1,0.7,1.1,1.3C541.4,978,540.4,978.4,538.9,979.2z"/>
			<path fill="#42669A" d="M560.5,1002.8c-1.1,0-2.6-0.1-3.6-0.5c-1.3-0.5-1.3-1-1.3-2v-16.3c0-0.7,0-1.7,1.3-2
				c0.7-0.3,2.3-0.5,3.6-0.5c7.4,0,11.5,3.7,11.5,10.2C572.1,999.1,567.8,1002.8,560.5,1002.8z M560.6,1000.6c5.6,0,8.6-3,8.6-8.3
				c0-5.3-3-8.3-8.6-8.3c-0.7,0-1.6,0.1-2.3,0.3v15.9C559.2,1000.5,559.9,1000.6,560.6,1000.6z"/>
			<path fill="#42669A" d="M586.2,990.7c0.7,0,1.1,0.5,1.1,1.1c0,0.7-0.5,1.1-1.1,1.1h-6.9v7.2h8.5c0.7,0,1.1,0.5,1.1,1.1
				s-0.5,1.1-1.1,1.1h-9.7c-1,0-1.5-0.5-1.5-1.5v-17.5c0-1,0.5-1.5,1.5-1.5h9.4c0.7,0,1.1,0.5,1.1,1.1c0,0.7-0.5,1.1-1.1,1.1h-8.3
				v6.3H586.2L586.2,990.7z"/>
			<path fill="#42669A" d="M605.6,1002.8c-1.1,0-2.6-0.1-3.6-0.5c-1.3-0.5-1.3-1-1.3-2v-16.3c0-0.7,0-1.7,1.3-2
				c0.7-0.3,2.3-0.5,3.6-0.5c7.4,0,11.5,3.7,11.5,10.2C617.1,999.1,612.9,1002.8,605.6,1002.8z M605.6,1000.6c5.6,0,8.6-3,8.6-8.3
				c0-5.3-3-8.3-8.6-8.3c-0.7,0-1.6,0.1-2.3,0.3v15.9C604,1000.5,605.1,1000.6,605.6,1000.6z"/>
			<path fill="#42669A" d="M631.4,990.7c0.7,0,1.1,0.5,1.1,1.1c0,0.7-0.5,1.1-1.1,1.1h-7v7.2h8.5c0.7,0,1.1,0.5,1.1,1.1
				s-0.5,1.1-1.1,1.1h-9.7c-1,0-1.5-0.5-1.5-1.5v-17.5c0-1,0.5-1.5,1.5-1.5h9.4c0.7,0,1.1,0.5,1.1,1.1c0,0.7-0.5,1.1-1.1,1.1h-8.4
				v6.3H631.4L631.4,990.7z"/>
			<path fill="#42669A" d="M650.4,998.4c-0.5,0.9-0.7,1.1-1.6,1.1c-0.7,0-1.1-0.5-1.7-1.1l-5.9-12.9l-1.1,16.1
				c-0.1,0.7-0.5,1.1-1.3,1.1c-0.9,0-1.1-0.5-1.1-1.1l1.3-18c0.1-1.1,0.5-1.7,1.7-1.7c1.1,0,1.7,0.5,2.2,1.7l5.9,12.9l5.9-12.9
				c0.5-1.1,1-1.7,2.2-1.7s1.7,0.6,1.7,1.7l1.3,18c0,0.7-0.5,1.1-1.1,1.1c-0.9,0-1.3-0.5-1.5-1.1l-1.1-16.1L650.4,998.4z"/>
			<path fill="#42669A" d="M681.4,1002.1c0,0.5-0.5,0.7-1.1,0.7c-1,0-1.3-0.5-1.6-1l-1.7-4.7H668l-1.7,4.7c-0.3,0.7-0.6,1-1.6,1
				c-0.9,0-1.1-0.5-1.1-0.7c0-0.5,0.1-0.7,0.3-1l6.9-17.6c0.5-1.1,0.7-1.5,2-1.5s1.6,0.5,2,1.5l6.8,17.6
				C681.2,1001.3,681.4,1001.8,681.4,1002.1z M676,994.9l-3.6-9.5l-3.6,9.5H676z"/>
			<path fill="#42669A" d="M688.1,1001.6c0,0.7-0.5,1.1-1.3,1.1c-0.9,0-1.3-0.5-1.3-1.1V983c0-0.7,0.5-1.1,1.3-1.1
				c0.9,0,1.3,0.5,1.3,1.1V1001.6z"/>
			<path fill="#42669A" d="M696.2,1001.6c0,0.7-0.5,1.1-1.1,1.1c-0.9,0-1.3-0.5-1.3-1.1v-18.2c0-1,0.6-1.5,1.7-1.5s2,0.6,2.3,1.3
				l9.9,15.5V983c0-0.7,0.5-1.1,1.1-1.1c0.9,0,1.3,0.5,1.3,1.1v18.2c0,1-0.6,1.5-1.6,1.5c-1.1,0-1.7-0.6-2.2-1.5l-10.1-15.7
				L696.2,1001.6L696.2,1001.6z"/>
		</g>
	</g>
	<g>
		<path fill="#899A3A" d="M661.7,750.3c-2.3,0-4.1,2-4.1,4.1v13.4h8.5v-13.4C665.8,752.4,663.9,750.3,661.7,750.3z M662.7,764.9
			h-2.1v-10.2c0-0.6,0.5-1.1,1.1-1.1s1.1,0.5,1.1,1.1v10.2H662.7z"/>
		<path fill="#899A3A" d="M657.8,743.6h7.8c0.9,0,1.6-0.7,1.6-1.6c0-0.9-0.7-1.6-1.6-1.6h-7.8c-0.9,0-1.6,0.7-1.6,1.6
			C656.3,743,656.9,743.6,657.8,743.6z"/>
		<path fill="#899A3A" d="M665.7,747.5c0.9,0,1.6-0.7,1.6-1.6s-0.7-1.6-1.6-1.6h-7.8c-0.9,0-1.6,0.7-1.6,1.6c0,0.9,0.7,1.6,1.6,1.6
			H665.7z"/>
		<path fill="#899A3A" d="M405.5,767.5v-17.1c0-2.8-2.3-4.9-4.9-4.9s-4.9,2.3-4.9,4.9v17.1H405.5L405.5,767.5z M398.6,750.3
			c0-1.1,0.9-2,2-2c1.1,0,2,0.9,2,2v14.2h-3.7v-14.2H398.6z"/>
		<path fill="#899A3A" d="M429.8,767.5v-17.1c0-2.8-2.3-4.9-4.9-4.9s-4.9,2.3-4.9,4.9v17.1H429.8L429.8,767.5z M422.7,750.3
			c0-1.1,0.9-2,2-2c1.1,0,2,0.9,2,2v14.2h-3.7v-14.2H422.7z"/>
		
			<linearGradient id="SVGID_1_" gradientUnits="userSpaceOnUse" x1="272.8255" y1="527.3348" x2="272.8255" y2="472.5161" gradientTransform="matrix(3.4457 0 0 -3.4457 -440.6899 2499.1436)">
			<stop  offset="0" style="stop-color:#41669A"/>
			<stop  offset="0.3946" style="stop-color:#899B3A"/>
			<stop  offset="0.6493" style="stop-color:#899B3A"/>
			<stop  offset="0.8248" style="stop-color:#1D433F"/>
			<stop  offset="1" style="stop-color:#04273D"/>
		</linearGradient>
		<path fill="url(#SVGID_1_)" d="M732,819.7c0-6.2-3.1-13.1-11.5-13.7c0-0.3,0-0.5,0-0.6c0-8.3-6.5-14.8-14.8-14.8
			c-1.3,0-2.6,0.3-3.9,0.6v-18.4l1.1-3.6c0.3-0.7,0.7-0.9,1.3-1.5c0.7-0.7-0.1-2-0.1-2l-12.9-19.5l-0.6-0.9v-5.2
			c0-0.9-0.7-1.6-1.6-1.6c-0.9,0-1.6,0.7-1.6,1.6v4.1h-3.2v-4.1c0-0.9-0.7-1.6-1.6-1.6s-1.6,0.7-1.6,1.6v4.1h-4.7v-12.6h2.1
			c0.6,0,1.1-0.5,1.5-0.7c0.5-0.6,0.3-1.1,0-1.7l-3.7-5.9l-8.5-21.6v-3.9c0-0.9-0.7-1.6-1.6-1.6s-1.6,0.7-1.6,1.6v2.8h-4.7v-2.6
			c0-0.9-0.7-1.6-1.6-1.6s-1.6,0.7-1.6,1.6v3.9l-8.5,21.6l-3.7,5.9c-0.5,0.5-0.5,1.1,0,1.7s0.7,0.7,1.5,0.7h2.1v12.6h-6.2v-3.7
			c0-0.9-0.7-1.6-1.6-1.6c-0.9,0-1.6,0.7-1.6,1.6v3.7h-3.2v-3.7c0-0.9-0.7-1.6-1.6-1.6s-1.6,0.7-1.6,1.6v4.7l-14.2,20.2
			c0,0-0.9,1.1-0.1,2c0.6,0.6,1.1,0.7,1.3,1.5l1.1,3.6v7.6c-2.6-2.1-5.6-3.7-8.8-4.7v-53c0-0.9-0.7-1.6-1.6-1.6s-1.6,0.7-1.6,1.6
			v51.9c-1.7-0.5-3.3-0.5-4.9-0.5c-0.7,0-1.3,0-2.1,0.1c-0.7-10.1-9.4-18.4-19.8-18.4c-0.1,0-0.3,0-0.5,0
			c-5.4-12.8-17.5-20.8-31.3-20.8c-15.5,0-29.1,10.6-32.9,25.5c-3.8-2.3-8.4-3.6-12.8-3.6c-5.4,0-10.2,1.7-14.4,4.6l-1.5-6.3h3.3
			c0.9,0,1.6-0.7,1.6-1.6v-7.5c0-0.9-0.7-1.6-1.6-1.6h-4.6v-3h2.3c0.7,0,1.1-0.5,1.5-1c0.3-0.7,0-1.3-0.5-1.7L476.3,727
			c-0.6-0.6-1.5-0.6-2.1,0l-14,12.2c-0.6,0.5-0.7,1.1-0.5,1.7c0.3,0.7,0.7,1,1.5,1h2.3v3h-4.4c-0.9,0-1.6,0.7-1.6,1.6v7.5
			c0,0.9,0.7,1.6,1.6,1.6h3.3l-2.2,10.1h-22.4v-32.2c0-16.4-14.2-22.3-18.6-23.8v-5.3c0-3.2-3.6-4.7-5.6-5.6v-0.9v-14.2
			c0-0.9-0.7-1.6-1.6-1.6c-0.9,0-1.6,0.7-1.6,1.6v14.2v0.7c-2.1,0.7-5.6,2.3-5.6,5.6v5.3c-4.3,1.5-18.6,7.5-18.6,23.8v32.2H368
			c-1.7-3-4.7-4.8-8.5-4.9c-2.8-6-8.8-9.9-15.5-9.9c-7.5,0-13.9,4.7-16.1,11.6c-1.7-0.9-3.6-1.3-5.6-1.3c-7.2,0-12.8,5.7-12.8,12.8
			c0,0.1,0,0.3,0,0.3c-1.5,0.1-4.7,0.6-7.2,3.1c-2.1,2.1-3,4.9-2.8,8.8c0.1,1.7,0.6,3.2,1.1,4.7c-0.3,0.5-0.5,1-0.6,1.5
			c-2.1-1.1-4.4-1.7-6.8-1.7c-8.3,0-14.8,6.5-14.8,14.8c0,0.3,0,0.5,0,0.6c-2.2,0.1-5.6,1.1-8.4,3.8c-1.7,1.7-3.6,4.8-3.3,9.9
			c0.5,7,5.6,12.3,11.8,12.8c2.1,2.8,10.7,10.8,41.1,10.8l0,0c107.7,0,161,16,161.3,16c31.8,8.5,61.4,11.6,87.6,11.6
			c33.9,0,62.5-5.3,83.9-11.1c38.6-10.6,62.6-25.5,65.8-27.6C726.4,832,732,826.4,732,819.7z M676,747.8h11.8l11.1,16.9h-23V747.8
			L676,747.8z M676,767.6h23.9l-1.1,3.3H676V767.6z M698.2,774.1V791c-3-7.6-10.1-12.8-18.5-12.8c-1.3,0-2.6,0.1-3.9,0.5v-4.4
			L698.2,774.1L698.2,774.1z M668.5,803.5c0.6-0.1,1-0.1,1.5-0.1c7.2,0,12.9,5.9,12.9,12.9c0,7.2-5.9,12.9-12.9,12.9h-13.7h-17.7
			v-12.3l5.6-7.6c0.6-0.7,0.5-1.7-0.5-2.2c-0.7-0.6-1.7-0.5-2.2,0.5l-3,4.1v-9.4c0-0.9-0.7-1.6-1.6-1.6c-0.9,0-1.6,0.7-1.6,1.6v18.6
			l-18.5-5.9c-0.9-0.3-1.7,0.3-2.1,1c-0.3,0.9,0.3,1.7,1,2.1l19.5,6v5.2h-34.6c-5.3,0-9.7-4.3-9.7-9.7c0-2.3,0.7-10.1,8.8-10.5
			c0.5,0,0.7,0,1.1,0.1l2.2,0.5l-0.5-2.2c-0.1-0.5-0.1-0.7-0.1-1v-2.3c0.7-5.7,5.6-10.1,11.5-10.1c2.3,0,4.7,0.7,6.9,2.3l2.1,1.6
			l0.5-2.3c1.5-7.8,8.4-13.7,16.3-13.7c7,0,13.1,4.1,15.5,10.7l0.5,1.1l1.1-0.1c0.1,0,0.3,0,0.5,0c0.1,0,0.1,0,0.3,0
			c4.7,0,8.8,3.8,8.8,8.6v2.1L668.5,803.5z M513.4,819.9c-0.7-7.2-5.2-8.8-8.5-9.1c6.5-3,17.1-7.2,30.6-9.5
			c11.5-2.2,26.3-3.3,42.5-1.1c0.5,0.3,0.7,0.3,1.1,0.3c4.9,0.7,10.1,1.7,15.5,3.3L513.4,819.9z M503,829.3h-5.7H476v-3.6l15.3-4.7
			c0.9-0.3,1.3-1.1,1-2.1c-0.3-0.9-1.1-1.3-2.1-1l-14.2,4.4V808c0-0.9-0.7-1.6-1.6-1.6c-0.9,0-1.6,0.7-1.6,1.6v6.3l-1.7-2.3
			c-0.6-0.7-1.6-0.9-2.2-0.5c-0.7,0.6-0.9,1.6-0.5,2.2l4.3,6v9.2h-24.5c-5.6,0-10-4.4-10-10s4.4-10,10-10c0.5,0,0.7,0,1.1,0.1
			l2.1,0.5v-1.6c0-0.1,0-0.1,0-0.3c0-3.6,3-6.4,6.5-6.4h0.1c0.1,0,0.3,0,0.5,0l1.1,0.1l0.5-1.1c2-4.8,6.5-8.4,11.8-8.4
			c6.2,0,11.5,4.4,12.6,10.5l0.5,2.3l2.1-1.6c1.6-1.1,3.3-1.7,5.2-1.7c4.7,0,8.8,3.9,8.8,8.8c0,0.5,0,0.9-0.1,1.6l-0.5,2.2l2.2-0.5
			c0.5-0.1,0.7-0.1,1-0.1l0,0c4.4,0,6.4,2.5,6.4,7.9C510.5,825.8,507,829.3,503,829.3z M364.2,824l19.5-6c0.9-0.3,1.3-1.1,1-2.1
			c-0.3-0.9-1.1-1.3-2.1-1l-18.5,5.9v-18.7c0-0.9-0.7-1.6-1.6-1.6c-0.9,0-1.6,0.7-1.6,1.6v9.4l-3-4.1c-0.6-0.7-1.6-0.9-2.2-0.5
			c-0.7,0.6-0.9,1.6-0.5,2.2l5.6,7.6v12.3h-14.9h-16.3c-7.2,0-12.9-5.9-12.9-12.9c0-7.2,5.9-12.9,12.9-12.9c0.5,0,1,0.1,1.5,0.1
			l2.1,0.5v-2c0-0.1,0-0.1,0-0.3c0-4.7,3.9-8.6,8.8-8.6c0.1,0,0.3,0,0.3,0c0.1,0,0.3,0,0.5,0l1.1,0.1l0.5-1.1
			c2.5-6.4,8.6-10.7,15.5-10.7c8,0,14.8,5.7,16.3,13.7l0.5,2.3l2.1-1.6c2.1-1.5,4.4-2.3,6.9-2.3c6.3,0,11.5,5.2,11.5,11.5
			c0,0.6-0.1,1.1-0.3,2.1l-0.5,2.2l2.2-0.5c0.3,0,0.6-0.1,0.7-0.1c0.3,0,0.5,0,0.7-0.1c2.2-0.3,3.8,0.3,5.2,1.5
			c3.2,3,3.2,8.8,3.2,9.1c0,5.3-4.3,9.7-9.7,9.7h-34.4L364.2,824L364.2,824z M402.5,806c-0.7-0.1-1.5-0.1-2.2,0c0-0.3,0-0.5,0-0.6
			c0-2.3-0.6-4.7-1.6-6.5c0.1-1,0.9-1.7,2-1.7c1.1,0,2,0.9,2,2L402.5,806L402.5,806z M426.7,829.3H423v-30.3c0-1.1,0.9-2,2-2
			c1.1,0,2,0.9,2,2v30.3H426.7z M429.8,829.3v-30.3c0-2.8-2.3-4.9-4.9-4.9s-4.9,2.3-4.9,4.9v30.3h-12.3c2.6-2.3,4.4-5.9,4.4-9.7
			c0-0.7-0.1-7.6-4.3-11.5c-0.6-0.6-1.1-1-2-1.3v-7.9c0-2.8-2.3-4.9-4.9-4.9c-1.6,0-3,0.7-3.8,2c-2.8-3.1-6.8-4.9-11.1-4.9
			c-1.5,0-2.8,0.3-4.1,0.7c0.7-1.1,1.5-2.3,2-3.7h61.9v19.4c-5.6,1.6-9.7,6.5-9.7,12.8c0,3.9,1.7,7.5,4.6,10h-10.1L429.8,829.3
			L429.8,829.3z M467.3,748.3h17.1v4.3h-8.6h-8.5V748.3L467.3,748.3z M494.9,798.8c-0.7-0.1-1.7-0.3-2.3-0.3c-1.7,0-3.6,0.5-5.2,1.1
			c-1.6-4.7-5.3-8.4-9.9-10.1v-8.2h1.3c0.9,0,1.6-0.7,1.6-1.6v-8.4c0-0.9-0.7-1.6-1.6-1.6h-1.3v-14.2h7.9L494.9,798.8z M599.8,801.8
			c-1.7-0.6-3.2-1-4.7-1.5l-3.7-11.6c4.7,1.1,9.5,2.8,14.5,4.7C602.9,795.4,600.8,798.3,599.8,801.8z M591.5,799.3
			c-3.2-0.7-6.3-1.5-9.5-2.1l6.3-7.6L591.5,799.3z M578.3,796.8c-3.2-0.5-6.3-0.7-9.4-0.9l-6.3-11c7.5,0.1,15.5,0.9,23.7,2.5
			L578.3,796.8z M565.1,795.6c-1.6,0-3-0.1-4.6-0.1c-2.1,0-3.8,0-5.7,0.1l4.7-9.2L565.1,795.6z M551.1,796c-3.2,0.3-6.3,0.6-9.2,1
			l-8-9.4c0.5-0.1,1-0.3,1.5-0.5c6.3-1.1,13.7-2.1,21.4-2.3L551.1,796z M538.2,797.5c-1.1,0.3-2.3,0.5-3.6,0.7
			c-2.1,0.5-4.1,0.9-6.2,1.3l3.1-9.7L538.2,797.5z M524.9,800.3c-3,0.7-5.9,1.7-8.4,2.5l-9.1-7.2c5.3-2.3,12.6-4.8,21.3-7.2
			L524.9,800.3z M512.9,804.1c-3.1,1.1-5.9,2.2-8.3,3.3l0.9-8.8L512.9,804.1z M502,803.3c-1-1.1-2.2-2.3-3.6-3.1v-0.1
			c0.7-0.5,2.2-1.1,4.1-2.1L502,803.3z M474.5,773.2h2.5v5.3h-2.5V773.2z M474.2,755.6v14.5h-1.3c-0.9,0-1.6,0.7-1.6,1.6v8.5
			c0,0.9,0.7,1.6,1.6,1.6h1.3v7.5c-0.7-0.1-1.5-0.1-2.2-0.1c-6.3,0-11.7,3.6-14.4,9.2c-0.3,0-0.5,0-0.7,0l9.2-42.5L474.2,755.6
			L474.2,755.6z M453.5,799.3c-2.6,1.5-4.7,3.9-4.9,7.2h-0.1c-0.1,0-0.1,0-0.3,0v-20.3c0-0.7-0.5-1.1-0.9-1.5l0,0l-8.8-4.1v-4.1
			h20.1L453.5,799.3z M412.6,772.2l22.8,10.5c0.3,0.5,0.7,0.9,1.5,0.9c0.1,0,0.3,0,0.5,0l2.1,1h-52.5L412.6,772.2z M435,779l-21-9.5
			v-29h21V779L435,779z M410.9,769.4l-21,10v-38.7h21V769.4z M386.6,780.7l-3,1.5c-0.1-2.1-0.7-4.1-1.7-5.9h4.7V780.7L386.6,780.7z
			 M623.9,783.4v-9.2h23.6v5.4c-2.3-0.9-4.7-1.5-7.5-1.5c-5.9,0-11.1,2.5-14.8,6.8C624.7,784.5,624.1,784,623.9,783.4z M661.7,789.9
			c-0.7,0-1.3,0.1-2.1,0.3c-0.7-0.1-1.3-0.3-2.1-0.3c-1.7-3.6-4.1-6.4-7.5-8.6V732h3.1c1,3.6,4.3,6.2,8.3,6.2c3.8,0,7.2-2.6,8.3-6.2
			h3.1v47.6C668,781.4,664.1,784.9,661.7,789.9z M656.4,729.8c0-3,2.3-5.3,5.3-5.3s5.3,2.3,5.3,5.3s-2.3,5.3-5.3,5.3
			C658.8,735.1,656.4,732.5,656.4,729.8z M650.4,725.4c0-0.1,0.1-0.3,0.1-0.3l8.4-21h5.6l8.4,21c0,0.1,0.1,0.3,0.1,0.3l2.2,3.6h-5.2
			c-0.5-4.1-4.1-7.5-8.4-7.5s-7.9,3.3-8.4,7.5h-4.7L650.4,725.4z M634.2,747.8h13.1v16.8h-24.2L634.2,747.8z M647.2,767.6v3.3h-23.9
			l-1.1-3.3H647.2z M504.4,760.6c4.7,0,9,1.5,12.9,4.3l2.1,1.6l0.5-2.3c2.8-14.5,15.5-25,30.3-25c12.8,0,24.2,7.8,28.7,19.8l0.5,1.1
			l1.1-0.1c0.3,0,0.5,0,0.7-0.1c0.3,0,0.5-0.1,0.7-0.1c9.2,0,16.9,7.5,16.9,16.8c0,0.1,0,0.3,0,0.5v2l2.3-0.5c1-0.1,2-0.3,2.8-0.3
			c8,0,15.2,3.8,19.5,10c-0.9,1.5-1.7,3-2.1,4.7c-2.1-1.1-4.4-1.7-6.8-1.7c-1.7,0-3.1,0.3-4.7,0.7c-17.9-7.4-34.9-9.7-49.8-9.5
			c-0.1,0-0.3,0-0.5,0c-0.1,0-0.3,0-0.3,0c-9.1,0.1-17.5,1.1-24.7,2.3c-19.1,3.6-32.3,10.1-37.1,12.8l-6.9-31.6
			C494.5,762.3,499.3,760.6,504.4,760.6z M490.4,748.3v4.3h-3v-4.3H490.4z M475.7,730.5l9.9,8.5H466L475.7,730.5z M467.3,742.1h17.1
			v3h-17L467.3,742.1L467.3,742.1z M461.3,748.3h3v4.3h-3V748.3z M460.2,768.8l-0.9,4.3h-20.8v-4.3H460.2z M416.7,704.4v7.6l1.1,0.5
			c0.7,0.3,17.5,4.3,17.5,21v3.8h-21v-35C415.6,702.8,416.7,703.7,416.7,704.4z M407.2,712.4l1.1-0.5v-7.6c0-0.7,1.1-1.6,2.5-2.2
			v35.2h-21v-3.8C389.8,716.7,406.6,712.7,407.2,712.4z M386.6,768.8v4.3h-7.4c-2.5-2.3-5.9-3.8-9.5-3.8c-0.1,0-0.1,0-0.3,0
			c0-0.1-0.1-0.5-0.1-0.5H386.6z M303.3,786c-0.1-2.8,0.5-4.8,2-6.4c1.6-1.6,3.6-2.1,5.2-2.1c0.5,0,0.7,0,1.1,0.1l2.2,0.5l-0.5-2.2
			c-0.1-0.7-0.3-1.1-0.3-1.7c0-5.3,4.3-9.5,9.5-9.5c2.1,0,3.9,0.7,5.6,2l2.1,1.6l0.5-2.3c1.3-6.8,7.2-11.5,13.8-11.5
			c5.7,0,10.8,3.6,12.9,8.8l0.5,1.1l1.1-0.1c0.1,0,0.3,0,0.5,0c0.1,0,0.1,0,0.3,0c3.9,0,7.2,3.2,7.2,7.2v2.1l2.1-0.5
			c0.5-0.1,0.9-0.1,1.1-0.1c6,0,10.7,4.7,10.7,10.7c0,2.8-1,5.2-2.6,7.2c-3.1-7.2-10.1-12.1-18.2-12.1c-7.8,0-14.8,4.6-18,11.6
			c-0.1,0-0.3,0-0.5,0l0.1-10.8l6.3-3.2c0.7-0.5,1.1-1.3,0.7-2.1c-0.5-0.7-1.3-1.1-2.1-0.7l-4.8,2.5v-4.7c0-0.9-0.7-1.6-1.6-1.6l0,0
			c-0.9,0-1.6,0.7-1.6,1.6l-0.1,19.2c-0.1,0-0.5,0-0.5,0c-3.2-7.2-10.1-11.6-18-11.6c-6.8,0-12.8,3.3-16.3,8.6
			C303.3,786.5,303.3,786.1,303.3,786z M270.9,819.5c-0.3-3.1,0.7-5.6,2.3-7.5c2-2.1,4.6-3,6.2-3c0.5,0,0.7,0,1.3,0.1l2.2,0.5
			l-0.5-2.2c-0.1-0.7-0.3-1.5-0.3-2.1c0-6.3,5.2-11.5,11.5-11.5c2.3,0,4.7,0.7,6.9,2.3l2.1,1.6l0.5-2.3c1.7-8.4,8.5-13.9,16.4-13.9
			c7,0,12.9,4.1,15.5,10.6c-2.6,2-4.6,4.7-4.8,8.3c-0.1,0-0.5,0-0.5,0c-8.8,0-16,7.4-16,16c0,5.3,2.5,10.1,6.4,12.9h-39.4
			C275.4,829.3,271.1,825.1,270.9,819.5z M329.7,832.3h19.2h34.8l0,0h35.9h10.1h16.9l0,0h1.7H503h0.7l0,0c4.9-0.5,9-4.1,9.7-9.1
			l85.9-17.5c0,0.1,0,0.1,0,0.3c-4.8,0.5-8,3-9.7,6l-3.8,1.5c-0.7,0.5-1.1,1.1-1,2.1c0.3,0.7,0.9,1,1.6,1c0.3,0,0.5,0,0.6-0.1
			l1.3-0.5c-0.3,1.1-0.5,2.5-0.5,3.7c0,7.2,5.7,12.8,12.8,12.8h110.1c-35.2,11.8-114.9,18-197.8,10.8l2.5-0.9c0.7-0.5,1.1-1.1,1-2.1
			c-0.5-0.7-1.1-1.1-2.1-1l-7.9,3c-0.3,0.1-0.5,0.3-0.6,0.5c-7.6-0.7-15.5-1.6-23.2-2.5c-87.8-11-158.6-0.6-162.1,0
			c-23,0-32.7-4.7-36.4-7.6h45.4v-0.3H329.7z M653,856.9c-37.8,10.2-97.9,18.7-169.9-0.6c-0.1,0-13.7-4.1-40.2-8.3
			c-20.7-3.1-53-6.8-96.3-7.8c28.7-2.3,78.6-4.4,135.7,3c87,10.8,176.5,6.3,220.6-5.3C691.7,843.6,674.6,851,653,856.9z M719,829.3
			h-39.6c3.9-3,6.4-7.6,6.4-12.9c0-8.8-7.4-16-16-16c-0.3,0-0.5,0-0.5,0c-0.5-3.3-2.3-6.3-4.8-8.3c2.5-6.4,8.6-10.6,15.5-10.6
			c8,0,14.8,5.7,16.3,13.7l0.5,2.3l2.1-1.6c2.1-1.5,4.4-2.3,6.9-2.3c6.3,0,11.5,5.2,11.5,11.5c0,0.6-0.1,1.1-0.3,2.1l-0.5,2.2
			l2.2-0.5c0.5-0.1,0.9-0.1,1.1-0.1c8,0.6,8.8,8.3,8.8,10.5C728.6,825,724.3,829.3,719,829.3z"/>
		
			<linearGradient id="SVGID_2_" gradientUnits="userSpaceOnUse" x1="280.3296" y1="482.9191" x2="283.556" y2="482.9191" gradientTransform="matrix(3.4457 0 0 -3.4457 -440.6899 2499.1436)">
			<stop  offset="0" style="stop-color:#14383F"/>
			<stop  offset="1" style="stop-color:#1D433F"/>
		</linearGradient>
		<path fill="url(#SVGID_2_)" d="M526.7,838.2c0.3,0,0.5,0,0.6-0.1l7.9-3c0.7-0.5,1.1-1.1,1-2.1c-0.5-0.7-1.1-1.1-2.1-1l-7.9,3
			c-0.7,0.5-1.1,1.1-1,2.1C525.4,837.9,526.1,838.2,526.7,838.2z"/>
		
			<linearGradient id="SVGID_3_" gradientUnits="userSpaceOnUse" x1="286.0945" y1="485.0533" x2="289.3209" y2="485.0533" gradientTransform="matrix(3.4457 0 0 -3.4457 -440.6899 2499.1436)">
			<stop  offset="0.1752" style="stop-color:#1D433F"/>
			<stop  offset="1" style="stop-color:#3C5A43"/>
		</linearGradient>
		<path fill="url(#SVGID_3_)" d="M546.7,830.9c0.3,0,0.5,0,0.6-0.1l7.9-3c0.7-0.5,1.1-1.1,1-2.1c-0.5-0.7-1.1-1.1-2.1-1l-7.9,3
			c-0.7,0.5-1.1,1.1-1,2.1C545.4,830.7,546,830.9,546.7,830.9z"/>
		
			<linearGradient id="SVGID_4_" gradientUnits="userSpaceOnUse" x1="291.8594" y1="487.1208" x2="295.0857" y2="487.1208" gradientTransform="matrix(3.4457 0 0 -3.4457 -440.6899 2499.1436)">
			<stop  offset="0" style="stop-color:#355443"/>
			<stop  offset="1" style="stop-color:#607842"/>
		</linearGradient>
		<path fill="url(#SVGID_4_)" d="M566.5,823.8c0.3,0,0.5,0,0.6-0.1l7.9-3c0.7-0.5,1.1-1.1,1-2.1c-0.5-0.7-1.1-1.1-2.1-1l-7.9,3
			c-0.7,0.5-1.1,1.1-1,2.1C565.2,823.2,565.9,823.8,566.5,823.8z"/>
		
			<linearGradient id="SVGID_5_" gradientUnits="userSpaceOnUse" x1="301.0665" y1="516.2325" x2="301.0665" y2="511.4196" gradientTransform="matrix(3.4457 0 0 -3.4457 -440.6899 2499.1436)">
			<stop  offset="0" style="stop-color:#657D76"/>
			<stop  offset="3.331342e-03" style="stop-color:#667E75"/>
			<stop  offset="0.1216" style="stop-color:#728863"/>
			<stop  offset="0.2382" style="stop-color:#7D9051"/>
			<stop  offset="0.3512" style="stop-color:#839644"/>
			<stop  offset="0.4588" style="stop-color:#88993D"/>
			<stop  offset="0.5555" style="stop-color:#899B3A"/>
			<stop  offset="1" style="stop-color:#899B3A"/>
		</linearGradient>
		<path fill="url(#SVGID_5_)" d="M586.8,735.7c1.6,0.9,3.1,1.1,4.7,1.1c2.1,0,3.8-0.6,5.6-1.1c3-0.7,5.4-1.6,7.8-0.1
			c0.5,0.5,1.1,0.5,1.6,0s0.7-0.7,0.7-1.3v-11.5c0-0.6-0.5-1.1-0.7-1.3c-3.6-2.1-7.2-1-10.1-0.1c-3,0.7-5.4,1.6-7.8,0.1
			c-0.5-0.5-1.1-0.5-1.6,0s-0.7,0.7-0.7,1.3v11.5C586,734.9,586.2,735.5,586.8,735.7z M589.1,725.4c2.8,0.7,5.6-0.1,7.9-0.7
			c2.5-0.7,4.7-1.3,7.2-0.6v8.3c-2.8-0.7-5.6,0.1-7.9,0.7c-2.5,0.7-4.7,1.3-7.2,0.6V725.4z"/>
		<g>
			<path fill="#05273C" d="M490,880c0.1-0.5,0-0.7-0.1-1c-0.3-0.5-0.5-0.5-0.7-0.6l-10.8-2.6c-0.7-0.1-1.3,0.3-1.5,1l-4.7,19.4l0,0
				c-0.1,0.5,0,0.7,0.1,1c0.3,0.5,0.5,0.5,0.7,0.6c0.1,0,0.3,0,0.5,0c0.3,0,0.5-0.1,0.7-0.3c0.5-0.3,0.6-0.5,0.6-0.7l2.1-8.4
				l8.3,2.1c0.5,0.1,0.7,0,1-0.1c0.5-0.3,0.6-0.5,0.6-0.7c0.1-0.5,0-0.7-0.1-1c-0.3-0.5-0.5-0.5-0.7-0.6l-8.3-2.1l1.7-7.2l9.5,2.3
				c0.5,0.1,0.7,0,1-0.3C489.6,880.6,489.9,880.3,490,880z"/>
			<path fill="#05273C" d="M500.5,880.6l-6-1.1c-0.5,0-0.6,0.1-0.9,0.3c-0.3,0.3-0.5,0.5-0.5,0.7l-3.6,19.5c-0.1,0.5,0,0.7,0.3,1
				c0.3,0.5,0.5,0.5,0.7,0.6c0.5,0.1,0.7,0,1-0.3c0.3-0.3,0.5-0.5,0.6-0.7l1.5-7.8l4.4,0.7h0.1c0.7,0.3,1.5,0.7,2.1,1.5
				c0.9,0.9,1.1,2,1,3c-0.6,3.3-0.1,4.9,1.6,5.4l0.6,0.1h0.1c0.7-0.1,1.1-0.7,1.1-1.5c-0.1-0.6-0.5-0.9-0.9-1
				c-0.1-0.3-0.1-0.9,0.1-2.1c0.3-1.5,0.1-2.6-0.5-3.6c-0.5-0.7-0.7-1.5-1.5-2.1c0.9-0.5,1.6-0.9,2.2-1.6c0.9-1,1.5-2.1,1.7-3.3
				c0.5-1.7,0-3.3-1.1-4.8C503.7,881.9,502.4,880.9,500.5,880.6z M503.4,887.9c-0.3,1.1-0.7,2.1-1.7,2.6c-0.9,0.7-2,0.9-3,0.7
				l-4.7-0.9l1.5-8l4.7,0.9c1.1,0.3,2.1,0.7,2.6,1.7S503.6,886.7,503.4,887.9z"/>
			<path fill="#05273C" d="M523.2,884.1l-10.8-1.5c-0.5,0-0.7,0-0.9,0.3c-0.3,0.3-0.5,0.6-0.5,0.9l-2.6,19.6c0,0.5,0,0.7,0.3,0.9
				c0.3,0.3,0.5,0.5,0.7,0.5l10.8,1.5c0.1,0,0.1,0,0.3,0c0.3,0,0.6-0.1,0.7-0.3c0.3-0.3,0.5-0.6,0.5-0.9c0-0.3,0-0.7-0.3-1
				c-0.3-0.3-0.5-0.5-0.9-0.5l-9.5-1.3l1-7.4l8.4,1.1c0.5,0,0.7,0,0.9-0.3c0.3-0.3,0.5-0.6,0.5-0.9c0-0.3,0-0.7-0.3-0.9
				c-0.3-0.5-0.6-0.5-0.9-0.6l-8.4-1.1l1-7.4l9.5,1.3c0.5,0,0.7,0,0.9-0.3c0.3-0.3,0.5-0.6,0.5-0.9c0-0.5,0-0.7-0.3-1
				C524.2,884.2,523.7,884.1,523.2,884.1z"/>
			<path fill="#05273C" d="M533,885.1l-3.9-0.5c-0.5,0-0.7,0.1-0.9,0.5c-0.3,0.3-0.5,0.6-0.5,0.9l-2,19.6c0,0.5,0.1,0.7,0.3,0.9
				c0.3,0.3,0.5,0.5,0.7,0.5l4.1,0.5c0.5,0,0.7,0.1,1.1,0.1c2.6,0,4.8-0.9,7.2-2.5c2.3-2.1,3.7-4.6,3.9-7.6c0.5-3.1-0.6-5.9-2.5-8.3
				C538.6,886.7,536.1,885.5,533,885.1z M540.6,897.2c-0.3,2.3-1.1,4.3-3.1,5.9c-2,1.6-3.9,2.2-6.3,2.1l-2.6-0.3l1.7-17.1l2.6,0.3
				c2.3,0.3,4.3,1.3,5.9,3.1C540.3,892.6,540.8,894.8,540.6,897.2z"/>
			<path fill="#05273C" d="M559.2,887.2l-10.8-0.7c-0.5,0-0.7,0.1-0.9,0.5c-0.3,0.3-0.5,0.6-0.5,0.9l-1.1,19.8l0,0
				c0,0.5,0.1,0.7,0.5,0.9c0.3,0.3,0.5,0.5,0.7,0.5l11,0.7h0.1c0.5,0,0.6-0.1,0.9-0.5c0.3-0.3,0.5-0.6,0.5-0.9
				c0-0.5-0.1-0.7-0.5-0.9c-0.3-0.3-0.6-0.5-0.9-0.5l-9.7-0.6l0.5-7.5l8.4,0.6c0.5,0,0.7-0.1,0.9-0.5c0.3-0.3,0.5-0.6,0.5-0.9
				c0-0.5-0.1-0.7-0.5-0.9c-0.3-0.3-0.6-0.5-0.9-0.5l-8.4-0.6l0.5-7.5l9.7,0.6c0.5,0,0.7-0.1,0.9-0.5c0.3-0.3,0.5-0.6,0.5-0.9
				c0-0.5-0.1-0.7-0.5-0.9C559.9,887.3,559.6,887.2,559.2,887.2z"/>
			<path fill="#05273C" d="M576.2,907.3c-0.1-0.3-0.5-0.9-0.3-2.1c0-1.5-0.3-2.6-0.7-3.6c-0.5-0.7-1-1.3-1.7-1.7
				c0.7-0.5,1.5-1.1,2.1-2c0.7-1.1,1.1-2.2,1.1-3.6c0.1-2-0.6-3.3-1.7-4.7c-1.1-1.4-2.8-2.1-4.7-2.1l-6.2-0.3
				c-0.5,0-0.6,0.1-0.7,0.5c-0.3,0.3-0.5,0.6-0.5,0.9l-0.7,19.8c0,0.5,0.1,0.7,0.5,0.9c0.3,0.3,0.6,0.5,0.9,0.5
				c0.5,0,0.7-0.1,0.9-0.5c0.3-0.3,0.5-0.6,0.5-0.9l0.3-7.9l4.6,0.1h0.1c0.7,0.1,1.6,0.6,2.3,1.1c1,0.7,1.5,1.7,1.5,3
				c-0.1,3.3,0.7,4.9,2.3,4.9h0.1h0.5h0.1h0.1c0.7-0.3,1-0.7,0.9-1.7C577,907.5,576.8,907.4,576.2,907.3z M574.1,894.2
				c0,1.1-0.5,2.1-1.1,3c-0.7,0.7-1.7,1.1-3,1.1l0,0l-4.7-0.1l0.3-8.3l4.7,0.1c1.1,0,2.1,0.5,3,1.3
				C573.8,892.1,574.1,893.2,574.1,894.2z"/>
			<path fill="#05273C" d="M582.3,887.9c-0.5,0-0.7,0.1-0.9,0.5c-0.3,0.3-0.5,0.6-0.5,0.9l-0.3,19.8c0,0.5,0.1,0.7,0.5,0.9
				c0.3,0.3,0.6,0.5,0.9,0.5l0,0c0.5,0,0.7-0.1,0.9-0.5c0.3-0.3,0.5-0.6,0.5-0.9l0.3-19.8c0-0.5-0.1-0.7-0.5-0.9
				C583.1,888.1,582.8,887.9,582.3,887.9z"/>
			<path fill="#05273C" d="M606.6,905.1c-0.5,0-0.7,0-1,0.5c-1.5,1.3-3.3,2.1-5.7,2.2c-2.3,0.1-4.4-0.7-6.3-2.3c-2-1.7-2.8-3.6-3-6
				c-0.1-2.5,0.7-4.6,2.3-6.3c1.7-1.7,3.8-2.8,6.3-3c2.1-0.1,3.9,0.6,5.7,1.7c0.3,0.3,0.6,0.5,0.9,0.3c0.5,0,0.7-0.3,0.7-0.5
				c0.3-0.3,0.5-0.7,0.5-1c-0.1-0.5-0.3-0.7-0.6-0.9c-2.2-1.6-4.7-2.3-7.4-2.2c-3.2,0.1-6,1.3-8,3.6c-2.2,2.3-3.2,4.9-3.1,8.3
				c0.1,3.1,1.3,5.7,3.7,7.9c2.2,2.1,4.7,3,7.8,3c0.1,0,0.5,0,0.5,0c2.6-0.1,4.9-1,7.2-2.6c0.3-0.3,0.5-0.6,0.5-0.9
				c0-0.3-0.1-0.7-0.5-0.9C607.2,905.2,606.9,905.2,606.6,905.1z"/>
			<path fill="#05273C" d="M623.7,885.2l-14.2,2c-0.5,0-0.7,0.3-0.9,0.5c-0.1,0.1-0.5,0.6-0.3,0.9c0,0.5,0.3,0.7,0.5,0.9
				c0.3,0.3,0.6,0.5,1,0.3l5.9-0.7l2.3,18.4c0,0.5,0.3,0.7,0.5,0.9c0.3,0.3,0.5,0.3,0.7,0.3c0.1,0,0.1,0,0.3,0
				c0.5,0,0.7-0.3,0.9-0.5c0.3-0.3,0.5-0.6,0.3-0.9l-2.3-18.4l5.9-0.7c0.5,0,0.7-0.3,0.9-0.6c0.3-0.5,0.5-0.6,0.3-0.9
				c0-0.5-0.3-0.7-0.5-0.9C624.4,885.2,624,885.2,623.7,885.2z"/>
			<path fill="#05273C" d="M644.1,884.1c-2.5-1.7-5.3-2.2-8.3-1.6c-3,0.7-5.2,2.3-6.8,4.7c-1.6,2.6-2.1,5.6-1.3,8.5l0,0
				c0.7,3.1,2.3,5.6,4.7,7.2c2,1.1,3.7,2,5.9,2c0.7,0,1.6-0.1,2.3-0.3c3-0.7,5.2-2.3,6.8-4.7c1.6-2.5,2.1-5.4,1.3-8.5
				C648.3,888.2,646.4,885.9,644.1,884.1z M645.3,898.5c-1.1,2.1-3,3.3-4.9,3.7c-2.2,0.5-4.3,0.1-6.2-1.1c-2.1-1.3-3.2-3.2-3.7-5.6
				c-0.5-2.3-0.3-4.7,1-6.5c1.1-2.1,3-3.2,4.9-3.7l0,0c0.7-0.1,1.1-0.3,1.7-0.3c1.6,0,3,0.5,4.4,1.5c2,1.3,3.2,3.2,3.7,5.6
				C646.9,894.1,646.4,896.4,645.3,898.5z"/>
			<path fill="#05273C" d="M671,895.2l-5.7-19c-0.1-0.5-0.5-0.6-0.7-0.7c-0.5-0.1-0.7-0.3-1-0.1c-0.3,0.1-0.6,0.5-0.7,0.7
				c-0.1,0.5-0.3,0.7-0.1,1l4.7,14.9l-16.3-12.3c-0.3-0.3-0.6-0.5-1-0.3c-0.5,0-0.7,0.3-0.9,0.6c-0.5,0.5-0.5,0.9,0,1.3l5.7,18.6
				c0.1,0.5,0.5,0.6,0.7,0.7c0.3,0.1,0.5,0.1,0.6,0.1c0.1,0,0.3,0,0.5-0.1c0.5-0.1,0.6-0.5,0.7-0.7c0.1-0.5,0.3-0.7,0.1-1l-4.7-15.2
				l16,12.3l0.3,0.1c0.5,0.3,0.7,0.5,1.1,0.3c0.5-0.1,0.7-0.5,0.7-0.7C671,895.8,671,895.4,671,895.2z"/>
		</g>
		<g>
			<path fill="#42669A" d="M696.1,882.9c-0.6-0.3-1.1-0.3-1.7,0l-4.7,2l2.8-5.7c1-2.1,1.1-4.1,0.5-6.2c-0.7-2.1-2.1-3.3-3.9-4.3
				c-2.1-1-4.1-1.1-6.2-0.5s-3.3,2.1-4.3,3.9l-0.6,1.1c-0.3,0.6-0.5,1.1-0.1,1.7s0.6,1,1.1,1.1c0.6,0.3,1.1,0.5,1.7,0.1
				c0.6-0.3,1-0.6,1.1-1.1l0.6-1.1c0.5-0.7,1-1.3,2.1-1.7c0.9-0.5,1.7-0.5,2.5,0.1c0.9,0.5,1.5,1.1,1.7,2.1c0.5,0.9,0.5,1.7-0.1,2.6
				l-5.3,10.8c-0.3,0.6-0.5,1.1-0.1,1.7c0.3,0.6,0.6,1,1.1,1.1c0.5,0.1,0.6,0.3,0.9,0.3c0.3,0,0.6-0.1,0.9-0.3l10.1-4.1
				c0.6-0.3,1-0.7,1.1-1.1c0.3-0.6,0.3-1.1,0-1.7C697,883.5,696.6,883.1,696.1,882.9z"/>
			<path fill="#42669A" d="M705.8,861.8c-1.1-0.7-2.3-1.1-3.6-1.1c-1.1-0.1-2.3,0-3.6,0.6c-2.2,1.1-3.6,3-3.9,5.9
				c-0.5,2.3,0,4.9,1.1,7.8l0,0c1.3,2.6,3.1,4.7,5.2,6c1.5,0.9,3,1.3,4.3,1.3c1,0,2-0.3,2.8-0.7c1.1-0.6,2.1-1.3,2.6-2.3
				s1.1-2.2,1.3-3.6c0.5-2.5,0-4.9-1.3-7.6C709.9,865.1,708.1,863.2,705.8,861.8z M707.9,874.9c-0.3,1.3-0.7,2.2-1.5,2.5
				c-0.7,0.5-1.7,0.3-3-0.5c-1.5-0.9-2.5-2.2-3.3-3.9c-0.8-1.7-1.1-3.6-1-5.2c0.3-1.3,0.7-2.2,1.6-2.5c0.3-0.1,0.6-0.3,0.9-0.3
				c0.6,0,1.1,0.3,2.1,0.7c1.5,0.9,2.5,2.3,3.3,4.1C707.8,871.5,708.1,873.3,707.9,874.9z"/>
			<path fill="#42669A" d="M717.2,854.2L717.2,854.2c-0.3-0.1-0.3-0.1-0.5-0.3l0,0c-0.1-0.3-0.5-0.5-1-0.6l-0.5-0.3h-0.5
				c-0.1,0-0.3,0-0.3,0h-0.1l-0.5,0.3c-0.1,0.1-0.5,0.3-0.5,0.5l-2.6,4.1c-0.5,0.6-0.5,1.1-0.5,1.7c0.1,0.6,0.6,1.1,1,1.3
				c0.7,0.5,1.5,0.5,2.2,0.1c0.5-0.3,0.7-0.5,0.9-0.7l0.3-0.5l6.4,12.5c0.5,0.6,0.7,0.9,1.3,1.1c0.3,0.1,0.5,0.1,0.7,0.1
				c0.5,0,0.7-0.1,1-0.3c0.6-0.5,0.9-0.7,1.1-1.3c0.3-0.6,0.1-1.1-0.1-1.7L717.2,854.2z"/>
			<path fill="#42669A" d="M738.3,856.6c-0.7-1.1-1.6-2.1-2.6-2.8c-1-0.6-2.1-0.9-3.1-1.1c0-1-0.3-2.1-0.9-3.1
				c-0.7-1.1-1.7-2.1-3.3-2.3c-1.5-0.5-3-0.3-4.1,0.6c-1.3,0.7-2.2,2-2.5,3.3c-0.5,1.5-0.3,3,0.5,4.1c0.6,1,1.3,1.7,2.2,2.2
				c-0.5,1-0.7,2.1-0.6,3.2c0,1.3,0.5,2.5,1.1,3.6c1.1,2,2.6,3.1,4.7,3.6c0.7,0.3,1.5,0.3,2.1,0.3c1.3,0,2.6-0.5,3.8-1.1
				c2-1.1,3.1-2.6,3.6-4.7C739.6,860.5,739.2,858.6,738.3,856.6z M727.9,853.2c-0.1,0.5-0.3,0.6-0.6,0.7c-0.5,0.1-0.6,0.3-0.9,0.1
				c-0.5-0.1-0.6-0.3-0.7-0.6c-0.1-0.5-0.3-0.6-0.1-0.9c0.1-0.5,0.3-0.6,0.6-0.7c0.2-0.1,0.5-0.1,0.6-0.1c0.1,0,0.3,0,0.5,0
				c0.5,0.1,0.6,0.3,0.7,0.6C728,852.4,728,852.8,727.9,853.2z M734.4,859c0.5,0.7,0.6,1.7,0.5,2.5c-0.3,0.9-0.7,1.7-1.6,2.1
				s-1.7,0.6-2.6,0.5c-0.9-0.3-1.7-0.7-2.1-1.6c-0.5-0.9-0.6-1.7-0.5-2.6c0.3-0.9,0.7-1.7,1.6-2.1c0.6-0.5,1.1-0.5,1.7-0.5
				c0.5,0,0.7,0,1,0.1C733.3,857.7,733.9,858.1,734.4,859z"/>
		</g>
	</g>
</g>
<g>
	<g>
		<path fill="#485E29" d="M234.6,805c0-23.9-3.1-44-3.1-44s-53.5-3.3-82.5-4.7c0,0-55.8,3.2-82.6,4.7c0,0-3.1,20.1-3.1,44
			c0,0-6,100.8,85.5,154.4C240.7,905.8,234.6,805,234.6,805z"/>
	</g>
	<g>
		<path fill="#FFFFFF" d="M149,954.9l-0.6-0.3c-20-11.7-36.7-26.7-49.6-44.7c-10.5-14.4-18.5-30.7-24-48.4
			c-9.2-29.8-8.3-53.5-8-54.7c0-22.6,3-41.8,3-41.9l0.1-0.7h0.7c25.4-1.5,78.5-4.6,78.5-4.6l0,0l0,0c27.2,1.1,77.9,4.6,78.5,4.6h0.7
			l0.1,0.7c0,0.1,3,19.5,3,41.9c0,1,1.1,24.9-8,54.7c-5.6,17.7-13.7,34-24,48.4c-13.1,18-29.8,33-49.6,44.7L149,954.9z M71.6,765.9
			c-0.6,3.7-2.8,21-2.8,41.1l0,0c0,0.3-1.1,24.2,8,54.1c5.4,17.5,13.4,33.6,23.8,47.8c12.8,17.6,29.1,32.4,48.7,43.9
			c19.5-11.5,35.9-26.3,48.7-43.9c10.2-14.2,18.2-30.3,23.8-47.8c9.4-29.8,8-53.9,8-54.1l0,0c0-20-2.2-37.2-2.8-41.1
			c-6.4-0.5-52.3-3.3-77.6-4.6C147.4,761.6,96.6,764.6,71.6,765.9z"/>
	</g>
	<g>
		<path fill="#FFFFFF" d="M149,938.8l-0.5-0.3c-16.9-10-31.1-22.8-42.3-38.1c-8.8-12.2-15.7-26.1-20.3-41.3c-7.9-25-7-45.5-7-46.5
			c0-19.2,2.3-35.5,2.3-35.9l0.1-0.7H82c21.6-1.1,66.8-3.8,66.8-3.8l0,0l0,0c23.2,1,66.3,3.8,66.8,3.8h0.7l0.1,0.7
			c0,0.1,2.3,16.5,2.3,35.9c0,0.9,0.9,21.1-6.9,46.5c-4.7,15.2-11.5,29-20.3,41.3c-11.1,15.4-25.3,28-42.3,38.1L149,938.8z
			 M83,778.1c-0.6,3.3-2.3,17.9-2.3,34.8l0,0c0,0.1-1,20.6,6.9,46c4.7,14.8,11.5,28.6,20.2,40.7c10.8,14.9,24.8,27.6,41.3,37.2
			c16.5-9.9,30.3-22.3,41.3-37.2c8.8-12.1,15.5-25.6,20.2-40.7c7.9-25.4,6.9-45.7,6.9-46l0,0c0-16.9-2-31.6-2.3-34.8
			c-5.7-0.5-44.5-2.8-65.8-3.8C147.5,774.5,104.5,777,83,778.1z"/>
	</g>
	<g>
		<path fill="#FFFFFF" d="M115.6,795.6c-0.3-0.6-0.7-0.9-1.1-1.3c-0.5-0.5-1-0.7-1.6-0.9c-0.6-0.3-1.1-0.3-2-0.3
			c-1.1,0-2.2,0.3-3.1,0.7c-0.7,0.6-1.6,1-2.1,2c-0.6,0.7-0.9,1.7-1.1,2.6c-0.3,1-0.5,2.1-0.5,3.1s0.1,2.1,0.5,3
			c0.3,0.9,0.6,1.7,1.1,2.5c0.6,0.7,1.1,1.3,2.1,2c0.7,0.6,2,0.7,3.1,0.7c1.7,0,3-0.6,3.8-1.5c0.9-0.9,1.5-2.2,1.7-3.8h5.2
			c-0.1,1.5-0.6,3-1,4.1c-0.6,1.1-1.3,2.2-2.2,3.1c-0.9,0.7-2.1,1.5-3.3,2.1c-1.1,0.6-2.6,0.7-4.1,0.7c-2,0-3.6-0.3-4.9-0.9
			c-1.5-0.6-2.8-1.5-3.7-2.6c-1-1.1-1.7-2.3-2.3-3.9c-0.6-1.5-0.7-3.2-0.7-4.8s0.3-3.3,0.7-4.9c0.6-1.6,1.3-3,2.3-3.9
			c1-1.1,2.2-2.1,3.7-2.6c1.5-0.6,3.2-0.9,4.9-0.9c1.3,0,2.6,0.1,3.8,0.6c1.1,0.5,2.2,0.9,3.2,1.7c0.9,0.7,1.7,1.6,2.3,2.6
			c0.6,1,1,2.3,1.1,3.7h-5.4C116.1,796.8,115.8,796.2,115.6,795.6z"/>
		<path fill="#FFFFFF" d="M132.6,807.3c0.3,0.6,0.7,1,1.1,1.3c0.6,0.5,1,0.6,1.7,0.7s1.3,0.3,2.1,0.3c0.6,0,1,0,1.6-0.1
			c0.6,0,1-0.3,1.6-0.6c0.6-0.3,0.9-0.6,1.1-0.9c0.3-0.5,0.6-0.9,0.6-1.5c0-0.7-0.3-1.1-0.7-1.6c-0.5-0.5-0.9-0.7-1.7-1
			c-0.7-0.5-1.5-0.6-2.3-0.7c-0.8-0.1-1.7-0.5-2.6-0.7c-0.9-0.3-1.7-0.6-2.6-0.7s-1.7-0.7-2.3-1.1s-1.1-1.1-1.7-2
			c-0.5-0.7-0.7-1.7-0.7-2.8c0-1.1,0.3-2.3,0.7-3.2c0.6-0.9,1.1-1.7,2.1-2.2c0.9-0.6,2-1,3-1.3c1-0.2,2.2-0.5,3.3-0.5
			s2.5,0.1,3.7,0.5c1.1,0.3,2.2,0.7,3.2,1.3c0.9,0.7,1.6,1.5,2.1,2.3c0.6,0.9,0.7,2.1,0.7,3.6h-5.2c0-0.7-0.1-1.3-0.6-1.7
			c-0.3-0.6-0.6-0.7-1-1.1c-0.5-0.3-0.9-0.6-1.5-0.6c-0.6-0.1-1.1-0.1-2-0.1c-0.5,0-0.9,0-1.3,0.1c-0.5,0.1-0.7,0.3-1.1,0.6
			c-0.5,0.2-0.7,0.6-0.9,0.7c-0.3,0.5-0.5,0.7-0.5,1.1s0.1,0.7,0.3,1.1c0.1,0.5,0.6,0.6,1,0.7c0.6,0.3,1.1,0.6,2.2,0.7
			c0.9,0.3,2.2,0.6,3.7,0.9c0.6,0.1,1,0.3,2,0.6c0.7,0.3,1.6,0.6,2.3,1.1s1.5,1.1,2.1,2.1c0.6,0.7,0.9,2.1,0.9,3.3
			c0,1-0.3,2.1-0.7,3.1c-0.5,0.9-1,1.7-2,2.3c-0.7,0.7-2,1.1-3.2,1.6c-1.1,0.5-2.8,0.6-4.4,0.6c-1.3,0-2.6-0.1-3.9-0.6
			c-1.1-0.3-2.3-0.7-3.3-1.6c-0.9-0.7-1.7-1.6-2.3-2.6c-0.7-1-0.7-2.3-0.7-3.8h5.4C132.1,806.2,132.2,806.8,132.6,807.3z"/>
		<path fill="#FFFFFF" d="M169.3,795.6c-0.3-0.6-0.7-0.9-1.1-1.3c-0.5-0.5-1-0.7-1.6-0.9c-0.6-0.3-1.1-0.3-2-0.3
			c-1.1,0-2.2,0.3-3.1,0.7c-0.7,0.6-1.6,1-2.1,2c-0.6,0.7-0.9,1.7-1.1,2.6c-0.3,1-0.5,2.1-0.5,3.1s0.1,2.1,0.5,3s0.6,1.7,1.1,2.5
			c0.6,0.7,1.1,1.3,2.1,2c0.7,0.6,2,0.7,3.1,0.7c1.7,0,3-0.6,3.8-1.5c0.8-0.9,1.5-2.2,1.7-3.8h5.2c-0.1,1.5-0.6,3-1,4.1
			c-0.5,1.1-1.3,2.2-2.2,3.1c-0.9,0.7-2.1,1.5-3.3,2.1c-1.1,0.6-2.6,0.7-4.1,0.7c-2,0-3.6-0.3-4.9-0.9c-1.5-0.7-2.8-1.5-3.7-2.6
			c-1-1.1-1.7-2.3-2.3-3.9c-0.6-1.5-0.7-3.2-0.7-4.8s0.3-3.3,0.7-4.9c0.6-1.6,1.3-3,2.3-3.9c1-1.1,2.2-2.1,3.7-2.6
			c1.5-0.6,3.2-0.9,4.9-0.9c1.3,0,2.6,0.1,3.8,0.6s2.2,0.9,3.2,1.7c0.9,0.7,1.7,1.6,2.3,2.6c0.6,1,1,2.3,1.1,3.7h-5.2
			C169.9,796.8,169.8,796.2,169.3,795.6z"/>
		<path fill="#FFFFFF" d="M200.5,789.3v4.4h-12.9v5.2h11.8v4.1h-11.8v6h13.1v4.4h-18.4v-23.9L200.5,789.3L200.5,789.3z"/>
	</g>
	<g>
		<path fill="#FFFFFF" d="M142.2,827.2c-0.3-0.6-0.7-0.9-1.1-1.3c-0.5-0.5-1-0.7-1.6-0.9c-0.6-0.3-1.1-0.3-2-0.3
			c-1.1,0-2.2,0.3-3.1,0.7c-0.7,0.6-1.6,1-2.1,2c-0.6,0.7-0.9,1.7-1.1,2.6c-0.3,1-0.5,2.1-0.5,3.1s0.1,2.1,0.5,3s0.6,1.7,1.1,2.5
			c0.6,0.7,1.1,1.3,2.1,2c0.7,0.6,2,0.7,3.1,0.7c1.7,0,3-0.6,3.8-1.5c0.8-0.9,1.5-2.2,1.7-3.8h5.2c-0.1,1.5-0.6,3-1,4.1
			c-0.6,1.1-1.3,2.2-2.2,3.1c-0.9,0.7-2.1,1.5-3.3,2.1c-1.1,0.6-2.6,0.7-4.1,0.7c-2,0-3.6-0.3-4.9-0.9c-1.5-0.6-2.8-1.5-3.7-2.6
			c-1-1.1-1.7-2.3-2.3-3.9c-0.6-1.5-0.7-3.2-0.7-4.8s0.3-3.3,0.7-4.9c0.6-1.6,1.3-3,2.3-3.9c1-1.1,2.2-2.1,3.7-2.6
			c1.5-0.6,3.2-0.9,4.9-0.9c1.3,0,2.6,0.1,3.8,0.6s2.2,0.9,3.2,1.7c0.9,0.7,1.7,1.6,2.3,2.6c0.6,1,1,2.3,1.1,3.7h-5.2
			C142.8,828.2,142.6,827.8,142.2,827.2z"/>
		<path fill="#FFFFFF" d="M141.1,877.1c-1.1,0.6-2.3,0.7-3.6,0.7c-2,0-3.6-0.3-4.9-0.9c-1.4-0.6-2.8-1.5-3.7-2.6
			c-1-1.1-1.7-2.3-2.3-3.9c-0.6-1.5-0.7-3.2-0.7-4.8s0.3-3.3,0.7-4.9c0.5-1.6,1.3-3,2.3-3.9c1-1.1,2.2-2.1,3.7-2.6
			c1.5-0.6,3.2-0.9,4.9-0.9c1.1,0,2.3,0.1,3.6,0.6c1.1,0.5,2.2,0.9,3.2,1.6c0.9,0.7,1.7,1.6,2.3,2.6c0.6,1,1,2.2,1.1,3.6h-5.2
			c-0.3-1.3-0.9-2.3-2-3.1c-0.9-0.7-2.1-1-3.3-1c-1.1,0-2.2,0.3-3.1,0.7c-0.7,0.6-1.6,1-2.1,2c-0.6,0.7-0.9,1.7-1.1,2.6
			c-0.3,1-0.5,2.1-0.5,3.1c0,1,0.1,2.1,0.5,3c0.3,0.9,0.6,1.7,1.1,2.5c0.6,0.7,1.1,1.3,2.1,2c0.9,0.6,2,0.7,3.1,0.7
			c1.7,0,3.2-0.5,4.1-1.3c0.9-0.9,1.6-2.1,1.7-3.8h-5.4v-3.9h10.1v12.9h-3.3l-0.6-2.8C143.4,875.7,142.2,876.6,141.1,877.1z"/>
		<path fill="#FFFFFF" d="M142.2,892.4c-0.3-0.6-0.7-0.9-1.1-1.3c-0.5-0.3-1-0.7-1.6-0.9c-0.6-0.3-1.1-0.3-2-0.3
			c-1.1,0-2.2,0.3-3.1,0.7c-0.7,0.5-1.6,1-2.1,2c-0.6,0.7-0.9,1.7-1.1,2.6c-0.3,1-0.5,2.1-0.5,3.1s0.1,2.1,0.5,3
			c0.3,0.9,0.6,1.7,1.1,2.5c0.6,0.7,1.1,1.3,2.1,2c0.7,0.6,2,0.7,3.1,0.7c1.7,0,3-0.6,3.8-1.5c0.9-1,1.5-2.2,1.7-3.8h5.2
			c-0.1,1.5-0.6,3-1,4.1c-0.6,1.1-1.3,2.2-2.2,3.1c-0.9,0.7-2.1,1.5-3.3,2.1c-1.1,0.6-2.6,0.7-4.1,0.7c-2,0-3.6-0.3-4.9-0.9
			c-1.5-0.6-2.8-1.5-3.7-2.6c-1-1.1-1.7-2.3-2.3-3.9c-0.6-1.5-0.7-3.2-0.7-4.8s0.3-3.3,0.7-4.9c0.6-1.6,1.3-3,2.3-3.9
			c1-1.1,2.2-2.1,3.7-2.6c1.5-0.6,3.2-0.9,4.9-0.9c1.3,0,2.6,0.1,3.8,0.6c1.1,0.5,2.2,0.9,3.2,1.7c0.9,0.7,1.7,1.6,2.3,2.6
			c0.6,1,1,2.3,1.1,3.7h-5.2C142.8,893.4,142.6,892.8,142.2,892.4z"/>
	</g>
	<g>
		<path fill="#FFFFFF" d="M168.7,895v-5.6h-2.2v-1.3c0.3,0,0.6,0,0.9,0c0.3,0,0.6-0.1,0.7-0.3c0.1-0.1,0.5-0.3,0.6-0.6
			c0.1-0.2,0.3-0.6,0.3-0.7h1.5v8.6L168.7,895L168.7,895z"/>
		<path fill="#FFFFFF" d="M173.1,887.5c0.1-0.3,0.5-0.6,0.7-0.7c0.3-0.1,0.6-0.5,0.9-0.5c0.5-0.1,0.7-0.1,1-0.1c0.6,0,1,0,1.3,0.3
			c0.5,0.1,0.7,0.5,0.9,0.6c0.3,0.3,0.5,0.6,0.6,0.7c0.1,0.3,0.1,0.6,0.1,0.7c0,0.5-0.1,0.7-0.3,1.1c-0.3,0.3-0.6,0.6-0.9,0.7l0,0
			c0.6,0.1,0.9,0.5,1.1,0.7c0.3,0.5,0.5,0.7,0.5,1.3s-0.1,0.7-0.3,1.1c-0.1,0.5-0.5,0.6-0.7,0.7c-0.3,0.3-0.7,0.5-1,0.6
			c-0.5,0.1-0.7,0.1-1.1,0.1s-0.7,0-1.1-0.1s-0.7-0.3-1-0.6c-0.3-0.3-0.6-0.6-0.7-0.7c-0.1-0.5-0.3-0.7-0.3-1.1s0.1-1,0.5-1.3
			c0.3-0.5,0.7-0.6,1.1-0.7l0,0c-0.5-0.1-0.7-0.5-0.9-0.7c-0.3-0.3-0.3-0.7-0.3-1.1C173,888.2,173.1,887.8,173.1,887.5z
			 M174.5,892.9c0,0.1,0.1,0.5,0.5,0.6c0.1,0.1,0.3,0.3,0.6,0.3c0.1,0,0.5,0.1,0.6,0.1c0.3,0,0.5,0,0.6-0.1c0.1,0,0.5-0.1,0.6-0.3
			s0.3-0.3,0.3-0.6s0.1-0.5,0.1-0.6s0-0.5-0.1-0.6c0-0.1-0.1-0.3-0.3-0.5c-0.1-0.1-0.3-0.3-0.6-0.3c-0.1,0-0.5-0.1-0.6-0.1
			c-0.5,0-0.7,0.1-1,0.5s-0.6,0.6-0.6,1C174.5,892.6,174.5,892.8,174.5,892.9z M175,889.5c0.3,0.1,0.6,0.3,0.9,0.3
			c0.5,0,0.7-0.1,0.9-0.3c0.1-0.1,0.5-0.6,0.5-0.7s0-0.3,0-0.5c0-0.1-0.1-0.3-0.1-0.5c-0.1-0.1-0.3-0.3-0.5-0.3s-0.5-0.1-0.7-0.1
			c-0.1,0-0.5,0-0.6,0s-0.3,0.1-0.5,0.3c-0.1,0.1-0.3,0.3-0.3,0.5c0,0.1-0.1,0.3-0.1,0.6C174.5,888.9,174.6,889.4,175,889.5z"/>
		<path fill="#FFFFFF" d="M180.3,887.5c0.1-0.3,0.5-0.6,0.7-0.7c0.3-0.1,0.6-0.5,0.9-0.5c0.5-0.1,0.7-0.1,1-0.1c0.6,0,1,0,1.3,0.3
			c0.3,0.3,0.7,0.5,0.9,0.6c0.3,0.3,0.5,0.6,0.6,0.7c0.1,0.3,0.1,0.6,0.1,0.7c0,0.5-0.1,0.7-0.3,1.1c-0.3,0.3-0.6,0.6-0.9,0.7l0,0
			c0.6,0.1,0.9,0.5,1.1,0.7c0.3,0.5,0.5,0.7,0.5,1.3s-0.1,0.7-0.3,1.1c-0.1,0.5-0.5,0.6-0.7,0.7c-0.3,0.3-0.7,0.5-1,0.6
			c-0.5,0.1-0.7,0.1-1.1,0.1s-0.7,0-1.1-0.1s-0.7-0.3-1-0.6c-0.3-0.3-0.6-0.6-0.7-0.7c-0.1-0.5-0.3-0.7-0.3-1.1s0.1-1,0.5-1.3
			c0.3-0.5,0.7-0.6,1.1-0.7l0,0c-0.5-0.1-0.7-0.5-0.9-0.7c-0.3-0.3-0.3-0.7-0.3-1.1C179.9,888.2,180,887.8,180.3,887.5z
			 M181.5,892.9c0,0.1,0.1,0.5,0.5,0.6c0.1,0.1,0.3,0.3,0.6,0.3c0.1,0,0.5,0.1,0.6,0.1c0.3,0,0.5,0,0.6-0.1c0.1,0,0.5-0.1,0.6-0.3
			s0.3-0.3,0.3-0.6s0.1-0.5,0.1-0.6s0-0.5-0.1-0.6c0-0.1-0.1-0.3-0.3-0.5c-0.1-0.1-0.3-0.3-0.6-0.3c-0.1,0-0.5-0.1-0.6-0.1
			c-0.5,0-0.7,0.1-1,0.5s-0.6,0.6-0.6,1C181.4,892.6,181.4,892.8,181.5,892.9z M182,889.5c0.3,0.1,0.6,0.3,0.9,0.3
			c0.5,0,0.7-0.1,0.9-0.3c0.1-0.1,0.5-0.6,0.5-0.7s0-0.3,0-0.5c0-0.1-0.1-0.3-0.1-0.5c-0.1-0.1-0.3-0.3-0.5-0.3s-0.5-0.1-0.7-0.1
			c-0.1,0-0.5,0-0.6,0s-0.3,0.1-0.5,0.3c-0.1,0.1-0.3,0.3-0.3,0.5c0,0.1-0.1,0.3-0.1,0.6C181.5,889,181.6,889.4,182,889.5z"/>
		<path fill="#FFFFFF" d="M191.9,889.3c-0.5,0.6-0.7,1.1-0.9,2c-0.1,0.7-0.5,1.3-0.6,2.1c-0.1,0.7-0.1,1.1-0.1,2h-2
			c0.1-1.1,0.5-2.5,0.9-3.7c0.6-1.1,1.1-2.2,2.1-3.3h-4.1v-1.6h6v1.5C192.4,888.3,192.1,888.7,191.9,889.3z"/>
	</g>
	<g>
		<path fill="#EE334E" d="M177.8,836.7l-2.7,7.8l-6-2.5l2.8,15.8l-8.2-7.7v4.5l-6.6-1.8l1.7,5c0,0,0.6,1-0.6,1.6l-2.9,0.7l11.2,8.2
			l-1.4,3.4l13-1.6v12h1.3v-12l10.8,1.5l-1.5-2.8l11.6-8.7l-2.9-0.7c0,0-0.9-0.3-0.6-1.6l1.7-4.8l-6.4,1.5l-0.1-4.5l-8.1,7.8
			l2.7-15.8l-6,2.3L177.8,836.7z"/>
		<path fill="#FFFFFF" d="M179.7,882.6h-2v-12l-13.1,1.6l1.5-3.7l-11.7-8.5l3.7-0.9c0.2-0.1,0.4-0.3,0.5-0.6
			c0.1-0.3-0.1-0.6-0.1-0.6v-0.1l-2-5.6l6.8,1.9v-4.9l8,7.5l-2.7-15.4l6.3,2.5l2.9-8.4l2.9,8.3l6.3-2.5l-2.6,15.4l7.9-7.6l0.1,4.8
			l6.6-1.5l-1.8,5.4c-0.2,0.9,0.2,1.2,0.4,1.2l3.6,0.8l-11.9,9l1.7,3.1l-11.1-1.5L179.7,882.6L179.7,882.6z M178.4,881.8h0.6v-12.2
			l10.5,1.5l-1.3-2.5l11.2-8.5l-2.2-0.5c-0.4-0.1-1.1-0.7-0.9-2v-0.1l1.5-4.2l-6.2,1.4l-0.1-4.1l-8.3,8l2.8-16.2l-5.8,2.3l-2.5-7.1
			l-2.5,7.2l-5.8-2.3l2.9,16.2l-8.4-7.9v4.2l-6.3-1.8l1.5,4.3c0.1,0.1,0.2,0.6,0.1,1c-0.1,0.4-0.4,0.7-0.9,1l-0.1,0.1l-2.2,0.6
			l10.9,7.9l-1.3,3.1l12.8-1.5L178.4,881.8L178.4,881.8z"/>
	</g>
</g>
</svg>
