<?xml version="1.0" encoding="utf-8"?>
<!-- Generator: Adobe Illustrator 18.0.0, SVG Export Plug-In . SVG Version: 6.00 Build 0)  -->
<!DOCTYPE svg PUBLIC "-//W3C//DTD SVG 1.1//EN" "http://www.w3.org/Graphics/SVG/1.1/DTD/svg11.dtd">
<svg version="1.1" id="Layer_1" xmlns="http://www.w3.org/2000/svg" xmlns:xlink="http://www.w3.org/1999/xlink" x="0px" y="0px"
	 viewBox="-712.3 47.8 2301.3 956.1" enable-background="new -712.3 47.8 2301.3 956.1" xml:space="preserve">
<g>
	<g>
		<g>
			<path fill="#42669A" d="M76.1,517.4c0,5.2-4.6,8.7-12.8,8.7c-1.9,0-4.3-0.2-5.7-0.6c-2.6-0.7-2.6-2.4-2.6-4.1v-21.3
				c0-1.7,0-3.3,2.6-4.1c1.3-0.4,3.9-0.6,5.7-0.6c7.8,0,11.9,3.1,11.9,8.1c0,3.3-2,5.7-5.7,6.7C73.9,510.9,76.1,513.7,76.1,517.4z
				 M60.7,500.7v7.2h2.8c1.1,0,2-0.2,2.8-0.4c1.7-0.6,2.4-1.7,2.4-3.3c0-2.2-1.7-3.7-5.6-3.7C62.4,500.5,61.7,500.5,60.7,500.7z
				 M69.6,516.6c0-1.9-0.9-3.1-3-3.7c-0.9-0.2-2-0.4-3.3-0.4h-2.8v8c0.9,0.2,1.9,0.2,2.8,0.2C68,520.7,69.6,519.2,69.6,516.6z"/>
			<path fill="#42669A" d="M99.3,517.4c0.4-0.9,0.6-2,0.6-3.3v-16.1c0-1.7,0.9-2.6,3-2.6c2,0,3,0.9,3,2.6v16.3
				c0,2.4-0.4,4.3-1.1,6.1c-1.9,4.4-5.9,6.1-10.9,6.1c-5.4,0-9.1-1.9-10.9-6.1c-0.7-1.7-1.1-3.7-1.1-5.9v-16.5
				c0-1.7,0.9-2.6,3.1-2.6c2.2,0,3.1,0.9,3.1,2.6v16.3c0,1.3,0.2,2.4,0.6,3.3c0.9,2.2,2.8,3.3,5.4,3.3
				C96.9,520.7,98.3,519.6,99.3,517.4z"/>
			<path fill="#42669A" d="M119.1,523.5c0,1.7-0.9,2.6-3.1,2.6c-2.2,0-3.1-0.9-3.1-2.6v-25.6c0-1.7,0.9-2.6,3.1-2.6
				c2.2,0,3.1,0.9,3.1,2.6V523.5z"/>
			<path fill="#42669A" d="M141.5,520.2c1.7,0,2.4,0.9,2.4,2.8c0,1.9-0.7,2.8-2.4,2.8h-12.4c-2.2,0-3.1-0.9-3.1-3.1v-24.6
				c0-1.7,0.9-2.6,3.1-2.6c2.2,0,3.1,0.9,3.1,2.6v22.2H141.5z"/>
			<path fill="#42669A" d="M157.2,526.1c-1.9,0-4.1-0.2-5.7-0.6c-2.6-0.7-2.6-2.4-2.6-4.1v-21.3c0-1.7,0-3.3,2.6-4.1
				c1.3-0.4,3.9-0.6,5.9-0.6c10.6,0,16.5,5.7,16.5,15.4C173.9,520.3,167.8,526.1,157.2,526.1z M157.6,520.5c6.5,0,9.8-3.7,9.8-9.8
				c0-6.3-3.5-10-9.8-10c-0.7,0-1.7,0-2.4,0.2v19.4C156.1,520.5,156.9,520.5,157.6,520.5z"/>
			<path fill="#42669A" d="M185.9,523.5c0,1.7-0.9,2.6-3.1,2.6c-2.2,0-3.1-0.9-3.1-2.6v-25.6c0-1.7,0.9-2.6,3.1-2.6
				c2.2,0,3.1,0.9,3.1,2.6V523.5z"/>
			<path fill="#42669A" d="M198.7,523.5c0,1.7-0.9,2.6-3,2.6s-3-0.9-3-2.6v-24.6c0-2.4,1.3-3.3,4.1-3.3c2.8,0,4.1,1.1,5,2.8
				l11.1,19.3v-19.6c0-1.7,0.9-2.6,3-2.6s3,0.9,3,2.6v24.6c0,2.2-1.3,3.3-3.9,3.3c-2.4,0-3.7-0.9-4.6-3l-11.7-19.6L198.7,523.5
				L198.7,523.5z"/>
			<path fill="#42669A" d="M240.2,514.4c-1.7,0-2.4-0.9-2.4-2.8c0-1.9,0.7-2.8,2.4-2.8h6.9c2.2,0,3.1,0.9,3.1,3.1v8.7
				c0,1.9-0.6,3-2.6,3.9c-1.9,0.7-4.8,1.3-7.6,1.3c-8.7,0-15.2-5.4-15.2-15.4s6.5-15.6,15-15.6c3,0,5.6,0.6,7.8,1.9
				c1.5,0.9,2.4,1.9,2.4,3c0,1.3-1.5,3-2.8,3c-0.7,0-1.3-0.6-2.4-1.1c-1.5-0.7-3.1-1.3-5-1.3c-5.2,0-8.5,3.3-8.5,9.8
				c0,6.7,3.7,10.2,8.9,10.2c1.3,0,2.8-0.2,4.1-0.6v-5.6h-4.1V514.4z"/>
			<path fill="#42669A" d="M279.3,524.2c0,1.1-0.6,1.7-2,1.7c-1.3,0-2-0.6-2-1.7V499h-8.3c-1.1,0-1.7-0.6-1.7-1.7
				c0-1.1,0.6-1.9,1.7-1.9h20.6c1.1,0,1.7,0.6,1.7,1.9c0,1.1-0.6,1.7-1.7,1.7h-8.3v25.2H279.3z"/>
			<path fill="#42669A" d="M306.3,495c8.7,0,14.4,6.1,14.4,15.6c0,9.4-5.7,15.6-14.4,15.6c-8.9,0-14.4-6.1-14.4-15.6
				C291.9,501.1,297.4,495,306.3,495z M306.3,522.7c6.3,0,10.4-4.6,10.4-12.2c0-7.6-4.1-12.2-10.4-12.2c-6.3,0-10.4,4.8-10.4,12.2
				C296,517.9,300,522.7,306.3,522.7z"/>
			<path fill="#42669A" d="M345.2,519.6c-0.6,1.3-1.1,1.9-2.4,1.9c-1.1,0-1.9-0.6-2.4-1.9l-8.5-19.1l-1.5,23.7
				c-0.2,1.1-0.7,1.7-2,1.7c-1.3,0-1.9-0.6-1.9-1.7l2-26.5c0.2-1.7,0.7-2.4,2.6-2.4c1.7,0,2.6,0.7,3.3,2.4l8.5,18.9l8.5-18.9
				c0.7-1.7,1.5-2.4,3.3-2.4s2.4,0.9,2.4,2.4l2,26.5c0,1.1-0.6,1.7-1.9,1.7c-1.3,0-2-0.6-2-1.7l-1.7-23.7L345.2,519.6z"/>
			<path fill="#42669A" d="M379.9,495c8.7,0,14.4,6.1,14.4,15.6c0,9.4-5.7,15.6-14.4,15.6c-8.9,0-14.4-6.1-14.4-15.6
				C365.4,501.1,371,495,379.9,495z M379.9,522.7c6.3,0,10.4-4.6,10.4-12.2c0-7.6-4.1-12.2-10.4-12.2c-6.3,0-10.4,4.8-10.4,12.2
				C369.5,517.9,373.6,522.7,379.9,522.7z"/>
			<path fill="#42669A" d="M421.5,524.8c0,0.7-0.6,1.1-1.9,1.1c-1.7,0-2.2-0.6-3-1.9l-6.7-9.6c-0.9,0.2-1.9,0.2-3,0.2
				c-0.6,0-1.7,0-2.2-0.2v9.8c0,1.1-0.6,1.7-1.9,1.7c-1.3,0-1.9-0.6-1.9-1.7v-25.7c0-1.3,0-2.4,2-2.8c1.1-0.4,3.1-0.6,5-0.6
				c7.2,0,12,3.3,12,9.4c0,4.3-2.2,7.4-6.3,8.9l6.5,9.1C421.4,524,421.5,524.4,421.5,524.8z M407.3,511.3c5.7,0,8.7-2.4,8.7-6.5
				c0-4.3-3.1-6.3-8-6.3c-0.9,0-2,0.2-3,0.2v12.2C405.6,511.3,406.5,511.3,407.3,511.3z"/>
			<path fill="#42669A" d="M448,524.8c0,0.7-0.6,1.1-1.9,1.1c-1.7,0-2.2-0.6-3-1.9l-6.7-9.6c-0.9,0.2-1.9,0.2-3,0.2
				c-0.6,0-1.7,0-2.2-0.2v9.8c0,1.1-0.6,1.7-1.9,1.7c-1.3,0-1.9-0.6-1.9-1.7v-25.7c0-1.3,0-2.4,2-2.8c1.1-0.4,3.1-0.6,5-0.6
				c7.2,0,12,3.3,12,9.4c0,4.3-2.2,7.4-6.3,8.9l6.5,9.1C447.7,524,448,524.4,448,524.8z M433.8,511.3c5.7,0,8.7-2.4,8.7-6.5
				c0-4.3-3.1-6.3-8-6.3c-0.9,0-2,0.2-3,0.2v12.2C432.1,511.3,432.8,511.3,433.8,511.3z"/>
			<path fill="#42669A" d="M466.4,495c8.7,0,14.4,6.1,14.4,15.6c0,9.4-5.7,15.6-14.4,15.6c-8.9,0-14.4-6.1-14.4-15.6
				C451.9,501.1,457.7,495,466.4,495z M466.4,522.7c6.3,0,10.4-4.6,10.4-12.2c0-7.6-4.1-12.2-10.4-12.2c-6.3,0-10.4,4.8-10.4,12.2
				C456,517.9,460.1,522.7,466.4,522.7z"/>
			<path fill="#42669A" d="M497.1,524c-0.4,1.5-1.1,2-2.8,2c-1.7,0-2.4-0.7-2.6-1.9l-6.9-26.3c-0.2-0.4-0.2-0.9-0.2-1.1
				c0-0.7,0.4-1.3,1.9-1.3c1.5,0,2,0.6,2.2,1.9l5.7,23.7l7-22c0.4-1.3,0.9-2,2.6-2s2.2,0.7,2.6,2l6.9,22l6.1-23.7
				c0.4-1.3,0.7-1.9,2-1.9c1.5,0,1.9,0.6,1.9,1.3c0,0.4,0,0.9-0.2,1.1l-7,26.3c-0.4,1.3-0.9,1.9-2.6,1.9c-1.7,0-2.4-0.7-2.8-2
				l-6.9-22L497.1,524z"/>
			<path fill="#42669A" d="M534.3,495.3c0,0.7-0.4,2.4-1.9,7c-0.7,2-1.3,2.4-2.4,2.4c-1.1,0-1.5-0.6-1.5-1.3c0-0.4,0.2-0.7,0.2-1.1
				l1.7-6.5c0.2-0.9,0.6-1.9,2.2-1.9C533.8,494,534.3,494.6,534.3,495.3z"/>
			<path fill="#42669A" d="M539.2,503.1c0-4.8,3.9-8,9.6-8c2.6,0,5.2,0.7,7.2,2c1.1,0.7,1.5,1.3,1.5,1.9c0,0.9-0.7,2-1.7,2
				c-0.4,0-0.7-0.4-1.7-0.7c-1.7-0.9-3.3-1.5-5.4-1.5c-3.7,0-5.7,1.9-5.7,4.3c0,6.5,15.2,4.8,15.2,14.8c0,5.6-4.4,8.7-10.4,8.7
				c-3.1,0-5.7-0.9-7.8-2.4c-0.9-0.7-1.5-1.3-1.5-2c0-0.9,0.7-2,1.7-2c0.6,0,0.9,0.4,1.9,0.9c1.7,1.1,3.3,2,5.7,2c3.7,0,6.3-2,6.3-5
				C554.3,510.7,539.2,512.4,539.2,503.1z"/>
			<path fill="#42669A" d="M575.1,503.1c0-4.8,3.9-8,9.6-8c2.6,0,5.2,0.7,7.2,2c1.1,0.7,1.5,1.3,1.5,1.9c0,0.9-0.7,2-1.7,2
				c-0.4,0-0.7-0.4-1.7-0.7c-1.7-0.9-3.3-1.5-5.4-1.5c-3.7,0-5.7,1.9-5.7,4.3c0,6.5,15.2,4.8,15.2,14.8c0,5.6-4.4,8.7-10.4,8.7
				c-3.1,0-5.7-0.9-7.8-2.4c-0.9-0.7-1.5-1.3-1.5-2c0-0.9,0.7-2,1.7-2c0.6,0,0.9,0.4,1.9,0.9c1.7,1.1,3.3,2,5.7,2c3.7,0,6.3-2,6.3-5
				C590.3,510.7,575.1,512.4,575.1,503.1z"/>
			<path fill="#42669A" d="M613.8,495c8.7,0,14.4,6.1,14.4,15.6c0,9.4-5.7,15.6-14.4,15.6c-8.9,0-14.4-6.1-14.4-15.6
				C599.4,501.1,604.9,495,613.8,495z M613.8,522.7c6.3,0,10.4-4.6,10.4-12.2c0-7.6-4.1-12.2-10.4-12.2c-6.3,0-10.4,4.8-10.4,12.2
				C603.4,517.9,607.5,522.7,613.8,522.7z"/>
			<path fill="#42669A" d="M648.1,522.7c2,0,4.1-0.6,5.6-1.5c0.9-0.7,1.5-1.1,2-1.1c0.9,0,1.7,1.1,1.7,1.9c0,0.7-0.7,1.5-2,2.2
				c-2,1.3-4.6,2-7.6,2c-8.5,0-14.3-6.3-14.3-15.7c0-9.6,5.7-15.6,14.3-15.6c2.8,0,5.6,0.7,7.6,2c1.3,0.7,2,1.5,2,2.2
				s-0.7,1.9-1.7,1.9c-0.6,0-1.1-0.6-2-1.1c-1.5-0.9-3.5-1.5-5.6-1.5c-5.9,0-10.2,4.3-10.2,11.9C637.7,518.1,642,522.7,648.1,522.7z
				"/>
			<path fill="#42669A" d="M667.7,524.2c0,1.1-0.6,1.7-2,1.7c-1.3,0-2-0.6-2-1.7v-27.4c0-1.1,0.6-1.7,2-1.7c1.3,0,2,0.6,2,1.7V524.2
				z"/>
			<path fill="#42669A" d="M689.9,508.3c1.1,0,1.7,0.6,1.7,1.7c0,1.1-0.6,1.9-1.7,1.9h-10.4v10.4H692c1.1,0,1.7,0.6,1.7,1.9
				c0,1.1-0.6,1.9-1.7,1.9h-14.3c-1.5,0-2-0.6-2-2v-26.1c0-1.5,0.6-2,2-2h13.9c1.1,0,1.7,0.6,1.7,1.9c0,1.1-0.6,1.7-1.7,1.7h-12v9.3
				h10.4V508.3z"/>
			<path fill="#42669A" d="M711.4,524.2c0,1.1-0.6,1.7-2,1.7c-1.3,0-2-0.6-2-1.7V499H699c-1.1,0-1.7-0.6-1.7-1.7
				c0-1.1,0.6-1.9,1.7-1.9h20.7c1.1,0,1.7,0.6,1.7,1.9c0,1.1-0.6,1.7-1.7,1.7h-8.3V524.2z"/>
			<path fill="#42669A" d="M746,496.8c0.6-1.1,1.1-1.5,2.6-1.5c1.3,0,1.9,0.4,1.9,1.1c0,0.6-0.4,1.3-0.9,2l-10.2,17.2v8.7
				c0,1.1-0.6,1.7-2,1.7c-1.3,0-2-0.6-2-1.7v-8.7l-10-17.2c-0.6-0.7-0.9-1.5-0.9-2c0-0.6,0.6-1.1,1.9-1.1c1.5,0,2,0.6,2.6,1.5
				l8.5,14.8L746,496.8z"/>
		</g>
		<g>
			<path fill="#42669A" d="M80,576.3c0,5.9-5.2,10-14.6,10c-2.2,0-4.8-0.2-6.7-0.7c-3-0.9-3.1-2.8-3.1-4.6v-24.3
				c0-1.9,0-3.9,3.1-4.6c1.5-0.4,4.3-0.7,6.7-0.7c8.7,0,13.5,3.5,13.5,9.3c0,3.9-2.2,6.7-6.5,7.6C77.6,568.9,80,572.2,80,576.3z
				 M62.4,557.4v8.1h3.1c1.3,0,2.4-0.2,3.1-0.4c1.9-0.6,2.8-2,2.8-3.9c0-2.6-1.9-4.3-6.3-4.3C64.4,557.2,63.5,557.2,62.4,557.4z
				 M72.6,575.7c0-2-0.9-3.5-3.3-4.3c-0.9-0.4-2.2-0.6-3.7-0.6h-3.1v9.1c0.9,0.2,2,0.2,3.1,0.2C70.7,580.4,72.6,578.5,72.6,575.7z"
				/>
			<path fill="#42669A" d="M114.8,584.2c0,1.1-0.9,2-3.3,2c-2.4,0-3.5-0.7-4.1-2.4l-1.9-5.6h-13l-1.9,5.6c-0.6,1.7-1.5,2.4-3.9,2.4
				c-2.4,0-3.1-0.9-3.1-2c0-0.6,0.2-1.3,0.6-2.4l9.8-26.9c0.9-2.8,1.9-3.7,5.2-3.7c3.3,0,4.3,1.1,5.2,3.7l9.8,26.9
				C114.6,582.8,114.8,583.5,114.8,584.2z M91.9,546.6c0-1.1,0.9-2,1.9-2.6l2.4-1.9c0.6-0.6,1.7-1.3,3.1-1.3c1.5,0,2.6,0.9,3.1,1.3
				l2.4,1.9c0.9,0.6,1.9,1.5,1.9,2.6s-0.9,2.6-2.4,2.6c-0.9,0-1.5-0.4-3.5-2l-1.5-1.1l-1.5,1.1c-1.7,1.3-2.8,2-3.5,2
				C93,549.2,91.9,547.8,91.9,546.6z M103.5,572.2l-4.4-13l-4.4,13H103.5z"/>
			<path fill="#42669A" d="M131.9,583.3c0,1.9-1.1,2.8-3.5,2.8c-2.4,0-3.5-0.9-3.5-2.8v-25.4h-7.2c-1.9,0-2.8-1.1-2.8-3.1
				c0-2.2,0.9-3.1,2.8-3.1h21.9c1.9,0,2.8,1.1,2.8,3.1c0,2.2-0.9,3.1-2.8,3.1h-7.2v25.4H131.9z"/>
			<path fill="#42669A" d="M154.8,583.3c0,1.9-1.1,2.8-3.5,2.8c-2.4,0-3.5-0.9-3.5-2.8V554c0-1.9,1.1-2.8,3.5-2.8
				c2.4,0,3.5,0.9,3.5,2.8V583.3z"/>
			<path fill="#42669A" d="M188,584.2c0,1.3-0.9,1.9-3.3,1.9c-3.1,0-3.9-0.9-5.4-3.1l-5.7-8.5c-0.7,0-1.5,0.2-2.2,0.2
				c-0.7,0-1.5,0-1.9-0.2v8.9c0,1.9-1.1,2.8-3.5,2.8s-3.5-0.9-3.5-2.8v-26.9c0-1.9,0-3.9,3.1-4.6c1.5-0.4,4.3-0.7,6.5-0.7
				c8.9,0,14.3,4.1,14.3,11.3c0,4.6-2.2,8.3-6.3,10.4l5.4,7.2C187.4,582.4,188,583.3,188,584.2z M171.7,568.7c5,0,7.6-2.2,7.6-5.7
				c0-3.7-2.8-5.7-7.2-5.7c-0.9,0-1.9,0.2-2.6,0.2v11.1C170.2,568.7,170.9,568.7,171.7,568.7z"/>
			<path fill="#42669A" d="M224.3,581.8c1.3,0,1.9,0.6,1.9,2c0,1.3-0.6,2-1.9,2h-14.6c-1.7,0-2.4-0.7-2.4-2.4v-30.4
				c0-1.3,0.7-1.9,2.2-1.9c1.5,0,2.2,0.6,2.2,1.9v28.7L224.3,581.8L224.3,581.8z"/>
			<path fill="#42669A" d="M260,585c0,0.7-0.6,1.3-2,1.3c-1.5,0-2.2-0.6-2.6-1.7l-2.8-7.8h-14.8l-3,7.8c-0.4,1.1-0.9,1.7-2.6,1.7
				c-1.5,0-2-0.6-2-1.3c0-0.6,0.2-1.1,0.4-1.7l11.5-29.6c0.7-1.9,1.3-2.4,3.1-2.4c2,0,2.6,0.7,3.1,2.4l11.3,29.6
				C259.8,583.7,260,584.4,260,585z M251.1,572.9l-5.9-16.1l-6.1,16.1H251.1z"/>
			<path fill="#42669A" d="M278.6,560c0-5.6,4.4-9.1,11.1-9.1c3,0,5.9,0.7,8.1,2.2c1.3,0.7,1.9,1.5,1.9,2.2c0,0.9-0.9,2.2-2,2.2
				c-0.6,0-0.9-0.4-2-0.9c-1.9-1.1-3.7-1.9-6.1-1.9c-4.1,0-6.5,2-6.5,5c0,7.2,17.2,5.6,17.2,16.9c0,6.3-5.2,9.8-11.9,9.8
				c-3.5,0-6.5-1.1-8.9-2.8c-1.1-0.7-1.7-1.5-1.7-2.4s0.9-2.2,2-2.2c0.6,0,1.1,0.4,2.2,1.1c1.9,1.3,3.9,2.2,6.5,2.2
				c4.3,0,7.2-2.2,7.2-5.7C295.8,568.9,278.6,570.7,278.6,560z"/>
			<path fill="#42669A" d="M322.6,550.9c10,0,16.5,7,16.5,17.8c0,10.7-6.5,17.8-16.5,17.8s-16.5-7-16.5-17.8
				C306,557.9,312.4,550.9,322.6,550.9z M322.6,582.6c7.2,0,11.9-5.4,11.9-13.9s-4.6-13.9-11.9-13.9s-11.9,5.4-11.9,13.9
				C310.6,577.2,315.4,582.6,322.6,582.6z"/>
			<path fill="#42669A" d="M361.7,582.6c2.4,0,4.6-0.6,6.3-1.7c1.1-0.7,1.7-1.3,2.4-1.3c0.9,0,1.9,1.3,1.9,2c0,0.9-0.9,1.7-2.2,2.6
				c-2.4,1.5-5.2,2.4-8.7,2.4c-9.6,0-16.3-7-16.3-18c0-10.9,6.7-17.6,16.1-17.6c3.1,0,6.3,0.9,8.7,2.4c1.5,0.9,2.2,1.7,2.2,2.6
				s-0.9,2.2-2,2.2c-0.6,0-1.1-0.6-2.2-1.3c-1.9-1.1-4.1-1.7-6.5-1.7c-6.9,0-11.7,4.8-11.7,13.5
				C349.9,577.2,354.7,582.6,361.7,582.6z"/>
			<path fill="#42669A" d="M384.1,584.2c0,1.3-0.7,1.9-2.2,1.9c-1.5,0-2.2-0.6-2.2-1.9v-31.3c0-1.3,0.7-1.9,2.2-1.9
				c1.5,0,2.2,0.6,2.2,1.9V584.2z"/>
			<path fill="#42669A" d="M409.5,566.1c1.3,0,1.9,0.6,1.9,2c0,1.3-0.6,2-1.9,2h-11.7V582h14.3c1.3,0,1.9,0.6,1.9,2
				c0,1.3-0.6,2-1.9,2h-16.5c-1.7,0-2.4-0.7-2.4-2.4V554c0-1.7,0.7-2.4,2.4-2.4h15.7c1.3,0,1.9,0.6,1.9,2c0,1.3-0.6,2-1.9,2h-13.9
				v10.6h12V566.1z M405.6,546.8c-2.8,1.7-3.5,2-4.1,2c-1.1,0-1.7-0.9-1.7-1.9c0-0.9,0.7-1.3,1.9-2l4.1-2.8c0.9-0.6,1.3-0.9,2-0.9
				c1.3,0,1.9,1.3,1.9,2.2C409.7,544.6,408,545.3,405.6,546.8z"/>
			<path fill="#42669A" d="M434,584.2c0,1.3-0.7,1.9-2.2,1.9c-1.5,0-2.2-0.6-2.2-1.9v-28.7h-9.4c-1.3,0-1.9-0.6-1.9-2
				c0-1.3,0.6-2,1.9-2h23.5c1.3,0,1.9,0.6,1.9,2c0,1.3-0.6,2-1.9,2h-9.4v28.7H434z"/>
			<path fill="#42669A" d="M468,566.1c1.3,0,1.9,0.6,1.9,2c0,1.3-0.6,2-1.9,2h-11.7V582h14.3c1.3,0,1.9,0.6,1.9,2c0,1.3-0.6,2-1.9,2
				h-16.3c-1.7,0-2.4-0.7-2.4-2.4V554c0-1.7,0.7-2.4,2.4-2.4h15.7c1.3,0,1.9,0.6,1.9,2c0,1.3-0.6,2-1.9,2h-13.9v10.6H468V566.1z
				 M464.1,546.8c-2.8,1.7-3.5,2-4.1,2c-1.1,0-1.7-0.9-1.7-1.9c0-0.9,0.7-1.3,1.9-2l4.1-2.8c0.9-0.6,1.3-0.9,2-0.9
				c1.3,0,1.9,1.3,1.9,2.2C468.2,544.6,466.5,545.3,464.1,546.8z"/>
			<path fill="#42669A" d="M500.4,586.3c-2,0-4.4-0.2-6.1-0.6c-2.2-0.6-2.2-1.7-2.2-3.1V555c0-1.3,0-2.8,2.2-3.1
				c1.3-0.4,4.1-0.6,6.1-0.6c12.2,0,19.1,6.3,19.1,17.4C519.7,580,512.7,586.3,500.4,586.3z M500.6,582.4c9.4,0,14.4-4.8,14.4-13.7
				s-5-13.7-14.4-13.7c-1.3,0-2.6,0.2-3.9,0.4V582C498,582.2,499.3,582.4,500.6,582.4z"/>
			<path fill="#42669A" d="M543.6,566.1c1.3,0,1.9,0.6,1.9,2c0,1.3-0.6,2-1.9,2h-11.7V582h14.3c1.3,0,1.9,0.6,1.9,2
				c0,1.3-0.6,2-1.9,2h-16.3c-1.7,0-2.4-0.7-2.4-2.4V554c0-1.7,0.7-2.4,2.4-2.4h15.7c1.3,0,1.9,0.6,1.9,2c0,1.3-0.6,2-1.9,2h-13.9
				v10.6h11.9V566.1z"/>
			<path fill="#42669A" d="M576.2,586.3c-2,0-4.4-0.2-6.1-0.6c-2.2-0.6-2.2-1.7-2.2-3.1V555c0-1.3,0-2.8,2.2-3.1
				c1.3-0.4,4.1-0.6,6.1-0.6c12.2,0,19.1,6.3,19.1,17.4C595.3,580,588.2,586.3,576.2,586.3z M576.2,582.4c9.4,0,14.4-4.8,14.4-13.7
				s-5-13.7-14.4-13.7c-1.3,0-2.6,0.2-3.9,0.4V582C573.6,582.2,575.1,582.4,576.2,582.4z"/>
			<path fill="#42669A" d="M619.2,566.1c1.3,0,1.9,0.6,1.9,2c0,1.3-0.6,2-1.9,2h-11.7V582h14.3c1.3,0,1.9,0.6,1.9,2
				c0,1.3-0.6,2-1.9,2h-16.3c-1.7,0-2.4-0.7-2.4-2.4V554c0-1.7,0.7-2.4,2.4-2.4h15.7c1.3,0,1.9,0.6,1.9,2c0,1.3-0.6,2-1.9,2h-13.9
				v10.6h11.9V566.1z"/>
			<path fill="#42669A" d="M651.2,578.9c-0.6,1.5-1.3,2-2.6,2c-1.3,0-2-0.6-2.8-2l-9.8-21.7l-1.9,27.2c-0.2,1.3-0.7,1.9-2.2,1.9
				c-1.5,0-2-0.6-2-1.9l2.2-30.2c0.2-1.9,0.7-2.8,3-2.8c1.9,0,3,0.7,3.7,2.8l9.8,21.7l9.8-21.7c0.7-1.9,1.7-2.8,3.7-2.8
				s2.8,0.9,2.8,2.8l2.2,30.2c0,1.3-0.6,1.9-2,1.9c-1.5,0-2.2-0.6-2.4-1.9l-1.9-27.2L651.2,578.9z"/>
			<path fill="#42669A" d="M703.3,585c0,0.7-0.6,1.3-2,1.3c-1.7,0-2.2-0.6-2.6-1.7l-2.8-7.8H681l-3,7.8c-0.4,1.1-0.9,1.7-2.6,1.7
				c-1.5,0-2-0.6-2-1.3c0-0.6,0.2-1.1,0.4-1.7l11.5-29.6c0.7-1.9,1.3-2.4,3.1-2.4c2,0,2.6,0.7,3.1,2.4l11.3,29.6
				C703.1,583.7,703.3,584.4,703.3,585z M694.2,572.9l-5.9-16.1l-6.1,16.1H694.2z"/>
			<path fill="#42669A" d="M714.6,584.2c0,1.3-0.7,1.9-2.2,1.9c-1.5,0-2.2-0.6-2.2-1.9v-31.3c0-1.3,0.7-1.9,2.2-1.9s2.2,0.6,2.2,1.9
				V584.2z"/>
			<path fill="#42669A" d="M728.1,584.2c0,1.3-0.7,1.9-2,1.9c-1.5,0-2.2-0.6-2.2-1.9v-30.6c0-1.7,0.9-2.4,3-2.4s3.1,0.9,3.9,2.2
				l16.5,26.1v-26.5c0-1.3,0.7-1.9,2-1.9c1.5,0,2.2,0.6,2.2,1.9v30.6c0,1.7-0.9,2.4-2.6,2.4c-1.9,0-2.8-0.9-3.7-2.4l-17-26.5V584.2z
				"/>
		</g>
	</g>
	<g>
		<path fill="#899A3A" d="M670.1,162.3c-3.9,0-7,3.1-7,7v22.6h14.3v-22.6C677.1,165.5,674,162.3,670.1,162.3z M672,186.8h-3.5v-17.4
			c0-0.9,0.7-1.9,1.9-1.9s1.9,0.7,1.9,1.9v17.4H672z"/>
		<path fill="#899A3A" d="M663.6,150.8h13.2c1.5,0,2.6-1.1,2.6-2.6s-1.1-2.6-2.6-2.6h-13.2c-1.5,0-2.6,1.1-2.6,2.6
			S662.1,150.8,663.6,150.8z"/>
		<path fill="#899A3A" d="M676.8,157.5c1.5,0,2.6-1.1,2.6-2.6c0-1.5-1.1-2.6-2.6-2.6h-13.2c-1.5,0-2.6,1.1-2.6,2.6
			c0,1.5,1.1,2.6,2.6,2.6H676.8z"/>
		<path fill="#899A3A" d="M240,191v-28.9c0-4.6-3.9-8.5-8.5-8.5s-8.5,3.9-8.5,8.5v29.1h17V191z M228.2,162.1c0-1.9,1.5-3.1,3.1-3.1
			c1.9,0,3.1,1.5,3.1,3.1v23.7h-6.3L228.2,162.1L228.2,162.1z"/>
		<path fill="#899A3A" d="M280.8,191v-28.9c0-4.6-3.9-8.5-8.5-8.5s-8.5,3.9-8.5,8.5v29.1h17V191z M268.9,162.1
			c0-1.9,1.5-3.1,3.1-3.1c1.9,0,3.1,1.5,3.1,3.1v23.7h-6.3V162.1z"/>
		
			<linearGradient id="SVGID_1_" gradientUnits="userSpaceOnUse" x1="215.0233" y1="605.9786" x2="215.0233" y2="434.7057" gradientTransform="matrix(1.8522 0 0 -1.8522 0 1170.2357)">
			<stop  offset="0" style="stop-color:#41669A"/>
			<stop  offset="0.3946" style="stop-color:#899B3A"/>
			<stop  offset="0.6493" style="stop-color:#899B3A"/>
			<stop  offset="0.8248" style="stop-color:#1D433F"/>
			<stop  offset="1" style="stop-color:#04273D"/>
		</linearGradient>
		<path fill="url(#SVGID_1_)" d="M788.1,278.6c0-10.4-5.2-22-19.4-23c0-0.4,0-0.7,0-0.9c0-13.7-11.1-24.8-24.8-24.8
			c-2.2,0-4.4,0.4-6.7,0.9v-30.7l1.9-5.9c0.4-1.3,1.3-1.5,2.2-2.4c1.3-1.3-0.2-3.1-0.2-3.1L719.4,156l-0.9-1.5v-8.7
			c0-1.5-1.1-2.6-2.6-2.6c-1.5,0-2.6,1.1-2.6,2.6v6.9h-5.4v-6.9c0-1.5-1.1-2.6-2.6-2.6s-2.6,1.1-2.6,2.6v6.9h-8.1v-21.1h3.5
			c0.9,0,1.9-0.6,2.4-1.3c0.6-0.9,0.4-1.9,0-2.8l-6.3-9.8l-14.3-36.3v-6.7c0-1.5-1.1-2.6-2.6-2.6s-2.6,1.1-2.6,2.6v4.6H667v-4.4
			c0-1.5-1.1-2.6-2.6-2.6c-1.5,0-2.6,1.1-2.6,2.6v6.7l-14.3,36.3l-6.3,9.8c-0.6,0.7-0.6,1.9,0,2.8c0.6,0.9,1.3,1.3,2.4,1.3h3.5v21.1
			h-10v-6.3c0-1.5-1.1-2.6-2.6-2.6s-2.6,1.1-2.6,2.6v6.3h-5.4v-6.3c0-1.5-1.1-2.6-2.6-2.6s-2.6,1.1-2.6,2.6v8.1l-24.1,33.9
			c0,0-1.5,1.9-0.2,3.1c0.9,0.9,1.9,1.1,2.2,2.4l1.9,5.9v12.8c-4.4-3.5-9.4-6.3-15-8V116c0-1.5-1.1-2.6-2.6-2.6
			c-1.5,0-2.6,1.1-2.6,2.6v87.4c-2.8-0.6-5.6-0.7-8.5-0.7c-1.1,0-2.2,0-3.3,0.2c-1.3-17.2-15.7-30.9-33.3-30.9c-0.2,0-0.4,0-0.6,0
			c-9.1-21.3-29.4-34.8-52.4-34.8c-26.1,0-48.7,17.8-55.2,42.8c-6.5-3.9-13.9-5.9-21.5-5.9c-9.1,0-17.4,2.8-24.3,7.6l-2.4-10.7h5.7
			c1.5,0,2.6-1.1,2.6-2.6v-12.4c0-1.5-1.1-2.6-2.6-2.6h-7.6v-4.8h3.9c1.1,0,2-0.7,2.4-1.7c0.4-1.1,0-2.2-0.7-3l-23.5-20.4
			c-0.9-0.9-2.4-0.9-3.5,0l-23.5,20.4c-0.9,0.7-1.1,1.9-0.7,3c0.4,1.1,1.3,1.7,2.4,1.7h3.9v4.8h-7.4c-1.5,0-2.6,1.1-2.6,2.6v12.4
			c0,1.5,1.1,2.6,2.6,2.6h5.7l-3.7,16.9H295V134c0-27.6-23.9-37.6-31.3-40v-8.9c0-5.4-6.1-8.1-9.4-9.4v-1.3V50.4
			c0-1.5-1.1-2.6-2.6-2.6s-2.6,1.1-2.6,2.6v23.9v1.3c-3.3,1.1-9.4,3.9-9.4,9.4V94c-7.2,2.4-31.3,12.4-31.3,40v54.1h-30.7
			c-3-5-8.1-8.3-14.3-8.5c-4.6-10.2-14.6-16.5-25.9-16.5c-12.4,0-23.3,8.1-27.2,19.6c-3-1.5-6.1-2.2-9.3-2.2
			c-11.9,0-21.5,9.6-21.5,21.5c0,0.2,0,0.4,0,0.4c-2.4,0.2-7.8,0.9-11.9,5.2c-3.3,3.5-5,8.5-4.6,14.8c0.2,2.8,0.9,5.4,2,7.8
			c-0.4,0.7-0.6,1.7-0.9,2.4c-3.5-1.9-7.4-2.8-11.3-2.8c-13.7,0-24.8,11.1-24.8,24.8c0,0.4,0,0.6,0,0.9c-3.7,0.2-9.4,1.9-13.9,6.5
			c-2.8,3-6.1,8.3-5.6,16.5c0.7,11.7,9.3,20.6,20,21.3c3.3,4.6,18,18.3,68.9,18.3l0,0c180.8,0,270.2,26.9,271.2,27
			c53.5,14.3,103,19.6,147.2,19.6c56.9,0,104.8-8.9,141-18.7c64.8-17.8,105.2-42.8,110.6-46.3C778.8,299.6,788.1,290.1,788.1,278.6z
			 M694.2,157.9h20l18.7,28.2h-38.7V157.9z M694.2,191.4h40.2l-1.9,5.7h-38.3V191.4z M731.8,202.3v28.3c-4.8-12.8-17-21.5-31.1-21.5
			c-2.2,0-4.4,0.2-6.7,0.7v-7.4h37.8V202.3z M681.6,251.6c0.9-0.2,1.7-0.2,2.4-0.2c12,0,21.7,9.8,21.7,21.7c0,12-9.8,21.7-21.7,21.7
			h-23h-29.8v-20.6l9.3-13c0.9-1.1,0.6-2.8-0.6-3.7c-1.1-0.9-2.8-0.6-3.7,0.6l-4.8,6.9v-15.7c0-1.5-1.1-2.6-2.6-2.6
			c-1.5,0-2.6,1.1-2.6,2.6v31.3l-31.1-9.8c-1.5-0.4-3,0.4-3.3,1.7c-0.4,1.5,0.4,3,1.7,3.3l32.8,10.2v8.7h-58.3
			c-8.9,0-16.3-7.2-16.3-16.3c0-3.9,1.1-16.9,14.6-17.6c0.6,0,1.3,0,2,0.2l3.7,0.7l-0.7-3.7c-0.2-0.6-0.2-1.1-0.2-1.7v-4.1
			c1.1-9.6,9.4-17,19.3-17c4.1,0,8,1.3,11.5,3.9l3.3,2.6l0.7-4.1c2.4-13.2,14.1-22.8,27.4-22.8c11.7,0,21.9,7,25.9,18l0.7,1.9l2-0.2
			c0.2,0,0.4,0,0.7,0c0.2,0,0.2,0,0.4,0c8,0,14.6,6.5,14.6,14.4v3.5L681.6,251.6z M421.2,279.2c-1.1-12-8.7-15-14.3-15.4
			c11.1-5,28.9-11.9,51.3-16.1c19.3-3.7,43.9-5.7,71.5-2c0.6,0.4,1.3,0.4,1.9,0.4c8.5,1.3,17.2,3,26.1,5.6L421.2,279.2z
			 M403.8,294.7h-9.6h-35.7v-5.9l25.6-8c1.5-0.4,2.2-1.9,1.7-3.3c-0.4-1.5-1.9-2.2-3.3-1.7l-23.9,7.4v-24.1c0-1.5-1.1-2.6-2.6-2.6
			s-2.6,1.1-2.6,2.6v10.7l-2.8-4.1c-0.9-1.1-2.6-1.5-3.7-0.6c-1.1,0.9-1.5,2.6-0.6,3.7l7.2,10.2v15.6h-41.1
			c-9.3,0-16.7-7.4-16.7-16.7s7.4-16.7,16.7-16.7c0.6,0,1.3,0,1.9,0.2l3.5,0.6V259c0-0.2,0-0.2,0-0.4c0-6.1,5-10.9,11.1-10.9h0.2
			c0.2,0,0.4,0,0.6,0l2,0.2l0.7-1.9c3.1-8.3,11.1-13.9,20-13.9c10.4,0,19.3,7.4,21.1,17.6l0.7,4.1l3.3-2.6c2.6-1.9,5.6-3,8.7-3
			c8.1,0,14.8,6.7,14.8,14.8c0,0.7,0,1.5-0.2,2.6l-0.7,3.7l3.7-0.7c0.6-0.2,1.1-0.2,1.7-0.2l0,0c7.4,0,10.9,4.3,10.9,13.3
			C416.2,289.2,410.6,294.7,403.8,294.7z M170.6,286l32.8-10.2c1.5-0.4,2.2-1.9,1.7-3.3c-0.4-1.5-1.9-2.2-3.3-1.7l-31.1,9.8v-31.3
			c0-1.5-1.1-2.6-2.6-2.6s-2.6,1.1-2.6,2.6v15.7l-4.8-6.9c-0.9-1.1-2.6-1.5-3.7-0.6s-1.5,2.6-0.6,3.7l9.3,13v20.6H140h-27.4
			c-12,0-21.7-9.8-21.7-21.7c0-12,9.8-21.7,21.7-21.7c0.7,0,1.7,0.2,2.4,0.2l3.5,0.6v-3.1c0-0.2,0-0.2,0-0.4c0-8,6.7-14.4,14.6-14.4
			c0.2,0,0.4,0,0.4,0c0.2,0,0.4,0,0.7,0l2,0.2l0.7-1.9c4.3-10.9,14.4-18,25.9-18c13.5,0,25,9.6,27.4,22.8l0.7,4.1l3.3-2.6
			c3.3-2.4,7.4-3.9,11.5-3.9c10.7,0,19.4,8.7,19.4,19.4c0,0.9-0.2,2-0.4,3.3l-0.7,3.7l3.7-0.7c0.4,0,0.9-0.2,1.3-0.2
			c0.4,0,0.7,0,1.1-0.2c3.7-0.4,6.5,0.4,8.7,2.4c5.4,4.8,5.4,14.8,5.4,15.4c0,8.9-7.2,16.3-16.3,16.3h-57.6V286z M234.7,255.5
			c-1.1-0.2-2.4-0.2-3.7,0c0-0.4,0-0.6,0-0.9c0-4.1-0.9-7.8-2.6-11.1c0.2-1.7,1.5-2.8,3.1-2.8c1.9,0,3.1,1.5,3.1,3.1L234.7,255.5
			L234.7,255.5z M275.4,294.7h-6.3v-50.9c0-1.9,1.5-3.1,3.1-3.1c1.9,0,3.1,1.5,3.1,3.1V294.7z M280.8,294.7v-50.9
			c0-4.6-3.9-8.5-8.5-8.5s-8.5,3.9-8.5,8.5v50.9H243c4.4-3.9,7.4-9.8,7.4-16.3c0-1.3-0.2-13-7.2-19.3c-0.9-0.9-2-1.7-3.1-2.2v-13.3
			c0-4.6-3.9-8.5-8.5-8.5c-2.6,0-5,1.3-6.5,3.1c-4.6-5.2-11.3-8.5-18.7-8.5c-2.4,0-4.6,0.4-7,1.1c1.3-1.9,2.4-4.1,3.1-6.3h103.9V257
			c-9.4,2.6-16.3,11.1-16.3,21.3c0,6.7,3,12.6,7.6,16.7h-16.9V294.7z M343.7,158.6h28.7v7.2H358h-14.3V158.6z M390.1,243.8
			c-1.3-0.2-2.8-0.4-4.1-0.4c-3,0-5.9,0.7-8.7,2c-2.6-8-8.9-14.1-16.5-16.9v-13.7h2.2c1.5,0,2.6-1.1,2.6-2.6v-14.3
			c0-1.5-1.1-2.6-2.6-2.6h-2.2v-24.3h13.3L390.1,243.8z M566.4,248.6c-2.8-0.9-5.4-1.7-8.1-2.4l-6.3-19.6c8,2,16.1,4.6,24.4,7.8
			C571.6,237.7,567.9,242.7,566.4,248.6z M552.1,244.5c-5.4-1.3-10.7-2.4-15.9-3.3l10.7-12.8L552.1,244.5z M530.1,240.3
			c-5.4-0.7-10.6-1.3-15.7-1.5l-10.7-18.5c12.4,0.2,25.9,1.5,39.8,4.3L530.1,240.3z M508,238.4c-2.6,0-5-0.2-7.6-0.2
			c-3.3,0-6.5,0-9.6,0.2l8.1-15.6L508,238.4z M484.5,238.8c-5.4,0.4-10.6,0.9-15.6,1.7l-13.3-15.7c0.7-0.2,1.7-0.4,2.4-0.6
			c10.6-2,22.8-3.5,36.1-3.9L484.5,238.8z M462.8,241.4c-2,0.4-3.9,0.7-5.9,1.1c-3.5,0.7-7,1.5-10.4,2.2l5.2-16.3L462.8,241.4z
			 M440.4,246.2c-5,1.3-9.8,2.8-14.1,4.3L411,238.6c8.9-3.9,21.1-8.3,35.7-11.9L440.4,246.2z M420.4,252.7
			c-5.2,1.9-9.8,3.7-13.7,5.6l1.5-15L420.4,252.7z M401.9,251.2c-1.7-2-3.7-3.9-5.9-5.2v-0.2c1.3-0.7,3.7-2,6.9-3.5L401.9,251.2z
			 M356,200.6h4.3v8.9H356V200.6z M355.4,171.2v24.3h-2.2c-1.5,0-2.6,1.1-2.6,2.6v14.3c0,1.5,1.1,2.6,2.6,2.6h2.2v12.4
			c-1.1-0.2-2.4-0.2-3.7-0.2c-10.6,0-19.8,5.9-24.3,15.6c-0.4,0-0.7,0-1.1,0l15.6-71.5H355.4z M320.6,244.4
			c-4.4,2.4-7.8,6.7-8.5,11.9h-0.2c-0.2,0-0.2,0-0.4,0v-34.3c0-1.1-0.6-2-1.5-2.4l0,0l-14.8-6.9v-6.9h33.7L320.6,244.4z
			 M251.9,198.8l38.3,17.6c0.4,0.7,1.3,1.5,2.4,1.5c0.2,0,0.4,0,0.6,0l3.5,1.7h-88.3L251.9,198.8z M289.9,210.3l-35.4-16.1v-48.5
			h35.4L289.9,210.3L289.9,210.3z M249.1,194.2l-35.4,16.7v-65.2h35.4V194.2z M208.4,213.2l-5,2.4c-0.2-3.5-1.3-6.9-3-9.8h8
			L208.4,213.2L208.4,213.2z M606.6,218.1v-15.6H646v9.1c-3.9-1.5-8.1-2.4-12.4-2.4c-9.8,0-18.7,4.3-24.8,11.3
			C608.1,219.5,607.3,218.8,606.6,218.1z M670.5,228.6c-1.1,0-2.2,0.2-3.3,0.4c-1.1-0.2-2.2-0.4-3.5-0.4c-2.8-6.1-7-10.9-12.4-14.4
			v-82.6h5.2c1.7,5.9,7.2,10.4,13.7,10.4c6.5,0,12-4.4,13.7-10.4h5.2v79.8C680.8,214.4,674.2,220.5,670.5,228.6z M661.2,127.7
			c0-4.8,3.9-8.9,8.9-8.9c5,0,8.9,3.9,8.9,8.9c0,5-3.9,8.9-8.9,8.9C665.1,136.6,661.2,132.5,661.2,127.7z M651.2,120.3
			c0-0.2,0.2-0.4,0.2-0.4l13.9-35.2h9.4l13.9,35.2c0,0.2,0.2,0.4,0.2,0.4l3.7,5.9h-8.7c-0.7-7-6.9-12.6-14.1-12.6
			s-13.3,5.6-14.1,12.6h-8.1L651.2,120.3z M624.2,157.9H646V186h-40.6L624.2,157.9z M646,191.4v5.7h-40.2l-1.9-5.7H646z
			 M406.2,179.5c7.8,0,15.2,2.4,21.7,7.2l3.3,2.6l0.7-4.1c4.6-24.4,25.9-42.2,50.9-42.2c21.5,0,40.6,13.2,48.3,33.3l0.7,1.9l2-0.2
			c0.4,0,0.7,0,1.1-0.2c0.4,0,0.7-0.2,1.1-0.2c15.6,0,28.2,12.6,28.2,28c0,0.2,0,0.4,0,0.6v3.1l3.9-0.6c1.7-0.2,3.1-0.4,4.6-0.4
			c13.5,0,25.4,6.5,32.8,16.7c-1.5,2.4-2.8,5-3.5,7.8c-3.5-1.9-7.4-2.8-11.3-2.8c-2.8,0-5.2,0.4-7.8,1.3
			c-30-12.2-58.7-16.3-83.5-16.1c-0.2,0-0.4,0-0.6,0c-0.2,0-0.4,0-0.4,0c-15.4,0.2-29.4,1.9-41.3,4.1c-31.9,6.1-54.3,17-62.2,21.3
			l-11.5-52.8C389.5,182.5,397.5,179.5,406.2,179.5z M382.6,158.6v7.2h-4.8v-7.2H382.6z M358,128.8l16.5,14.3h-33L358,128.8z
			 M343.7,148.4h28.7v4.8h-28.7V148.4z M333.6,158.6h4.8v7.2h-4.8V158.6z M331.7,193.4l-1.5,7.2h-35v-7.2H331.7z M258.7,85.1v13
			l2,0.6c1.1,0.4,29.3,7.2,29.3,35.4v6.5h-35.4V81.6C256.7,82.5,258.7,83.8,258.7,85.1z M242.8,98.6l2-0.6v-13c0-1.3,2-2.6,4.3-3.7
			v59.1h-35.4V134C213.7,105.8,241.7,98.8,242.8,98.6z M208.4,193.4v7.2h-12.2c-4.3-4.1-9.8-6.5-15.9-6.5c-0.2,0-0.2,0-0.4,0
			c0-0.2-0.2-0.6-0.2-0.7H208.4z M68.3,221.9c-0.2-4.6,0.7-8.3,3.1-10.9c2.6-2.6,6.1-3.5,8.7-3.5c0.6,0,1.1,0,1.9,0.2l3.7,0.7
			l-0.7-3.7c-0.2-1.1-0.4-2-0.4-2.8c0-8.9,7.2-16.1,16.1-16.1c3.3,0,6.7,1.1,9.4,3.1l3.3,2.6l0.7-4.1c2.2-11.3,11.9-19.3,23.2-19.3
			c9.6,0,18.2,5.9,21.7,15l0.7,1.9l2-0.2c0.2,0,0.4,0,0.6,0s0.2,0,0.4,0c6.7,0,11.9,5.4,12,11.9v3.5l3.5-0.6c0.7-0.2,1.5-0.2,2-0.2
			c10,0,18,8.1,18,18c0,4.6-1.7,8.7-4.4,11.9c-5.2-12-17-20.2-30.6-20.2c-13.2,0-24.8,7.6-30.2,19.6c-0.2,0-0.4,0-0.7,0l0.2-18.3
			l10.7-5.4c1.3-0.7,1.9-2.2,1.1-3.5c-0.7-1.3-2.2-1.9-3.5-1.1l-8.3,4.3v-8c0-1.5-1.1-2.6-2.6-2.6l0,0c-1.5,0-2.6,1.1-2.6,2.6
			l-0.2,32.2c-0.2,0-0.6,0-0.7,0c-5.4-11.9-17-19.6-30.2-19.6c-11.3,0-21.3,5.6-27.4,14.4C68.3,223.1,68.3,222.5,68.3,221.9z
			 M13.9,278.4c-0.4-5.2,1.1-9.3,4.1-12.6c3.1-3.3,7.6-4.8,10.4-4.8c0.7,0,1.3,0,2.2,0.2l3.7,0.7l-0.7-3.7c-0.2-1.3-0.4-2.4-0.4-3.3
			c0-10.7,8.7-19.4,19.4-19.4c4.1,0,8,1.3,11.5,3.9l3.3,2.6l0.7-4.1c2.8-13.9,14.3-23.3,27.6-23.3c11.7,0,21.7,7,25.9,17.8
			c-4.4,3.1-7.6,8-8.3,13.7c-0.2,0-0.6,0-0.7,0c-15,0-27,12.2-27,27c0,8.9,4.3,16.9,10.9,21.7H30.2
			C21.5,294.7,14.4,287.7,13.9,278.4z M112.6,300.1h32.2h58.5l0,0h60.2h17h28.3l0,0h3h91.9h1.1l0,0c8.5-0.6,15.2-7,16.3-15.4
			l144.5-29.4c0,0.2,0,0.2,0,0.4c-8.3,0.6-13.5,4.8-16.3,10.2l-6.5,2.4c-1.3,0.6-2,2-1.7,3.3c0.4,1.1,1.5,1.7,2.6,1.7
			c0.4,0,0.6,0,0.9-0.2l2.2-0.7c-0.4,2-0.7,4.3-0.7,6.3c0,11.9,9.6,21.5,21.5,21.5h184.7c-59.1,20-193,30.2-332.1,18.3l4.3-1.5
			c1.3-0.6,2-2,1.7-3.3c-0.6-1.3-2-2-3.3-1.7l-13.3,4.8c-0.4,0.2-0.7,0.4-0.9,0.6c-13-1.3-25.9-2.6-38.9-4.3
			c-147.4-18.5-266.5-0.9-272.3,0c-38.7,0-54.8-8-61.1-13H112.6z M655.5,341.2c-63.5,17.4-164.5,31.5-285.4-0.9
			c-0.2,0-22.8-6.9-67.6-13.7c-34.6-5.2-88.9-11.3-161.5-13.2c48.2-4.1,132.1-7.4,228,4.8c146.3,18.3,296.4,10.6,370.4-8.9
			C720.7,318.8,692,331.2,655.5,341.2z M766.6,294.7h-66.5c6.7-5,10.9-12.8,10.9-21.7c0-15-12.2-27-27-27c-0.4,0-0.6,0-0.7,0
			c-0.7-5.6-3.9-10.6-8.3-13.7c4.3-10.9,14.4-17.8,25.9-17.8c13.5,0,25,9.6,27.4,22.8l0.7,4.1l3.3-2.6c3.3-2.4,7.4-3.9,11.5-3.9
			c10.7,0,19.4,8.7,19.4,19.4c0,0.9-0.2,2-0.4,3.3l-0.7,3.7l3.7-0.7c0.7-0.2,1.5-0.2,2-0.2c13.5,0.9,14.6,13.7,14.6,17.6
			C782.7,287.5,775.5,294.7,766.6,294.7z"/>
		
			<linearGradient id="SVGID_2_" gradientUnits="userSpaceOnUse" x1="238.1104" y1="467.3043" x2="248.1909" y2="467.3043" gradientTransform="matrix(1.8522 0 0 -1.8522 0 1170.2357)">
			<stop  offset="0" style="stop-color:#14383F"/>
			<stop  offset="1" style="stop-color:#1D433F"/>
		</linearGradient>
		<path fill="url(#SVGID_2_)" d="M443.8,309.7c0.4,0,0.6,0,0.9-0.2l13.3-4.8c1.3-0.6,2-2,1.7-3.3c-0.6-1.3-2-2-3.3-1.7l-13.3,4.8
			c-1.3,0.6-2,2-1.7,3.3C441.5,309,442.7,309.7,443.8,309.7z"/>
		
			<linearGradient id="SVGID_3_" gradientUnits="userSpaceOnUse" x1="256.1219" y1="473.9043" x2="266.2023" y2="473.9043" gradientTransform="matrix(1.8522 0 0 -1.8522 0 1170.2357)">
			<stop  offset="0.1752" style="stop-color:#1D433F"/>
			<stop  offset="1" style="stop-color:#3C5A43"/>
		</linearGradient>
		<path fill="url(#SVGID_3_)" d="M477.1,297.5c0.4,0,0.6,0,0.9-0.2l13.3-4.8c1.3-0.6,2-2,1.7-3.3c-0.6-1.3-2-2-3.3-1.7l-13.3,4.8
			c-1.3,0.6-2,2-1.7,3.3C474.9,297,476,297.5,477.1,297.5z"/>
		
			<linearGradient id="SVGID_4_" gradientUnits="userSpaceOnUse" x1="274.1338" y1="480.4043" x2="284.2138" y2="480.4043" gradientTransform="matrix(1.8522 0 0 -1.8522 0 1170.2357)">
			<stop  offset="0" style="stop-color:#355443"/>
			<stop  offset="1" style="stop-color:#607842"/>
		</linearGradient>
		<path fill="url(#SVGID_4_)" d="M510.4,285.5c0.4,0,0.6,0,0.9-0.2l13.3-4.8c1.3-0.6,2-2,1.7-3.3c-0.6-1.3-2-2-3.3-1.7l-13.3,4.8
			c-1.3,0.6-2,2-1.7,3.3C508.2,284.7,509.3,285.5,510.4,285.5z"/>
		
			<linearGradient id="SVGID_5_" gradientUnits="userSpaceOnUse" x1="302.8802" y1="571.4184" x2="302.8802" y2="556.3807" gradientTransform="matrix(1.8522 0 0 -1.8522 0 1170.2357)">
			<stop  offset="0" style="stop-color:#657D76"/>
			<stop  offset="3.331342e-03" style="stop-color:#667E75"/>
			<stop  offset="0.1216" style="stop-color:#728863"/>
			<stop  offset="0.2382" style="stop-color:#7D9051"/>
			<stop  offset="0.3512" style="stop-color:#839644"/>
			<stop  offset="0.4588" style="stop-color:#88993D"/>
			<stop  offset="0.5555" style="stop-color:#899B3A"/>
			<stop  offset="1" style="stop-color:#899B3A"/>
		</linearGradient>
		<path fill="url(#SVGID_5_)" d="M544.5,137.7c2.6,1.5,5.2,2,7.8,2c3.3,0,6.5-0.9,9.4-1.9c4.8-1.3,9.1-2.6,13.2-0.2
			c0.7,0.6,1.9,0.6,2.6,0c0.7-0.6,1.3-1.3,1.3-2.2v-19.3c0-0.9-0.6-1.9-1.3-2.2c-6.1-3.5-12-1.7-17.2-0.2c-4.8,1.3-9.1,2.6-13.2,0.2
			c-0.7-0.6-1.9-0.6-2.6,0c-0.7,0.6-1.3,1.3-1.3,2.2v19.3C543,136.4,543.6,137.3,544.5,137.7z M548.4,120.1
			c4.6,1.1,9.3-0.2,13.3-1.3c4.3-1.3,8.1-2.2,11.9-0.9v13.7c-4.6-1.1-9.3,0.2-13.3,1.3c-4.3,1.3-8.1,2.2-11.9,0.9V120.1z"/>
		<g>
			<path fill="#05273C" d="M381.9,379.9c0.2-0.6,0-1.1-0.2-1.7c-0.4-0.6-0.7-0.7-1.3-0.9l-18.2-4.4c-1.3-0.2-2.2,0.4-2.4,1.7
				l-7.8,32.4l0,0c-0.2,0.6,0,1.1,0.2,1.7c0.4,0.6,0.7,0.7,1.3,0.9c0.2,0,0.4,0,0.6,0c0.4,0,0.7-0.2,1.1-0.4
				c0.6-0.4,0.9-0.7,0.9-1.3l3.3-14.1l13.7,3.3c0.6,0.2,1.1,0,1.7-0.2c0.6-0.4,0.9-0.7,0.9-1.3c0.2-0.6,0-1.1-0.2-1.7
				c-0.4-0.6-0.7-0.7-1.3-0.9l-13.7-3.3l3-12l15.9,3.9c0.6,0.2,1.1,0,1.7-0.4C381.3,381.1,381.7,380.5,381.9,379.9z"/>
			<path fill="#05273C" d="M399.5,381.1l-10.2-1.9c-0.6,0-0.9,0.2-1.5,0.4c-0.4,0.4-0.7,0.7-0.7,1.3l-5.9,32.8
				c-0.2,0.6,0,1.1,0.4,1.7c0.4,0.6,0.7,0.7,1.3,0.9s1.1,0,1.7-0.4c0.6-0.4,0.7-0.7,0.9-1.3l2.4-13.2l7.4,1.3h0.2
				c1.3,0.4,2.4,1.3,3.5,2.4c1.5,1.5,2,3.1,1.7,5c-0.9,5.6-0.2,8.5,2.6,9.1l0.9,0.2h0.2c1.1-0.2,1.9-1.1,1.9-2.4
				c-0.2-0.9-0.7-1.5-1.5-1.7c-0.2-0.4-0.2-1.5,0.2-3.5c0.4-2.4,0.2-4.4-0.6-6.1c-0.6-1.3-1.3-2.4-2.4-3.3c1.5-0.6,2.6-1.5,3.7-2.6
				c1.5-1.7,2.4-3.5,2.8-5.6c0.6-3,0-5.7-1.9-8.3C404.9,383.3,402.5,381.6,399.5,381.1z M404.3,393.3c-0.4,1.9-1.3,3.3-2.8,4.4
				c-1.5,1.1-3.1,1.5-5,1.3l-8-1.5L391,384l7.8,1.5c1.9,0.4,3.3,1.3,4.4,2.8C404.3,389.8,404.7,391.4,404.3,393.3z"/>
			<path fill="#05273C" d="M437.8,387l-18.3-2.4c-0.6,0-1.1,0-1.5,0.4c-0.4,0.4-0.7,0.9-0.7,1.5l-4.4,33.2c0,0.6,0,1.1,0.4,1.5
				c0.4,0.4,0.7,0.7,1.3,0.7l18.3,2.4c0.2,0,0.2,0,0.4,0c0.4,0,0.9-0.2,1.3-0.4c0.4-0.4,0.7-0.9,0.7-1.5s0-1.1-0.4-1.7
				c-0.4-0.4-0.7-0.7-1.5-0.7l-16.1-2.2l1.7-12.2l14.1,1.9c0.6,0,1.1,0,1.5-0.4c0.4-0.4,0.7-0.9,0.7-1.5s0-1.1-0.4-1.5
				c-0.4-0.6-0.9-0.7-1.5-0.9l-14.1-1.9L421,389l16.1,2.2c0.6,0,1.1,0,1.5-0.4c0.4-0.4,0.7-0.9,0.7-1.5s0-1.1-0.4-1.7
				C439,387.2,438.4,387,437.8,387z"/>
			<path fill="#05273C" d="M454.1,388.6l-6.7-0.6c-0.6,0-1.1,0.2-1.5,0.6s-0.7,0.9-0.7,1.5l-3.1,33.2c0,0.6,0.2,1.1,0.4,1.5
				c0.4,0.4,0.7,0.7,1.3,0.7l6.9,0.6c0.7,0,1.3,0.2,2,0.2c4.4,0,8.3-1.5,11.9-4.3c4.1-3.3,6.3-7.6,6.7-12.8
				c0.6-5.2-0.9-9.8-4.3-13.7C463.6,391.4,459.3,389.2,454.1,388.6z M466.9,408.8c-0.4,4.1-2,7.2-5.2,9.8c-3.1,2.6-6.7,3.7-10.6,3.3
				l-4.4-0.4l2.8-28.9l4.4,0.4c4.1,0.4,7.2,2.2,9.8,5.2C466.2,401.2,467.3,404.8,466.9,408.8z"/>
			<path fill="#05273C" d="M498.2,392l-18.3-1.1c-0.6,0-1.1,0.2-1.5,0.6c-0.4,0.4-0.7,0.9-0.7,1.5l-2,33.3l0,0
				c0,0.6,0.2,1.1,0.6,1.5c0.4,0.4,0.7,0.6,1.3,0.7l18.5,1.1h0.2c0.6,0,0.9-0.2,1.5-0.6c0.4-0.4,0.7-0.9,0.7-1.5s-0.2-1.1-0.6-1.5
				c-0.4-0.4-0.9-0.7-1.5-0.7l-16.3-0.9l0.7-12.4l14.1,0.9c0.6,0,1.1-0.2,1.5-0.6c0.4-0.4,0.7-0.9,0.7-1.5s-0.2-1.1-0.6-1.5
				c-0.4-0.4-0.9-0.7-1.5-0.7l-14.1-0.9l0.7-12.4l16.3,0.9c0.6,0,1.1-0.2,1.5-0.6c0.4-0.4,0.7-0.9,0.7-1.5s-0.2-1.1-0.6-1.5
				C499.3,392.4,498.8,392,498.2,392z"/>
			<path fill="#05273C" d="M526.7,425.9c-0.2-0.4-0.6-1.5-0.4-3.5c0-2.4-0.4-4.4-1.3-5.9c-0.7-1.1-1.7-2.2-2.8-3
				c1.3-0.7,2.4-1.9,3.3-3.1c1.3-1.9,1.9-3.7,2-5.9c0.2-3.1-0.9-5.7-3-8c-2-2.2-4.6-3.3-7.8-3.5l-10.4-0.4c-0.6,0-0.9,0.2-1.3,0.6
				c-0.4,0.4-0.6,0.9-0.6,1.5l-1.1,33.3c0,0.6,0.2,1.1,0.6,1.5c0.4,0.4,0.9,0.6,1.5,0.7c0.6,0,1.1-0.2,1.5-0.6
				c0.4-0.4,0.7-0.9,0.7-1.5l0.4-13.3l7.6,0.2h0.2c1.3,0.2,2.6,0.9,3.9,1.9c1.7,1.3,2.4,3,2.4,4.8c-0.2,5.6,1.1,8.5,3.9,8.5h0.2h0.6
				h0.2h0.2c1.1-0.4,1.7-1.3,1.5-2.8C528.2,426.4,527.5,426.1,526.7,425.9z M523.2,404c0,1.9-0.7,3.5-2,4.8s-3,1.9-4.8,1.9l0,0
				l-8.1-0.2l0.4-13.7l8,0.2c1.9,0,3.5,0.7,4.8,2.2C522.7,400.5,523.2,402.2,523.2,404z"/>
			<path fill="#05273C" d="M537.1,393.3c-0.6,0-1.1,0.2-1.5,0.6s-0.6,0.9-0.6,1.5l-0.4,33.3c0,0.6,0.2,1.1,0.6,1.5s0.9,0.6,1.5,0.6
				l0,0c0.6,0,1.1-0.2,1.5-0.6c0.4-0.4,0.7-0.9,0.7-1.5l0.4-33.3c0-0.6-0.2-1.1-0.7-1.5C538.2,393.5,537.7,393.3,537.1,393.3z"/>
			<path fill="#05273C" d="M577.7,422.2c-0.6,0-1.1,0-1.7,0.6c-2.4,2.2-5.7,3.5-9.6,3.7c-3.9,0.2-7.4-1.1-10.6-3.9
				s-4.6-6.1-4.8-10.2s1.1-7.6,4.1-10.6c2.8-3,6.5-4.6,10.6-4.8c3.5-0.2,6.7,0.9,9.6,3c0.4,0.4,0.9,0.6,1.5,0.4
				c0.6,0,1.1-0.4,1.3-0.7c0.4-0.4,0.6-1.1,0.6-1.7c-0.2-0.6-0.4-1.1-0.9-1.5c-3.7-2.6-7.8-3.9-12.2-3.7c-5.4,0.2-10,2.2-13.5,6.1
				c-3.7,3.9-5.4,8.5-5.2,13.7c0.2,5.2,2.2,9.6,6.3,13.3c3.7,3.3,8.1,5,13.2,5c0.2,0,0.6,0,0.7,0c4.4-0.2,8.5-1.7,12-4.4
				c0.4-0.4,0.7-0.9,0.7-1.5s-0.2-1.1-0.6-1.5C578.8,422.5,578.2,422.4,577.7,422.2z"/>
			<path fill="#05273C" d="M606.4,388.8l-23.9,3.1c-0.6,0-1.1,0.4-1.5,0.7c-0.4,0.4-0.6,0.9-0.4,1.5c0,0.6,0.4,1.1,0.7,1.5
				c0.4,0.4,0.9,0.6,1.7,0.4l9.8-1.3l4.1,30.9c0,0.6,0.4,1.1,0.7,1.5c0.4,0.4,0.7,0.4,1.3,0.4c0.2,0,0.2,0,0.4,0
				c0.6,0,1.1-0.4,1.5-0.7c0.4-0.4,0.6-0.9,0.4-1.5l-4.1-30.9l9.8-1.3c0.6,0,1.1-0.4,1.5-0.9c0.4-0.6,0.6-0.9,0.4-1.5
				c0-0.6-0.4-1.1-0.7-1.5C607.5,389,606.9,388.8,606.4,388.8z"/>
			<path fill="#05273C" d="M640.7,387c-4.3-2.8-8.9-3.7-13.7-2.6c-5,1.1-8.7,3.9-11.3,8.1c-2.6,4.4-3.3,9.3-2.2,14.3l0,0
				c1.1,5.2,3.9,9.3,8.1,12c3.1,2,6.3,3.1,9.8,3.1c1.3,0,2.6-0.2,3.9-0.4c5-1.1,8.7-3.9,11.3-8.1c2.6-4.3,3.3-9.1,2.2-14.3
				C647.5,393.8,644.7,389.8,640.7,387z M642.7,411.1c-2,3.3-4.8,5.6-8.5,6.3s-7.2,0.2-10.4-2c-3.3-2.2-5.4-5.4-6.3-9.4
				c-0.9-4.1-0.4-7.8,1.7-11.1c2-3.3,4.8-5.4,8.5-6.3l0,0c1.1-0.2,2-0.4,3-0.4c2.6,0,5,0.7,7.4,2.4c3.1,2.2,5.4,5.4,6.3,9.4
				C645.3,403.8,644.7,407.5,642.7,411.1z"/>
			<path fill="#05273C" d="M685.7,405.5l-9.6-31.7c-0.2-0.6-0.6-0.9-1.1-1.3c-0.6-0.2-1.1-0.4-1.7-0.2c-0.6,0.2-0.9,0.6-1.3,1.1
				c-0.2,0.6-0.4,1.1-0.2,1.7l7.8,25.2l-27.4-20.7c-0.4-0.4-0.9-0.6-1.7-0.4c-0.6,0-1.1,0.4-1.5,0.9c-0.6,0.6-0.6,1.5,0,2.2
				l9.6,31.3c0.2,0.6,0.6,0.9,1.1,1.3c0.4,0.2,0.6,0.2,0.9,0.2c0.2,0,0.4,0,0.6-0.2c0.6-0.2,0.9-0.6,1.3-1.1
				c0.2-0.6,0.4-1.1,0.2-1.7l-7.8-25.4l27,20.6l0.4,0.2c0.6,0.4,1.1,0.6,1.9,0.4c0.6-0.2,1.1-0.6,1.3-1.1
				C685.9,406.6,685.9,406.1,685.7,405.5z"/>
		</g>
		<g>
			<path fill="#42669A" d="M727.9,384.8c-0.9-0.4-1.9-0.4-2.8,0l-8,3.1l4.6-9.6c1.7-3.5,1.9-7,0.6-10.4c-1.3-3.3-3.5-5.7-6.7-7.2
				c-3.5-1.7-7-1.9-10.4-0.6c-3.3,1.3-5.7,3.5-7.2,6.7l-0.9,1.9c-0.4,0.9-0.6,1.9-0.2,2.8c0.4,0.9,0.9,1.7,1.9,2
				c0.9,0.4,1.9,0.6,2.8,0.2c0.9-0.4,1.7-0.9,2-1.9l0.9-1.9c0.7-1.3,1.7-2.2,3.3-3c1.5-0.6,2.8-0.6,4.3,0.2c1.5,0.7,2.4,1.9,3,3.3
				c0.6,1.5,0.6,3-0.2,4.4l-8.9,18.3c-0.4,0.9-0.6,1.9-0.2,2.8c0.4,0.9,0.9,1.7,1.9,2c0.6,0.2,0.9,0.4,1.5,0.4
				c0.6,0,0.9-0.2,1.5-0.4l16.9-6.9c0.9-0.4,1.7-1.1,2-2c0.4-0.9,0.4-1.9,0-2.8C729.6,385.9,728.8,385.1,727.9,384.8z"/>
			<path fill="#42669A" d="M744.4,349.6c-1.9-1.1-3.9-1.9-5.9-2c-2-0.2-4.1,0-5.9,0.9c-3.7,1.9-6.1,5-6.7,9.8c-0.7,4.1,0,8.5,2,13.2
				l0,0c2.2,4.4,5.2,7.8,8.7,10c2.4,1.5,4.8,2.2,7.2,2.2c1.7,0,3.1-0.4,4.6-1.1c1.9-0.9,3.3-2.2,4.4-4.1c1.1-1.7,1.9-3.7,2.2-5.9
				c0.6-4.3,0-8.5-2.2-13C751,355.1,748.1,351.8,744.4,349.6z M747.9,371.4c-0.4,2.2-1.1,3.7-2.4,4.3c-1.3,0.6-3,0.4-4.8-0.7
				c-2.4-1.5-4.3-3.7-5.7-6.7c-1.5-3-2-6.1-1.7-8.7c0.4-2.2,1.3-3.7,2.6-4.3c0.4-0.2,0.9-0.4,1.5-0.4c0.9,0,2,0.4,3.3,1.1
				c2.4,1.5,4.3,3.9,5.7,6.9C747.7,365.7,748.3,368.6,747.9,371.4z"/>
			<path fill="#42669A" d="M763.3,336.6h-0.2c-0.2-0.2-0.2-0.2-0.4-0.4l0,0c-0.2-0.4-0.7-0.7-1.7-0.9l-0.6-0.4h-0.6
				c-0.2,0-0.4,0-0.4,0h-0.2l-0.7,0.4c-0.2,0.2-0.6,0.4-0.7,0.6l-4.4,7c-0.6,0.9-0.7,1.9-0.6,2.8c0.2,0.9,0.9,1.9,1.7,2.2
				c1.1,0.7,2.4,0.7,3.7,0.2c0.6-0.4,1.1-0.7,1.5-1.3l0.4-0.7l10.9,20.9c0.6,0.9,1.3,1.5,2.2,1.9c0.4,0.2,0.7,0.2,1.1,0.2
				c0.6,0,1.1-0.2,1.7-0.4c0.9-0.6,1.5-1.1,1.9-2.2c0.4-0.9,0.2-1.9-0.2-2.8L763.3,336.6z"/>
			<path fill="#42669A" d="M798.8,341c-1.1-1.9-2.6-3.5-4.4-4.6c-1.7-0.9-3.3-1.5-5.2-1.9c0-1.7-0.4-3.3-1.5-5.2
				c-1.1-2-3-3.3-5.6-4.1c-2.4-0.7-4.8-0.4-7,0.9s-3.7,3.1-4.3,5.7c-0.7,2.4-0.4,4.8,0.7,6.9c0.9,1.7,2.2,3,3.7,3.7
				c-0.7,1.7-1.1,3.5-0.9,5.4c0,2.2,0.7,4.3,1.9,6.1c1.9,3.1,4.4,5.2,8,6.1c1.1,0.4,2.4,0.4,3.5,0.4c2.2,0,4.4-0.6,6.5-1.9
				c3.1-1.9,5.2-4.4,6.1-8C801.1,347.3,800.5,344,798.8,341z M781.6,334.9c-0.2,0.6-0.4,0.9-0.9,1.3c-0.6,0.2-0.9,0.4-1.5,0.2
				c-0.6-0.2-0.9-0.4-1.3-0.9c-0.2-0.6-0.4-0.9-0.2-1.5c0.2-0.6,0.4-0.9,0.9-1.3c0.4-0.2,0.6-0.2,0.9-0.2c0.2,0,0.4,0,0.6,0
				c0.6,0.2,0.9,0.4,1.1,0.9C781.8,333.8,781.8,334.4,781.6,334.9z M792.4,344.8c0.7,1.3,0.9,2.8,0.6,4.3c-0.4,1.5-1.3,2.8-2.6,3.5
				s-2.8,0.9-4.4,0.6c-1.5-0.4-2.8-1.3-3.5-2.6c-0.7-1.5-0.9-2.8-0.6-4.4c0.4-1.5,1.3-2.8,2.6-3.5c0.9-0.6,1.9-0.7,2.8-0.7
				c0.6,0,1.1,0,1.7,0.2C790.5,342.5,791.6,343.3,792.4,344.8z"/>
		</g>
	</g>
</g>
<g>
	<g>
		<path fill="#485E29" d="M548.2,744.5c0-40.2-5.1-73.9-5.1-73.9s-89.9-5.7-138.5-8c0,0-93.7,5.4-138.6,8c0,0-5.1,33.7-5.1,73.9
			c0,0-9.9,169.3,143.6,259.4C558.1,913.8,548.2,744.5,548.2,744.5z"/>
	</g>
	<g>
		<path fill="#FFFFFF" d="M404.4,996.4l-0.8-0.5c-33.5-19.7-61.6-45-83.4-75.2c-17.5-24.2-31.1-51.5-40.4-81.3
			c-15.6-49.9-13.7-90.1-13.6-91.7c0-37.9,4.8-70.2,4.8-70.5l0.2-1.3l1.3-0.1c42.7-2.5,131.9-7.6,131.9-7.6l0.1,0l0.1,0
			c45.8,2.1,131,7.6,131.8,7.6l1.3,0.1l0.2,1.2c0,0.3,4.8,32.6,4.8,70.5c0.1,1.7,1.9,41.9-13.6,91.7c-9.3,29.8-22.9,57.1-40.4,81.3
			c-21.9,30.2-49.9,55.5-83.4,75.2L404.4,996.4z M273.9,679c-0.9,6.3-4.6,35.3-4.6,68.8l0,0.1c0,0.4-2.1,40.7,13.5,90.8
			c9.2,29.4,22.6,56.4,39.9,80.3c21.4,29.6,48.9,54.4,81.7,73.8c32.8-19.4,60.2-44.2,81.7-73.8c17.3-23.9,30.7-50.9,39.9-80.3
			c15.7-50.1,13.5-90.4,13.5-90.8l0-0.1c0-33.5-3.8-62.6-4.6-68.8c-10.8-0.7-87.7-5.5-130.4-7.5C401.4,671.6,316.3,676.5,273.9,679z
			"/>
	</g>
	<g>
		<path fill="#FFFFFF" d="M404.3,969.4l-0.7-0.4c-28.5-16.7-52.3-38.2-70.9-63.9c-14.9-20.5-26.4-43.8-34.3-69.1
			c-13.2-42.4-11.7-76.5-11.6-78c0-32.2,4.1-59.6,4.1-59.9l0.2-1.1l1.2-0.1c36.3-2.1,112.1-6.5,112.1-6.5l0.1,0l0.1,0
			c38.9,1.8,111.3,6.4,112,6.5l1.1,0.1l0.2,1.1c0,0.3,4.1,27.7,4.1,59.9c0.1,1.5,1.6,35.6-11.6,78c-7.9,25.3-19.4,48.5-34.3,69.1
			c-18.6,25.7-42.5,47.2-70.9,63.9L404.3,969.4z M293.5,699.6c-0.8,5.5-3.9,30.1-3.9,58.4l0,0.1c0,0.3-1.8,34.5,11.5,77.1
			c7.8,25,19.2,47.9,33.9,68.2c18.2,25.1,41.5,46.2,69.3,62.6c27.8-16.4,51.1-37.5,69.3-62.6c14.7-20.3,26.1-43.2,33.9-68.2
			c13.3-42.6,11.5-76.8,11.5-77.1l0-0.1c0-28.3-3.2-52.9-3.9-58.4c-9.5-0.6-74.6-4.7-110.7-6.4C401.7,693.4,329.6,697.5,293.5,699.6
			z"/>
	</g>
	<g>
		<path fill="#FFFFFF" d="M348,729c-0.5-0.8-1.2-1.6-2-2.2c-0.8-0.6-1.7-1.1-2.7-1.5c-1-0.4-2.1-0.5-3.2-0.5c-2,0-3.8,0.4-5.2,1.2
			c-1.4,0.8-2.6,1.8-3.4,3.1c-0.9,1.3-1.5,2.8-1.9,4.4c-0.4,1.7-0.6,3.4-0.6,5.1c0,1.7,0.2,3.3,0.6,4.9c0.4,1.6,1,3,1.9,4.3
			c0.9,1.3,2,2.3,3.4,3.1c1.4,0.8,3.1,1.2,5.2,1.2c2.8,0,4.9-0.8,6.5-2.5c1.6-1.7,2.5-3.8,2.8-6.5h8.7c-0.2,2.5-0.8,4.8-1.8,6.8
			c-1,2-2.2,3.8-3.8,5.2c-1.6,1.4-3.4,2.5-5.5,3.3c-2.1,0.8-4.4,1.1-7,1.1c-3.1,0-6-0.5-8.5-1.6c-2.5-1.1-4.6-2.5-6.3-4.4
			c-1.7-1.9-3-4.1-4-6.6s-1.4-5.3-1.4-8.2c0-3,0.5-5.8,1.4-8.4c0.9-2.6,2.2-4.8,4-6.7c1.7-1.9,3.8-3.4,6.3-4.5
			c2.5-1.1,5.3-1.6,8.5-1.6c2.3,0,4.4,0.3,6.4,1c2,0.6,3.8,1.6,5.4,2.8c1.6,1.2,2.9,2.7,3.9,4.5c1,1.8,1.7,3.9,2,6.2H349
			C348.9,730.8,348.5,729.9,348,729z"/>
		<path fill="#FFFFFF" d="M376.5,748.6c0.5,0.9,1.2,1.7,2,2.3c0.8,0.6,1.8,1,2.9,1.3c1.1,0.3,2.3,0.4,3.4,0.4c0.8,0,1.7-0.1,2.6-0.2
			c0.9-0.1,1.8-0.4,2.6-0.8c0.8-0.4,1.5-0.9,2-1.5c0.5-0.7,0.8-1.5,0.8-2.5c0-1.1-0.4-2-1.1-2.6c-0.7-0.7-1.6-1.2-2.8-1.7
			c-1.1-0.5-2.5-0.8-3.9-1.2c-1.5-0.3-2.9-0.7-4.4-1.1c-1.5-0.4-3-0.8-4.5-1.4c-1.5-0.5-2.8-1.2-3.9-2.1c-1.1-0.9-2.1-1.9-2.8-3.2
			c-0.7-1.3-1.1-2.9-1.1-4.7c0-2.1,0.4-3.9,1.4-5.4c0.9-1.5,2.1-2.8,3.5-3.8c1.5-1,3.1-1.8,4.9-2.3c1.8-0.5,3.7-0.7,5.5-0.7
			c2.1,0,4.2,0.2,6.2,0.7c2,0.5,3.7,1.2,5.3,2.3c1.5,1.1,2.7,2.4,3.6,4c0.9,1.6,1.4,3.6,1.4,5.9h-8.7c-0.1-1.2-0.3-2.2-0.8-3
			c-0.4-0.8-1-1.4-1.8-1.9c-0.7-0.5-1.6-0.8-2.5-1c-0.9-0.2-2-0.3-3.1-0.3c-0.7,0-1.5,0.1-2.2,0.2c-0.7,0.2-1.4,0.4-2,0.8
			c-0.6,0.4-1.1,0.8-1.5,1.4c-0.4,0.6-0.6,1.3-0.6,2.1c0,0.8,0.2,1.4,0.5,1.9c0.3,0.5,0.9,0.9,1.8,1.4c0.9,0.4,2.1,0.8,3.7,1.2
			c1.6,0.4,3.7,0.9,6.2,1.6c0.8,0.2,1.8,0.4,3.2,0.8c1.4,0.4,2.7,1,4.1,1.9c1.3,0.9,2.5,2,3.5,3.5c1,1.4,1.5,3.3,1.5,5.5
			c0,1.8-0.4,3.5-1.1,5.1c-0.7,1.6-1.8,2.9-3.2,4.1c-1.4,1.1-3.2,2-5.3,2.7c-2.1,0.6-4.6,1-7.4,1c-2.3,0-4.5-0.3-6.6-0.8
			c-2.1-0.5-4-1.4-5.6-2.6c-1.6-1.2-2.9-2.6-3.9-4.4c-1-1.8-1.4-3.9-1.4-6.4h8.7C375.7,746.5,376,747.7,376.5,748.6z"/>
		<path fill="#FFFFFF" d="M438.5,729c-0.5-0.8-1.2-1.6-2-2.2c-0.8-0.6-1.7-1.1-2.7-1.5c-1-0.4-2.1-0.5-3.2-0.5c-2,0-3.8,0.4-5.2,1.2
			c-1.4,0.8-2.6,1.8-3.4,3.1c-0.9,1.3-1.5,2.8-1.9,4.4c-0.4,1.7-0.6,3.4-0.6,5.1c0,1.7,0.2,3.3,0.6,4.9c0.4,1.6,1,3,1.9,4.3
			c0.9,1.3,2,2.3,3.4,3.1c1.4,0.8,3.1,1.2,5.2,1.2c2.8,0,4.9-0.8,6.5-2.5c1.6-1.7,2.5-3.8,2.8-6.5h8.7c-0.2,2.5-0.8,4.8-1.8,6.8
			c-1,2-2.2,3.8-3.8,5.2c-1.6,1.4-3.4,2.5-5.5,3.3c-2.1,0.8-4.4,1.1-7,1.1c-3.1,0-6-0.5-8.5-1.6c-2.5-1.1-4.6-2.5-6.3-4.4
			c-1.7-1.9-3-4.1-4-6.6s-1.4-5.3-1.4-8.2c0-3,0.5-5.8,1.4-8.4c0.9-2.6,2.2-4.8,4-6.7c1.7-1.9,3.8-3.4,6.3-4.5
			c2.5-1.1,5.3-1.6,8.5-1.6c2.3,0,4.4,0.3,6.4,1c2,0.6,3.8,1.6,5.4,2.8c1.6,1.2,2.9,2.7,3.9,4.5c1,1.8,1.7,3.9,2,6.2h-8.7
			C439.4,730.8,439,729.9,438.5,729z"/>
		<path fill="#FFFFFF" d="M490.8,718.3v7.4h-21.7v8.6H489v6.9h-19.9v9.9h22.1v7.4h-31.1v-40.2H490.8z"/>
	</g>
	<g>
		<path fill="#FFFFFF" d="M392.9,781.9c-0.5-0.8-1.2-1.6-2-2.2c-0.8-0.6-1.7-1.1-2.7-1.5c-1-0.4-2.1-0.5-3.2-0.5
			c-2,0-3.8,0.4-5.2,1.2c-1.4,0.8-2.6,1.8-3.4,3.1c-0.9,1.3-1.5,2.8-1.9,4.4c-0.4,1.7-0.6,3.4-0.6,5.1c0,1.7,0.2,3.3,0.6,4.9
			c0.4,1.6,1,3,1.9,4.3c0.9,1.3,2,2.3,3.4,3.1c1.4,0.8,3.1,1.2,5.2,1.2c2.8,0,4.9-0.8,6.5-2.5c1.6-1.7,2.5-3.8,2.8-6.5h8.7
			c-0.2,2.5-0.8,4.8-1.8,6.8c-1,2-2.2,3.8-3.8,5.2c-1.6,1.4-3.4,2.5-5.5,3.3c-2.1,0.8-4.4,1.1-7,1.1c-3.1,0-6-0.5-8.5-1.6
			c-2.5-1.1-4.6-2.5-6.3-4.4c-1.7-1.9-3-4.1-4-6.6c-0.9-2.5-1.4-5.3-1.4-8.2c0-3,0.5-5.8,1.4-8.4c0.9-2.6,2.2-4.8,4-6.7
			c1.7-1.9,3.8-3.4,6.3-4.5c2.5-1.1,5.3-1.6,8.5-1.6c2.3,0,4.4,0.3,6.4,1c2,0.6,3.8,1.6,5.4,2.8c1.6,1.2,2.9,2.7,3.9,4.5
			c1,1.8,1.7,3.9,2,6.2H394C393.8,783.7,393.5,782.8,392.9,781.9z"/>
		<path fill="#FFFFFF" d="M390.9,865.7c-2,0.8-3.9,1.2-5.9,1.2c-3.1,0-6-0.5-8.5-1.6c-2.5-1.1-4.6-2.5-6.3-4.4c-1.7-1.9-3-4.1-4-6.6
			c-0.9-2.5-1.4-5.3-1.4-8.2c0-3,0.5-5.8,1.4-8.4c0.9-2.6,2.2-4.8,4-6.7c1.7-1.9,3.8-3.4,6.3-4.5c2.5-1.1,5.3-1.6,8.5-1.6
			c2.1,0,4.1,0.3,6.1,0.9c2,0.6,3.8,1.5,5.3,2.7c1.6,1.2,2.9,2.7,3.9,4.4c1,1.8,1.7,3.8,1.9,6.1h-8.6c-0.5-2.3-1.6-3.9-3.1-5.1
			c-1.5-1.1-3.4-1.7-5.6-1.7c-2,0-3.8,0.4-5.2,1.2c-1.4,0.8-2.6,1.8-3.4,3.1c-0.9,1.3-1.5,2.8-1.9,4.4c-0.4,1.7-0.6,3.4-0.6,5.1
			c0,1.7,0.2,3.3,0.6,4.9c0.4,1.6,1,3,1.9,4.3c0.9,1.3,2,2.3,3.4,3.1c1.4,0.8,3.1,1.2,5.2,1.2c3,0,5.3-0.7,6.9-2.2
			c1.6-1.5,2.6-3.6,2.8-6.4h-9.1v-6.6h17.2V866h-5.7l-0.9-4.6C394.6,863.5,392.9,864.9,390.9,865.7z"/>
		<path fill="#FFFFFF" d="M392.9,891.2c-0.5-0.8-1.2-1.6-2-2.2c-0.8-0.6-1.7-1.1-2.7-1.5c-1-0.4-2.1-0.5-3.2-0.5
			c-2,0-3.8,0.4-5.2,1.2c-1.4,0.8-2.6,1.8-3.4,3.1c-0.9,1.3-1.5,2.8-1.9,4.4c-0.4,1.7-0.6,3.4-0.6,5.1c0,1.7,0.2,3.3,0.6,4.9
			c0.4,1.6,1,3,1.9,4.3c0.9,1.3,2,2.3,3.4,3.1c1.4,0.8,3.1,1.2,5.2,1.2c2.8,0,4.9-0.8,6.5-2.5c1.6-1.7,2.5-3.8,2.8-6.5h8.7
			c-0.2,2.5-0.8,4.8-1.8,6.8c-1,2-2.2,3.8-3.8,5.2c-1.6,1.4-3.4,2.5-5.5,3.3c-2.1,0.8-4.4,1.1-7,1.1c-3.1,0-6-0.5-8.5-1.6
			c-2.5-1.1-4.6-2.5-6.3-4.4c-1.7-1.9-3-4.1-4-6.6c-0.9-2.5-1.4-5.3-1.4-8.2c0-3,0.5-5.8,1.4-8.4c0.9-2.6,2.2-4.8,4-6.7
			c1.7-1.9,3.8-3.4,6.3-4.5c2.5-1.1,5.3-1.6,8.5-1.6c2.3,0,4.4,0.3,6.4,1c2,0.6,3.8,1.6,5.4,2.8c1.6,1.2,2.9,2.7,3.9,4.5
			c1,1.8,1.7,3.9,2,6.2H394C393.8,892.9,393.5,892,392.9,891.2z"/>
	</g>
	<g>
		<path fill="#EE334E" d="M453.6,799.1l-4.4,12.7l-9.8-4l4.6,25.7L430.6,821v7.4l-10.7-3l2.8,8.1c0,0,0.9,1.6-1,2.6l-4.8,1.1
			l18.3,13.4l-2.3,5.5l21.1-2.6v19.6h2.1v-19.7l17.6,2.5l-2.4-4.6l18.8-14.2l-4.7-1.1c0,0-1.4-0.5-1-2.6l2.7-7.8l-10.4,2.4l-0.1-7.3
			l-13.2,12.7l4.4-25.7l-9.8,3.8L453.6,799.1z"/>
		<path fill="#FFFFFF" d="M456.8,873.8h-3.3v-19.6l-21.4,2.6l2.5-6l-19-13.8l6-1.4c0.4-0.2,0.7-0.5,0.8-0.9c0.1-0.5-0.1-0.9-0.1-0.9
			l0-0.1l-3.2-9.1l11,3.1v-8l13.1,12.2l-4.4-25.1l10.2,4.1l4.7-13.6l4.8,13.5l10.2-4l-4.3,25l12.9-12.4l0.2,7.8l10.7-2.5l-3,8.8
			c-0.3,1.4,0.4,1.9,0.6,1.9l5.8,1.3l-19.4,14.7l2.7,5.1l-18-2.5V873.8z M454.7,872.7h1v-19.8l17.1,2.4l-2.1-4l18.2-13.8l-3.6-0.8
			c-0.7-0.2-1.8-1.2-1.4-3.3l0-0.1l2.4-6.8l-10.1,2.3l-0.1-6.7l-13.5,13l4.5-26.4l-9.4,3.7l-4.1-11.5l-4.1,11.7l-9.4-3.8l4.7,26.4
			l-13.7-12.8v6.8l-10.3-2.9l2.5,7c0.1,0.2,0.4,0.9,0.1,1.7c-0.2,0.6-0.7,1.2-1.4,1.6l-0.1,0.1l-3.6,0.9l17.7,12.9l-2.1,5.1
			l20.8-2.5V872.7z"/>
	</g>
	<g>
		<path fill="#FFFFFF" d="M437.1,895.6v-9.3h-3.7v-2.2c0.5,0,1,0,1.5-0.1c0.5-0.1,0.9-0.2,1.3-0.5c0.4-0.2,0.7-0.5,1-0.9
			c0.3-0.4,0.4-0.8,0.5-1.4h2.4v14.4H437.1z"/>
		<path fill="#FFFFFF" d="M445,883.2c0.3-0.5,0.7-0.9,1.1-1.2c0.5-0.3,1-0.6,1.6-0.7c0.6-0.2,1.2-0.2,1.8-0.2c0.9,0,1.7,0.1,2.3,0.4
			c0.6,0.3,1.1,0.6,1.5,1c0.4,0.4,0.7,0.8,0.8,1.3c0.2,0.4,0.3,0.8,0.3,1.2c0,0.7-0.2,1.3-0.5,1.9c-0.4,0.5-0.9,0.9-1.6,1.1v0
			c0.9,0.2,1.6,0.6,2,1.2c0.5,0.6,0.7,1.4,0.7,2.3c0,0.8-0.2,1.4-0.5,2c-0.3,0.6-0.7,1-1.2,1.4c-0.5,0.4-1.1,0.6-1.8,0.8
			c-0.7,0.2-1.3,0.3-2,0.3c-0.7,0-1.4-0.1-2.1-0.3c-0.7-0.2-1.3-0.4-1.8-0.8c-0.5-0.4-0.9-0.8-1.3-1.4c-0.3-0.6-0.5-1.2-0.5-2
			c0-0.9,0.2-1.7,0.7-2.3c0.5-0.6,1.2-1,2-1.2v0c-0.7-0.2-1.2-0.6-1.6-1.1c-0.4-0.5-0.5-1.2-0.5-1.9
			C444.5,884.2,444.7,883.7,445,883.2z M447.1,892.2c0.1,0.3,0.3,0.6,0.6,0.8c0.2,0.2,0.5,0.4,0.8,0.5c0.3,0.1,0.7,0.2,1,0.2
			c0.4,0,0.7-0.1,1-0.2c0.3-0.1,0.6-0.3,0.8-0.5c0.2-0.2,0.4-0.5,0.5-0.8c0.1-0.3,0.2-0.6,0.2-1c0-0.3-0.1-0.7-0.2-0.9
			c-0.1-0.3-0.3-0.5-0.5-0.7c-0.2-0.2-0.5-0.4-0.8-0.5c-0.3-0.1-0.6-0.2-1-0.2c-0.7,0-1.3,0.2-1.8,0.6c-0.5,0.4-0.8,1-0.8,1.7
			C446.9,891.6,447,891.9,447.1,892.2z M447.9,886.5c0.4,0.3,1,0.5,1.6,0.5c0.6,0,1.2-0.2,1.6-0.5c0.4-0.3,0.6-0.8,0.6-1.4
			c0-0.2,0-0.4-0.1-0.6c-0.1-0.2-0.2-0.4-0.3-0.6c-0.2-0.2-0.4-0.4-0.7-0.5c-0.3-0.1-0.7-0.2-1.1-0.2c-0.3,0-0.6,0-0.8,0.1
			c-0.3,0.1-0.5,0.2-0.7,0.4c-0.2,0.2-0.4,0.4-0.5,0.6c-0.1,0.2-0.2,0.5-0.2,0.9C447.2,885.7,447.5,886.2,447.9,886.5z"/>
		<path fill="#FFFFFF" d="M456.8,883.2c0.3-0.5,0.7-0.9,1.1-1.2c0.5-0.3,1-0.6,1.6-0.7c0.6-0.2,1.2-0.2,1.8-0.2
			c0.9,0,1.7,0.1,2.3,0.4c0.6,0.3,1.1,0.6,1.5,1c0.4,0.4,0.7,0.8,0.8,1.3c0.2,0.4,0.3,0.8,0.3,1.2c0,0.7-0.2,1.3-0.5,1.9
			s-0.9,0.9-1.6,1.1v0c0.9,0.2,1.6,0.6,2,1.2c0.5,0.6,0.7,1.4,0.7,2.3c0,0.8-0.2,1.4-0.5,2c-0.3,0.6-0.7,1-1.2,1.4
			c-0.5,0.4-1.1,0.6-1.8,0.8c-0.7,0.2-1.3,0.3-2,0.3c-0.7,0-1.4-0.1-2.1-0.3c-0.7-0.2-1.3-0.4-1.8-0.8c-0.5-0.4-0.9-0.8-1.3-1.4
			c-0.3-0.6-0.5-1.2-0.5-2c0-0.9,0.2-1.7,0.7-2.3c0.5-0.6,1.2-1,2-1.2v0c-0.7-0.2-1.2-0.6-1.6-1.1c-0.4-0.5-0.5-1.2-0.5-1.9
			C456.3,884.2,456.5,883.7,456.8,883.2z M458.9,892.2c0.1,0.3,0.3,0.6,0.6,0.8c0.2,0.2,0.5,0.4,0.8,0.5c0.3,0.1,0.7,0.2,1,0.2
			c0.4,0,0.7-0.1,1-0.2c0.3-0.1,0.6-0.3,0.8-0.5c0.2-0.2,0.4-0.5,0.5-0.8c0.1-0.3,0.2-0.6,0.2-1c0-0.3-0.1-0.7-0.2-0.9
			c-0.1-0.3-0.3-0.5-0.5-0.7c-0.2-0.2-0.5-0.4-0.8-0.5c-0.3-0.1-0.6-0.2-1-0.2c-0.7,0-1.3,0.2-1.8,0.6c-0.5,0.4-0.8,1-0.8,1.7
			C458.7,891.6,458.8,891.9,458.9,892.2z M459.7,886.5c0.4,0.3,1,0.5,1.6,0.5c0.6,0,1.2-0.2,1.6-0.5c0.4-0.3,0.6-0.8,0.6-1.4
			c0-0.2,0-0.4-0.1-0.6c-0.1-0.2-0.2-0.4-0.3-0.6c-0.2-0.2-0.4-0.4-0.7-0.5c-0.3-0.1-0.7-0.2-1.1-0.2c-0.3,0-0.6,0-0.8,0.1
			c-0.3,0.1-0.5,0.2-0.7,0.4c-0.2,0.2-0.4,0.4-0.5,0.6c-0.1,0.2-0.2,0.5-0.2,0.9C459,885.7,459.2,886.2,459.7,886.5z"/>
		<path fill="#FFFFFF" d="M476,886.2c-0.6,1-1.1,2-1.5,3.1c-0.4,1.1-0.7,2.2-0.9,3.3c-0.2,1.1-0.3,2.1-0.3,3.1H470
			c0.2-2.1,0.7-4.2,1.5-6.2c0.9-2,2-3.8,3.4-5.5H468v-2.7h10v2.5C477.2,884.4,476.6,885.2,476,886.2z"/>
	</g>
</g>
<g>
	<text transform="matrix(1 0 0 1 -712.3103 395.4849)" fill="#04273C" font-family="'Domus-Bold'" font-size="52">CSCE ANNUAL CONFERENCE</text>
	<text transform="matrix(0.76 0 0 1 -712.3103 457.8853)" fill="#04273C" font-family="'Domus-Bold'" font-size="52">FREDERICTON CONVENTION CENTRE</text>
	<text transform="matrix(1 0 0 1 -585.6899 540.2392)" fill="#41669A" font-family="'Domus-Bold'" font-size="52">JUNE 13 - 16, 2018</text>
</g>
<g>
	<text transform="matrix(1 0 0 1 913.0916 396.2383)" fill="#04273C" font-family="'Domus-Bold'" font-size="52">CONGRÈS ANNUEL DE LA SCGC</text>
	<text transform="matrix(0.76 0 0 1 913.0916 458.6387)" fill="#04273C" font-family="'Domus-Bold'" font-size="52">PALAIS DES CONGRÈS DE FREDERICTON</text>
	<text transform="matrix(1 0 0 1 1015.3755 540.9926)" fill="#41669A" font-family="'Domus-Bold'" font-size="52">DU 13 AU 16 JUIN 2018</text>
</g>
</svg>
