<?xml version="1.0" encoding="utf-8"?>
<!-- Generator: Adobe Illustrator 18.0.0, SVG Export Plug-In . SVG Version: 6.00 Build 0)  -->
<!DOCTYPE svg PUBLIC "-//W3C//DTD SVG 1.1//EN" "http://www.w3.org/Graphics/SVG/1.1/DTD/svg11.dtd">
<svg version="1.1" id="Layer_1" xmlns="http://www.w3.org/2000/svg" xmlns:xlink="http://www.w3.org/1999/xlink" x="0px" y="0px"
	 viewBox="174.1 388.6 620.3 280" enable-background="new 174.1 388.6 620.3 280" xml:space="preserve">
<g>
	<g>
		<g>
			<path fill="#42669A" d="M425.1,630.7c0,2.1-1.9,3.5-5.2,3.5c-0.8,0-1.7-0.1-2.3-0.3c-1.1-0.3-1.1-1-1.1-1.6v-8.7
				c0-0.7,0-1.4,1.1-1.6c0.5-0.2,1.6-0.3,2.3-0.3c3.2,0,4.9,1.3,4.9,3.2c0,1.4-0.8,2.3-2.3,2.7C424.2,628.1,425.1,629.3,425.1,630.7
				z M418.8,624v2.9h1.2c0.5,0,0.8-0.1,1.2-0.2c0.7-0.3,1-0.7,1-1.4c0-0.9-0.7-1.5-2.3-1.5C419.5,623.9,419.2,623.9,418.8,624z
				 M422.4,630.5c0-0.8-0.4-1.3-1.2-1.5c-0.4-0.1-0.8-0.2-1.4-0.2h-1.2v3.2c0.4,0.1,0.8,0.1,1.2,0.1
				C421.7,632.1,422.4,631.5,422.4,630.5z"/>
			<path fill="#42669A" d="M434.4,630.7c0.2-0.4,0.3-0.8,0.3-1.4v-6.5c0-0.7,0.4-1.1,1.2-1.1s1.2,0.4,1.2,1.1v6.6
				c0,1-0.2,1.7-0.5,2.4c-0.8,1.8-2.4,2.4-4.4,2.4c-2.2,0-3.7-0.8-4.4-2.4c-0.3-0.7-0.5-1.5-0.5-2.4v-6.7c0-0.7,0.4-1.1,1.3-1.1
				s1.3,0.4,1.3,1.1v6.6c0,0.5,0.1,1,0.3,1.4c0.4,0.9,1.2,1.4,2.2,1.4C433.5,632.1,434.1,631.6,434.4,630.7z"/>
			<path fill="#42669A" d="M442.5,633.3c0,0.7-0.4,1.1-1.3,1.1c-0.9,0-1.3-0.4-1.3-1.1v-10.5c0-0.7,0.4-1.1,1.3-1.1
				c0.9,0,1.3,0.4,1.3,1.1V633.3z"/>
			<path fill="#42669A" d="M451.6,631.9c0.7,0,1,0.4,1,1.2s-0.3,1.2-1,1.2h-5.1c-0.9,0-1.3-0.4-1.3-1.3v-10c0-0.7,0.4-1.1,1.3-1.1
				c0.9,0,1.3,0.4,1.3,1.1v9L451.6,631.9L451.6,631.9z"/>
			<path fill="#42669A" d="M458,634.3c-0.8,0-1.6-0.1-2.3-0.3c-1.1-0.3-1.1-1-1.1-1.6v-8.7c0-0.7,0-1.4,1.1-1.6
				c0.5-0.2,1.6-0.3,2.4-0.3c4.3,0,6.7,2.3,6.7,6.2S462.2,634.3,458,634.3z M458.2,632c2.6,0,4-1.5,4-4c0-2.5-1.4-4.1-4-4.1
				c-0.3,0-0.7,0-1,0.1v7.8C457.5,632,457.8,632,458.2,632z"/>
			<path fill="#42669A" d="M469.6,633.3c0,0.7-0.4,1.1-1.3,1.1c-0.9,0-1.3-0.4-1.3-1.1v-10.5c0-0.7,0.4-1.1,1.3-1.1
				c0.9,0,1.3,0.4,1.3,1.1V633.3z"/>
			<path fill="#42669A" d="M474.9,633.3c0,0.7-0.4,1.1-1.2,1.1s-1.2-0.4-1.2-1.1v-10c0-1,0.5-1.4,1.6-1.4c1.2,0,1.6,0.5,2,1.2
				l4.5,7.8V623c0-0.7,0.4-1.1,1.2-1.1s1.2,0.4,1.2,1.1v10c0,0.9-0.5,1.4-1.6,1.4c-1,0-1.5-0.4-1.9-1.2l-4.8-7.9v8H474.9z"/>
			<path fill="#42669A" d="M491.6,629.6c-0.7,0-1-0.4-1-1.2c0-0.8,0.3-1.2,1-1.2h2.8c0.9,0,1.3,0.4,1.3,1.3v3.5
				c0,0.8-0.3,1.2-1.1,1.6c-0.8,0.3-2,0.5-3.1,0.5c-3.5,0-6.1-2.2-6.1-6.2c0-4.1,2.6-6.3,6-6.3c1.2,0,2.3,0.3,3.2,0.8
				c0.6,0.4,1,0.8,1,1.2c0,0.5-0.6,1.2-1.2,1.2c-0.3,0-0.5-0.3-1-0.5c-0.6-0.3-1.3-0.5-2-0.5c-2.1,0-3.4,1.4-3.4,4
				c0,2.7,1.5,4.1,3.6,4.1c0.5,0,1.2-0.1,1.6-0.3v-2.3h-1.6V629.6L491.6,629.6z"/>
			<path fill="#42669A" d="M507.5,633.5c0,0.5-0.3,0.7-0.8,0.7c-0.5,0-0.8-0.3-0.8-0.7v-10.2h-3.3c-0.5,0-0.7-0.3-0.7-0.7
				s0.3-0.8,0.7-0.8h8.4c0.5,0,0.7,0.3,0.7,0.8c0,0.5-0.3,0.7-0.7,0.7h-3.3L507.5,633.5L507.5,633.5z"/>
			<path fill="#42669A" d="M518.5,621.6c3.5,0,5.9,2.4,5.9,6.3c0,3.8-2.3,6.3-5.9,6.3c-3.6,0-5.9-2.4-5.9-6.3
				S514.9,621.6,518.5,621.6z M518.5,632.9c2.5,0,4.2-1.9,4.2-5c0-3.1-1.6-5-4.2-5c-2.5,0-4.2,2-4.2,5
				C514.3,630.9,515.9,632.9,518.5,632.9z"/>
			<path fill="#42669A" d="M534.3,631.6c-0.3,0.5-0.5,0.8-1,0.8c-0.5,0-0.8-0.3-1-0.8l-3.4-7.8l-0.6,9.7c-0.1,0.5-0.3,0.7-0.8,0.7
				c-0.5,0-0.8-0.3-0.8-0.7l0.8-10.7c0.1-0.7,0.3-1,1.1-1c0.7,0,1.1,0.3,1.4,1l3.4,7.7l3.4-7.7c0.3-0.7,0.6-1,1.4-1s1,0.4,1,1
				l0.8,10.7c0,0.5-0.3,0.7-0.8,0.7s-0.8-0.3-0.8-0.7l-0.7-9.7L534.3,631.6z"/>
			<path fill="#42669A" d="M548.4,621.6c3.5,0,5.9,2.4,5.9,6.3c0,3.8-2.3,6.3-5.9,6.3c-3.6,0-5.9-2.4-5.9-6.3
				C542.5,624.2,544.8,621.6,548.4,621.6z M548.4,632.9c2.5,0,4.2-1.9,4.2-5c0-3.1-1.6-5-4.2-5c-2.5,0-4.2,2-4.2,5
				C544.1,630.9,545.7,632.9,548.4,632.9z"/>
			<path fill="#42669A" d="M565.2,633.8c0,0.3-0.3,0.5-0.8,0.5c-0.7,0-0.9-0.3-1.2-0.8l-2.7-3.9c-0.4,0.1-0.8,0.1-1.2,0.1
				c-0.3,0-0.7,0-0.9-0.1v4c0,0.5-0.3,0.7-0.8,0.7s-0.8-0.3-0.8-0.7v-10.5c0-0.5,0-1,0.8-1.2c0.5-0.2,1.3-0.3,2-0.3
				c2.9,0,4.9,1.4,4.9,3.8c0,1.7-0.9,3-2.5,3.6l2.6,3.7C565.2,633.4,565.2,633.6,565.2,633.8z M559.5,628.3c2.3,0,3.5-1,3.5-2.6
				c0-1.7-1.3-2.5-3.2-2.5c-0.4,0-0.8,0.1-1.2,0.1v5C558.7,628.3,559.2,628.3,559.5,628.3z"/>
			<path fill="#42669A" d="M576,633.8c0,0.3-0.3,0.5-0.8,0.5c-0.7,0-0.9-0.3-1.2-0.8l-2.7-3.9c-0.4,0.1-0.8,0.1-1.2,0.1
				c-0.3,0-0.7,0-0.9-0.1v4c0,0.5-0.3,0.7-0.8,0.7c-0.5,0-0.8-0.3-0.8-0.7v-10.5c0-0.5,0-1,0.8-1.2c0.5-0.2,1.3-0.3,2-0.3
				c2.9,0,4.9,1.4,4.9,3.8c0,1.7-0.9,3-2.5,3.6l2.6,3.7C575.9,633.4,576,633.6,576,633.8z M570.2,628.3c2.3,0,3.5-1,3.5-2.6
				c0-1.7-1.3-2.5-3.2-2.5c-0.4,0-0.8,0.1-1.2,0.1v5C569.6,628.3,569.8,628.3,570.2,628.3z"/>
			<path fill="#42669A" d="M583.4,621.6c3.5,0,5.9,2.4,5.9,6.3c0,3.8-2.3,6.3-5.9,6.3c-3.6,0-5.9-2.4-5.9-6.3
				C577.6,624.2,579.9,621.6,583.4,621.6z M583.4,632.9c2.5,0,4.2-1.9,4.2-5c0-3.1-1.6-5-4.2-5c-2.5,0-4.2,2-4.2,5
				C579.2,630.9,580.9,632.9,583.4,632.9z"/>
			<path fill="#42669A" d="M595.9,633.4c-0.2,0.6-0.5,0.8-1.2,0.8s-1-0.3-1.1-0.8l-2.8-10.6c-0.1-0.2-0.1-0.4-0.1-0.5
				c0-0.3,0.2-0.5,0.8-0.5c0.6,0,0.8,0.3,0.9,0.8l2.3,9.7l2.8-8.9c0.2-0.5,0.4-0.8,1.1-0.8c0.7,0,0.9,0.3,1.1,0.8l2.8,8.9l2.4-9.7
				c0.2-0.5,0.3-0.8,0.8-0.8c0.6,0,0.8,0.3,0.8,0.5c0,0.2,0,0.4-0.1,0.5l-2.8,10.6c-0.2,0.5-0.4,0.8-1.1,0.8s-1-0.3-1.2-0.8
				l-2.8-8.9L595.9,633.4z"/>
			<path fill="#42669A" d="M611,621.8c0,0.3-0.2,1-0.8,2.8c-0.3,0.8-0.5,1-1,1c-0.5,0-0.6-0.3-0.6-0.5c0-0.2,0.1-0.3,0.1-0.5
				l0.7-2.6c0.1-0.4,0.3-0.8,0.9-0.8C610.8,621.3,611,621.5,611,621.8z"/>
			<path fill="#42669A" d="M613,625c0-2,1.6-3.2,3.9-3.2c1.1,0,2.1,0.3,2.9,0.8c0.5,0.3,0.6,0.5,0.6,0.8c0,0.4-0.3,0.8-0.7,0.8
				c-0.2,0-0.3-0.2-0.7-0.3c-0.7-0.4-1.4-0.6-2.2-0.6c-1.5,0-2.3,0.8-2.3,1.7c0,2.6,6.1,2,6.1,6c0,2.3-1.8,3.5-4.2,3.5
				c-1.3,0-2.3-0.4-3.2-1c-0.4-0.3-0.6-0.5-0.6-0.8c0-0.4,0.3-0.8,0.7-0.8c0.3,0,0.4,0.2,0.8,0.4c0.7,0.5,1.4,0.8,2.3,0.8
				c1.5,0,2.5-0.8,2.5-2C619.2,628,613,628.8,613,625z"/>
			<path fill="#42669A" d="M627.6,625c0-2,1.6-3.2,3.9-3.2c1.1,0,2.1,0.3,2.9,0.8c0.5,0.3,0.6,0.5,0.6,0.8c0,0.4-0.3,0.8-0.7,0.8
				c-0.2,0-0.3-0.2-0.7-0.3c-0.7-0.4-1.4-0.6-2.2-0.6c-1.5,0-2.3,0.8-2.3,1.7c0,2.6,6.1,2,6.1,6c0,2.3-1.8,3.5-4.2,3.5
				c-1.3,0-2.3-0.4-3.2-1c-0.4-0.3-0.6-0.5-0.6-0.8c0-0.4,0.3-0.8,0.7-0.8c0.3,0,0.4,0.2,0.8,0.4c0.7,0.5,1.4,0.8,2.3,0.8
				c1.5,0,2.5-0.8,2.5-2C633.8,628,627.6,628.8,627.6,625z"/>
			<path fill="#42669A" d="M643.2,621.6c3.5,0,5.9,2.4,5.9,6.3c0,3.8-2.3,6.3-5.9,6.3c-3.6,0-5.9-2.4-5.9-6.3
				C637.4,624.2,639.6,621.6,643.2,621.6z M643.2,632.9c2.5,0,4.2-1.9,4.2-5c0-3.1-1.6-5-4.2-5c-2.6,0-4.2,2-4.2,5
				C639,630.9,640.7,632.9,643.2,632.9z"/>
			<path fill="#42669A" d="M657.2,632.9c0.8,0,1.6-0.3,2.3-0.6c0.4-0.3,0.6-0.5,0.8-0.5c0.4,0,0.7,0.5,0.7,0.8
				c0,0.3-0.3,0.6-0.8,0.9c-0.8,0.5-1.9,0.8-3.1,0.8c-3.4,0-5.8-2.5-5.8-6.4c0-3.9,2.3-6.3,5.8-6.3c1.2,0,2.3,0.3,3.1,0.8
				c0.5,0.3,0.8,0.6,0.8,0.9c0,0.3-0.3,0.8-0.7,0.8c-0.3,0-0.5-0.3-0.8-0.5c-0.6-0.4-1.4-0.6-2.3-0.6c-2.4,0-4.1,1.7-4.1,4.9
				C653,631,654.7,632.9,657.2,632.9z"/>
			<path fill="#42669A" d="M665.2,633.5c0,0.5-0.3,0.7-0.8,0.7c-0.5,0-0.8-0.3-0.8-0.7v-11.1c0-0.5,0.3-0.7,0.8-0.7
				c0.5,0,0.8,0.3,0.8,0.7V633.5z"/>
			<path fill="#42669A" d="M674.2,627c0.5,0,0.7,0.3,0.7,0.7s-0.3,0.8-0.7,0.8h-4.2v4.2h5.1c0.5,0,0.7,0.3,0.7,0.8
				c0,0.5-0.3,0.8-0.7,0.8h-5.8c-0.6,0-0.8-0.3-0.8-0.8v-10.6c0-0.6,0.3-0.8,0.8-0.8h5.7c0.5,0,0.7,0.3,0.7,0.8
				c0,0.5-0.3,0.7-0.7,0.7H670v3.8h4.2L674.2,627L674.2,627z"/>
			<path fill="#42669A" d="M682.8,633.5c0,0.5-0.3,0.7-0.8,0.7c-0.5,0-0.8-0.3-0.8-0.7v-10.2h-3.3c-0.5,0-0.7-0.3-0.7-0.7
				s0.3-0.8,0.7-0.8h8.4c0.5,0,0.7,0.3,0.7,0.8c0,0.5-0.3,0.7-0.7,0.7h-3.3L682.8,633.5L682.8,633.5z"/>
			<path fill="#42669A" d="M696.9,622.4c0.3-0.5,0.5-0.6,1.1-0.6c0.5,0,0.8,0.2,0.8,0.5c0,0.3-0.2,0.5-0.4,0.8l-4.1,6.9v3.5
				c0,0.5-0.3,0.7-0.8,0.7s-0.8-0.3-0.8-0.7V630l-4.1-6.9c-0.3-0.3-0.4-0.6-0.4-0.8c0-0.3,0.3-0.5,0.8-0.5c0.6,0,0.8,0.3,1.1,0.6
				l3.4,6L696.9,622.4z"/>
		</g>
		<g>
			<path fill="#42669A" d="M426.6,654.6c0,2.4-2.1,4.1-6,4.1c-0.9,0-2-0.1-2.7-0.3c-1.2-0.4-1.3-1.2-1.3-1.9v-9.8
				c0-0.8,0-1.6,1.3-1.9c0.6-0.2,1.7-0.3,2.7-0.3c3.5,0,5.5,1.4,5.5,3.8c0,1.6-0.9,2.7-2.6,3.1C425.7,651.7,426.6,653,426.6,654.6z
				 M419.5,647v3.2h1.3c0.5,0,1-0.1,1.3-0.2c0.8-0.3,1.2-0.8,1.2-1.6c0-1.1-0.8-1.7-2.5-1.7C420.3,646.9,419.9,646.9,419.5,647z
				 M423.6,654.5c0-0.8-0.4-1.4-1.4-1.7c-0.4-0.2-0.9-0.3-1.5-0.3h-1.3v3.7c0.4,0.1,0.8,0.1,1.3,0.1
				C422.9,656.4,423.6,655.5,423.6,654.5z"/>
			<path fill="#42669A" d="M440.8,657.9c0,0.5-0.4,0.8-1.4,0.8s-1.4-0.3-1.6-1l-0.8-2.3h-5.2l-0.8,2.3c-0.3,0.7-0.6,1-1.6,1
				s-1.3-0.4-1.3-0.8c0-0.3,0.1-0.5,0.3-1l4-10.9c0.4-1.2,0.8-1.5,2.1-1.5s1.7,0.5,2.1,1.5l4,10.9
				C440.7,657.3,440.8,657.6,440.8,657.9z M431.5,642.6c0-0.5,0.4-0.8,0.8-1.1l1-0.8c0.3-0.3,0.7-0.5,1.3-0.5s1.1,0.4,1.3,0.5l1,0.8
				c0.4,0.3,0.8,0.6,0.8,1.1s-0.4,1.1-1,1.1c-0.4,0-0.6-0.2-1.4-0.8l-0.6-0.5l-0.6,0.5c-0.7,0.5-1.2,0.8-1.4,0.8
				C431.9,643.6,431.5,643.1,431.5,642.6z M436.2,653l-1.8-5.2l-1.8,5.2H436.2z"/>
			<path fill="#42669A" d="M447.7,657.5c0,0.8-0.5,1.2-1.4,1.2c-1,0-1.4-0.4-1.4-1.2v-10.4h-2.9c-0.8,0-1.2-0.5-1.2-1.3
				c0-0.9,0.4-1.3,1.2-1.3h8.8c0.8,0,1.2,0.5,1.2,1.3c0,0.9-0.4,1.3-1.2,1.3h-2.9v10.3L447.7,657.5L447.7,657.5z"/>
			<path fill="#42669A" d="M457,657.5c0,0.8-0.5,1.2-1.4,1.2c-1,0-1.4-0.4-1.4-1.2v-11.9c0-0.8,0.5-1.2,1.4-1.2c1,0,1.4,0.4,1.4,1.2
				V657.5z"/>
			<path fill="#42669A" d="M470.4,657.9c0,0.5-0.4,0.8-1.4,0.8c-1.3,0-1.6-0.4-2.2-1.3l-2.3-3.4c-0.3,0-0.6,0.1-0.9,0.1
				s-0.6,0-0.8-0.1v3.6c0,0.8-0.5,1.2-1.4,1.2s-1.4-0.4-1.4-1.2v-10.9c0-0.8,0-1.6,1.3-1.9c0.6-0.2,1.7-0.3,2.6-0.3
				c3.6,0,5.8,1.6,5.8,4.6c0,1.9-0.9,3.3-2.5,4.2l2.2,2.9C470.3,657.2,470.4,657.5,470.4,657.9z M463.8,651.6c2,0,3.1-0.9,3.1-2.3
				c0-1.5-1.2-2.3-2.9-2.3c-0.4,0-0.8,0.1-1.1,0.1v4.5C463.2,651.6,463.5,651.6,463.8,651.6z"/>
			<path fill="#42669A" d="M485.2,656.9c0.5,0,0.8,0.3,0.8,0.8s-0.3,0.8-0.8,0.8h-6c-0.7,0-1-0.3-1-1v-12.4c0-0.5,0.3-0.8,0.9-0.8
				s0.9,0.3,0.9,0.8v11.6L485.2,656.9L485.2,656.9z"/>
			<path fill="#42669A" d="M499.7,658.2c0,0.3-0.3,0.5-0.8,0.5c-0.5,0-0.9-0.3-1.1-0.7l-1.2-3.2h-6l-1.2,3.2
				c-0.2,0.5-0.4,0.7-1.1,0.7c-0.6,0-0.8-0.3-0.8-0.5c0-0.3,0.1-0.5,0.2-0.7l4.7-12c0.3-0.8,0.5-1,1.3-1c0.8,0,1.1,0.3,1.3,1l4.6,12
				C499.6,657.7,499.7,658,499.7,658.2z M496,653.3l-2.4-6.5l-2.4,6.5H496z"/>
			<path fill="#42669A" d="M507.2,648.1c0-2.3,1.8-3.7,4.5-3.7c1.2,0,2.4,0.3,3.2,0.9c0.5,0.3,0.8,0.6,0.8,0.9
				c0,0.4-0.4,0.9-0.8,0.9c-0.3,0-0.4-0.2-0.8-0.4c-0.8-0.5-1.5-0.8-2.4-0.8c-1.6,0-2.6,0.8-2.6,2c0,2.9,6.9,2.3,6.9,6.9
				c0,2.5-2.1,4-4.9,4c-1.4,0-2.6-0.5-3.6-1.2c-0.5-0.3-0.7-0.6-0.7-1s0.4-0.9,0.8-0.9c0.3,0,0.5,0.2,0.9,0.5
				c0.8,0.5,1.6,0.9,2.6,0.9c1.7,0,2.9-0.9,2.9-2.3C514.2,651.7,507.2,652.4,507.2,648.1z"/>
			<path fill="#42669A" d="M525.1,644.4c4.1,0,6.7,2.8,6.7,7.2c0,4.3-2.6,7.2-6.7,7.2c-4.1,0-6.7-2.8-6.7-7.2
				C518.3,647.2,520.9,644.4,525.1,644.4z M525.1,657.3c2.9,0,4.9-2.2,4.9-5.7c0-3.4-1.9-5.7-4.9-5.7c-3,0-4.9,2.2-4.9,5.7
				C520.2,655,522.2,657.3,525.1,657.3z"/>
			<path fill="#42669A" d="M541,657.3c1,0,1.9-0.3,2.5-0.7c0.5-0.3,0.7-0.5,1-0.5c0.4,0,0.8,0.5,0.8,0.8c0,0.4-0.4,0.7-0.9,1.1
				c-1,0.6-2.1,1-3.5,1c-3.9,0-6.6-2.8-6.6-7.3c0-4.4,2.7-7.1,6.5-7.1c1.3,0,2.5,0.4,3.5,1c0.6,0.4,0.9,0.7,0.9,1.1
				c0,0.4-0.4,0.9-0.8,0.9c-0.3,0-0.5-0.3-0.9-0.5c-0.8-0.5-1.6-0.7-2.6-0.7c-2.8,0-4.8,2-4.8,5.5C536.2,655,538.1,657.3,541,657.3z
				"/>
			<path fill="#42669A" d="M550.1,657.9c0,0.5-0.3,0.8-0.9,0.8c-0.6,0-0.9-0.3-0.9-0.8v-12.7c0-0.5,0.3-0.8,0.9-0.8
				c0.6,0,0.9,0.3,0.9,0.8V657.9z"/>
			<path fill="#42669A" d="M560.4,650.5c0.5,0,0.8,0.3,0.8,0.8c0,0.5-0.3,0.8-0.8,0.8h-4.8v4.9h5.8c0.5,0,0.8,0.3,0.8,0.8
				s-0.3,0.8-0.8,0.8h-6.7c-0.7,0-1-0.3-1-1v-12c0-0.7,0.3-1,1-1h6.4c0.5,0,0.8,0.3,0.8,0.8s-0.3,0.8-0.8,0.8h-5.6v4.3L560.4,650.5
				L560.4,650.5z M558.7,642.6c-1.2,0.7-1.4,0.8-1.6,0.8c-0.5,0-0.7-0.4-0.7-0.8c0-0.4,0.3-0.5,0.8-0.8l1.6-1.2
				c0.4-0.3,0.5-0.4,0.8-0.4c0.5,0,0.8,0.5,0.8,0.9C560.4,641.8,559.7,642.1,558.7,642.6z"/>
			<path fill="#42669A" d="M570.3,657.9c0,0.5-0.3,0.8-0.9,0.8c-0.6,0-0.9-0.3-0.9-0.8v-11.6h-3.8c-0.5,0-0.8-0.3-0.8-0.8
				c0-0.5,0.3-0.8,0.8-0.8h9.6c0.5,0,0.8,0.3,0.8,0.8c0,0.5-0.3,0.8-0.8,0.8h-3.8v11.6H570.3z"/>
			<path fill="#42669A" d="M584.1,650.5c0.5,0,0.8,0.3,0.8,0.8c0,0.5-0.3,0.8-0.8,0.8h-4.8v4.9h5.8c0.5,0,0.8,0.3,0.8,0.8
				s-0.3,0.8-0.8,0.8h-6.6c-0.7,0-1-0.3-1-1v-12c0-0.7,0.3-1,1-1h6.4c0.5,0,0.8,0.3,0.8,0.8s-0.3,0.8-0.8,0.8h-5.6v4.3L584.1,650.5
				L584.1,650.5z M582.5,642.6c-1.2,0.7-1.4,0.8-1.6,0.8c-0.5,0-0.7-0.4-0.7-0.8c0-0.4,0.3-0.5,0.8-0.8l1.6-1.2
				c0.4-0.3,0.5-0.4,0.8-0.4c0.5,0,0.8,0.5,0.8,0.9C584.2,641.8,583.5,642.1,582.5,642.6z"/>
			<path fill="#42669A" d="M597.2,658.7c-0.8,0-1.8-0.1-2.4-0.3c-0.9-0.3-0.9-0.7-0.9-1.3V646c0-0.5,0-1.2,0.9-1.3
				c0.5-0.2,1.6-0.3,2.4-0.3c5,0,7.8,2.5,7.8,7C605.1,656.2,602.2,658.7,597.2,658.7z M597.3,657.2c3.8,0,5.9-2,5.9-5.6
				s-2-5.6-5.9-5.6c-0.5,0-1.1,0.1-1.6,0.2V657C596.3,657.1,596.8,657.2,597.3,657.2z"/>
			<path fill="#42669A" d="M614.7,650.5c0.5,0,0.8,0.3,0.8,0.8c0,0.5-0.3,0.8-0.8,0.8H610v4.9h5.8c0.5,0,0.8,0.3,0.8,0.8
				s-0.3,0.8-0.8,0.8h-6.6c-0.7,0-1-0.3-1-1v-12c0-0.7,0.3-1,1-1h6.4c0.5,0,0.8,0.3,0.8,0.8s-0.3,0.8-0.8,0.8H610v4.3L614.7,650.5
				L614.7,650.5z"/>
			<path fill="#42669A" d="M628,658.7c-0.8,0-1.8-0.1-2.4-0.3c-0.9-0.3-0.9-0.7-0.9-1.3V646c0-0.5,0-1.2,0.9-1.3
				c0.5-0.2,1.6-0.3,2.4-0.3c5,0,7.8,2.5,7.8,7C635.8,656.2,632.9,658.7,628,658.7z M628,657.2c3.8,0,5.9-2,5.9-5.6s-2-5.6-5.9-5.6
				c-0.5,0-1.1,0.1-1.6,0.2V657C626.9,657.1,627.6,657.2,628,657.2z"/>
			<path fill="#42669A" d="M645.5,650.5c0.5,0,0.8,0.3,0.8,0.8c0,0.5-0.3,0.8-0.8,0.8h-4.8v4.9h5.8c0.5,0,0.8,0.3,0.8,0.8
				s-0.3,0.8-0.8,0.8h-6.6c-0.7,0-1-0.3-1-1v-12c0-0.7,0.3-1,1-1h6.4c0.5,0,0.8,0.3,0.8,0.8s-0.3,0.8-0.8,0.8h-5.7v4.3L645.5,650.5
				L645.5,650.5z"/>
			<path fill="#42669A" d="M658.5,655.7c-0.3,0.6-0.5,0.8-1.1,0.8c-0.5,0-0.8-0.3-1.2-0.8l-4-8.8l-0.8,11c-0.1,0.5-0.3,0.8-0.9,0.8
				s-0.8-0.3-0.8-0.8l0.9-12.3c0.1-0.8,0.3-1.2,1.2-1.2c0.8,0,1.2,0.3,1.5,1.2l4,8.8l4-8.8c0.3-0.8,0.7-1.2,1.5-1.2s1.2,0.4,1.2,1.2
				l0.9,12.3c0,0.5-0.3,0.8-0.8,0.8c-0.6,0-0.9-0.3-1-0.8l-0.8-11L658.5,655.7z"/>
			<path fill="#42669A" d="M679.6,658.2c0,0.3-0.3,0.5-0.8,0.5c-0.7,0-0.9-0.3-1.1-0.7l-1.2-3.2h-6l-1.2,3.2
				c-0.2,0.5-0.4,0.7-1.1,0.7c-0.6,0-0.8-0.3-0.8-0.5c0-0.3,0.1-0.5,0.2-0.7l4.7-12c0.3-0.8,0.5-1,1.3-1c0.8,0,1.1,0.3,1.3,1l4.6,12
				C679.5,657.7,679.6,658,679.6,658.2z M675.9,653.3l-2.4-6.5l-2.4,6.5H675.9z"/>
			<path fill="#42669A" d="M684.2,657.9c0,0.5-0.3,0.8-0.9,0.8c-0.6,0-0.9-0.3-0.9-0.8v-12.7c0-0.5,0.3-0.8,0.9-0.8
				c0.6,0,0.9,0.3,0.9,0.8V657.9z"/>
			<path fill="#42669A" d="M689.7,657.9c0,0.5-0.3,0.8-0.8,0.8c-0.6,0-0.9-0.3-0.9-0.8v-12.4c0-0.7,0.4-1,1.2-1
				c0.8,0,1.3,0.4,1.6,0.9l6.7,10.6v-10.7c0-0.5,0.3-0.8,0.8-0.8c0.6,0,0.9,0.3,0.9,0.8v12.4c0,0.7-0.4,1-1.1,1
				c-0.8,0-1.2-0.4-1.5-1l-6.9-10.7L689.7,657.9L689.7,657.9z"/>
		</g>
	</g>
	<g>
		<path fill="#899A3A" d="M666.2,486.6c-1.6,0-2.8,1.3-2.8,2.8v9.2h5.8v-9.2C669,488,667.7,486.6,666.2,486.6z M666.9,496.6h-1.4v-7
			c0-0.4,0.3-0.8,0.8-0.8c0.5,0,0.8,0.3,0.8,0.8v7H666.9z"/>
		<path fill="#899A3A" d="M663.5,482h5.3c0.6,0,1.1-0.5,1.1-1.1c0-0.6-0.5-1.1-1.1-1.1h-5.3c-0.6,0-1.1,0.5-1.1,1.1
			C662.5,481.6,662.9,482,663.5,482z"/>
		<path fill="#899A3A" d="M668.9,484.7c0.6,0,1.1-0.5,1.1-1.1c0-0.6-0.5-1.1-1.1-1.1h-5.3c-0.6,0-1.1,0.5-1.1,1.1
			c0,0.6,0.5,1.1,1.1,1.1H668.9z"/>
		<path fill="#899A3A" d="M491.5,498.3v-11.7c0-1.9-1.6-3.4-3.4-3.4s-3.4,1.6-3.4,3.4v11.7H491.5L491.5,498.3z M486.8,486.6
			c0-0.8,0.6-1.3,1.3-1.3c0.8,0,1.3,0.6,1.3,1.3v9.7h-2.5V486.6L486.8,486.6z"/>
		<path fill="#899A3A" d="M508.1,498.3v-11.7c0-1.9-1.6-3.4-3.4-3.4s-3.4,1.6-3.4,3.4v11.7H508.1L508.1,498.3z M503.3,486.6
			c0-0.8,0.6-1.3,1.3-1.3c0.8,0,1.3,0.6,1.3,1.3v9.7h-2.5V486.6L503.3,486.6z"/>
		
			<linearGradient id="SVGID_1_" gradientUnits="userSpaceOnUse" x1="358.0455" y1="522.26" x2="358.0455" y2="458.0331" gradientTransform="matrix(2.0046 0 0 -2.0046 -161.8907 1487.0659)">
			<stop  offset="0" style="stop-color:#41669A"/>
			<stop  offset="0.3946" style="stop-color:#899B3A"/>
			<stop  offset="0.6493" style="stop-color:#899B3A"/>
			<stop  offset="0.8248" style="stop-color:#1D433F"/>
			<stop  offset="1" style="stop-color:#04273D"/>
		</linearGradient>
		<path fill="url(#SVGID_1_)" d="M714.1,533.9c0-4.2-2.1-8.9-7.8-9.3c0-0.2,0-0.3,0-0.4c0-5.6-4.5-10.1-10.1-10.1
			c-0.9,0-1.8,0.2-2.7,0.4V502l0.8-2.4c0.2-0.5,0.5-0.6,0.9-1c0.5-0.5-0.1-1.3-0.1-1.3l-8.8-13.3l-0.4-0.6v-3.5
			c0-0.6-0.5-1.1-1.1-1.1c-0.6,0-1.1,0.5-1.1,1.1v2.8h-2.2v-2.8c0-0.6-0.5-1.1-1.1-1.1c-0.6,0-1.1,0.5-1.1,1.1v2.8h-3.2v-8.6h1.4
			c0.4,0,0.8-0.3,1-0.5c0.3-0.4,0.2-0.8,0-1.2l-2.5-4l-5.8-14.7v-2.7c0-0.6-0.5-1.1-1.1-1.1c-0.6,0-1.1,0.5-1.1,1.1v1.9h-3.2v-1.8
			c0-0.6-0.5-1.1-1.1-1.1c-0.6,0-1.1,0.5-1.1,1.1v2.7l-5.8,14.7l-2.5,4c-0.3,0.3-0.3,0.8,0,1.2c0.3,0.4,0.5,0.5,1,0.5h1.4v8.6h-4.1
			v-2.5c0-0.6-0.5-1.1-1.1-1.1s-1.1,0.5-1.1,1.1v2.5h-2.2v-2.5c0-0.6-0.5-1.1-1.1-1.1c-0.6,0-1.1,0.5-1.1,1.1v3.2l-9.7,13.8
			c0,0-0.6,0.8-0.1,1.3c0.4,0.4,0.8,0.5,0.9,1l0.8,2.4v5.2c-1.8-1.4-3.8-2.5-6-3.2v-36.1c0-0.6-0.5-1.1-1.1-1.1
			c-0.6,0-1.1,0.5-1.1,1.1v35.4c-1.2-0.3-2.3-0.3-3.4-0.3c-0.5,0-0.9,0-1.4,0.1c-0.5-6.9-6.4-12.5-13.5-12.5c-0.1,0-0.2,0-0.3,0
			c-3.7-8.7-11.9-14.2-21.3-14.2c-10.6,0-19.8,7.2-22.4,17.4c-2.6-1.6-5.7-2.4-8.7-2.4c-3.7,0-7,1.2-9.8,3.1l-1-4.3h2.3
			c0.6,0,1.1-0.5,1.1-1.1v-5.1c0-0.6-0.5-1.1-1.1-1.1h-3.1v-2h1.6c0.5,0,0.8-0.3,1-0.7c0.2-0.5,0-0.9-0.3-1.2l-9.6-8.3
			c-0.4-0.4-1-0.4-1.4,0l-9.6,8.3c-0.4,0.3-0.5,0.8-0.3,1.2c0.2,0.5,0.5,0.7,1,0.7h1.6v2h-3c-0.6,0-1.1,0.5-1.1,1.1v5.1
			c0,0.6,0.5,1.1,1.1,1.1h2.3l-1.5,6.9h-15.3v-21.9c0-11.2-9.7-15.2-12.7-16.2v-3.6c0-2.2-2.4-3.2-3.8-3.8V451v-9.7
			c0-0.6-0.5-1.1-1.1-1.1s-1.1,0.5-1.1,1.1v9.7v0.5c-1.4,0.5-3.8,1.6-3.8,3.8v3.6c-2.9,1-12.7,5.1-12.7,16.2v21.9h-12.4
			c-1.2-2-3.2-3.3-5.8-3.4c-1.9-4.1-6-6.7-10.6-6.7c-5.1,0-9.5,3.2-11,7.9c-1.2-0.6-2.4-0.9-3.8-0.9c-4.9,0-8.7,3.9-8.7,8.7
			c0,0.1,0,0.2,0,0.2c-1,0.1-3.2,0.4-4.9,2.1c-1.4,1.4-2,3.4-1.9,6c0.1,1.2,0.4,2.2,0.8,3.2c-0.2,0.3-0.3,0.7-0.4,1
			c-1.4-0.8-3-1.2-4.6-1.2c-5.6,0-10.1,4.5-10.1,10.1c0,0.2,0,0.3,0,0.4c-1.5,0.1-3.8,0.8-5.7,2.6c-1.2,1.2-2.4,3.3-2.3,6.7
			c0.3,4.8,3.8,8.4,8.1,8.7c1.4,1.9,7.3,7.4,28,7.4l0,0c73.4,0,109.7,10.9,110,10.9c21.7,5.8,41.8,7.9,59.7,7.9
			c23.1,0,42.6-3.6,57.2-7.6c26.3-7.2,42.7-17.4,44.9-18.8C710.3,542.3,714.1,538.5,714.1,533.9z M675.9,484.9h8.1l7.6,11.5h-15.7
			V484.9z M675.9,498.4h16.3l-0.8,2.3h-15.5V498.4z M691.1,502.8v11.5c-2-5.2-6.9-8.7-12.6-8.7c-0.9,0-1.8,0.1-2.7,0.3v-3
			L691.1,502.8L691.1,502.8z M670.8,522.9c0.4-0.1,0.7-0.1,1-0.1c4.9,0,8.8,4,8.8,8.8c0,4.9-4,8.8-8.8,8.8h-9.3h-12.1v-8.4l3.8-5.2
			c0.4-0.5,0.3-1.2-0.3-1.5c-0.5-0.4-1.2-0.3-1.5,0.3l-2,2.8V522c0-0.6-0.5-1.1-1.1-1.1c-0.6,0-1.1,0.5-1.1,1.1v12.7l-12.6-4
			c-0.6-0.2-1.2,0.2-1.4,0.7c-0.2,0.6,0.2,1.2,0.7,1.4l13.3,4.1v3.5h-23.6c-3.6,0-6.6-2.9-6.6-6.6c0-1.6,0.5-6.9,6-7.1
			c0.3,0,0.5,0,0.8,0.1l1.5,0.3l-0.3-1.5c-0.1-0.3-0.1-0.5-0.1-0.7v-1.6c0.5-3.9,3.8-6.9,7.8-6.9c1.6,0,3.2,0.5,4.7,1.6l1.4,1.1
			l0.3-1.6c1-5.3,5.7-9.3,11.1-9.3c4.8,0,8.9,2.8,10.6,7.3l0.3,0.8l0.8-0.1c0.1,0,0.2,0,0.3,0s0.1,0,0.2,0c3.2,0,6,2.6,6,5.9v1.4
			L670.8,522.9z M565.1,534c-0.5-4.9-3.5-6-5.8-6.2c4.5-2,11.7-4.9,20.8-6.5c7.8-1.5,17.9-2.3,29-0.8c0.3,0.2,0.5,0.2,0.8,0.2
			c3.4,0.5,6.9,1.2,10.6,2.3L565.1,534z M558,540.4h-3.9h-14.5V538l10.4-3.2c0.6-0.2,0.9-0.8,0.7-1.4c-0.2-0.6-0.8-0.9-1.4-0.7
			l-9.7,3v-9.7c0-0.6-0.5-1.1-1.1-1.1c-0.6,0-1.1,0.5-1.1,1.1v4.3l-1.2-1.6c-0.4-0.5-1.1-0.6-1.5-0.3c-0.5,0.4-0.6,1.1-0.3,1.5
			l2.9,4.1v6.3h-16.7c-3.8,0-6.8-3-6.8-6.8c0-3.8,3-6.8,6.8-6.8c0.3,0,0.5,0,0.8,0.1l1.4,0.3V526c0-0.1,0-0.1,0-0.2
			c0-2.4,2-4.4,4.5-4.4h0.1c0.1,0,0.2,0,0.3,0l0.8,0.1l0.3-0.8c1.3-3.3,4.5-5.7,8.1-5.7c4.2,0,7.8,3,8.6,7.1l0.3,1.6l1.4-1.1
			c1.1-0.8,2.3-1.2,3.5-1.2c3.2,0,6,2.7,6,6c0,0.3,0,0.6-0.1,1.1l-0.3,1.5l1.5-0.3c0.3-0.1,0.5-0.1,0.7-0.1l0,0c3,0,4.4,1.7,4.4,5.4
			C563.1,538.1,560.8,540.4,558,540.4z M463.4,536.8l13.3-4.1c0.6-0.2,0.9-0.8,0.7-1.4c-0.2-0.6-0.8-0.9-1.4-0.7l-12.6,4v-12.7
			c0-0.6-0.5-1.1-1.1-1.1c-0.6,0-1.1,0.5-1.1,1.1v6.4l-2-2.8c-0.4-0.5-1.1-0.6-1.5-0.3c-0.5,0.4-0.6,1.1-0.3,1.5l3.8,5.2v8.4H451
			h-11.1c-4.9,0-8.8-4-8.8-8.8c0-4.9,4-8.8,8.8-8.8c0.3,0,0.7,0.1,1,0.1l1.4,0.3v-1.3c0-0.1,0-0.1,0-0.2c0-3.2,2.7-5.9,6-5.9
			c0.1,0,0.2,0,0.2,0c0.1,0,0.2,0,0.3,0l0.8,0.1l0.3-0.8c1.7-4.4,5.9-7.3,10.6-7.3c5.5,0,10.1,3.9,11.1,9.3l0.3,1.6l1.4-1.1
			c1.4-1,3-1.6,4.7-1.6c4.3,0,7.8,3.5,7.8,7.8c0,0.4-0.1,0.8-0.2,1.4l-0.3,1.5l1.5-0.3c0.2,0,0.4-0.1,0.5-0.1c0.2,0,0.3,0,0.5-0.1
			c1.5-0.2,2.6,0.2,3.5,1c2.2,2,2.2,6,2.2,6.2c0,3.6-2.9,6.6-6.6,6.6h-23.4L463.4,536.8L463.4,536.8z M489.5,524.5
			c-0.5-0.1-1-0.1-1.5,0c0-0.2,0-0.3,0-0.4c0-1.6-0.4-3.2-1.1-4.5c0.1-0.7,0.6-1.2,1.3-1.2c0.8,0,1.3,0.6,1.3,1.3L489.5,524.5
			L489.5,524.5z M506,540.4h-2.5v-20.7c0-0.8,0.6-1.3,1.3-1.3c0.8,0,1.3,0.6,1.3,1.3V540.4L506,540.4z M508.1,540.4v-20.7
			c0-1.9-1.6-3.4-3.4-3.4s-3.4,1.6-3.4,3.4v20.7h-8.4c1.8-1.6,3-4,3-6.6c0-0.5-0.1-5.2-2.9-7.8c-0.4-0.4-0.8-0.7-1.3-0.9v-5.4
			c0-1.9-1.6-3.4-3.4-3.4c-1.1,0-2,0.5-2.6,1.3c-1.9-2.1-4.6-3.4-7.6-3.4c-1,0-1.9,0.2-2.8,0.5c0.5-0.8,1-1.6,1.3-2.5h42.2v13.2
			c-3.8,1.1-6.6,4.5-6.6,8.7c0,2.7,1.2,5.1,3.1,6.8h-6.9L508.1,540.4L508.1,540.4z M533.7,485.2h11.7v2.9h-5.9h-5.8L533.7,485.2
			L533.7,485.2z M552.5,519.7c-0.5-0.1-1.2-0.2-1.6-0.2c-1.2,0-2.4,0.3-3.5,0.8c-1.1-3.2-3.6-5.7-6.7-6.9v-5.6h0.9
			c0.6,0,1.1-0.5,1.1-1.1V501c0-0.6-0.5-1.1-1.1-1.1h-0.9v-9.7h5.4L552.5,519.7z M624,521.7c-1.2-0.4-2.2-0.7-3.2-1l-2.5-7.9
			c3.2,0.8,6.5,1.9,9.9,3.2C626.1,517.3,624.7,519.3,624,521.7z M618.3,520c-2.2-0.5-4.3-1-6.5-1.4l4.3-5.2L618.3,520z M609.3,518.3
			c-2.2-0.3-4.3-0.5-6.4-0.6l-4.3-7.5c5.1,0.1,10.6,0.6,16.1,1.7L609.3,518.3z M600.3,517.5c-1.1,0-2-0.1-3.1-0.1
			c-1.4,0-2.6,0-3.9,0.1l3.2-6.3L600.3,517.5z M590.8,517.7c-2.2,0.2-4.3,0.4-6.3,0.7L579,512c0.3-0.1,0.7-0.2,1-0.3
			c4.3-0.8,9.3-1.4,14.6-1.6L590.8,517.7z M582,518.7c-0.8,0.2-1.6,0.3-2.4,0.5c-1.4,0.3-2.8,0.6-4.2,0.9l2.1-6.6L582,518.7z
			 M572.9,520.7c-2,0.5-4,1.2-5.7,1.7l-6.2-4.9c3.6-1.6,8.6-3.3,14.5-4.9L572.9,520.7z M564.8,523.3c-2.1,0.8-4,1.5-5.6,2.3l0.6-6
			L564.8,523.3z M557.3,522.7c-0.7-0.8-1.5-1.6-2.4-2.1v-0.1c0.5-0.3,1.5-0.8,2.8-1.4L557.3,522.7z M538.6,502.2h1.7v3.6h-1.7V502.2
			z M538.4,490.2v9.9h-0.9c-0.6,0-1.1,0.5-1.1,1.1v5.8c0,0.6,0.5,1.1,1.1,1.1h0.9v5.1c-0.5-0.1-1-0.1-1.5-0.1c-4.3,0-8,2.4-9.8,6.3
			c-0.2,0-0.3,0-0.5,0l6.3-29L538.4,490.2L538.4,490.2z M524.3,520c-1.8,1-3.2,2.7-3.4,4.9h-0.1c-0.1,0-0.1,0-0.2,0V511
			c0-0.5-0.3-0.8-0.6-1l0,0l-6-2.8v-2.8h13.7L524.3,520z M496.4,501.5l15.5,7.1c0.2,0.3,0.5,0.6,1,0.6c0.1,0,0.2,0,0.3,0l1.4,0.7
			h-35.8L496.4,501.5z M511.7,506.1l-14.3-6.5v-19.7h14.3V506.1L511.7,506.1z M495.2,499.6l-14.3,6.8v-26.4h14.3V499.6z
			 M478.7,507.3l-2,1c-0.1-1.4-0.5-2.8-1.2-4h3.2L478.7,507.3L478.7,507.3z M640.4,509.2v-6.3h16.1v3.7c-1.6-0.6-3.2-1-5.1-1
			c-4,0-7.6,1.7-10.1,4.6C641,509.9,640.6,509.6,640.4,509.2z M666.2,513.6c-0.5,0-0.9,0.1-1.4,0.2c-0.5-0.1-0.9-0.2-1.4-0.2
			c-1.2-2.4-2.8-4.4-5.1-5.9v-33.6h2.1c0.7,2.4,2.9,4.2,5.6,4.2c2.6,0,4.9-1.8,5.6-4.2h2.1v32.4
			C670.5,507.8,667.8,510.2,666.2,513.6z M662.6,472.6c0-2,1.6-3.6,3.6-3.6c2,0,3.6,1.6,3.6,3.6s-1.6,3.6-3.6,3.6
			C664.2,476.2,662.6,474.5,662.6,472.6z M658.5,469.6c0-0.1,0.1-0.2,0.1-0.2l5.7-14.3h3.8l5.7,14.3c0,0.1,0.1,0.2,0.1,0.2l1.5,2.4
			h-3.5c-0.3-2.8-2.8-5.1-5.7-5.1c-2.9,0-5.4,2.3-5.7,5.1h-3.2L658.5,469.6z M647.5,484.9h8.9v11.4h-16.5L647.5,484.9z M656.3,498.4
			v2.3H640l-0.8-2.3H656.3z M559,493.6c3.2,0,6.1,1,8.8,2.9l1.4,1.1l0.3-1.6c1.9-9.9,10.6-17.1,20.7-17.1c8.7,0,16.5,5.3,19.6,13.5
			l0.3,0.8l0.8-0.1c0.2,0,0.3,0,0.5-0.1c0.2,0,0.3-0.1,0.5-0.1c6.3,0,11.5,5.1,11.5,11.4c0,0.1,0,0.2,0,0.3v1.3l1.6-0.3
			c0.7-0.1,1.3-0.2,1.9-0.2c5.5,0,10.3,2.6,13.3,6.8c-0.6,1-1.2,2-1.4,3.2c-1.4-0.8-3-1.2-4.6-1.2c-1.2,0-2.1,0.2-3.2,0.5
			c-12.2-5-23.8-6.6-33.9-6.5c-0.1,0-0.2,0-0.3,0c-0.1,0-0.2,0-0.2,0c-6.2,0.1-11.9,0.8-16.8,1.6c-13,2.4-22,6.9-25.3,8.7l-4.7-21.5
			C552.2,494.8,555.5,493.6,559,493.6z M549.4,485.2v2.9h-2v-2.9H549.4z M539.4,473.1l6.7,5.8h-13.3L539.4,473.1z M533.7,481h11.7v2
			h-11.6L533.7,481L533.7,481z M529.6,485.2h2v2.9h-2V485.2z M528.8,499.2l-0.6,2.9H514v-2.9H528.8z M499.2,455.3v5.2l0.8,0.3
			c0.5,0.2,11.9,2.9,11.9,14.3v2.6h-14.3v-23.9C498.4,454.2,499.2,454.8,499.2,455.3z M492.7,460.8l0.8-0.3v-5.2
			c0-0.5,0.8-1.1,1.7-1.5v24h-14.3v-2.6C480.9,463.7,492.3,460.9,492.7,460.8z M478.7,499.2v2.9h-5c-1.7-1.6-4-2.6-6.5-2.6
			c-0.1,0-0.1,0-0.2,0c0-0.1-0.1-0.3-0.1-0.3H478.7z M421.9,510.9c-0.1-1.9,0.3-3.3,1.3-4.4c1.1-1.1,2.4-1.4,3.5-1.4
			c0.3,0,0.5,0,0.8,0.1l1.5,0.3l-0.3-1.5c-0.1-0.5-0.2-0.8-0.2-1.2c0-3.6,2.9-6.5,6.5-6.5c1.4,0,2.7,0.5,3.8,1.3l1.4,1.1l0.3-1.6
			c0.9-4.6,4.9-7.8,9.4-7.8c3.9,0,7.4,2.4,8.8,6l0.3,0.8l0.8-0.1c0.1,0,0.2,0,0.3,0s0.1,0,0.2,0c2.7,0,4.9,2.2,4.9,4.9v1.4l1.4-0.3
			c0.3-0.1,0.6-0.1,0.8-0.1c4.1,0,7.3,3.2,7.3,7.3c0,1.9-0.7,3.5-1.8,4.9c-2.1-4.9-6.9-8.2-12.4-8.2c-5.3,0-10.1,3.1-12.3,7.9
			c-0.1,0-0.2,0-0.3,0l0.1-7.4l4.3-2.2c0.5-0.3,0.8-0.9,0.5-1.4c-0.3-0.5-0.9-0.8-1.4-0.5l-3.3,1.7v-3.2c0-0.6-0.5-1.1-1.1-1.1l0,0
			c-0.6,0-1.1,0.5-1.1,1.1l-0.1,13.1c-0.1,0-0.3,0-0.3,0c-2.2-4.9-6.9-7.9-12.3-7.9c-4.6,0-8.7,2.3-11.1,5.9
			C421.9,511.3,421.9,511,421.9,510.9z M399.8,533.8c-0.2-2.1,0.5-3.8,1.6-5.1c1.3-1.4,3.1-2,4.2-2c0.3,0,0.5,0,0.9,0.1l1.5,0.3
			l-0.3-1.5c-0.1-0.5-0.2-1-0.2-1.4c0-4.3,3.5-7.8,7.8-7.8c1.6,0,3.2,0.5,4.7,1.6l1.4,1.1l0.3-1.6c1.2-5.7,5.8-9.5,11.2-9.5
			c4.8,0,8.8,2.8,10.6,7.2c-1.8,1.3-3.1,3.2-3.3,5.6c-0.1,0-0.3,0-0.3,0c-6,0-10.9,5-10.9,10.9c0,3.6,1.7,6.9,4.4,8.8h-26.9
			C402.9,540.4,400,537.6,399.8,533.8z M439.9,542.5h13.1h23.7l0,0h24.4h6.9h11.5l0,0h1.2h37.3h0.5l0,0c3.4-0.3,6.1-2.8,6.6-6.2
			l58.6-11.9c0,0.1,0,0.1,0,0.2c-3.3,0.3-5.5,2-6.6,4.1l-2.6,1c-0.5,0.3-0.8,0.8-0.7,1.4c0.2,0.5,0.6,0.7,1.1,0.7
			c0.2,0,0.3,0,0.4-0.1l0.9-0.3c-0.2,0.8-0.3,1.7-0.3,2.5c0,4.9,3.9,8.7,8.7,8.7h75c-24,8.1-78.3,12.3-134.8,7.4l1.7-0.6
			c0.5-0.3,0.8-0.8,0.7-1.4c-0.3-0.5-0.8-0.8-1.4-0.7l-5.4,2c-0.2,0.1-0.3,0.2-0.4,0.3c-5.2-0.5-10.6-1.1-15.8-1.7
			c-59.8-7.5-108.1-0.4-110.5,0c-15.7,0-22.3-3.2-24.8-5.2h30.9V542.5z M660.2,559.2c-25.8,7-66.7,12.8-115.8-0.4
			c-0.1,0-9.3-2.8-27.4-5.6c-14.1-2.1-36.1-4.6-65.6-5.3c19.6-1.6,53.6-3,92.5,2c59.3,7.4,120.3,4.3,150.4-3.6
			C686.6,550.2,675,555.2,660.2,559.2z M705.3,540.4h-27c2.7-2,4.4-5.2,4.4-8.8c0-6-5-10.9-10.9-10.9c-0.2,0-0.3,0-0.3,0
			c-0.3-2.3-1.6-4.3-3.3-5.6c1.7-4.4,5.9-7.2,10.6-7.2c5.5,0,10.1,3.9,11.1,9.3l0.3,1.6l1.4-1.1c1.4-1,3-1.6,4.7-1.6
			c4.3,0,7.8,3.5,7.8,7.8c0,0.4-0.1,0.8-0.2,1.4l-0.3,1.5l1.5-0.3c0.3-0.1,0.6-0.1,0.8-0.1c5.5,0.4,6,5.6,6,7.1
			C711.8,537.5,708.9,540.4,705.3,540.4z"/>
		
			<linearGradient id="SVGID_2_" gradientUnits="userSpaceOnUse" x1="366.688" y1="470.25" x2="370.4681" y2="470.25" gradientTransform="matrix(2.0046 0 0 -2.0046 -161.8907 1487.0659)">
			<stop  offset="0" style="stop-color:#14383F"/>
			<stop  offset="1" style="stop-color:#1D433F"/>
		</linearGradient>
		<path fill="url(#SVGID_2_)" d="M574.2,546.5c0.2,0,0.3,0,0.4-0.1l5.4-2c0.5-0.3,0.8-0.8,0.7-1.4c-0.3-0.5-0.8-0.8-1.4-0.7l-5.4,2
			c-0.5,0.3-0.8,0.8-0.7,1.4S573.8,546.5,574.2,546.5z"/>
		
			<linearGradient id="SVGID_3_" gradientUnits="userSpaceOnUse" x1="373.4422" y1="472.7248" x2="377.2224" y2="472.7248" gradientTransform="matrix(2.0046 0 0 -2.0046 -161.8907 1487.0659)">
			<stop  offset="0.1752" style="stop-color:#1D433F"/>
			<stop  offset="1" style="stop-color:#3C5A43"/>
		</linearGradient>
		<path fill="url(#SVGID_3_)" d="M587.8,541.5c0.2,0,0.3,0,0.4-0.1l5.4-2c0.5-0.3,0.8-0.8,0.7-1.4c-0.3-0.5-0.8-0.8-1.4-0.7l-5.4,2
			c-0.5,0.3-0.8,0.8-0.7,1.4C586.9,541.4,587.3,541.5,587.8,541.5z"/>
		
			<linearGradient id="SVGID_4_" gradientUnits="userSpaceOnUse" x1="380.1966" y1="475.1545" x2="383.9766" y2="475.1545" gradientTransform="matrix(2.0046 0 0 -2.0046 -161.8907 1487.0659)">
			<stop  offset="0" style="stop-color:#355443"/>
			<stop  offset="1" style="stop-color:#607842"/>
		</linearGradient>
		<path fill="url(#SVGID_4_)" d="M601.3,536.7c0.2,0,0.3,0,0.4-0.1l5.4-2c0.5-0.3,0.8-0.8,0.7-1.4c-0.3-0.5-0.8-0.8-1.4-0.7l-5.4,2
			c-0.5,0.3-0.8,0.8-0.7,1.4C600.4,536.3,600.9,536.7,601.3,536.7z"/>
		
			<linearGradient id="SVGID_5_" gradientUnits="userSpaceOnUse" x1="390.9412" y1="509.2761" x2="390.9412" y2="503.6371" gradientTransform="matrix(2.0046 0 0 -2.0046 -161.8907 1487.0659)">
			<stop  offset="0" style="stop-color:#657D76"/>
			<stop  offset="3.331342e-03" style="stop-color:#667E75"/>
			<stop  offset="0.1216" style="stop-color:#728863"/>
			<stop  offset="0.2382" style="stop-color:#7D9051"/>
			<stop  offset="0.3512" style="stop-color:#839644"/>
			<stop  offset="0.4588" style="stop-color:#88993D"/>
			<stop  offset="0.5555" style="stop-color:#899B3A"/>
			<stop  offset="1" style="stop-color:#899B3A"/>
		</linearGradient>
		<path fill="url(#SVGID_5_)" d="M615.1,476.7c1.1,0.6,2.1,0.8,3.2,0.8c1.4,0,2.6-0.4,3.8-0.8c2-0.5,3.7-1.1,5.3-0.1
			c0.3,0.3,0.8,0.3,1.1,0s0.5-0.5,0.5-0.9v-7.8c0-0.4-0.3-0.8-0.5-0.9c-2.4-1.4-4.9-0.7-6.9-0.1c-2,0.5-3.7,1.1-5.3,0.1
			c-0.3-0.3-0.8-0.3-1.1,0c-0.3,0.3-0.5,0.5-0.5,0.9v7.8C614.6,476.1,614.7,476.5,615.1,476.7z M616.7,469.6
			c1.9,0.5,3.8-0.1,5.4-0.5c1.7-0.5,3.2-0.9,4.9-0.4v5.6c-1.9-0.5-3.8,0.1-5.4,0.5c-1.7,0.5-3.2,0.9-4.9,0.4V469.6z"/>
		<g>
			<path fill="#05273C" d="M549.2,575c0.1-0.3,0-0.5-0.1-0.7c-0.2-0.3-0.3-0.3-0.5-0.4l-7.4-1.8c-0.5-0.1-0.9,0.2-1,0.7L537,586l0,0
				c-0.1,0.3,0,0.5,0.1,0.7c0.2,0.3,0.3,0.3,0.5,0.4c0.1,0,0.2,0,0.3,0c0.2,0,0.3-0.1,0.5-0.2c0.3-0.2,0.4-0.3,0.4-0.5l1.4-5.7
				l5.6,1.4c0.3,0.1,0.5,0,0.7-0.1c0.3-0.2,0.4-0.3,0.4-0.5c0.1-0.3,0-0.5-0.1-0.7c-0.2-0.3-0.3-0.3-0.5-0.4l-5.6-1.4l1.2-4.9
				l6.5,1.6c0.3,0.1,0.5,0,0.7-0.2C548.9,575.4,549.1,575.2,549.2,575z"/>
			<path fill="#05273C" d="M556.3,575.4l-4.1-0.8c-0.3,0-0.4,0.1-0.6,0.2c-0.2,0.2-0.3,0.3-0.3,0.5l-2.4,13.3
				c-0.1,0.3,0,0.5,0.2,0.7c0.2,0.3,0.3,0.3,0.5,0.4c0.3,0.1,0.5,0,0.7-0.2s0.3-0.3,0.4-0.5l1-5.3l3,0.5h0.1c0.5,0.2,1,0.5,1.4,1
				c0.6,0.6,0.8,1.3,0.7,2c-0.4,2.3-0.1,3.4,1.1,3.7l0.4,0.1h0.1c0.5-0.1,0.8-0.5,0.8-1c-0.1-0.4-0.3-0.6-0.6-0.7
				c-0.1-0.2-0.1-0.6,0.1-1.4c0.2-1,0.1-1.8-0.3-2.4c-0.3-0.5-0.5-1-1-1.4c0.6-0.3,1.1-0.6,1.5-1.1c0.6-0.7,1-1.4,1.2-2.3
				c0.3-1.2,0-2.3-0.8-3.3C558.5,576.3,557.6,575.6,556.3,575.4z M558.3,580.4c-0.2,0.8-0.5,1.4-1.2,1.8c-0.6,0.5-1.3,0.6-2,0.5
				l-3.2-0.6l1-5.5l3.2,0.6c0.8,0.2,1.4,0.5,1.8,1.2C558.3,579,558.4,579.6,558.3,580.4z"/>
			<path fill="#05273C" d="M571.8,577.8l-7.4-1c-0.3,0-0.5,0-0.6,0.2c-0.2,0.2-0.3,0.4-0.3,0.6l-1.8,13.4c0,0.3,0,0.5,0.2,0.6
				c0.2,0.2,0.3,0.3,0.5,0.3l7.4,1c0.1,0,0.1,0,0.2,0c0.2,0,0.4-0.1,0.5-0.2c0.2-0.2,0.3-0.4,0.3-0.6s0-0.5-0.2-0.7
				c-0.2-0.2-0.3-0.3-0.6-0.3l-6.5-0.9l0.7-5l5.7,0.8c0.3,0,0.5,0,0.6-0.2c0.2-0.2,0.3-0.4,0.3-0.6s0-0.5-0.2-0.6
				c-0.2-0.3-0.4-0.3-0.6-0.4l-5.7-0.8l0.7-5l6.5,0.9c0.3,0,0.5,0,0.6-0.2c0.2-0.2,0.3-0.4,0.3-0.6c0-0.3,0-0.5-0.2-0.7
				C572.4,577.9,572.1,577.8,571.8,577.8z"/>
			<path fill="#05273C" d="M578.5,578.5l-2.7-0.3c-0.3,0-0.5,0.1-0.6,0.3c-0.2,0.2-0.3,0.4-0.3,0.6l-1.3,13.4c0,0.3,0.1,0.5,0.2,0.6
				c0.2,0.2,0.3,0.3,0.5,0.3l2.8,0.3c0.3,0,0.5,0.1,0.8,0.1c1.8,0,3.3-0.6,4.9-1.7c1.6-1.4,2.5-3.1,2.7-5.2c0.3-2.1-0.4-4-1.7-5.6
				C582.3,579.6,580.6,578.7,578.5,578.5z M583.6,586.7c-0.2,1.6-0.8,2.9-2.1,4c-1.3,1.1-2.7,1.5-4.3,1.4l-1.8-0.2l1.2-11.7l1.8,0.2
				c1.6,0.2,2.9,0.9,4,2.1C583.4,583.6,583.8,585.1,583.6,586.7z"/>
			<path fill="#05273C" d="M596.3,579.9l-7.4-0.5c-0.3,0-0.5,0.1-0.6,0.3c-0.2,0.2-0.3,0.4-0.3,0.6l-0.8,13.5l0,0
				c0,0.3,0.1,0.5,0.3,0.6c0.2,0.2,0.3,0.3,0.5,0.3l7.5,0.5h0.1c0.3,0,0.4-0.1,0.6-0.3c0.2-0.2,0.3-0.4,0.3-0.6
				c0-0.3-0.1-0.5-0.3-0.6c-0.2-0.2-0.4-0.3-0.6-0.3L589,593l0.3-5.1l5.7,0.4c0.3,0,0.5-0.1,0.6-0.3c0.2-0.2,0.3-0.4,0.3-0.6
				c0-0.3-0.1-0.5-0.3-0.6c-0.2-0.2-0.4-0.3-0.6-0.3l-5.7-0.4l0.3-5.1l6.6,0.4c0.3,0,0.5-0.1,0.6-0.3c0.2-0.2,0.3-0.4,0.3-0.6
				c0-0.3-0.1-0.5-0.3-0.6C596.8,580,596.6,579.9,596.3,579.9z"/>
			<path fill="#05273C" d="M607.9,593.6c-0.1-0.2-0.3-0.6-0.2-1.4c0-1-0.2-1.8-0.5-2.4c-0.3-0.5-0.7-0.9-1.2-1.2
				c0.5-0.3,1-0.8,1.4-1.3c0.5-0.8,0.8-1.5,0.8-2.4c0.1-1.3-0.4-2.3-1.2-3.2s-1.9-1.4-3.2-1.4l-4.2-0.2c-0.3,0-0.4,0.1-0.5,0.3
				c-0.2,0.2-0.3,0.4-0.3,0.6l-0.5,13.5c0,0.3,0.1,0.5,0.3,0.6c0.2,0.2,0.4,0.3,0.6,0.3c0.3,0,0.5-0.1,0.6-0.3
				c0.2-0.2,0.3-0.4,0.3-0.6l0.2-5.4l3.1,0.1h0.1c0.5,0.1,1.1,0.4,1.6,0.8c0.7,0.5,1,1.2,1,2c-0.1,2.3,0.5,3.4,1.6,3.4h0.1h0.3h0.1
				h0.1c0.5-0.2,0.7-0.5,0.6-1.2C608.5,593.8,608.3,593.7,607.9,593.6z M606.5,584.7c0,0.8-0.3,1.4-0.8,2c-0.5,0.5-1.2,0.8-2,0.8
				l0,0l-3.2-0.1l0.2-5.6l3.2,0.1c0.8,0,1.4,0.3,2,0.9C606.3,583.3,606.5,584,606.5,584.7z"/>
			<path fill="#05273C" d="M612.1,580.4c-0.3,0-0.5,0.1-0.6,0.3c-0.2,0.2-0.3,0.4-0.3,0.6l-0.2,13.5c0,0.3,0.1,0.5,0.3,0.6
				c0.2,0.2,0.4,0.3,0.6,0.3l0,0c0.3,0,0.5-0.1,0.6-0.3c0.2-0.2,0.3-0.4,0.3-0.6l0.2-13.5c0-0.3-0.1-0.5-0.3-0.6
				C612.6,580.5,612.4,580.4,612.1,580.4z"/>
			<path fill="#05273C" d="M628.6,592.1c-0.3,0-0.5,0-0.7,0.3c-1,0.9-2.3,1.4-3.9,1.5c-1.6,0.1-3-0.5-4.3-1.6
				c-1.3-1.2-1.9-2.4-2-4.1c-0.1-1.7,0.5-3.1,1.6-4.3c1.2-1.2,2.6-1.9,4.3-2c1.4-0.1,2.7,0.4,3.9,1.2c0.2,0.2,0.4,0.3,0.6,0.2
				c0.3,0,0.5-0.2,0.5-0.3c0.2-0.2,0.3-0.5,0.3-0.7c-0.1-0.3-0.2-0.5-0.4-0.6c-1.5-1.1-3.2-1.6-5-1.5c-2.2,0.1-4.1,0.9-5.5,2.4
				c-1.5,1.6-2.2,3.4-2.1,5.6c0.1,2.1,0.9,3.9,2.5,5.4c1.5,1.4,3.2,2,5.3,2c0.1,0,0.3,0,0.3,0c1.8-0.1,3.4-0.7,4.9-1.8
				c0.2-0.2,0.3-0.4,0.3-0.6s-0.1-0.5-0.3-0.6C629.1,592.2,628.8,592.2,628.6,592.1z"/>
			<path fill="#05273C" d="M640.3,578.6l-9.7,1.3c-0.3,0-0.5,0.2-0.6,0.3s-0.3,0.4-0.2,0.6c0,0.3,0.2,0.5,0.3,0.6
				c0.2,0.2,0.4,0.3,0.7,0.2l4-0.5l1.6,12.5c0,0.3,0.2,0.5,0.3,0.6c0.2,0.2,0.3,0.2,0.5,0.2c0.1,0,0.1,0,0.2,0
				c0.3,0,0.5-0.2,0.6-0.3c0.2-0.2,0.3-0.4,0.2-0.6l-1.6-12.5l4-0.5c0.3,0,0.5-0.2,0.6-0.4c0.2-0.3,0.3-0.4,0.2-0.6
				c0-0.3-0.2-0.5-0.3-0.6C640.7,578.6,640.5,578.6,640.3,578.6z"/>
			<path fill="#05273C" d="M654.2,577.8c-1.7-1.2-3.6-1.5-5.6-1.1c-2,0.5-3.5,1.6-4.6,3.2c-1.1,1.8-1.4,3.8-0.9,5.8l0,0
				c0.5,2.1,1.6,3.8,3.2,4.9c1.3,0.8,2.5,1.3,4,1.3c0.5,0,1.1-0.1,1.6-0.2c2-0.5,3.5-1.6,4.6-3.2c1.1-1.7,1.4-3.7,0.9-5.8
				C657,580.6,655.8,579,654.2,577.8z M655,587.6c-0.8,1.4-2,2.3-3.4,2.5c-1.5,0.3-2.9,0.1-4.2-0.8c-1.4-0.9-2.2-2.2-2.5-3.8
				s-0.2-3.2,0.7-4.5c0.8-1.4,2-2.2,3.4-2.5l0,0c0.5-0.1,0.8-0.2,1.2-0.2c1.1,0,2,0.3,3,1c1.3,0.9,2.2,2.2,2.5,3.8
				C656.1,584.6,655.8,586.2,655,587.6z"/>
			<path fill="#05273C" d="M672.5,585.4l-3.9-12.9c-0.1-0.3-0.3-0.4-0.5-0.5c-0.3-0.1-0.5-0.2-0.7-0.1s-0.4,0.3-0.5,0.5
				c-0.1,0.3-0.2,0.5-0.1,0.7l3.2,10.2l-11.1-8.4c-0.2-0.2-0.4-0.3-0.7-0.2c-0.3,0-0.5,0.2-0.6,0.4c-0.3,0.3-0.3,0.6,0,0.9l3.9,12.7
				c0.1,0.3,0.3,0.4,0.5,0.5c0.2,0.1,0.3,0.1,0.4,0.1c0.1,0,0.2,0,0.3-0.1c0.3-0.1,0.4-0.3,0.5-0.5c0.1-0.3,0.2-0.5,0.1-0.7
				l-3.2-10.3l10.9,8.4l0.2,0.1c0.3,0.2,0.5,0.3,0.8,0.2c0.3-0.1,0.5-0.3,0.5-0.5C672.5,585.8,672.5,585.5,672.5,585.4z"/>
		</g>
		<g>
			<path fill="#42669A" d="M689.6,577c-0.4-0.2-0.8-0.2-1.2,0l-3.2,1.3l1.9-3.9c0.7-1.4,0.8-2.8,0.3-4.2c-0.5-1.4-1.4-2.3-2.7-2.9
				c-1.4-0.7-2.8-0.8-4.2-0.3c-1.4,0.5-2.3,1.4-2.9,2.7l-0.4,0.8c-0.2,0.4-0.3,0.8-0.1,1.2c0.2,0.4,0.4,0.7,0.8,0.8
				c0.4,0.2,0.8,0.3,1.2,0.1c0.4-0.2,0.7-0.4,0.8-0.8l0.4-0.8c0.3-0.5,0.7-0.9,1.4-1.2c0.6-0.3,1.2-0.3,1.7,0.1
				c0.6,0.3,1,0.8,1.2,1.4c0.3,0.6,0.3,1.2-0.1,1.8l-3.6,7.4c-0.2,0.4-0.3,0.8-0.1,1.2c0.2,0.4,0.4,0.7,0.8,0.8
				c0.3,0.1,0.4,0.2,0.6,0.2s0.4-0.1,0.6-0.2l6.9-2.8c0.4-0.2,0.7-0.5,0.8-0.8c0.2-0.4,0.2-0.8,0-1.2
				C690.2,577.4,690,577.1,689.6,577z"/>
			<path fill="#42669A" d="M696.3,562.6c-0.8-0.5-1.6-0.8-2.4-0.8c-0.8-0.1-1.6,0-2.4,0.4c-1.5,0.8-2.4,2-2.7,4
				c-0.3,1.6,0,3.4,0.8,5.3l0,0c0.9,1.8,2.1,3.2,3.5,4.1c1,0.6,2,0.9,2.9,0.9c0.7,0,1.3-0.2,1.9-0.5c0.8-0.4,1.4-0.9,1.8-1.6
				s0.8-1.5,0.9-2.4c0.3-1.7,0-3.4-0.9-5.2C699,564.9,697.8,563.5,696.3,562.6z M697.7,571.5c-0.2,0.9-0.5,1.5-1,1.7
				c-0.5,0.3-1.2,0.2-2-0.3c-1-0.6-1.7-1.5-2.3-2.7c-0.6-1.2-0.8-2.4-0.7-3.5c0.2-0.9,0.5-1.5,1.1-1.7c0.2-0.1,0.4-0.2,0.6-0.2
				c0.4,0,0.8,0.2,1.4,0.5c1,0.6,1.7,1.6,2.3,2.8C697.6,569.2,697.8,570.4,697.7,571.5z"/>
			<path fill="#42669A" d="M704,557.4L704,557.4c-0.2-0.1-0.2-0.1-0.3-0.2l0,0c-0.1-0.2-0.3-0.3-0.7-0.4l-0.3-0.2h-0.3
				c-0.1,0-0.2,0-0.2,0h-0.1l-0.3,0.2c-0.1,0.1-0.3,0.2-0.3,0.3l-1.8,2.8c-0.3,0.4-0.3,0.8-0.3,1.2c0.1,0.4,0.4,0.8,0.7,0.9
				c0.5,0.3,1,0.3,1.5,0.1c0.3-0.2,0.5-0.3,0.6-0.5l0.2-0.3l4.4,8.5c0.3,0.4,0.5,0.6,0.9,0.8c0.2,0.1,0.3,0.1,0.5,0.1
				c0.3,0,0.5-0.1,0.7-0.2c0.4-0.3,0.6-0.5,0.8-0.9c0.2-0.4,0.1-0.8-0.1-1.2L704,557.4z"/>
			<path fill="#42669A" d="M718.4,559.1c-0.5-0.8-1.1-1.4-1.8-1.9c-0.7-0.4-1.4-0.6-2.1-0.8c0-0.7-0.2-1.4-0.6-2.1
				c-0.5-0.8-1.2-1.4-2.3-1.6c-1-0.3-2-0.2-2.8,0.4c-0.9,0.5-1.5,1.3-1.7,2.3c-0.3,1-0.2,2,0.3,2.8c0.4,0.7,0.9,1.2,1.5,1.5
				c-0.3,0.7-0.5,1.4-0.4,2.2c0,0.9,0.3,1.7,0.8,2.4c0.8,1.3,1.8,2.1,3.2,2.4c0.5,0.2,1,0.2,1.4,0.2c0.9,0,1.8-0.3,2.6-0.8
				c1.3-0.8,2.1-1.8,2.4-3.2C719.3,561.7,719,560.4,718.4,559.1z M711.3,556.7c-0.1,0.3-0.2,0.4-0.4,0.5c-0.3,0.1-0.4,0.2-0.6,0.1
				c-0.3-0.1-0.4-0.2-0.5-0.4c-0.1-0.3-0.2-0.4-0.1-0.6c0.1-0.3,0.2-0.4,0.4-0.5c0.2-0.1,0.3-0.1,0.4-0.1c0.1,0,0.2,0,0.3,0
				c0.3,0.1,0.4,0.2,0.5,0.4C711.4,556.2,711.4,556.5,711.3,556.7z M715.8,560.7c0.3,0.5,0.4,1.2,0.3,1.7c-0.2,0.6-0.5,1.2-1.1,1.4
				s-1.2,0.4-1.8,0.3c-0.6-0.2-1.2-0.5-1.4-1.1c-0.3-0.6-0.4-1.2-0.3-1.8c0.2-0.6,0.5-1.2,1.1-1.4c0.4-0.3,0.8-0.3,1.2-0.3
				c0.3,0,0.5,0,0.7,0.1C715,559.8,715.4,560.1,715.8,560.7z"/>
		</g>
	</g>
</g>
<g>
	<g>
		<path fill="#485E29" d="M375.1,523.9c0-16.3-2.1-30-2.1-30s-36.5-2.3-56.2-3.2c0,0-38.1,2.2-56.3,3.2c0,0-2.1,13.7-2.1,30
			c0,0-4.1,68.7,58.3,105.3C379.2,592.6,375.1,523.9,375.1,523.9z"/>
	</g>
	<g>
		<path fill="#FFFFFF" d="M316.7,626l-0.4-0.2c-13.6-8-25-18.2-33.8-30.5c-7.1-9.8-12.6-20.9-16.4-33c-6.3-20.3-5.6-36.5-5.5-37.3
			c0-15.4,2-28.5,2-28.6l0.1-0.5h0.5c17.3-1,53.5-3.1,53.5-3.1l0,0l0,0c18.6,0.8,53.1,3.1,53.5,3.1h0.5l0.1,0.5c0,0.1,2,13.3,2,28.6
			c0,0.7,0.8,17-5.5,37.3c-3.8,12.1-9.3,23.2-16.4,33c-8.9,12.3-20.3,22.5-33.8,30.5L316.7,626z M263.9,497.2
			c-0.4,2.5-1.9,14.3-1.9,28l0,0c0,0.2-0.8,16.5,5.5,36.9c3.7,11.9,9.2,22.9,16.2,32.6c8.7,12,19.8,22.1,33.2,29.9
			c13.3-7.8,24.4-17.9,33.2-29.9c7-9.7,12.4-20.7,16.2-32.6c6.4-20.3,5.5-36.7,5.5-36.9l0,0c0-13.6-1.5-25.4-1.9-28
			c-4.4-0.3-35.6-2.3-52.9-3.1C315.6,494.3,281,496.3,263.9,497.2z"/>
	</g>
	<g>
		<path fill="#FFFFFF" d="M316.7,615.1l-0.3-0.2c-11.5-6.8-21.2-15.5-28.8-26c-6-8.3-10.7-17.8-13.9-28.1c-5.4-17.1-4.8-31-4.8-31.7
			c0-13.1,1.6-24.2,1.6-24.4l0.1-0.5h0.5c14.7-0.8,45.5-2.6,45.5-2.6l0,0l0,0c15.8,0.7,45.2,2.6,45.5,2.6h0.5l0.1,0.5
			c0,0.1,1.6,11.3,1.6,24.4c0,0.6,0.6,14.4-4.7,31.7c-3.2,10.3-7.8,19.7-13.9,28.1c-7.6,10.5-17.2,19.1-28.8,26L316.7,615.1z
			 M271.8,505.6c-0.4,2.3-1.6,12.2-1.6,23.7l0,0c0,0.1-0.7,14,4.7,31.3c3.2,10.1,7.8,19.5,13.8,27.7c7.4,10.2,16.9,18.8,28.1,25.4
			c11.3-6.7,20.7-15.2,28.1-25.4c6-8.2,10.6-17.5,13.8-27.7c5.4-17.3,4.7-31.2,4.7-31.3l0,0c0-11.5-1.3-21.5-1.6-23.7
			c-3.9-0.3-30.3-1.9-44.9-2.6C315.7,503.1,286.4,504.8,271.8,505.6z"/>
	</g>
	<g>
		<path fill="#FFFFFF" d="M293.9,517.5c-0.2-0.4-0.5-0.6-0.8-0.9s-0.7-0.5-1.1-0.6c-0.4-0.2-0.8-0.2-1.3-0.2c-0.8,0-1.5,0.2-2.1,0.5
			c-0.5,0.4-1.1,0.7-1.4,1.3c-0.4,0.5-0.6,1.2-0.8,1.8c-0.2,0.7-0.3,1.4-0.3,2.1s0.1,1.4,0.3,2c0.2,0.6,0.4,1.2,0.8,1.7
			s0.8,0.9,1.4,1.3c0.5,0.4,1.3,0.5,2.1,0.5c1.2,0,2-0.4,2.6-1s1-1.5,1.2-2.6h3.5c-0.1,1-0.4,2-0.7,2.8c-0.4,0.8-0.9,1.5-1.5,2.1
			c-0.6,0.5-1.4,1-2.3,1.4c-0.8,0.4-1.8,0.5-2.8,0.5c-1.3,0-2.4-0.2-3.4-0.6s-1.9-1-2.5-1.8c-0.7-0.8-1.2-1.6-1.6-2.7
			c-0.4-1-0.5-2.2-0.5-3.3s0.2-2.3,0.5-3.4c0.4-1.1,0.9-2,1.6-2.7c0.7-0.8,1.5-1.4,2.5-1.8s2.2-0.6,3.4-0.6c0.9,0,1.8,0.1,2.6,0.4
			c0.8,0.3,1.5,0.6,2.2,1.2c0.6,0.5,1.2,1.1,1.6,1.8c0.4,0.7,0.7,1.6,0.8,2.5h-3.7C294.3,518.3,294.1,517.9,293.9,517.5z"/>
		<path fill="#FFFFFF" d="M305.5,525.5c0.2,0.4,0.5,0.7,0.8,0.9c0.4,0.3,0.7,0.4,1.2,0.5c0.5,0.1,0.9,0.2,1.4,0.2
			c0.4,0,0.7,0,1.1-0.1c0.4,0,0.7-0.2,1.1-0.4c0.4-0.2,0.6-0.4,0.8-0.6c0.2-0.3,0.4-0.6,0.4-1c0-0.5-0.2-0.8-0.5-1.1
			c-0.3-0.3-0.6-0.5-1.2-0.7c-0.5-0.3-1-0.4-1.6-0.5s-1.2-0.3-1.8-0.5s-1.2-0.4-1.8-0.5s-1.2-0.5-1.6-0.8s-0.8-0.8-1.2-1.3
			c-0.3-0.5-0.5-1.2-0.5-1.9c0-0.8,0.2-1.6,0.5-2.2c0.4-0.6,0.8-1.2,1.4-1.5c0.6-0.4,1.3-0.7,2-0.9c0.7-0.2,1.5-0.3,2.3-0.3
			c0.8,0,1.7,0.1,2.5,0.3c0.8,0.2,1.5,0.5,2.2,0.9c0.6,0.5,1.1,1,1.4,1.6c0.4,0.6,0.5,1.4,0.5,2.4h-3.5c0-0.5-0.1-0.9-0.4-1.2
			c-0.2-0.4-0.4-0.5-0.7-0.8c-0.3-0.2-0.6-0.4-1-0.4c-0.4-0.1-0.8-0.1-1.3-0.1c-0.3,0-0.6,0-0.9,0.1c-0.3,0.1-0.5,0.2-0.8,0.4
			c-0.3,0.2-0.5,0.4-0.6,0.5c-0.2,0.3-0.3,0.5-0.3,0.8s0.1,0.5,0.2,0.8s0.4,0.4,0.7,0.5c0.4,0.2,0.8,0.4,1.5,0.5
			c0.6,0.2,1.5,0.4,2.5,0.6c0.4,0.1,0.7,0.2,1.3,0.4c0.5,0.2,1.1,0.4,1.6,0.8c0.5,0.4,1,0.8,1.4,1.4c0.4,0.5,0.6,1.4,0.6,2.3
			c0,0.7-0.2,1.4-0.5,2.1c-0.3,0.6-0.7,1.2-1.3,1.6c-0.5,0.5-1.3,0.8-2.2,1.1c-0.8,0.3-1.9,0.4-3,0.4c-0.9,0-1.8-0.1-2.7-0.4
			c-0.8-0.2-1.6-0.5-2.3-1.1c-0.6-0.5-1.2-1.1-1.6-1.8c-0.5-0.7-0.5-1.6-0.5-2.6h3.7C305.2,524.7,305.3,525.1,305.5,525.5z"/>
		<path fill="#FFFFFF" d="M330.6,517.5c-0.2-0.4-0.5-0.6-0.8-0.9s-0.7-0.5-1.1-0.6c-0.4-0.2-0.8-0.2-1.3-0.2c-0.8,0-1.5,0.2-2.1,0.5
			c-0.5,0.4-1.1,0.7-1.4,1.3c-0.4,0.5-0.6,1.2-0.8,1.8c-0.2,0.7-0.3,1.4-0.3,2.1s0.1,1.4,0.3,2c0.2,0.6,0.4,1.2,0.8,1.7
			s0.8,0.9,1.4,1.3c0.5,0.4,1.3,0.5,2.1,0.5c1.2,0,2-0.4,2.6-1s1-1.5,1.2-2.6h3.5c-0.1,1-0.4,2-0.7,2.8s-0.9,1.5-1.5,2.1
			c-0.6,0.5-1.4,1-2.3,1.4c-0.8,0.4-1.8,0.5-2.8,0.5c-1.3,0-2.4-0.2-3.4-0.6c-1-0.5-1.9-1-2.5-1.8c-0.7-0.8-1.2-1.6-1.6-2.7
			c-0.4-1-0.5-2.2-0.5-3.3s0.2-2.3,0.5-3.4c0.4-1.1,0.9-2,1.6-2.7c0.7-0.8,1.5-1.4,2.5-1.8s2.2-0.6,3.4-0.6c0.9,0,1.8,0.1,2.6,0.4
			c0.8,0.3,1.5,0.6,2.2,1.2c0.6,0.5,1.2,1.1,1.6,1.8c0.4,0.7,0.7,1.6,0.8,2.5h-3.5C331,518.3,330.9,517.9,330.6,517.5z"/>
		<path fill="#FFFFFF" d="M351.8,513.2v3H343v3.5h8.1v2.8H343v4.1h8.9v3h-12.5v-16.3L351.8,513.2L351.8,513.2z"/>
	</g>
	<g>
		<path fill="#FFFFFF" d="M312.1,539c-0.2-0.4-0.5-0.6-0.8-0.9s-0.7-0.5-1.1-0.6c-0.4-0.2-0.8-0.2-1.3-0.2c-0.8,0-1.5,0.2-2.1,0.5
			c-0.5,0.4-1.1,0.7-1.4,1.3c-0.4,0.5-0.6,1.2-0.8,1.8c-0.2,0.7-0.3,1.4-0.3,2.1s0.1,1.4,0.3,2c0.2,0.6,0.4,1.2,0.8,1.7
			c0.4,0.5,0.8,0.9,1.4,1.3c0.5,0.4,1.3,0.5,2.1,0.5c1.2,0,2-0.4,2.6-1c0.6-0.6,1-1.5,1.2-2.6h3.5c-0.1,1-0.4,2-0.7,2.8
			c-0.4,0.8-0.9,1.5-1.5,2.1c-0.6,0.5-1.4,1-2.3,1.4c-0.8,0.4-1.8,0.5-2.8,0.5c-1.3,0-2.4-0.2-3.4-0.6s-1.9-1-2.5-1.8
			c-0.7-0.8-1.2-1.6-1.6-2.7c-0.4-1-0.5-2.2-0.5-3.3s0.2-2.3,0.5-3.4c0.4-1.1,0.9-2,1.6-2.7c0.7-0.8,1.5-1.4,2.5-1.8
			s2.2-0.6,3.4-0.6c0.9,0,1.8,0.1,2.6,0.4c0.8,0.3,1.5,0.6,2.2,1.2c0.6,0.5,1.2,1.1,1.6,1.8c0.4,0.7,0.7,1.6,0.8,2.5h-3.5
			C312.5,539.7,312.3,539.4,312.1,539z"/>
		<path fill="#FFFFFF" d="M311.3,573c-0.8,0.4-1.6,0.5-2.4,0.5c-1.3,0-2.4-0.2-3.4-0.6s-1.9-1-2.5-1.8c-0.7-0.8-1.2-1.6-1.6-2.7
			c-0.4-1-0.5-2.2-0.5-3.3s0.2-2.3,0.5-3.4s0.9-2,1.6-2.7c0.7-0.8,1.5-1.4,2.5-1.8s2.2-0.6,3.4-0.6c0.8,0,1.6,0.1,2.4,0.4
			s1.5,0.6,2.2,1.1c0.6,0.5,1.2,1.1,1.6,1.8c0.4,0.7,0.7,1.5,0.8,2.4h-3.5c-0.2-0.9-0.6-1.6-1.3-2.1c-0.6-0.5-1.4-0.7-2.3-0.7
			c-0.8,0-1.5,0.2-2.1,0.5c-0.5,0.4-1.1,0.7-1.4,1.3c-0.4,0.5-0.6,1.2-0.8,1.8c-0.2,0.7-0.3,1.4-0.3,2.1s0.1,1.4,0.3,2
			c0.2,0.6,0.4,1.2,0.8,1.7c0.4,0.5,0.8,0.9,1.4,1.3s1.3,0.5,2.1,0.5c1.2,0,2.2-0.3,2.8-0.9c0.6-0.6,1.1-1.4,1.2-2.6h-3.7v-2.7h6.9
			v8.8h-2.3l-0.4-1.9C312.9,572.1,312.1,572.7,311.3,573z"/>
		<path fill="#FFFFFF" d="M312.1,583.4c-0.2-0.4-0.5-0.6-0.8-0.9s-0.7-0.5-1.1-0.6c-0.4-0.2-0.8-0.2-1.3-0.2c-0.8,0-1.5,0.2-2.1,0.5
			c-0.5,0.3-1.1,0.7-1.4,1.3c-0.4,0.5-0.6,1.2-0.8,1.8c-0.2,0.7-0.3,1.4-0.3,2.1s0.1,1.4,0.3,2c0.2,0.6,0.4,1.2,0.8,1.7
			c0.4,0.5,0.8,0.9,1.4,1.3c0.5,0.4,1.3,0.5,2.1,0.5c1.2,0,2-0.4,2.6-1c0.6-0.7,1-1.5,1.2-2.6h3.5c-0.1,1-0.4,2-0.7,2.8
			c-0.4,0.8-0.9,1.5-1.5,2.1c-0.6,0.5-1.4,1-2.3,1.4c-0.8,0.4-1.8,0.5-2.8,0.5c-1.3,0-2.4-0.2-3.4-0.6s-1.9-1-2.5-1.8
			c-0.7-0.8-1.2-1.6-1.6-2.7c-0.4-1-0.5-2.2-0.5-3.3s0.2-2.3,0.5-3.4c0.4-1.1,0.9-2,1.6-2.7c0.7-0.8,1.5-1.4,2.5-1.8
			s2.2-0.6,3.4-0.6c0.9,0,1.8,0.1,2.6,0.4s1.5,0.6,2.2,1.2c0.6,0.5,1.2,1.1,1.6,1.8c0.4,0.7,0.7,1.6,0.8,2.5h-3.5
			C312.5,584.1,312.3,583.7,312.1,583.4z"/>
	</g>
	<g>
		<path fill="#EE334E" d="M336.8,546l-1.8,5.1l-4-1.6l1.9,10.5l-5.4-5.1v3l-4.3-1.2l1.2,3.2c0,0,0.4,0.6-0.4,1.1l-2,0.5l7.4,5.4
			l-0.9,2.3l8.6-1.1v7.9h0.8v-7.9l7.1,1l-1-1.9l7.7-5.8l-1.9-0.5c0,0-0.5-0.2-0.4-1.1l1.1-3.2l-4.2,1v-3l-5.3,5.1l1.8-10.5l-4,1.5
			L336.8,546z"/>
		<path fill="#FFFFFF" d="M338,576.3h-1.4v-7.9l-8.7,1.1l1-2.4l-7.7-5.6l2.4-0.5c0.2-0.1,0.3-0.2,0.4-0.4c0-0.2,0-0.4,0-0.4l0,0
			l-1.3-3.7l4.4,1.3v-3.2l5.3,5l-1.8-10.2l4.1,1.6l1.9-5.5l2,5.5l4.1-1.6l-1.7,10.1l5.2-5.1l0.1,3.2l4.3-1l-1.2,3.6
			c-0.1,0.5,0.2,0.8,0.3,0.8l2.3,0.5l-7.8,6l1.1,2.1l-7.3-1L338,576.3L338,576.3z M337.2,575.8h0.4v-8l6.9,1l-0.8-1.6l7.4-5.6
			l-1.4-0.4c-0.3-0.1-0.7-0.5-0.5-1.4l0,0l1-2.8l-4.1,0.9v-2.7l-5.5,5.2l1.8-10.7l-3.8,1.5l-1.6-4.7l-1.6,4.8l-3.8-1.5l1.9,10.7
			l-5.6-5.2v2.8l-4.1-1.2l1,2.8c0,0.1,0.2,0.4,0,0.7c-0.1,0.3-0.3,0.5-0.5,0.6l0,0l-1.4,0.4l7.2,5.2l-0.8,2.1l8.5-1L337.2,575.8
			L337.2,575.8z"/>
	</g>
	<g>
		<path fill="#FFFFFF" d="M330.1,585.2v-3.8h-1.5v-0.9c0.2,0,0.4,0,0.6,0c0.2,0,0.4-0.1,0.5-0.2s0.3-0.2,0.4-0.4
			c0.1-0.2,0.2-0.4,0.2-0.5h1v5.9L330.1,585.2L330.1,585.2z"/>
		<path fill="#FFFFFF" d="M333.2,580.1c0.1-0.2,0.3-0.4,0.5-0.5s0.4-0.3,0.6-0.3c0.3-0.1,0.5-0.1,0.7-0.1c0.4,0,0.7,0,0.9,0.2
			c0.3,0.1,0.5,0.3,0.6,0.4c0.2,0.2,0.3,0.4,0.4,0.5c0.1,0.2,0.1,0.4,0.1,0.5c0,0.3-0.1,0.5-0.2,0.8c-0.2,0.2-0.4,0.4-0.6,0.5l0,0
			c0.4,0.1,0.6,0.3,0.8,0.5c0.2,0.3,0.3,0.5,0.3,0.9s-0.1,0.5-0.2,0.8c-0.1,0.3-0.3,0.4-0.5,0.5c-0.2,0.2-0.5,0.3-0.7,0.4
			c-0.3,0.1-0.5,0.1-0.8,0.1c-0.3,0-0.5,0-0.8-0.1c-0.3-0.1-0.5-0.2-0.7-0.4c-0.2-0.2-0.4-0.4-0.5-0.5c-0.1-0.3-0.2-0.5-0.2-0.8
			s0.1-0.7,0.3-0.9c0.2-0.3,0.5-0.4,0.8-0.5l0,0c-0.3-0.1-0.5-0.3-0.6-0.5c-0.2-0.2-0.2-0.5-0.2-0.8
			C333.1,580.6,333.2,580.3,333.2,580.1z M334.1,583.8c0,0.1,0.1,0.3,0.3,0.4c0.1,0.1,0.2,0.2,0.4,0.2c0.1,0,0.3,0.1,0.4,0.1
			c0.2,0,0.3,0,0.4-0.1c0.1,0,0.3-0.1,0.4-0.2c0.1-0.1,0.2-0.2,0.2-0.4c0-0.2,0.1-0.3,0.1-0.4c0-0.1,0-0.3-0.1-0.4
			c0-0.1-0.1-0.2-0.2-0.3c-0.1-0.1-0.2-0.2-0.4-0.2c-0.1,0-0.3-0.1-0.4-0.1c-0.3,0-0.5,0.1-0.7,0.3c-0.2,0.2-0.4,0.4-0.4,0.7
			C334.1,583.6,334.1,583.7,334.1,583.8z M334.4,581.5c0.2,0.1,0.4,0.2,0.6,0.2c0.3,0,0.5-0.1,0.6-0.2s0.3-0.4,0.3-0.5
			c0-0.1,0-0.2,0-0.3c0-0.1-0.1-0.2-0.1-0.3c-0.1-0.1-0.2-0.2-0.3-0.2c-0.1,0-0.3-0.1-0.5-0.1c-0.1,0-0.3,0-0.4,0
			c-0.1,0-0.2,0.1-0.3,0.2s-0.2,0.2-0.2,0.3s-0.1,0.2-0.1,0.4C334.1,581.1,334.2,581.4,334.4,581.5z"/>
		<path fill="#FFFFFF" d="M338,580.1c0.1-0.2,0.3-0.4,0.5-0.5s0.4-0.3,0.6-0.3c0.3-0.1,0.5-0.1,0.7-0.1c0.4,0,0.7,0,0.9,0.2
			s0.5,0.3,0.6,0.4c0.2,0.2,0.3,0.4,0.4,0.5c0.1,0.2,0.1,0.4,0.1,0.5c0,0.3-0.1,0.5-0.2,0.8c-0.2,0.2-0.4,0.4-0.6,0.5l0,0
			c0.4,0.1,0.6,0.3,0.8,0.5c0.2,0.3,0.3,0.5,0.3,0.9s-0.1,0.5-0.2,0.8c-0.1,0.3-0.3,0.4-0.5,0.5c-0.2,0.2-0.5,0.3-0.7,0.4
			c-0.3,0.1-0.5,0.1-0.8,0.1s-0.5,0-0.8-0.1c-0.3-0.1-0.5-0.2-0.7-0.4c-0.2-0.2-0.4-0.4-0.5-0.5c-0.1-0.3-0.2-0.5-0.2-0.8
			s0.1-0.7,0.3-0.9c0.2-0.3,0.5-0.4,0.8-0.5l0,0c-0.3-0.1-0.5-0.3-0.6-0.5c-0.2-0.2-0.2-0.5-0.2-0.8
			C337.8,580.6,337.9,580.3,338,580.1z M338.9,583.8c0,0.1,0.1,0.3,0.3,0.4c0.1,0.1,0.2,0.2,0.4,0.2c0.1,0,0.3,0.1,0.4,0.1
			c0.2,0,0.3,0,0.4-0.1c0.1,0,0.3-0.1,0.4-0.2c0.1-0.1,0.2-0.2,0.2-0.4c0-0.2,0.1-0.3,0.1-0.4c0-0.1,0-0.3-0.1-0.4
			c0-0.1-0.1-0.2-0.2-0.3c-0.1-0.1-0.2-0.2-0.4-0.2c-0.1,0-0.3-0.1-0.4-0.1c-0.3,0-0.5,0.1-0.7,0.3c-0.2,0.2-0.4,0.4-0.4,0.7
			C338.8,583.6,338.8,583.7,338.9,583.8z M339.2,581.5c0.2,0.1,0.4,0.2,0.6,0.2c0.3,0,0.5-0.1,0.6-0.2s0.3-0.4,0.3-0.5
			c0-0.1,0-0.2,0-0.3c0-0.1-0.1-0.2-0.1-0.3c-0.1-0.1-0.2-0.2-0.3-0.2c-0.1,0-0.3-0.1-0.5-0.1c-0.1,0-0.3,0-0.4,0
			c-0.1,0-0.2,0.1-0.3,0.2s-0.2,0.2-0.2,0.3s-0.1,0.2-0.1,0.4S339,581.4,339.2,581.5z"/>
		<path fill="#FFFFFF" d="M345.9,581.3c-0.3,0.4-0.5,0.8-0.6,1.3s-0.3,0.9-0.4,1.4c-0.1,0.5-0.1,0.8-0.1,1.3h-1.3
			c0.1-0.8,0.3-1.7,0.6-2.5c0.4-0.8,0.8-1.5,1.4-2.3h-2.8v-1.1h4.1v1C346.3,580.7,346.1,580.9,345.9,581.3z"/>
	</g>
</g>
</svg>
