<?xml version="1.0" encoding="utf-8"?>
<!-- Generator: Adobe Illustrator 18.0.0, SVG Export Plug-In . SVG Version: 6.00 Build 0)  -->
<!DOCTYPE svg PUBLIC "-//W3C//DTD SVG 1.1//EN" "http://www.w3.org/Graphics/SVG/1.1/DTD/svg11.dtd">
<svg version="1.1" id="Layer_1" xmlns="http://www.w3.org/2000/svg" xmlns:xlink="http://www.w3.org/1999/xlink" x="0px" y="0px"
	 viewBox="-342.8 47.8 1134.9 538.8" enable-background="new -342.8 47.8 1134.9 538.8" xml:space="preserve">
<g>
	<g>
		<g>
			<path fill="#42669A" d="M67.6,517.4c0,5.2-4.6,8.7-12.8,8.7c-1.9,0-4.3-0.2-5.7-0.6c-2.6-0.7-2.6-2.4-2.6-4.1v-21.3
				c0-1.7,0-3.3,2.6-4.1c1.3-0.4,3.9-0.6,5.7-0.6c7.8,0,11.9,3.1,11.9,8.1c0,3.3-2,5.7-5.7,6.7C65.4,510.9,67.6,513.7,67.6,517.4z
				 M52.2,500.7v7.2H55c1.1,0,2-0.2,2.8-0.4c1.7-0.6,2.4-1.7,2.4-3.3c0-2.2-1.7-3.7-5.6-3.7C53.9,500.5,53.2,500.5,52.2,500.7z
				 M61.1,516.6c0-1.9-0.9-3.1-3-3.7c-0.9-0.2-2-0.4-3.3-0.4H52v8c0.9,0.2,1.9,0.2,2.8,0.2C59.5,520.7,61.1,519.2,61.1,516.6z"/>
			<path fill="#42669A" d="M90.8,517.4c0.4-0.9,0.6-2,0.6-3.3v-16.1c0-1.7,0.9-2.6,3-2.6s3,0.9,3,2.6v16.3c0,2.4-0.4,4.3-1.1,6.1
				c-1.9,4.4-5.9,6.1-10.9,6.1c-5.4,0-9.1-1.9-10.9-6.1c-0.7-1.7-1.1-3.7-1.1-5.9v-16.5c0-1.7,0.9-2.6,3.1-2.6s3.1,0.9,3.1,2.6v16.3
				c0,1.3,0.2,2.4,0.6,3.3c0.9,2.2,2.8,3.3,5.4,3.3C88.3,520.7,89.8,519.6,90.8,517.4z"/>
			<path fill="#42669A" d="M110.6,523.5c0,1.7-0.9,2.6-3.1,2.6s-3.1-0.9-3.1-2.6v-25.6c0-1.7,0.9-2.6,3.1-2.6s3.1,0.9,3.1,2.6V523.5
				z"/>
			<path fill="#42669A" d="M133,520.2c1.7,0,2.4,0.9,2.4,2.8c0,1.9-0.7,2.8-2.4,2.8h-12.4c-2.2,0-3.1-0.9-3.1-3.1v-24.6
				c0-1.7,0.9-2.6,3.1-2.6c2.2,0,3.1,0.9,3.1,2.6v22.2H133z"/>
			<path fill="#42669A" d="M148.7,526.1c-1.9,0-4.1-0.2-5.7-0.6c-2.6-0.7-2.6-2.4-2.6-4.1v-21.3c0-1.7,0-3.3,2.6-4.1
				c1.3-0.4,3.9-0.6,5.9-0.6c10.6,0,16.5,5.7,16.5,15.4C165.4,520.3,159.3,526.1,148.7,526.1z M149.1,520.5c6.5,0,9.8-3.7,9.8-9.8
				c0-6.3-3.5-10-9.8-10c-0.7,0-1.7,0-2.4,0.2v19.4C147.6,520.5,148.4,520.5,149.1,520.5z"/>
			<path fill="#42669A" d="M177.4,523.5c0,1.7-0.9,2.6-3.1,2.6c-2.2,0-3.1-0.9-3.1-2.6v-25.6c0-1.7,0.9-2.6,3.1-2.6
				c2.2,0,3.1,0.9,3.1,2.6V523.5z"/>
			<path fill="#42669A" d="M190.2,523.5c0,1.7-0.9,2.6-3,2.6s-3-0.9-3-2.6v-24.6c0-2.4,1.3-3.3,4.1-3.3c2.8,0,4.1,1.1,5,2.8
				l11.1,19.3v-19.6c0-1.7,0.9-2.6,3-2.6s3,0.9,3,2.6v24.6c0,2.2-1.3,3.3-3.9,3.3c-2.4,0-3.7-0.9-4.6-3l-11.7-19.6L190.2,523.5
				L190.2,523.5z"/>
			<path fill="#42669A" d="M231.7,514.4c-1.7,0-2.4-0.9-2.4-2.8c0-1.9,0.7-2.8,2.4-2.8h6.9c2.2,0,3.1,0.9,3.1,3.1v8.7
				c0,1.9-0.6,3-2.6,3.9c-1.9,0.7-4.8,1.3-7.6,1.3c-8.7,0-15.2-5.4-15.2-15.4s6.5-15.6,15-15.6c3,0,5.6,0.6,7.8,1.9
				c1.5,0.9,2.4,1.9,2.4,3c0,1.3-1.5,3-2.8,3c-0.7,0-1.3-0.6-2.4-1.1c-1.5-0.7-3.1-1.3-5-1.3c-5.2,0-8.5,3.3-8.5,9.8
				c0,6.7,3.7,10.2,8.9,10.2c1.3,0,2.8-0.2,4.1-0.6v-5.6h-4.1V514.4z"/>
			<path fill="#42669A" d="M270.8,524.2c0,1.1-0.6,1.7-2,1.7c-1.3,0-2-0.6-2-1.7V499h-8.3c-1.1,0-1.7-0.6-1.7-1.7
				c0-1.1,0.6-1.9,1.7-1.9h20.6c1.1,0,1.7,0.6,1.7,1.9c0,1.1-0.6,1.7-1.7,1.7h-8.3v25.2H270.8z"/>
			<path fill="#42669A" d="M297.8,495c8.7,0,14.4,6.1,14.4,15.6c0,9.4-5.7,15.6-14.4,15.6c-8.9,0-14.4-6.1-14.4-15.6
				C283.4,501.1,288.9,495,297.8,495z M297.8,522.7c6.3,0,10.4-4.6,10.4-12.2c0-7.6-4.1-12.2-10.4-12.2c-6.3,0-10.4,4.8-10.4,12.2
				C287.5,517.9,291.5,522.7,297.8,522.7z"/>
			<path fill="#42669A" d="M336.7,519.6c-0.6,1.3-1.1,1.9-2.4,1.9c-1.1,0-1.9-0.6-2.4-1.9l-8.5-19.1l-1.5,23.7
				c-0.2,1.1-0.7,1.7-2,1.7c-1.3,0-1.9-0.6-1.9-1.7l2-26.5c0.2-1.7,0.7-2.4,2.6-2.4c1.7,0,2.6,0.7,3.3,2.4l8.5,18.9l8.5-18.9
				c0.7-1.7,1.5-2.4,3.3-2.4s2.4,0.9,2.4,2.4l2,26.5c0,1.1-0.6,1.7-1.9,1.7c-1.3,0-2-0.6-2-1.7l-1.7-23.7L336.7,519.6z"/>
			<path fill="#42669A" d="M371.4,495c8.7,0,14.4,6.1,14.4,15.6c0,9.4-5.7,15.6-14.4,15.6c-8.9,0-14.4-6.1-14.4-15.6
				C356.9,501.1,362.5,495,371.4,495z M371.4,522.7c6.3,0,10.4-4.6,10.4-12.2c0-7.6-4.1-12.2-10.4-12.2c-6.3,0-10.4,4.8-10.4,12.2
				C361,517.9,365.1,522.7,371.4,522.7z"/>
			<path fill="#42669A" d="M413,524.8c0,0.7-0.6,1.1-1.9,1.1c-1.7,0-2.2-0.6-3-1.9l-6.7-9.6c-0.9,0.2-1.9,0.2-3,0.2
				c-0.6,0-1.7,0-2.2-0.2v9.8c0,1.1-0.6,1.7-1.9,1.7c-1.3,0-1.9-0.6-1.9-1.7v-25.7c0-1.3,0-2.4,2-2.8c1.1-0.4,3.1-0.6,5-0.6
				c7.2,0,12,3.3,12,9.4c0,4.3-2.2,7.4-6.3,8.9l6.5,9.1C412.9,524,413,524.4,413,524.8z M398.8,511.3c5.7,0,8.7-2.4,8.7-6.5
				c0-4.3-3.1-6.3-8-6.3c-0.9,0-2,0.2-3,0.2v12.2C397.1,511.3,398,511.3,398.8,511.3z"/>
			<path fill="#42669A" d="M439.5,524.8c0,0.7-0.6,1.1-1.9,1.1c-1.7,0-2.2-0.6-3-1.9l-6.7-9.6c-0.9,0.2-1.9,0.2-3,0.2
				c-0.6,0-1.7,0-2.2-0.2v9.8c0,1.1-0.6,1.7-1.9,1.7s-1.9-0.6-1.9-1.7v-25.7c0-1.3,0-2.4,2-2.8c1.1-0.4,3.1-0.6,5-0.6
				c7.2,0,12,3.3,12,9.4c0,4.3-2.2,7.4-6.3,8.9l6.5,9.1C439.2,524,439.5,524.4,439.5,524.8z M425.3,511.3c5.7,0,8.7-2.4,8.7-6.5
				c0-4.3-3.1-6.3-8-6.3c-0.9,0-2,0.2-3,0.2v12.2C423.6,511.3,424.3,511.3,425.3,511.3z"/>
			<path fill="#42669A" d="M457.9,495c8.7,0,14.4,6.1,14.4,15.6c0,9.4-5.7,15.6-14.4,15.6c-8.9,0-14.4-6.1-14.4-15.6
				C443.4,501.1,449.2,495,457.9,495z M457.9,522.7c6.3,0,10.4-4.6,10.4-12.2c0-7.6-4.1-12.2-10.4-12.2c-6.3,0-10.4,4.8-10.4,12.2
				C447.5,517.9,451.6,522.7,457.9,522.7z"/>
			<path fill="#42669A" d="M488.6,524c-0.4,1.5-1.1,2-2.8,2s-2.4-0.7-2.6-1.9l-6.9-26.3c-0.2-0.4-0.2-0.9-0.2-1.1
				c0-0.7,0.4-1.3,1.9-1.3c1.5,0,2,0.6,2.2,1.9l5.7,23.7l7-22c0.4-1.3,0.9-2,2.6-2c1.7,0,2.2,0.7,2.6,2l6.9,22l6.1-23.7
				c0.4-1.3,0.7-1.9,2-1.9c1.5,0,1.9,0.6,1.9,1.3c0,0.4,0,0.9-0.2,1.1l-7,26.3c-0.4,1.3-0.9,1.9-2.6,1.9s-2.4-0.7-2.8-2l-6.9-22
				L488.6,524z"/>
			<path fill="#42669A" d="M525.8,495.3c0,0.7-0.4,2.4-1.9,7c-0.7,2-1.3,2.4-2.4,2.4c-1.1,0-1.5-0.6-1.5-1.3c0-0.4,0.2-0.7,0.2-1.1
				l1.7-6.5c0.2-0.9,0.6-1.9,2.2-1.9C525.3,494,525.8,494.6,525.8,495.3z"/>
			<path fill="#42669A" d="M530.7,503.1c0-4.8,3.9-8,9.6-8c2.6,0,5.2,0.7,7.2,2c1.1,0.7,1.5,1.3,1.5,1.9c0,0.9-0.7,2-1.7,2
				c-0.4,0-0.7-0.4-1.7-0.7c-1.7-0.9-3.3-1.5-5.4-1.5c-3.7,0-5.7,1.9-5.7,4.3c0,6.5,15.2,4.8,15.2,14.8c0,5.6-4.4,8.7-10.4,8.7
				c-3.1,0-5.7-0.9-7.8-2.4c-0.9-0.7-1.5-1.3-1.5-2c0-0.9,0.7-2,1.7-2c0.6,0,0.9,0.4,1.9,0.9c1.7,1.1,3.3,2,5.7,2c3.7,0,6.3-2,6.3-5
				C545.8,510.7,530.7,512.4,530.7,503.1z"/>
			<path fill="#42669A" d="M566.6,503.1c0-4.8,3.9-8,9.6-8c2.6,0,5.2,0.7,7.2,2c1.1,0.7,1.5,1.3,1.5,1.9c0,0.9-0.7,2-1.7,2
				c-0.4,0-0.7-0.4-1.7-0.7c-1.7-0.9-3.3-1.5-5.4-1.5c-3.7,0-5.7,1.9-5.7,4.3c0,6.5,15.2,4.8,15.2,14.8c0,5.6-4.4,8.7-10.4,8.7
				c-3.1,0-5.7-0.9-7.8-2.4c-0.9-0.7-1.5-1.3-1.5-2c0-0.9,0.7-2,1.7-2c0.6,0,0.9,0.4,1.9,0.9c1.7,1.1,3.3,2,5.7,2c3.7,0,6.3-2,6.3-5
				C581.8,510.7,566.6,512.4,566.6,503.1z"/>
			<path fill="#42669A" d="M605.3,495c8.7,0,14.4,6.1,14.4,15.6c0,9.4-5.7,15.6-14.4,15.6c-8.9,0-14.4-6.1-14.4-15.6
				C590.9,501.1,596.4,495,605.3,495z M605.3,522.7c6.3,0,10.4-4.6,10.4-12.2c0-7.6-4.1-12.2-10.4-12.2c-6.3,0-10.4,4.8-10.4,12.2
				C594.9,517.9,599,522.7,605.3,522.7z"/>
			<path fill="#42669A" d="M639.6,522.7c2,0,4.1-0.6,5.6-1.5c0.9-0.7,1.5-1.1,2-1.1c0.9,0,1.7,1.1,1.7,1.9c0,0.7-0.7,1.5-2,2.2
				c-2,1.3-4.6,2-7.6,2c-8.5,0-14.3-6.3-14.3-15.7c0-9.6,5.7-15.6,14.3-15.6c2.8,0,5.6,0.7,7.6,2c1.3,0.7,2,1.5,2,2.2
				s-0.7,1.9-1.7,1.9c-0.6,0-1.1-0.6-2-1.1c-1.5-0.9-3.5-1.5-5.6-1.5c-5.9,0-10.2,4.3-10.2,11.9
				C629.2,518.1,633.5,522.7,639.6,522.7z"/>
			<path fill="#42669A" d="M659.2,524.2c0,1.1-0.6,1.7-2,1.7c-1.3,0-2-0.6-2-1.7v-27.4c0-1.1,0.6-1.7,2-1.7c1.3,0,2,0.6,2,1.7V524.2
				z"/>
			<path fill="#42669A" d="M681.4,508.3c1.1,0,1.7,0.6,1.7,1.7c0,1.1-0.6,1.9-1.7,1.9h-10.4v10.4h12.4c1.1,0,1.7,0.6,1.7,1.9
				c0,1.1-0.6,1.9-1.7,1.9h-14.3c-1.5,0-2-0.6-2-2v-26.1c0-1.5,0.6-2,2-2h13.9c1.1,0,1.7,0.6,1.7,1.9c0,1.1-0.6,1.7-1.7,1.7h-12v9.3
				h10.4V508.3z"/>
			<path fill="#42669A" d="M702.9,524.2c0,1.1-0.6,1.7-2,1.7c-1.3,0-2-0.6-2-1.7V499h-8.3c-1.1,0-1.7-0.6-1.7-1.7
				c0-1.1,0.6-1.9,1.7-1.9h20.7c1.1,0,1.7,0.6,1.7,1.9c0,1.1-0.6,1.7-1.7,1.7h-8.3V524.2z"/>
			<path fill="#42669A" d="M737.5,496.8c0.6-1.1,1.1-1.5,2.6-1.5c1.3,0,1.9,0.4,1.9,1.1c0,0.6-0.4,1.3-0.9,2l-10.2,17.2v8.7
				c0,1.1-0.6,1.7-2,1.7c-1.3,0-2-0.6-2-1.7v-8.7l-10-17.2c-0.6-0.7-0.9-1.5-0.9-2c0-0.6,0.6-1.1,1.9-1.1c1.5,0,2,0.6,2.6,1.5
				l8.5,14.8L737.5,496.8z"/>
		</g>
		<g>
			<path fill="#42669A" d="M71.5,576.3c0,5.9-5.2,10-14.6,10c-2.2,0-4.8-0.2-6.7-0.7c-3-0.9-3.1-2.8-3.1-4.6v-24.3
				c0-1.9,0-3.9,3.1-4.6c1.5-0.4,4.3-0.7,6.7-0.7c8.7,0,13.5,3.5,13.5,9.3c0,3.9-2.2,6.7-6.5,7.6C69.1,568.9,71.5,572.2,71.5,576.3z
				 M53.9,557.4v8.1H57c1.3,0,2.4-0.2,3.1-0.4c1.9-0.6,2.8-2,2.8-3.9c0-2.6-1.9-4.3-6.3-4.3C55.9,557.2,55,557.2,53.9,557.4z
				 M64.1,575.7c0-2-0.9-3.5-3.3-4.3c-0.9-0.4-2.2-0.6-3.7-0.6h-3.1v9.1c0.9,0.2,2,0.2,3.1,0.2C62.2,580.4,64.1,578.5,64.1,575.7z"
				/>
			<path fill="#42669A" d="M106.3,584.2c0,1.1-0.9,2-3.3,2c-2.4,0-3.5-0.7-4.1-2.4l-1.9-5.6h-13l-1.9,5.6c-0.6,1.7-1.5,2.4-3.9,2.4
				c-2.4,0-3.1-0.9-3.1-2c0-0.6,0.2-1.3,0.6-2.4l9.8-26.9c0.9-2.8,1.9-3.7,5.2-3.7s4.3,1.1,5.2,3.7l9.8,26.9
				C106.1,582.8,106.3,583.5,106.3,584.2z M83.3,546.6c0-1.1,0.9-2,1.9-2.6l2.4-1.9c0.6-0.6,1.7-1.3,3.1-1.3s2.6,0.9,3.1,1.3
				l2.4,1.9c0.9,0.6,1.9,1.5,1.9,2.6s-0.9,2.6-2.4,2.6c-0.9,0-1.5-0.4-3.5-2l-1.5-1.1l-1.5,1.1c-1.7,1.3-2.8,2-3.5,2
				C84.5,549.2,83.3,547.8,83.3,546.6z M95,572.2l-4.4-13l-4.4,13H95z"/>
			<path fill="#42669A" d="M123.4,583.3c0,1.9-1.1,2.8-3.5,2.8s-3.5-0.9-3.5-2.8v-25.4h-7.2c-1.9,0-2.8-1.1-2.8-3.1
				c0-2.2,0.9-3.1,2.8-3.1H131c1.9,0,2.8,1.1,2.8,3.1c0,2.2-0.9,3.1-2.8,3.1h-7.2v25.4H123.4z"/>
			<path fill="#42669A" d="M146.3,583.3c0,1.9-1.1,2.8-3.5,2.8s-3.5-0.9-3.5-2.8V554c0-1.9,1.1-2.8,3.5-2.8s3.5,0.9,3.5,2.8V583.3z"
				/>
			<path fill="#42669A" d="M179.5,584.2c0,1.3-0.9,1.9-3.3,1.9c-3.1,0-3.9-0.9-5.4-3.1l-5.7-8.5c-0.7,0-1.5,0.2-2.2,0.2
				s-1.5,0-1.9-0.2v8.9c0,1.9-1.1,2.8-3.5,2.8s-3.5-0.9-3.5-2.8v-26.9c0-1.9,0-3.9,3.1-4.6c1.5-0.4,4.3-0.7,6.5-0.7
				c8.9,0,14.3,4.1,14.3,11.3c0,4.6-2.2,8.3-6.3,10.4l5.4,7.2C178.9,582.4,179.5,583.3,179.5,584.2z M163.2,568.7
				c5,0,7.6-2.2,7.6-5.7c0-3.7-2.8-5.7-7.2-5.7c-0.9,0-1.9,0.2-2.6,0.2v11.1C161.7,568.7,162.4,568.7,163.2,568.7z"/>
			<path fill="#42669A" d="M215.8,581.8c1.3,0,1.9,0.6,1.9,2c0,1.3-0.6,2-1.9,2h-14.6c-1.7,0-2.4-0.7-2.4-2.4v-30.4
				c0-1.3,0.7-1.9,2.2-1.9c1.5,0,2.2,0.6,2.2,1.9v28.7L215.8,581.8L215.8,581.8z"/>
			<path fill="#42669A" d="M251.5,585c0,0.7-0.6,1.3-2,1.3s-2.2-0.6-2.6-1.7l-2.8-7.8h-14.8l-3,7.8c-0.4,1.1-0.9,1.7-2.6,1.7
				c-1.5,0-2-0.6-2-1.3c0-0.6,0.2-1.1,0.4-1.7l11.5-29.6c0.7-1.9,1.3-2.4,3.1-2.4c2,0,2.6,0.7,3.1,2.4l11.3,29.6
				C251.3,583.7,251.5,584.4,251.5,585z M242.6,572.9l-5.9-16.1l-6.1,16.1H242.6z"/>
			<path fill="#42669A" d="M270.1,560c0-5.6,4.4-9.1,11.1-9.1c3,0,5.9,0.7,8.1,2.2c1.3,0.7,1.9,1.5,1.9,2.2c0,0.9-0.9,2.2-2,2.2
				c-0.6,0-0.9-0.4-2-0.9c-1.9-1.1-3.7-1.9-6.1-1.9c-4.1,0-6.5,2-6.5,5c0,7.2,17.2,5.6,17.2,16.9c0,6.3-5.2,9.8-11.9,9.8
				c-3.5,0-6.5-1.1-8.9-2.8c-1.1-0.7-1.7-1.5-1.7-2.4s0.9-2.2,2-2.2c0.6,0,1.1,0.4,2.2,1.1c1.9,1.3,3.9,2.2,6.5,2.2
				c4.3,0,7.2-2.2,7.2-5.7C287.3,568.9,270.1,570.7,270.1,560z"/>
			<path fill="#42669A" d="M314.1,550.9c10,0,16.5,7,16.5,17.8c0,10.7-6.5,17.8-16.5,17.8s-16.5-7-16.5-17.8
				C297.5,557.9,303.9,550.9,314.1,550.9z M314.1,582.6c7.2,0,11.9-5.4,11.9-13.9s-4.6-13.9-11.9-13.9s-11.9,5.4-11.9,13.9
				C302.1,577.2,306.9,582.6,314.1,582.6z"/>
			<path fill="#42669A" d="M353.2,582.6c2.4,0,4.6-0.6,6.3-1.7c1.1-0.7,1.7-1.3,2.4-1.3c0.9,0,1.9,1.3,1.9,2c0,0.9-0.9,1.7-2.2,2.6
				c-2.4,1.5-5.2,2.4-8.7,2.4c-9.6,0-16.3-7-16.3-18c0-10.9,6.7-17.6,16.1-17.6c3.1,0,6.3,0.9,8.7,2.4c1.5,0.9,2.2,1.7,2.2,2.6
				s-0.9,2.2-2,2.2c-0.6,0-1.1-0.6-2.2-1.3c-1.9-1.1-4.1-1.7-6.5-1.7c-6.9,0-11.7,4.8-11.7,13.5
				C341.4,577.2,346.2,582.6,353.2,582.6z"/>
			<path fill="#42669A" d="M375.6,584.2c0,1.3-0.7,1.9-2.2,1.9c-1.5,0-2.2-0.6-2.2-1.9v-31.3c0-1.3,0.7-1.9,2.2-1.9
				c1.5,0,2.2,0.6,2.2,1.9V584.2z"/>
			<path fill="#42669A" d="M401,566.1c1.3,0,1.9,0.6,1.9,2c0,1.3-0.6,2-1.9,2h-11.7V582h14.3c1.3,0,1.9,0.6,1.9,2c0,1.3-0.6,2-1.9,2
				h-16.5c-1.7,0-2.4-0.7-2.4-2.4V554c0-1.7,0.7-2.4,2.4-2.4h15.7c1.3,0,1.9,0.6,1.9,2c0,1.3-0.6,2-1.9,2H389v10.6h12V566.1z
				 M397.1,546.8c-2.8,1.7-3.5,2-4.1,2c-1.1,0-1.7-0.9-1.7-1.9c0-0.9,0.7-1.3,1.9-2l4.1-2.8c0.9-0.6,1.3-0.9,2-0.9
				c1.3,0,1.9,1.3,1.9,2.2C401.2,544.6,399.5,545.3,397.1,546.8z"/>
			<path fill="#42669A" d="M425.4,584.2c0,1.3-0.7,1.9-2.2,1.9c-1.5,0-2.2-0.6-2.2-1.9v-28.7h-9.4c-1.3,0-1.9-0.6-1.9-2
				c0-1.3,0.6-2,1.9-2h23.5c1.3,0,1.9,0.6,1.9,2c0,1.3-0.6,2-1.9,2h-9.4v28.7H425.4z"/>
			<path fill="#42669A" d="M459.5,566.1c1.3,0,1.9,0.6,1.9,2c0,1.3-0.6,2-1.9,2h-11.7V582h14.3c1.3,0,1.9,0.6,1.9,2
				c0,1.3-0.6,2-1.9,2h-16.3c-1.7,0-2.4-0.7-2.4-2.4V554c0-1.7,0.7-2.4,2.4-2.4h15.7c1.3,0,1.9,0.6,1.9,2c0,1.3-0.6,2-1.9,2h-13.9
				v10.6h11.9V566.1z M455.6,546.8c-2.8,1.7-3.5,2-4.1,2c-1.1,0-1.7-0.9-1.7-1.9c0-0.9,0.7-1.3,1.9-2l4.1-2.8c0.9-0.6,1.3-0.9,2-0.9
				c1.3,0,1.9,1.3,1.9,2.2C459.7,544.6,458,545.3,455.6,546.8z"/>
			<path fill="#42669A" d="M491.9,586.3c-2,0-4.4-0.2-6.1-0.6c-2.2-0.6-2.2-1.7-2.2-3.1V555c0-1.3,0-2.8,2.2-3.1
				c1.3-0.4,4.1-0.6,6.1-0.6c12.2,0,19.1,6.3,19.1,17.4C511.2,580,504.2,586.3,491.9,586.3z M492.1,582.4c9.4,0,14.4-4.8,14.4-13.7
				s-5-13.7-14.4-13.7c-1.3,0-2.6,0.2-3.9,0.4V582C489.5,582.2,490.8,582.4,492.1,582.4z"/>
			<path fill="#42669A" d="M535.1,566.1c1.3,0,1.9,0.6,1.9,2c0,1.3-0.6,2-1.9,2h-11.7V582h14.3c1.3,0,1.9,0.6,1.9,2
				c0,1.3-0.6,2-1.9,2h-16.3c-1.7,0-2.4-0.7-2.4-2.4V554c0-1.7,0.7-2.4,2.4-2.4h15.7c1.3,0,1.9,0.6,1.9,2c0,1.3-0.6,2-1.9,2h-13.9
				v10.6h11.9V566.1z"/>
			<path fill="#42669A" d="M567.7,586.3c-2,0-4.4-0.2-6.1-0.6c-2.2-0.6-2.2-1.7-2.2-3.1V555c0-1.3,0-2.8,2.2-3.1
				c1.3-0.4,4.1-0.6,6.1-0.6c12.2,0,19.1,6.3,19.1,17.4C586.8,580,579.7,586.3,567.7,586.3z M567.7,582.4c9.4,0,14.4-4.8,14.4-13.7
				s-5-13.7-14.4-13.7c-1.3,0-2.6,0.2-3.9,0.4V582C565.1,582.2,566.6,582.4,567.7,582.4z"/>
			<path fill="#42669A" d="M610.7,566.1c1.3,0,1.9,0.6,1.9,2c0,1.3-0.6,2-1.9,2H599V582h14.3c1.3,0,1.9,0.6,1.9,2c0,1.3-0.6,2-1.9,2
				H597c-1.7,0-2.4-0.7-2.4-2.4V554c0-1.7,0.7-2.4,2.4-2.4h15.7c1.3,0,1.9,0.6,1.9,2c0,1.3-0.6,2-1.9,2h-13.9v10.6h11.9V566.1z"/>
			<path fill="#42669A" d="M642.7,578.9c-0.6,1.5-1.3,2-2.6,2c-1.3,0-2-0.6-2.8-2l-9.8-21.7l-1.9,27.2c-0.2,1.3-0.7,1.9-2.2,1.9
				c-1.5,0-2-0.6-2-1.9l2.2-30.2c0.2-1.9,0.7-2.8,3-2.8c1.9,0,3,0.7,3.7,2.8l9.8,21.7l9.8-21.7c0.7-1.9,1.7-2.8,3.7-2.8
				s2.8,0.9,2.8,2.8l2.2,30.2c0,1.3-0.6,1.9-2,1.9c-1.5,0-2.2-0.6-2.4-1.9l-1.9-27.2L642.7,578.9z"/>
			<path fill="#42669A" d="M694.8,585c0,0.7-0.6,1.3-2,1.3c-1.7,0-2.2-0.6-2.6-1.7l-2.8-7.8h-14.8l-3,7.8c-0.4,1.1-0.9,1.7-2.6,1.7
				c-1.5,0-2-0.6-2-1.3c0-0.6,0.2-1.1,0.4-1.7l11.5-29.6c0.7-1.9,1.3-2.4,3.1-2.4c2,0,2.6,0.7,3.1,2.4l11.3,29.6
				C694.6,583.7,694.8,584.4,694.8,585z M685.7,572.9l-5.9-16.1l-6.1,16.1H685.7z"/>
			<path fill="#42669A" d="M706.1,584.2c0,1.3-0.7,1.9-2.2,1.9c-1.5,0-2.2-0.6-2.2-1.9v-31.3c0-1.3,0.7-1.9,2.2-1.9
				c1.5,0,2.2,0.6,2.2,1.9V584.2z"/>
			<path fill="#42669A" d="M719.6,584.2c0,1.3-0.7,1.9-2,1.9c-1.5,0-2.2-0.6-2.2-1.9v-30.6c0-1.7,0.9-2.4,3-2.4s3.1,0.9,3.9,2.2
				l16.5,26.1v-26.5c0-1.3,0.7-1.9,2-1.9c1.5,0,2.2,0.6,2.2,1.9v30.6c0,1.7-0.9,2.4-2.6,2.4c-1.9,0-2.8-0.9-3.7-2.4l-17-26.5V584.2z
				"/>
		</g>
	</g>
	<g>
		<path fill="#899A3A" d="M661.6,162.3c-3.9,0-7,3.1-7,7v22.6h14.3v-22.6C668.6,165.5,665.5,162.3,661.6,162.3z M663.5,186.8h-3.5
			v-17.4c0-0.9,0.7-1.9,1.9-1.9s1.9,0.7,1.9,1.9v17.4H663.5z"/>
		<path fill="#899A3A" d="M655.1,150.8h13.2c1.5,0,2.6-1.1,2.6-2.6s-1.1-2.6-2.6-2.6h-13.2c-1.5,0-2.6,1.1-2.6,2.6
			S653.6,150.8,655.1,150.8z"/>
		<path fill="#899A3A" d="M668.3,157.5c1.5,0,2.6-1.1,2.6-2.6c0-1.5-1.1-2.6-2.6-2.6h-13.2c-1.5,0-2.6,1.1-2.6,2.6
			c0,1.5,1.1,2.6,2.6,2.6H668.3z"/>
		<path fill="#899A3A" d="M231.5,191v-28.9c0-4.6-3.9-8.5-8.5-8.5c-4.6,0-8.5,3.9-8.5,8.5v29.1h17V191z M219.7,162.1
			c0-1.9,1.5-3.1,3.1-3.1c1.9,0,3.1,1.5,3.1,3.1v23.7h-6.3L219.7,162.1L219.7,162.1z"/>
		<path fill="#899A3A" d="M272.3,191v-28.9c0-4.6-3.9-8.5-8.5-8.5s-8.5,3.9-8.5,8.5v29.1h17V191z M260.4,162.1
			c0-1.9,1.5-3.1,3.1-3.1c1.9,0,3.1,1.5,3.1,3.1v23.7h-6.3V162.1z"/>
		
			<linearGradient id="SVGID_1_" gradientUnits="userSpaceOnUse" x1="210.4335" y1="605.9786" x2="210.4335" y2="434.7057" gradientTransform="matrix(1.8522 0 0 -1.8522 -5.206672e-06 1170.2357)">
			<stop  offset="0" style="stop-color:#41669A"/>
			<stop  offset="0.3946" style="stop-color:#899B3A"/>
			<stop  offset="0.6493" style="stop-color:#899B3A"/>
			<stop  offset="0.8248" style="stop-color:#1D433F"/>
			<stop  offset="1" style="stop-color:#04273D"/>
		</linearGradient>
		<path fill="url(#SVGID_1_)" d="M779.6,278.6c0-10.4-5.2-22-19.4-23c0-0.4,0-0.7,0-0.9c0-13.7-11.1-24.8-24.8-24.8
			c-2.2,0-4.4,0.4-6.7,0.9v-30.7l1.9-5.9c0.4-1.3,1.3-1.5,2.2-2.4c1.3-1.3-0.2-3.1-0.2-3.1L710.9,156l-0.9-1.5v-8.7
			c0-1.5-1.1-2.6-2.6-2.6s-2.6,1.1-2.6,2.6v6.9h-5.4v-6.9c0-1.5-1.1-2.6-2.6-2.6s-2.6,1.1-2.6,2.6v6.9h-8.1v-21.1h3.5
			c0.9,0,1.9-0.6,2.4-1.3c0.6-0.9,0.4-1.9,0-2.8l-6.3-9.8l-14.3-36.3v-6.7c0-1.5-1.1-2.6-2.6-2.6s-2.6,1.1-2.6,2.6v4.6h-7.8v-4.4
			c0-1.5-1.1-2.6-2.6-2.6s-2.6,1.1-2.6,2.6v6.7L639,117.9l-6.3,9.8c-0.6,0.7-0.6,1.9,0,2.8c0.6,0.9,1.3,1.3,2.4,1.3h3.5v21.1h-10
			v-6.3c0-1.5-1.1-2.6-2.6-2.6c-1.5,0-2.6,1.1-2.6,2.6v6.3h-5.4v-6.3c0-1.5-1.1-2.6-2.6-2.6c-1.5,0-2.6,1.1-2.6,2.6v8.1l-24.1,33.9
			c0,0-1.5,1.9-0.2,3.1c0.9,0.9,1.9,1.1,2.2,2.4l1.9,5.9v12.8c-4.4-3.5-9.4-6.3-15-8V116c0-1.5-1.1-2.6-2.6-2.6
			c-1.5,0-2.6,1.1-2.6,2.6v87.4c-2.8-0.6-5.6-0.7-8.5-0.7c-1.1,0-2.2,0-3.3,0.2c-1.3-17.2-15.7-30.9-33.3-30.9c-0.2,0-0.4,0-0.6,0
			c-9.1-21.3-29.4-34.8-52.4-34.8c-26.1,0-48.7,17.8-55.2,42.8c-6.5-3.9-13.9-5.9-21.5-5.9c-9.1,0-17.4,2.8-24.3,7.6l-2.4-10.7h5.7
			c1.5,0,2.6-1.1,2.6-2.6v-12.4c0-1.5-1.1-2.6-2.6-2.6h-7.6v-4.8h3.9c1.1,0,2-0.7,2.4-1.7c0.4-1.1,0-2.2-0.7-3l-23.5-20.4
			c-0.9-0.9-2.4-0.9-3.5,0l-23.5,20.4c-0.9,0.7-1.1,1.9-0.7,3c0.4,1.1,1.3,1.7,2.4,1.7h3.9v4.8h-7.4c-1.5,0-2.6,1.1-2.6,2.6v12.4
			c0,1.5,1.1,2.6,2.6,2.6h5.7l-3.7,16.9h-37.8V134c0-27.6-23.9-37.6-31.3-40v-8.9c0-5.4-6.1-8.1-9.4-9.4v-1.3V50.4
			c0-1.5-1.1-2.6-2.6-2.6s-2.6,1.1-2.6,2.6v23.9v1.3c-3.3,1.1-9.4,3.9-9.4,9.4V94c-7.2,2.4-31.3,12.4-31.3,40v54.1h-30.7
			c-3-5-8.1-8.3-14.3-8.5c-4.6-10.2-14.6-16.5-25.9-16.5c-12.4,0-23.3,8.1-27.2,19.6c-3-1.5-6.1-2.2-9.3-2.2
			c-11.9,0-21.5,9.6-21.5,21.5c0,0.2,0,0.4,0,0.4c-2.4,0.2-7.8,0.9-11.9,5.2c-3.3,3.5-5,8.5-4.6,14.8c0.2,2.8,0.9,5.4,2,7.8
			c-0.4,0.7-0.6,1.7-0.9,2.4c-3.5-1.9-7.4-2.8-11.3-2.8c-13.7,0-24.8,11.1-24.8,24.8c0,0.4,0,0.6,0,0.9c-3.7,0.2-9.4,1.9-13.9,6.5
			c-2.8,3-6.1,8.3-5.6,16.5c0.7,11.7,9.3,20.6,20,21.3c3.3,4.6,18,18.3,68.9,18.3l0,0c180.8,0,270.2,26.9,271.2,27
			c53.5,14.3,103,19.6,147.2,19.6c56.9,0,104.8-8.9,141-18.7c64.8-17.8,105.2-42.8,110.6-46.3C770.3,299.6,779.6,290.1,779.6,278.6z
			 M685.7,157.9h20l18.7,28.2h-38.7V157.9z M685.7,191.4h40.2l-1.9,5.7h-38.3V191.4z M723.3,202.3v28.3c-4.8-12.8-17-21.5-31.1-21.5
			c-2.2,0-4.4,0.2-6.7,0.7v-7.4h37.8V202.3z M673.1,251.6c0.9-0.2,1.7-0.2,2.4-0.2c12,0,21.7,9.8,21.7,21.7c0,12-9.8,21.7-21.7,21.7
			h-23h-29.8v-20.6l9.3-13c0.9-1.1,0.6-2.8-0.6-3.7c-1.1-0.9-2.8-0.6-3.7,0.6l-4.8,6.9v-15.7c0-1.5-1.1-2.6-2.6-2.6
			c-1.5,0-2.6,1.1-2.6,2.6v31.3l-31.1-9.8c-1.5-0.4-3,0.4-3.3,1.7c-0.4,1.5,0.4,3,1.7,3.3l32.8,10.2v8.7h-58.3
			c-8.9,0-16.3-7.2-16.3-16.3c0-3.9,1.1-16.9,14.6-17.6c0.6,0,1.3,0,2,0.2l3.7,0.7l-0.7-3.7c-0.2-0.6-0.2-1.1-0.2-1.7v-4.1
			c1.1-9.6,9.4-17,19.3-17c4.1,0,8,1.3,11.5,3.9l3.3,2.6l0.7-4.1c2.4-13.2,14.1-22.8,27.4-22.8c11.7,0,21.9,7,25.9,18l0.7,1.9l2-0.2
			c0.2,0,0.4,0,0.7,0c0.2,0,0.2,0,0.4,0c8,0,14.6,6.5,14.6,14.4v3.5L673.1,251.6z M412.7,279.2c-1.1-12-8.7-15-14.3-15.4
			c11.1-5,28.9-11.9,51.3-16.1c19.3-3.7,43.9-5.7,71.5-2c0.6,0.4,1.3,0.4,1.9,0.4c8.5,1.3,17.2,3,26.1,5.6L412.7,279.2z
			 M395.3,294.7h-9.6h-35.7v-5.9l25.6-8c1.5-0.4,2.2-1.9,1.7-3.3c-0.4-1.5-1.9-2.2-3.3-1.7l-23.9,7.4v-24.1c0-1.5-1.1-2.6-2.6-2.6
			s-2.6,1.1-2.6,2.6v10.7l-2.8-4.1c-0.9-1.1-2.6-1.5-3.7-0.6c-1.1,0.9-1.5,2.6-0.6,3.7l7.2,10.2v15.6h-41.1
			c-9.3,0-16.7-7.4-16.7-16.7s7.4-16.7,16.7-16.7c0.6,0,1.3,0,1.9,0.2l3.5,0.6V259c0-0.2,0-0.2,0-0.4c0-6.1,5-10.9,11.1-10.9h0.2
			c0.2,0,0.4,0,0.6,0l2,0.2l0.7-1.9c3.1-8.3,11.1-13.9,20-13.9c10.4,0,19.3,7.4,21.1,17.6l0.7,4.1l3.3-2.6c2.6-1.9,5.6-3,8.7-3
			c8.1,0,14.8,6.7,14.8,14.8c0,0.7,0,1.5-0.2,2.6l-0.7,3.7l3.7-0.7c0.6-0.2,1.1-0.2,1.7-0.2l0,0c7.4,0,10.9,4.3,10.9,13.3
			C407.7,289.2,402.1,294.7,395.3,294.7z M162.1,286l32.8-10.2c1.5-0.4,2.2-1.9,1.7-3.3c-0.4-1.5-1.9-2.2-3.3-1.7l-31.1,9.8v-31.3
			c0-1.5-1.1-2.6-2.6-2.6s-2.6,1.1-2.6,2.6v15.7l-4.8-6.9c-0.9-1.1-2.6-1.5-3.7-0.6s-1.5,2.6-0.6,3.7l9.3,13v20.6h-25.6h-27.4
			c-12,0-21.7-9.8-21.7-21.7c0-12,9.8-21.7,21.7-21.7c0.7,0,1.7,0.2,2.4,0.2l3.5,0.6v-3.1c0-0.2,0-0.2,0-0.4c0-8,6.7-14.4,14.6-14.4
			c0.2,0,0.4,0,0.4,0c0.2,0,0.4,0,0.7,0l2,0.2l0.7-1.9c4.3-10.9,14.4-18,25.9-18c13.5,0,25,9.6,27.4,22.8l0.7,4.1l3.3-2.6
			c3.3-2.4,7.4-3.9,11.5-3.9c10.7,0,19.4,8.7,19.4,19.4c0,0.9-0.2,2-0.4,3.3l-0.7,3.7l3.7-0.7c0.4,0,0.9-0.2,1.3-0.2s0.7,0,1.1-0.2
			c3.7-0.4,6.5,0.4,8.7,2.4c5.4,4.8,5.4,14.8,5.4,15.4c0,8.9-7.2,16.3-16.3,16.3h-57.6V286z M226.2,255.5c-1.1-0.2-2.4-0.2-3.7,0
			c0-0.4,0-0.6,0-0.9c0-4.1-0.9-7.8-2.6-11.1c0.2-1.7,1.5-2.8,3.1-2.8c1.9,0,3.1,1.5,3.1,3.1L226.2,255.5L226.2,255.5z M266.9,294.7
			h-6.3v-50.9c0-1.9,1.5-3.1,3.1-3.1c1.9,0,3.1,1.5,3.1,3.1V294.7z M272.3,294.7v-50.9c0-4.6-3.9-8.5-8.5-8.5s-8.5,3.9-8.5,8.5v50.9
			h-20.7c4.4-3.9,7.4-9.8,7.4-16.3c0-1.3-0.2-13-7.2-19.3c-0.9-0.9-2-1.7-3.1-2.2v-13.3c0-4.6-3.9-8.5-8.5-8.5c-2.6,0-5,1.3-6.5,3.1
			c-4.6-5.2-11.3-8.5-18.7-8.5c-2.4,0-4.6,0.4-7,1.1c1.3-1.9,2.4-4.1,3.1-6.3h103.9V257c-9.4,2.6-16.3,11.1-16.3,21.3
			c0,6.7,3,12.6,7.6,16.7h-16.9V294.7z M335.2,158.6H364v7.2h-14.4h-14.3V158.6z M381.6,243.8c-1.3-0.2-2.8-0.4-4.1-0.4
			c-3,0-5.9,0.7-8.7,2c-2.6-8-8.9-14.1-16.5-16.9v-13.7h2.2c1.5,0,2.6-1.1,2.6-2.6v-14.3c0-1.5-1.1-2.6-2.6-2.6h-2.2v-24.3h13.3
			L381.6,243.8z M557.9,248.6c-2.8-0.9-5.4-1.7-8.1-2.4l-6.3-19.6c8,2,16.1,4.6,24.4,7.8C563.1,237.7,559.4,242.7,557.9,248.6z
			 M543.6,244.5c-5.4-1.3-10.7-2.4-15.9-3.3l10.7-12.8L543.6,244.5z M521.6,240.3c-5.4-0.7-10.6-1.3-15.7-1.5l-10.7-18.5
			c12.4,0.2,25.9,1.5,39.8,4.3L521.6,240.3z M499.5,238.4c-2.6,0-5-0.2-7.6-0.2c-3.3,0-6.5,0-9.6,0.2l8.1-15.6L499.5,238.4z
			 M476,238.8c-5.4,0.4-10.6,0.9-15.6,1.7l-13.3-15.7c0.7-0.2,1.7-0.4,2.4-0.6c10.6-2,22.8-3.5,36.1-3.9L476,238.8z M454.3,241.4
			c-2,0.4-3.9,0.7-5.9,1.1c-3.5,0.7-7,1.5-10.4,2.2l5.2-16.3L454.3,241.4z M431.9,246.2c-5,1.3-9.8,2.8-14.1,4.3l-15.4-11.9
			c8.9-3.9,21.1-8.3,35.7-11.9L431.9,246.2z M411.9,252.7c-5.2,1.9-9.8,3.7-13.7,5.6l1.5-15L411.9,252.7z M393.4,251.2
			c-1.7-2-3.7-3.9-5.9-5.2v-0.2c1.3-0.7,3.7-2,6.9-3.5L393.4,251.2z M347.5,200.6h4.3v8.9h-4.3V200.6z M346.9,171.2v24.3h-2.2
			c-1.5,0-2.6,1.1-2.6,2.6v14.3c0,1.5,1.1,2.6,2.6,2.6h2.2v12.4c-1.1-0.2-2.4-0.2-3.7-0.2c-10.6,0-19.8,5.9-24.3,15.6
			c-0.4,0-0.7,0-1.1,0l15.6-71.5H346.9z M312.1,244.4c-4.4,2.4-7.8,6.7-8.5,11.9h-0.2c-0.2,0-0.2,0-0.4,0v-34.3c0-1.1-0.6-2-1.5-2.4
			l0,0l-14.8-6.9v-6.9h33.7L312.1,244.4z M243.4,198.8l38.3,17.6c0.4,0.7,1.3,1.5,2.4,1.5c0.2,0,0.4,0,0.6,0l3.5,1.7h-88.3
			L243.4,198.8z M281.3,210.3L246,194.2v-48.5h35.4L281.3,210.3L281.3,210.3z M240.6,194.2l-35.4,16.7v-65.2h35.4V194.2z
			 M199.9,213.2l-5,2.4c-0.2-3.5-1.3-6.9-3-9.8h8L199.9,213.2L199.9,213.2z M598.1,218.1v-15.6h39.5v9.1c-3.9-1.5-8.1-2.4-12.4-2.4
			c-9.8,0-18.7,4.3-24.8,11.3C599.6,219.5,598.8,218.8,598.1,218.1z M662,228.6c-1.1,0-2.2,0.2-3.3,0.4c-1.1-0.2-2.2-0.4-3.5-0.4
			c-2.8-6.1-7-10.9-12.4-14.4v-82.6h5.2c1.7,5.9,7.2,10.4,13.7,10.4c6.5,0,12-4.4,13.7-10.4h5.2v79.8
			C672.3,214.4,665.7,220.5,662,228.6z M652.7,127.7c0-4.8,3.9-8.9,8.9-8.9c5,0,8.9,3.9,8.9,8.9c0,5-3.9,8.9-8.9,8.9
			C656.6,136.6,652.7,132.5,652.7,127.7z M642.7,120.3c0-0.2,0.2-0.4,0.2-0.4l13.9-35.2h9.4l13.9,35.2c0,0.2,0.2,0.4,0.2,0.4
			l3.7,5.9h-8.7c-0.7-7-6.9-12.6-14.1-12.6c-7.2,0-13.3,5.6-14.1,12.6H639L642.7,120.3z M615.7,157.9h21.9V186H597L615.7,157.9z
			 M637.5,191.4v5.7h-40.2l-1.9-5.7H637.5z M397.7,179.5c7.8,0,15.2,2.4,21.7,7.2l3.3,2.6l0.7-4.1c4.6-24.4,25.9-42.2,50.9-42.2
			c21.5,0,40.6,13.2,48.3,33.3l0.7,1.9l2-0.2c0.4,0,0.7,0,1.1-0.2c0.4,0,0.7-0.2,1.1-0.2c15.6,0,28.2,12.6,28.2,28
			c0,0.2,0,0.4,0,0.6v3.1l3.9-0.6c1.7-0.2,3.1-0.4,4.6-0.4c13.5,0,25.4,6.5,32.8,16.7c-1.5,2.4-2.8,5-3.5,7.8
			c-3.5-1.9-7.4-2.8-11.3-2.8c-2.8,0-5.2,0.4-7.8,1.3c-30-12.2-58.7-16.3-83.5-16.1c-0.2,0-0.4,0-0.6,0c-0.2,0-0.4,0-0.4,0
			c-15.4,0.2-29.4,1.9-41.3,4.1c-31.9,6.1-54.3,17-62.2,21.3l-11.5-52.8C381,182.5,389,179.5,397.7,179.5z M374.1,158.6v7.2h-4.8
			v-7.2H374.1z M349.5,128.8L366,143h-33L349.5,128.8z M335.2,148.4H364v4.8h-28.7V148.4z M325.1,158.6h4.8v7.2h-4.8V158.6z
			 M323.2,193.4l-1.5,7.2h-35v-7.2H323.2z M250.2,85.1v13l2,0.6c1.1,0.4,29.3,7.2,29.3,35.4v6.5h-35.4V81.6
			C248.2,82.5,250.2,83.8,250.2,85.1z M234.3,98.6l2-0.6v-13c0-1.3,2-2.6,4.3-3.7v59.1h-35.4V134C205.2,105.8,233.2,98.8,234.3,98.6
			z M199.9,193.4v7.2h-12.2c-4.3-4.1-9.8-6.5-15.9-6.5c-0.2,0-0.2,0-0.4,0c0-0.2-0.2-0.6-0.2-0.7H199.9z M59.8,221.9
			c-0.2-4.6,0.7-8.3,3.1-10.9c2.6-2.6,6.1-3.5,8.7-3.5c0.6,0,1.1,0,1.9,0.2l3.7,0.7l-0.7-3.7c-0.2-1.1-0.4-2-0.4-2.8
			c0-8.9,7.2-16.1,16.1-16.1c3.3,0,6.7,1.1,9.4,3.1l3.3,2.6l0.7-4.1c2.2-11.3,11.9-19.3,23.2-19.3c9.6,0,18.2,5.9,21.7,15l0.7,1.9
			l2-0.2c0.2,0,0.4,0,0.6,0c0.2,0,0.2,0,0.4,0c6.7,0,11.9,5.4,12,11.9v3.5l3.5-0.6c0.7-0.2,1.5-0.2,2-0.2c10,0,18,8.1,18,18
			c0,4.6-1.7,8.7-4.4,11.9c-5.2-12-17-20.2-30.6-20.2c-13.2,0-24.8,7.6-30.2,19.6c-0.2,0-0.4,0-0.7,0l0.2-18.3l10.7-5.4
			c1.3-0.7,1.9-2.2,1.1-3.5c-0.7-1.3-2.2-1.9-3.5-1.1l-8.3,4.3v-8c0-1.5-1.1-2.6-2.6-2.6l0,0c-1.5,0-2.6,1.1-2.6,2.6l-0.2,32.2
			c-0.2,0-0.6,0-0.7,0c-5.4-11.9-17-19.6-30.2-19.6c-11.3,0-21.3,5.6-27.4,14.4C59.8,223.1,59.8,222.5,59.8,221.9z M5.4,278.4
			c-0.4-5.2,1.1-9.3,4.1-12.6c3.1-3.3,7.6-4.8,10.4-4.8c0.7,0,1.3,0,2.2,0.2l3.7,0.7l-0.7-3.7c-0.2-1.3-0.4-2.4-0.4-3.3
			c0-10.7,8.7-19.4,19.4-19.4c4.1,0,8,1.3,11.5,3.9l3.3,2.6l0.7-4.1c2.8-13.9,14.3-23.3,27.6-23.3c11.7,0,21.7,7,25.9,17.8
			c-4.4,3.1-7.6,8-8.3,13.7c-0.2,0-0.6,0-0.7,0c-15,0-27,12.2-27,27c0,8.9,4.3,16.9,10.9,21.7H21.7C13,294.7,5.9,287.7,5.4,278.4z
			 M104.1,300.1h32.2h58.5l0,0H255h17h28.3l0,0h3h91.9h1.1l0,0c8.5-0.6,15.2-7,16.3-15.4l144.5-29.4c0,0.2,0,0.2,0,0.4
			c-8.3,0.6-13.5,4.8-16.3,10.2l-6.5,2.4c-1.3,0.6-2,2-1.7,3.3c0.4,1.1,1.5,1.7,2.6,1.7c0.4,0,0.6,0,0.9-0.2l2.2-0.7
			c-0.4,2-0.7,4.3-0.7,6.3c0,11.9,9.6,21.5,21.5,21.5h184.7c-59.1,20-193,30.2-332.1,18.3l4.3-1.5c1.3-0.6,2-2,1.7-3.3
			c-0.6-1.3-2-2-3.3-1.7l-13.3,4.8c-0.4,0.2-0.7,0.4-0.9,0.6c-13-1.3-25.9-2.6-38.9-4.3c-147.4-18.5-266.5-0.9-272.3,0
			c-38.7,0-54.8-8-61.1-13H104.1z M647,341.2c-63.5,17.4-164.5,31.5-285.4-0.9c-0.2,0-22.8-6.9-67.6-13.7
			c-34.6-5.2-88.9-11.3-161.5-13.2c48.2-4.1,132.1-7.4,228,4.8c146.3,18.3,296.4,10.6,370.4-8.9C712.2,318.8,683.5,331.2,647,341.2z
			 M758.1,294.7h-66.5c6.7-5,10.9-12.8,10.9-21.7c0-15-12.2-27-27-27c-0.4,0-0.6,0-0.7,0c-0.7-5.6-3.9-10.6-8.3-13.7
			c4.3-10.9,14.4-17.8,25.9-17.8c13.5,0,25,9.6,27.4,22.8l0.7,4.1l3.3-2.6c3.3-2.4,7.4-3.9,11.5-3.9c10.7,0,19.4,8.7,19.4,19.4
			c0,0.9-0.2,2-0.4,3.3l-0.7,3.7l3.7-0.7c0.7-0.2,1.5-0.2,2-0.2c13.5,0.9,14.6,13.7,14.6,17.6C774.2,287.5,767,294.7,758.1,294.7z"
			/>
		
			<linearGradient id="SVGID_2_" gradientUnits="userSpaceOnUse" x1="233.5206" y1="467.3043" x2="243.6011" y2="467.3043" gradientTransform="matrix(1.8522 0 0 -1.8522 -5.206672e-06 1170.2357)">
			<stop  offset="0" style="stop-color:#14383F"/>
			<stop  offset="1" style="stop-color:#1D433F"/>
		</linearGradient>
		<path fill="url(#SVGID_2_)" d="M435.3,309.7c0.4,0,0.6,0,0.9-0.2l13.3-4.8c1.3-0.6,2-2,1.7-3.3c-0.6-1.3-2-2-3.3-1.7l-13.3,4.8
			c-1.3,0.6-2,2-1.7,3.3C433,309,434.2,309.7,435.3,309.7z"/>
		
			<linearGradient id="SVGID_3_" gradientUnits="userSpaceOnUse" x1="251.5321" y1="473.9043" x2="261.6125" y2="473.9043" gradientTransform="matrix(1.8522 0 0 -1.8522 -5.206672e-06 1170.2357)">
			<stop  offset="0.1752" style="stop-color:#1D433F"/>
			<stop  offset="1" style="stop-color:#3C5A43"/>
		</linearGradient>
		<path fill="url(#SVGID_3_)" d="M468.6,297.5c0.4,0,0.6,0,0.9-0.2l13.3-4.8c1.3-0.6,2-2,1.7-3.3c-0.6-1.3-2-2-3.3-1.7l-13.3,4.8
			c-1.3,0.6-2,2-1.7,3.3C466.4,297,467.5,297.5,468.6,297.5z"/>
		
			<linearGradient id="SVGID_4_" gradientUnits="userSpaceOnUse" x1="269.544" y1="480.4043" x2="279.624" y2="480.4043" gradientTransform="matrix(1.8522 0 0 -1.8522 -5.206672e-06 1170.2357)">
			<stop  offset="0" style="stop-color:#355443"/>
			<stop  offset="1" style="stop-color:#607842"/>
		</linearGradient>
		<path fill="url(#SVGID_4_)" d="M501.9,285.5c0.4,0,0.6,0,0.9-0.2l13.3-4.8c1.3-0.6,2-2,1.7-3.3c-0.6-1.3-2-2-3.3-1.7l-13.3,4.8
			c-1.3,0.6-2,2-1.7,3.3C499.7,284.7,500.8,285.5,501.9,285.5z"/>
		
			<linearGradient id="SVGID_5_" gradientUnits="userSpaceOnUse" x1="298.2904" y1="571.4184" x2="298.2904" y2="556.3807" gradientTransform="matrix(1.8522 0 0 -1.8522 -5.206672e-06 1170.2357)">
			<stop  offset="0" style="stop-color:#657D76"/>
			<stop  offset="3.331342e-03" style="stop-color:#667E75"/>
			<stop  offset="0.1216" style="stop-color:#728863"/>
			<stop  offset="0.2382" style="stop-color:#7D9051"/>
			<stop  offset="0.3512" style="stop-color:#839644"/>
			<stop  offset="0.4588" style="stop-color:#88993D"/>
			<stop  offset="0.5555" style="stop-color:#899B3A"/>
			<stop  offset="1" style="stop-color:#899B3A"/>
		</linearGradient>
		<path fill="url(#SVGID_5_)" d="M536,137.7c2.6,1.5,5.2,2,7.8,2c3.3,0,6.5-0.9,9.4-1.9c4.8-1.3,9.1-2.6,13.2-0.2
			c0.7,0.6,1.9,0.6,2.6,0c0.7-0.6,1.3-1.3,1.3-2.2v-19.3c0-0.9-0.6-1.9-1.3-2.2c-6.1-3.5-12-1.7-17.2-0.2c-4.8,1.3-9.1,2.6-13.2,0.2
			c-0.7-0.6-1.9-0.6-2.6,0c-0.7,0.6-1.3,1.3-1.3,2.2v19.3C534.5,136.4,535.1,137.3,536,137.7z M539.9,120.1
			c4.6,1.1,9.3-0.2,13.3-1.3c4.3-1.3,8.1-2.2,11.9-0.9v13.7c-4.6-1.1-9.3,0.2-13.3,1.3c-4.3,1.3-8.1,2.2-11.9,0.9V120.1z"/>
		<g>
			<path fill="#05273C" d="M373.4,379.9c0.2-0.6,0-1.1-0.2-1.7c-0.4-0.6-0.7-0.7-1.3-0.9l-18.2-4.4c-1.3-0.2-2.2,0.4-2.4,1.7
				l-7.8,32.4l0,0c-0.2,0.6,0,1.1,0.2,1.7c0.4,0.6,0.7,0.7,1.3,0.9c0.2,0,0.4,0,0.6,0c0.4,0,0.7-0.2,1.1-0.4
				c0.6-0.4,0.9-0.7,0.9-1.3l3.3-14.1l13.7,3.3c0.6,0.2,1.1,0,1.7-0.2c0.6-0.4,0.9-0.7,0.9-1.3c0.2-0.6,0-1.1-0.2-1.7
				c-0.4-0.6-0.7-0.7-1.3-0.9l-13.7-3.3l3-12l15.9,3.9c0.6,0.2,1.1,0,1.7-0.4C372.8,381.1,373.2,380.5,373.4,379.9z"/>
			<path fill="#05273C" d="M391,381.1l-10.2-1.9c-0.6,0-0.9,0.2-1.5,0.4c-0.4,0.4-0.7,0.7-0.7,1.3l-5.9,32.8c-0.2,0.6,0,1.1,0.4,1.7
				c0.4,0.6,0.7,0.7,1.3,0.9s1.1,0,1.7-0.4c0.6-0.4,0.7-0.7,0.9-1.3l2.4-13.2l7.4,1.3h0.2c1.3,0.4,2.4,1.3,3.5,2.4
				c1.5,1.5,2,3.1,1.7,5c-0.9,5.6-0.2,8.5,2.6,9.1l0.9,0.2h0.2c1.1-0.2,1.9-1.1,1.9-2.4c-0.2-0.9-0.7-1.5-1.5-1.7
				c-0.2-0.4-0.2-1.5,0.2-3.5c0.4-2.4,0.2-4.4-0.6-6.1c-0.6-1.3-1.3-2.4-2.4-3.3c1.5-0.6,2.6-1.5,3.7-2.6c1.5-1.7,2.4-3.5,2.8-5.6
				c0.6-3,0-5.7-1.9-8.3C396.4,383.3,394,381.6,391,381.1z M395.8,393.3c-0.4,1.9-1.3,3.3-2.8,4.4c-1.5,1.1-3.1,1.5-5,1.3l-8-1.5
				l2.4-13.5l7.8,1.5c1.9,0.4,3.3,1.3,4.4,2.8C395.8,389.8,396.2,391.4,395.8,393.3z"/>
			<path fill="#05273C" d="M429.3,387l-18.3-2.4c-0.6,0-1.1,0-1.5,0.4c-0.4,0.4-0.7,0.9-0.7,1.5l-4.4,33.2c0,0.6,0,1.1,0.4,1.5
				c0.4,0.4,0.7,0.7,1.3,0.7l18.3,2.4c0.2,0,0.2,0,0.4,0c0.4,0,0.9-0.2,1.3-0.4c0.4-0.4,0.7-0.9,0.7-1.5s0-1.1-0.4-1.7
				c-0.4-0.4-0.7-0.7-1.5-0.7l-16.1-2.2l1.7-12.2l14.1,1.9c0.6,0,1.1,0,1.5-0.4c0.4-0.4,0.7-0.9,0.7-1.5s0-1.1-0.4-1.5
				c-0.4-0.6-0.9-0.7-1.5-0.9l-14.1-1.9l1.7-12.2l16.1,2.2c0.6,0,1.1,0,1.5-0.4c0.4-0.4,0.7-0.9,0.7-1.5s0-1.1-0.4-1.7
				C430.5,387.2,429.9,387,429.3,387z"/>
			<path fill="#05273C" d="M445.6,388.6l-6.7-0.6c-0.6,0-1.1,0.2-1.5,0.6s-0.7,0.9-0.7,1.5l-3.1,33.2c0,0.6,0.2,1.1,0.4,1.5
				c0.4,0.4,0.7,0.7,1.3,0.7l6.9,0.6c0.7,0,1.3,0.2,2,0.2c4.4,0,8.3-1.5,11.9-4.3c4.1-3.3,6.3-7.6,6.7-12.8
				c0.6-5.2-0.9-9.8-4.3-13.7C455.1,391.4,450.8,389.2,445.6,388.6z M458.4,408.8c-0.4,4.1-2,7.2-5.2,9.8c-3.1,2.6-6.7,3.7-10.6,3.3
				l-4.4-0.4l2.8-28.9l4.4,0.4c4.1,0.4,7.2,2.2,9.8,5.2C457.7,401.2,458.8,404.8,458.4,408.8z"/>
			<path fill="#05273C" d="M489.7,392l-18.3-1.1c-0.6,0-1.1,0.2-1.5,0.6c-0.4,0.4-0.7,0.9-0.7,1.5l-2,33.3l0,0
				c0,0.6,0.2,1.1,0.6,1.5c0.4,0.4,0.7,0.6,1.3,0.7l18.5,1.1h0.2c0.6,0,0.9-0.2,1.5-0.6c0.4-0.4,0.7-0.9,0.7-1.5s-0.2-1.1-0.6-1.5
				c-0.4-0.4-0.9-0.7-1.5-0.7l-16.3-0.9l0.7-12.4l14.1,0.9c0.6,0,1.1-0.2,1.5-0.6c0.4-0.4,0.7-0.9,0.7-1.5s-0.2-1.1-0.6-1.5
				c-0.4-0.4-0.9-0.7-1.5-0.7l-14.1-0.9l0.7-12.4l16.3,0.9c0.6,0,1.1-0.2,1.5-0.6c0.4-0.4,0.7-0.9,0.7-1.5s-0.2-1.1-0.6-1.5
				C490.8,392.4,490.3,392,489.7,392z"/>
			<path fill="#05273C" d="M518.2,425.9c-0.2-0.4-0.6-1.5-0.4-3.5c0-2.4-0.4-4.4-1.3-5.9c-0.7-1.1-1.7-2.2-2.8-3
				c1.3-0.7,2.4-1.9,3.3-3.1c1.3-1.9,1.9-3.7,2-5.9c0.2-3.1-0.9-5.7-3-8c-2-2.2-4.6-3.3-7.8-3.5l-10.4-0.4c-0.6,0-0.9,0.2-1.3,0.6
				c-0.4,0.4-0.6,0.9-0.6,1.5l-1.1,33.3c0,0.6,0.2,1.1,0.6,1.5c0.4,0.4,0.9,0.6,1.5,0.7c0.6,0,1.1-0.2,1.5-0.6
				c0.4-0.4,0.7-0.9,0.7-1.5l0.4-13.3l7.6,0.2h0.2c1.3,0.2,2.6,0.9,3.9,1.9c1.7,1.3,2.4,3,2.4,4.8c-0.2,5.6,1.1,8.5,3.9,8.5h0.2h0.6
				h0.2h0.2c1.1-0.4,1.7-1.3,1.5-2.8C519.7,426.4,519,426.1,518.2,425.9z M514.7,404c0,1.9-0.7,3.5-2,4.8s-3,1.9-4.8,1.9l0,0
				l-8.1-0.2l0.4-13.7l8,0.2c1.9,0,3.5,0.7,4.8,2.2C514.2,400.5,514.7,402.2,514.7,404z"/>
			<path fill="#05273C" d="M528.6,393.3c-0.6,0-1.1,0.2-1.5,0.6s-0.6,0.9-0.6,1.5l-0.4,33.3c0,0.6,0.2,1.1,0.6,1.5s0.9,0.6,1.5,0.6
				l0,0c0.6,0,1.1-0.2,1.5-0.6c0.4-0.4,0.7-0.9,0.7-1.5l0.4-33.3c0-0.6-0.2-1.1-0.7-1.5C529.7,393.5,529.2,393.3,528.6,393.3z"/>
			<path fill="#05273C" d="M569.2,422.2c-0.6,0-1.1,0-1.7,0.6c-2.4,2.2-5.7,3.5-9.6,3.7c-3.9,0.2-7.4-1.1-10.6-3.9
				s-4.6-6.1-4.8-10.2s1.1-7.6,4.1-10.6c2.8-3,6.5-4.6,10.6-4.8c3.5-0.2,6.7,0.9,9.6,3c0.4,0.4,0.9,0.6,1.5,0.4
				c0.6,0,1.1-0.4,1.3-0.7c0.4-0.4,0.6-1.1,0.6-1.7c-0.2-0.6-0.4-1.1-0.9-1.5c-3.7-2.6-7.8-3.9-12.2-3.7c-5.4,0.2-10,2.2-13.5,6.1
				c-3.7,3.9-5.4,8.5-5.2,13.7c0.2,5.2,2.2,9.6,6.3,13.3c3.7,3.3,8.1,5,13.2,5c0.2,0,0.6,0,0.7,0c4.4-0.2,8.5-1.7,12-4.4
				c0.4-0.4,0.7-0.9,0.7-1.5s-0.2-1.1-0.6-1.5C570.3,422.5,569.7,422.4,569.2,422.2z"/>
			<path fill="#05273C" d="M597.9,388.8L574,392c-0.6,0-1.1,0.4-1.5,0.7s-0.6,0.9-0.4,1.5c0,0.6,0.4,1.1,0.7,1.5
				c0.4,0.4,0.9,0.6,1.7,0.4l9.8-1.3l4.1,30.9c0,0.6,0.4,1.1,0.7,1.5c0.4,0.4,0.7,0.4,1.3,0.4c0.2,0,0.2,0,0.4,0
				c0.6,0,1.1-0.4,1.5-0.7c0.4-0.4,0.6-0.9,0.4-1.5l-4.1-30.9l9.8-1.3c0.6,0,1.1-0.4,1.5-0.9c0.4-0.6,0.6-0.9,0.4-1.5
				c0-0.6-0.4-1.1-0.7-1.5C599,389,598.4,388.8,597.9,388.8z"/>
			<path fill="#05273C" d="M632.2,387c-4.3-2.8-8.9-3.7-13.7-2.6c-5,1.1-8.7,3.9-11.3,8.1c-2.6,4.4-3.3,9.3-2.2,14.3l0,0
				c1.1,5.2,3.9,9.3,8.1,12c3.1,2,6.3,3.1,9.8,3.1c1.3,0,2.6-0.2,3.9-0.4c5-1.1,8.7-3.9,11.3-8.1c2.6-4.3,3.3-9.1,2.2-14.3
				C639,393.8,636.2,389.8,632.2,387z M634.2,411.1c-2,3.3-4.8,5.6-8.5,6.3s-7.2,0.2-10.4-2c-3.3-2.2-5.4-5.4-6.3-9.4
				c-0.9-4.1-0.4-7.8,1.7-11.1c2-3.3,4.8-5.4,8.5-6.3l0,0c1.1-0.2,2-0.4,3-0.4c2.6,0,5,0.7,7.4,2.4c3.1,2.2,5.4,5.4,6.3,9.4
				C636.8,403.8,636.2,407.5,634.2,411.1z"/>
			<path fill="#05273C" d="M677.2,405.5l-9.6-31.7c-0.2-0.6-0.6-0.9-1.1-1.3c-0.6-0.2-1.1-0.4-1.7-0.2c-0.6,0.2-0.9,0.6-1.3,1.1
				c-0.2,0.6-0.4,1.1-0.2,1.7l7.8,25.2l-27.4-20.7c-0.4-0.4-0.9-0.6-1.7-0.4c-0.6,0-1.1,0.4-1.5,0.9c-0.6,0.6-0.6,1.5,0,2.2
				l9.6,31.3c0.2,0.6,0.6,0.9,1.1,1.3c0.4,0.2,0.6,0.2,0.9,0.2c0.2,0,0.4,0,0.6-0.2c0.6-0.2,0.9-0.6,1.3-1.1
				c0.2-0.6,0.4-1.1,0.2-1.7l-7.8-25.4l27,20.6l0.4,0.2c0.6,0.4,1.1,0.6,1.9,0.4c0.6-0.2,1.1-0.6,1.3-1.1
				C677.3,406.6,677.3,406.1,677.2,405.5z"/>
		</g>
		<g>
			<path fill="#42669A" d="M719.4,384.8c-0.9-0.4-1.9-0.4-2.8,0l-8,3.1l4.6-9.6c1.7-3.5,1.9-7,0.6-10.4c-1.3-3.3-3.5-5.7-6.7-7.2
				c-3.5-1.7-7-1.9-10.4-0.6c-3.3,1.3-5.7,3.5-7.2,6.7l-0.9,1.9c-0.4,0.9-0.6,1.9-0.2,2.8c0.4,0.9,0.9,1.7,1.9,2
				c0.9,0.4,1.9,0.6,2.8,0.2c0.9-0.4,1.7-0.9,2-1.9l0.9-1.9c0.7-1.3,1.7-2.2,3.3-3c1.5-0.6,2.8-0.6,4.3,0.2c1.5,0.7,2.4,1.9,3,3.3
				c0.6,1.5,0.6,3-0.2,4.4l-8.9,18.3c-0.4,0.9-0.6,1.9-0.2,2.8c0.4,0.9,0.9,1.7,1.9,2c0.6,0.2,0.9,0.4,1.5,0.4s0.9-0.2,1.5-0.4
				l16.9-6.9c0.9-0.4,1.7-1.1,2-2c0.4-0.9,0.4-1.9,0-2.8C721.1,385.9,720.3,385.1,719.4,384.8z"/>
			<path fill="#42669A" d="M735.9,349.6c-1.9-1.1-3.9-1.9-5.9-2c-2-0.2-4.1,0-5.9,0.9c-3.7,1.9-6.1,5-6.7,9.8c-0.7,4.1,0,8.5,2,13.2
				l0,0c2.2,4.4,5.2,7.8,8.7,10c2.4,1.5,4.8,2.2,7.2,2.2c1.7,0,3.1-0.4,4.6-1.1c1.9-0.9,3.3-2.2,4.4-4.1c1.1-1.7,1.9-3.7,2.2-5.9
				c0.6-4.3,0-8.5-2.2-13C742.5,355.1,739.6,351.8,735.9,349.6z M739.4,371.4c-0.4,2.2-1.1,3.7-2.4,4.3c-1.3,0.6-3,0.4-4.8-0.7
				c-2.4-1.5-4.3-3.7-5.7-6.7c-1.5-3-2-6.1-1.7-8.7c0.4-2.2,1.3-3.7,2.6-4.3c0.4-0.2,0.9-0.4,1.5-0.4c0.9,0,2,0.4,3.3,1.1
				c2.4,1.5,4.3,3.9,5.7,6.9C739.2,365.7,739.8,368.6,739.4,371.4z"/>
			<path fill="#42669A" d="M754.8,336.6h-0.2c-0.2-0.2-0.2-0.2-0.4-0.4l0,0c-0.2-0.4-0.7-0.7-1.7-0.9l-0.6-0.4h-0.6
				c-0.2,0-0.4,0-0.4,0h-0.2l-0.7,0.4c-0.2,0.2-0.6,0.4-0.7,0.6l-4.4,7c-0.6,0.9-0.7,1.9-0.6,2.8c0.2,0.9,0.9,1.9,1.7,2.2
				c1.1,0.7,2.4,0.7,3.7,0.2c0.6-0.4,1.1-0.7,1.5-1.3l0.4-0.7l10.9,20.9c0.6,0.9,1.3,1.5,2.2,1.9c0.4,0.2,0.7,0.2,1.1,0.2
				c0.6,0,1.1-0.2,1.7-0.4c0.9-0.6,1.5-1.1,1.9-2.2c0.4-0.9,0.2-1.9-0.2-2.8L754.8,336.6z"/>
			<path fill="#42669A" d="M790.3,341c-1.1-1.9-2.6-3.5-4.4-4.6c-1.7-0.9-3.3-1.5-5.2-1.9c0-1.7-0.4-3.3-1.5-5.2
				c-1.1-2-3-3.3-5.6-4.1c-2.4-0.7-4.8-0.4-7,0.9c-2.2,1.3-3.7,3.1-4.3,5.7c-0.7,2.4-0.4,4.8,0.7,6.9c0.9,1.7,2.2,3,3.7,3.7
				c-0.7,1.7-1.1,3.5-0.9,5.4c0,2.2,0.7,4.3,1.9,6.1c1.9,3.1,4.4,5.2,8,6.1c1.1,0.4,2.4,0.4,3.5,0.4c2.2,0,4.4-0.6,6.5-1.9
				c3.1-1.9,5.2-4.4,6.1-8C792.6,347.3,792,344,790.3,341z M773.1,334.9c-0.2,0.6-0.4,0.9-0.9,1.3c-0.6,0.2-0.9,0.4-1.5,0.2
				s-0.9-0.4-1.3-0.9c-0.2-0.6-0.4-0.9-0.2-1.5s0.4-0.9,0.9-1.3c0.4-0.2,0.6-0.2,0.9-0.2c0.2,0,0.4,0,0.6,0c0.6,0.2,0.9,0.4,1.1,0.9
				C773.3,333.8,773.3,334.4,773.1,334.9z M783.9,344.8c0.7,1.3,0.9,2.8,0.6,4.3c-0.4,1.5-1.3,2.8-2.6,3.5c-1.3,0.7-2.8,0.9-4.4,0.6
				c-1.5-0.4-2.8-1.3-3.5-2.6c-0.7-1.5-0.9-2.8-0.6-4.4c0.4-1.5,1.3-2.8,2.6-3.5c0.9-0.6,1.9-0.7,2.8-0.7c0.6,0,1.1,0,1.7,0.2
				C782,342.5,783.1,343.3,783.9,344.8z"/>
		</g>
	</g>
</g>
<g>
	<g>
		<path fill="#485E29" d="M-55.4,254c0-40.2-5.1-73.9-5.1-73.9s-89.9-5.7-138.5-8c0,0-93.7,5.4-138.6,8c0,0-5.1,33.7-5.1,73.9
			c0,0-9.9,169.3,143.6,259.4C-45.5,423.3-55.4,254-55.4,254z"/>
	</g>
	<g>
		<path fill="#FFFFFF" d="M-199.2,505.9l-0.8-0.5c-33.5-19.7-61.6-45-83.4-75.2c-17.5-24.2-31.1-51.5-40.4-81.3
			c-15.6-49.9-13.7-90.1-13.6-91.7c0-37.9,4.8-70.2,4.8-70.5l0.2-1.3l1.3-0.1c42.7-2.5,131.9-7.6,131.9-7.6l0.1,0l0.1,0
			c45.8,2.1,131,7.6,131.8,7.6l1.3,0.1l0.2,1.2c0,0.3,4.8,32.6,4.8,70.5c0.1,1.7,1.9,41.9-13.6,91.7c-9.3,29.8-22.9,57.1-40.4,81.3
			c-21.9,30.2-49.9,55.5-83.4,75.2L-199.2,505.9z M-329.6,188.5c-0.9,6.3-4.6,35.3-4.6,68.8l0,0.1c0,0.4-2.1,40.7,13.5,90.8
			c9.2,29.4,22.6,56.4,39.9,80.3c21.4,29.6,48.9,54.4,81.7,73.8c32.8-19.4,60.2-44.2,81.7-73.8c17.3-23.9,30.7-50.9,39.9-80.3
			c15.7-50.1,13.5-90.4,13.5-90.8l0-0.1c0-33.5-3.8-62.6-4.6-68.8c-10.8-0.7-87.7-5.5-130.4-7.5C-202.1,181.1-287.2,186-329.6,188.5
			z"/>
	</g>
	<g>
		<path fill="#FFFFFF" d="M-199.3,478.8l-0.7-0.4c-28.5-16.7-52.3-38.2-70.9-63.9c-14.9-20.5-26.4-43.8-34.3-69.1
			c-13.2-42.4-11.7-76.5-11.6-78c0-32.2,4.1-59.6,4.1-59.9l0.2-1.1l1.2-0.1c36.3-2.1,112.1-6.5,112.1-6.5l0.1,0l0.1,0
			c38.9,1.8,111.3,6.4,112,6.5l1.1,0.1l0.2,1.1c0,0.3,4.1,27.7,4.1,59.9c0.1,1.5,1.6,35.6-11.6,78c-7.9,25.3-19.4,48.5-34.3,69.1
			c-18.6,25.7-42.5,47.2-70.9,63.9L-199.3,478.8z M-310,209.1c-0.8,5.5-3.9,30.1-3.9,58.4l0,0.1c0,0.3-1.8,34.5,11.5,77.1
			c7.8,25,19.2,47.9,33.9,68.2c18.2,25.1,41.5,46.2,69.3,62.6c27.8-16.4,51.1-37.5,69.3-62.6c14.7-20.3,26.1-43.2,33.9-68.2
			c13.3-42.6,11.5-76.8,11.5-77.1l0-0.1c0-28.3-3.2-52.9-3.9-58.4c-9.5-0.6-74.6-4.7-110.7-6.4C-201.8,202.8-274,207-310,209.1z"/>
	</g>
	<g>
		<path fill="#FFFFFF" d="M-255.6,238.5c-0.5-0.8-1.2-1.6-2-2.2c-0.8-0.6-1.7-1.1-2.7-1.5c-1-0.4-2.1-0.5-3.2-0.5
			c-2,0-3.8,0.4-5.2,1.2c-1.4,0.8-2.6,1.8-3.4,3.1c-0.9,1.3-1.5,2.8-1.9,4.4c-0.4,1.7-0.6,3.4-0.6,5.1c0,1.7,0.2,3.3,0.6,4.9
			c0.4,1.6,1,3,1.9,4.3c0.9,1.3,2,2.3,3.4,3.1c1.4,0.8,3.1,1.2,5.2,1.2c2.8,0,4.9-0.8,6.5-2.5c1.6-1.7,2.5-3.8,2.8-6.5h8.7
			c-0.2,2.5-0.8,4.8-1.8,6.8c-1,2-2.2,3.8-3.8,5.2c-1.6,1.4-3.4,2.5-5.5,3.3c-2.1,0.8-4.4,1.1-7,1.1c-3.1,0-6-0.5-8.5-1.6
			c-2.5-1.1-4.6-2.5-6.3-4.4c-1.7-1.9-3-4.1-4-6.6c-0.9-2.5-1.4-5.3-1.4-8.2c0-3,0.5-5.8,1.4-8.4c0.9-2.6,2.2-4.8,4-6.7
			c1.7-1.9,3.8-3.4,6.3-4.5c2.5-1.1,5.3-1.6,8.5-1.6c2.3,0,4.4,0.3,6.4,1c2,0.6,3.8,1.6,5.4,2.8c1.6,1.2,2.9,2.7,3.9,4.5
			c1,1.8,1.7,3.9,2,6.2h-8.7C-254.7,240.3-255.1,239.3-255.6,238.5z"/>
		<path fill="#FFFFFF" d="M-227.1,258.1c0.5,0.9,1.2,1.7,2,2.3c0.8,0.6,1.8,1,2.9,1.3c1.1,0.3,2.3,0.4,3.4,0.4
			c0.8,0,1.7-0.1,2.6-0.2c0.9-0.1,1.8-0.4,2.6-0.8c0.8-0.4,1.5-0.9,2-1.5c0.5-0.7,0.8-1.5,0.8-2.5c0-1.1-0.4-2-1.1-2.6
			c-0.7-0.7-1.6-1.2-2.8-1.7s-2.5-0.8-3.9-1.2c-1.5-0.3-2.9-0.7-4.4-1.1c-1.5-0.4-3-0.8-4.5-1.4c-1.5-0.5-2.8-1.2-3.9-2.1
			c-1.1-0.9-2.1-1.9-2.8-3.2c-0.7-1.3-1.1-2.9-1.1-4.7c0-2.1,0.4-3.9,1.4-5.4c0.9-1.5,2.1-2.8,3.5-3.8c1.5-1,3.1-1.8,4.9-2.3
			c1.8-0.5,3.7-0.7,5.5-0.7c2.1,0,4.2,0.2,6.2,0.7c2,0.5,3.7,1.2,5.3,2.3c1.5,1.1,2.7,2.4,3.6,4c0.9,1.6,1.4,3.6,1.4,5.9h-8.7
			c-0.1-1.2-0.3-2.2-0.8-3c-0.4-0.8-1-1.4-1.8-1.9c-0.7-0.5-1.6-0.8-2.5-1c-0.9-0.2-2-0.3-3.1-0.3c-0.7,0-1.5,0.1-2.2,0.2
			c-0.7,0.2-1.4,0.4-2,0.8c-0.6,0.4-1.1,0.8-1.5,1.4c-0.4,0.6-0.6,1.3-0.6,2.1c0,0.8,0.2,1.4,0.5,1.9c0.3,0.5,0.9,0.9,1.8,1.4
			c0.9,0.4,2.1,0.8,3.7,1.2c1.6,0.4,3.7,0.9,6.2,1.6c0.8,0.2,1.8,0.4,3.2,0.8c1.4,0.4,2.7,1,4.1,1.9c1.3,0.9,2.5,2,3.5,3.5
			c1,1.4,1.5,3.3,1.5,5.5c0,1.8-0.4,3.5-1.1,5.1c-0.7,1.6-1.8,2.9-3.2,4.1c-1.4,1.1-3.2,2-5.3,2.7c-2.1,0.6-4.6,1-7.4,1
			c-2.3,0-4.5-0.3-6.6-0.8c-2.1-0.5-4-1.4-5.6-2.6c-1.6-1.2-2.9-2.6-3.9-4.4c-1-1.8-1.4-3.9-1.4-6.4h8.7
			C-227.8,256-227.6,257.1-227.1,258.1z"/>
		<path fill="#FFFFFF" d="M-165,238.5c-0.5-0.8-1.2-1.6-2-2.2c-0.8-0.6-1.7-1.1-2.7-1.5c-1-0.4-2.1-0.5-3.2-0.5
			c-2,0-3.8,0.4-5.2,1.2c-1.4,0.8-2.6,1.8-3.4,3.1c-0.9,1.3-1.5,2.8-1.9,4.4c-0.4,1.7-0.6,3.4-0.6,5.1c0,1.7,0.2,3.3,0.6,4.9
			c0.4,1.6,1,3,1.9,4.3c0.9,1.3,2,2.3,3.4,3.1c1.4,0.8,3.1,1.2,5.2,1.2c2.8,0,4.9-0.8,6.5-2.5c1.6-1.7,2.5-3.8,2.8-6.5h8.7
			c-0.2,2.5-0.8,4.8-1.8,6.8c-1,2-2.2,3.8-3.8,5.2c-1.6,1.4-3.4,2.5-5.5,3.3c-2.1,0.8-4.4,1.1-7,1.1c-3.1,0-6-0.5-8.5-1.6
			c-2.5-1.1-4.6-2.5-6.3-4.4c-1.7-1.9-3-4.1-4-6.6c-0.9-2.5-1.4-5.3-1.4-8.2c0-3,0.5-5.8,1.4-8.4c0.9-2.6,2.2-4.8,4-6.7
			c1.7-1.9,3.8-3.4,6.3-4.5c2.5-1.1,5.3-1.6,8.5-1.6c2.3,0,4.4,0.3,6.4,1c2,0.6,3.8,1.6,5.4,2.8c1.6,1.2,2.9,2.7,3.9,4.5
			c1,1.8,1.7,3.9,2,6.2h-8.7C-164.2,240.3-164.5,239.3-165,238.5z"/>
		<path fill="#FFFFFF" d="M-112.8,227.8v7.4h-21.7v8.6h19.9v6.9h-19.9v9.9h22.1v7.4h-31.1v-40.2H-112.8z"/>
	</g>
	<g>
		<path fill="#FFFFFF" d="M-210.6,291.4c-0.5-0.8-1.2-1.6-2-2.2c-0.8-0.6-1.7-1.1-2.7-1.5c-1-0.4-2.1-0.5-3.2-0.5
			c-2,0-3.8,0.4-5.2,1.2c-1.4,0.8-2.6,1.8-3.4,3.1c-0.9,1.3-1.5,2.8-1.9,4.4c-0.4,1.7-0.6,3.4-0.6,5.1c0,1.7,0.2,3.3,0.6,4.9
			c0.4,1.6,1,3,1.9,4.3c0.9,1.3,2,2.3,3.4,3.1c1.4,0.8,3.1,1.2,5.2,1.2c2.8,0,4.9-0.8,6.5-2.5c1.6-1.7,2.5-3.8,2.8-6.5h8.7
			c-0.2,2.5-0.8,4.8-1.8,6.8c-1,2-2.2,3.8-3.8,5.2c-1.6,1.4-3.4,2.5-5.5,3.3c-2.1,0.8-4.4,1.1-7,1.1c-3.1,0-6-0.5-8.5-1.6
			c-2.5-1.1-4.6-2.5-6.3-4.4c-1.7-1.9-3-4.1-4-6.6s-1.4-5.3-1.4-8.2c0-3,0.5-5.8,1.4-8.4c0.9-2.6,2.2-4.8,4-6.7
			c1.7-1.9,3.8-3.4,6.3-4.5c2.5-1.1,5.3-1.6,8.5-1.6c2.3,0,4.4,0.3,6.4,1c2,0.6,3.8,1.6,5.4,2.8c1.6,1.2,2.9,2.7,3.9,4.5
			c1,1.8,1.7,3.9,2,6.2h-8.7C-209.8,293.2-210.1,292.3-210.6,291.4z"/>
		<path fill="#FFFFFF" d="M-212.7,375.2c-2,0.8-3.9,1.2-5.9,1.2c-3.1,0-6-0.5-8.5-1.6c-2.5-1.1-4.6-2.5-6.3-4.4
			c-1.7-1.9-3-4.1-4-6.6s-1.4-5.3-1.4-8.2c0-3,0.5-5.8,1.4-8.4c0.9-2.6,2.2-4.8,4-6.7c1.7-1.9,3.8-3.4,6.3-4.5
			c2.5-1.1,5.3-1.6,8.5-1.6c2.1,0,4.1,0.3,6.1,0.9c2,0.6,3.8,1.5,5.3,2.7c1.6,1.2,2.9,2.7,3.9,4.4c1,1.8,1.7,3.8,1.9,6.1h-8.6
			c-0.5-2.3-1.6-3.9-3.1-5.1c-1.5-1.1-3.4-1.7-5.6-1.7c-2,0-3.8,0.4-5.2,1.2c-1.4,0.8-2.6,1.8-3.4,3.1c-0.9,1.3-1.5,2.8-1.9,4.4
			c-0.4,1.7-0.6,3.4-0.6,5.1c0,1.7,0.2,3.3,0.6,4.9c0.4,1.6,1,3,1.9,4.3c0.9,1.3,2,2.3,3.4,3.1c1.4,0.8,3.1,1.2,5.2,1.2
			c3,0,5.3-0.7,6.9-2.2c1.6-1.5,2.6-3.6,2.8-6.4h-9.1v-6.6h17.2v21.7h-5.7l-0.9-4.6C-208.9,373-210.7,374.4-212.7,375.2z"/>
		<path fill="#FFFFFF" d="M-210.6,400.6c-0.5-0.8-1.2-1.6-2-2.2c-0.8-0.6-1.7-1.1-2.7-1.5c-1-0.4-2.1-0.5-3.2-0.5
			c-2,0-3.8,0.4-5.2,1.2c-1.4,0.8-2.6,1.8-3.4,3.1c-0.9,1.3-1.5,2.8-1.9,4.4c-0.4,1.7-0.6,3.4-0.6,5.1c0,1.7,0.2,3.3,0.6,4.9
			c0.4,1.6,1,3,1.9,4.3c0.9,1.3,2,2.3,3.4,3.1c1.4,0.8,3.1,1.2,5.2,1.2c2.8,0,4.9-0.8,6.5-2.5c1.6-1.7,2.5-3.8,2.8-6.5h8.7
			c-0.2,2.5-0.8,4.8-1.8,6.8c-1,2-2.2,3.8-3.8,5.2c-1.6,1.4-3.4,2.5-5.5,3.3c-2.1,0.8-4.4,1.1-7,1.1c-3.1,0-6-0.5-8.5-1.6
			c-2.5-1.1-4.6-2.5-6.3-4.4c-1.7-1.9-3-4.1-4-6.6c-0.9-2.5-1.4-5.3-1.4-8.2c0-3,0.5-5.8,1.4-8.4c0.9-2.6,2.2-4.8,4-6.7
			c1.7-1.9,3.8-3.4,6.3-4.5c2.5-1.1,5.3-1.6,8.5-1.6c2.3,0,4.4,0.3,6.4,1c2,0.6,3.8,1.6,5.4,2.8c1.6,1.2,2.9,2.7,3.9,4.5
			c1,1.8,1.7,3.9,2,6.2h-8.7C-209.8,402.4-210.1,401.5-210.6,400.6z"/>
	</g>
	<g>
		<path fill="#EE334E" d="M-149.9,308.6l-4.4,12.7l-9.8-4l4.6,25.7l-13.4-12.5v7.4l-10.7-3l2.8,8.1c0,0,0.9,1.6-1,2.6l-4.8,1.1
			l18.3,13.4l-2.3,5.5l21.1-2.6v19.6h2.1V363l17.6,2.5l-2.4-4.6l18.8-14.2l-4.7-1.1c0,0-1.4-0.5-1-2.6l2.7-7.8l-10.4,2.4l-0.1-7.3
			l-13.2,12.7l4.4-25.7l-9.8,3.8L-149.9,308.6z"/>
		<path fill="#FFFFFF" d="M-146.8,383.3h-3.3v-19.6l-21.4,2.6l2.5-6l-19-13.8l6-1.4c0.4-0.2,0.7-0.5,0.8-0.9
			c0.1-0.5-0.1-0.9-0.1-0.9l0-0.1l-3.2-9.1l11,3.1v-8l13.1,12.2l-4.4-25.1l10.2,4.1l4.7-13.6l4.8,13.5l10.2-4l-4.3,25l12.9-12.4
			l0.2,7.8l10.7-2.5l-3,8.8c-0.3,1.4,0.4,1.9,0.6,1.9l5.8,1.3l-19.4,14.7l2.7,5.1l-18-2.5V383.3z M-148.9,382.1h1v-19.8l17.1,2.4
			l-2.1-4l18.2-13.8l-3.6-0.8c-0.7-0.2-1.8-1.2-1.4-3.3l0-0.1l2.4-6.8l-10.1,2.3l-0.1-6.7l-13.5,13l4.5-26.4l-9.4,3.7l-4.1-11.5
			L-154,322l-9.4-3.8l4.7,26.4l-13.7-12.8v6.8l-10.3-2.9l2.5,7c0.1,0.2,0.4,0.9,0.1,1.7c-0.2,0.6-0.7,1.2-1.4,1.6l-0.1,0.1l-3.6,0.9
			l17.7,12.9l-2.1,5.1l20.8-2.5V382.1z"/>
	</g>
	<g>
		<path fill="#FFFFFF" d="M-166.5,405.1v-9.3h-3.7v-2.2c0.5,0,1,0,1.5-0.1c0.5-0.1,0.9-0.2,1.3-0.5c0.4-0.2,0.7-0.5,1-0.9
			c0.3-0.4,0.4-0.8,0.5-1.4h2.4v14.4H-166.5z"/>
		<path fill="#FFFFFF" d="M-158.6,392.6c0.3-0.5,0.7-0.9,1.1-1.2c0.5-0.3,1-0.6,1.6-0.7c0.6-0.2,1.2-0.2,1.8-0.2
			c0.9,0,1.7,0.1,2.3,0.4c0.6,0.3,1.1,0.6,1.5,1c0.4,0.4,0.7,0.8,0.8,1.3c0.2,0.4,0.3,0.8,0.3,1.2c0,0.7-0.2,1.3-0.5,1.9
			c-0.4,0.5-0.9,0.9-1.6,1.1v0c0.9,0.2,1.6,0.6,2,1.2c0.5,0.6,0.7,1.4,0.7,2.3c0,0.8-0.2,1.4-0.5,2c-0.3,0.6-0.7,1-1.2,1.4
			c-0.5,0.4-1.1,0.6-1.8,0.8c-0.7,0.2-1.3,0.3-2,0.3c-0.7,0-1.4-0.1-2.1-0.3c-0.7-0.2-1.3-0.4-1.8-0.8c-0.5-0.4-0.9-0.8-1.3-1.4
			c-0.3-0.6-0.5-1.2-0.5-2c0-0.9,0.2-1.7,0.7-2.3c0.5-0.6,1.2-1,2-1.2v0c-0.7-0.2-1.2-0.6-1.6-1.1c-0.4-0.5-0.5-1.2-0.5-1.9
			C-159,393.7-158.9,393.1-158.6,392.6z M-156.4,401.7c0.1,0.3,0.3,0.6,0.6,0.8c0.2,0.2,0.5,0.4,0.8,0.5c0.3,0.1,0.7,0.2,1,0.2
			c0.4,0,0.7-0.1,1-0.2c0.3-0.1,0.6-0.3,0.8-0.5c0.2-0.2,0.4-0.5,0.5-0.8c0.1-0.3,0.2-0.6,0.2-1c0-0.3-0.1-0.7-0.2-0.9
			c-0.1-0.3-0.3-0.5-0.5-0.7c-0.2-0.2-0.5-0.4-0.8-0.5c-0.3-0.1-0.6-0.2-1-0.2c-0.7,0-1.3,0.2-1.8,0.6c-0.5,0.4-0.8,1-0.8,1.7
			C-156.7,401.1-156.6,401.4-156.4,401.7z M-155.7,396c0.4,0.3,1,0.5,1.6,0.5c0.6,0,1.2-0.2,1.6-0.5c0.4-0.3,0.6-0.8,0.6-1.4
			c0-0.2,0-0.4-0.1-0.6c-0.1-0.2-0.2-0.4-0.3-0.6c-0.2-0.2-0.4-0.4-0.7-0.5c-0.3-0.1-0.7-0.2-1.1-0.2c-0.3,0-0.6,0-0.8,0.1
			c-0.3,0.1-0.5,0.2-0.7,0.4c-0.2,0.2-0.4,0.4-0.5,0.6c-0.1,0.2-0.2,0.5-0.2,0.9C-156.3,395.2-156.1,395.7-155.7,396z"/>
		<path fill="#FFFFFF" d="M-146.8,392.6c0.3-0.5,0.7-0.9,1.1-1.2c0.5-0.3,1-0.6,1.6-0.7c0.6-0.2,1.2-0.2,1.8-0.2
			c0.9,0,1.7,0.1,2.3,0.4c0.6,0.3,1.1,0.6,1.5,1c0.4,0.4,0.7,0.8,0.8,1.3c0.2,0.4,0.3,0.8,0.3,1.2c0,0.7-0.2,1.3-0.5,1.9
			c-0.4,0.5-0.9,0.9-1.6,1.1v0c0.9,0.2,1.6,0.6,2,1.2c0.5,0.6,0.7,1.4,0.7,2.3c0,0.8-0.2,1.4-0.5,2c-0.3,0.6-0.7,1-1.2,1.4
			c-0.5,0.4-1.1,0.6-1.8,0.8c-0.7,0.2-1.3,0.3-2,0.3c-0.7,0-1.4-0.1-2.1-0.3c-0.7-0.2-1.3-0.4-1.8-0.8c-0.5-0.4-0.9-0.8-1.3-1.4
			c-0.3-0.6-0.5-1.2-0.5-2c0-0.9,0.2-1.7,0.7-2.3c0.5-0.6,1.2-1,2-1.2v0c-0.7-0.2-1.2-0.6-1.6-1.1c-0.4-0.5-0.5-1.2-0.5-1.9
			C-147.2,393.7-147.1,393.1-146.8,392.6z M-144.7,401.7c0.1,0.3,0.3,0.6,0.6,0.8c0.2,0.2,0.5,0.4,0.8,0.5c0.3,0.1,0.7,0.2,1,0.2
			c0.4,0,0.7-0.1,1-0.2c0.3-0.1,0.6-0.3,0.8-0.5c0.2-0.2,0.4-0.5,0.5-0.8c0.1-0.3,0.2-0.6,0.2-1c0-0.3-0.1-0.7-0.2-0.9
			c-0.1-0.3-0.3-0.5-0.5-0.7c-0.2-0.2-0.5-0.4-0.8-0.5c-0.3-0.1-0.6-0.2-1-0.2c-0.7,0-1.3,0.2-1.8,0.6c-0.5,0.4-0.8,1-0.8,1.7
			C-144.9,401.1-144.8,401.4-144.7,401.7z M-143.9,396c0.4,0.3,1,0.5,1.6,0.5c0.6,0,1.2-0.2,1.6-0.5c0.4-0.3,0.6-0.8,0.6-1.4
			c0-0.2,0-0.4-0.1-0.6c-0.1-0.2-0.2-0.4-0.3-0.6c-0.2-0.2-0.4-0.4-0.7-0.5c-0.3-0.1-0.7-0.2-1.1-0.2c-0.3,0-0.6,0-0.8,0.1
			c-0.3,0.1-0.5,0.2-0.7,0.4c-0.2,0.2-0.4,0.4-0.5,0.6c-0.1,0.2-0.2,0.5-0.2,0.9C-144.5,395.2-144.3,395.7-143.9,396z"/>
		<path fill="#FFFFFF" d="M-127.6,395.6c-0.6,1-1.1,2-1.5,3.1c-0.4,1.1-0.7,2.2-0.9,3.3c-0.2,1.1-0.3,2.1-0.3,3.1h-3.2
			c0.2-2.1,0.7-4.2,1.5-6.2c0.9-2,2-3.8,3.4-5.5h-6.9v-2.7h10v2.5C-126.3,393.9-127,394.7-127.6,395.6z"/>
	</g>
</g>
</svg>
