<?xml version="1.0" encoding="utf-8"?>
<!-- Generator: Adobe Illustrator 18.0.0, SVG Export Plug-In . SVG Version: 6.00 Build 0)  -->
<!DOCTYPE svg PUBLIC "-//W3C//DTD SVG 1.1//EN" "http://www.w3.org/Graphics/SVG/1.1/DTD/svg11.dtd">
<svg version="1.1" id="Layer_1" xmlns="http://www.w3.org/2000/svg" xmlns:xlink="http://www.w3.org/1999/xlink" x="0px" y="0px"
	 viewBox="228.4 754.5 700 400" enable-background="new 228.4 754.5 700 400" xml:space="preserve">
<g>
	<g>
		<g>
			<path fill="#42669A" d="M423.6,1109.6c0,2.4-2.2,4-5.9,4c-0.9,0-1.9-0.1-2.6-0.4c-1.2-0.4-1.2-1.2-1.2-1.8v-9.9
				c0-0.8,0-1.6,1.2-1.8c0.5-0.2,1.8-0.4,2.6-0.4c3.6,0,5.6,1.6,5.6,3.6c0,1.6-0.9,2.6-2.6,3C422.6,1106.6,423.6,1108,423.6,1109.6z
				 M416.4,1102v3.3h1.3c0.5,0,0.9-0.1,1.3-0.2c0.8-0.4,1.2-0.8,1.2-1.6c0-1-0.8-1.7-2.6-1.7C417.2,1101.9,416.9,1101.9,416.4,1102z
				 M420.5,1109.3c0-0.9-0.5-1.6-1.3-1.7c-0.5-0.1-0.9-0.2-1.6-0.2h-1.3v3.6c0.5,0.1,0.9,0.1,1.3,0.1
				C419.7,1111.1,420.5,1110.5,420.5,1109.3z"/>
			<path fill="#42669A" d="M434.2,1109.6c0.2-0.5,0.4-0.9,0.4-1.6v-7.4c0-0.8,0.5-1.2,1.3-1.2c0.9,0,1.3,0.5,1.3,1.2v7.5
				c0,1.2-0.2,1.9-0.5,2.8c-0.9,2-2.8,2.8-5,2.8c-2.5,0-4.2-0.9-5-2.8c-0.4-0.8-0.5-1.7-0.5-2.8v-7.7c0-0.8,0.5-1.2,1.6-1.2
				c1.1,0,1.6,0.5,1.6,1.2v7.5c0,0.5,0.1,1.2,0.4,1.6c0.5,1,1.3,1.6,2.5,1.6C433.1,1111.1,433.8,1110.6,434.2,1109.6z"/>
			<path fill="#42669A" d="M443.4,1112.6c0,0.8-0.5,1.2-1.6,1.2c-1,0-1.6-0.5-1.6-1.2v-11.9c0-0.8,0.5-1.2,1.6-1.2
				c1,0,1.6,0.5,1.6,1.2V1112.6z"/>
			<path fill="#42669A" d="M453.8,1111c0.8,0,1.2,0.5,1.2,1.3c0,0.9-0.4,1.3-1.2,1.3H448c-1,0-1.6-0.5-1.6-1.6v-11.4
				c0-0.8,0.5-1.2,1.6-1.2s1.6,0.5,1.6,1.2v10.2L453.8,1111L453.8,1111z"/>
			<path fill="#42669A" d="M461.1,1113.8c-0.9,0-1.8-0.1-2.6-0.4c-1.2-0.4-1.2-1.2-1.2-1.8v-10c0-0.8,0-1.6,1.2-1.8
				c0.5-0.2,1.8-0.4,2.8-0.4c4.9,0,7.7,2.6,7.7,7.1S465.8,1113.8,461.1,1113.8z M461.2,1111c2.9,0,4.6-1.7,4.6-4.6s-1.6-4.7-4.6-4.7
				c-0.4,0-0.8,0-1.2,0.1v8.9C460.5,1111,460.8,1111,461.2,1111z"/>
			<path fill="#42669A" d="M474.3,1112.6c0,0.8-0.5,1.2-1.6,1.2c-1.1,0-1.6-0.5-1.6-1.2v-11.9c0-0.8,0.5-1.2,1.6-1.2
				c1.1,0,1.6,0.5,1.6,1.2V1112.6z"/>
			<path fill="#42669A" d="M480.3,1112.6c0,0.8-0.5,1.2-1.3,1.2c-0.9,0-1.3-0.5-1.3-1.2v-11.4c0-1.2,0.5-1.6,1.8-1.6
				c1.3,0,1.8,0.5,2.3,1.3l5,8.9v-9c0-0.8,0.5-1.2,1.3-1.2s1.3,0.5,1.3,1.2v11.4c0,1-0.5,1.6-1.8,1.6c-1.2,0-1.7-0.5-2.2-1.3l-5.4-9
				v9.1H480.3L480.3,1112.6z"/>
			<path fill="#42669A" d="M499.3,1108.4c-0.8,0-1.2-0.5-1.2-1.3c0-0.9,0.4-1.3,1.2-1.3h3.2c1,0,1.6,0.5,1.6,1.6v4
				c0,0.9-0.4,1.3-1.2,1.8c-0.9,0.4-2.3,0.5-3.6,0.5c-4,0-7-2.5-7-7.1c0-4.7,2.9-7.1,6.8-7.1c1.3,0,2.6,0.4,3.6,0.9
				c0.7,0.5,1.2,0.9,1.2,1.3c0,0.5-0.7,1.3-1.3,1.3c-0.4,0-0.5-0.4-1.2-0.5c-0.7-0.4-1.6-0.5-2.3-0.5c-2.4,0-3.8,1.6-3.8,4.6
				c0,3,1.7,4.7,4.1,4.7c0.5,0,1.3-0.1,1.8-0.4v-2.6h-1.8L499.3,1108.4L499.3,1108.4z"/>
			<path fill="#42669A" d="M517.4,1112.7c0,0.5-0.4,0.8-0.9,0.8c-0.5,0-0.9-0.4-0.9-0.8v-11.6H512c-0.5,0-0.8-0.4-0.8-0.8
				s0.4-0.9,0.8-0.9h9.5c0.5,0,0.8,0.4,0.8,0.9s-0.4,0.8-0.8,0.8h-3.8L517.4,1112.7L517.4,1112.7z"/>
			<path fill="#42669A" d="M529.9,1099.2c4,0,6.7,2.8,6.7,7.1s-2.6,7.1-6.7,7.1c-4.1,0-6.7-2.8-6.7-7.1
				C523.2,1102,525.8,1099.2,529.9,1099.2z M529.9,1112.1c2.9,0,4.8-2.2,4.8-5.7c0-3.6-1.8-5.7-4.8-5.7c-2.9,0-4.8,2.3-4.8,5.7
				C525.2,1109.8,526.9,1112.1,529.9,1112.1z"/>
			<path fill="#42669A" d="M547.9,1110.6c-0.4,0.5-0.5,0.9-1.2,0.9c-0.5,0-0.9-0.4-1.2-0.9l-3.8-8.9l-0.7,11
				c-0.1,0.5-0.4,0.8-0.9,0.8s-0.9-0.4-0.9-0.8l0.9-12.2c0.1-0.8,0.4-1.2,1.2-1.2c0.8,0,1.2,0.4,1.6,1.2l3.8,8.8l3.8-8.8
				c0.4-0.8,0.7-1.2,1.6-1.2s1.2,0.5,1.2,1.2l0.9,12.2c0,0.5-0.4,0.8-0.9,0.8c-0.5,0-0.9-0.4-0.9-0.8l-0.8-11L547.9,1110.6z"/>
			<path fill="#42669A" d="M564,1099.2c4,0,6.7,2.8,6.7,7.1s-2.6,7.1-6.7,7.1c-4.1,0-6.7-2.8-6.7-7.1
				C557.3,1102.2,559.8,1099.2,564,1099.2z M564,1112.1c2.9,0,4.8-2.2,4.8-5.7c0-3.6-1.8-5.7-4.8-5.7c-2.9,0-4.8,2.3-4.8,5.7
				C559.1,1109.8,560.9,1112.1,564,1112.1z"/>
			<path fill="#42669A" d="M583.1,1113.1c0,0.4-0.4,0.5-0.9,0.5c-0.8,0-1-0.4-1.3-0.9l-3-4.4c-0.5,0.1-0.9,0.1-1.3,0.1
				c-0.4,0-0.8,0-1-0.1v4.6c0,0.5-0.4,0.8-0.9,0.8s-0.9-0.4-0.9-0.8V1101c0-0.5,0-1.2,0.9-1.3c0.5-0.2,1.6-0.4,2.3-0.4
				c3.3,0,5.6,1.6,5.6,4.3c0,1.9-1,3.4-2.9,4.1l2.9,4.2C583.1,1112.7,583.1,1112.9,583.1,1113.1z M576.6,1106.9c2.6,0,4-1.2,4-2.9
				c0-1.9-1.6-2.9-3.6-2.9c-0.5,0-0.9,0.1-1.3,0.1v5.7C575.7,1106.9,576.2,1106.9,576.6,1106.9z"/>
			<path fill="#42669A" d="M595.3,1113.1c0,0.4-0.4,0.5-0.9,0.5c-0.8,0-1-0.4-1.3-0.9l-3-4.4c-0.5,0.1-0.9,0.1-1.3,0.1
				c-0.4,0-0.8,0-1-0.1v4.6c0,0.5-0.4,0.8-0.9,0.8c-0.5,0-0.9-0.4-0.9-0.8V1101c0-0.5,0-1.2,0.9-1.3c0.5-0.2,1.6-0.4,2.3-0.4
				c3.3,0,5.6,1.6,5.6,4.3c0,1.9-1,3.4-2.9,4.1l2.9,4.2C595.2,1112.7,595.3,1112.9,595.3,1113.1z M588.7,1106.9c2.6,0,4-1.2,4-2.9
				c0-1.9-1.6-2.9-3.6-2.9c-0.5,0-0.9,0.1-1.3,0.1v5.7C588.1,1106.9,588.3,1106.9,588.7,1106.9z"/>
			<path fill="#42669A" d="M603.8,1099.2c4,0,6.7,2.8,6.7,7.1s-2.6,7.1-6.7,7.1s-6.7-2.8-6.7-7.1
				C597.2,1102.2,599.8,1099.2,603.8,1099.2z M603.8,1112.1c2.9,0,4.8-2.2,4.8-5.7c0-3.6-1.8-5.7-4.8-5.7c-2.9,0-4.8,2.3-4.8,5.7
				C598.9,1109.8,601,1112.1,603.8,1112.1z"/>
			<path fill="#42669A" d="M618,1112.7c-0.2,0.7-0.5,0.9-1.3,0.9c-0.8,0-1.2-0.4-1.2-0.9l-3.2-12c-0.1-0.2-0.1-0.5-0.1-0.5
				c0-0.4,0.2-0.5,0.9-0.5s0.9,0.4,1,0.9l2.6,11l3.2-10.2c0.2-0.5,0.5-0.9,1.2-0.9s1,0.4,1.2,0.9l3.2,10.2l2.8-11
				c0.2-0.5,0.4-0.9,0.9-0.9c0.7,0,0.9,0.4,0.9,0.5s0,0.5-0.1,0.5l-3.2,12c-0.2,0.5-0.5,0.9-1.2,0.9c-0.8,0-1.2-0.4-1.3-0.9
				l-3.2-10.2L618,1112.7z"/>
			<path fill="#42669A" d="M635.2,1099.5c0,0.4-0.2,1.2-0.9,3.2c-0.4,0.9-0.5,1.2-1.2,1.2c-0.5,0-0.7-0.4-0.7-0.5s0.1-0.4,0.1-0.5
				l0.8-2.9c0.1-0.5,0.4-0.9,1-0.9C635,1098.9,635.2,1099.1,635.2,1099.5z"/>
			<path fill="#42669A" d="M637.5,1103.1c0-2.3,1.8-3.6,4.4-3.6c1.2,0,2.4,0.4,3.3,0.9c0.5,0.4,0.7,0.5,0.7,0.9
				c0,0.5-0.4,0.9-0.8,0.9c-0.2,0-0.4-0.2-0.8-0.4c-0.8-0.5-1.6-0.7-2.5-0.7c-1.7,0-2.6,0.9-2.6,1.9c0,2.9,7,2.3,7,6.8
				c0,2.6-2,4-4.8,4c-1.6,0-2.6-0.5-3.6-1.2c-0.5-0.4-0.7-0.5-0.7-0.9c0-0.5,0.4-0.9,0.8-0.9c0.4,0,0.5,0.2,0.9,0.5
				c0.8,0.5,1.6,0.9,2.6,0.9c1.7,0,2.9-0.9,2.9-2.3C644.6,1106.5,637.5,1107.4,637.5,1103.1z"/>
			<path fill="#42669A" d="M654.1,1103.1c0-2.3,1.8-3.6,4.4-3.6c1.2,0,2.4,0.4,3.3,0.9c0.5,0.4,0.7,0.5,0.7,0.9
				c0,0.5-0.4,0.9-0.8,0.9c-0.2,0-0.4-0.2-0.8-0.4c-0.8-0.5-1.6-0.7-2.5-0.7c-1.7,0-2.6,0.9-2.6,1.9c0,2.9,7,2.3,7,6.8
				c0,2.6-2,4-4.8,4c-1.6,0-2.6-0.5-3.6-1.2c-0.5-0.4-0.7-0.5-0.7-0.9c0-0.5,0.4-0.9,0.8-0.9c0.4,0,0.5,0.2,0.9,0.5
				c0.8,0.5,1.6,0.9,2.6,0.9c1.7,0,2.9-0.9,2.9-2.3C661.1,1106.5,654.1,1107.4,654.1,1103.1z"/>
			<path fill="#42669A" d="M671.8,1099.2c4,0,6.7,2.8,6.7,7.1s-2.6,7.1-6.7,7.1s-6.7-2.8-6.7-7.1
				C665.2,1102.2,667.8,1099.2,671.8,1099.2z M671.8,1112.1c2.9,0,4.8-2.2,4.8-5.7c0-3.6-1.8-5.7-4.8-5.7c-2.9,0-4.8,2.3-4.8,5.7
				C667.1,1109.8,669.1,1112.1,671.8,1112.1z"/>
			<path fill="#42669A" d="M687.8,1112.1c0.9,0,1.8-0.4,2.6-0.7c0.5-0.4,0.7-0.5,0.9-0.5c0.5,0,0.8,0.5,0.8,0.9s-0.4,0.7-0.9,1
				c-0.9,0.5-2.2,0.9-3.6,0.9c-3.8,0-6.6-2.9-6.6-7.3c0-4.4,2.6-7.1,6.6-7.1c1.3,0,2.6,0.4,3.6,0.9c0.5,0.4,0.9,0.7,0.9,1
				c0,0.4-0.4,0.9-0.8,0.9s-0.5-0.4-0.9-0.5c-0.7-0.5-1.6-0.7-2.6-0.7c-2.8,0-4.7,1.9-4.7,5.6C683,1109.9,684.9,1112.1,687.8,1112.1
				z"/>
			<path fill="#42669A" d="M696.9,1112.7c0,0.5-0.4,0.8-0.9,0.8c-0.5,0-0.9-0.4-0.9-0.8v-12.6c0-0.5,0.4-0.8,0.9-0.8
				c0.5,0,0.9,0.4,0.9,0.8V1112.7z"/>
			<path fill="#42669A" d="M707.1,1105.4c0.5,0,0.8,0.4,0.8,0.8s-0.4,0.9-0.8,0.9h-4.8v4.8h5.8c0.5,0,0.8,0.4,0.8,0.9
				s-0.4,0.9-0.8,0.9h-6.6c-0.7,0-0.9-0.4-0.9-0.9v-12c0-0.7,0.4-0.9,0.9-0.9h6.5c0.5,0,0.8,0.4,0.8,0.9c0,0.5-0.4,0.8-0.8,0.8h-5.7
				v4.3h4.8V1105.4L707.1,1105.4z"/>
			<path fill="#42669A" d="M716.9,1112.7c0,0.5-0.4,0.8-0.9,0.8c-0.5,0-0.9-0.4-0.9-0.8v-11.6h-3.7c-0.5,0-0.8-0.4-0.8-0.8
				s0.4-0.9,0.8-0.9h9.5c0.5,0,0.8,0.4,0.8,0.9s-0.4,0.8-0.8,0.8h-3.7L716.9,1112.7L716.9,1112.7z"/>
			<path fill="#42669A" d="M732.9,1100.2c0.4-0.5,0.5-0.7,1.2-0.7c0.5,0,0.9,0.2,0.9,0.5c0,0.4-0.2,0.5-0.5,0.9l-4.7,7.8v4
				c0,0.5-0.4,0.8-0.9,0.8c-0.5,0-0.9-0.4-0.9-0.8v-4l-4.7-7.8c-0.4-0.4-0.5-0.7-0.5-0.9c0-0.4,0.4-0.5,0.9-0.5
				c0.7,0,0.9,0.4,1.2,0.7l3.8,6.8L732.9,1100.2z"/>
		</g>
		<g>
			<path fill="#42669A" d="M425.3,1136.8c0,2.8-2.4,4.7-6.8,4.7c-1,0-2.3-0.1-3-0.4c-1.3-0.5-1.6-1.3-1.6-2.2v-11.2
				c0-0.9,0-1.8,1.6-2.2c0.7-0.2,1.9-0.4,3-0.4c4,0,6.2,1.6,6.2,4.3c0,1.8-1,3-2.9,3.6C424.2,1133.5,425.3,1134.9,425.3,1136.8z
				 M417.2,1128.2v3.6h1.6c0.5,0,1.2-0.1,1.6-0.2c0.9-0.4,1.3-0.9,1.3-1.8c0-1.2-0.9-1.9-2.9-1.9
				C418.1,1128,417.6,1128,417.2,1128.2z M421.9,1136.6c0-0.9-0.5-1.6-1.6-1.9c-0.5-0.2-1-0.4-1.7-0.4H417v4.2
				c0.5,0.1,0.9,0.1,1.6,0.1C421.1,1138.9,421.9,1137.8,421.9,1136.6z"/>
			<path fill="#42669A" d="M441.4,1140.5c0,0.5-0.5,0.9-1.6,0.9s-1.6-0.4-1.8-1.2l-0.9-2.6h-5.9l-0.9,2.6c-0.4,0.8-0.7,1.2-1.8,1.2
				s-1.6-0.5-1.6-0.9s0.1-0.5,0.4-1.2l4.6-12.4c0.5-1.3,0.9-1.7,2.4-1.7c1.6,0,1.9,0.5,2.4,1.7l4.6,12.4
				C441.4,1139.8,441.4,1140.2,441.4,1140.5z M430.8,1123.1c0-0.5,0.5-0.9,0.9-1.2l1.2-0.9c0.4-0.4,0.8-0.5,1.6-0.5s1.2,0.5,1.6,0.5
				l1.2,0.9c0.5,0.4,0.9,0.7,0.9,1.2c0,0.5-0.5,1.2-1.2,1.2c-0.5,0-0.7-0.2-1.6-0.9l-0.7-0.5l-0.7,0.5c-0.8,0.5-1.3,0.9-1.6,0.9
				C431.4,1124.2,430.8,1123.7,430.8,1123.1z M436.2,1134.9l-2-5.9l-2,5.9H436.2z"/>
			<path fill="#42669A" d="M449.3,1140.1c0,0.9-0.5,1.3-1.6,1.3c-1.2,0-1.6-0.5-1.6-1.3v-11.9h-3.3c-0.9,0-1.3-0.5-1.3-1.6
				c0-1,0.5-1.6,1.3-1.6h10c0.9,0,1.3,0.5,1.3,1.6c0,1-0.5,1.6-1.3,1.6h-3.3L449.3,1140.1L449.3,1140.1L449.3,1140.1z"/>
			<path fill="#42669A" d="M459.9,1140.1c0,0.9-0.5,1.3-1.6,1.3c-1.2,0-1.6-0.5-1.6-1.3v-13.6c0-0.9,0.5-1.3,1.6-1.3
				c1.2,0,1.6,0.5,1.6,1.3V1140.1z"/>
			<path fill="#42669A" d="M475.1,1140.5c0,0.5-0.5,0.9-1.6,0.9c-1.6,0-1.8-0.5-2.5-1.6l-2.6-3.8c-0.4,0-0.7,0.1-1,0.1
				c-0.4,0-0.7,0-0.9-0.1v4.1c0,0.9-0.5,1.3-1.6,1.3s-1.6-0.5-1.6-1.3v-12.4c0-0.9,0-1.8,1.6-2.2c0.7-0.2,1.9-0.4,2.9-0.4
				c4.1,0,6.6,1.8,6.6,5.3c0,2.2-1,3.7-2.9,4.8l2.5,3.3C475,1139.7,475.1,1140.1,475.1,1140.5z M467.7,1133.3c2.3,0,3.6-1,3.6-2.6
				c0-1.7-1.3-2.6-3.3-2.6c-0.5,0-0.9,0.1-1.2,0.1v5C467,1133.3,467.3,1133.3,467.7,1133.3z"/>
			<path fill="#42669A" d="M492,1139.4c0.5,0,0.9,0.4,0.9,0.9c0,0.5-0.4,0.9-0.9,0.9h-6.8c-0.8,0-1.2-0.4-1.2-1.2v-14.1
				c0-0.5,0.4-0.9,1-0.9s1,0.4,1,0.9v13.2L492,1139.4L492,1139.4z"/>
			<path fill="#42669A" d="M508.5,1140.9c0,0.4-0.4,0.5-0.9,0.5c-0.5,0-1-0.4-1.2-0.8l-1.3-3.6h-6.8l-1.3,3.6
				c-0.2,0.5-0.5,0.8-1.2,0.8c-0.7,0-0.9-0.4-0.9-0.5c0-0.4,0.1-0.5,0.2-0.8l5.4-13.7c0.4-0.9,0.5-1.2,1.6-1.2c1,0,1.2,0.4,1.6,1.2
				l5.3,13.7C508.4,1140.3,508.5,1140.7,508.5,1140.9z M504.3,1135.3l-2.8-7.4l-2.8,7.4H504.3z"/>
			<path fill="#42669A" d="M517,1129.4c0-2.6,2-4.2,5-4.2c1.3,0,2.8,0.4,3.6,1c0.5,0.4,0.9,0.7,0.9,1c0,0.5-0.5,1-0.9,1
				s-0.5-0.2-0.9-0.5c-0.9-0.5-1.7-0.9-2.8-0.9c-1.8,0-2.9,0.9-2.9,2.3c0,3.3,7.8,2.6,7.8,7.8c0,2.9-2.4,4.6-5.6,4.6
				c-1.6,0-2.9-0.5-4.1-1.3c-0.5-0.4-0.8-0.7-0.8-1.2c0-0.5,0.5-1,0.9-1s0.5,0.2,1,0.5c0.9,0.5,1.8,1,2.9,1c1.9,0,3.3-1,3.3-2.6
				C525,1133.5,517,1134.3,517,1129.4z"/>
			<path fill="#42669A" d="M537.5,1125.2c4.7,0,7.7,3.2,7.7,8.2c0,4.9-2.9,8.2-7.7,8.2c-4.7,0-7.7-3.2-7.7-8.2
				C529.7,1128.3,532.7,1125.2,537.5,1125.2z M537.5,1139.8c3.3,0,5.6-2.5,5.6-6.5c0-3.8-2.2-6.5-5.6-6.5c-3.4,0-5.6,2.5-5.6,6.5
				C531.8,1137.3,534.2,1139.8,537.5,1139.8z"/>
			<path fill="#42669A" d="M555.6,1139.8c1.2,0,2.2-0.4,2.9-0.8c0.5-0.4,0.8-0.5,1.2-0.5c0.5,0,0.9,0.5,0.9,0.9c0,0.5-0.5,0.8-1,1.2
				c-1.2,0.7-2.4,1.2-4,1.2c-4.4,0-7.5-3.2-7.5-8.3c0-5,3-8.1,7.4-8.1c1.6,0,2.9,0.5,4,1.2c0.7,0.5,1,0.8,1,1.2c0,0.5-0.5,1-0.9,1
				s-0.5-0.4-1-0.5c-0.9-0.5-1.8-0.8-2.9-0.8c-3.2,0-5.4,2.3-5.4,6.2C550.1,1137.3,552.2,1139.8,555.6,1139.8z"/>
			<path fill="#42669A" d="M565.9,1140.5c0,0.5-0.4,0.9-1,0.9c-0.7,0-1-0.4-1-0.9v-14.4c0-0.5,0.4-0.9,1-0.9c0.7,0,1,0.4,1,0.9
				V1140.5z"/>
			<path fill="#42669A" d="M577.6,1132.1c0.5,0,0.9,0.4,0.9,0.9c0,0.5-0.4,0.9-0.9,0.9h-5.4v5.6h6.6c0.5,0,0.9,0.4,0.9,0.9
				c0,0.5-0.4,0.9-0.9,0.9h-7.7c-0.8,0-1.2-0.4-1.2-1.2v-13.6c0-0.8,0.4-1.2,1.2-1.2h7.3c0.5,0,0.9,0.4,0.9,0.9
				c0,0.5-0.4,0.9-0.9,0.9h-6.4v4.9h5.7V1132.1z M575.7,1123.1c-1.3,0.8-1.6,0.9-1.8,0.9c-0.5,0-0.8-0.5-0.8-0.9
				c0-0.4,0.4-0.5,0.9-0.9l1.8-1.3c0.5-0.4,0.5-0.5,0.9-0.5c0.5,0,0.9,0.5,0.9,1C577.6,1122.2,576.8,1122.5,575.7,1123.1z"/>
			<path fill="#42669A" d="M588.9,1140.5c0,0.5-0.4,0.9-1,0.9c-0.7,0-1-0.4-1-0.9v-13.2h-4.3c-0.5,0-0.9-0.4-0.9-0.9
				s0.4-0.9,0.9-0.9h10.9c0.5,0,0.9,0.4,0.9,0.9s-0.4,0.9-0.9,0.9h-4.3v13.2H588.9z"/>
			<path fill="#42669A" d="M604.6,1132.1c0.5,0,0.9,0.4,0.9,0.9c0,0.5-0.4,0.9-0.9,0.9h-5.4v5.6h6.6c0.5,0,0.9,0.4,0.9,0.9
				c0,0.5-0.4,0.9-0.9,0.9h-7.5c-0.8,0-1.2-0.4-1.2-1.2v-13.6c0-0.8,0.4-1.2,1.2-1.2h7.3c0.5,0,0.9,0.4,0.9,0.9
				c0,0.5-0.4,0.9-0.9,0.9h-6.4v4.9h5.5V1132.1z M602.7,1123.1c-1.3,0.8-1.6,0.9-1.8,0.9c-0.5,0-0.8-0.5-0.8-0.9
				c0-0.4,0.4-0.5,0.9-0.9l1.8-1.3c0.5-0.4,0.5-0.5,0.9-0.5c0.5,0,0.9,0.5,0.9,1C604.7,1122.2,603.9,1122.5,602.7,1123.1z"/>
			<path fill="#42669A" d="M619.5,1141.5c-0.9,0-2-0.1-2.8-0.4c-1-0.4-1-0.8-1-1.6v-12.6c0-0.5,0-1.3,1-1.6c0.5-0.2,1.8-0.4,2.8-0.4
				c5.7,0,8.9,2.9,8.9,7.9C628.5,1138.6,625.2,1141.5,619.5,1141.5z M619.6,1139.7c4.3,0,6.7-2.3,6.7-6.4s-2.3-6.4-6.7-6.4
				c-0.5,0-1.2,0.1-1.8,0.2v12.3C618.5,1139.7,619,1139.7,619.6,1139.7z"/>
			<path fill="#42669A" d="M639.4,1132.1c0.5,0,0.9,0.4,0.9,0.9c0,0.5-0.4,0.9-0.9,0.9h-5.4v5.6h6.6c0.5,0,0.9,0.4,0.9,0.9
				c0,0.5-0.4,0.9-0.9,0.9h-7.5c-0.8,0-1.2-0.4-1.2-1.2v-13.6c0-0.8,0.4-1.2,1.2-1.2h7.3c0.5,0,0.9,0.4,0.9,0.9
				c0,0.5-0.4,0.9-0.9,0.9H634v4.9h5.4V1132.1z"/>
			<path fill="#42669A" d="M654.5,1141.5c-0.9,0-2-0.1-2.8-0.4c-1-0.4-1-0.8-1-1.6v-12.6c0-0.5,0-1.3,1-1.6c0.5-0.2,1.8-0.4,2.8-0.4
				c5.7,0,8.9,2.9,8.9,7.9C663.4,1138.6,660.2,1141.5,654.5,1141.5z M654.5,1139.7c4.3,0,6.7-2.3,6.7-6.4s-2.3-6.4-6.7-6.4
				c-0.5,0-1.2,0.1-1.8,0.2v12.3C653.3,1139.7,654.1,1139.7,654.5,1139.7z"/>
			<path fill="#42669A" d="M674.5,1132.1c0.5,0,0.9,0.4,0.9,0.9c0,0.5-0.4,0.9-0.9,0.9h-5.4v5.6h6.6c0.5,0,0.9,0.4,0.9,0.9
				c0,0.5-0.4,0.9-0.9,0.9h-7.5c-0.8,0-1.2-0.4-1.2-1.2v-13.6c0-0.8,0.4-1.2,1.2-1.2h7.3c0.5,0,0.9,0.4,0.9,0.9
				c0,0.5-0.4,0.9-0.9,0.9h-6.5v4.9h5.6V1132.1z"/>
			<path fill="#42669A" d="M689.2,1138c-0.4,0.7-0.5,0.9-1.2,0.9c-0.5,0-0.9-0.4-1.3-0.9l-4.6-10l-0.9,12.5c-0.1,0.5-0.4,0.9-1,0.9
				c-0.7,0-0.9-0.4-0.9-0.9l1-14c0.1-0.9,0.4-1.3,1.3-1.3c0.9,0,1.3,0.4,1.7,1.3l4.6,10l4.6-10c0.4-0.9,0.8-1.3,1.7-1.3
				s1.3,0.5,1.3,1.3l1,14c0,0.5-0.4,0.9-0.9,0.9c-0.7,0-1-0.4-1.2-0.9l-0.9-12.5L689.2,1138z"/>
			<path fill="#42669A" d="M713.3,1140.9c0,0.4-0.4,0.5-0.9,0.5c-0.8,0-1-0.4-1.2-0.8l-1.3-3.6h-7l-1.3,3.6
				c-0.2,0.5-0.5,0.8-1.2,0.8c-0.7,0-0.9-0.4-0.9-0.5c0-0.4,0.1-0.5,0.2-0.8l5.4-13.7c0.4-0.9,0.5-1.2,1.6-1.2c1,0,1.2,0.4,1.6,1.2
				l5.3,13.7C713.1,1140.3,713.3,1140.7,713.3,1140.9z M709.1,1135.3l-2.8-7.4l-2.8,7.4H709.1z"/>
			<path fill="#42669A" d="M718.5,1140.5c0,0.5-0.4,0.9-1,0.9c-0.7,0-1-0.4-1-0.9v-14.4c0-0.5,0.4-0.9,1-0.9c0.7,0,1,0.4,1,0.9
				V1140.5z"/>
			<path fill="#42669A" d="M724.8,1140.5c0,0.5-0.4,0.9-0.9,0.9c-0.7,0-1-0.4-1-0.9v-14.1c0-0.8,0.5-1.2,1.3-1.2s1.6,0.5,1.8,1
				l7.7,12v-12.2c0-0.5,0.4-0.9,0.9-0.9c0.7,0,1,0.4,1,0.9v14.1c0,0.8-0.5,1.2-1.2,1.2c-0.9,0-1.3-0.5-1.7-1.2l-7.8-12.2
				L724.8,1140.5L724.8,1140.5z"/>
		</g>
	</g>
	<g>
		<path fill="#899A3A" d="M698,945.6c-1.8,0-3.2,1.6-3.2,3.2v10.4h6.6v-10.4C701.2,947.2,699.7,945.6,698,945.6z M698.8,956.9h-1.6
			V949c0-0.5,0.4-0.9,0.9-0.9s0.9,0.4,0.9,0.9L698.8,956.9L698.8,956.9z"/>
		<path fill="#899A3A" d="M695,940.4h6.1c0.7,0,1.2-0.5,1.2-1.2s-0.5-1.2-1.2-1.2H695c-0.7,0-1.2,0.5-1.2,1.2
			C693.8,939.9,694.3,940.4,695,940.4z"/>
		<path fill="#899A3A" d="M701.1,943.4c0.7,0,1.2-0.5,1.2-1.2s-0.5-1.2-1.2-1.2h-6.1c-0.7,0-1.2,0.5-1.2,1.2c0,0.7,0.5,1.2,1.2,1.2
			H701.1z"/>
		<path fill="#899A3A" d="M499.2,958.9v-13.3c0-2.2-1.8-3.8-3.8-3.8c-2,0-3.8,1.8-3.8,3.8v13.3H499.2L499.2,958.9z M493.9,945.6
			c0-0.9,0.7-1.6,1.6-1.6s1.6,0.7,1.6,1.6v11h-2.9v-11H493.9z"/>
		<path fill="#899A3A" d="M518.1,958.9v-13.3c0-2.2-1.8-3.8-3.8-3.8s-3.8,1.8-3.8,3.8v13.3H518.1L518.1,958.9z M512.6,945.6
			c0-0.9,0.7-1.6,1.6-1.6s1.6,0.7,1.6,1.6v11h-2.9v-11H512.6z"/>
		
			<linearGradient id="SVGID_1_" gradientUnits="userSpaceOnUse" x1="272.3024" y1="115.9401" x2="272.3024" y2="152.2469" gradientTransform="matrix(4.0364 0 0 4.0364 -527.0689 424.6641)">
			<stop  offset="0" style="stop-color:#41669A"/>
			<stop  offset="0.3946" style="stop-color:#899B3A"/>
			<stop  offset="0.6493" style="stop-color:#899B3A"/>
			<stop  offset="0.8248" style="stop-color:#1D433F"/>
			<stop  offset="1" style="stop-color:#04273D"/>
		</linearGradient>
		<path fill="url(#SVGID_1_)" d="M752.6,999.4c0-4.8-2.4-10.2-8.9-10.6c0-0.2,0-0.4,0-0.5c0-6.4-5-11.5-11.5-11.5c-1,0-2,0.2-3,0.5
			V963l0.9-2.8c0.2-0.5,0.5-0.7,1-1.2c0.5-0.5-0.1-1.6-0.1-1.6l-10-15.1l-0.5-0.7v-4c0-0.7-0.5-1.2-1.2-1.2c-0.7,0-1.2,0.5-1.2,1.2
			v3.2h-2.5v-3.2c0-0.7-0.5-1.2-1.2-1.2s-1.2,0.5-1.2,1.2v3.2h-3.6V931h1.6c0.5,0,0.9-0.4,1.2-0.5c0.4-0.5,0.2-0.9,0-1.3l-2.9-4.6
			l-6.6-16.8v-3c0-0.7-0.5-1.2-1.2-1.2c-0.7,0-1.2,0.5-1.2,1.2v2.2h-3.6v-2c0-0.7-0.5-1.2-1.2-1.2s-1.2,0.5-1.2,1.2v3l-6.6,16.8
			l-2.9,4.6c-0.4,0.4-0.4,0.9,0,1.3c0.4,0.5,0.5,0.5,1.2,0.5h1.6v9.8h-4.8v-2.9c0-0.7-0.5-1.2-1.2-1.2s-1.2,0.5-1.2,1.2v2.9h-2.5
			v-2.9c0-0.7-0.5-1.2-1.2-1.2c-0.7,0-1.2,0.5-1.2,1.2v3.6l-11,15.7c0,0-0.7,0.9-0.1,1.6c0.5,0.5,0.9,0.5,1,1.2l0.9,2.8v5.9
			c-2-1.6-4.3-2.9-6.8-3.6v-41.1c0-0.7-0.5-1.2-1.2-1.2s-1.2,0.5-1.2,1.2v40.3c-1.3-0.4-2.6-0.4-3.8-0.4c-0.5,0-1,0-1.6,0.1
			c-0.5-7.8-7.3-14.3-15.4-14.3c-0.1,0-0.2,0-0.4,0c-4.2-9.9-13.6-16.1-24.3-16.1c-12,0-22.6,8.2-25.5,19.8
			c-2.9-1.8-6.5-2.8-9.9-2.8c-4.2,0-7.9,1.3-11.2,3.6l-1.2-4.9h2.6c0.7,0,1.2-0.5,1.2-1.2v-5.8c0-0.7-0.5-1.2-1.2-1.2h-3.6v-2.3h1.8
			c0.5,0,0.9-0.4,1.2-0.8c0.2-0.5,0-1-0.4-1.3l-10.7-9.1c-0.5-0.5-1.2-0.5-1.6,0l-10.9,9.5c-0.5,0.4-0.5,0.9-0.4,1.3
			c0.2,0.5,0.5,0.8,1.2,0.8h1.8v2.3h-3.4c-0.7,0-1.2,0.5-1.2,1.2v5.8c0,0.7,0.5,1.2,1.2,1.2h2.6l-1.7,7.8h-17.4v-25
			c0-12.7-11-17.3-14.4-18.5v-4.1c0-2.5-2.8-3.6-4.3-4.3v-0.7v-11c0-0.7-0.5-1.2-1.2-1.2s-1.2,0.5-1.2,1.2v11v0.5
			c-1.6,0.5-4.3,1.8-4.3,4.3v4.1c-3.3,1.2-14.4,5.8-14.4,18.5v25h-14.1c-1.3-2.3-3.6-3.7-6.6-3.8c-2.2-4.7-6.8-7.7-12-7.7
			c-5.8,0-10.8,3.6-12.5,9c-1.3-0.7-2.8-1-4.3-1c-5.6,0-9.9,4.4-9.9,9.9c0,0.1,0,0.2,0,0.2c-1.2,0.1-3.6,0.5-5.6,2.4
			c-1.6,1.6-2.3,3.8-2.2,6.8c0.1,1.3,0.5,2.5,0.9,3.6c-0.2,0.4-0.4,0.8-0.5,1.2c-1.6-0.9-3.4-1.3-5.3-1.3c-6.4,0-11.5,5-11.5,11.5
			c0,0.2,0,0.4,0,0.5c-1.7,0.1-4.3,0.9-6.5,2.9c-1.3,1.3-2.8,3.7-2.6,7.7c0.4,5.4,4.3,9.5,9.2,9.9c1.6,2.2,8.3,8.4,31.9,8.4l0,0
			c83.6,0,124.9,12.4,125.1,12.4c24.7,6.6,47.6,9,68,9c26.3,0,48.5-4.1,65.1-8.6c29.9-8.2,48.6-19.8,51.1-21.4
			C748.2,1008.9,752.6,1004.6,752.6,999.4z M709.1,943.6h9.2l8.6,13.1H709L709.1,943.6L709.1,943.6z M709.1,959h18.5l-0.9,2.6h-17.7
			V959z M726.3,964v13.1c-2.3-5.9-7.8-9.9-14.4-9.9c-1,0-2,0.1-3,0.4v-3.4L726.3,964L726.3,964z M703.3,986.8
			c0.5-0.1,0.8-0.1,1.2-0.1c5.6,0,10,4.6,10,10c0,5.6-4.6,10-10,10h-10.6h-13.7v-9.5l4.3-5.9c0.5-0.5,0.4-1.3-0.4-1.7
			c-0.5-0.5-1.3-0.4-1.7,0.4l-2.3,3.2v-7.3c0-0.7-0.5-1.2-1.2-1.2s-1.2,0.5-1.2,1.2v14.4l-14.4-4.6c-0.7-0.2-1.3,0.2-1.6,0.8
			c-0.2,0.7,0.2,1.3,0.8,1.6l15.1,4.7v4h-26.8c-4.1,0-7.5-3.3-7.5-7.5c0-1.8,0.5-7.8,6.8-8.1c0.4,0,0.5,0,0.9,0.1l1.7,0.4l-0.4-1.7
			c-0.1-0.4-0.1-0.5-0.1-0.8v-1.8c0.5-4.4,4.3-7.8,8.9-7.8c1.8,0,3.6,0.5,5.4,1.8l1.6,1.2l0.4-1.8c1.2-6.1,6.5-10.6,12.6-10.6
			c5.4,0,10.2,3.2,12,8.3l0.4,0.9l0.9-0.1c0.1,0,0.2,0,0.4,0c0.1,0,0.1,0,0.2,0c3.6,0,6.8,2.9,6.8,6.7v1.6L703.3,986.8z M583,999.6
			c-0.5-5.6-4-6.8-6.6-7.1c5-2.3,13.3-5.6,23.7-7.4c8.9-1.7,20.4-2.6,33-0.9c0.4,0.2,0.5,0.2,0.9,0.2c3.8,0.5,7.8,1.3,12,2.6
			L583,999.6z M574.9,1006.8h-4.4h-16.5v-2.8l11.9-3.6c0.7-0.2,1-0.9,0.8-1.6c-0.2-0.7-0.9-1-1.6-0.8l-11,3.4v-11.1
			c0-0.7-0.5-1.2-1.2-1.2s-1.2,0.5-1.2,1.2v4.9l-1.3-1.8c-0.5-0.5-1.2-0.7-1.7-0.4c-0.5,0.5-0.7,1.2-0.4,1.7l3.3,4.7v7.1h-19
			c-4.3,0-7.8-3.4-7.8-7.8s3.4-7.8,7.8-7.8c0.4,0,0.5,0,0.9,0.1l1.6,0.4v-1.2c0-0.1,0-0.1,0-0.2c0-2.8,2.3-5,5-5h0.1
			c0.1,0,0.2,0,0.4,0l0.9,0.1l0.4-0.9c1.6-3.7,5-6.5,9.2-6.5c4.8,0,8.9,3.4,9.8,8.1l0.4,1.8l1.6-1.2c1.2-0.9,2.6-1.3,4-1.3
			c3.6,0,6.8,3,6.8,6.8c0,0.4,0,0.7-0.1,1.2l-0.4,1.7l1.7-0.4c0.4-0.1,0.5-0.1,0.8-0.1l0,0c3.4,0,5,1.9,5,6.1
			C580.7,1004.1,578,1006.8,574.9,1006.8z M467.2,1002.7l15.1-4.7c0.7-0.2,1-0.9,0.8-1.6c-0.2-0.7-0.9-1-1.6-0.8l-14.4,4.6v-14.5
			c0-0.7-0.5-1.2-1.2-1.2c-0.7,0-1.2,0.5-1.2,1.2v7.3l-2.3-3.2c-0.5-0.5-1.2-0.7-1.7-0.4c-0.5,0.5-0.7,1.2-0.4,1.7l4.3,5.9v9.5H453
			h-12.6c-5.6,0-10-4.6-10-10c0-5.6,4.6-10,10-10c0.4,0,0.8,0.1,1.2,0.1l1.6,0.4v-1.6c0-0.1,0-0.1,0-0.2c0-3.6,3-6.7,6.8-6.7
			c0.1,0,0.2,0,0.2,0c0.1,0,0.2,0,0.4,0l0.9,0.1l0.4-0.9c1.9-5,6.7-8.3,12-8.3c6.2,0,11.5,4.4,12.6,10.6l0.4,1.8l1.6-1.2
			c1.6-1.2,3.4-1.8,5.4-1.8c4.9,0,8.9,4,8.9,8.9c0,0.5-0.1,0.9-0.2,1.6l-0.4,1.7l1.7-0.4c0.2,0,0.5-0.1,0.5-0.1c0.2,0,0.4,0,0.5-0.1
			c1.7-0.2,2.9,0.2,4,1.2c2.5,2.3,2.5,6.8,2.5,7.1c0,4.1-3.3,7.5-7.5,7.5h-26.7L467.2,1002.7L467.2,1002.7z M496.9,988.8
			c-0.5-0.1-1.2-0.1-1.7,0c0-0.2,0-0.4,0-0.5c0-1.8-0.5-3.6-1.2-5c0.1-0.8,0.7-1.3,1.6-1.3s1.6,0.7,1.6,1.6L496.9,988.8L496.9,988.8
			z M515.7,1006.8h-2.9v-23.5c0-0.9,0.7-1.6,1.6-1.6c0.9,0,1.6,0.7,1.6,1.6v23.5H515.7z M518.1,1006.8v-23.5c0-2.2-1.8-3.8-3.8-3.8
			s-3.8,1.8-3.8,3.8v23.5H501c2-1.8,3.4-4.6,3.4-7.5c0-0.5-0.1-5.9-3.3-8.9c-0.5-0.5-0.9-0.8-1.6-1v-6.1c0-2.2-1.8-3.8-3.8-3.8
			c-1.2,0-2.3,0.5-2.9,1.6c-2.2-2.4-5.3-3.8-8.6-3.8c-1.2,0-2.2,0.2-3.2,0.5c0.5-0.9,1.2-1.8,1.6-2.9h48v15.1
			c-4.3,1.2-7.5,5-7.5,9.9c0,3,1.3,5.8,3.6,7.8h-7.8L518.1,1006.8L518.1,1006.8z M547.2,944h13.3v3.3h-6.7h-6.6V944L547.2,944z
			 M568.6,983.2c-0.5-0.1-1.3-0.2-1.8-0.2c-1.3,0-2.8,0.4-4,0.9c-1.2-3.6-4.1-6.5-7.7-7.8v-6.4h1c0.7,0,1.2-0.5,1.2-1.2v-6.5
			c0-0.7-0.5-1.2-1.2-1.2h-1v-11h6.1L568.6,983.2z M650,985.5c-1.3-0.5-2.5-0.8-3.6-1.2l-2.9-9c3.6,0.9,7.4,2.2,11.2,3.6
			C652.4,980.5,650.8,982.8,650,985.5z M643.6,983.6c-2.5-0.5-4.9-1.2-7.4-1.6l4.9-5.9L643.6,983.6z M633.3,981.6
			c-2.5-0.4-4.9-0.5-7.3-0.7l-4.9-8.5c5.8,0.1,12,0.7,18.4,1.9L633.3,981.6z M623.1,980.7c-1.2,0-2.3-0.1-3.6-0.1
			c-1.6,0-2.9,0-4.4,0.1l3.6-7.1L623.1,980.7z M612.2,981c-2.5,0.2-4.9,0.5-7.1,0.8l-6.2-7.3c0.4-0.1,0.8-0.2,1.2-0.4
			c4.9-0.9,10.6-1.6,16.6-1.8L612.2,981z M602.2,982.2c-0.9,0.2-1.8,0.4-2.8,0.5c-1.6,0.4-3.2,0.7-4.8,1l2.4-7.5L602.2,982.2z
			 M591.9,984.3c-2.3,0.5-4.6,1.3-6.5,1.9l-7.1-5.6c4.1-1.8,9.8-3.7,16.5-5.6L591.9,984.3z M582.6,987.3c-2.4,0.9-4.6,1.7-6.4,2.6
			l0.7-6.8L582.6,987.3z M574.1,986.7c-0.8-0.9-1.7-1.8-2.8-2.4v-0.1c0.5-0.4,1.7-0.9,3.2-1.6L574.1,986.7z M552.8,963.3h1.9v4.1
			h-1.9V963.3z M552.5,949.7v11.2h-1c-0.7,0-1.2,0.5-1.2,1.2v6.6c0,0.7,0.5,1.2,1.2,1.2h1v5.8c-0.5-0.1-1.2-0.1-1.7-0.1
			c-4.9,0-9.1,2.8-11.2,7.1c-0.2,0-0.4,0-0.5,0l7.1-33L552.5,949.7L552.5,949.7z M536.5,983.6c-2,1.2-3.6,3-3.8,5.6h-0.1
			c-0.1,0-0.1,0-0.2,0v-15.7c0-0.5-0.4-0.9-0.7-1.2l0,0l-6.8-3.2v-3.2h15.6L536.5,983.6z M504.8,962.5l17.7,8.1
			c0.2,0.4,0.5,0.7,1.2,0.7c0.1,0,0.2,0,0.4,0l1.6,0.8h-40.7L504.8,962.5z M522.1,967.8l-16.3-7.4V938h16.3V967.8L522.1,967.8z
			 M503.4,960.4l-16.3,7.8v-30h16.3V960.4z M484.6,969.1l-2.3,1.2c-0.1-1.6-0.5-3.2-1.3-4.6h3.6V969.1L484.6,969.1z M668.7,971.2
			v-7.1H687v4.2c-1.8-0.7-3.6-1.2-5.8-1.2c-4.6,0-8.6,1.9-11.5,5.3C669.3,972.1,668.8,971.7,668.7,971.2z M698,976.3
			c-0.5,0-1,0.1-1.6,0.2c-0.5-0.1-1-0.2-1.6-0.2c-1.3-2.8-3.2-5-5.8-6.7v-38.2h2.4c0.8,2.8,3.3,4.8,6.4,4.8c2.9,0,5.6-2,6.4-4.8h2.4
			v36.9C702.9,969.7,699.9,972.4,698,976.3z M693.9,929.6c0-2.3,1.8-4.1,4.1-4.1s4.1,1.8,4.1,4.1s-1.8,4.1-4.1,4.1
			C695.8,933.8,693.9,931.7,693.9,929.6z M689.2,926.2c0-0.1,0.1-0.2,0.1-0.2l6.5-16.3h4.3l6.5,16.3c0,0.1,0.1,0.2,0.1,0.2l1.7,2.8
			h-4c-0.4-3.2-3.2-5.8-6.5-5.8c-3.3,0-6.1,2.6-6.5,5.8h-3.6L689.2,926.2z M676.7,943.6h10.2v13h-18.8L676.7,943.6z M686.8,959v2.6
			h-18.5l-0.9-2.6H686.8z M576,953.5c3.6,0,7,1.2,10,3.3l1.6,1.2l0.4-1.8c2.2-11.2,12-19.4,23.5-19.4c9.9,0,18.8,6.1,22.3,15.4
			l0.4,0.9l0.9-0.1c0.2,0,0.4,0,0.5-0.1c0.2,0,0.4-0.1,0.5-0.1c7.1,0,13.1,5.8,13.1,13c0,0.1,0,0.2,0,0.4v1.6l1.8-0.4
			c0.8-0.1,1.6-0.2,2.2-0.2c6.2,0,11.8,2.9,15.1,7.8c-0.7,1.2-1.3,2.3-1.6,3.6c-1.6-0.9-3.4-1.3-5.3-1.3c-1.3,0-2.4,0.2-3.6,0.5
			c-13.9-5.7-27.1-7.5-38.6-7.4c-0.1,0-0.2,0-0.4,0c-0.1,0-0.2,0-0.2,0c-7.1,0.1-13.6,0.9-19.2,1.8c-14.8,2.8-25.1,7.8-28.8,9.9
			l-5.4-24.5C568.3,954.9,572,953.5,576,953.5z M565.1,944v3.3h-2.3V944H565.1z M553.7,930.2l7.7,6.6h-15.2L553.7,930.2z
			 M547.2,939.2h13.3v2.3h-13.2L547.2,939.2L547.2,939.2z M542.5,944h2.3v3.3h-2.3V944z M541.7,959.9l-0.7,3.3h-16.1v-3.3H541.7z
			 M507.9,909.9v5.9l0.9,0.4c0.5,0.2,13.6,3.3,13.6,16.3v2.9h-16.3v-27.2C507.1,908.7,507.9,909.4,507.9,909.9z M500.6,916.2
			l0.9-0.4v-5.9c0-0.5,0.9-1.2,1.9-1.7v27.3h-16.3v-2.9C487.1,919.5,500.1,916.4,500.6,916.2z M484.6,959.9v3.3h-5.7
			c-1.9-1.8-4.6-2.9-7.4-2.9c-0.1,0-0.1,0-0.2,0c0-0.1-0.1-0.4-0.1-0.4H484.6z M420,973.3c-0.1-2.2,0.4-3.7,1.6-5
			c1.2-1.2,2.8-1.6,4-1.6c0.4,0,0.5,0,0.9,0.1l1.7,0.4l-0.4-1.7c-0.1-0.5-0.2-0.9-0.2-1.3c0-4.1,3.3-7.4,7.4-7.4
			c1.6,0,3,0.5,4.3,1.6l1.6,1.2l0.4-1.8c1-5.3,5.6-8.9,10.7-8.9c4.4,0,8.4,2.8,10,6.8l0.4,0.9l0.9-0.1c0.1,0,0.2,0,0.4,0
			c0.1,0,0.1,0,0.2,0c3,0,5.6,2.5,5.6,5.6v1.6l1.6-0.4c0.4-0.1,0.7-0.1,0.9-0.1c4.7,0,8.3,3.6,8.3,8.3c0,2.2-0.8,4-2,5.6
			c-2.4-5.6-7.8-9.4-14.1-9.4c-6.1,0-11.5,3.6-14,9c-0.1,0-0.2,0-0.4,0l0.1-8.4l4.9-2.5c0.5-0.4,0.9-1,0.5-1.6
			c-0.4-0.5-1-0.9-1.6-0.5l-3.7,1.9v-3.6c0-0.7-0.5-1.2-1.2-1.2l0,0c-0.7,0-1.2,0.5-1.2,1.2l-0.1,14.9c-0.1,0-0.4,0-0.4,0
			c-2.5-5.6-7.8-9-14-9c-5.3,0-9.9,2.6-12.6,6.7C420,973.6,420,973.3,420,973.3z M394.8,999.2c-0.2-2.4,0.5-4.3,1.8-5.8
			c1.6-1.6,3.6-2.3,4.8-2.3c0.4,0,0.5,0,1,0.1l1.7,0.4l-0.4-1.7c-0.1-0.5-0.2-1.2-0.2-1.6c0-4.9,4-8.9,8.9-8.9
			c1.8,0,3.6,0.5,5.4,1.8l1.6,1.2l0.4-1.8c1.3-6.5,6.6-10.8,12.7-10.8c5.4,0,10,3.2,12,8.2c-2,1.6-3.6,3.6-3.7,6.4
			c-0.1,0-0.4,0-0.4,0c-6.8,0-12.4,5.7-12.4,12.4c0,4.1,1.9,7.8,5,10h-30.6C398.3,1006.8,395,1003.6,394.8,999.2z M440.4,1009.2
			h14.9h27l0,0h27.9h7.8h13.1l0,0h1.3h42.4h0.5l0,0c3.8-0.4,7-3.2,7.5-7.1l66.6-13.6c0,0.1,0,0.1,0,0.2c-3.7,0.4-6.2,2.3-7.5,4.7
			l-2.9,1.2c-0.5,0.4-0.9,0.9-0.8,1.6c0.2,0.5,0.7,0.8,1.2,0.8c0.2,0,0.4,0,0.5-0.1l1-0.4c-0.2,0.9-0.4,1.9-0.4,2.9
			c0,5.6,4.4,9.9,9.9,9.9H736c-27.3,9.2-89.1,14-153.5,8.4l1.9-0.7c0.5-0.4,0.9-0.9,0.8-1.6c-0.4-0.5-0.9-0.9-1.6-0.8l-6.1,2.3
			c-0.2,0.1-0.4,0.2-0.5,0.4c-5.9-0.5-12-1.2-18-1.9c-68.1-8.5-123-0.5-125.8,0c-17.8,0-25.4-3.6-28.2-5.9h35.2v-0.2L440.4,1009.2
			L440.4,1009.2z M691.3,1028.3c-29.3,7.9-76,14.5-131.8-0.5c-0.1,0-10.6-3.2-31.2-6.4c-16.1-2.4-41.1-5.3-74.7-6.1
			c22.3-1.8,61-3.4,105.3,2.3c67.5,8.4,136.9,4.9,171.2-4.1C721.3,1017.9,708,1023.7,691.3,1028.3z M742.5,1006.8h-30.7
			c3-2.3,5-5.9,5-10c0-6.8-5.7-12.4-12.4-12.4c-0.2,0-0.4,0-0.4,0c-0.4-2.6-1.8-4.9-3.7-6.4c1.9-5,6.7-8.2,12-8.2
			c6.2,0,11.5,4.4,12.6,10.6l0.4,1.8l1.6-1.2c1.6-1.2,3.4-1.8,5.4-1.8c4.9,0,8.9,4,8.9,8.9c0,0.5-0.1,0.9-0.2,1.6l-0.4,1.7l1.7-0.4
			c0.4-0.1,0.7-0.1,0.9-0.1c6.2,0.5,6.8,6.4,6.8,8.1C749.9,1003.5,746.6,1006.8,742.5,1006.8z"/>
		
			<linearGradient id="SVGID_2_" gradientUnits="userSpaceOnUse" x1="277.2821" y1="145.3472" x2="279.419" y2="145.3472" gradientTransform="matrix(4.0364 0 0 4.0364 -527.0689 424.6641)">
			<stop  offset="0" style="stop-color:#14383F"/>
			<stop  offset="1" style="stop-color:#1D433F"/>
		</linearGradient>
		<path fill="url(#SVGID_2_)" d="M593.3,1013.8c0.2,0,0.4,0,0.5-0.1l6.1-2.3c0.5-0.4,0.9-0.9,0.8-1.6c-0.4-0.5-0.9-0.9-1.6-0.8
			l-6.1,2.3c-0.5,0.4-0.9,0.9-0.8,1.6C592.3,1013.5,592.8,1013.8,593.3,1013.8z"/>
		
			<linearGradient id="SVGID_3_" gradientUnits="userSpaceOnUse" x1="281.1003" y1="143.944" x2="283.2371" y2="143.944" gradientTransform="matrix(4.0364 0 0 4.0364 -527.0689 424.6641)">
			<stop  offset="0.1752" style="stop-color:#1D433F"/>
			<stop  offset="1" style="stop-color:#3C5A43"/>
		</linearGradient>
		<path fill="url(#SVGID_3_)" d="M608.8,1008.1c0.2,0,0.4,0,0.5-0.1l6.1-2.3c0.5-0.4,0.9-0.9,0.8-1.6c-0.4-0.5-0.9-0.9-1.6-0.8
			l-6.1,2.3c-0.5,0.4-0.9,0.9-0.8,1.6C607.8,1007.9,608.3,1008.1,608.8,1008.1z"/>
		
			<linearGradient id="SVGID_4_" gradientUnits="userSpaceOnUse" x1="284.9184" y1="142.5793" x2="287.0552" y2="142.5793" gradientTransform="matrix(4.0364 0 0 4.0364 -527.0689 424.6641)">
			<stop  offset="0" style="stop-color:#355443"/>
			<stop  offset="1" style="stop-color:#607842"/>
		</linearGradient>
		<path fill="url(#SVGID_4_)" d="M624.2,1002.6c0.2,0,0.4,0,0.5-0.1l6.1-2.3c0.5-0.4,0.9-0.9,0.8-1.6c-0.4-0.5-0.9-0.9-1.6-0.8
			l-6.1,2.3c-0.5,0.4-0.9,0.9-0.8,1.6C623.1,1002.1,623.7,1002.6,624.2,1002.6z"/>
		
			<linearGradient id="SVGID_5_" gradientUnits="userSpaceOnUse" x1="291.0137" y1="123.2944" x2="291.0137" y2="126.482" gradientTransform="matrix(4.0364 0 0 4.0364 -527.0689 424.6641)">
			<stop  offset="0" style="stop-color:#657D76"/>
			<stop  offset="3.331342e-03" style="stop-color:#667E75"/>
			<stop  offset="0.1216" style="stop-color:#728863"/>
			<stop  offset="0.2382" style="stop-color:#7D9051"/>
			<stop  offset="0.3512" style="stop-color:#839644"/>
			<stop  offset="0.4588" style="stop-color:#88993D"/>
			<stop  offset="0.5555" style="stop-color:#899B3A"/>
			<stop  offset="1" style="stop-color:#899B3A"/>
		</linearGradient>
		<path fill="url(#SVGID_5_)" d="M639.9,934.2c1.2,0.7,2.4,0.9,3.6,0.9c1.6,0,2.9-0.5,4.3-0.9c2.3-0.5,4.2-1.2,6.1-0.1
			c0.4,0.4,0.9,0.4,1.2,0c0.4-0.4,0.5-0.5,0.5-1v-8.9c0-0.5-0.4-0.9-0.5-1c-2.8-1.6-5.6-0.8-7.8-0.1c-2.3,0.5-4.2,1.2-6.1,0.1
			c-0.4-0.4-0.9-0.4-1.2,0c-0.4,0.4-0.5,0.5-0.5,1v8.9C639.3,933.6,639.4,934.1,639.9,934.2z M641.7,926.2c2.2,0.5,4.3-0.1,6.1-0.5
			c1.9-0.5,3.6-1,5.6-0.5v6.4c-2.2-0.5-4.3,0.1-6.1,0.5c-1.9,0.5-3.6,1-5.6,0.5V926.2z"/>
		<g>
			<path fill="#05273C" d="M564.8,1046.2c0.1-0.4,0-0.5-0.1-0.8c-0.2-0.4-0.4-0.4-0.5-0.5l-8.4-2c-0.5-0.1-1,0.2-1.2,0.8l-3.6,15.1
				l0,0c-0.1,0.4,0,0.5,0.1,0.8c0.2,0.4,0.4,0.4,0.5,0.5c0.1,0,0.2,0,0.4,0c0.2,0,0.4-0.1,0.5-0.2c0.4-0.2,0.5-0.4,0.5-0.5l1.6-6.5
				l6.4,1.6c0.4,0.1,0.5,0,0.8-0.1c0.4-0.2,0.5-0.4,0.5-0.5c0.1-0.4,0-0.5-0.1-0.8c-0.2-0.4-0.4-0.4-0.5-0.5l-6.4-1.6l1.3-5.6
				l7.4,1.8c0.4,0.1,0.5,0,0.8-0.2C564.5,1046.6,564.7,1046.4,564.8,1046.2z"/>
			<path fill="#05273C" d="M573,1046.6l-4.7-0.9c-0.4,0-0.5,0.1-0.7,0.2c-0.2,0.2-0.4,0.4-0.4,0.5l-2.8,15.1c-0.1,0.4,0,0.5,0.2,0.8
				c0.2,0.4,0.4,0.4,0.5,0.5c0.4,0.1,0.5,0,0.8-0.2c0.2-0.2,0.4-0.4,0.5-0.5l1.2-6.1l3.4,0.5h0.1c0.5,0.2,1.2,0.5,1.6,1.2
				c0.7,0.7,0.9,1.6,0.8,2.3c-0.5,2.6-0.1,3.8,1.2,4.2l0.5,0.1h0.1c0.5-0.1,0.9-0.5,0.9-1.2c-0.1-0.5-0.4-0.7-0.7-0.8
				c-0.1-0.2-0.1-0.7,0.1-1.6c0.2-1.2,0.1-2-0.4-2.8c-0.4-0.5-0.5-1.2-1.2-1.6c0.7-0.4,1.2-0.7,1.7-1.2c0.7-0.8,1.2-1.6,1.3-2.6
				c0.4-1.3,0-2.6-0.9-3.7C575.4,1047.7,574.4,1046.9,573,1046.6z M575.2,1052.3c-0.2,0.9-0.5,1.6-1.3,2c-0.7,0.5-1.6,0.7-2.3,0.5
				l-3.6-0.7l1.2-6.2l3.6,0.7c0.9,0.2,1.6,0.5,2,1.3C575.1,1050.8,575.4,1051.4,575.2,1052.3z"/>
			<path fill="#05273C" d="M590.6,1049.4l-8.4-1.2c-0.4,0-0.5,0-0.7,0.2c-0.2,0.2-0.4,0.5-0.4,0.7l-2,15.2c0,0.4,0,0.5,0.2,0.7
				c0.2,0.2,0.4,0.4,0.5,0.4l8.4,1.2c0.1,0,0.1,0,0.2,0c0.2,0,0.5-0.1,0.5-0.2c0.2-0.2,0.4-0.5,0.4-0.7s0-0.5-0.2-0.8
				c-0.2-0.2-0.4-0.4-0.7-0.4l-7.4-1l0.8-5.7l6.5,0.9c0.4,0,0.5,0,0.7-0.2c0.2-0.2,0.4-0.5,0.4-0.7s0-0.5-0.2-0.7
				c-0.2-0.4-0.5-0.4-0.7-0.5l-6.5-0.9l0.8-5.7l7.4,1c0.4,0,0.5,0,0.7-0.2c0.2-0.2,0.4-0.5,0.4-0.7c0-0.4,0-0.5-0.2-0.8
				C591.3,1049.4,591,1049.4,590.6,1049.4z"/>
			<path fill="#05273C" d="M598.2,1050.1l-3-0.4c-0.4,0-0.5,0.1-0.7,0.4c-0.2,0.2-0.4,0.5-0.4,0.7l-1.6,15.2c0,0.4,0.1,0.5,0.2,0.7
				c0.2,0.2,0.4,0.4,0.5,0.4l3.2,0.4c0.4,0,0.5,0.1,0.9,0.1c2,0,3.7-0.7,5.6-1.9c1.8-1.6,2.9-3.6,3-5.9c0.4-2.4-0.5-4.6-1.9-6.4
				C602.5,1051.4,600.6,1050.4,598.2,1050.1z M604.1,1059.5c-0.2,1.8-0.9,3.3-2.4,4.6s-3,1.7-4.9,1.6l-2-0.2l1.3-13.3l2,0.2
				c1.8,0.2,3.3,1,4.6,2.4C603.8,1056,604.2,1057.7,604.1,1059.5z"/>
			<path fill="#05273C" d="M618.5,1051.8l-8.4-0.5c-0.4,0-0.5,0.1-0.7,0.4c-0.2,0.2-0.4,0.5-0.4,0.7l-0.9,15.4l0,0
				c0,0.4,0.1,0.5,0.4,0.7c0.2,0.2,0.4,0.4,0.5,0.4l8.5,0.5h0.1c0.4,0,0.5-0.1,0.7-0.4c0.2-0.2,0.4-0.5,0.4-0.7
				c0-0.4-0.1-0.5-0.4-0.7c-0.2-0.2-0.5-0.4-0.7-0.4l-7.5-0.5l0.4-5.8l6.5,0.5c0.4,0,0.5-0.1,0.7-0.4c0.2-0.2,0.4-0.5,0.4-0.7
				c0-0.4-0.1-0.5-0.4-0.7c-0.2-0.2-0.5-0.4-0.7-0.4l-6.5-0.5l0.4-5.8l7.5,0.5c0.4,0,0.5-0.1,0.7-0.4c0.2-0.2,0.4-0.5,0.4-0.7
				c0-0.4-0.1-0.5-0.4-0.7C619,1051.8,618.8,1051.8,618.5,1051.8z"/>
			<path fill="#05273C" d="M631.7,1067.4c-0.1-0.2-0.4-0.7-0.2-1.6c0-1.2-0.2-2-0.5-2.8c-0.4-0.5-0.8-1-1.3-1.3
				c0.5-0.4,1.2-0.9,1.6-1.6c0.5-0.9,0.9-1.7,0.9-2.8c0.1-1.6-0.5-2.6-1.3-3.6c-0.9-1.1-2.2-1.6-3.6-1.6l-4.8-0.2
				c-0.4,0-0.5,0.1-0.5,0.4c-0.2,0.2-0.4,0.5-0.4,0.7l-0.5,15.4c0,0.4,0.1,0.5,0.4,0.7c0.2,0.2,0.5,0.4,0.7,0.4
				c0.4,0,0.5-0.1,0.7-0.4c0.2-0.2,0.4-0.5,0.4-0.7l0.2-6.1l3.6,0.1h0.1c0.5,0.1,1.2,0.5,1.8,0.9c0.8,0.5,1.2,1.3,1.2,2.3
				c-0.1,2.6,0.5,3.8,1.8,3.8h0.1h0.4h0.1h0.1c0.5-0.2,0.8-0.5,0.7-1.3C632.3,1067.5,632.1,1067.4,631.7,1067.4z M630.1,1057.2
				c0,0.9-0.4,1.6-0.9,2.3c-0.5,0.5-1.3,0.9-2.3,0.9l0,0l-3.6-0.1l0.2-6.4l3.6,0.1c0.9,0,1.6,0.4,2.3,1
				C629.8,1055.6,630.1,1056.4,630.1,1057.2z"/>
			<path fill="#05273C" d="M636.4,1052.3c-0.4,0-0.5,0.1-0.7,0.4c-0.2,0.2-0.4,0.5-0.4,0.7l-0.2,15.4c0,0.4,0.1,0.5,0.4,0.7
				c0.2,0.2,0.5,0.4,0.7,0.4l0,0c0.4,0,0.5-0.1,0.7-0.4c0.2-0.2,0.4-0.5,0.4-0.7l0.2-15.4c0-0.4-0.1-0.5-0.4-0.7
				C637,1052.5,636.8,1052.3,636.4,1052.3z"/>
			<path fill="#05273C" d="M655.3,1065.7c-0.4,0-0.5,0-0.8,0.4c-1.2,1-2.6,1.6-4.4,1.7c-1.8,0.1-3.4-0.5-4.9-1.8
				c-1.6-1.3-2.2-2.8-2.3-4.7c-0.1-1.9,0.5-3.6,1.8-4.9c1.3-1.3,2.9-2.2,4.9-2.3c1.6-0.1,3,0.5,4.4,1.3c0.2,0.2,0.5,0.4,0.7,0.2
				c0.4,0,0.5-0.2,0.5-0.4c0.2-0.2,0.4-0.5,0.4-0.8c-0.1-0.4-0.2-0.5-0.5-0.7c-1.7-1.2-3.6-1.8-5.7-1.7c-2.5,0.1-4.7,1-6.2,2.8
				c-1.7,1.8-2.5,3.8-2.4,6.4c0.1,2.4,1,4.4,2.9,6.1c1.7,1.6,3.6,2.3,6.1,2.3c0.1,0,0.4,0,0.4,0c2-0.1,3.8-0.8,5.6-2
				c0.2-0.2,0.4-0.5,0.4-0.7c0-0.2-0.1-0.5-0.4-0.7C655.7,1065.7,655.5,1065.7,655.3,1065.7z"/>
			<path fill="#05273C" d="M668.5,1050.2l-11,1.6c-0.4,0-0.5,0.2-0.7,0.4c-0.1,0.1-0.4,0.5-0.2,0.7c0,0.4,0.2,0.5,0.4,0.7
				c0.2,0.2,0.5,0.4,0.8,0.2l4.6-0.5l1.8,14.3c0,0.4,0.2,0.5,0.4,0.7c0.2,0.2,0.4,0.2,0.5,0.2c0.1,0,0.1,0,0.2,0
				c0.4,0,0.5-0.2,0.7-0.4c0.2-0.2,0.4-0.5,0.2-0.7l-1.8-14.3l4.6-0.5c0.4,0,0.5-0.2,0.7-0.5c0.2-0.4,0.4-0.5,0.2-0.7
				c0-0.4-0.2-0.5-0.4-0.7C669.1,1050.2,668.8,1050.2,668.5,1050.2z"/>
			<path fill="#05273C" d="M684.4,1049.4c-1.9-1.3-4.1-1.7-6.4-1.2c-2.3,0.5-4,1.8-5.3,3.6c-1.2,2-1.6,4.3-1,6.6l0,0
				c0.5,2.4,1.8,4.3,3.6,5.6c1.6,0.9,2.9,1.6,4.6,1.6c0.5,0,1.2-0.1,1.8-0.2c2.3-0.5,4-1.8,5.3-3.6c1.2-1.9,1.6-4.2,1-6.6
				C687.6,1052.5,686.1,1050.8,684.4,1049.4z M685.3,1060.5c-0.9,1.6-2.3,2.6-3.8,2.9c-1.7,0.4-3.3,0.1-4.8-0.9
				c-1.6-1-2.5-2.5-2.9-4.3c-0.4-1.8-0.2-3.6,0.8-5c0.9-1.6,2.3-2.5,3.8-2.9l0,0c0.5-0.1,0.9-0.2,1.3-0.2c1.2,0,2.3,0.4,3.4,1.2
				c1.6,1,2.5,2.5,2.9,4.3C686.5,1057.1,686.1,1058.9,685.3,1060.5z"/>
			<path fill="#05273C" d="M705.2,1058l-4.4-14.7c-0.1-0.4-0.4-0.5-0.5-0.5c-0.4-0.1-0.5-0.2-0.8-0.1c-0.2,0.1-0.5,0.4-0.5,0.5
				c-0.1,0.4-0.2,0.5-0.1,0.8l3.6,11.6l-12.6-9.5c-0.2-0.2-0.5-0.4-0.8-0.2c-0.4,0-0.5,0.2-0.7,0.5c-0.4,0.4-0.4,0.7,0,1l4.4,14.4
				c0.1,0.4,0.4,0.5,0.5,0.5c0.2,0.1,0.4,0.1,0.5,0.1s0.2,0,0.4-0.1c0.4-0.1,0.5-0.4,0.5-0.5c0.1-0.4,0.2-0.5,0.1-0.8l-3.6-11.8
				l12.4,9.5l0.2,0.1c0.4,0.2,0.5,0.4,0.9,0.2c0.4-0.1,0.5-0.4,0.5-0.5C705.2,1058.4,705.2,1058.1,705.2,1058z"/>
		</g>
		<g>
			<path fill="#42669A" d="M724.7,1048.4c-0.5-0.2-0.9-0.2-1.3,0l-3.6,1.6l2.2-4.4c0.8-1.6,0.9-3.2,0.4-4.8c-0.5-1.6-1.6-2.6-3-3.3
				c-1.6-0.8-3.2-0.9-4.8-0.4c-1.6,0.5-2.6,1.6-3.3,3l-0.5,0.9c-0.2,0.5-0.4,0.9-0.1,1.3c0.3,0.5,0.5,0.8,0.9,0.9
				c0.5,0.2,0.9,0.4,1.3,0.1c0.5-0.2,0.8-0.5,0.9-0.9l0.5-0.9c0.4-0.5,0.8-1,1.6-1.3c0.7-0.4,1.3-0.4,1.9,0.1
				c0.7,0.4,1.2,0.9,1.3,1.6c0.4,0.7,0.4,1.3-0.1,2l-4.1,8.4c-0.2,0.5-0.4,0.9-0.1,1.3c0.2,0.5,0.5,0.8,0.9,0.9
				c0.4,0.1,0.5,0.2,0.7,0.2c0.2,0,0.5-0.1,0.7-0.2l7.8-3.2c0.5-0.2,0.8-0.5,0.9-0.9c0.2-0.5,0.2-0.9,0-1.3
				C725.4,1048.9,725.1,1048.6,724.7,1048.4z"/>
			<path fill="#42669A" d="M732.2,1032.1c-0.9-0.5-1.8-0.9-2.8-0.9c-0.9-0.1-1.8,0-2.8,0.5c-1.7,0.9-2.8,2.3-3,4.6
				c-0.4,1.8,0,3.8,0.9,6.1l0,0c1,2,2.4,3.6,4,4.7c1.2,0.7,2.3,1,3.3,1c0.8,0,1.6-0.2,2.2-0.5c0.9-0.5,1.6-1,2-1.8
				c0.4-0.8,0.9-1.7,1-2.8c0.4-1.9,0-3.8-1-5.9C735.4,1034.6,734,1033.1,732.2,1032.1z M733.9,1042.2c-0.2,1-0.5,1.7-1.2,1.9
				c-0.5,0.4-1.3,0.2-2.3-0.4c-1.2-0.7-1.9-1.7-2.6-3s-0.9-2.8-0.8-4c0.2-1,0.5-1.7,1.2-1.9c0.2-0.1,0.5-0.2,0.7-0.2
				c0.5,0,0.9,0.2,1.6,0.5c1.2,0.7,1.9,1.8,2.6,3.2C733.8,1039.6,734,1041,733.9,1042.2z"/>
			<path fill="#42669A" d="M741.1,1026.2L741.1,1026.2c-0.2-0.1-0.2-0.1-0.4-0.2l0,0c-0.1-0.2-0.4-0.4-0.8-0.5l-0.4-0.2h-0.4
				c-0.1,0-0.2,0-0.2,0h-0.1l-0.4,0.2c-0.1,0.1-0.4,0.2-0.4,0.4l-2,3.2c-0.4,0.5-0.4,0.9-0.4,1.3c0.1,0.5,0.5,0.9,0.8,1
				c0.5,0.4,1.2,0.4,1.7,0.1c0.4-0.2,0.5-0.4,0.7-0.5l0.2-0.4l5,9.7c0.4,0.5,0.5,0.7,1,0.9c0.2,0.1,0.4,0.1,0.5,0.1
				c0.4,0,0.5-0.1,0.8-0.2c0.5-0.4,0.7-0.5,0.9-1c0.2-0.5,0.1-0.9-0.1-1.3L741.1,1026.2z"/>
			<path fill="#42669A" d="M757.4,1028c-0.5-0.9-1.2-1.6-2-2.2c-0.8-0.5-1.6-0.7-2.4-0.9c0-0.8-0.2-1.6-0.7-2.4
				c-0.5-0.9-1.3-1.6-2.6-1.8c-1.2-0.4-2.3-0.2-3.2,0.5c-1,0.5-1.7,1.6-1.9,2.6c-0.4,1.2-0.2,2.3,0.4,3.2c0.5,0.8,1,1.3,1.7,1.7
				c-0.4,0.8-0.5,1.6-0.5,2.5c0,1,0.4,1.9,0.9,2.8c0.9,1.6,2,2.4,3.6,2.8c0.5,0.2,1.2,0.2,1.6,0.2c1,0,2-0.4,2.9-0.9
				c1.6-0.9,2.4-2,2.8-3.6C758.5,1031.1,758.1,1029.6,757.4,1028z M749.4,1025.4c-0.1,0.4-0.2,0.5-0.5,0.5c-0.4,0.1-0.5,0.2-0.7,0.1
				c-0.4-0.1-0.5-0.2-0.5-0.5c-0.1-0.4-0.2-0.5-0.1-0.7c0.1-0.4,0.2-0.5,0.5-0.5c0.2-0.1,0.4-0.1,0.5-0.1s0.2,0,0.4,0
				c0.4,0.1,0.5,0.2,0.5,0.5C749.5,1024.8,749.5,1025.1,749.4,1025.4z M754.4,1029.9c0.4,0.5,0.5,1.3,0.4,1.9
				c-0.2,0.7-0.5,1.3-1.2,1.6c-0.7,0.3-1.3,0.5-2,0.4c-0.7-0.2-1.3-0.5-1.6-1.2c-0.4-0.7-0.5-1.3-0.4-2c0.2-0.7,0.5-1.3,1.2-1.6
				c0.5-0.4,0.9-0.4,1.3-0.4c0.4,0,0.5,0,0.8,0.1C753.6,1028.9,754,1029.2,754.4,1029.9z"/>
		</g>
	</g>
</g>
</svg>
