<?xml version="1.0" encoding="utf-8"?>
<!-- Generator: Adobe Illustrator 18.0.0, SVG Export Plug-In . SVG Version: 6.00 Build 0)  -->
<!DOCTYPE svg PUBLIC "-//W3C//DTD SVG 1.1//EN" "http://www.w3.org/Graphics/SVG/1.1/DTD/svg11.dtd">
<svg version="1.1" id="Layer_1" xmlns="http://www.w3.org/2000/svg" xmlns:xlink="http://www.w3.org/1999/xlink" x="0px" y="0px"
	 viewBox="2.3 181.7 510.7 246" enable-background="new 2.3 181.7 510.7 246" xml:space="preserve">
<g>
	<g>
		<g>
			<path fill="#42669A" d="M187,394.8c0,2.3-2.1,3.9-5.8,3.9c-0.9,0-1.9-0.1-2.6-0.3c-1.2-0.3-1.2-1.1-1.2-1.8V387
				c0-0.8,0-1.5,1.2-1.8c0.6-0.2,1.8-0.3,2.6-0.3c3.5,0,5.4,1.4,5.4,3.6c0,1.5-0.9,2.6-2.6,3C186,391.9,187,393.2,187,394.8z
				 M180.1,387.3v3.2h1.3c0.5,0,0.9-0.1,1.3-0.2c0.8-0.3,1.1-0.8,1.1-1.5c0-1-0.8-1.7-2.5-1.7C180.8,387.2,180.5,387.2,180.1,387.3z
				 M184.1,394.5c0-0.9-0.4-1.4-1.3-1.7c-0.4-0.1-0.9-0.2-1.5-0.2H180v3.6c0.4,0.1,0.9,0.1,1.3,0.1
				C183.3,396.3,184.1,395.6,184.1,394.5z"/>
			<path fill="#42669A" d="M197.4,394.8c0.2-0.4,0.3-0.9,0.3-1.5v-7.2c0-0.8,0.4-1.2,1.3-1.2s1.3,0.4,1.3,1.2v7.3
				c0,1.1-0.2,1.9-0.5,2.7c-0.9,2-2.7,2.7-4.9,2.7c-2.4,0-4.1-0.9-4.9-2.7c-0.3-0.8-0.5-1.7-0.5-2.7v-7.4c0-0.8,0.4-1.2,1.4-1.2
				s1.4,0.4,1.4,1.2v7.3c0,0.6,0.1,1.1,0.3,1.5c0.4,1,1.3,1.5,2.4,1.5C196.3,396.3,197,395.8,197.4,394.8z"/>
			<path fill="#42669A" d="M206.3,397.6c0,0.8-0.4,1.2-1.4,1.2s-1.4-0.4-1.4-1.2V386c0-0.8,0.4-1.2,1.4-1.2s1.4,0.4,1.4,1.2V397.6z"
				/>
			<path fill="#42669A" d="M216.4,396.1c0.8,0,1.1,0.4,1.1,1.3s-0.3,1.3-1.1,1.3h-5.6c-1,0-1.4-0.4-1.4-1.4v-11.1
				c0-0.8,0.4-1.2,1.4-1.2s1.4,0.4,1.4,1.2v10L216.4,396.1L216.4,396.1z"/>
			<path fill="#42669A" d="M223.5,398.7c-0.9,0-1.8-0.1-2.6-0.3c-1.2-0.3-1.2-1.1-1.2-1.8V387c0-0.8,0-1.5,1.2-1.8
				c0.6-0.2,1.8-0.3,2.7-0.3c4.8,0,7.4,2.6,7.4,6.9C231,396.1,228.2,398.7,223.5,398.7z M223.7,396.2c2.9,0,4.4-1.7,4.4-4.4
				c0-2.8-1.6-4.5-4.4-4.5c-0.3,0-0.8,0-1.1,0.1v8.7C223,396.2,223.3,396.2,223.7,396.2z"/>
			<path fill="#42669A" d="M236.4,397.6c0,0.8-0.4,1.2-1.4,1.2s-1.4-0.4-1.4-1.2V386c0-0.8,0.4-1.2,1.4-1.2s1.4,0.4,1.4,1.2V397.6z"
				/>
			<path fill="#42669A" d="M242.2,397.6c0,0.8-0.4,1.2-1.3,1.2c-0.9,0-1.3-0.4-1.3-1.2v-11.1c0-1.1,0.6-1.5,1.8-1.5
				c1.3,0,1.8,0.5,2.2,1.3l5,8.7v-8.8c0-0.8,0.4-1.2,1.3-1.2c0.9,0,1.3,0.4,1.3,1.2v11.1c0,1-0.6,1.5-1.8,1.5
				c-1.1,0-1.7-0.4-2.1-1.3l-5.3-8.8V397.6L242.2,397.6z"/>
			<path fill="#42669A" d="M260.8,393.5c-0.8,0-1.1-0.4-1.1-1.3c0-0.9,0.3-1.3,1.1-1.3h3.1c1,0,1.4,0.4,1.4,1.4v3.9
				c0,0.9-0.3,1.3-1.2,1.8c-0.9,0.3-2.2,0.6-3.4,0.6c-3.9,0-6.8-2.4-6.8-6.9s2.9-7,6.7-7c1.3,0,2.5,0.3,3.5,0.9
				c0.7,0.4,1.1,0.9,1.1,1.3c0,0.6-0.7,1.3-1.3,1.3c-0.3,0-0.6-0.3-1.1-0.5c-0.7-0.3-1.4-0.6-2.2-0.6c-2.3,0-3.8,1.5-3.8,4.4
				c0,3,1.7,4.6,4,4.6c0.6,0,1.3-0.1,1.8-0.3v-2.5h-1.8V393.5L260.8,393.5z"/>
			<path fill="#42669A" d="M278.4,397.9c0,0.5-0.3,0.8-0.9,0.8c-0.6,0-0.9-0.3-0.9-0.8v-11.3h-3.7c-0.5,0-0.8-0.3-0.8-0.8
				c0-0.5,0.3-0.9,0.8-0.9h9.3c0.5,0,0.8,0.3,0.8,0.9c0,0.5-0.3,0.8-0.8,0.8h-3.7V397.9L278.4,397.9z"/>
			<path fill="#42669A" d="M290.6,384.7c3.9,0,6.5,2.7,6.5,7c0,4.2-2.6,7-6.5,7c-4,0-6.5-2.7-6.5-7S286.6,384.7,290.6,384.7z
				 M290.6,397.2c2.8,0,4.7-2.1,4.7-5.5s-1.8-5.5-4.7-5.5c-2.8,0-4.7,2.2-4.7,5.5C285.9,395,287.7,397.2,290.6,397.2z"/>
			<path fill="#42669A" d="M308.1,395.8c-0.3,0.6-0.5,0.9-1.1,0.9c-0.5,0-0.9-0.3-1.1-0.9l-3.8-8.6l-0.7,10.7
				c-0.1,0.5-0.3,0.8-0.9,0.8s-0.9-0.3-0.9-0.8l0.9-11.9c0.1-0.8,0.3-1.1,1.2-1.1c0.8,0,1.2,0.3,1.5,1.1l3.8,8.5l3.8-8.5
				c0.3-0.8,0.7-1.1,1.5-1.1c0.8,0,1.1,0.4,1.1,1.1l0.9,11.9c0,0.5-0.3,0.8-0.9,0.8c-0.6,0-0.9-0.3-0.9-0.8l-0.8-10.7L308.1,395.8z"
				/>
			<path fill="#42669A" d="M323.7,384.7c3.9,0,6.5,2.7,6.5,7c0,4.2-2.6,7-6.5,7c-4,0-6.5-2.7-6.5-7
				C317.2,387.5,319.7,384.7,323.7,384.7z M323.7,397.2c2.8,0,4.7-2.1,4.7-5.5s-1.8-5.5-4.7-5.5c-2.8,0-4.7,2.2-4.7,5.5
				C319,395,320.8,397.2,323.7,397.2z"/>
			<path fill="#42669A" d="M342.4,398.2c0,0.3-0.3,0.5-0.9,0.5c-0.8,0-1-0.3-1.3-0.9l-3-4.3c-0.4,0.1-0.9,0.1-1.3,0.1
				c-0.3,0-0.8,0-1-0.1v4.4c0,0.5-0.3,0.8-0.9,0.8s-0.9-0.3-0.9-0.8v-11.6c0-0.6,0-1.1,0.9-1.3c0.5-0.2,1.4-0.3,2.2-0.3
				c3.2,0,5.4,1.5,5.4,4.2c0,1.9-1,3.3-2.8,4l2.9,4.1C342.4,397.8,342.4,398,342.4,398.2z M336,392.1c2.6,0,3.9-1.1,3.9-2.9
				c0-1.9-1.4-2.8-3.6-2.8c-0.4,0-0.9,0.1-1.3,0.1v5.5C335.2,392.1,335.7,392.1,336,392.1z"/>
			<path fill="#42669A" d="M354.3,398.2c0,0.3-0.3,0.5-0.9,0.5c-0.8,0-1-0.3-1.3-0.9l-3-4.3c-0.4,0.1-0.9,0.1-1.3,0.1
				c-0.3,0-0.8,0-1-0.1v4.4c0,0.5-0.3,0.8-0.9,0.8s-0.9-0.3-0.9-0.8v-11.6c0-0.6,0-1.1,0.9-1.3c0.5-0.2,1.4-0.3,2.2-0.3
				c3.2,0,5.4,1.5,5.4,4.2c0,1.9-1,3.3-2.8,4l2.9,4.1C354.2,397.8,354.3,398,354.3,398.2z M347.9,392.1c2.6,0,3.9-1.1,3.9-2.9
				c0-1.9-1.4-2.8-3.6-2.8c-0.4,0-0.9,0.1-1.3,0.1v5.5C347.2,392.1,347.5,392.1,347.9,392.1z"/>
			<path fill="#42669A" d="M362.6,384.7c3.9,0,6.5,2.7,6.5,7c0,4.2-2.6,7-6.5,7c-4,0-6.5-2.7-6.5-7
				C356.1,387.5,358.7,384.7,362.6,384.7z M362.6,397.2c2.8,0,4.7-2.1,4.7-5.5s-1.8-5.5-4.7-5.5c-2.8,0-4.7,2.2-4.7,5.5
				C357.9,395,359.8,397.2,362.6,397.2z"/>
			<path fill="#42669A" d="M376.4,397.8c-0.2,0.7-0.5,0.9-1.3,0.9s-1.1-0.3-1.2-0.9l-3.1-11.8c-0.1-0.2-0.1-0.4-0.1-0.5
				c0-0.3,0.2-0.6,0.9-0.6s0.9,0.3,1,0.9l2.6,10.7l3.1-9.9c0.2-0.6,0.4-0.9,1.2-0.9s1,0.3,1.2,0.9l3.1,9.9l2.7-10.7
				c0.2-0.6,0.3-0.9,0.9-0.9c0.7,0,0.9,0.3,0.9,0.6c0,0.2,0,0.4-0.1,0.5l-3.1,11.8c-0.2,0.6-0.4,0.9-1.2,0.9c-0.8,0-1.1-0.3-1.3-0.9
				l-3.1-9.9L376.4,397.8z"/>
			<path fill="#42669A" d="M393.2,384.9c0,0.3-0.2,1.1-0.9,3.1c-0.3,0.9-0.6,1.1-1.1,1.1c-0.5,0-0.7-0.3-0.7-0.6
				c0-0.2,0.1-0.3,0.1-0.5l0.8-2.9c0.1-0.4,0.3-0.9,1-0.9C392.9,384.3,393.2,384.6,393.2,384.9z"/>
			<path fill="#42669A" d="M395.4,388.4c0-2.2,1.8-3.6,4.3-3.6c1.2,0,2.3,0.3,3.2,0.9c0.5,0.3,0.7,0.6,0.7,0.9
				c0,0.4-0.3,0.9-0.8,0.9c-0.2,0-0.3-0.2-0.8-0.3c-0.8-0.4-1.5-0.7-2.4-0.7c-1.7,0-2.6,0.9-2.6,1.9c0,2.9,6.8,2.2,6.8,6.7
				c0,2.5-2,3.9-4.7,3.9c-1.4,0-2.6-0.4-3.5-1.1c-0.4-0.3-0.7-0.6-0.7-0.9c0-0.4,0.3-0.9,0.8-0.9c0.3,0,0.4,0.2,0.9,0.4
				c0.8,0.5,1.5,0.9,2.6,0.9c1.7,0,2.8-0.9,2.8-2.2C402.2,391.8,395.4,392.6,395.4,388.4z"/>
			<path fill="#42669A" d="M411.5,388.4c0-2.2,1.8-3.6,4.3-3.6c1.2,0,2.3,0.3,3.2,0.9c0.5,0.3,0.7,0.6,0.7,0.9
				c0,0.4-0.3,0.9-0.8,0.9c-0.2,0-0.3-0.2-0.8-0.3c-0.8-0.4-1.5-0.7-2.4-0.7c-1.7,0-2.6,0.9-2.6,1.9c0,2.9,6.8,2.2,6.8,6.7
				c0,2.5-2,3.9-4.7,3.9c-1.4,0-2.6-0.4-3.5-1.1c-0.4-0.3-0.7-0.6-0.7-0.9c0-0.4,0.3-0.9,0.8-0.9c0.3,0,0.4,0.2,0.9,0.4
				c0.8,0.5,1.5,0.9,2.6,0.9c1.7,0,2.8-0.9,2.8-2.2C418.4,391.8,411.5,392.6,411.5,388.4z"/>
			<path fill="#42669A" d="M428.9,384.7c3.9,0,6.5,2.7,6.5,7c0,4.2-2.6,7-6.5,7c-4,0-6.5-2.7-6.5-7
				C422.4,387.5,424.9,384.7,428.9,384.7z M428.9,397.2c2.8,0,4.7-2.1,4.7-5.5s-1.8-5.5-4.7-5.5s-4.7,2.2-4.7,5.5
				C424.2,395,426.1,397.2,428.9,397.2z"/>
			<path fill="#42669A" d="M444.4,397.2c0.9,0,1.8-0.3,2.5-0.7c0.4-0.3,0.7-0.5,0.9-0.5c0.4,0,0.8,0.5,0.8,0.9c0,0.3-0.3,0.7-0.9,1
				c-0.9,0.6-2.1,0.9-3.4,0.9c-3.8,0-6.4-2.8-6.4-7.1c0-4.3,2.6-7,6.4-7c1.3,0,2.5,0.3,3.4,0.9c0.6,0.3,0.9,0.7,0.9,1
				s-0.3,0.9-0.8,0.9c-0.3,0-0.5-0.3-0.9-0.5c-0.7-0.4-1.6-0.7-2.5-0.7c-2.7,0-4.6,1.9-4.6,5.4C439.7,395.1,441.6,397.2,444.4,397.2
				z"/>
			<path fill="#42669A" d="M453.2,397.9c0,0.5-0.3,0.8-0.9,0.8c-0.6,0-0.9-0.3-0.9-0.8v-12.3c0-0.5,0.3-0.8,0.9-0.8
				c0.6,0,0.9,0.3,0.9,0.8V397.9z"/>
			<path fill="#42669A" d="M463.2,390.7c0.5,0,0.8,0.3,0.8,0.8c0,0.5-0.3,0.9-0.8,0.9h-4.7v4.7h5.6c0.5,0,0.8,0.3,0.8,0.9
				c0,0.5-0.3,0.9-0.8,0.9h-6.4c-0.7,0-0.9-0.3-0.9-0.9v-11.7c0-0.7,0.3-0.9,0.9-0.9h6.3c0.5,0,0.8,0.3,0.8,0.9
				c0,0.5-0.3,0.8-0.8,0.8h-5.4v4.2h4.7L463.2,390.7L463.2,390.7z"/>
			<path fill="#42669A" d="M472.8,397.9c0,0.5-0.3,0.8-0.9,0.8c-0.6,0-0.9-0.3-0.9-0.8v-11.3h-3.7c-0.5,0-0.8-0.3-0.8-0.8
				c0-0.5,0.3-0.9,0.8-0.9h9.3c0.5,0,0.8,0.3,0.8,0.9c0,0.5-0.3,0.8-0.8,0.8h-3.7L472.8,397.9L472.8,397.9z"/>
			<path fill="#42669A" d="M488.4,385.6c0.3-0.5,0.5-0.7,1.2-0.7c0.6,0,0.9,0.2,0.9,0.5c0,0.3-0.2,0.6-0.4,0.9l-4.6,7.7v3.9
				c0,0.5-0.3,0.8-0.9,0.8c-0.6,0-0.9-0.3-0.9-0.8V394l-4.5-7.7c-0.3-0.3-0.4-0.7-0.4-0.9c0-0.3,0.3-0.5,0.9-0.5
				c0.7,0,0.9,0.3,1.2,0.7l3.8,6.7L488.4,385.6z"/>
		</g>
		<g>
			<path fill="#42669A" d="M188.7,421.3c0,2.7-2.3,4.5-6.6,4.5c-1,0-2.2-0.1-3-0.3c-1.3-0.4-1.4-1.3-1.4-2.1v-10.9
				c0-0.9,0-1.8,1.4-2.1c0.7-0.2,1.9-0.3,3-0.3c3.9,0,6.1,1.6,6.1,4.2c0,1.8-1,3-2.9,3.4C187.7,418,188.7,419.5,188.7,421.3z
				 M180.8,412.8v3.6h1.4c0.6,0,1.1-0.1,1.4-0.2c0.9-0.3,1.3-0.9,1.3-1.8c0-1.2-0.9-1.9-2.8-1.9
				C181.7,412.7,181.3,412.7,180.8,412.8z M185.4,421.1c0-0.9-0.4-1.6-1.5-1.9c-0.4-0.2-1-0.3-1.7-0.3h-1.4v4.1
				c0.4,0.1,0.9,0.1,1.4,0.1C184.6,423.2,185.4,422.3,185.4,421.1z"/>
			<path fill="#42669A" d="M204.4,424.9c0,0.5-0.4,0.9-1.5,0.9c-1.1,0-1.6-0.3-1.8-1.1l-0.9-2.5h-5.8l-0.9,2.5
				c-0.3,0.8-0.7,1.1-1.8,1.1s-1.4-0.4-1.4-0.9c0-0.3,0.1-0.6,0.3-1.1l4.4-12.1c0.4-1.3,0.9-1.7,2.3-1.7s1.9,0.5,2.3,1.7l4.4,12.1
				C204.3,424.2,204.4,424.6,204.4,424.9z M194.1,408c0-0.5,0.4-0.9,0.9-1.2l1.1-0.9c0.3-0.3,0.8-0.6,1.4-0.6c0.6,0,1.2,0.4,1.4,0.6
				l1.1,0.9c0.4,0.3,0.9,0.7,0.9,1.2c0,0.5-0.4,1.2-1.1,1.2c-0.4,0-0.7-0.2-1.6-0.9l-0.7-0.5l-0.7,0.5c-0.8,0.6-1.3,0.9-1.6,0.9
				C194.6,409.1,194.1,408.5,194.1,408z M199.3,419.5l-2-5.8l-2,5.8H199.3z"/>
			<path fill="#42669A" d="M212.1,424.5c0,0.9-0.5,1.3-1.6,1.3c-1.1,0-1.6-0.4-1.6-1.3V413h-3.2c-0.9,0-1.3-0.5-1.3-1.4
				c0-1,0.4-1.4,1.3-1.4h9.8c0.9,0,1.3,0.5,1.3,1.4c0,1-0.4,1.4-1.3,1.4h-3.2v11.4H212.1z"/>
			<path fill="#42669A" d="M222.4,424.5c0,0.9-0.5,1.3-1.6,1.3c-1.1,0-1.6-0.4-1.6-1.3v-13.2c0-0.9,0.5-1.3,1.6-1.3
				c1.1,0,1.6,0.4,1.6,1.3V424.5z"/>
			<path fill="#42669A" d="M237.3,424.9c0,0.6-0.4,0.9-1.5,0.9c-1.4,0-1.8-0.4-2.4-1.4l-2.6-3.8c-0.3,0-0.7,0.1-1,0.1
				c-0.3,0-0.7,0-0.9-0.1v4c0,0.9-0.5,1.3-1.6,1.3c-1.1,0-1.6-0.4-1.6-1.3v-12.1c0-0.9,0-1.8,1.4-2.1c0.7-0.2,1.9-0.3,2.9-0.3
				c4,0,6.4,1.8,6.4,5.1c0,2.1-1,3.7-2.8,4.7l2.4,3.2C237.1,424.1,237.3,424.5,237.3,424.9z M230,417.9c2.2,0,3.4-1,3.4-2.6
				c0-1.7-1.3-2.6-3.2-2.6c-0.4,0-0.9,0.1-1.2,0.1v5C229.3,417.9,229.6,417.9,230,417.9z"/>
			<path fill="#42669A" d="M253.7,423.8c0.6,0,0.9,0.3,0.9,0.9c0,0.6-0.3,0.9-0.9,0.9h-6.6c-0.8,0-1.1-0.3-1.1-1.1v-13.7
				c0-0.6,0.3-0.9,1-0.9s1,0.3,1,0.9v12.9L253.7,423.8L253.7,423.8z"/>
			<path fill="#42669A" d="M269.7,425.2c0,0.3-0.3,0.6-0.9,0.6c-0.6,0-1-0.3-1.2-0.8l-1.3-3.5h-6.7l-1.3,3.5
				c-0.2,0.5-0.4,0.8-1.2,0.8c-0.7,0-0.9-0.3-0.9-0.6c0-0.3,0.1-0.5,0.2-0.8l5.2-13.3c0.3-0.9,0.6-1.1,1.4-1.1
				c0.9,0,1.2,0.3,1.4,1.1l5.1,13.3C269.6,424.7,269.7,425,269.7,425.2z M265.7,419.8l-2.7-7.2l-2.7,7.2H265.7z"/>
			<path fill="#42669A" d="M278.1,414c0-2.5,2-4.1,5-4.1c1.3,0,2.7,0.3,3.6,1c0.6,0.3,0.9,0.7,0.9,1c0,0.4-0.4,1-0.9,1
				c-0.3,0-0.4-0.2-0.9-0.4c-0.9-0.5-1.7-0.9-2.7-0.9c-1.8,0-2.9,0.9-2.9,2.2c0,3.2,7.7,2.5,7.7,7.6c0,2.8-2.3,4.4-5.4,4.4
				c-1.6,0-2.9-0.5-4-1.3c-0.5-0.3-0.8-0.7-0.8-1.1s0.4-1,0.9-1c0.3,0,0.5,0.2,1,0.5c0.9,0.6,1.8,1,2.9,1c1.9,0,3.2-1,3.2-2.6
				C285.8,418,278.1,418.8,278.1,414z"/>
			<path fill="#42669A" d="M297.9,409.9c4.5,0,7.4,3.1,7.4,8c0,4.8-2.9,8-7.4,8c-4.5,0-7.4-3.1-7.4-8
				C290.4,413,293.3,409.9,297.9,409.9z M297.9,424.2c3.2,0,5.4-2.4,5.4-6.3c0-3.8-2.1-6.3-5.4-6.3c-3.3,0-5.4,2.4-5.4,6.3
				C292.5,421.7,294.7,424.2,297.9,424.2z"/>
			<path fill="#42669A" d="M315.5,424.2c1.1,0,2.1-0.3,2.8-0.8c0.5-0.3,0.8-0.6,1.1-0.6c0.4,0,0.9,0.6,0.9,0.9c0,0.4-0.4,0.8-1,1.2
				c-1.1,0.7-2.3,1.1-3.9,1.1c-4.3,0-7.3-3.1-7.3-8.1c0-4.9,3-7.9,7.2-7.9c1.4,0,2.8,0.4,3.9,1.1c0.7,0.4,1,0.8,1,1.2s-0.4,1-0.9,1
				c-0.3,0-0.5-0.3-1-0.6c-0.9-0.5-1.8-0.8-2.9-0.8c-3.1,0-5.3,2.2-5.3,6.1C310.2,421.7,312.3,424.2,315.5,424.2z"/>
			<path fill="#42669A" d="M325.6,424.9c0,0.6-0.3,0.9-1,0.9s-1-0.3-1-0.9v-14.1c0-0.6,0.3-0.9,1-0.9s1,0.3,1,0.9V424.9z"/>
			<path fill="#42669A" d="M337,416.7c0.6,0,0.9,0.3,0.9,0.9c0,0.6-0.3,0.9-0.9,0.9h-5.3v5.4h6.4c0.6,0,0.9,0.3,0.9,0.9
				c0,0.6-0.3,0.9-0.9,0.9h-7.4c-0.8,0-1.1-0.3-1.1-1.1v-13.3c0-0.8,0.3-1.1,1.1-1.1h7.1c0.6,0,0.9,0.3,0.9,0.9
				c0,0.6-0.3,0.9-0.9,0.9h-6.2v4.8L337,416.7L337,416.7z M335.2,408c-1.3,0.8-1.6,0.9-1.8,0.9c-0.5,0-0.8-0.4-0.8-0.9
				c0-0.4,0.3-0.6,0.9-0.9l1.8-1.3c0.4-0.3,0.6-0.4,0.9-0.4c0.6,0,0.9,0.6,0.9,1C337.1,407.1,336.3,407.4,335.2,408z"/>
			<path fill="#42669A" d="M348,424.9c0,0.6-0.3,0.9-1,0.9s-1-0.3-1-0.9V412h-4.2c-0.6,0-0.9-0.3-0.9-0.9c0-0.6,0.3-0.9,0.9-0.9
				h10.6c0.6,0,0.9,0.3,0.9,0.9c0,0.6-0.3,0.9-0.9,0.9h-4.2v12.9H348z"/>
			<path fill="#42669A" d="M363.3,416.7c0.6,0,0.9,0.3,0.9,0.9c0,0.6-0.3,0.9-0.9,0.9h-5.3v5.4h6.4c0.6,0,0.9,0.3,0.9,0.9
				c0,0.6-0.3,0.9-0.9,0.9h-7.3c-0.8,0-1.1-0.3-1.1-1.1v-13.3c0-0.8,0.3-1.1,1.1-1.1h7.1c0.6,0,0.9,0.3,0.9,0.9
				c0,0.6-0.3,0.9-0.9,0.9H358v4.8L363.3,416.7L363.3,416.7z M361.6,408c-1.3,0.8-1.6,0.9-1.8,0.9c-0.5,0-0.8-0.4-0.8-0.9
				c0-0.4,0.3-0.6,0.9-0.9l1.8-1.3c0.4-0.3,0.6-0.4,0.9-0.4c0.6,0,0.9,0.6,0.9,1C363.4,407.1,362.7,407.4,361.6,408z"/>
			<path fill="#42669A" d="M377.9,425.8c-0.9,0-2-0.1-2.7-0.3c-1-0.3-1-0.8-1-1.4v-12.4c0-0.6,0-1.3,1-1.4c0.6-0.2,1.8-0.3,2.7-0.3
				c5.5,0,8.6,2.8,8.6,7.8C386.6,423,383.4,425.8,377.9,425.8z M378,424.1c4.2,0,6.5-2.2,6.5-6.2c0-4-2.2-6.2-6.5-6.2
				c-0.6,0-1.2,0.1-1.8,0.2v12C376.8,424,377.4,424.1,378,424.1z"/>
			<path fill="#42669A" d="M397.3,416.7c0.6,0,0.9,0.3,0.9,0.9c0,0.6-0.3,0.9-0.9,0.9h-5.3v5.4h6.4c0.6,0,0.9,0.3,0.9,0.9
				c0,0.6-0.3,0.9-0.9,0.9h-7.3c-0.8,0-1.1-0.3-1.1-1.1v-13.3c0-0.8,0.3-1.1,1.1-1.1h7.1c0.6,0,0.9,0.3,0.9,0.9
				c0,0.6-0.3,0.9-0.9,0.9H392v4.8L397.3,416.7L397.3,416.7z"/>
			<path fill="#42669A" d="M412,425.8c-0.9,0-2-0.1-2.7-0.3c-1-0.3-1-0.8-1-1.4v-12.4c0-0.6,0-1.3,1-1.4c0.6-0.2,1.8-0.3,2.7-0.3
				c5.5,0,8.6,2.8,8.6,7.8C420.6,423,417.4,425.8,412,425.8z M412,424.1c4.2,0,6.5-2.2,6.5-6.2c0-4-2.2-6.2-6.5-6.2
				c-0.6,0-1.2,0.1-1.8,0.2v12C410.8,424,411.5,424.1,412,424.1z"/>
			<path fill="#42669A" d="M431.4,416.7c0.6,0,0.9,0.3,0.9,0.9c0,0.6-0.3,0.9-0.9,0.9h-5.3v5.4h6.4c0.6,0,0.9,0.3,0.9,0.9
				c0,0.6-0.3,0.9-0.9,0.9h-7.3c-0.8,0-1.1-0.3-1.1-1.1v-13.3c0-0.8,0.3-1.1,1.1-1.1h7.1c0.6,0,0.9,0.3,0.9,0.9
				c0,0.6-0.3,0.9-0.9,0.9H426v4.8L431.4,416.7L431.4,416.7z"/>
			<path fill="#42669A" d="M445.8,422.5c-0.3,0.7-0.6,0.9-1.2,0.9c-0.6,0-0.9-0.3-1.3-0.9l-4.4-9.8l-0.9,12.2
				c-0.1,0.6-0.3,0.9-1,0.9s-0.9-0.3-0.9-0.9l1-13.6c0.1-0.9,0.3-1.3,1.3-1.3c0.9,0,1.3,0.3,1.7,1.3l4.4,9.8l4.4-9.8
				c0.3-0.9,0.8-1.3,1.7-1.3c0.9,0,1.3,0.4,1.3,1.3l1,13.6c0,0.6-0.3,0.9-0.9,0.9c-0.7,0-1-0.3-1.1-0.9l-0.9-12.2L445.8,422.5z"/>
			<path fill="#42669A" d="M469.2,425.2c0,0.3-0.3,0.6-0.9,0.6c-0.8,0-1-0.3-1.2-0.8l-1.3-3.5h-6.7l-1.3,3.5
				c-0.2,0.5-0.4,0.8-1.2,0.8c-0.7,0-0.9-0.3-0.9-0.6c0-0.3,0.1-0.5,0.2-0.8l5.2-13.3c0.3-0.9,0.6-1.1,1.4-1.1
				c0.9,0,1.2,0.3,1.4,1.1l5.1,13.3C469.1,424.7,469.2,425,469.2,425.2z M465.1,419.8l-2.7-7.2l-2.7,7.2H465.1z"/>
			<path fill="#42669A" d="M474.3,424.9c0,0.6-0.3,0.9-1,0.9s-1-0.3-1-0.9v-14.1c0-0.6,0.3-0.9,1-0.9s1,0.3,1,0.9V424.9z"/>
			<path fill="#42669A" d="M480.4,424.9c0,0.6-0.3,0.9-0.9,0.9c-0.7,0-1-0.3-1-0.9v-13.8c0-0.8,0.4-1.1,1.3-1.1s1.4,0.4,1.8,1
				l7.4,11.7v-11.9c0-0.6,0.3-0.9,0.9-0.9c0.7,0,1,0.3,1,0.9v13.8c0,0.8-0.4,1.1-1.2,1.1c-0.9,0-1.3-0.4-1.7-1.1l-7.6-11.9
				L480.4,424.9L480.4,424.9z"/>
		</g>
	</g>
	<g>
		<path fill="#899A3A" d="M454.3,235c-1.8,0-3.1,1.4-3.1,3.1v10.2h6.4v-10.2C457.4,236.5,456,235,454.3,235z M455.1,246.1h-1.6v-7.8
			c0-0.4,0.3-0.9,0.9-0.9s0.9,0.3,0.9,0.9v7.8H455.1z"/>
		<path fill="#899A3A" d="M451.3,229.9h5.9c0.7,0,1.2-0.5,1.2-1.2c0-0.7-0.5-1.2-1.2-1.2h-5.9c-0.7,0-1.2,0.5-1.2,1.2
			C450.2,229.4,450.7,229.9,451.3,229.9z"/>
		<path fill="#899A3A" d="M457.3,232.9c0.7,0,1.2-0.5,1.2-1.2s-0.5-1.2-1.2-1.2h-5.9c-0.7,0-1.2,0.5-1.2,1.2s0.5,1.2,1.2,1.2H457.3z
			"/>
		<path fill="#899A3A" d="M260.7,248v-13c0-2.1-1.8-3.8-3.8-3.8s-3.8,1.8-3.8,3.8V248L260.7,248L260.7,248z M255.4,235
			c0-0.9,0.7-1.4,1.4-1.4c0.9,0,1.4,0.7,1.4,1.4v10.7h-2.8L255.4,235L255.4,235z"/>
		<path fill="#899A3A" d="M279.1,248v-13c0-2.1-1.8-3.8-3.8-3.8s-3.8,1.8-3.8,3.8V248L279.1,248L279.1,248z M273.7,235
			c0-0.9,0.7-1.4,1.4-1.4c0.9,0,1.4,0.7,1.4,1.4v10.7h-2.8L273.7,235L273.7,235z"/>
		
			<linearGradient id="SVGID_1_" gradientUnits="userSpaceOnUse" x1="336.945" y1="19.712" x2="336.945" y2="130.1424" gradientTransform="matrix(1.2926 0 0 1.2926 -103.574 158.0431)">
			<stop  offset="0" style="stop-color:#41669A"/>
			<stop  offset="0.3946" style="stop-color:#899B3A"/>
			<stop  offset="0.6493" style="stop-color:#899B3A"/>
			<stop  offset="0.8248" style="stop-color:#1D433F"/>
			<stop  offset="1" style="stop-color:#04273D"/>
		</linearGradient>
		<path fill="url(#SVGID_1_)" d="M507.4,287.4c0-4.7-2.3-9.9-8.7-10.3c0-0.2,0-0.3,0-0.4c0-6.2-5-11.2-11.2-11.2c-1,0-2,0.2-3,0.4
			v-13.8l0.9-2.7c0.2-0.6,0.6-0.7,1-1.1c0.6-0.6-0.1-1.4-0.1-1.4l-9.8-14.7l-0.4-0.7v-3.9c0-0.7-0.5-1.2-1.2-1.2s-1.2,0.5-1.2,1.2
			v3.1h-2.4v-3.1c0-0.7-0.5-1.2-1.2-1.2s-1.2,0.5-1.2,1.2v3.1h-3.6v-9.5h1.6c0.4,0,0.9-0.3,1.1-0.6c0.3-0.4,0.2-0.9,0-1.3l-2.8-4.4
			l-6.4-16.3v-3c0-0.7-0.5-1.2-1.2-1.2c-0.7,0-1.2,0.5-1.2,1.2v2.1h-3.5v-2c0-0.7-0.5-1.2-1.2-1.2c-0.7,0-1.2,0.5-1.2,1.2v3
			l-6.4,16.3l-2.8,4.4c-0.3,0.3-0.3,0.9,0,1.3s0.6,0.6,1.1,0.6h1.6v9.5h-4.5V228c0-0.7-0.5-1.2-1.2-1.2c-0.7,0-1.2,0.5-1.2,1.2v2.8
			h-2.4V228c0-0.7-0.5-1.2-1.2-1.2c-0.7,0-1.2,0.5-1.2,1.2v3.6l-10.8,15.3c0,0-0.7,0.9-0.1,1.4c0.4,0.4,0.9,0.5,1,1.1l0.9,2.7v5.8
			c-2-1.6-4.2-2.8-6.7-3.6v-40c0-0.7-0.5-1.2-1.2-1.2s-1.2,0.5-1.2,1.2v39.3c-1.3-0.3-2.5-0.3-3.8-0.3c-0.5,0-1,0-1.5,0.1
			c-0.6-7.7-7.1-13.9-15-13.9c-0.1,0-0.2,0-0.3,0c-4.1-9.6-13.2-15.7-23.6-15.7c-11.7,0-21.9,8-24.8,19.3c-2.9-1.8-6.3-2.7-9.7-2.7
			c-4.1,0-7.8,1.3-10.9,3.4l-1.1-4.8h2.6c0.7,0,1.2-0.5,1.2-1.2v-5.6c0-0.7-0.5-1.2-1.2-1.2h-3.4v-2.2h1.8c0.5,0,0.9-0.3,1.1-0.8
			c0.2-0.5,0-1-0.3-1.3l-10.6-9.2c-0.4-0.4-1.1-0.4-1.6,0l-10.6,9.2c-0.4,0.3-0.5,0.9-0.3,1.3c0.2,0.5,0.6,0.8,1.1,0.8h1.8v2.2h-3.3
			c-0.7,0-1.2,0.5-1.2,1.2v5.6c0,0.7,0.5,1.2,1.2,1.2h2.6l-1.7,7.6h-17v-24.3c0-12.4-10.8-16.9-14.1-18v-4c0-2.4-2.7-3.6-4.2-4.2
			v-0.6v-10.8c0-0.7-0.5-1.2-1.2-1.2s-1.2,0.5-1.2,1.2v10.8v0.6c-1.5,0.5-4.2,1.8-4.2,4.2v4c-3.2,1.1-14.1,5.6-14.1,18v24.3h-13.8
			c-1.3-2.2-3.6-3.7-6.4-3.8c-2.1-4.6-6.6-7.4-11.7-7.4c-5.6,0-10.5,3.6-12.2,8.8c-1.3-0.7-2.7-1-4.2-1c-5.4,0-9.7,4.3-9.7,9.7
			c0,0.1,0,0.2,0,0.2c-1.1,0.1-3.5,0.4-5.4,2.3c-1.5,1.6-2.2,3.8-2.1,6.7c0.1,1.3,0.4,2.4,0.9,3.5c-0.2,0.3-0.3,0.8-0.4,1.1
			c-1.6-0.9-3.3-1.3-5.1-1.3c-6.2,0-11.2,5-11.2,11.2c0,0.2,0,0.3,0,0.4c-1.7,0.1-4.2,0.9-6.3,2.9c-1.3,1.3-2.7,3.7-2.5,7.4
			c0.3,5.3,4.2,9.3,9,9.6c1.5,2.1,8.1,8.2,31,8.2l0,0c81.4,0,121.6,12.1,122,12.1c24.1,6.4,46.3,8.8,66.2,8.8
			c25.6,0,47.2-4,63.4-8.4c29.2-8,47.3-19.3,49.8-20.8C503.2,296.8,507.4,292.5,507.4,287.4z M465.1,233.1h9l8.4,12.7h-17.4V233.1z
			 M465.1,248.1h18.1l-0.9,2.6h-17.2V248.1z M482,253v12.7c-2.2-5.8-7.6-9.7-14-9.7c-1,0-2,0.1-3,0.3v-3.3L482,253L482,253z
			 M459.4,275.2c0.4-0.1,0.8-0.1,1.1-0.1c5.4,0,9.8,4.4,9.8,9.8c0,5.4-4.4,9.8-9.8,9.8h-10.3h-13.4v-9.3l4.2-5.8
			c0.4-0.5,0.3-1.3-0.3-1.7c-0.5-0.4-1.3-0.3-1.7,0.3l-2.2,3.1v-7.1c0-0.7-0.5-1.2-1.2-1.2s-1.2,0.5-1.2,1.2v14.1l-14-4.4
			c-0.7-0.2-1.3,0.2-1.5,0.8c-0.2,0.7,0.2,1.3,0.8,1.5l14.8,4.6v3.9h-26.2c-4,0-7.3-3.2-7.3-7.3c0-1.8,0.5-7.6,6.6-7.9
			c0.3,0,0.6,0,0.9,0.1l1.7,0.3l-0.3-1.7c-0.1-0.3-0.1-0.5-0.1-0.8v-1.8c0.5-4.3,4.2-7.6,8.7-7.6c1.8,0,3.6,0.6,5.2,1.8l1.5,1.2
			l0.3-1.8c1.1-5.9,6.3-10.3,12.3-10.3c5.3,0,9.9,3.1,11.7,8.1l0.3,0.9l0.9-0.1c0.1,0,0.2,0,0.3,0c0.1,0,0.1,0,0.2,0
			c3.6,0,6.6,2.9,6.6,6.5v1.6L459.4,275.2z M342.3,287.6c-0.5-5.4-3.9-6.7-6.4-6.9c5-2.2,13-5.4,23.1-7.2c8.7-1.7,19.8-2.6,32.2-0.9
			c0.3,0.2,0.6,0.2,0.9,0.2c3.8,0.6,7.7,1.3,11.7,2.5L342.3,287.6z M334.4,294.6h-4.3h-16.1V292l11.5-3.6c0.7-0.2,1-0.9,0.8-1.5
			c-0.2-0.7-0.9-1-1.5-0.8l-10.8,3.3v-10.8c0-0.7-0.5-1.2-1.2-1.2c-0.7,0-1.2,0.5-1.2,1.2v4.8l-1.3-1.8c-0.4-0.5-1.2-0.7-1.7-0.3
			c-0.5,0.4-0.7,1.2-0.3,1.7l3.2,4.6v7h-18.5c-4.2,0-7.5-3.3-7.5-7.5s3.3-7.5,7.5-7.5c0.3,0,0.6,0,0.9,0.1l1.6,0.3v-1.3
			c0-0.1,0-0.1,0-0.2c0-2.7,2.2-4.9,5-4.9h0.1c0.1,0,0.2,0,0.3,0l0.9,0.1l0.3-0.9c1.4-3.7,5-6.3,9-6.3c4.7,0,8.7,3.3,9.5,7.9
			l0.3,1.8l1.5-1.2c1.2-0.9,2.5-1.3,3.9-1.3c3.6,0,6.7,3,6.7,6.7c0,0.3,0,0.7-0.1,1.2l-0.3,1.7l1.7-0.3c0.3-0.1,0.5-0.1,0.8-0.1l0,0
			c3.3,0,4.9,1.9,4.9,6C340,292.1,337.5,294.6,334.4,294.6z M229.5,290.7l14.8-4.6c0.7-0.2,1-0.9,0.8-1.5c-0.2-0.7-0.9-1-1.5-0.8
			l-14,4.4v-14.1c0-0.7-0.5-1.2-1.2-1.2s-1.2,0.5-1.2,1.2v7.1l-2.2-3.1c-0.4-0.5-1.2-0.7-1.7-0.3c-0.5,0.4-0.7,1.2-0.3,1.7l4.2,5.8
			v9.3h-11.5h-12.3c-5.4,0-9.8-4.4-9.8-9.8c0-5.4,4.4-9.8,9.8-9.8c0.3,0,0.8,0.1,1.1,0.1l1.6,0.3v-1.4c0-0.1,0-0.1,0-0.2
			c0-3.6,3-6.5,6.6-6.5c0.1,0,0.2,0,0.2,0c0.1,0,0.2,0,0.3,0l0.9,0.1l0.3-0.9c1.9-4.9,6.5-8.1,11.7-8.1c6.1,0,11.2,4.3,12.3,10.3
			l0.3,1.8l1.5-1.2c1.5-1.1,3.3-1.8,5.2-1.8c4.8,0,8.7,3.9,8.7,8.7c0,0.4-0.1,0.9-0.2,1.5l-0.3,1.7l1.7-0.3c0.2,0,0.4-0.1,0.6-0.1
			c0.2,0,0.3,0,0.5-0.1c1.7-0.2,2.9,0.2,3.9,1.1c2.4,2.2,2.4,6.7,2.4,6.9c0,4-3.2,7.3-7.3,7.3h-25.9L229.5,290.7L229.5,290.7z
			 M258.4,277c-0.5-0.1-1.1-0.1-1.7,0c0-0.2,0-0.3,0-0.4c0-1.8-0.4-3.5-1.2-5c0.1-0.8,0.7-1.3,1.4-1.3c0.9,0,1.4,0.7,1.4,1.4
			L258.4,277L258.4,277z M276.7,294.6h-2.8v-22.9c0-0.9,0.7-1.4,1.4-1.4c0.9,0,1.4,0.7,1.4,1.4L276.7,294.6L276.7,294.6z
			 M279.1,294.6v-22.9c0-2.1-1.8-3.8-3.8-3.8s-3.8,1.8-3.8,3.8v22.9h-9.3c2-1.8,3.3-4.4,3.3-7.3c0-0.6-0.1-5.8-3.2-8.7
			c-0.4-0.4-0.9-0.8-1.4-1v-6c0-2.1-1.8-3.8-3.8-3.8c-1.2,0-2.2,0.6-2.9,1.4c-2.1-2.3-5.1-3.8-8.4-3.8c-1.1,0-2.1,0.2-3.1,0.5
			c0.6-0.9,1.1-1.8,1.4-2.8h46.8v14.6c-4.2,1.2-7.3,5-7.3,9.6c0,3,1.3,5.7,3.4,7.5h-7.6L279.1,294.6L279.1,294.6z M307.4,233.4h13
			v3.2h-6.5h-6.4L307.4,233.4L307.4,233.4z M328.3,271.7c-0.6-0.1-1.3-0.2-1.8-0.2c-1.3,0-2.7,0.3-3.9,0.9c-1.2-3.6-4-6.3-7.4-7.6
			v-6.2h1c0.7,0,1.2-0.5,1.2-1.2v-6.4c0-0.7-0.5-1.2-1.2-1.2h-1V239h6L328.3,271.7z M407.6,273.9c-1.3-0.4-2.4-0.8-3.6-1.1l-2.8-8.8
			c3.6,0.9,7.2,2.1,11,3.5C409.9,269,408.3,271.2,407.6,273.9z M401.2,272c-2.4-0.6-4.8-1.1-7.2-1.5l4.8-5.8L401.2,272z
			 M391.3,270.1c-2.4-0.3-4.8-0.6-7.1-0.7l-4.8-8.3c5.6,0.1,11.7,0.7,17.9,1.9L391.3,270.1z M381.3,269.3c-1.2,0-2.2-0.1-3.4-0.1
			c-1.5,0-2.9,0-4.3,0.1l3.6-7L381.3,269.3z M370.7,269.5c-2.4,0.2-4.8,0.4-7,0.8l-6-7.1c0.3-0.1,0.8-0.2,1.1-0.3
			c4.8-0.9,10.3-1.6,16.2-1.8L370.7,269.5z M361,270.6c-0.9,0.2-1.8,0.3-2.7,0.5c-1.6,0.3-3.1,0.7-4.7,1l2.3-7.3L361,270.6z
			 M350.9,272.8c-2.2,0.6-4.4,1.3-6.3,1.9l-6.9-5.4c4-1.8,9.5-3.7,16.1-5.4L350.9,272.8z M341.9,275.7c-2.3,0.9-4.4,1.7-6.2,2.5
			l0.7-6.7L341.9,275.7z M333.6,275c-0.8-0.9-1.7-1.8-2.7-2.3v-0.1c0.6-0.3,1.7-0.9,3.1-1.6L333.6,275z M312.9,252.3h1.9v4h-1.9
			V252.3z M312.7,239V250h-1c-0.7,0-1.2,0.5-1.2,1.2v6.4c0,0.7,0.5,1.2,1.2,1.2h1v5.6c-0.5-0.1-1.1-0.1-1.7-0.1
			c-4.8,0-8.9,2.7-10.9,7c-0.2,0-0.3,0-0.5,0l7-32.2L312.7,239L312.7,239z M297,272c-2,1.1-3.5,3-3.8,5.4h-0.1c-0.1,0-0.1,0-0.2,0
			v-15.4c0-0.5-0.3-0.9-0.7-1.1l0,0l-6.7-3.1v-3.1h15.2L297,272z M266.1,251.5l17.2,7.9c0.2,0.3,0.6,0.7,1.1,0.7c0.1,0,0.2,0,0.3,0
			l1.6,0.8h-39.7L266.1,251.5z M283.1,256.6l-15.9-7.2v-21.8h15.9L283.1,256.6L283.1,256.6z M264.8,249.4l-15.9,7.5v-29.3h15.9
			V249.4z M246.5,257.9l-2.2,1.1c-0.1-1.6-0.6-3.1-1.3-4.4h3.6V257.9L246.5,257.9z M425.7,260.1v-7h17.8v4.1
			c-1.8-0.7-3.6-1.1-5.6-1.1c-4.4,0-8.4,1.9-11.2,5.1C426.4,260.8,426,260.5,425.7,260.1z M454.4,264.9c-0.5,0-1,0.1-1.5,0.2
			c-0.5-0.1-1-0.2-1.6-0.2c-1.3-2.7-3.1-4.9-5.6-6.5v-37.2h2.3c0.8,2.7,3.2,4.7,6.2,4.7c2.9,0,5.4-2,6.2-4.7h2.3v35.9
			C459.1,258.5,456.1,261.2,454.4,264.9z M450.3,219.5c0-2.2,1.8-4,4-4c2.2,0,4,1.8,4,4c0,2.2-1.8,4-4,4S450.3,221.6,450.3,219.5z
			 M445.8,216.1c0-0.1,0.1-0.2,0.1-0.2l6.3-15.8h4.2l6.3,15.8c0,0.1,0.1,0.2,0.1,0.2l1.7,2.7h-3.9c-0.3-3.1-3.1-5.7-6.3-5.7
			s-6,2.5-6.3,5.7h-3.6L445.8,216.1z M433.6,233.1h9.9v12.6h-18.3L433.6,233.1z M443.4,248.1v2.6h-18.1l-0.9-2.6H443.4z
			 M335.5,242.8c3.5,0,6.8,1.1,9.8,3.2l1.5,1.2l0.3-1.8c2.1-11,11.7-19,22.9-19c9.7,0,18.3,5.9,21.7,15l0.3,0.9l0.9-0.1
			c0.2,0,0.3,0,0.5-0.1c0.2,0,0.3-0.1,0.5-0.1c7,0,12.7,5.7,12.7,12.6c0,0.1,0,0.2,0,0.3v1.4l1.8-0.3c0.8-0.1,1.4-0.2,2.1-0.2
			c6.1,0,11.4,2.9,14.8,7.5c-0.7,1.1-1.3,2.2-1.6,3.5c-1.6-0.9-3.3-1.3-5.1-1.3c-1.3,0-2.3,0.2-3.5,0.6c-13.5-5.5-26.4-7.3-37.6-7.2
			c-0.1,0-0.2,0-0.3,0s-0.2,0-0.2,0c-6.9,0.1-13.2,0.9-18.6,1.8c-14.4,2.7-24.4,7.6-28,9.6l-5.2-23.8
			C328,244.1,331.6,242.8,335.5,242.8z M324.9,233.4v3.2h-2.2v-3.2H324.9z M313.8,220l7.4,6.4h-14.8L313.8,220z M307.4,228.8h13v2.2
			h-12.9L307.4,228.8L307.4,228.8z M302.9,233.4h2.2v3.2h-2.2V233.4z M302,249l-0.7,3.2h-15.7V249H302z M269.2,200.3v5.8l0.9,0.3
			c0.5,0.2,13.2,3.2,13.2,15.9v2.9h-15.9v-26.5C268.3,199.1,269.2,199.7,269.2,200.3z M262,206.4l0.9-0.3v-5.8
			c0-0.6,0.9-1.2,1.9-1.7v26.6h-15.9v-2.9C248.9,209.6,261.5,206.5,262,206.4z M246.5,249v3.2H241c-1.9-1.8-4.4-2.9-7.2-2.9
			c-0.1,0-0.1,0-0.2,0c0-0.1-0.1-0.3-0.1-0.3H246.5z M183.5,261.9c-0.1-2.1,0.3-3.7,1.4-4.9c1.2-1.2,2.7-1.6,3.9-1.6
			c0.3,0,0.5,0,0.9,0.1l1.7,0.3l-0.3-1.7c-0.1-0.5-0.2-0.9-0.2-1.3c0-4,3.2-7.2,7.2-7.2c1.5,0,3,0.5,4.2,1.4l1.5,1.2l0.3-1.8
			c1-5.1,5.4-8.7,10.4-8.7c4.3,0,8.2,2.7,9.8,6.7l0.3,0.9l0.9-0.1c0.1,0,0.2,0,0.3,0s0.1,0,0.2,0c3,0,5.4,2.4,5.4,5.4v1.6l1.6-0.3
			c0.3-0.1,0.7-0.1,0.9-0.1c4.5,0,8.1,3.6,8.1,8.1c0,2.1-0.8,3.9-2,5.4c-2.3-5.4-7.6-9.1-13.8-9.1c-5.9,0-11.2,3.4-13.6,8.8
			c-0.1,0-0.2,0-0.3,0l0.1-8.2l4.8-2.4c0.6-0.3,0.9-1,0.5-1.6c-0.3-0.6-1-0.9-1.6-0.5l-3.7,1.9v-3.6c0-0.7-0.5-1.2-1.2-1.2l0,0
			c-0.7,0-1.2,0.5-1.2,1.2l-0.1,14.5c-0.1,0-0.3,0-0.3,0c-2.4-5.4-7.6-8.8-13.6-8.8c-5.1,0-9.6,2.5-12.3,6.5
			C183.5,262.4,183.5,262.1,183.5,261.9z M159,287.3c-0.2-2.3,0.5-4.2,1.8-5.7c1.4-1.5,3.4-2.2,4.7-2.2c0.3,0,0.6,0,1,0.1l1.7,0.3
			l-0.3-1.7c-0.1-0.6-0.2-1.1-0.2-1.5c0-4.8,3.9-8.7,8.7-8.7c1.8,0,3.6,0.6,5.2,1.8l1.5,1.2l0.3-1.8c1.3-6.3,6.4-10.5,12.4-10.5
			c5.3,0,9.8,3.1,11.7,8c-2,1.4-3.4,3.6-3.7,6.2c-0.1,0-0.3,0-0.3,0c-6.7,0-12.1,5.5-12.1,12.1c0,4,1.9,7.6,4.9,9.8h-29.8
			C162.4,294.6,159.2,291.5,159,287.3z M203.4,297h14.5h26.3l0,0h27.1h7.6h12.7l0,0h1.3h41.4h0.5l0,0c3.8-0.3,6.8-3.1,7.3-6.9
			l65-13.2c0,0.1,0,0.1,0,0.2c-3.7,0.3-6.1,2.2-7.3,4.6l-2.9,1.1c-0.6,0.3-0.9,0.9-0.8,1.5c0.2,0.5,0.7,0.8,1.2,0.8
			c0.2,0,0.3,0,0.4-0.1l1-0.3c-0.2,0.9-0.3,1.9-0.3,2.8c0,5.4,4.3,9.7,9.7,9.7h83.1c-26.6,9-86.8,13.6-149.4,8.2l1.9-0.7
			c0.6-0.3,0.9-0.9,0.8-1.5c-0.3-0.6-0.9-0.9-1.5-0.8l-6,2.2c-0.2,0.1-0.3,0.2-0.4,0.3c-5.8-0.6-11.7-1.2-17.5-1.9
			c-66.3-8.3-119.9-0.4-122.5,0c-17.4,0-24.7-3.6-27.5-5.8H203.4L203.4,297z M447.7,315.5c-28.6,7.8-74,14.2-128.4-0.4
			c-0.1,0-10.3-3.1-30.4-6.2c-15.6-2.3-40-5.1-72.7-5.9c21.7-1.8,59.4-3.3,102.6,2.2c65.8,8.2,133.4,4.8,166.7-4
			C477,305.5,464.1,311,447.7,315.5z M497.7,294.6h-29.9c3-2.2,4.9-5.8,4.9-9.8c0-6.7-5.5-12.1-12.1-12.1c-0.2,0-0.3,0-0.3,0
			c-0.3-2.5-1.8-4.8-3.7-6.2c1.9-4.9,6.5-8,11.7-8c6.1,0,11.2,4.3,12.3,10.3l0.3,1.8l1.5-1.2c1.5-1.1,3.3-1.8,5.2-1.8
			c4.8,0,8.7,3.9,8.7,8.7c0,0.4-0.1,0.9-0.2,1.5l-0.3,1.7l1.7-0.3c0.3-0.1,0.7-0.1,0.9-0.1c6.1,0.4,6.6,6.2,6.6,7.9
			C504.9,291.4,501.7,294.6,497.7,294.6z"/>
		
			<linearGradient id="SVGID_2_" gradientUnits="userSpaceOnUse" x1="351.8273" y1="109.1285" x2="358.3268" y2="109.1285" gradientTransform="matrix(1.2926 0 0 1.2926 -103.574 158.0431)">
			<stop  offset="0" style="stop-color:#14383F"/>
			<stop  offset="1" style="stop-color:#1D433F"/>
		</linearGradient>
		<path fill="url(#SVGID_2_)" d="M352.4,301.4c0.2,0,0.3,0,0.4-0.1l6-2.2c0.6-0.3,0.9-0.9,0.8-1.5c-0.3-0.6-0.9-0.9-1.5-0.8l-6,2.2
			c-0.6,0.3-0.9,0.9-0.8,1.5C351.4,301.1,351.9,301.4,352.4,301.4z"/>
		
			<linearGradient id="SVGID_3_" gradientUnits="userSpaceOnUse" x1="363.4404" y1="104.8816" x2="369.9399" y2="104.8816" gradientTransform="matrix(1.2926 0 0 1.2926 -103.574 158.0431)">
			<stop  offset="0.1752" style="stop-color:#1D433F"/>
			<stop  offset="1" style="stop-color:#3C5A43"/>
		</linearGradient>
		<path fill="url(#SVGID_3_)" d="M367.4,295.9c0.2,0,0.3,0,0.4-0.1l6-2.2c0.6-0.3,0.9-0.9,0.8-1.5c-0.3-0.6-0.9-0.9-1.5-0.8l-6,2.2
			c-0.6,0.3-0.9,0.9-0.8,1.5C366.4,295.7,366.9,295.9,367.4,295.9z"/>
		
			<linearGradient id="SVGID_4_" gradientUnits="userSpaceOnUse" x1="375.0538" y1="100.7044" x2="381.553" y2="100.7044" gradientTransform="matrix(1.2926 0 0 1.2926 -103.574 158.0431)">
			<stop  offset="0" style="stop-color:#355443"/>
			<stop  offset="1" style="stop-color:#607842"/>
		</linearGradient>
		<path fill="url(#SVGID_4_)" d="M382.4,290.5c0.2,0,0.3,0,0.4-0.1l6-2.2c0.6-0.3,0.9-0.9,0.8-1.5c-0.3-0.6-0.9-0.9-1.5-0.8l-6,2.2
			c-0.6,0.3-0.9,0.9-0.8,1.5C381.4,290.1,381.9,290.5,382.4,290.5z"/>
		
			<linearGradient id="SVGID_5_" gradientUnits="userSpaceOnUse" x1="393.584" y1="42.0185" x2="393.584" y2="51.7142" gradientTransform="matrix(1.2926 0 0 1.2926 -103.574 158.0431)">
			<stop  offset="0" style="stop-color:#657D76"/>
			<stop  offset="3.331342e-03" style="stop-color:#667E75"/>
			<stop  offset="0.1216" style="stop-color:#728863"/>
			<stop  offset="0.2382" style="stop-color:#7D9051"/>
			<stop  offset="0.3512" style="stop-color:#839644"/>
			<stop  offset="0.4588" style="stop-color:#88993D"/>
			<stop  offset="0.5555" style="stop-color:#899B3A"/>
			<stop  offset="1" style="stop-color:#899B3A"/>
		</linearGradient>
		<path fill="url(#SVGID_5_)" d="M397.7,224c1.2,0.7,2.3,0.9,3.5,0.9c1.5,0,2.9-0.4,4.2-0.9c2.2-0.6,4.1-1.2,5.9-0.1
			c0.3,0.3,0.9,0.3,1.2,0c0.3-0.3,0.6-0.6,0.6-1v-8.7c0-0.4-0.3-0.9-0.6-1c-2.7-1.6-5.4-0.8-7.7-0.1c-2.2,0.6-4.1,1.2-5.9,0.1
			c-0.3-0.3-0.9-0.3-1.2,0s-0.6,0.6-0.6,1v8.7C397.1,223.4,397.3,223.8,397.7,224z M399.5,216.1c2.1,0.5,4.2-0.1,6-0.6
			c1.9-0.6,3.6-1,5.4-0.4v6.2c-2.1-0.5-4.2,0.1-6,0.6c-1.9,0.6-3.6,1-5.4,0.4V216.1z"/>
		<g>
			<path fill="#05273C" d="M324.6,333c0.1-0.3,0-0.5-0.1-0.8c-0.2-0.3-0.3-0.3-0.6-0.4l-8.2-2c-0.6-0.1-1,0.2-1.1,0.8l-3.5,14.6l0,0
				c-0.1,0.3,0,0.5,0.1,0.8c0.2,0.3,0.3,0.3,0.6,0.4c0.1,0,0.2,0,0.3,0c0.2,0,0.3-0.1,0.5-0.2c0.3-0.2,0.4-0.3,0.4-0.6l1.5-6.3
				l6.2,1.5c0.3,0.1,0.5,0,0.8-0.1c0.3-0.2,0.4-0.3,0.4-0.6c0.1-0.3,0-0.5-0.1-0.8c-0.2-0.3-0.3-0.3-0.6-0.4l-6.2-1.5l1.3-5.4
				l7.2,1.8c0.3,0.1,0.5,0,0.8-0.2C324.3,333.5,324.5,333.2,324.6,333z"/>
			<path fill="#05273C" d="M332.5,333.5l-4.6-0.9c-0.3,0-0.4,0.1-0.7,0.2c-0.2,0.2-0.3,0.3-0.3,0.6l-2.7,14.8
				c-0.1,0.3,0,0.5,0.2,0.8c0.2,0.3,0.3,0.3,0.6,0.4c0.3,0.1,0.5,0,0.8-0.2c0.3-0.2,0.3-0.3,0.4-0.6l1.1-5.9l3.3,0.6h0.1
				c0.6,0.2,1.1,0.6,1.6,1.1c0.7,0.7,0.9,1.4,0.8,2.2c-0.4,2.5-0.1,3.8,1.2,4.1l0.4,0.1h0.1c0.5-0.1,0.9-0.5,0.9-1.1
				c-0.1-0.4-0.3-0.7-0.7-0.8c-0.1-0.2-0.1-0.7,0.1-1.6c0.2-1.1,0.1-2-0.3-2.7c-0.3-0.6-0.6-1.1-1.1-1.5c0.7-0.3,1.2-0.7,1.7-1.2
				c0.7-0.8,1.1-1.6,1.3-2.5c0.3-1.3,0-2.6-0.9-3.7C334.9,334.5,333.9,333.7,332.5,333.5z M334.7,339c-0.2,0.9-0.6,1.5-1.3,2
				c-0.7,0.5-1.4,0.7-2.2,0.6l-3.6-0.7l1.1-6.1l3.5,0.7c0.9,0.2,1.5,0.6,2,1.3C334.7,337.4,334.8,338.1,334.7,339z"/>
			<path fill="#05273C" d="M349.7,336.1l-8.2-1.1c-0.3,0-0.5,0-0.7,0.2c-0.2,0.2-0.3,0.4-0.3,0.7l-2,14.9c0,0.3,0,0.5,0.2,0.7
				c0.2,0.2,0.3,0.3,0.6,0.3l8.2,1.1c0.1,0,0.1,0,0.2,0c0.2,0,0.4-0.1,0.6-0.2c0.2-0.2,0.3-0.4,0.3-0.7c0-0.3,0-0.5-0.2-0.8
				c-0.2-0.2-0.3-0.3-0.7-0.3l-7.2-1l0.8-5.5l6.3,0.9c0.3,0,0.5,0,0.7-0.2c0.2-0.2,0.3-0.4,0.3-0.7c0-0.3,0-0.5-0.2-0.7
				c-0.2-0.3-0.4-0.3-0.7-0.4l-6.3-0.9l0.8-5.5l7.2,1c0.3,0,0.5,0,0.7-0.2c0.2-0.2,0.3-0.4,0.3-0.7c0-0.3,0-0.5-0.2-0.8
				C350.3,336.2,350,336.1,349.7,336.1z"/>
			<path fill="#05273C" d="M357.1,336.9l-3-0.3c-0.3,0-0.5,0.1-0.7,0.3c-0.2,0.2-0.3,0.4-0.3,0.7l-1.4,14.9c0,0.3,0.1,0.5,0.2,0.7
				c0.2,0.2,0.3,0.3,0.6,0.3l3.1,0.3c0.3,0,0.6,0.1,0.9,0.1c2,0,3.7-0.7,5.4-1.9c1.8-1.5,2.8-3.4,3-5.8c0.3-2.3-0.4-4.4-1.9-6.2
				C361.3,338.1,359.4,337.1,357.1,336.9z M362.8,346c-0.2,1.8-0.9,3.2-2.3,4.4c-1.4,1.2-3,1.7-4.8,1.5l-2-0.2l1.3-13l2,0.2
				c1.8,0.2,3.2,1,4.4,2.3C362.5,342.5,363,344.2,362.8,346z"/>
			<path fill="#05273C" d="M376.9,338.4l-8.2-0.5c-0.3,0-0.5,0.1-0.7,0.3c-0.2,0.2-0.3,0.4-0.3,0.7l-0.9,15l0,0
				c0,0.3,0.1,0.5,0.3,0.7c0.2,0.2,0.3,0.3,0.6,0.3l8.3,0.5h0.1c0.3,0,0.4-0.1,0.7-0.3c0.2-0.2,0.3-0.4,0.3-0.7
				c0-0.3-0.1-0.5-0.3-0.7c-0.2-0.2-0.4-0.3-0.7-0.3l-7.3-0.4l0.3-5.6l6.3,0.4c0.3,0,0.5-0.1,0.7-0.3c0.2-0.2,0.3-0.4,0.3-0.7
				c0-0.3-0.1-0.5-0.3-0.7c-0.2-0.2-0.4-0.3-0.7-0.3l-6.3-0.4l0.3-5.6l7.3,0.4c0.3,0,0.5-0.1,0.7-0.3c0.2-0.2,0.3-0.4,0.3-0.7
				c0-0.3-0.1-0.5-0.3-0.7C377.4,338.6,377.2,338.4,376.9,338.4z"/>
			<path fill="#05273C" d="M389.7,353.6c-0.1-0.2-0.3-0.7-0.2-1.6c0-1.1-0.2-2-0.6-2.7c-0.3-0.5-0.8-1-1.3-1.3
				c0.6-0.3,1.1-0.9,1.5-1.4c0.6-0.9,0.9-1.7,0.9-2.7c0.1-1.4-0.4-2.6-1.3-3.6c-0.9-1-2.1-1.5-3.5-1.6l-4.7-0.2
				c-0.3,0-0.4,0.1-0.6,0.3c-0.2,0.2-0.3,0.4-0.3,0.7l-0.5,15c0,0.3,0.1,0.5,0.3,0.7c0.2,0.2,0.4,0.3,0.7,0.3c0.3,0,0.5-0.1,0.7-0.3
				c0.2-0.2,0.3-0.4,0.3-0.7l0.2-6l3.4,0.1h0.1c0.6,0.1,1.2,0.4,1.8,0.9c0.8,0.6,1.1,1.3,1.1,2.2c-0.1,2.5,0.5,3.8,1.8,3.8h0.1h0.3
				h0.1h0.1c0.5-0.2,0.8-0.6,0.7-1.3C390.4,353.9,390.1,353.7,389.7,353.6z M388.2,343.8c0,0.9-0.3,1.6-0.9,2.2
				c-0.6,0.6-1.3,0.9-2.2,0.9l0,0l-3.6-0.1l0.2-6.2l3.6,0.1c0.9,0,1.6,0.3,2.2,1C387.9,342.2,388.2,343,388.2,343.8z"/>
			<path fill="#05273C" d="M394.4,339c-0.3,0-0.5,0.1-0.7,0.3c-0.2,0.2-0.3,0.4-0.3,0.7l-0.2,15c0,0.3,0.1,0.5,0.3,0.7
				c0.2,0.2,0.4,0.3,0.7,0.3l0,0c0.3,0,0.5-0.1,0.7-0.3c0.2-0.2,0.3-0.4,0.3-0.7l0.2-15c0-0.3-0.1-0.5-0.3-0.7
				C394.9,339.1,394.7,339,394.4,339z"/>
			<path fill="#05273C" d="M412.7,352c-0.3,0-0.5,0-0.8,0.3c-1.1,1-2.6,1.6-4.3,1.7c-1.8,0.1-3.3-0.5-4.8-1.8
				c-1.4-1.3-2.1-2.7-2.2-4.6s0.5-3.4,1.8-4.8c1.3-1.3,2.9-2.1,4.8-2.2c1.6-0.1,3,0.4,4.3,1.3c0.2,0.2,0.4,0.3,0.7,0.2
				c0.3,0,0.5-0.2,0.6-0.3c0.2-0.2,0.3-0.5,0.3-0.8c-0.1-0.3-0.2-0.5-0.4-0.7c-1.7-1.2-3.5-1.8-5.5-1.7c-2.4,0.1-4.5,1-6.1,2.7
				c-1.7,1.8-2.4,3.8-2.3,6.2c0.1,2.3,1,4.3,2.8,6c1.7,1.5,3.6,2.2,5.9,2.2c0.1,0,0.3,0,0.3,0c2-0.1,3.8-0.8,5.4-2
				c0.2-0.2,0.3-0.4,0.3-0.7c0-0.3-0.1-0.5-0.3-0.7C413.2,352.1,412.9,352.1,412.7,352z"/>
			<path fill="#05273C" d="M425.6,337l-10.8,1.4c-0.3,0-0.5,0.2-0.7,0.3c-0.2,0.1-0.3,0.4-0.2,0.7c0,0.3,0.2,0.5,0.3,0.7
				c0.2,0.2,0.4,0.3,0.8,0.2l4.4-0.6l1.8,13.9c0,0.3,0.2,0.5,0.3,0.7c0.2,0.2,0.3,0.2,0.6,0.2c0.1,0,0.1,0,0.2,0
				c0.3,0,0.5-0.2,0.7-0.3c0.2-0.2,0.3-0.4,0.2-0.7l-1.8-13.9l4.4-0.6c0.3,0,0.5-0.2,0.7-0.4c0.2-0.3,0.3-0.4,0.2-0.7
				c0-0.3-0.2-0.5-0.3-0.7C426.1,337,425.8,337,425.6,337z"/>
			<path fill="#05273C" d="M441,336.1c-1.9-1.3-4-1.7-6.2-1.2c-2.2,0.5-3.9,1.8-5.1,3.6c-1.2,2-1.5,4.2-1,6.4l0,0
				c0.5,2.3,1.8,4.2,3.6,5.4c1.4,0.9,2.8,1.4,4.4,1.4c0.6,0,1.2-0.1,1.8-0.2c2.2-0.5,3.9-1.8,5.1-3.6c1.2-1.9,1.5-4.1,1-6.4
				C444.1,339.2,442.8,337.4,441,336.1z M441.9,347c-0.9,1.5-2.2,2.5-3.8,2.8c-1.7,0.3-3.2,0.1-4.7-0.9c-1.5-1-2.4-2.4-2.8-4.2
				c-0.4-1.8-0.2-3.5,0.8-5c0.9-1.5,2.2-2.4,3.8-2.8l0,0c0.5-0.1,0.9-0.2,1.3-0.2c1.2,0,2.2,0.3,3.3,1.1c1.4,1,2.4,2.4,2.8,4.2
				C443.1,343.7,442.8,345.4,441.9,347z"/>
			<path fill="#05273C" d="M461.3,344.5l-4.3-14.3c-0.1-0.3-0.3-0.4-0.5-0.6c-0.3-0.1-0.5-0.2-0.8-0.1c-0.3,0.1-0.4,0.3-0.6,0.5
				c-0.1,0.3-0.2,0.5-0.1,0.8l3.5,11.3l-12.3-9.3c-0.2-0.2-0.4-0.3-0.8-0.2c-0.3,0-0.5,0.2-0.7,0.4c-0.3,0.3-0.3,0.7,0,1l4.3,14.1
				c0.1,0.3,0.3,0.4,0.5,0.6c0.2,0.1,0.3,0.1,0.4,0.1c0.1,0,0.2,0,0.3-0.1c0.3-0.1,0.4-0.3,0.6-0.5c0.1-0.3,0.2-0.5,0.1-0.8
				l-3.5-11.4l12.1,9.3l0.2,0.1c0.3,0.2,0.5,0.3,0.9,0.2c0.3-0.1,0.5-0.3,0.6-0.5C461.3,345,461.3,344.7,461.3,344.5z"/>
		</g>
		<g>
			<path fill="#42669A" d="M480.3,335.2c-0.4-0.2-0.9-0.2-1.3,0l-3.6,1.4l2.1-4.3c0.8-1.6,0.9-3.1,0.3-4.7c-0.6-1.5-1.6-2.6-3-3.2
				c-1.6-0.8-3.1-0.9-4.7-0.3c-1.5,0.6-2.6,1.6-3.2,3l-0.4,0.9c-0.2,0.4-0.3,0.9-0.1,1.3c0.2,0.4,0.4,0.8,0.9,0.9
				c0.4,0.2,0.9,0.3,1.3,0.1c0.4-0.2,0.8-0.4,0.9-0.9l0.4-0.9c0.3-0.6,0.8-1,1.5-1.3c0.7-0.3,1.3-0.3,1.9,0.1
				c0.7,0.3,1.1,0.9,1.3,1.5c0.3,0.7,0.3,1.3-0.1,2l-4,8.2c-0.2,0.4-0.3,0.9-0.1,1.3c0.2,0.4,0.4,0.8,0.9,0.9
				c0.3,0.1,0.4,0.2,0.7,0.2s0.4-0.1,0.7-0.2l7.6-3.1c0.4-0.2,0.8-0.5,0.9-0.9c0.2-0.4,0.2-0.9,0-1.3
				C481,335.7,480.7,335.3,480.3,335.2z"/>
			<path fill="#42669A" d="M487.7,319.3c-0.9-0.5-1.8-0.9-2.7-0.9c-0.9-0.1-1.8,0-2.7,0.4c-1.7,0.9-2.7,2.2-3,4.4
				c-0.3,1.8,0,3.8,0.9,5.9l0,0c1,2,2.3,3.5,3.9,4.5c1.1,0.7,2.2,1,3.2,1c0.8,0,1.4-0.2,2.1-0.5c0.9-0.4,1.5-1,2-1.8
				c0.5-0.8,0.9-1.7,1-2.7c0.3-1.9,0-3.8-1-5.8C490.7,321.8,489.4,320.3,487.7,319.3z M489.3,329.1c-0.2,1-0.5,1.7-1.1,1.9
				c-0.6,0.3-1.3,0.2-2.2-0.3c-1.1-0.7-1.9-1.7-2.6-3c-0.7-1.3-0.9-2.7-0.8-3.9c0.2-1,0.6-1.7,1.2-1.9c0.2-0.1,0.4-0.2,0.7-0.2
				c0.4,0,0.9,0.2,1.5,0.5c1.1,0.7,1.9,1.8,2.6,3.1C489.2,326.6,489.4,327.9,489.3,329.1z"/>
			<path fill="#42669A" d="M496.2,313.5L496.2,313.5c-0.2-0.1-0.2-0.1-0.3-0.2l0,0c-0.1-0.2-0.3-0.3-0.8-0.4l-0.3-0.2h-0.3
				c-0.1,0-0.2,0-0.2,0h-0.1l-0.3,0.2c-0.1,0.1-0.3,0.2-0.3,0.3l-2,3.1c-0.3,0.4-0.3,0.9-0.3,1.3c0.1,0.4,0.4,0.9,0.8,1
				c0.5,0.3,1.1,0.3,1.7,0.1c0.3-0.2,0.5-0.3,0.7-0.6l0.2-0.3l4.9,9.4c0.3,0.4,0.6,0.7,1,0.9c0.2,0.1,0.3,0.1,0.5,0.1
				c0.3,0,0.5-0.1,0.8-0.2c0.4-0.3,0.7-0.5,0.9-1c0.2-0.4,0.1-0.9-0.1-1.3L496.2,313.5z"/>
			<path fill="#42669A" d="M512.2,315.4c-0.5-0.9-1.2-1.6-2-2.1c-0.8-0.4-1.5-0.7-2.3-0.9c0-0.8-0.2-1.5-0.7-2.3
				c-0.5-0.9-1.3-1.5-2.5-1.8c-1.1-0.3-2.2-0.2-3.1,0.4c-1,0.6-1.7,1.4-1.9,2.6c-0.3,1.1-0.2,2.2,0.3,3.1c0.4,0.8,1,1.3,1.7,1.7
				c-0.3,0.8-0.5,1.6-0.4,2.4c0,1,0.3,1.9,0.9,2.7c0.9,1.4,2,2.3,3.6,2.7c0.5,0.2,1.1,0.2,1.6,0.2c1,0,2-0.3,2.9-0.9
				c1.4-0.9,2.3-2,2.7-3.6C513.2,318.3,512.9,316.8,512.2,315.4z M504.4,312.7c-0.1,0.3-0.2,0.4-0.4,0.6c-0.3,0.1-0.4,0.2-0.7,0.1
				c-0.3-0.1-0.4-0.2-0.6-0.4c-0.1-0.3-0.2-0.4-0.1-0.7c0.1-0.3,0.2-0.4,0.4-0.6c0.2-0.1,0.3-0.1,0.4-0.1c0.1,0,0.2,0,0.3,0
				c0.3,0.1,0.4,0.2,0.5,0.4C504.5,312.2,504.5,312.5,504.4,312.7z M509.3,317.2c0.3,0.6,0.4,1.3,0.3,1.9c-0.2,0.7-0.6,1.3-1.2,1.6
				s-1.3,0.4-2,0.3c-0.7-0.2-1.3-0.6-1.6-1.2c-0.3-0.7-0.4-1.3-0.3-2c0.2-0.7,0.6-1.3,1.2-1.6c0.4-0.3,0.9-0.3,1.3-0.3
				c0.3,0,0.5,0,0.8,0.1C508.4,316.1,508.9,316.5,509.3,317.2z"/>
		</g>
	</g>
</g>
<g>
	<g>
		<path fill="#485E29" d="M131.6,276.3c0-18.1-2.3-33.3-2.3-33.3s-40.5-2.6-62.3-3.6c0,0-42.2,2.4-62.4,3.6c0,0-2.3,15.2-2.3,33.3
			c0,0-4.5,76.2,64.6,116.7C136.1,352.5,131.6,276.3,131.6,276.3z"/>
	</g>
	<g>
		<path fill="#FFFFFF" d="M66.9,389.6l-0.4-0.2c-15.1-8.9-27.7-20.2-37.5-33.8c-7.9-10.9-14-23.2-18.2-36.6
			c-7-22.5-6.2-40.5-6.1-41.3c0-17.1,2.2-31.6,2.2-31.7l0.1-0.6l0.6,0c19.2-1.1,59.3-3.4,59.3-3.4h0h0c20.6,0.9,58.9,3.4,59.3,3.4
			l0.6,0l0.1,0.5c0,0.1,2.2,14.7,2.2,31.7c0,0.8,0.9,18.9-6.1,41.3c-4.2,13.4-10.3,25.7-18.2,36.6c-9.9,13.6-22.5,25-37.5,33.8
			L66.9,389.6z M8.3,246.8c-0.4,2.8-2.1,15.9-2.1,31v0c0,0.2-0.9,18.3,6.1,40.9c4.1,13.2,10.2,25.4,18,36.1
			c9.6,13.3,22,24.5,36.8,33.2c14.8-8.7,27.1-19.9,36.8-33.2c7.8-10.8,13.8-22.9,18-36.1c7.1-22.5,6.1-40.7,6.1-40.9v0
			c0-15.1-1.7-28.2-2.1-31c-4.9-0.3-39.5-2.5-58.7-3.4C65.6,243.5,27.3,245.7,8.3,246.8z"/>
	</g>
	<g>
		<path fill="#FFFFFF" d="M66.9,377.5l-0.3-0.2c-12.8-7.5-23.5-17.2-31.9-28.8c-6.7-9.2-11.9-19.7-15.4-31.1
			C13.3,298.4,14,283,14,282.3c0-14.5,1.8-26.8,1.8-27l0.1-0.5l0.5,0c16.3-0.9,50.4-2.9,50.4-2.9h0h0c17.5,0.8,50.1,2.9,50.4,2.9
			l0.5,0l0.1,0.5c0,0.1,1.8,12.5,1.8,27c0,0.7,0.7,16-5.2,35.1c-3.6,11.4-8.7,21.8-15.4,31.1c-8.4,11.6-19.1,21.2-31.9,28.8
			L66.9,377.5z M17.1,256.1c-0.4,2.5-1.8,13.5-1.8,26.3v0c0,0.1-0.8,15.5,5.2,34.7c3.5,11.2,8.6,21.6,15.3,30.7
			c8.2,11.3,18.7,20.8,31.2,28.2c12.5-7.4,23-16.9,31.2-28.2c6.6-9.1,11.7-19.4,15.3-30.7c6-19.2,5.2-34.6,5.2-34.7v0
			c0-12.7-1.4-23.8-1.8-26.3c-4.3-0.3-33.6-2.1-49.8-2.9C65.8,253.3,33.3,255.2,17.1,256.1z"/>
	</g>
	<g>
		<path fill="#FFFFFF" d="M41.6,269.3c-0.2-0.4-0.5-0.7-0.9-1c-0.4-0.3-0.8-0.5-1.2-0.7c-0.4-0.2-0.9-0.2-1.4-0.2
			c-0.9,0-1.7,0.2-2.3,0.5c-0.6,0.4-1.2,0.8-1.5,1.4c-0.4,0.6-0.7,1.3-0.9,2c-0.2,0.8-0.3,1.5-0.3,2.3s0.1,1.5,0.3,2.2
			c0.2,0.7,0.4,1.3,0.9,1.9s0.9,1,1.5,1.4s1.4,0.5,2.3,0.5c1.3,0,2.2-0.4,2.9-1.1s1.1-1.7,1.3-2.9h3.9c-0.1,1.1-0.4,2.2-0.8,3.1
			c-0.4,0.9-1,1.7-1.7,2.3c-0.7,0.6-1.5,1.1-2.5,1.5c-0.9,0.4-2,0.5-3.1,0.5c-1.4,0-2.7-0.2-3.8-0.7c-1.1-0.5-2.1-1.1-2.8-2
			c-0.8-0.9-1.3-1.8-1.8-3c-0.4-1.1-0.6-2.4-0.6-3.7c0-1.3,0.2-2.6,0.6-3.8c0.4-1.2,1-2.2,1.8-3c0.8-0.9,1.7-1.5,2.8-2
			c1.1-0.5,2.4-0.7,3.8-0.7c1,0,2,0.1,2.9,0.4c0.9,0.3,1.7,0.7,2.4,1.3c0.7,0.5,1.3,1.2,1.8,2c0.4,0.8,0.8,1.8,0.9,2.8H42
			C42,270.1,41.8,269.7,41.6,269.3z"/>
		<path fill="#FFFFFF" d="M54.4,278.1c0.2,0.4,0.5,0.8,0.9,1c0.4,0.3,0.8,0.4,1.3,0.6c0.5,0.1,1,0.2,1.5,0.2c0.4,0,0.8,0,1.2-0.1
			c0.4,0,0.8-0.2,1.2-0.4c0.4-0.2,0.7-0.4,0.9-0.7c0.2-0.3,0.4-0.7,0.4-1.1c0-0.5-0.2-0.9-0.5-1.2c-0.3-0.3-0.7-0.5-1.3-0.8
			s-1.1-0.4-1.8-0.5c-0.7-0.1-1.3-0.3-2-0.5c-0.7-0.2-1.3-0.4-2-0.6c-0.7-0.2-1.3-0.5-1.8-0.9c-0.5-0.4-0.9-0.9-1.3-1.4
			c-0.3-0.6-0.5-1.3-0.5-2.1c0-0.9,0.2-1.8,0.6-2.4c0.4-0.7,0.9-1.3,1.6-1.7c0.7-0.4,1.4-0.8,2.2-1c0.8-0.2,1.7-0.3,2.5-0.3
			c0.9,0,1.9,0.1,2.8,0.3c0.9,0.2,1.7,0.5,2.4,1c0.7,0.5,1.2,1.1,1.6,1.8c0.4,0.7,0.6,1.6,0.6,2.7h-3.9c0-0.5-0.1-1-0.4-1.3
			c-0.2-0.4-0.4-0.6-0.8-0.9c-0.3-0.2-0.7-0.4-1.1-0.4c-0.4-0.1-0.9-0.1-1.4-0.1c-0.3,0-0.7,0-1,0.1c-0.3,0.1-0.6,0.2-0.9,0.4
			c-0.3,0.2-0.5,0.4-0.7,0.6c-0.2,0.3-0.3,0.6-0.3,0.9s0.1,0.6,0.2,0.9s0.4,0.4,0.8,0.6c0.4,0.2,0.9,0.4,1.7,0.5
			c0.7,0.2,1.7,0.4,2.8,0.7c0.4,0.1,0.8,0.2,1.4,0.4s1.2,0.4,1.8,0.9c0.6,0.4,1.1,0.9,1.6,1.6c0.4,0.6,0.7,1.5,0.7,2.5
			c0,0.8-0.2,1.6-0.5,2.3c-0.3,0.7-0.8,1.3-1.4,1.8c-0.6,0.5-1.4,0.9-2.4,1.2c-0.9,0.3-2.1,0.4-3.3,0.4c-1,0-2-0.1-3-0.4
			c-0.9-0.2-1.8-0.6-2.5-1.2s-1.3-1.2-1.8-2s-0.6-1.8-0.6-2.9H54C54.1,277.2,54.2,277.7,54.4,278.1z"/>
		<path fill="#FFFFFF" d="M82.3,269.3c-0.2-0.4-0.5-0.7-0.9-1c-0.4-0.3-0.8-0.5-1.2-0.7c-0.4-0.2-0.9-0.2-1.4-0.2
			c-0.9,0-1.7,0.2-2.3,0.5c-0.6,0.4-1.2,0.8-1.5,1.4c-0.4,0.6-0.7,1.3-0.9,2c-0.2,0.8-0.3,1.5-0.3,2.3s0.1,1.5,0.3,2.2
			c0.2,0.7,0.4,1.3,0.9,1.9s0.9,1,1.5,1.4c0.6,0.4,1.4,0.5,2.3,0.5c1.3,0,2.2-0.4,2.9-1.1s1.1-1.7,1.3-2.9h3.9
			c-0.1,1.1-0.4,2.2-0.8,3.1s-1,1.7-1.7,2.3c-0.7,0.6-1.5,1.1-2.5,1.5c-0.9,0.4-2,0.5-3.1,0.5c-1.4,0-2.7-0.2-3.8-0.7
			s-2.1-1.1-2.8-2c-0.8-0.9-1.3-1.8-1.8-3c-0.4-1.1-0.6-2.4-0.6-3.7c0-1.3,0.2-2.6,0.6-3.8c0.4-1.2,1-2.2,1.8-3
			c0.8-0.9,1.7-1.5,2.8-2c1.1-0.5,2.4-0.7,3.8-0.7c1,0,2,0.1,2.9,0.4c0.9,0.3,1.7,0.7,2.4,1.3s1.3,1.2,1.8,2
			c0.4,0.8,0.8,1.8,0.9,2.8h-3.9C82.7,270.1,82.6,269.7,82.3,269.3z"/>
		<path fill="#FFFFFF" d="M105.8,264.5v3.3h-9.8v3.9h9v3.1h-9v4.5h9.9v3.3H92v-18.1H105.8z"/>
	</g>
	<g>
		<path fill="#FFFFFF" d="M61.8,293.1c-0.2-0.4-0.5-0.7-0.9-1c-0.4-0.3-0.8-0.5-1.2-0.7c-0.4-0.2-0.9-0.2-1.4-0.2
			c-0.9,0-1.7,0.2-2.3,0.5c-0.6,0.4-1.2,0.8-1.5,1.4c-0.4,0.6-0.7,1.3-0.9,2c-0.2,0.8-0.3,1.5-0.3,2.3s0.1,1.5,0.3,2.2
			c0.2,0.7,0.4,1.3,0.9,1.9c0.4,0.6,0.9,1,1.5,1.4s1.4,0.5,2.3,0.5c1.3,0,2.2-0.4,2.9-1.1s1.1-1.7,1.3-2.9h3.9
			c-0.1,1.1-0.4,2.2-0.8,3.1c-0.4,0.9-1,1.7-1.7,2.3s-1.5,1.1-2.5,1.5c-0.9,0.4-2,0.5-3.1,0.5c-1.4,0-2.7-0.2-3.8-0.7
			c-1.1-0.5-2.1-1.1-2.8-2c-0.8-0.9-1.3-1.8-1.8-3c-0.4-1.1-0.6-2.4-0.6-3.7c0-1.3,0.2-2.6,0.6-3.8c0.4-1.2,1-2.2,1.8-3
			c0.8-0.9,1.7-1.5,2.8-2c1.1-0.5,2.4-0.7,3.8-0.7c1,0,2,0.1,2.9,0.4c0.9,0.3,1.7,0.7,2.4,1.3c0.7,0.5,1.3,1.2,1.8,2
			c0.4,0.8,0.8,1.8,0.9,2.8h-3.9C62.2,293.9,62,293.5,61.8,293.1z"/>
		<path fill="#FFFFFF" d="M60.9,330.8c-0.9,0.4-1.8,0.5-2.7,0.5c-1.4,0-2.7-0.2-3.8-0.7c-1.1-0.5-2.1-1.1-2.8-2
			c-0.8-0.9-1.3-1.8-1.8-3c-0.4-1.1-0.6-2.4-0.6-3.7c0-1.3,0.2-2.6,0.6-3.8c0.4-1.2,1-2.2,1.8-3c0.8-0.9,1.7-1.5,2.8-2
			c1.1-0.5,2.4-0.7,3.8-0.7c0.9,0,1.8,0.1,2.7,0.4c0.9,0.3,1.7,0.7,2.4,1.2c0.7,0.5,1.3,1.2,1.8,2c0.4,0.8,0.8,1.7,0.9,2.7h-3.9
			c-0.2-1-0.7-1.8-1.4-2.3c-0.7-0.5-1.5-0.8-2.5-0.8c-0.9,0-1.7,0.2-2.3,0.5c-0.6,0.4-1.2,0.8-1.5,1.4c-0.4,0.6-0.7,1.3-0.9,2
			c-0.2,0.8-0.3,1.5-0.3,2.3s0.1,1.5,0.3,2.2c0.2,0.7,0.4,1.3,0.9,1.9c0.4,0.6,0.9,1,1.5,1.4s1.4,0.5,2.3,0.5c1.3,0,2.4-0.3,3.1-1
			c0.7-0.7,1.2-1.6,1.3-2.9h-4.1v-3h7.7v9.8h-2.6l-0.4-2.1C62.6,329.8,61.8,330.5,60.9,330.8z"/>
		<path fill="#FFFFFF" d="M61.8,342.3c-0.2-0.4-0.5-0.7-0.9-1c-0.4-0.3-0.8-0.5-1.2-0.7c-0.4-0.2-0.9-0.2-1.4-0.2
			c-0.9,0-1.7,0.2-2.3,0.5s-1.2,0.8-1.5,1.4c-0.4,0.6-0.7,1.3-0.9,2c-0.2,0.8-0.3,1.5-0.3,2.3s0.1,1.5,0.3,2.2
			c0.2,0.7,0.4,1.3,0.9,1.9c0.4,0.6,0.9,1,1.5,1.4c0.6,0.4,1.4,0.5,2.3,0.5c1.3,0,2.2-0.4,2.9-1.1c0.7-0.8,1.1-1.7,1.3-2.9h3.9
			c-0.1,1.1-0.4,2.2-0.8,3.1c-0.4,0.9-1,1.7-1.7,2.3s-1.5,1.1-2.5,1.5c-0.9,0.4-2,0.5-3.1,0.5c-1.4,0-2.7-0.2-3.8-0.7
			c-1.1-0.5-2.1-1.1-2.8-2c-0.8-0.9-1.3-1.8-1.8-3c-0.4-1.1-0.6-2.4-0.6-3.7c0-1.3,0.2-2.6,0.6-3.8c0.4-1.2,1-2.2,1.8-3
			c0.8-0.9,1.7-1.5,2.8-2c1.1-0.5,2.4-0.7,3.8-0.7c1,0,2,0.1,2.9,0.4c0.9,0.3,1.7,0.7,2.4,1.3c0.7,0.5,1.3,1.2,1.8,2
			c0.4,0.8,0.8,1.8,0.9,2.8h-3.9C62.2,343.1,62,342.7,61.8,342.3z"/>
	</g>
	<g>
		<path fill="#EE334E" d="M89.1,300.9l-2,5.7l-4.4-1.8l2.1,11.6l-6-5.6v3.3l-4.8-1.3l1.3,3.6c0,0,0.4,0.7-0.4,1.2l-2.2,0.5l8.2,6
			l-1,2.5l9.5-1.2v8.8h0.9v-8.8l7.9,1.1l-1.1-2.1l8.5-6.4l-2.1-0.5c0,0-0.6-0.2-0.4-1.2l1.2-3.5l-4.7,1.1l0-3.3l-5.9,5.7l2-11.6
			l-4.4,1.7L89.1,300.9z"/>
		<path fill="#FFFFFF" d="M90.5,334.5H89v-8.8l-9.6,1.2l1.1-2.7l-8.5-6.2l2.7-0.6c0.2-0.1,0.3-0.2,0.4-0.4c0-0.2,0-0.4,0-0.4v0
			l-1.4-4.1l4.9,1.4v-3.6l5.9,5.5l-2-11.3l4.6,1.8l2.1-6.1l2.2,6.1l4.6-1.8l-1.9,11.2l5.8-5.6l0.1,3.5l4.8-1.1l-1.3,4
			c-0.1,0.6,0.2,0.9,0.3,0.9l2.6,0.6l-8.7,6.6l1.2,2.3l-8.1-1.1L90.5,334.5L90.5,334.5z M89.6,333.9H90V325l7.7,1.1l-0.9-1.8
			l8.2-6.2l-1.6-0.4c-0.3-0.1-0.8-0.5-0.6-1.5v0l1.1-3.1l-4.5,1l0-3l-6.1,5.8l2-11.9l-4.2,1.7l-1.8-5.2l-1.8,5.3l-4.2-1.7l2.1,11.9
			l-6.2-5.8v3.1l-4.6-1.3l1.1,3.1c0,0.1,0.2,0.4,0,0.8c-0.1,0.3-0.3,0.5-0.6,0.7l0,0l-1.6,0.4l8,5.8l-0.9,2.3l9.4-1.1L89.6,333.9
			L89.6,333.9z"/>
	</g>
	<g>
		<path fill="#FFFFFF" d="M81.7,344.3v-4.2H80v-1c0.2,0,0.4,0,0.7,0c0.2,0,0.4-0.1,0.6-0.2c0.2-0.1,0.3-0.2,0.4-0.4
			c0.1-0.2,0.2-0.4,0.2-0.6H83v6.5H81.7z"/>
		<path fill="#FFFFFF" d="M85.2,338.7c0.1-0.2,0.3-0.4,0.5-0.5c0.2-0.1,0.4-0.3,0.7-0.3c0.3-0.1,0.5-0.1,0.8-0.1c0.4,0,0.8,0,1,0.2
			c0.3,0.1,0.5,0.3,0.7,0.4c0.2,0.2,0.3,0.4,0.4,0.6c0.1,0.2,0.1,0.4,0.1,0.5c0,0.3-0.1,0.6-0.2,0.9c-0.2,0.2-0.4,0.4-0.7,0.5l0,0
			c0.4,0.1,0.7,0.3,0.9,0.5c0.2,0.3,0.3,0.6,0.3,1c0,0.4-0.1,0.6-0.2,0.9c-0.1,0.3-0.3,0.4-0.5,0.6c-0.2,0.2-0.5,0.3-0.8,0.4
			c-0.3,0.1-0.6,0.1-0.9,0.1s-0.6,0-0.9-0.1c-0.3-0.1-0.6-0.2-0.8-0.4c-0.2-0.2-0.4-0.4-0.6-0.6c-0.1-0.3-0.2-0.5-0.2-0.9
			c0-0.4,0.1-0.8,0.3-1c0.2-0.3,0.5-0.4,0.9-0.5l0,0c-0.3-0.1-0.5-0.3-0.7-0.5s-0.2-0.5-0.2-0.9C85,339.2,85.1,338.9,85.2,338.7z
			 M86.2,342.8c0,0.1,0.1,0.3,0.3,0.4c0.1,0.1,0.2,0.2,0.4,0.2c0.1,0,0.3,0.1,0.4,0.1c0.2,0,0.3,0,0.4-0.1c0.1,0,0.3-0.1,0.4-0.2
			s0.2-0.2,0.2-0.4s0.1-0.3,0.1-0.4c0-0.1,0-0.3-0.1-0.4c0-0.1-0.1-0.2-0.2-0.3s-0.2-0.2-0.4-0.2c-0.1,0-0.3-0.1-0.4-0.1
			c-0.3,0-0.6,0.1-0.8,0.3c-0.2,0.2-0.4,0.4-0.4,0.8C86.1,342.5,86.1,342.6,86.2,342.8z M86.5,340.2c0.2,0.1,0.4,0.2,0.7,0.2
			s0.5-0.1,0.7-0.2c0.2-0.1,0.3-0.4,0.3-0.6c0-0.1,0-0.2,0-0.3s-0.1-0.2-0.1-0.3c-0.1-0.1-0.2-0.2-0.3-0.2c-0.1,0-0.3-0.1-0.5-0.1
			c-0.1,0-0.3,0-0.4,0c-0.1,0-0.2,0.1-0.3,0.2s-0.2,0.2-0.2,0.3s-0.1,0.2-0.1,0.4C86.2,339.8,86.3,340.1,86.5,340.2z"/>
		<path fill="#FFFFFF" d="M90.5,338.7c0.1-0.2,0.3-0.4,0.5-0.5c0.2-0.1,0.4-0.3,0.7-0.3c0.3-0.1,0.5-0.1,0.8-0.1c0.4,0,0.8,0,1,0.2
			s0.5,0.3,0.7,0.4c0.2,0.2,0.3,0.4,0.4,0.6c0.1,0.2,0.1,0.4,0.1,0.5c0,0.3-0.1,0.6-0.2,0.9c-0.2,0.2-0.4,0.4-0.7,0.5l0,0
			c0.4,0.1,0.7,0.3,0.9,0.5c0.2,0.3,0.3,0.6,0.3,1c0,0.4-0.1,0.6-0.2,0.9c-0.1,0.3-0.3,0.4-0.5,0.6c-0.2,0.2-0.5,0.3-0.8,0.4
			s-0.6,0.1-0.9,0.1c-0.3,0-0.6,0-0.9-0.1c-0.3-0.1-0.6-0.2-0.8-0.4c-0.2-0.2-0.4-0.4-0.6-0.6c-0.1-0.3-0.2-0.5-0.2-0.9
			c0-0.4,0.1-0.8,0.3-1c0.2-0.3,0.5-0.4,0.9-0.5l0,0c-0.3-0.1-0.5-0.3-0.7-0.5c-0.2-0.2-0.2-0.5-0.2-0.9
			C90.3,339.2,90.4,338.9,90.5,338.7z M91.5,342.8c0,0.1,0.1,0.3,0.3,0.4c0.1,0.1,0.2,0.2,0.4,0.2c0.1,0,0.3,0.1,0.4,0.1
			c0.2,0,0.3,0,0.4-0.1c0.1,0,0.3-0.1,0.4-0.2s0.2-0.2,0.2-0.4s0.1-0.3,0.1-0.4c0-0.1,0-0.3-0.1-0.4c0-0.1-0.1-0.2-0.2-0.3
			s-0.2-0.2-0.4-0.2c-0.1,0-0.3-0.1-0.4-0.1c-0.3,0-0.6,0.1-0.8,0.3c-0.2,0.2-0.4,0.4-0.4,0.8C91.4,342.5,91.4,342.6,91.5,342.8z
			 M91.8,340.2c0.2,0.1,0.4,0.2,0.7,0.2c0.3,0,0.5-0.1,0.7-0.2c0.2-0.1,0.3-0.4,0.3-0.6c0-0.1,0-0.2,0-0.3s-0.1-0.2-0.1-0.3
			c-0.1-0.1-0.2-0.2-0.3-0.2c-0.1,0-0.3-0.1-0.5-0.1c-0.1,0-0.3,0-0.4,0c-0.1,0-0.2,0.1-0.3,0.2s-0.2,0.2-0.2,0.3s-0.1,0.2-0.1,0.4
			C91.6,339.8,91.6,340.1,91.8,340.2z"/>
		<path fill="#FFFFFF" d="M99.2,340c-0.3,0.4-0.5,0.9-0.7,1.4c-0.2,0.5-0.3,1-0.4,1.5c-0.1,0.5-0.1,0.9-0.1,1.4h-1.4
			c0.1-0.9,0.3-1.9,0.7-2.8c0.4-0.9,0.9-1.7,1.5-2.5h-3.1v-1.2h4.5v1.1C99.7,339.3,99.4,339.6,99.2,340z"/>
	</g>
</g>
</svg>
